G04 (created by PCBNEW (2013-07-07 BZR 4022)-stable) date 5/30/2015 6:27:29 PM*
%MOIN*%
G04 Gerber Fmt 3.4, Leading zero omitted, Abs format*
%FSLAX34Y34*%
G01*
G70*
G90*
G04 APERTURE LIST*
%ADD10C,0.00590551*%
%ADD11C,0.00393701*%
%ADD12R,0.051X0.061*%
%ADD13R,0.036X0.036*%
%ADD14R,0.035X0.055*%
%ADD15R,0.0157X0.0236*%
%ADD16R,0.0236X0.0157*%
%ADD17R,0.0314X0.0314*%
%ADD18R,0.0393701X0.023622*%
%ADD19R,0.023622X0.0393701*%
%ADD20R,0.015748X0.0531496*%
%ADD21C,0.0669291*%
%ADD22C,0.0216535*%
%ADD23R,0.0590551X0.0393701*%
%ADD24R,0.053937X0.0846457*%
%ADD25R,0.0394X0.0236*%
%ADD26R,0.0137795X0.0551181*%
%ADD27C,0.03*%
%ADD28C,0.01*%
%ADD29C,0.02*%
%ADD30C,0.008*%
G04 APERTURE END LIST*
G54D10*
G54D11*
X84500Y-52000D02*
G75*
G03X84500Y-52000I-6500J0D01*
G74*
G01*
G54D12*
X81765Y-53499D03*
X81765Y-50351D03*
X83535Y-50351D03*
X83535Y-53499D03*
G54D13*
X75950Y-56700D03*
X75250Y-56700D03*
X75600Y-55900D03*
G54D14*
X77375Y-55200D03*
X76625Y-55200D03*
X74575Y-56000D03*
X73825Y-56000D03*
X73395Y-55215D03*
X74145Y-55215D03*
G54D15*
X74291Y-53543D03*
X73937Y-53543D03*
G54D16*
X75300Y-55023D03*
X75300Y-55377D03*
G54D15*
X80977Y-53400D03*
X80623Y-53400D03*
G54D16*
X80950Y-50487D03*
X80950Y-50133D03*
X75900Y-55377D03*
X75900Y-55023D03*
X74700Y-55377D03*
X74700Y-55023D03*
G54D15*
X73937Y-53051D03*
X74291Y-53051D03*
G54D16*
X82200Y-54573D03*
X82200Y-54927D03*
G54D17*
X80950Y-51015D03*
X80950Y-51605D03*
X80960Y-52775D03*
X80960Y-52185D03*
G54D18*
X75702Y-46398D03*
X75702Y-46712D03*
X75702Y-47027D03*
X75702Y-47342D03*
X75702Y-47657D03*
X75702Y-47972D03*
X75702Y-48287D03*
X75702Y-48602D03*
X75702Y-48917D03*
X75702Y-49232D03*
X75702Y-49547D03*
X75702Y-49862D03*
X75702Y-50177D03*
X75702Y-50492D03*
X75702Y-50807D03*
X75702Y-51122D03*
X75702Y-51437D03*
X75702Y-51752D03*
X75702Y-52067D03*
X75702Y-52382D03*
X75702Y-52697D03*
G54D19*
X76095Y-53090D03*
X76410Y-53090D03*
X76725Y-53090D03*
X77040Y-53090D03*
X77355Y-53090D03*
X77670Y-53090D03*
X77985Y-53090D03*
X78300Y-53090D03*
X78615Y-53090D03*
X78930Y-53090D03*
X79245Y-53090D03*
X79560Y-53090D03*
X79875Y-53090D03*
G54D18*
X80268Y-52697D03*
X80268Y-52382D03*
X80268Y-52067D03*
X80268Y-51752D03*
X80268Y-51437D03*
X80268Y-51122D03*
X80268Y-50807D03*
X80268Y-50492D03*
X80268Y-50177D03*
X80268Y-49862D03*
X80268Y-49547D03*
X80268Y-49232D03*
X80268Y-48917D03*
X80268Y-48602D03*
X80268Y-48287D03*
X80268Y-47972D03*
X80268Y-47657D03*
G54D20*
X77500Y-56142D03*
X77756Y-56142D03*
X78012Y-56142D03*
X78267Y-56142D03*
X78523Y-56142D03*
G54D21*
X76624Y-57195D03*
X79399Y-57195D03*
G54D22*
X77224Y-56348D03*
X78799Y-56348D03*
G54D23*
X78430Y-54850D03*
X78430Y-54100D03*
G54D15*
X74291Y-54035D03*
X73937Y-54035D03*
G54D16*
X79330Y-54941D03*
X79330Y-55295D03*
G54D24*
X75885Y-54133D03*
X77263Y-54133D03*
G54D25*
X81066Y-55325D03*
X80234Y-54950D03*
X81066Y-54575D03*
G54D15*
X73602Y-48818D03*
X73248Y-48818D03*
G54D16*
X74212Y-48543D03*
X74212Y-48897D03*
X73425Y-53425D03*
X73425Y-53071D03*
G54D15*
X74823Y-51181D03*
X75177Y-51181D03*
G54D26*
X74212Y-49783D03*
X73960Y-49780D03*
X73700Y-49783D03*
X73444Y-49783D03*
X73188Y-49783D03*
X72933Y-49783D03*
X72677Y-49783D03*
X72421Y-49783D03*
X72421Y-52047D03*
X72677Y-52047D03*
X72933Y-52047D03*
X73188Y-52047D03*
X73444Y-52047D03*
X73700Y-52047D03*
X73956Y-52047D03*
X74212Y-52047D03*
G54D27*
X75000Y-48917D03*
X76377Y-48917D03*
X78700Y-53600D03*
X78000Y-55500D03*
X76710Y-50380D03*
X74690Y-54300D03*
X74700Y-56700D03*
X78500Y-52500D03*
X82825Y-54925D03*
X83125Y-52300D03*
X82450Y-51550D03*
X83125Y-51575D03*
X81225Y-56150D03*
X76890Y-48540D03*
X76905Y-47925D03*
X77445Y-48570D03*
X72933Y-51574D03*
X74409Y-51181D03*
X73917Y-50492D03*
X79724Y-47637D03*
X79800Y-56000D03*
X73326Y-54429D03*
X75100Y-55900D03*
X78900Y-52200D03*
X77975Y-51000D03*
X81775Y-52775D03*
G54D28*
X79560Y-50339D02*
X79560Y-50327D01*
X74606Y-49311D02*
X74212Y-49311D01*
X75000Y-48917D02*
X74606Y-49311D01*
X78149Y-48917D02*
X76377Y-48917D01*
X79560Y-50327D02*
X78149Y-48917D01*
X74212Y-48897D02*
X74212Y-49311D01*
X74212Y-49311D02*
X74212Y-49783D01*
X79560Y-53610D02*
X80413Y-53610D01*
X80413Y-53610D02*
X80623Y-53400D01*
X81066Y-54575D02*
X80455Y-54575D01*
X79560Y-53680D02*
X79560Y-53610D01*
X79560Y-53610D02*
X79560Y-53090D01*
X80455Y-54575D02*
X79560Y-53680D01*
X81066Y-54575D02*
X82198Y-54575D01*
X82198Y-54575D02*
X82200Y-54573D01*
X82200Y-54573D02*
X82977Y-54573D01*
X83535Y-54015D02*
X83535Y-53499D01*
X82977Y-54573D02*
X83535Y-54015D01*
X79560Y-53090D02*
X79560Y-50339D01*
X79560Y-50339D02*
X80037Y-49862D01*
X80037Y-49862D02*
X80268Y-49862D01*
X80950Y-50133D02*
X80950Y-50130D01*
X80682Y-49862D02*
X80268Y-49862D01*
X80950Y-50130D02*
X80682Y-49862D01*
X77375Y-55200D02*
X77700Y-55200D01*
X78615Y-53515D02*
X78615Y-53090D01*
X78700Y-53600D02*
X78615Y-53515D01*
X77700Y-55200D02*
X78000Y-55500D01*
G54D29*
X76064Y-56615D02*
X76798Y-55881D01*
X76798Y-55881D02*
X76900Y-55881D01*
X76060Y-56615D02*
X76064Y-56615D01*
X76900Y-55881D02*
X76241Y-55881D01*
G54D28*
X77099Y-55881D02*
X77239Y-55881D01*
G54D29*
X76900Y-55881D02*
X77099Y-55881D01*
G54D28*
X77239Y-55881D02*
X77500Y-56142D01*
X76241Y-55881D02*
X76134Y-55881D01*
X76134Y-55881D02*
X75900Y-55377D01*
X75950Y-56700D02*
X75835Y-56640D01*
X75835Y-56640D02*
X76060Y-56615D01*
X75900Y-55377D02*
X75307Y-55370D01*
X75307Y-55370D02*
X75300Y-55377D01*
X77500Y-56142D02*
X77500Y-55450D01*
X77500Y-55450D02*
X77375Y-55200D01*
X76710Y-50380D02*
X76192Y-49862D01*
X74690Y-54330D02*
X74690Y-54300D01*
X75300Y-55023D02*
X75292Y-54932D01*
X76192Y-49862D02*
X75702Y-49862D01*
X75292Y-54932D02*
X74690Y-54330D01*
X75250Y-56700D02*
X74700Y-56700D01*
X78500Y-52500D02*
X78300Y-52699D01*
X78300Y-52699D02*
X78300Y-53090D01*
X83125Y-52300D02*
X83125Y-51575D01*
X82823Y-54927D02*
X82825Y-54925D01*
X82200Y-54927D02*
X82823Y-54927D01*
X75702Y-47342D02*
X76322Y-47342D01*
X76890Y-48540D02*
X77415Y-48540D01*
X76905Y-48525D02*
X76890Y-48540D01*
X76322Y-47342D02*
X76905Y-47925D01*
X76905Y-47925D02*
X76905Y-48525D01*
X77415Y-48540D02*
X77445Y-48570D01*
X80950Y-51605D02*
X80635Y-51605D01*
X80487Y-51752D02*
X80268Y-51752D01*
X80635Y-51605D02*
X80487Y-51752D01*
X80950Y-50487D02*
X80950Y-51015D01*
X80960Y-52185D02*
X80815Y-52185D01*
X80697Y-52067D02*
X80268Y-52067D01*
X80815Y-52185D02*
X80697Y-52067D01*
X80960Y-52775D02*
X80960Y-53383D01*
X80960Y-53383D02*
X80977Y-53400D01*
X73248Y-48818D02*
X73228Y-48818D01*
X73188Y-48858D02*
X73188Y-49783D01*
X73228Y-48818D02*
X73188Y-48858D01*
X73602Y-48818D02*
X73622Y-48818D01*
X73700Y-48897D02*
X73700Y-49783D01*
X73622Y-48818D02*
X73700Y-48897D01*
X74291Y-53051D02*
X74704Y-53051D01*
X78078Y-54850D02*
X78430Y-54850D01*
X77854Y-54625D02*
X78078Y-54850D01*
X77854Y-53740D02*
X77854Y-54625D01*
X77657Y-53543D02*
X77854Y-53740D01*
X75196Y-53543D02*
X77657Y-53543D01*
X74704Y-53051D02*
X75196Y-53543D01*
X73937Y-53051D02*
X73937Y-53543D01*
X73937Y-53051D02*
X73937Y-52736D01*
X74212Y-52460D02*
X74212Y-52047D01*
X73937Y-52736D02*
X74212Y-52460D01*
X74291Y-54035D02*
X74507Y-54035D01*
X75590Y-53838D02*
X75885Y-54133D01*
X74704Y-53838D02*
X75590Y-53838D01*
X74507Y-54035D02*
X74704Y-53838D01*
X74291Y-53543D02*
X74291Y-54035D01*
X74823Y-51181D02*
X74409Y-51181D01*
X72933Y-51574D02*
X72933Y-52047D01*
X73425Y-53071D02*
X73425Y-52066D01*
X73425Y-52066D02*
X73444Y-52047D01*
X73444Y-52047D02*
X73444Y-51102D01*
X72933Y-50590D02*
X72933Y-49783D01*
X73444Y-51102D02*
X72933Y-50590D01*
X74700Y-55377D02*
X74307Y-55377D01*
X74307Y-55377D02*
X74145Y-55215D01*
X80268Y-47657D02*
X79744Y-47657D01*
X73960Y-50449D02*
X73960Y-49780D01*
X73917Y-50492D02*
X73960Y-50449D01*
X79744Y-47657D02*
X79724Y-47637D01*
X75702Y-50492D02*
X75458Y-50492D01*
X75177Y-50774D02*
X75177Y-51181D01*
X75458Y-50492D02*
X75177Y-50774D01*
G54D30*
X79330Y-54941D02*
X79330Y-53444D01*
X79245Y-53359D02*
X79245Y-53090D01*
X79330Y-53444D02*
X79245Y-53359D01*
G54D29*
X80234Y-54950D02*
X79339Y-54950D01*
X79339Y-54950D02*
X79330Y-54941D01*
X80232Y-54952D02*
X79800Y-55384D01*
X79800Y-55384D02*
X79800Y-56000D01*
X73395Y-54497D02*
X73395Y-55215D01*
X73326Y-54429D02*
X73395Y-54497D01*
G54D28*
X73825Y-56000D02*
X73700Y-56000D01*
X73700Y-56000D02*
X73395Y-55695D01*
X73395Y-55695D02*
X73395Y-55215D01*
X75100Y-55900D02*
X74675Y-55900D01*
X74675Y-55900D02*
X74575Y-56000D01*
X78930Y-53090D02*
X78930Y-52230D01*
X78900Y-52200D02*
X78930Y-52230D01*
X75600Y-55900D02*
X75100Y-55900D01*
X81765Y-53499D02*
X81765Y-52785D01*
X77985Y-51010D02*
X77985Y-53090D01*
X77975Y-51000D02*
X77985Y-51010D01*
X81765Y-52785D02*
X81775Y-52775D01*
G54D10*
G36*
X84330Y-51992D02*
X84208Y-53229D01*
X83851Y-54411D01*
X83271Y-55502D01*
X82491Y-56459D01*
X81539Y-57247D01*
X80452Y-57834D01*
X79884Y-58010D01*
X79884Y-57147D01*
X79866Y-57054D01*
X79829Y-56966D01*
X79777Y-56887D01*
X79710Y-56820D01*
X79631Y-56766D01*
X79543Y-56730D01*
X79450Y-56711D01*
X79355Y-56710D01*
X79262Y-56728D01*
X79174Y-56763D01*
X79094Y-56815D01*
X79057Y-56852D01*
X79057Y-56323D01*
X79047Y-56273D01*
X79028Y-56227D01*
X79000Y-56184D01*
X78964Y-56148D01*
X78922Y-56120D01*
X78875Y-56100D01*
X78826Y-56090D01*
X78775Y-56090D01*
X78725Y-56099D01*
X78678Y-56118D01*
X78636Y-56146D01*
X78600Y-56182D01*
X78571Y-56223D01*
X78551Y-56270D01*
X78541Y-56319D01*
X78540Y-56370D01*
X78549Y-56420D01*
X78568Y-56467D01*
X78595Y-56510D01*
X78630Y-56546D01*
X78672Y-56575D01*
X78718Y-56595D01*
X78768Y-56606D01*
X78818Y-56607D01*
X78868Y-56598D01*
X78916Y-56580D01*
X78958Y-56553D01*
X78995Y-56518D01*
X79024Y-56477D01*
X79045Y-56430D01*
X79056Y-56381D01*
X79057Y-56323D01*
X79057Y-56852D01*
X79026Y-56882D01*
X78973Y-56960D01*
X78935Y-57048D01*
X78915Y-57141D01*
X78914Y-57236D01*
X78931Y-57329D01*
X78966Y-57417D01*
X79018Y-57497D01*
X79084Y-57566D01*
X79162Y-57620D01*
X79249Y-57658D01*
X79342Y-57678D01*
X79437Y-57680D01*
X79530Y-57664D01*
X79619Y-57630D01*
X79699Y-57579D01*
X79768Y-57513D01*
X79823Y-57435D01*
X79861Y-57349D01*
X79882Y-57256D01*
X79884Y-57147D01*
X79884Y-58010D01*
X79272Y-58200D01*
X78044Y-58329D01*
X76813Y-58217D01*
X75628Y-57868D01*
X74534Y-57296D01*
X73571Y-56522D01*
X72777Y-55575D01*
X72182Y-54493D01*
X71808Y-53315D01*
X71671Y-52088D01*
X71774Y-50857D01*
X72114Y-49669D01*
X72202Y-49499D01*
X72202Y-49521D01*
X72202Y-50073D01*
X72208Y-50102D01*
X72219Y-50129D01*
X72235Y-50154D01*
X72256Y-50175D01*
X72280Y-50191D01*
X72307Y-50203D01*
X72336Y-50208D01*
X72366Y-50209D01*
X72504Y-50209D01*
X72533Y-50203D01*
X72560Y-50192D01*
X72585Y-50175D01*
X72606Y-50155D01*
X72622Y-50130D01*
X72634Y-50103D01*
X72640Y-50074D01*
X72640Y-50045D01*
X72640Y-49493D01*
X72634Y-49464D01*
X72623Y-49437D01*
X72606Y-49412D01*
X72586Y-49391D01*
X72561Y-49375D01*
X72534Y-49363D01*
X72505Y-49357D01*
X72476Y-49357D01*
X72337Y-49357D01*
X72308Y-49363D01*
X72281Y-49374D01*
X72258Y-49389D01*
X72679Y-48571D01*
X73446Y-47603D01*
X74387Y-46802D01*
X75465Y-46199D01*
X76640Y-45818D01*
X77115Y-45761D01*
X77115Y-47354D01*
X79610Y-47360D01*
X79584Y-47370D01*
X79535Y-47402D01*
X79493Y-47444D01*
X79460Y-47492D01*
X79437Y-47546D01*
X79424Y-47604D01*
X79424Y-47663D01*
X79434Y-47720D01*
X79456Y-47775D01*
X79488Y-47825D01*
X79529Y-47867D01*
X79577Y-47900D01*
X79631Y-47924D01*
X79688Y-47937D01*
X79747Y-47938D01*
X79805Y-47928D01*
X79860Y-47906D01*
X79910Y-47875D01*
X79922Y-47863D01*
X79921Y-47868D01*
X79922Y-48105D01*
X79926Y-48130D01*
X79922Y-48153D01*
X79921Y-48183D01*
X79922Y-48420D01*
X79926Y-48445D01*
X79922Y-48468D01*
X79921Y-48498D01*
X79922Y-48735D01*
X79926Y-48760D01*
X79922Y-48783D01*
X79921Y-48813D01*
X79922Y-49050D01*
X79926Y-49075D01*
X79922Y-49098D01*
X79921Y-49128D01*
X79922Y-49365D01*
X79926Y-49390D01*
X79922Y-49413D01*
X79921Y-49443D01*
X79922Y-49680D01*
X79925Y-49697D01*
X79912Y-49707D01*
X79898Y-49719D01*
X79896Y-49720D01*
X79896Y-49720D01*
X79896Y-49720D01*
X79896Y-49721D01*
X79566Y-50051D01*
X78291Y-48775D01*
X78276Y-48764D01*
X78262Y-48752D01*
X78261Y-48751D01*
X78260Y-48751D01*
X78244Y-48742D01*
X78228Y-48733D01*
X78227Y-48733D01*
X78226Y-48732D01*
X78208Y-48727D01*
X78191Y-48721D01*
X78190Y-48721D01*
X78189Y-48721D01*
X78170Y-48719D01*
X78152Y-48717D01*
X78150Y-48717D01*
X78150Y-48717D01*
X78150Y-48717D01*
X78149Y-48717D01*
X76602Y-48717D01*
X76570Y-48685D01*
X76521Y-48652D01*
X76467Y-48629D01*
X76409Y-48617D01*
X76350Y-48617D01*
X76292Y-48628D01*
X76238Y-48650D01*
X76189Y-48682D01*
X76147Y-48723D01*
X76113Y-48772D01*
X76090Y-48826D01*
X76078Y-48883D01*
X76077Y-48942D01*
X76088Y-49000D01*
X76109Y-49055D01*
X76141Y-49104D01*
X76182Y-49146D01*
X76230Y-49180D01*
X76284Y-49204D01*
X76342Y-49216D01*
X76401Y-49217D01*
X76459Y-49207D01*
X76513Y-49186D01*
X76563Y-49154D01*
X76602Y-49117D01*
X78066Y-49117D01*
X79360Y-50410D01*
X79360Y-52744D01*
X79349Y-52743D01*
X79130Y-52744D01*
X79130Y-52393D01*
X79162Y-52348D01*
X79186Y-52295D01*
X79199Y-52237D01*
X79200Y-52170D01*
X79188Y-52112D01*
X79166Y-52058D01*
X79133Y-52009D01*
X79092Y-51967D01*
X79043Y-51934D01*
X78989Y-51912D01*
X78931Y-51900D01*
X78872Y-51899D01*
X78814Y-51910D01*
X78760Y-51932D01*
X78711Y-51965D01*
X78669Y-52006D01*
X78635Y-52054D01*
X78612Y-52108D01*
X78600Y-52166D01*
X78599Y-52216D01*
X78589Y-52212D01*
X78531Y-52200D01*
X78472Y-52199D01*
X78414Y-52210D01*
X78360Y-52232D01*
X78311Y-52265D01*
X78269Y-52306D01*
X78235Y-52354D01*
X78212Y-52408D01*
X78200Y-52466D01*
X78199Y-52517D01*
X78185Y-52531D01*
X78185Y-51213D01*
X78203Y-51196D01*
X78237Y-51148D01*
X78261Y-51095D01*
X78274Y-51037D01*
X78275Y-50970D01*
X78263Y-50912D01*
X78241Y-50858D01*
X78208Y-50809D01*
X78167Y-50767D01*
X78118Y-50734D01*
X78064Y-50712D01*
X78006Y-50700D01*
X77947Y-50699D01*
X77889Y-50710D01*
X77835Y-50732D01*
X77786Y-50765D01*
X77744Y-50806D01*
X77710Y-50854D01*
X77687Y-50908D01*
X77675Y-50966D01*
X77674Y-51025D01*
X77685Y-51083D01*
X77706Y-51137D01*
X77738Y-51187D01*
X77779Y-51229D01*
X77785Y-51233D01*
X77785Y-52768D01*
X77772Y-52777D01*
X77751Y-52797D01*
X77734Y-52822D01*
X77723Y-52849D01*
X77717Y-52878D01*
X77717Y-52907D01*
X77717Y-53302D01*
X77723Y-53331D01*
X77734Y-53358D01*
X77734Y-53358D01*
X77734Y-53358D01*
X77716Y-53353D01*
X77699Y-53347D01*
X77698Y-53347D01*
X77697Y-53347D01*
X77678Y-53345D01*
X77660Y-53343D01*
X77658Y-53343D01*
X77658Y-53343D01*
X77658Y-53343D01*
X77657Y-53343D01*
X77613Y-53343D01*
X77617Y-53332D01*
X77623Y-53303D01*
X77623Y-53274D01*
X77623Y-52879D01*
X77617Y-52850D01*
X77606Y-52823D01*
X77590Y-52798D01*
X77569Y-52777D01*
X77545Y-52761D01*
X77518Y-52750D01*
X77489Y-52744D01*
X77459Y-52743D01*
X77222Y-52744D01*
X77197Y-52748D01*
X77174Y-52744D01*
X77145Y-52743D01*
X77010Y-52744D01*
X77010Y-50350D01*
X76998Y-50292D01*
X76976Y-50238D01*
X76943Y-50189D01*
X76902Y-50147D01*
X76853Y-50114D01*
X76799Y-50092D01*
X76741Y-50080D01*
X76692Y-50079D01*
X76333Y-49721D01*
X76319Y-49709D01*
X76305Y-49697D01*
X76304Y-49697D01*
X76303Y-49696D01*
X76287Y-49687D01*
X76271Y-49678D01*
X76270Y-49678D01*
X76269Y-49677D01*
X76251Y-49672D01*
X76234Y-49666D01*
X76233Y-49666D01*
X76232Y-49666D01*
X76213Y-49664D01*
X76195Y-49662D01*
X76193Y-49662D01*
X76193Y-49662D01*
X76193Y-49662D01*
X76192Y-49662D01*
X76048Y-49662D01*
X76048Y-49337D01*
X76048Y-49099D01*
X76043Y-49074D01*
X76048Y-49051D01*
X76048Y-49022D01*
X76048Y-48784D01*
X76043Y-48760D01*
X76048Y-48736D01*
X76048Y-48707D01*
X76048Y-48469D01*
X76043Y-48445D01*
X76048Y-48421D01*
X76048Y-48392D01*
X76048Y-48154D01*
X76043Y-48130D01*
X76048Y-48106D01*
X76048Y-48077D01*
X76048Y-47839D01*
X76043Y-47815D01*
X76048Y-47791D01*
X76048Y-47762D01*
X76048Y-47525D01*
X76043Y-47496D01*
X76031Y-47468D01*
X76015Y-47444D01*
X75994Y-47423D01*
X75970Y-47407D01*
X75943Y-47395D01*
X75914Y-47389D01*
X75885Y-47389D01*
X75490Y-47389D01*
X75461Y-47395D01*
X75434Y-47406D01*
X75409Y-47422D01*
X75389Y-47443D01*
X75372Y-47468D01*
X75361Y-47495D01*
X75355Y-47523D01*
X75355Y-47553D01*
X75355Y-47790D01*
X75360Y-47815D01*
X75355Y-47838D01*
X75355Y-47868D01*
X75355Y-48105D01*
X75360Y-48130D01*
X75355Y-48153D01*
X75355Y-48183D01*
X75355Y-48420D01*
X75360Y-48445D01*
X75355Y-48468D01*
X75355Y-48498D01*
X75355Y-48735D01*
X75360Y-48760D01*
X75355Y-48783D01*
X75355Y-48813D01*
X75355Y-49050D01*
X75360Y-49075D01*
X75355Y-49098D01*
X75355Y-49128D01*
X75355Y-49365D01*
X75360Y-49394D01*
X75372Y-49421D01*
X75388Y-49446D01*
X75409Y-49466D01*
X75433Y-49483D01*
X75460Y-49494D01*
X75489Y-49500D01*
X75518Y-49500D01*
X75913Y-49500D01*
X75942Y-49495D01*
X75969Y-49483D01*
X75994Y-49467D01*
X76014Y-49446D01*
X76031Y-49422D01*
X76042Y-49395D01*
X76048Y-49366D01*
X76048Y-49337D01*
X76048Y-49662D01*
X76024Y-49662D01*
X76015Y-49649D01*
X75994Y-49628D01*
X75970Y-49611D01*
X75943Y-49600D01*
X75914Y-49594D01*
X75885Y-49594D01*
X75490Y-49594D01*
X75461Y-49600D01*
X75434Y-49611D01*
X75409Y-49627D01*
X75389Y-49648D01*
X75372Y-49672D01*
X75361Y-49699D01*
X75355Y-49728D01*
X75355Y-49758D01*
X75355Y-49995D01*
X75360Y-50020D01*
X75355Y-50043D01*
X75355Y-50073D01*
X75355Y-50310D01*
X75357Y-50320D01*
X75349Y-50324D01*
X75348Y-50325D01*
X75347Y-50325D01*
X75333Y-50337D01*
X75319Y-50349D01*
X75317Y-50350D01*
X75317Y-50350D01*
X75317Y-50350D01*
X75317Y-50351D01*
X75035Y-50632D01*
X75023Y-50646D01*
X75011Y-50661D01*
X75011Y-50661D01*
X75010Y-50662D01*
X75002Y-50679D01*
X74993Y-50695D01*
X74992Y-50696D01*
X74992Y-50697D01*
X74986Y-50714D01*
X74981Y-50732D01*
X74981Y-50733D01*
X74980Y-50734D01*
X74979Y-50752D01*
X74977Y-50771D01*
X74977Y-50773D01*
X74977Y-50773D01*
X74977Y-50773D01*
X74977Y-50774D01*
X74977Y-50933D01*
X74973Y-50930D01*
X74946Y-50919D01*
X74917Y-50913D01*
X74887Y-50912D01*
X74729Y-50913D01*
X74700Y-50918D01*
X74673Y-50930D01*
X74649Y-50946D01*
X74628Y-50967D01*
X74624Y-50972D01*
X74601Y-50948D01*
X74552Y-50915D01*
X74498Y-50893D01*
X74440Y-50881D01*
X74382Y-50880D01*
X74324Y-50891D01*
X74269Y-50913D01*
X74220Y-50946D01*
X74178Y-50987D01*
X74145Y-51035D01*
X74122Y-51089D01*
X74109Y-51147D01*
X74109Y-51206D01*
X74119Y-51264D01*
X74141Y-51318D01*
X74173Y-51368D01*
X74214Y-51410D01*
X74262Y-51444D01*
X74316Y-51467D01*
X74373Y-51480D01*
X74432Y-51481D01*
X74490Y-51471D01*
X74545Y-51450D01*
X74595Y-51418D01*
X74624Y-51390D01*
X74627Y-51394D01*
X74648Y-51415D01*
X74672Y-51431D01*
X74699Y-51443D01*
X74728Y-51449D01*
X74758Y-51449D01*
X74916Y-51449D01*
X74945Y-51443D01*
X74972Y-51432D01*
X74996Y-51415D01*
X74999Y-51412D01*
X75002Y-51415D01*
X75026Y-51431D01*
X75053Y-51443D01*
X75082Y-51449D01*
X75112Y-51449D01*
X75270Y-51449D01*
X75299Y-51443D01*
X75326Y-51432D01*
X75350Y-51415D01*
X75355Y-51411D01*
X75355Y-51570D01*
X75360Y-51595D01*
X75355Y-51618D01*
X75355Y-51647D01*
X75355Y-51885D01*
X75360Y-51909D01*
X75355Y-51933D01*
X75355Y-51962D01*
X75355Y-52200D01*
X75360Y-52224D01*
X75355Y-52248D01*
X75355Y-52277D01*
X75355Y-52515D01*
X75360Y-52539D01*
X75355Y-52563D01*
X75355Y-52592D01*
X75355Y-52830D01*
X75360Y-52858D01*
X75372Y-52886D01*
X75388Y-52910D01*
X75409Y-52931D01*
X75433Y-52947D01*
X75460Y-52959D01*
X75489Y-52965D01*
X75518Y-52965D01*
X75913Y-52965D01*
X75942Y-52959D01*
X75969Y-52948D01*
X75994Y-52932D01*
X76014Y-52911D01*
X76031Y-52887D01*
X76042Y-52859D01*
X76048Y-52831D01*
X76048Y-52801D01*
X76048Y-52564D01*
X76043Y-52539D01*
X76048Y-52516D01*
X76048Y-52486D01*
X76048Y-52249D01*
X76043Y-52224D01*
X76048Y-52201D01*
X76048Y-52171D01*
X76048Y-51934D01*
X76043Y-51909D01*
X76048Y-51886D01*
X76048Y-51856D01*
X76048Y-51619D01*
X76043Y-51594D01*
X76048Y-51571D01*
X76048Y-51541D01*
X76048Y-51304D01*
X76043Y-51279D01*
X76048Y-51256D01*
X76048Y-51226D01*
X76048Y-50989D01*
X76043Y-50964D01*
X76048Y-50941D01*
X76048Y-50911D01*
X76048Y-50674D01*
X76043Y-50649D01*
X76048Y-50626D01*
X76048Y-50596D01*
X76048Y-50359D01*
X76043Y-50334D01*
X76048Y-50311D01*
X76048Y-50281D01*
X76048Y-50062D01*
X76109Y-50062D01*
X76410Y-50363D01*
X76409Y-50405D01*
X76420Y-50463D01*
X76441Y-50517D01*
X76473Y-50567D01*
X76514Y-50609D01*
X76562Y-50643D01*
X76616Y-50666D01*
X76674Y-50679D01*
X76733Y-50680D01*
X76791Y-50670D01*
X76845Y-50649D01*
X76895Y-50617D01*
X76938Y-50576D01*
X76972Y-50528D01*
X76996Y-50475D01*
X77009Y-50417D01*
X77010Y-50350D01*
X77010Y-52744D01*
X76907Y-52744D01*
X76882Y-52748D01*
X76859Y-52744D01*
X76830Y-52743D01*
X76592Y-52744D01*
X76567Y-52748D01*
X76544Y-52744D01*
X76515Y-52743D01*
X76277Y-52744D01*
X76248Y-52749D01*
X76221Y-52760D01*
X76197Y-52777D01*
X76176Y-52797D01*
X76159Y-52822D01*
X76148Y-52849D01*
X76142Y-52878D01*
X76142Y-52907D01*
X76142Y-53302D01*
X76148Y-53331D01*
X76153Y-53343D01*
X75279Y-53343D01*
X74846Y-52909D01*
X74831Y-52898D01*
X74817Y-52886D01*
X74816Y-52885D01*
X74815Y-52884D01*
X74799Y-52876D01*
X74783Y-52867D01*
X74782Y-52867D01*
X74781Y-52866D01*
X74763Y-52861D01*
X74746Y-52855D01*
X74745Y-52855D01*
X74744Y-52855D01*
X74725Y-52853D01*
X74707Y-52851D01*
X74705Y-52851D01*
X74705Y-52851D01*
X74705Y-52851D01*
X74704Y-52851D01*
X74495Y-52851D01*
X74486Y-52837D01*
X74465Y-52817D01*
X74441Y-52800D01*
X74414Y-52789D01*
X74385Y-52783D01*
X74356Y-52783D01*
X74197Y-52783D01*
X74169Y-52788D01*
X74165Y-52790D01*
X74354Y-52602D01*
X74365Y-52587D01*
X74377Y-52573D01*
X74378Y-52572D01*
X74378Y-52571D01*
X74387Y-52555D01*
X74396Y-52539D01*
X74396Y-52538D01*
X74397Y-52537D01*
X74402Y-52519D01*
X74408Y-52502D01*
X74408Y-52501D01*
X74408Y-52500D01*
X74410Y-52481D01*
X74412Y-52463D01*
X74412Y-52461D01*
X74412Y-52461D01*
X74412Y-52461D01*
X74412Y-52460D01*
X74412Y-52396D01*
X74414Y-52394D01*
X74425Y-52367D01*
X74431Y-52338D01*
X74431Y-52309D01*
X74431Y-51756D01*
X74425Y-51728D01*
X74414Y-51700D01*
X74398Y-51676D01*
X74377Y-51655D01*
X74353Y-51639D01*
X74326Y-51627D01*
X74297Y-51621D01*
X74267Y-51621D01*
X74128Y-51621D01*
X74100Y-51627D01*
X74084Y-51633D01*
X74070Y-51627D01*
X74041Y-51621D01*
X74011Y-51621D01*
X73873Y-51621D01*
X73844Y-51627D01*
X73828Y-51633D01*
X73814Y-51627D01*
X73785Y-51621D01*
X73756Y-51621D01*
X73644Y-51621D01*
X73644Y-51102D01*
X73643Y-51083D01*
X73641Y-51065D01*
X73641Y-51064D01*
X73641Y-51063D01*
X73635Y-51045D01*
X73630Y-51028D01*
X73630Y-51027D01*
X73629Y-51026D01*
X73621Y-51009D01*
X73612Y-50993D01*
X73611Y-50992D01*
X73611Y-50991D01*
X73599Y-50977D01*
X73588Y-50962D01*
X73586Y-50961D01*
X73586Y-50961D01*
X73586Y-50961D01*
X73586Y-50960D01*
X73133Y-50507D01*
X73133Y-50209D01*
X73133Y-50209D01*
X73272Y-50209D01*
X73301Y-50203D01*
X73328Y-50192D01*
X73353Y-50175D01*
X73374Y-50155D01*
X73390Y-50130D01*
X73401Y-50103D01*
X73407Y-50074D01*
X73407Y-50045D01*
X73407Y-49493D01*
X73402Y-49464D01*
X73390Y-49437D01*
X73388Y-49434D01*
X73388Y-49073D01*
X73397Y-49069D01*
X73421Y-49053D01*
X73425Y-49050D01*
X73427Y-49053D01*
X73452Y-49069D01*
X73479Y-49080D01*
X73500Y-49085D01*
X73500Y-49433D01*
X73499Y-49436D01*
X73487Y-49463D01*
X73481Y-49492D01*
X73481Y-49521D01*
X73481Y-50073D01*
X73487Y-50102D01*
X73498Y-50129D01*
X73515Y-50154D01*
X73535Y-50175D01*
X73560Y-50191D01*
X73587Y-50203D01*
X73616Y-50208D01*
X73645Y-50209D01*
X73760Y-50209D01*
X73760Y-50236D01*
X73728Y-50257D01*
X73686Y-50298D01*
X73653Y-50346D01*
X73629Y-50400D01*
X73617Y-50458D01*
X73616Y-50517D01*
X73627Y-50575D01*
X73649Y-50629D01*
X73681Y-50679D01*
X73721Y-50721D01*
X73770Y-50755D01*
X73824Y-50778D01*
X73881Y-50791D01*
X73940Y-50792D01*
X73998Y-50782D01*
X74053Y-50761D01*
X74102Y-50729D01*
X74145Y-50689D01*
X74179Y-50641D01*
X74203Y-50587D01*
X74216Y-50529D01*
X74217Y-50462D01*
X74205Y-50404D01*
X74183Y-50350D01*
X74160Y-50315D01*
X74160Y-50209D01*
X74296Y-50209D01*
X74325Y-50203D01*
X74352Y-50192D01*
X74376Y-50175D01*
X74397Y-50155D01*
X74414Y-50130D01*
X74425Y-50103D01*
X74431Y-50074D01*
X74431Y-50045D01*
X74431Y-49511D01*
X74606Y-49511D01*
X74624Y-49509D01*
X74643Y-49507D01*
X74644Y-49507D01*
X74645Y-49507D01*
X74662Y-49501D01*
X74680Y-49496D01*
X74681Y-49496D01*
X74682Y-49495D01*
X74698Y-49487D01*
X74715Y-49478D01*
X74716Y-49478D01*
X74716Y-49477D01*
X74731Y-49465D01*
X74745Y-49454D01*
X74747Y-49452D01*
X74747Y-49452D01*
X74747Y-49452D01*
X74747Y-49452D01*
X74983Y-49217D01*
X75023Y-49217D01*
X75081Y-49207D01*
X75135Y-49186D01*
X75185Y-49154D01*
X75228Y-49114D01*
X75262Y-49066D01*
X75286Y-49012D01*
X75299Y-48955D01*
X75300Y-48887D01*
X75288Y-48830D01*
X75266Y-48775D01*
X75233Y-48726D01*
X75192Y-48685D01*
X75143Y-48652D01*
X75089Y-48629D01*
X75031Y-48617D01*
X74972Y-48617D01*
X74914Y-48628D01*
X74860Y-48650D01*
X74811Y-48682D01*
X74769Y-48723D01*
X74735Y-48772D01*
X74712Y-48826D01*
X74700Y-48883D01*
X74699Y-48934D01*
X74523Y-49111D01*
X74412Y-49111D01*
X74412Y-49101D01*
X74425Y-49092D01*
X74446Y-49072D01*
X74463Y-49047D01*
X74474Y-49020D01*
X74480Y-48991D01*
X74480Y-48962D01*
X74480Y-48804D01*
X74474Y-48775D01*
X74463Y-48748D01*
X74447Y-48723D01*
X74426Y-48702D01*
X74402Y-48686D01*
X74375Y-48674D01*
X74346Y-48669D01*
X74316Y-48668D01*
X74079Y-48668D01*
X74051Y-48674D01*
X74023Y-48685D01*
X73999Y-48702D01*
X73978Y-48722D01*
X73962Y-48747D01*
X73950Y-48774D01*
X73944Y-48803D01*
X73944Y-48832D01*
X73944Y-48990D01*
X73950Y-49019D01*
X73961Y-49046D01*
X73977Y-49071D01*
X73998Y-49092D01*
X74012Y-49101D01*
X74012Y-49311D01*
X74012Y-49354D01*
X73900Y-49354D01*
X73900Y-48897D01*
X73898Y-48879D01*
X73897Y-48860D01*
X73897Y-48859D01*
X73896Y-48858D01*
X73891Y-48841D01*
X73886Y-48823D01*
X73886Y-48822D01*
X73885Y-48821D01*
X73877Y-48805D01*
X73868Y-48788D01*
X73867Y-48787D01*
X73867Y-48786D01*
X73855Y-48772D01*
X73844Y-48758D01*
X73842Y-48756D01*
X73842Y-48756D01*
X73842Y-48756D01*
X73842Y-48756D01*
X73830Y-48744D01*
X73830Y-48686D01*
X73824Y-48657D01*
X73813Y-48630D01*
X73797Y-48605D01*
X73776Y-48584D01*
X73752Y-48568D01*
X73725Y-48556D01*
X73696Y-48550D01*
X73667Y-48550D01*
X73508Y-48550D01*
X73480Y-48556D01*
X73452Y-48567D01*
X73428Y-48584D01*
X73425Y-48587D01*
X73422Y-48584D01*
X73398Y-48568D01*
X73371Y-48556D01*
X73342Y-48550D01*
X73313Y-48550D01*
X73154Y-48550D01*
X73126Y-48556D01*
X73098Y-48567D01*
X73074Y-48584D01*
X73053Y-48604D01*
X73037Y-48629D01*
X73025Y-48656D01*
X73019Y-48685D01*
X73019Y-48714D01*
X73019Y-48752D01*
X73014Y-48763D01*
X73005Y-48779D01*
X73004Y-48780D01*
X73004Y-48781D01*
X72998Y-48799D01*
X72993Y-48816D01*
X72993Y-48817D01*
X72992Y-48818D01*
X72991Y-48837D01*
X72988Y-48855D01*
X72988Y-48857D01*
X72988Y-48857D01*
X72988Y-48857D01*
X72988Y-48858D01*
X72988Y-49357D01*
X72988Y-49357D01*
X72849Y-49357D01*
X72820Y-49363D01*
X72793Y-49374D01*
X72768Y-49391D01*
X72748Y-49411D01*
X72731Y-49436D01*
X72720Y-49463D01*
X72714Y-49492D01*
X72714Y-49521D01*
X72714Y-50073D01*
X72719Y-50102D01*
X72731Y-50129D01*
X72733Y-50132D01*
X72733Y-50590D01*
X72734Y-50608D01*
X72736Y-50627D01*
X72736Y-50628D01*
X72736Y-50629D01*
X72742Y-50647D01*
X72747Y-50664D01*
X72747Y-50665D01*
X72748Y-50666D01*
X72756Y-50683D01*
X72765Y-50699D01*
X72765Y-50700D01*
X72766Y-50701D01*
X72778Y-50715D01*
X72789Y-50729D01*
X72791Y-50731D01*
X72791Y-50731D01*
X72791Y-50731D01*
X72791Y-50731D01*
X73244Y-51185D01*
X73244Y-51697D01*
X73243Y-51699D01*
X73233Y-51724D01*
X73233Y-51545D01*
X73221Y-51487D01*
X73199Y-51433D01*
X73166Y-51384D01*
X73125Y-51342D01*
X73076Y-51309D01*
X73022Y-51286D01*
X72964Y-51275D01*
X72905Y-51274D01*
X72847Y-51285D01*
X72793Y-51307D01*
X72744Y-51339D01*
X72702Y-51381D01*
X72668Y-51429D01*
X72645Y-51483D01*
X72633Y-51541D01*
X72632Y-51600D01*
X72636Y-51621D01*
X72593Y-51621D01*
X72564Y-51627D01*
X72549Y-51633D01*
X72534Y-51627D01*
X72505Y-51621D01*
X72476Y-51621D01*
X72337Y-51621D01*
X72308Y-51627D01*
X72281Y-51638D01*
X72257Y-51654D01*
X72236Y-51675D01*
X72219Y-51699D01*
X72208Y-51727D01*
X72202Y-51755D01*
X72202Y-51785D01*
X72202Y-52337D01*
X72208Y-52366D01*
X72219Y-52393D01*
X72235Y-52418D01*
X72256Y-52438D01*
X72280Y-52455D01*
X72307Y-52466D01*
X72336Y-52472D01*
X72366Y-52472D01*
X72504Y-52472D01*
X72533Y-52467D01*
X72549Y-52460D01*
X72563Y-52466D01*
X72592Y-52472D01*
X72621Y-52472D01*
X72760Y-52472D01*
X72789Y-52467D01*
X72805Y-52460D01*
X72819Y-52466D01*
X72848Y-52472D01*
X72877Y-52472D01*
X73016Y-52472D01*
X73045Y-52467D01*
X73072Y-52455D01*
X73097Y-52439D01*
X73118Y-52418D01*
X73134Y-52394D01*
X73145Y-52367D01*
X73151Y-52338D01*
X73152Y-52309D01*
X73151Y-51780D01*
X73161Y-51771D01*
X73195Y-51723D01*
X73219Y-51669D01*
X73232Y-51612D01*
X73233Y-51545D01*
X73233Y-51724D01*
X73231Y-51727D01*
X73226Y-51755D01*
X73225Y-51785D01*
X73225Y-52057D01*
X73225Y-52064D01*
X73225Y-52066D01*
X73225Y-52066D01*
X73225Y-52066D01*
X73225Y-52066D01*
X73225Y-52866D01*
X73211Y-52875D01*
X73191Y-52896D01*
X73174Y-52920D01*
X73163Y-52947D01*
X73157Y-52976D01*
X73157Y-53006D01*
X73157Y-53164D01*
X73162Y-53193D01*
X73174Y-53220D01*
X73190Y-53244D01*
X73211Y-53265D01*
X73235Y-53282D01*
X73262Y-53293D01*
X73291Y-53299D01*
X73320Y-53299D01*
X73557Y-53299D01*
X73586Y-53293D01*
X73613Y-53282D01*
X73638Y-53266D01*
X73659Y-53245D01*
X73675Y-53221D01*
X73687Y-53194D01*
X73693Y-53165D01*
X73693Y-53135D01*
X73693Y-52977D01*
X73687Y-52948D01*
X73676Y-52921D01*
X73660Y-52897D01*
X73639Y-52876D01*
X73625Y-52866D01*
X73625Y-52472D01*
X73645Y-52472D01*
X73784Y-52472D01*
X73813Y-52467D01*
X73828Y-52460D01*
X73843Y-52466D01*
X73872Y-52472D01*
X73901Y-52472D01*
X73917Y-52472D01*
X73795Y-52594D01*
X73784Y-52608D01*
X73772Y-52623D01*
X73771Y-52623D01*
X73770Y-52624D01*
X73762Y-52641D01*
X73753Y-52657D01*
X73753Y-52658D01*
X73752Y-52659D01*
X73747Y-52676D01*
X73741Y-52694D01*
X73741Y-52695D01*
X73741Y-52696D01*
X73739Y-52714D01*
X73737Y-52733D01*
X73737Y-52735D01*
X73737Y-52735D01*
X73737Y-52735D01*
X73737Y-52736D01*
X73737Y-52845D01*
X73726Y-52861D01*
X73714Y-52888D01*
X73708Y-52917D01*
X73708Y-52946D01*
X73708Y-53183D01*
X73714Y-53212D01*
X73725Y-53239D01*
X73737Y-53257D01*
X73737Y-53337D01*
X73726Y-53353D01*
X73714Y-53380D01*
X73708Y-53409D01*
X73708Y-53438D01*
X73708Y-53676D01*
X73714Y-53704D01*
X73725Y-53732D01*
X73741Y-53756D01*
X73762Y-53777D01*
X73786Y-53793D01*
X73814Y-53805D01*
X73842Y-53811D01*
X73872Y-53811D01*
X74030Y-53811D01*
X74059Y-53805D01*
X74086Y-53794D01*
X74091Y-53791D01*
X74091Y-53829D01*
X74080Y-53845D01*
X74068Y-53872D01*
X74062Y-53901D01*
X74062Y-53931D01*
X74062Y-54168D01*
X74068Y-54196D01*
X74079Y-54224D01*
X74095Y-54248D01*
X74116Y-54269D01*
X74140Y-54286D01*
X74168Y-54297D01*
X74196Y-54303D01*
X74226Y-54303D01*
X74384Y-54303D01*
X74389Y-54302D01*
X74389Y-54325D01*
X74400Y-54383D01*
X74421Y-54437D01*
X74453Y-54487D01*
X74494Y-54529D01*
X74542Y-54563D01*
X74596Y-54586D01*
X74654Y-54599D01*
X74676Y-54599D01*
X75031Y-54954D01*
X75031Y-54958D01*
X75031Y-55116D01*
X75037Y-55145D01*
X75048Y-55172D01*
X75065Y-55196D01*
X75068Y-55199D01*
X75065Y-55202D01*
X75049Y-55226D01*
X75038Y-55253D01*
X75032Y-55282D01*
X75031Y-55312D01*
X75031Y-55470D01*
X75037Y-55499D01*
X75048Y-55526D01*
X75065Y-55550D01*
X75085Y-55571D01*
X75110Y-55588D01*
X75137Y-55599D01*
X75166Y-55605D01*
X75195Y-55605D01*
X75322Y-55605D01*
X75303Y-55623D01*
X75287Y-55648D01*
X75282Y-55660D01*
X75243Y-55634D01*
X75189Y-55612D01*
X75131Y-55600D01*
X75072Y-55599D01*
X75014Y-55610D01*
X74960Y-55632D01*
X74911Y-55665D01*
X74894Y-55681D01*
X74894Y-55681D01*
X74883Y-55654D01*
X74866Y-55629D01*
X74846Y-55608D01*
X74839Y-55604D01*
X74861Y-55599D01*
X74888Y-55588D01*
X74913Y-55572D01*
X74934Y-55551D01*
X74950Y-55527D01*
X74961Y-55500D01*
X74967Y-55471D01*
X74968Y-55441D01*
X74968Y-55283D01*
X74962Y-55254D01*
X74951Y-55227D01*
X74934Y-55203D01*
X74914Y-55182D01*
X74889Y-55165D01*
X74862Y-55154D01*
X74833Y-55148D01*
X74804Y-55148D01*
X74567Y-55148D01*
X74538Y-55154D01*
X74511Y-55165D01*
X74493Y-55177D01*
X74470Y-55177D01*
X74470Y-54925D01*
X74464Y-54896D01*
X74453Y-54869D01*
X74436Y-54844D01*
X74416Y-54823D01*
X74391Y-54807D01*
X74364Y-54796D01*
X74335Y-54790D01*
X74306Y-54789D01*
X73955Y-54789D01*
X73926Y-54795D01*
X73899Y-54806D01*
X73874Y-54823D01*
X73853Y-54843D01*
X73837Y-54868D01*
X73826Y-54895D01*
X73820Y-54924D01*
X73819Y-54953D01*
X73819Y-55504D01*
X73825Y-55533D01*
X73836Y-55560D01*
X73846Y-55574D01*
X73693Y-55574D01*
X73702Y-55561D01*
X73713Y-55534D01*
X73719Y-55505D01*
X73720Y-55476D01*
X73720Y-54925D01*
X73714Y-54896D01*
X73703Y-54869D01*
X73686Y-54844D01*
X73666Y-54823D01*
X73645Y-54809D01*
X73645Y-54497D01*
X73642Y-54474D01*
X73640Y-54451D01*
X73640Y-54450D01*
X73640Y-54448D01*
X73633Y-54426D01*
X73627Y-54404D01*
X73626Y-54403D01*
X73626Y-54399D01*
X73615Y-54342D01*
X73592Y-54287D01*
X73560Y-54238D01*
X73518Y-54196D01*
X73470Y-54163D01*
X73415Y-54141D01*
X73358Y-54129D01*
X73299Y-54128D01*
X73241Y-54139D01*
X73187Y-54161D01*
X73137Y-54194D01*
X73095Y-54235D01*
X73062Y-54283D01*
X73039Y-54337D01*
X73027Y-54395D01*
X73026Y-54454D01*
X73036Y-54512D01*
X73058Y-54566D01*
X73090Y-54616D01*
X73131Y-54658D01*
X73145Y-54668D01*
X73145Y-54809D01*
X73124Y-54823D01*
X73103Y-54843D01*
X73087Y-54868D01*
X73076Y-54895D01*
X73070Y-54924D01*
X73069Y-54953D01*
X73069Y-55504D01*
X73075Y-55533D01*
X73086Y-55560D01*
X73103Y-55585D01*
X73123Y-55606D01*
X73148Y-55622D01*
X73175Y-55633D01*
X73195Y-55638D01*
X73195Y-55695D01*
X73196Y-55713D01*
X73198Y-55731D01*
X73198Y-55732D01*
X73198Y-55733D01*
X73204Y-55751D01*
X73209Y-55769D01*
X73209Y-55770D01*
X73210Y-55771D01*
X73218Y-55787D01*
X73227Y-55803D01*
X73227Y-55804D01*
X73228Y-55805D01*
X73240Y-55820D01*
X73251Y-55834D01*
X73253Y-55835D01*
X73253Y-55835D01*
X73253Y-55835D01*
X73253Y-55836D01*
X73499Y-56082D01*
X73499Y-56289D01*
X73505Y-56318D01*
X73516Y-56345D01*
X73533Y-56370D01*
X73553Y-56391D01*
X73578Y-56407D01*
X73605Y-56418D01*
X73634Y-56424D01*
X73663Y-56425D01*
X74014Y-56425D01*
X74043Y-56419D01*
X74070Y-56408D01*
X74095Y-56391D01*
X74116Y-56371D01*
X74132Y-56346D01*
X74143Y-56319D01*
X74149Y-56290D01*
X74150Y-56261D01*
X74150Y-55710D01*
X74144Y-55681D01*
X74133Y-55654D01*
X74123Y-55640D01*
X74276Y-55640D01*
X74267Y-55653D01*
X74256Y-55680D01*
X74250Y-55709D01*
X74249Y-55738D01*
X74249Y-56289D01*
X74255Y-56318D01*
X74266Y-56345D01*
X74283Y-56370D01*
X74303Y-56391D01*
X74328Y-56407D01*
X74355Y-56418D01*
X74384Y-56424D01*
X74413Y-56425D01*
X74579Y-56425D01*
X74560Y-56432D01*
X74511Y-56465D01*
X74469Y-56506D01*
X74435Y-56554D01*
X74412Y-56608D01*
X74400Y-56666D01*
X74399Y-56725D01*
X74410Y-56783D01*
X74431Y-56837D01*
X74463Y-56887D01*
X74504Y-56929D01*
X74552Y-56963D01*
X74606Y-56986D01*
X74664Y-56999D01*
X74723Y-57000D01*
X74781Y-56990D01*
X74835Y-56969D01*
X74885Y-56937D01*
X74921Y-56903D01*
X74925Y-56923D01*
X74936Y-56950D01*
X74953Y-56975D01*
X74973Y-56996D01*
X74998Y-57012D01*
X75025Y-57023D01*
X75054Y-57029D01*
X75083Y-57030D01*
X75444Y-57030D01*
X75473Y-57024D01*
X75500Y-57013D01*
X75525Y-56996D01*
X75546Y-56976D01*
X75562Y-56951D01*
X75573Y-56924D01*
X75579Y-56895D01*
X75580Y-56866D01*
X75580Y-56505D01*
X75574Y-56476D01*
X75563Y-56449D01*
X75546Y-56424D01*
X75526Y-56403D01*
X75501Y-56387D01*
X75474Y-56376D01*
X75445Y-56370D01*
X75416Y-56369D01*
X75055Y-56369D01*
X75026Y-56375D01*
X74999Y-56386D01*
X74974Y-56403D01*
X74953Y-56423D01*
X74937Y-56448D01*
X74926Y-56475D01*
X74921Y-56497D01*
X74892Y-56467D01*
X74843Y-56434D01*
X74800Y-56416D01*
X74820Y-56408D01*
X74845Y-56391D01*
X74866Y-56371D01*
X74882Y-56346D01*
X74893Y-56319D01*
X74899Y-56290D01*
X74900Y-56261D01*
X74900Y-56124D01*
X74904Y-56129D01*
X74952Y-56163D01*
X75006Y-56186D01*
X75064Y-56199D01*
X75123Y-56200D01*
X75181Y-56190D01*
X75235Y-56169D01*
X75282Y-56139D01*
X75286Y-56150D01*
X75303Y-56175D01*
X75323Y-56196D01*
X75348Y-56212D01*
X75375Y-56223D01*
X75404Y-56229D01*
X75433Y-56230D01*
X75794Y-56230D01*
X75823Y-56224D01*
X75850Y-56213D01*
X75875Y-56196D01*
X75896Y-56176D01*
X75912Y-56151D01*
X75923Y-56124D01*
X75929Y-56095D01*
X75930Y-56066D01*
X75930Y-55916D01*
X75952Y-55965D01*
X75960Y-55978D01*
X75966Y-55990D01*
X75969Y-55994D01*
X75972Y-55998D01*
X75982Y-56010D01*
X75991Y-56020D01*
X75994Y-56023D01*
X75998Y-56028D01*
X76010Y-56037D01*
X76021Y-56046D01*
X76025Y-56048D01*
X76029Y-56051D01*
X76043Y-56058D01*
X76055Y-56064D01*
X76059Y-56066D01*
X76064Y-56068D01*
X76079Y-56072D01*
X76083Y-56073D01*
X76099Y-56087D01*
X76142Y-56110D01*
X76189Y-56125D01*
X76198Y-56126D01*
X75955Y-56369D01*
X75755Y-56369D01*
X75726Y-56375D01*
X75699Y-56386D01*
X75674Y-56403D01*
X75653Y-56423D01*
X75637Y-56448D01*
X75626Y-56475D01*
X75620Y-56504D01*
X75619Y-56533D01*
X75619Y-56894D01*
X75625Y-56923D01*
X75636Y-56950D01*
X75653Y-56975D01*
X75673Y-56996D01*
X75698Y-57012D01*
X75725Y-57023D01*
X75754Y-57029D01*
X75783Y-57030D01*
X76144Y-57030D01*
X76169Y-57025D01*
X76160Y-57048D01*
X76140Y-57141D01*
X76138Y-57236D01*
X76156Y-57329D01*
X76191Y-57417D01*
X76242Y-57497D01*
X76308Y-57566D01*
X76386Y-57620D01*
X76473Y-57658D01*
X76566Y-57678D01*
X76661Y-57680D01*
X76755Y-57664D01*
X76843Y-57630D01*
X76924Y-57579D01*
X76992Y-57513D01*
X77047Y-57435D01*
X77086Y-57349D01*
X77107Y-57256D01*
X77108Y-57147D01*
X77090Y-57054D01*
X77054Y-56966D01*
X77001Y-56887D01*
X76934Y-56820D01*
X76855Y-56766D01*
X76768Y-56730D01*
X76675Y-56711D01*
X76580Y-56710D01*
X76486Y-56728D01*
X76398Y-56763D01*
X76319Y-56815D01*
X76280Y-56853D01*
X76280Y-56752D01*
X76901Y-56131D01*
X77085Y-56131D01*
X77061Y-56146D01*
X77025Y-56182D01*
X76997Y-56223D01*
X76977Y-56270D01*
X76966Y-56319D01*
X76965Y-56370D01*
X76975Y-56420D01*
X76993Y-56467D01*
X77021Y-56510D01*
X77056Y-56546D01*
X77097Y-56575D01*
X77144Y-56595D01*
X77193Y-56606D01*
X77244Y-56607D01*
X77294Y-56598D01*
X77341Y-56580D01*
X77384Y-56553D01*
X77405Y-56557D01*
X77435Y-56558D01*
X77593Y-56557D01*
X77622Y-56552D01*
X77628Y-56549D01*
X77632Y-56551D01*
X77661Y-56557D01*
X77691Y-56558D01*
X77849Y-56557D01*
X77878Y-56552D01*
X77883Y-56549D01*
X77888Y-56551D01*
X77917Y-56557D01*
X77946Y-56558D01*
X78105Y-56557D01*
X78134Y-56552D01*
X78139Y-56549D01*
X78144Y-56551D01*
X78173Y-56557D01*
X78202Y-56558D01*
X78361Y-56557D01*
X78390Y-56552D01*
X78417Y-56541D01*
X78441Y-56524D01*
X78462Y-56503D01*
X78479Y-56479D01*
X78490Y-56452D01*
X78496Y-56423D01*
X78496Y-56394D01*
X78496Y-55861D01*
X78490Y-55832D01*
X78479Y-55805D01*
X78463Y-55781D01*
X78442Y-55760D01*
X78418Y-55743D01*
X78391Y-55732D01*
X78362Y-55726D01*
X78332Y-55726D01*
X78197Y-55726D01*
X78228Y-55696D01*
X78262Y-55648D01*
X78286Y-55595D01*
X78299Y-55537D01*
X78300Y-55470D01*
X78288Y-55412D01*
X78266Y-55358D01*
X78233Y-55309D01*
X78192Y-55267D01*
X78143Y-55234D01*
X78089Y-55212D01*
X78031Y-55200D01*
X77982Y-55199D01*
X77841Y-55058D01*
X77827Y-55046D01*
X77812Y-55034D01*
X77812Y-55034D01*
X77811Y-55033D01*
X77794Y-55025D01*
X77778Y-55016D01*
X77777Y-55015D01*
X77776Y-55015D01*
X77759Y-55009D01*
X77741Y-55004D01*
X77740Y-55004D01*
X77739Y-55003D01*
X77721Y-55002D01*
X77702Y-55000D01*
X77700Y-55000D01*
X77700Y-55000D01*
X77700Y-55000D01*
X77700Y-55000D01*
X77700Y-54910D01*
X77694Y-54881D01*
X77683Y-54854D01*
X77666Y-54829D01*
X77646Y-54808D01*
X77621Y-54792D01*
X77594Y-54781D01*
X77565Y-54775D01*
X77536Y-54774D01*
X77185Y-54774D01*
X77156Y-54780D01*
X77129Y-54791D01*
X77104Y-54808D01*
X77083Y-54828D01*
X77067Y-54853D01*
X77056Y-54880D01*
X77050Y-54909D01*
X77049Y-54938D01*
X77049Y-55489D01*
X77055Y-55518D01*
X77066Y-55545D01*
X77083Y-55570D01*
X77103Y-55591D01*
X77128Y-55607D01*
X77155Y-55618D01*
X77184Y-55624D01*
X77213Y-55625D01*
X77300Y-55625D01*
X77300Y-55691D01*
X77298Y-55690D01*
X77280Y-55685D01*
X77279Y-55685D01*
X77278Y-55684D01*
X77260Y-55683D01*
X77248Y-55681D01*
X77240Y-55674D01*
X77197Y-55651D01*
X77150Y-55636D01*
X77102Y-55631D01*
X77099Y-55631D01*
X76900Y-55631D01*
X76798Y-55631D01*
X76241Y-55631D01*
X76238Y-55631D01*
X76166Y-55476D01*
X76167Y-55471D01*
X76168Y-55441D01*
X76168Y-55283D01*
X76162Y-55254D01*
X76151Y-55227D01*
X76134Y-55203D01*
X76114Y-55182D01*
X76089Y-55165D01*
X76062Y-55154D01*
X76033Y-55148D01*
X76004Y-55148D01*
X75767Y-55148D01*
X75738Y-55154D01*
X75711Y-55165D01*
X75697Y-55174D01*
X75550Y-55172D01*
X75561Y-55146D01*
X75567Y-55117D01*
X75568Y-55087D01*
X75568Y-54929D01*
X75562Y-54900D01*
X75551Y-54873D01*
X75534Y-54849D01*
X75514Y-54828D01*
X75489Y-54811D01*
X75462Y-54800D01*
X75437Y-54795D01*
X75435Y-54792D01*
X75433Y-54790D01*
X74987Y-54344D01*
X74989Y-54337D01*
X74990Y-54270D01*
X74978Y-54212D01*
X74956Y-54158D01*
X74923Y-54109D01*
X74882Y-54067D01*
X74838Y-54038D01*
X75466Y-54038D01*
X75466Y-54571D01*
X75471Y-54600D01*
X75483Y-54627D01*
X75499Y-54652D01*
X75520Y-54673D01*
X75544Y-54689D01*
X75571Y-54701D01*
X75600Y-54706D01*
X75629Y-54707D01*
X76170Y-54707D01*
X76199Y-54701D01*
X76226Y-54690D01*
X76250Y-54673D01*
X76271Y-54653D01*
X76288Y-54628D01*
X76299Y-54601D01*
X76305Y-54572D01*
X76305Y-54543D01*
X76305Y-53743D01*
X77574Y-53743D01*
X77654Y-53823D01*
X77654Y-54625D01*
X77656Y-54644D01*
X77657Y-54662D01*
X77658Y-54663D01*
X77658Y-54664D01*
X77663Y-54682D01*
X77668Y-54700D01*
X77669Y-54701D01*
X77669Y-54702D01*
X77678Y-54718D01*
X77686Y-54734D01*
X77687Y-54735D01*
X77687Y-54736D01*
X77699Y-54750D01*
X77710Y-54765D01*
X77712Y-54766D01*
X77712Y-54766D01*
X77712Y-54766D01*
X77712Y-54767D01*
X77936Y-54991D01*
X77951Y-55003D01*
X77965Y-55015D01*
X77966Y-55015D01*
X77967Y-55016D01*
X77983Y-55024D01*
X77984Y-55025D01*
X77984Y-55061D01*
X77990Y-55090D01*
X78001Y-55117D01*
X78017Y-55142D01*
X78038Y-55162D01*
X78063Y-55179D01*
X78090Y-55190D01*
X78118Y-55196D01*
X78148Y-55196D01*
X78739Y-55196D01*
X78768Y-55191D01*
X78796Y-55179D01*
X78820Y-55163D01*
X78841Y-55142D01*
X78857Y-55118D01*
X78869Y-55091D01*
X78875Y-55062D01*
X78875Y-55033D01*
X78875Y-54638D01*
X78869Y-54609D01*
X78858Y-54582D01*
X78842Y-54557D01*
X78821Y-54537D01*
X78796Y-54520D01*
X78769Y-54509D01*
X78741Y-54503D01*
X78711Y-54503D01*
X78120Y-54503D01*
X78091Y-54508D01*
X78063Y-54520D01*
X78054Y-54526D01*
X78054Y-53740D01*
X78052Y-53721D01*
X78050Y-53703D01*
X78050Y-53702D01*
X78050Y-53701D01*
X78045Y-53683D01*
X78040Y-53665D01*
X78039Y-53664D01*
X78039Y-53663D01*
X78030Y-53647D01*
X78022Y-53631D01*
X78021Y-53630D01*
X78020Y-53629D01*
X78009Y-53615D01*
X77997Y-53600D01*
X77996Y-53599D01*
X77996Y-53599D01*
X77996Y-53599D01*
X77995Y-53598D01*
X77830Y-53433D01*
X77851Y-53437D01*
X77881Y-53437D01*
X78118Y-53437D01*
X78143Y-53432D01*
X78166Y-53437D01*
X78195Y-53437D01*
X78415Y-53437D01*
X78415Y-53502D01*
X78412Y-53508D01*
X78400Y-53566D01*
X78399Y-53625D01*
X78410Y-53683D01*
X78431Y-53737D01*
X78463Y-53787D01*
X78504Y-53829D01*
X78552Y-53863D01*
X78606Y-53886D01*
X78664Y-53899D01*
X78723Y-53900D01*
X78781Y-53890D01*
X78835Y-53869D01*
X78885Y-53837D01*
X78928Y-53796D01*
X78962Y-53748D01*
X78986Y-53695D01*
X78999Y-53637D01*
X79000Y-53570D01*
X78988Y-53512D01*
X78966Y-53458D01*
X78952Y-53437D01*
X79063Y-53437D01*
X79071Y-53436D01*
X79077Y-53447D01*
X79085Y-53462D01*
X79086Y-53463D01*
X79087Y-53464D01*
X79098Y-53478D01*
X79109Y-53491D01*
X79110Y-53493D01*
X79110Y-53493D01*
X79110Y-53493D01*
X79110Y-53493D01*
X79140Y-53523D01*
X79140Y-54730D01*
X79117Y-54745D01*
X79096Y-54766D01*
X79080Y-54790D01*
X79068Y-54818D01*
X79062Y-54846D01*
X79062Y-54876D01*
X79062Y-55034D01*
X79068Y-55063D01*
X79079Y-55090D01*
X79095Y-55114D01*
X79116Y-55135D01*
X79141Y-55152D01*
X79168Y-55163D01*
X79196Y-55169D01*
X79222Y-55169D01*
X79241Y-55179D01*
X79242Y-55180D01*
X79243Y-55180D01*
X79265Y-55187D01*
X79287Y-55194D01*
X79288Y-55194D01*
X79290Y-55195D01*
X79313Y-55197D01*
X79336Y-55199D01*
X79338Y-55199D01*
X79338Y-55199D01*
X79338Y-55199D01*
X79339Y-55200D01*
X79630Y-55200D01*
X79623Y-55207D01*
X79608Y-55225D01*
X79593Y-55242D01*
X79593Y-55243D01*
X79592Y-55244D01*
X79581Y-55265D01*
X79570Y-55285D01*
X79569Y-55286D01*
X79569Y-55287D01*
X79562Y-55310D01*
X79555Y-55332D01*
X79555Y-55333D01*
X79554Y-55334D01*
X79552Y-55357D01*
X79550Y-55380D01*
X79550Y-55383D01*
X79550Y-55383D01*
X79550Y-55383D01*
X79550Y-55384D01*
X79550Y-55834D01*
X79535Y-55854D01*
X79512Y-55908D01*
X79500Y-55966D01*
X79499Y-56025D01*
X79510Y-56083D01*
X79531Y-56137D01*
X79563Y-56187D01*
X79604Y-56229D01*
X79652Y-56263D01*
X79706Y-56286D01*
X79764Y-56299D01*
X79823Y-56300D01*
X79881Y-56290D01*
X79935Y-56269D01*
X79985Y-56237D01*
X80028Y-56196D01*
X80062Y-56148D01*
X80086Y-56095D01*
X80099Y-56037D01*
X80100Y-55970D01*
X80088Y-55912D01*
X80066Y-55858D01*
X80050Y-55834D01*
X80050Y-55487D01*
X80319Y-55218D01*
X80445Y-55218D01*
X80474Y-55212D01*
X80501Y-55201D01*
X80526Y-55184D01*
X80547Y-55164D01*
X80563Y-55139D01*
X80574Y-55112D01*
X80580Y-55083D01*
X80581Y-55054D01*
X80581Y-54817D01*
X80575Y-54788D01*
X80569Y-54775D01*
X80743Y-54775D01*
X80752Y-54788D01*
X80772Y-54809D01*
X80797Y-54825D01*
X80824Y-54836D01*
X80853Y-54842D01*
X80882Y-54843D01*
X81277Y-54843D01*
X81306Y-54837D01*
X81333Y-54826D01*
X81358Y-54809D01*
X81379Y-54789D01*
X81388Y-54775D01*
X81996Y-54775D01*
X82010Y-54784D01*
X82037Y-54795D01*
X82066Y-54801D01*
X82095Y-54801D01*
X82332Y-54801D01*
X82361Y-54795D01*
X82388Y-54784D01*
X82406Y-54773D01*
X82977Y-54773D01*
X82995Y-54771D01*
X83013Y-54769D01*
X83014Y-54769D01*
X83015Y-54769D01*
X83033Y-54763D01*
X83051Y-54758D01*
X83052Y-54758D01*
X83053Y-54757D01*
X83069Y-54749D01*
X83085Y-54740D01*
X83086Y-54740D01*
X83087Y-54739D01*
X83102Y-54727D01*
X83116Y-54716D01*
X83117Y-54714D01*
X83117Y-54714D01*
X83117Y-54714D01*
X83118Y-54714D01*
X83676Y-54156D01*
X83688Y-54142D01*
X83700Y-54127D01*
X83700Y-54127D01*
X83701Y-54126D01*
X83709Y-54109D01*
X83718Y-54093D01*
X83719Y-54092D01*
X83719Y-54091D01*
X83725Y-54074D01*
X83730Y-54056D01*
X83730Y-54055D01*
X83731Y-54054D01*
X83732Y-54036D01*
X83734Y-54017D01*
X83734Y-54015D01*
X83734Y-54015D01*
X83734Y-54015D01*
X83735Y-54015D01*
X83735Y-53954D01*
X83804Y-53954D01*
X83833Y-53948D01*
X83860Y-53937D01*
X83885Y-53920D01*
X83906Y-53900D01*
X83922Y-53875D01*
X83933Y-53848D01*
X83939Y-53819D01*
X83940Y-53790D01*
X83940Y-50642D01*
X83940Y-50031D01*
X83934Y-50002D01*
X83923Y-49975D01*
X83906Y-49950D01*
X83886Y-49929D01*
X83861Y-49913D01*
X83834Y-49902D01*
X83805Y-49896D01*
X83776Y-49895D01*
X83265Y-49895D01*
X83236Y-49901D01*
X83209Y-49912D01*
X83184Y-49929D01*
X83163Y-49949D01*
X83147Y-49974D01*
X83136Y-50001D01*
X83130Y-50030D01*
X83129Y-50059D01*
X83129Y-50670D01*
X83135Y-50699D01*
X83146Y-50726D01*
X83163Y-50751D01*
X83183Y-50772D01*
X83208Y-50788D01*
X83235Y-50799D01*
X83264Y-50805D01*
X83293Y-50806D01*
X83804Y-50806D01*
X83833Y-50800D01*
X83860Y-50789D01*
X83885Y-50772D01*
X83906Y-50752D01*
X83922Y-50727D01*
X83933Y-50700D01*
X83939Y-50671D01*
X83940Y-50642D01*
X83940Y-53790D01*
X83940Y-53179D01*
X83934Y-53150D01*
X83923Y-53123D01*
X83906Y-53098D01*
X83886Y-53077D01*
X83861Y-53061D01*
X83834Y-53050D01*
X83805Y-53044D01*
X83776Y-53043D01*
X83265Y-53043D01*
X83236Y-53049D01*
X83209Y-53060D01*
X83184Y-53077D01*
X83163Y-53097D01*
X83147Y-53122D01*
X83136Y-53149D01*
X83130Y-53178D01*
X83129Y-53207D01*
X83129Y-53818D01*
X83135Y-53847D01*
X83146Y-53874D01*
X83163Y-53899D01*
X83183Y-53920D01*
X83208Y-53936D01*
X83235Y-53947D01*
X83264Y-53953D01*
X83293Y-53954D01*
X83313Y-53954D01*
X82894Y-54373D01*
X82406Y-54373D01*
X82389Y-54361D01*
X82362Y-54350D01*
X82333Y-54344D01*
X82304Y-54344D01*
X82170Y-54344D01*
X82170Y-53790D01*
X82170Y-50642D01*
X82170Y-50031D01*
X82164Y-50002D01*
X82153Y-49975D01*
X82136Y-49950D01*
X82116Y-49929D01*
X82091Y-49913D01*
X82064Y-49902D01*
X82035Y-49896D01*
X82006Y-49895D01*
X81495Y-49895D01*
X81466Y-49901D01*
X81439Y-49912D01*
X81414Y-49929D01*
X81393Y-49949D01*
X81377Y-49974D01*
X81366Y-50001D01*
X81360Y-50030D01*
X81359Y-50059D01*
X81359Y-50670D01*
X81365Y-50699D01*
X81376Y-50726D01*
X81393Y-50751D01*
X81413Y-50772D01*
X81438Y-50788D01*
X81465Y-50799D01*
X81494Y-50805D01*
X81523Y-50806D01*
X82034Y-50806D01*
X82063Y-50800D01*
X82090Y-50789D01*
X82115Y-50772D01*
X82136Y-50752D01*
X82152Y-50727D01*
X82163Y-50700D01*
X82169Y-50671D01*
X82170Y-50642D01*
X82170Y-53790D01*
X82170Y-53179D01*
X82164Y-53150D01*
X82153Y-53123D01*
X82136Y-53098D01*
X82116Y-53077D01*
X82091Y-53061D01*
X82064Y-53050D01*
X82035Y-53044D01*
X82006Y-53043D01*
X81965Y-53043D01*
X81965Y-53008D01*
X82003Y-52971D01*
X82037Y-52923D01*
X82061Y-52870D01*
X82074Y-52812D01*
X82075Y-52745D01*
X82063Y-52687D01*
X82041Y-52633D01*
X82008Y-52584D01*
X81967Y-52542D01*
X81918Y-52509D01*
X81864Y-52487D01*
X81806Y-52475D01*
X81747Y-52474D01*
X81689Y-52485D01*
X81635Y-52507D01*
X81586Y-52540D01*
X81544Y-52581D01*
X81510Y-52629D01*
X81487Y-52683D01*
X81475Y-52741D01*
X81474Y-52800D01*
X81485Y-52858D01*
X81506Y-52912D01*
X81538Y-52962D01*
X81565Y-52989D01*
X81565Y-53043D01*
X81495Y-53043D01*
X81466Y-53049D01*
X81439Y-53060D01*
X81414Y-53077D01*
X81393Y-53097D01*
X81377Y-53122D01*
X81366Y-53149D01*
X81360Y-53178D01*
X81359Y-53207D01*
X81359Y-53818D01*
X81365Y-53847D01*
X81376Y-53874D01*
X81393Y-53899D01*
X81413Y-53920D01*
X81438Y-53936D01*
X81465Y-53947D01*
X81494Y-53953D01*
X81523Y-53954D01*
X82034Y-53954D01*
X82063Y-53948D01*
X82090Y-53937D01*
X82115Y-53920D01*
X82136Y-53900D01*
X82152Y-53875D01*
X82163Y-53848D01*
X82169Y-53819D01*
X82170Y-53790D01*
X82170Y-54344D01*
X82067Y-54344D01*
X82038Y-54350D01*
X82011Y-54361D01*
X81990Y-54375D01*
X81388Y-54375D01*
X81379Y-54361D01*
X81359Y-54340D01*
X81334Y-54324D01*
X81307Y-54313D01*
X81278Y-54307D01*
X81249Y-54306D01*
X80854Y-54306D01*
X80825Y-54312D01*
X80798Y-54323D01*
X80773Y-54340D01*
X80752Y-54360D01*
X80743Y-54375D01*
X80537Y-54375D01*
X79972Y-53810D01*
X80413Y-53810D01*
X80431Y-53808D01*
X80449Y-53806D01*
X80450Y-53806D01*
X80451Y-53806D01*
X80469Y-53800D01*
X80487Y-53795D01*
X80488Y-53795D01*
X80489Y-53794D01*
X80505Y-53786D01*
X80521Y-53777D01*
X80522Y-53777D01*
X80523Y-53776D01*
X80538Y-53764D01*
X80552Y-53753D01*
X80553Y-53751D01*
X80553Y-53751D01*
X80553Y-53751D01*
X80554Y-53751D01*
X80637Y-53668D01*
X80716Y-53668D01*
X80745Y-53662D01*
X80772Y-53651D01*
X80796Y-53634D01*
X80799Y-53631D01*
X80802Y-53634D01*
X80826Y-53650D01*
X80853Y-53661D01*
X80882Y-53667D01*
X80912Y-53668D01*
X81070Y-53668D01*
X81099Y-53662D01*
X81126Y-53651D01*
X81150Y-53634D01*
X81171Y-53614D01*
X81188Y-53589D01*
X81199Y-53562D01*
X81205Y-53533D01*
X81205Y-53504D01*
X81205Y-53267D01*
X81199Y-53238D01*
X81188Y-53211D01*
X81172Y-53186D01*
X81160Y-53174D01*
X81160Y-53076D01*
X81160Y-53076D01*
X81187Y-53065D01*
X81212Y-53048D01*
X81233Y-53028D01*
X81249Y-53003D01*
X81260Y-52976D01*
X81266Y-52947D01*
X81267Y-52918D01*
X81267Y-52603D01*
X81261Y-52574D01*
X81250Y-52547D01*
X81233Y-52522D01*
X81213Y-52501D01*
X81188Y-52485D01*
X81175Y-52480D01*
X81187Y-52475D01*
X81212Y-52458D01*
X81233Y-52438D01*
X81249Y-52413D01*
X81260Y-52386D01*
X81266Y-52357D01*
X81267Y-52328D01*
X81267Y-52013D01*
X81261Y-51984D01*
X81250Y-51957D01*
X81233Y-51932D01*
X81213Y-51911D01*
X81188Y-51895D01*
X81181Y-51892D01*
X81202Y-51878D01*
X81223Y-51858D01*
X81239Y-51833D01*
X81250Y-51806D01*
X81256Y-51777D01*
X81257Y-51748D01*
X81257Y-51433D01*
X81251Y-51404D01*
X81240Y-51377D01*
X81223Y-51352D01*
X81203Y-51331D01*
X81178Y-51315D01*
X81165Y-51310D01*
X81177Y-51305D01*
X81202Y-51288D01*
X81223Y-51268D01*
X81239Y-51243D01*
X81250Y-51216D01*
X81256Y-51187D01*
X81257Y-51158D01*
X81257Y-50843D01*
X81251Y-50814D01*
X81240Y-50787D01*
X81223Y-50762D01*
X81203Y-50741D01*
X81178Y-50725D01*
X81151Y-50714D01*
X81150Y-50713D01*
X81150Y-50691D01*
X81163Y-50682D01*
X81184Y-50661D01*
X81200Y-50637D01*
X81211Y-50610D01*
X81217Y-50581D01*
X81218Y-50551D01*
X81218Y-50393D01*
X81212Y-50364D01*
X81201Y-50337D01*
X81184Y-50313D01*
X81181Y-50310D01*
X81184Y-50307D01*
X81200Y-50283D01*
X81211Y-50256D01*
X81217Y-50227D01*
X81218Y-50197D01*
X81218Y-50039D01*
X81212Y-50010D01*
X81201Y-49983D01*
X81184Y-49959D01*
X81164Y-49938D01*
X81139Y-49921D01*
X81112Y-49910D01*
X81083Y-49904D01*
X81054Y-49904D01*
X81007Y-49904D01*
X80823Y-49721D01*
X80809Y-49709D01*
X80795Y-49697D01*
X80794Y-49697D01*
X80793Y-49696D01*
X80777Y-49687D01*
X80761Y-49678D01*
X80760Y-49678D01*
X80759Y-49677D01*
X80741Y-49672D01*
X80724Y-49666D01*
X80723Y-49666D01*
X80722Y-49666D01*
X80703Y-49664D01*
X80685Y-49662D01*
X80683Y-49662D01*
X80683Y-49662D01*
X80683Y-49662D01*
X80682Y-49662D01*
X80615Y-49662D01*
X80615Y-49652D01*
X80615Y-49414D01*
X80610Y-49389D01*
X80615Y-49366D01*
X80615Y-49337D01*
X80615Y-49099D01*
X80610Y-49074D01*
X80615Y-49051D01*
X80615Y-49022D01*
X80615Y-48784D01*
X80610Y-48760D01*
X80615Y-48736D01*
X80615Y-48707D01*
X80615Y-48469D01*
X80610Y-48445D01*
X80615Y-48421D01*
X80615Y-48392D01*
X80615Y-48154D01*
X80610Y-48130D01*
X80615Y-48106D01*
X80615Y-48077D01*
X80615Y-47839D01*
X80610Y-47815D01*
X80615Y-47791D01*
X80615Y-47762D01*
X80615Y-47525D01*
X80610Y-47496D01*
X80598Y-47468D01*
X80582Y-47444D01*
X80561Y-47423D01*
X80537Y-47407D01*
X80510Y-47395D01*
X80481Y-47389D01*
X80452Y-47389D01*
X80057Y-47389D01*
X80028Y-47395D01*
X80001Y-47406D01*
X79976Y-47422D01*
X79955Y-47443D01*
X79955Y-47444D01*
X79916Y-47405D01*
X79867Y-47372D01*
X79839Y-47360D01*
X82300Y-47366D01*
X82364Y-47416D01*
X83172Y-48351D01*
X83782Y-49425D01*
X84172Y-50597D01*
X84327Y-51830D01*
X84330Y-51992D01*
X84330Y-51992D01*
G37*
G54D28*
X84330Y-51992D02*
X84208Y-53229D01*
X83851Y-54411D01*
X83271Y-55502D01*
X82491Y-56459D01*
X81539Y-57247D01*
X80452Y-57834D01*
X79884Y-58010D01*
X79884Y-57147D01*
X79866Y-57054D01*
X79829Y-56966D01*
X79777Y-56887D01*
X79710Y-56820D01*
X79631Y-56766D01*
X79543Y-56730D01*
X79450Y-56711D01*
X79355Y-56710D01*
X79262Y-56728D01*
X79174Y-56763D01*
X79094Y-56815D01*
X79057Y-56852D01*
X79057Y-56323D01*
X79047Y-56273D01*
X79028Y-56227D01*
X79000Y-56184D01*
X78964Y-56148D01*
X78922Y-56120D01*
X78875Y-56100D01*
X78826Y-56090D01*
X78775Y-56090D01*
X78725Y-56099D01*
X78678Y-56118D01*
X78636Y-56146D01*
X78600Y-56182D01*
X78571Y-56223D01*
X78551Y-56270D01*
X78541Y-56319D01*
X78540Y-56370D01*
X78549Y-56420D01*
X78568Y-56467D01*
X78595Y-56510D01*
X78630Y-56546D01*
X78672Y-56575D01*
X78718Y-56595D01*
X78768Y-56606D01*
X78818Y-56607D01*
X78868Y-56598D01*
X78916Y-56580D01*
X78958Y-56553D01*
X78995Y-56518D01*
X79024Y-56477D01*
X79045Y-56430D01*
X79056Y-56381D01*
X79057Y-56323D01*
X79057Y-56852D01*
X79026Y-56882D01*
X78973Y-56960D01*
X78935Y-57048D01*
X78915Y-57141D01*
X78914Y-57236D01*
X78931Y-57329D01*
X78966Y-57417D01*
X79018Y-57497D01*
X79084Y-57566D01*
X79162Y-57620D01*
X79249Y-57658D01*
X79342Y-57678D01*
X79437Y-57680D01*
X79530Y-57664D01*
X79619Y-57630D01*
X79699Y-57579D01*
X79768Y-57513D01*
X79823Y-57435D01*
X79861Y-57349D01*
X79882Y-57256D01*
X79884Y-57147D01*
X79884Y-58010D01*
X79272Y-58200D01*
X78044Y-58329D01*
X76813Y-58217D01*
X75628Y-57868D01*
X74534Y-57296D01*
X73571Y-56522D01*
X72777Y-55575D01*
X72182Y-54493D01*
X71808Y-53315D01*
X71671Y-52088D01*
X71774Y-50857D01*
X72114Y-49669D01*
X72202Y-49499D01*
X72202Y-49521D01*
X72202Y-50073D01*
X72208Y-50102D01*
X72219Y-50129D01*
X72235Y-50154D01*
X72256Y-50175D01*
X72280Y-50191D01*
X72307Y-50203D01*
X72336Y-50208D01*
X72366Y-50209D01*
X72504Y-50209D01*
X72533Y-50203D01*
X72560Y-50192D01*
X72585Y-50175D01*
X72606Y-50155D01*
X72622Y-50130D01*
X72634Y-50103D01*
X72640Y-50074D01*
X72640Y-50045D01*
X72640Y-49493D01*
X72634Y-49464D01*
X72623Y-49437D01*
X72606Y-49412D01*
X72586Y-49391D01*
X72561Y-49375D01*
X72534Y-49363D01*
X72505Y-49357D01*
X72476Y-49357D01*
X72337Y-49357D01*
X72308Y-49363D01*
X72281Y-49374D01*
X72258Y-49389D01*
X72679Y-48571D01*
X73446Y-47603D01*
X74387Y-46802D01*
X75465Y-46199D01*
X76640Y-45818D01*
X77115Y-45761D01*
X77115Y-47354D01*
X79610Y-47360D01*
X79584Y-47370D01*
X79535Y-47402D01*
X79493Y-47444D01*
X79460Y-47492D01*
X79437Y-47546D01*
X79424Y-47604D01*
X79424Y-47663D01*
X79434Y-47720D01*
X79456Y-47775D01*
X79488Y-47825D01*
X79529Y-47867D01*
X79577Y-47900D01*
X79631Y-47924D01*
X79688Y-47937D01*
X79747Y-47938D01*
X79805Y-47928D01*
X79860Y-47906D01*
X79910Y-47875D01*
X79922Y-47863D01*
X79921Y-47868D01*
X79922Y-48105D01*
X79926Y-48130D01*
X79922Y-48153D01*
X79921Y-48183D01*
X79922Y-48420D01*
X79926Y-48445D01*
X79922Y-48468D01*
X79921Y-48498D01*
X79922Y-48735D01*
X79926Y-48760D01*
X79922Y-48783D01*
X79921Y-48813D01*
X79922Y-49050D01*
X79926Y-49075D01*
X79922Y-49098D01*
X79921Y-49128D01*
X79922Y-49365D01*
X79926Y-49390D01*
X79922Y-49413D01*
X79921Y-49443D01*
X79922Y-49680D01*
X79925Y-49697D01*
X79912Y-49707D01*
X79898Y-49719D01*
X79896Y-49720D01*
X79896Y-49720D01*
X79896Y-49720D01*
X79896Y-49721D01*
X79566Y-50051D01*
X78291Y-48775D01*
X78276Y-48764D01*
X78262Y-48752D01*
X78261Y-48751D01*
X78260Y-48751D01*
X78244Y-48742D01*
X78228Y-48733D01*
X78227Y-48733D01*
X78226Y-48732D01*
X78208Y-48727D01*
X78191Y-48721D01*
X78190Y-48721D01*
X78189Y-48721D01*
X78170Y-48719D01*
X78152Y-48717D01*
X78150Y-48717D01*
X78150Y-48717D01*
X78150Y-48717D01*
X78149Y-48717D01*
X76602Y-48717D01*
X76570Y-48685D01*
X76521Y-48652D01*
X76467Y-48629D01*
X76409Y-48617D01*
X76350Y-48617D01*
X76292Y-48628D01*
X76238Y-48650D01*
X76189Y-48682D01*
X76147Y-48723D01*
X76113Y-48772D01*
X76090Y-48826D01*
X76078Y-48883D01*
X76077Y-48942D01*
X76088Y-49000D01*
X76109Y-49055D01*
X76141Y-49104D01*
X76182Y-49146D01*
X76230Y-49180D01*
X76284Y-49204D01*
X76342Y-49216D01*
X76401Y-49217D01*
X76459Y-49207D01*
X76513Y-49186D01*
X76563Y-49154D01*
X76602Y-49117D01*
X78066Y-49117D01*
X79360Y-50410D01*
X79360Y-52744D01*
X79349Y-52743D01*
X79130Y-52744D01*
X79130Y-52393D01*
X79162Y-52348D01*
X79186Y-52295D01*
X79199Y-52237D01*
X79200Y-52170D01*
X79188Y-52112D01*
X79166Y-52058D01*
X79133Y-52009D01*
X79092Y-51967D01*
X79043Y-51934D01*
X78989Y-51912D01*
X78931Y-51900D01*
X78872Y-51899D01*
X78814Y-51910D01*
X78760Y-51932D01*
X78711Y-51965D01*
X78669Y-52006D01*
X78635Y-52054D01*
X78612Y-52108D01*
X78600Y-52166D01*
X78599Y-52216D01*
X78589Y-52212D01*
X78531Y-52200D01*
X78472Y-52199D01*
X78414Y-52210D01*
X78360Y-52232D01*
X78311Y-52265D01*
X78269Y-52306D01*
X78235Y-52354D01*
X78212Y-52408D01*
X78200Y-52466D01*
X78199Y-52517D01*
X78185Y-52531D01*
X78185Y-51213D01*
X78203Y-51196D01*
X78237Y-51148D01*
X78261Y-51095D01*
X78274Y-51037D01*
X78275Y-50970D01*
X78263Y-50912D01*
X78241Y-50858D01*
X78208Y-50809D01*
X78167Y-50767D01*
X78118Y-50734D01*
X78064Y-50712D01*
X78006Y-50700D01*
X77947Y-50699D01*
X77889Y-50710D01*
X77835Y-50732D01*
X77786Y-50765D01*
X77744Y-50806D01*
X77710Y-50854D01*
X77687Y-50908D01*
X77675Y-50966D01*
X77674Y-51025D01*
X77685Y-51083D01*
X77706Y-51137D01*
X77738Y-51187D01*
X77779Y-51229D01*
X77785Y-51233D01*
X77785Y-52768D01*
X77772Y-52777D01*
X77751Y-52797D01*
X77734Y-52822D01*
X77723Y-52849D01*
X77717Y-52878D01*
X77717Y-52907D01*
X77717Y-53302D01*
X77723Y-53331D01*
X77734Y-53358D01*
X77734Y-53358D01*
X77734Y-53358D01*
X77716Y-53353D01*
X77699Y-53347D01*
X77698Y-53347D01*
X77697Y-53347D01*
X77678Y-53345D01*
X77660Y-53343D01*
X77658Y-53343D01*
X77658Y-53343D01*
X77658Y-53343D01*
X77657Y-53343D01*
X77613Y-53343D01*
X77617Y-53332D01*
X77623Y-53303D01*
X77623Y-53274D01*
X77623Y-52879D01*
X77617Y-52850D01*
X77606Y-52823D01*
X77590Y-52798D01*
X77569Y-52777D01*
X77545Y-52761D01*
X77518Y-52750D01*
X77489Y-52744D01*
X77459Y-52743D01*
X77222Y-52744D01*
X77197Y-52748D01*
X77174Y-52744D01*
X77145Y-52743D01*
X77010Y-52744D01*
X77010Y-50350D01*
X76998Y-50292D01*
X76976Y-50238D01*
X76943Y-50189D01*
X76902Y-50147D01*
X76853Y-50114D01*
X76799Y-50092D01*
X76741Y-50080D01*
X76692Y-50079D01*
X76333Y-49721D01*
X76319Y-49709D01*
X76305Y-49697D01*
X76304Y-49697D01*
X76303Y-49696D01*
X76287Y-49687D01*
X76271Y-49678D01*
X76270Y-49678D01*
X76269Y-49677D01*
X76251Y-49672D01*
X76234Y-49666D01*
X76233Y-49666D01*
X76232Y-49666D01*
X76213Y-49664D01*
X76195Y-49662D01*
X76193Y-49662D01*
X76193Y-49662D01*
X76193Y-49662D01*
X76192Y-49662D01*
X76048Y-49662D01*
X76048Y-49337D01*
X76048Y-49099D01*
X76043Y-49074D01*
X76048Y-49051D01*
X76048Y-49022D01*
X76048Y-48784D01*
X76043Y-48760D01*
X76048Y-48736D01*
X76048Y-48707D01*
X76048Y-48469D01*
X76043Y-48445D01*
X76048Y-48421D01*
X76048Y-48392D01*
X76048Y-48154D01*
X76043Y-48130D01*
X76048Y-48106D01*
X76048Y-48077D01*
X76048Y-47839D01*
X76043Y-47815D01*
X76048Y-47791D01*
X76048Y-47762D01*
X76048Y-47525D01*
X76043Y-47496D01*
X76031Y-47468D01*
X76015Y-47444D01*
X75994Y-47423D01*
X75970Y-47407D01*
X75943Y-47395D01*
X75914Y-47389D01*
X75885Y-47389D01*
X75490Y-47389D01*
X75461Y-47395D01*
X75434Y-47406D01*
X75409Y-47422D01*
X75389Y-47443D01*
X75372Y-47468D01*
X75361Y-47495D01*
X75355Y-47523D01*
X75355Y-47553D01*
X75355Y-47790D01*
X75360Y-47815D01*
X75355Y-47838D01*
X75355Y-47868D01*
X75355Y-48105D01*
X75360Y-48130D01*
X75355Y-48153D01*
X75355Y-48183D01*
X75355Y-48420D01*
X75360Y-48445D01*
X75355Y-48468D01*
X75355Y-48498D01*
X75355Y-48735D01*
X75360Y-48760D01*
X75355Y-48783D01*
X75355Y-48813D01*
X75355Y-49050D01*
X75360Y-49075D01*
X75355Y-49098D01*
X75355Y-49128D01*
X75355Y-49365D01*
X75360Y-49394D01*
X75372Y-49421D01*
X75388Y-49446D01*
X75409Y-49466D01*
X75433Y-49483D01*
X75460Y-49494D01*
X75489Y-49500D01*
X75518Y-49500D01*
X75913Y-49500D01*
X75942Y-49495D01*
X75969Y-49483D01*
X75994Y-49467D01*
X76014Y-49446D01*
X76031Y-49422D01*
X76042Y-49395D01*
X76048Y-49366D01*
X76048Y-49337D01*
X76048Y-49662D01*
X76024Y-49662D01*
X76015Y-49649D01*
X75994Y-49628D01*
X75970Y-49611D01*
X75943Y-49600D01*
X75914Y-49594D01*
X75885Y-49594D01*
X75490Y-49594D01*
X75461Y-49600D01*
X75434Y-49611D01*
X75409Y-49627D01*
X75389Y-49648D01*
X75372Y-49672D01*
X75361Y-49699D01*
X75355Y-49728D01*
X75355Y-49758D01*
X75355Y-49995D01*
X75360Y-50020D01*
X75355Y-50043D01*
X75355Y-50073D01*
X75355Y-50310D01*
X75357Y-50320D01*
X75349Y-50324D01*
X75348Y-50325D01*
X75347Y-50325D01*
X75333Y-50337D01*
X75319Y-50349D01*
X75317Y-50350D01*
X75317Y-50350D01*
X75317Y-50350D01*
X75317Y-50351D01*
X75035Y-50632D01*
X75023Y-50646D01*
X75011Y-50661D01*
X75011Y-50661D01*
X75010Y-50662D01*
X75002Y-50679D01*
X74993Y-50695D01*
X74992Y-50696D01*
X74992Y-50697D01*
X74986Y-50714D01*
X74981Y-50732D01*
X74981Y-50733D01*
X74980Y-50734D01*
X74979Y-50752D01*
X74977Y-50771D01*
X74977Y-50773D01*
X74977Y-50773D01*
X74977Y-50773D01*
X74977Y-50774D01*
X74977Y-50933D01*
X74973Y-50930D01*
X74946Y-50919D01*
X74917Y-50913D01*
X74887Y-50912D01*
X74729Y-50913D01*
X74700Y-50918D01*
X74673Y-50930D01*
X74649Y-50946D01*
X74628Y-50967D01*
X74624Y-50972D01*
X74601Y-50948D01*
X74552Y-50915D01*
X74498Y-50893D01*
X74440Y-50881D01*
X74382Y-50880D01*
X74324Y-50891D01*
X74269Y-50913D01*
X74220Y-50946D01*
X74178Y-50987D01*
X74145Y-51035D01*
X74122Y-51089D01*
X74109Y-51147D01*
X74109Y-51206D01*
X74119Y-51264D01*
X74141Y-51318D01*
X74173Y-51368D01*
X74214Y-51410D01*
X74262Y-51444D01*
X74316Y-51467D01*
X74373Y-51480D01*
X74432Y-51481D01*
X74490Y-51471D01*
X74545Y-51450D01*
X74595Y-51418D01*
X74624Y-51390D01*
X74627Y-51394D01*
X74648Y-51415D01*
X74672Y-51431D01*
X74699Y-51443D01*
X74728Y-51449D01*
X74758Y-51449D01*
X74916Y-51449D01*
X74945Y-51443D01*
X74972Y-51432D01*
X74996Y-51415D01*
X74999Y-51412D01*
X75002Y-51415D01*
X75026Y-51431D01*
X75053Y-51443D01*
X75082Y-51449D01*
X75112Y-51449D01*
X75270Y-51449D01*
X75299Y-51443D01*
X75326Y-51432D01*
X75350Y-51415D01*
X75355Y-51411D01*
X75355Y-51570D01*
X75360Y-51595D01*
X75355Y-51618D01*
X75355Y-51647D01*
X75355Y-51885D01*
X75360Y-51909D01*
X75355Y-51933D01*
X75355Y-51962D01*
X75355Y-52200D01*
X75360Y-52224D01*
X75355Y-52248D01*
X75355Y-52277D01*
X75355Y-52515D01*
X75360Y-52539D01*
X75355Y-52563D01*
X75355Y-52592D01*
X75355Y-52830D01*
X75360Y-52858D01*
X75372Y-52886D01*
X75388Y-52910D01*
X75409Y-52931D01*
X75433Y-52947D01*
X75460Y-52959D01*
X75489Y-52965D01*
X75518Y-52965D01*
X75913Y-52965D01*
X75942Y-52959D01*
X75969Y-52948D01*
X75994Y-52932D01*
X76014Y-52911D01*
X76031Y-52887D01*
X76042Y-52859D01*
X76048Y-52831D01*
X76048Y-52801D01*
X76048Y-52564D01*
X76043Y-52539D01*
X76048Y-52516D01*
X76048Y-52486D01*
X76048Y-52249D01*
X76043Y-52224D01*
X76048Y-52201D01*
X76048Y-52171D01*
X76048Y-51934D01*
X76043Y-51909D01*
X76048Y-51886D01*
X76048Y-51856D01*
X76048Y-51619D01*
X76043Y-51594D01*
X76048Y-51571D01*
X76048Y-51541D01*
X76048Y-51304D01*
X76043Y-51279D01*
X76048Y-51256D01*
X76048Y-51226D01*
X76048Y-50989D01*
X76043Y-50964D01*
X76048Y-50941D01*
X76048Y-50911D01*
X76048Y-50674D01*
X76043Y-50649D01*
X76048Y-50626D01*
X76048Y-50596D01*
X76048Y-50359D01*
X76043Y-50334D01*
X76048Y-50311D01*
X76048Y-50281D01*
X76048Y-50062D01*
X76109Y-50062D01*
X76410Y-50363D01*
X76409Y-50405D01*
X76420Y-50463D01*
X76441Y-50517D01*
X76473Y-50567D01*
X76514Y-50609D01*
X76562Y-50643D01*
X76616Y-50666D01*
X76674Y-50679D01*
X76733Y-50680D01*
X76791Y-50670D01*
X76845Y-50649D01*
X76895Y-50617D01*
X76938Y-50576D01*
X76972Y-50528D01*
X76996Y-50475D01*
X77009Y-50417D01*
X77010Y-50350D01*
X77010Y-52744D01*
X76907Y-52744D01*
X76882Y-52748D01*
X76859Y-52744D01*
X76830Y-52743D01*
X76592Y-52744D01*
X76567Y-52748D01*
X76544Y-52744D01*
X76515Y-52743D01*
X76277Y-52744D01*
X76248Y-52749D01*
X76221Y-52760D01*
X76197Y-52777D01*
X76176Y-52797D01*
X76159Y-52822D01*
X76148Y-52849D01*
X76142Y-52878D01*
X76142Y-52907D01*
X76142Y-53302D01*
X76148Y-53331D01*
X76153Y-53343D01*
X75279Y-53343D01*
X74846Y-52909D01*
X74831Y-52898D01*
X74817Y-52886D01*
X74816Y-52885D01*
X74815Y-52884D01*
X74799Y-52876D01*
X74783Y-52867D01*
X74782Y-52867D01*
X74781Y-52866D01*
X74763Y-52861D01*
X74746Y-52855D01*
X74745Y-52855D01*
X74744Y-52855D01*
X74725Y-52853D01*
X74707Y-52851D01*
X74705Y-52851D01*
X74705Y-52851D01*
X74705Y-52851D01*
X74704Y-52851D01*
X74495Y-52851D01*
X74486Y-52837D01*
X74465Y-52817D01*
X74441Y-52800D01*
X74414Y-52789D01*
X74385Y-52783D01*
X74356Y-52783D01*
X74197Y-52783D01*
X74169Y-52788D01*
X74165Y-52790D01*
X74354Y-52602D01*
X74365Y-52587D01*
X74377Y-52573D01*
X74378Y-52572D01*
X74378Y-52571D01*
X74387Y-52555D01*
X74396Y-52539D01*
X74396Y-52538D01*
X74397Y-52537D01*
X74402Y-52519D01*
X74408Y-52502D01*
X74408Y-52501D01*
X74408Y-52500D01*
X74410Y-52481D01*
X74412Y-52463D01*
X74412Y-52461D01*
X74412Y-52461D01*
X74412Y-52461D01*
X74412Y-52460D01*
X74412Y-52396D01*
X74414Y-52394D01*
X74425Y-52367D01*
X74431Y-52338D01*
X74431Y-52309D01*
X74431Y-51756D01*
X74425Y-51728D01*
X74414Y-51700D01*
X74398Y-51676D01*
X74377Y-51655D01*
X74353Y-51639D01*
X74326Y-51627D01*
X74297Y-51621D01*
X74267Y-51621D01*
X74128Y-51621D01*
X74100Y-51627D01*
X74084Y-51633D01*
X74070Y-51627D01*
X74041Y-51621D01*
X74011Y-51621D01*
X73873Y-51621D01*
X73844Y-51627D01*
X73828Y-51633D01*
X73814Y-51627D01*
X73785Y-51621D01*
X73756Y-51621D01*
X73644Y-51621D01*
X73644Y-51102D01*
X73643Y-51083D01*
X73641Y-51065D01*
X73641Y-51064D01*
X73641Y-51063D01*
X73635Y-51045D01*
X73630Y-51028D01*
X73630Y-51027D01*
X73629Y-51026D01*
X73621Y-51009D01*
X73612Y-50993D01*
X73611Y-50992D01*
X73611Y-50991D01*
X73599Y-50977D01*
X73588Y-50962D01*
X73586Y-50961D01*
X73586Y-50961D01*
X73586Y-50961D01*
X73586Y-50960D01*
X73133Y-50507D01*
X73133Y-50209D01*
X73133Y-50209D01*
X73272Y-50209D01*
X73301Y-50203D01*
X73328Y-50192D01*
X73353Y-50175D01*
X73374Y-50155D01*
X73390Y-50130D01*
X73401Y-50103D01*
X73407Y-50074D01*
X73407Y-50045D01*
X73407Y-49493D01*
X73402Y-49464D01*
X73390Y-49437D01*
X73388Y-49434D01*
X73388Y-49073D01*
X73397Y-49069D01*
X73421Y-49053D01*
X73425Y-49050D01*
X73427Y-49053D01*
X73452Y-49069D01*
X73479Y-49080D01*
X73500Y-49085D01*
X73500Y-49433D01*
X73499Y-49436D01*
X73487Y-49463D01*
X73481Y-49492D01*
X73481Y-49521D01*
X73481Y-50073D01*
X73487Y-50102D01*
X73498Y-50129D01*
X73515Y-50154D01*
X73535Y-50175D01*
X73560Y-50191D01*
X73587Y-50203D01*
X73616Y-50208D01*
X73645Y-50209D01*
X73760Y-50209D01*
X73760Y-50236D01*
X73728Y-50257D01*
X73686Y-50298D01*
X73653Y-50346D01*
X73629Y-50400D01*
X73617Y-50458D01*
X73616Y-50517D01*
X73627Y-50575D01*
X73649Y-50629D01*
X73681Y-50679D01*
X73721Y-50721D01*
X73770Y-50755D01*
X73824Y-50778D01*
X73881Y-50791D01*
X73940Y-50792D01*
X73998Y-50782D01*
X74053Y-50761D01*
X74102Y-50729D01*
X74145Y-50689D01*
X74179Y-50641D01*
X74203Y-50587D01*
X74216Y-50529D01*
X74217Y-50462D01*
X74205Y-50404D01*
X74183Y-50350D01*
X74160Y-50315D01*
X74160Y-50209D01*
X74296Y-50209D01*
X74325Y-50203D01*
X74352Y-50192D01*
X74376Y-50175D01*
X74397Y-50155D01*
X74414Y-50130D01*
X74425Y-50103D01*
X74431Y-50074D01*
X74431Y-50045D01*
X74431Y-49511D01*
X74606Y-49511D01*
X74624Y-49509D01*
X74643Y-49507D01*
X74644Y-49507D01*
X74645Y-49507D01*
X74662Y-49501D01*
X74680Y-49496D01*
X74681Y-49496D01*
X74682Y-49495D01*
X74698Y-49487D01*
X74715Y-49478D01*
X74716Y-49478D01*
X74716Y-49477D01*
X74731Y-49465D01*
X74745Y-49454D01*
X74747Y-49452D01*
X74747Y-49452D01*
X74747Y-49452D01*
X74747Y-49452D01*
X74983Y-49217D01*
X75023Y-49217D01*
X75081Y-49207D01*
X75135Y-49186D01*
X75185Y-49154D01*
X75228Y-49114D01*
X75262Y-49066D01*
X75286Y-49012D01*
X75299Y-48955D01*
X75300Y-48887D01*
X75288Y-48830D01*
X75266Y-48775D01*
X75233Y-48726D01*
X75192Y-48685D01*
X75143Y-48652D01*
X75089Y-48629D01*
X75031Y-48617D01*
X74972Y-48617D01*
X74914Y-48628D01*
X74860Y-48650D01*
X74811Y-48682D01*
X74769Y-48723D01*
X74735Y-48772D01*
X74712Y-48826D01*
X74700Y-48883D01*
X74699Y-48934D01*
X74523Y-49111D01*
X74412Y-49111D01*
X74412Y-49101D01*
X74425Y-49092D01*
X74446Y-49072D01*
X74463Y-49047D01*
X74474Y-49020D01*
X74480Y-48991D01*
X74480Y-48962D01*
X74480Y-48804D01*
X74474Y-48775D01*
X74463Y-48748D01*
X74447Y-48723D01*
X74426Y-48702D01*
X74402Y-48686D01*
X74375Y-48674D01*
X74346Y-48669D01*
X74316Y-48668D01*
X74079Y-48668D01*
X74051Y-48674D01*
X74023Y-48685D01*
X73999Y-48702D01*
X73978Y-48722D01*
X73962Y-48747D01*
X73950Y-48774D01*
X73944Y-48803D01*
X73944Y-48832D01*
X73944Y-48990D01*
X73950Y-49019D01*
X73961Y-49046D01*
X73977Y-49071D01*
X73998Y-49092D01*
X74012Y-49101D01*
X74012Y-49311D01*
X74012Y-49354D01*
X73900Y-49354D01*
X73900Y-48897D01*
X73898Y-48879D01*
X73897Y-48860D01*
X73897Y-48859D01*
X73896Y-48858D01*
X73891Y-48841D01*
X73886Y-48823D01*
X73886Y-48822D01*
X73885Y-48821D01*
X73877Y-48805D01*
X73868Y-48788D01*
X73867Y-48787D01*
X73867Y-48786D01*
X73855Y-48772D01*
X73844Y-48758D01*
X73842Y-48756D01*
X73842Y-48756D01*
X73842Y-48756D01*
X73842Y-48756D01*
X73830Y-48744D01*
X73830Y-48686D01*
X73824Y-48657D01*
X73813Y-48630D01*
X73797Y-48605D01*
X73776Y-48584D01*
X73752Y-48568D01*
X73725Y-48556D01*
X73696Y-48550D01*
X73667Y-48550D01*
X73508Y-48550D01*
X73480Y-48556D01*
X73452Y-48567D01*
X73428Y-48584D01*
X73425Y-48587D01*
X73422Y-48584D01*
X73398Y-48568D01*
X73371Y-48556D01*
X73342Y-48550D01*
X73313Y-48550D01*
X73154Y-48550D01*
X73126Y-48556D01*
X73098Y-48567D01*
X73074Y-48584D01*
X73053Y-48604D01*
X73037Y-48629D01*
X73025Y-48656D01*
X73019Y-48685D01*
X73019Y-48714D01*
X73019Y-48752D01*
X73014Y-48763D01*
X73005Y-48779D01*
X73004Y-48780D01*
X73004Y-48781D01*
X72998Y-48799D01*
X72993Y-48816D01*
X72993Y-48817D01*
X72992Y-48818D01*
X72991Y-48837D01*
X72988Y-48855D01*
X72988Y-48857D01*
X72988Y-48857D01*
X72988Y-48857D01*
X72988Y-48858D01*
X72988Y-49357D01*
X72988Y-49357D01*
X72849Y-49357D01*
X72820Y-49363D01*
X72793Y-49374D01*
X72768Y-49391D01*
X72748Y-49411D01*
X72731Y-49436D01*
X72720Y-49463D01*
X72714Y-49492D01*
X72714Y-49521D01*
X72714Y-50073D01*
X72719Y-50102D01*
X72731Y-50129D01*
X72733Y-50132D01*
X72733Y-50590D01*
X72734Y-50608D01*
X72736Y-50627D01*
X72736Y-50628D01*
X72736Y-50629D01*
X72742Y-50647D01*
X72747Y-50664D01*
X72747Y-50665D01*
X72748Y-50666D01*
X72756Y-50683D01*
X72765Y-50699D01*
X72765Y-50700D01*
X72766Y-50701D01*
X72778Y-50715D01*
X72789Y-50729D01*
X72791Y-50731D01*
X72791Y-50731D01*
X72791Y-50731D01*
X72791Y-50731D01*
X73244Y-51185D01*
X73244Y-51697D01*
X73243Y-51699D01*
X73233Y-51724D01*
X73233Y-51545D01*
X73221Y-51487D01*
X73199Y-51433D01*
X73166Y-51384D01*
X73125Y-51342D01*
X73076Y-51309D01*
X73022Y-51286D01*
X72964Y-51275D01*
X72905Y-51274D01*
X72847Y-51285D01*
X72793Y-51307D01*
X72744Y-51339D01*
X72702Y-51381D01*
X72668Y-51429D01*
X72645Y-51483D01*
X72633Y-51541D01*
X72632Y-51600D01*
X72636Y-51621D01*
X72593Y-51621D01*
X72564Y-51627D01*
X72549Y-51633D01*
X72534Y-51627D01*
X72505Y-51621D01*
X72476Y-51621D01*
X72337Y-51621D01*
X72308Y-51627D01*
X72281Y-51638D01*
X72257Y-51654D01*
X72236Y-51675D01*
X72219Y-51699D01*
X72208Y-51727D01*
X72202Y-51755D01*
X72202Y-51785D01*
X72202Y-52337D01*
X72208Y-52366D01*
X72219Y-52393D01*
X72235Y-52418D01*
X72256Y-52438D01*
X72280Y-52455D01*
X72307Y-52466D01*
X72336Y-52472D01*
X72366Y-52472D01*
X72504Y-52472D01*
X72533Y-52467D01*
X72549Y-52460D01*
X72563Y-52466D01*
X72592Y-52472D01*
X72621Y-52472D01*
X72760Y-52472D01*
X72789Y-52467D01*
X72805Y-52460D01*
X72819Y-52466D01*
X72848Y-52472D01*
X72877Y-52472D01*
X73016Y-52472D01*
X73045Y-52467D01*
X73072Y-52455D01*
X73097Y-52439D01*
X73118Y-52418D01*
X73134Y-52394D01*
X73145Y-52367D01*
X73151Y-52338D01*
X73152Y-52309D01*
X73151Y-51780D01*
X73161Y-51771D01*
X73195Y-51723D01*
X73219Y-51669D01*
X73232Y-51612D01*
X73233Y-51545D01*
X73233Y-51724D01*
X73231Y-51727D01*
X73226Y-51755D01*
X73225Y-51785D01*
X73225Y-52057D01*
X73225Y-52064D01*
X73225Y-52066D01*
X73225Y-52066D01*
X73225Y-52066D01*
X73225Y-52066D01*
X73225Y-52866D01*
X73211Y-52875D01*
X73191Y-52896D01*
X73174Y-52920D01*
X73163Y-52947D01*
X73157Y-52976D01*
X73157Y-53006D01*
X73157Y-53164D01*
X73162Y-53193D01*
X73174Y-53220D01*
X73190Y-53244D01*
X73211Y-53265D01*
X73235Y-53282D01*
X73262Y-53293D01*
X73291Y-53299D01*
X73320Y-53299D01*
X73557Y-53299D01*
X73586Y-53293D01*
X73613Y-53282D01*
X73638Y-53266D01*
X73659Y-53245D01*
X73675Y-53221D01*
X73687Y-53194D01*
X73693Y-53165D01*
X73693Y-53135D01*
X73693Y-52977D01*
X73687Y-52948D01*
X73676Y-52921D01*
X73660Y-52897D01*
X73639Y-52876D01*
X73625Y-52866D01*
X73625Y-52472D01*
X73645Y-52472D01*
X73784Y-52472D01*
X73813Y-52467D01*
X73828Y-52460D01*
X73843Y-52466D01*
X73872Y-52472D01*
X73901Y-52472D01*
X73917Y-52472D01*
X73795Y-52594D01*
X73784Y-52608D01*
X73772Y-52623D01*
X73771Y-52623D01*
X73770Y-52624D01*
X73762Y-52641D01*
X73753Y-52657D01*
X73753Y-52658D01*
X73752Y-52659D01*
X73747Y-52676D01*
X73741Y-52694D01*
X73741Y-52695D01*
X73741Y-52696D01*
X73739Y-52714D01*
X73737Y-52733D01*
X73737Y-52735D01*
X73737Y-52735D01*
X73737Y-52735D01*
X73737Y-52736D01*
X73737Y-52845D01*
X73726Y-52861D01*
X73714Y-52888D01*
X73708Y-52917D01*
X73708Y-52946D01*
X73708Y-53183D01*
X73714Y-53212D01*
X73725Y-53239D01*
X73737Y-53257D01*
X73737Y-53337D01*
X73726Y-53353D01*
X73714Y-53380D01*
X73708Y-53409D01*
X73708Y-53438D01*
X73708Y-53676D01*
X73714Y-53704D01*
X73725Y-53732D01*
X73741Y-53756D01*
X73762Y-53777D01*
X73786Y-53793D01*
X73814Y-53805D01*
X73842Y-53811D01*
X73872Y-53811D01*
X74030Y-53811D01*
X74059Y-53805D01*
X74086Y-53794D01*
X74091Y-53791D01*
X74091Y-53829D01*
X74080Y-53845D01*
X74068Y-53872D01*
X74062Y-53901D01*
X74062Y-53931D01*
X74062Y-54168D01*
X74068Y-54196D01*
X74079Y-54224D01*
X74095Y-54248D01*
X74116Y-54269D01*
X74140Y-54286D01*
X74168Y-54297D01*
X74196Y-54303D01*
X74226Y-54303D01*
X74384Y-54303D01*
X74389Y-54302D01*
X74389Y-54325D01*
X74400Y-54383D01*
X74421Y-54437D01*
X74453Y-54487D01*
X74494Y-54529D01*
X74542Y-54563D01*
X74596Y-54586D01*
X74654Y-54599D01*
X74676Y-54599D01*
X75031Y-54954D01*
X75031Y-54958D01*
X75031Y-55116D01*
X75037Y-55145D01*
X75048Y-55172D01*
X75065Y-55196D01*
X75068Y-55199D01*
X75065Y-55202D01*
X75049Y-55226D01*
X75038Y-55253D01*
X75032Y-55282D01*
X75031Y-55312D01*
X75031Y-55470D01*
X75037Y-55499D01*
X75048Y-55526D01*
X75065Y-55550D01*
X75085Y-55571D01*
X75110Y-55588D01*
X75137Y-55599D01*
X75166Y-55605D01*
X75195Y-55605D01*
X75322Y-55605D01*
X75303Y-55623D01*
X75287Y-55648D01*
X75282Y-55660D01*
X75243Y-55634D01*
X75189Y-55612D01*
X75131Y-55600D01*
X75072Y-55599D01*
X75014Y-55610D01*
X74960Y-55632D01*
X74911Y-55665D01*
X74894Y-55681D01*
X74894Y-55681D01*
X74883Y-55654D01*
X74866Y-55629D01*
X74846Y-55608D01*
X74839Y-55604D01*
X74861Y-55599D01*
X74888Y-55588D01*
X74913Y-55572D01*
X74934Y-55551D01*
X74950Y-55527D01*
X74961Y-55500D01*
X74967Y-55471D01*
X74968Y-55441D01*
X74968Y-55283D01*
X74962Y-55254D01*
X74951Y-55227D01*
X74934Y-55203D01*
X74914Y-55182D01*
X74889Y-55165D01*
X74862Y-55154D01*
X74833Y-55148D01*
X74804Y-55148D01*
X74567Y-55148D01*
X74538Y-55154D01*
X74511Y-55165D01*
X74493Y-55177D01*
X74470Y-55177D01*
X74470Y-54925D01*
X74464Y-54896D01*
X74453Y-54869D01*
X74436Y-54844D01*
X74416Y-54823D01*
X74391Y-54807D01*
X74364Y-54796D01*
X74335Y-54790D01*
X74306Y-54789D01*
X73955Y-54789D01*
X73926Y-54795D01*
X73899Y-54806D01*
X73874Y-54823D01*
X73853Y-54843D01*
X73837Y-54868D01*
X73826Y-54895D01*
X73820Y-54924D01*
X73819Y-54953D01*
X73819Y-55504D01*
X73825Y-55533D01*
X73836Y-55560D01*
X73846Y-55574D01*
X73693Y-55574D01*
X73702Y-55561D01*
X73713Y-55534D01*
X73719Y-55505D01*
X73720Y-55476D01*
X73720Y-54925D01*
X73714Y-54896D01*
X73703Y-54869D01*
X73686Y-54844D01*
X73666Y-54823D01*
X73645Y-54809D01*
X73645Y-54497D01*
X73642Y-54474D01*
X73640Y-54451D01*
X73640Y-54450D01*
X73640Y-54448D01*
X73633Y-54426D01*
X73627Y-54404D01*
X73626Y-54403D01*
X73626Y-54399D01*
X73615Y-54342D01*
X73592Y-54287D01*
X73560Y-54238D01*
X73518Y-54196D01*
X73470Y-54163D01*
X73415Y-54141D01*
X73358Y-54129D01*
X73299Y-54128D01*
X73241Y-54139D01*
X73187Y-54161D01*
X73137Y-54194D01*
X73095Y-54235D01*
X73062Y-54283D01*
X73039Y-54337D01*
X73027Y-54395D01*
X73026Y-54454D01*
X73036Y-54512D01*
X73058Y-54566D01*
X73090Y-54616D01*
X73131Y-54658D01*
X73145Y-54668D01*
X73145Y-54809D01*
X73124Y-54823D01*
X73103Y-54843D01*
X73087Y-54868D01*
X73076Y-54895D01*
X73070Y-54924D01*
X73069Y-54953D01*
X73069Y-55504D01*
X73075Y-55533D01*
X73086Y-55560D01*
X73103Y-55585D01*
X73123Y-55606D01*
X73148Y-55622D01*
X73175Y-55633D01*
X73195Y-55638D01*
X73195Y-55695D01*
X73196Y-55713D01*
X73198Y-55731D01*
X73198Y-55732D01*
X73198Y-55733D01*
X73204Y-55751D01*
X73209Y-55769D01*
X73209Y-55770D01*
X73210Y-55771D01*
X73218Y-55787D01*
X73227Y-55803D01*
X73227Y-55804D01*
X73228Y-55805D01*
X73240Y-55820D01*
X73251Y-55834D01*
X73253Y-55835D01*
X73253Y-55835D01*
X73253Y-55835D01*
X73253Y-55836D01*
X73499Y-56082D01*
X73499Y-56289D01*
X73505Y-56318D01*
X73516Y-56345D01*
X73533Y-56370D01*
X73553Y-56391D01*
X73578Y-56407D01*
X73605Y-56418D01*
X73634Y-56424D01*
X73663Y-56425D01*
X74014Y-56425D01*
X74043Y-56419D01*
X74070Y-56408D01*
X74095Y-56391D01*
X74116Y-56371D01*
X74132Y-56346D01*
X74143Y-56319D01*
X74149Y-56290D01*
X74150Y-56261D01*
X74150Y-55710D01*
X74144Y-55681D01*
X74133Y-55654D01*
X74123Y-55640D01*
X74276Y-55640D01*
X74267Y-55653D01*
X74256Y-55680D01*
X74250Y-55709D01*
X74249Y-55738D01*
X74249Y-56289D01*
X74255Y-56318D01*
X74266Y-56345D01*
X74283Y-56370D01*
X74303Y-56391D01*
X74328Y-56407D01*
X74355Y-56418D01*
X74384Y-56424D01*
X74413Y-56425D01*
X74579Y-56425D01*
X74560Y-56432D01*
X74511Y-56465D01*
X74469Y-56506D01*
X74435Y-56554D01*
X74412Y-56608D01*
X74400Y-56666D01*
X74399Y-56725D01*
X74410Y-56783D01*
X74431Y-56837D01*
X74463Y-56887D01*
X74504Y-56929D01*
X74552Y-56963D01*
X74606Y-56986D01*
X74664Y-56999D01*
X74723Y-57000D01*
X74781Y-56990D01*
X74835Y-56969D01*
X74885Y-56937D01*
X74921Y-56903D01*
X74925Y-56923D01*
X74936Y-56950D01*
X74953Y-56975D01*
X74973Y-56996D01*
X74998Y-57012D01*
X75025Y-57023D01*
X75054Y-57029D01*
X75083Y-57030D01*
X75444Y-57030D01*
X75473Y-57024D01*
X75500Y-57013D01*
X75525Y-56996D01*
X75546Y-56976D01*
X75562Y-56951D01*
X75573Y-56924D01*
X75579Y-56895D01*
X75580Y-56866D01*
X75580Y-56505D01*
X75574Y-56476D01*
X75563Y-56449D01*
X75546Y-56424D01*
X75526Y-56403D01*
X75501Y-56387D01*
X75474Y-56376D01*
X75445Y-56370D01*
X75416Y-56369D01*
X75055Y-56369D01*
X75026Y-56375D01*
X74999Y-56386D01*
X74974Y-56403D01*
X74953Y-56423D01*
X74937Y-56448D01*
X74926Y-56475D01*
X74921Y-56497D01*
X74892Y-56467D01*
X74843Y-56434D01*
X74800Y-56416D01*
X74820Y-56408D01*
X74845Y-56391D01*
X74866Y-56371D01*
X74882Y-56346D01*
X74893Y-56319D01*
X74899Y-56290D01*
X74900Y-56261D01*
X74900Y-56124D01*
X74904Y-56129D01*
X74952Y-56163D01*
X75006Y-56186D01*
X75064Y-56199D01*
X75123Y-56200D01*
X75181Y-56190D01*
X75235Y-56169D01*
X75282Y-56139D01*
X75286Y-56150D01*
X75303Y-56175D01*
X75323Y-56196D01*
X75348Y-56212D01*
X75375Y-56223D01*
X75404Y-56229D01*
X75433Y-56230D01*
X75794Y-56230D01*
X75823Y-56224D01*
X75850Y-56213D01*
X75875Y-56196D01*
X75896Y-56176D01*
X75912Y-56151D01*
X75923Y-56124D01*
X75929Y-56095D01*
X75930Y-56066D01*
X75930Y-55916D01*
X75952Y-55965D01*
X75960Y-55978D01*
X75966Y-55990D01*
X75969Y-55994D01*
X75972Y-55998D01*
X75982Y-56010D01*
X75991Y-56020D01*
X75994Y-56023D01*
X75998Y-56028D01*
X76010Y-56037D01*
X76021Y-56046D01*
X76025Y-56048D01*
X76029Y-56051D01*
X76043Y-56058D01*
X76055Y-56064D01*
X76059Y-56066D01*
X76064Y-56068D01*
X76079Y-56072D01*
X76083Y-56073D01*
X76099Y-56087D01*
X76142Y-56110D01*
X76189Y-56125D01*
X76198Y-56126D01*
X75955Y-56369D01*
X75755Y-56369D01*
X75726Y-56375D01*
X75699Y-56386D01*
X75674Y-56403D01*
X75653Y-56423D01*
X75637Y-56448D01*
X75626Y-56475D01*
X75620Y-56504D01*
X75619Y-56533D01*
X75619Y-56894D01*
X75625Y-56923D01*
X75636Y-56950D01*
X75653Y-56975D01*
X75673Y-56996D01*
X75698Y-57012D01*
X75725Y-57023D01*
X75754Y-57029D01*
X75783Y-57030D01*
X76144Y-57030D01*
X76169Y-57025D01*
X76160Y-57048D01*
X76140Y-57141D01*
X76138Y-57236D01*
X76156Y-57329D01*
X76191Y-57417D01*
X76242Y-57497D01*
X76308Y-57566D01*
X76386Y-57620D01*
X76473Y-57658D01*
X76566Y-57678D01*
X76661Y-57680D01*
X76755Y-57664D01*
X76843Y-57630D01*
X76924Y-57579D01*
X76992Y-57513D01*
X77047Y-57435D01*
X77086Y-57349D01*
X77107Y-57256D01*
X77108Y-57147D01*
X77090Y-57054D01*
X77054Y-56966D01*
X77001Y-56887D01*
X76934Y-56820D01*
X76855Y-56766D01*
X76768Y-56730D01*
X76675Y-56711D01*
X76580Y-56710D01*
X76486Y-56728D01*
X76398Y-56763D01*
X76319Y-56815D01*
X76280Y-56853D01*
X76280Y-56752D01*
X76901Y-56131D01*
X77085Y-56131D01*
X77061Y-56146D01*
X77025Y-56182D01*
X76997Y-56223D01*
X76977Y-56270D01*
X76966Y-56319D01*
X76965Y-56370D01*
X76975Y-56420D01*
X76993Y-56467D01*
X77021Y-56510D01*
X77056Y-56546D01*
X77097Y-56575D01*
X77144Y-56595D01*
X77193Y-56606D01*
X77244Y-56607D01*
X77294Y-56598D01*
X77341Y-56580D01*
X77384Y-56553D01*
X77405Y-56557D01*
X77435Y-56558D01*
X77593Y-56557D01*
X77622Y-56552D01*
X77628Y-56549D01*
X77632Y-56551D01*
X77661Y-56557D01*
X77691Y-56558D01*
X77849Y-56557D01*
X77878Y-56552D01*
X77883Y-56549D01*
X77888Y-56551D01*
X77917Y-56557D01*
X77946Y-56558D01*
X78105Y-56557D01*
X78134Y-56552D01*
X78139Y-56549D01*
X78144Y-56551D01*
X78173Y-56557D01*
X78202Y-56558D01*
X78361Y-56557D01*
X78390Y-56552D01*
X78417Y-56541D01*
X78441Y-56524D01*
X78462Y-56503D01*
X78479Y-56479D01*
X78490Y-56452D01*
X78496Y-56423D01*
X78496Y-56394D01*
X78496Y-55861D01*
X78490Y-55832D01*
X78479Y-55805D01*
X78463Y-55781D01*
X78442Y-55760D01*
X78418Y-55743D01*
X78391Y-55732D01*
X78362Y-55726D01*
X78332Y-55726D01*
X78197Y-55726D01*
X78228Y-55696D01*
X78262Y-55648D01*
X78286Y-55595D01*
X78299Y-55537D01*
X78300Y-55470D01*
X78288Y-55412D01*
X78266Y-55358D01*
X78233Y-55309D01*
X78192Y-55267D01*
X78143Y-55234D01*
X78089Y-55212D01*
X78031Y-55200D01*
X77982Y-55199D01*
X77841Y-55058D01*
X77827Y-55046D01*
X77812Y-55034D01*
X77812Y-55034D01*
X77811Y-55033D01*
X77794Y-55025D01*
X77778Y-55016D01*
X77777Y-55015D01*
X77776Y-55015D01*
X77759Y-55009D01*
X77741Y-55004D01*
X77740Y-55004D01*
X77739Y-55003D01*
X77721Y-55002D01*
X77702Y-55000D01*
X77700Y-55000D01*
X77700Y-55000D01*
X77700Y-55000D01*
X77700Y-55000D01*
X77700Y-54910D01*
X77694Y-54881D01*
X77683Y-54854D01*
X77666Y-54829D01*
X77646Y-54808D01*
X77621Y-54792D01*
X77594Y-54781D01*
X77565Y-54775D01*
X77536Y-54774D01*
X77185Y-54774D01*
X77156Y-54780D01*
X77129Y-54791D01*
X77104Y-54808D01*
X77083Y-54828D01*
X77067Y-54853D01*
X77056Y-54880D01*
X77050Y-54909D01*
X77049Y-54938D01*
X77049Y-55489D01*
X77055Y-55518D01*
X77066Y-55545D01*
X77083Y-55570D01*
X77103Y-55591D01*
X77128Y-55607D01*
X77155Y-55618D01*
X77184Y-55624D01*
X77213Y-55625D01*
X77300Y-55625D01*
X77300Y-55691D01*
X77298Y-55690D01*
X77280Y-55685D01*
X77279Y-55685D01*
X77278Y-55684D01*
X77260Y-55683D01*
X77248Y-55681D01*
X77240Y-55674D01*
X77197Y-55651D01*
X77150Y-55636D01*
X77102Y-55631D01*
X77099Y-55631D01*
X76900Y-55631D01*
X76798Y-55631D01*
X76241Y-55631D01*
X76238Y-55631D01*
X76166Y-55476D01*
X76167Y-55471D01*
X76168Y-55441D01*
X76168Y-55283D01*
X76162Y-55254D01*
X76151Y-55227D01*
X76134Y-55203D01*
X76114Y-55182D01*
X76089Y-55165D01*
X76062Y-55154D01*
X76033Y-55148D01*
X76004Y-55148D01*
X75767Y-55148D01*
X75738Y-55154D01*
X75711Y-55165D01*
X75697Y-55174D01*
X75550Y-55172D01*
X75561Y-55146D01*
X75567Y-55117D01*
X75568Y-55087D01*
X75568Y-54929D01*
X75562Y-54900D01*
X75551Y-54873D01*
X75534Y-54849D01*
X75514Y-54828D01*
X75489Y-54811D01*
X75462Y-54800D01*
X75437Y-54795D01*
X75435Y-54792D01*
X75433Y-54790D01*
X74987Y-54344D01*
X74989Y-54337D01*
X74990Y-54270D01*
X74978Y-54212D01*
X74956Y-54158D01*
X74923Y-54109D01*
X74882Y-54067D01*
X74838Y-54038D01*
X75466Y-54038D01*
X75466Y-54571D01*
X75471Y-54600D01*
X75483Y-54627D01*
X75499Y-54652D01*
X75520Y-54673D01*
X75544Y-54689D01*
X75571Y-54701D01*
X75600Y-54706D01*
X75629Y-54707D01*
X76170Y-54707D01*
X76199Y-54701D01*
X76226Y-54690D01*
X76250Y-54673D01*
X76271Y-54653D01*
X76288Y-54628D01*
X76299Y-54601D01*
X76305Y-54572D01*
X76305Y-54543D01*
X76305Y-53743D01*
X77574Y-53743D01*
X77654Y-53823D01*
X77654Y-54625D01*
X77656Y-54644D01*
X77657Y-54662D01*
X77658Y-54663D01*
X77658Y-54664D01*
X77663Y-54682D01*
X77668Y-54700D01*
X77669Y-54701D01*
X77669Y-54702D01*
X77678Y-54718D01*
X77686Y-54734D01*
X77687Y-54735D01*
X77687Y-54736D01*
X77699Y-54750D01*
X77710Y-54765D01*
X77712Y-54766D01*
X77712Y-54766D01*
X77712Y-54766D01*
X77712Y-54767D01*
X77936Y-54991D01*
X77951Y-55003D01*
X77965Y-55015D01*
X77966Y-55015D01*
X77967Y-55016D01*
X77983Y-55024D01*
X77984Y-55025D01*
X77984Y-55061D01*
X77990Y-55090D01*
X78001Y-55117D01*
X78017Y-55142D01*
X78038Y-55162D01*
X78063Y-55179D01*
X78090Y-55190D01*
X78118Y-55196D01*
X78148Y-55196D01*
X78739Y-55196D01*
X78768Y-55191D01*
X78796Y-55179D01*
X78820Y-55163D01*
X78841Y-55142D01*
X78857Y-55118D01*
X78869Y-55091D01*
X78875Y-55062D01*
X78875Y-55033D01*
X78875Y-54638D01*
X78869Y-54609D01*
X78858Y-54582D01*
X78842Y-54557D01*
X78821Y-54537D01*
X78796Y-54520D01*
X78769Y-54509D01*
X78741Y-54503D01*
X78711Y-54503D01*
X78120Y-54503D01*
X78091Y-54508D01*
X78063Y-54520D01*
X78054Y-54526D01*
X78054Y-53740D01*
X78052Y-53721D01*
X78050Y-53703D01*
X78050Y-53702D01*
X78050Y-53701D01*
X78045Y-53683D01*
X78040Y-53665D01*
X78039Y-53664D01*
X78039Y-53663D01*
X78030Y-53647D01*
X78022Y-53631D01*
X78021Y-53630D01*
X78020Y-53629D01*
X78009Y-53615D01*
X77997Y-53600D01*
X77996Y-53599D01*
X77996Y-53599D01*
X77996Y-53599D01*
X77995Y-53598D01*
X77830Y-53433D01*
X77851Y-53437D01*
X77881Y-53437D01*
X78118Y-53437D01*
X78143Y-53432D01*
X78166Y-53437D01*
X78195Y-53437D01*
X78415Y-53437D01*
X78415Y-53502D01*
X78412Y-53508D01*
X78400Y-53566D01*
X78399Y-53625D01*
X78410Y-53683D01*
X78431Y-53737D01*
X78463Y-53787D01*
X78504Y-53829D01*
X78552Y-53863D01*
X78606Y-53886D01*
X78664Y-53899D01*
X78723Y-53900D01*
X78781Y-53890D01*
X78835Y-53869D01*
X78885Y-53837D01*
X78928Y-53796D01*
X78962Y-53748D01*
X78986Y-53695D01*
X78999Y-53637D01*
X79000Y-53570D01*
X78988Y-53512D01*
X78966Y-53458D01*
X78952Y-53437D01*
X79063Y-53437D01*
X79071Y-53436D01*
X79077Y-53447D01*
X79085Y-53462D01*
X79086Y-53463D01*
X79087Y-53464D01*
X79098Y-53478D01*
X79109Y-53491D01*
X79110Y-53493D01*
X79110Y-53493D01*
X79110Y-53493D01*
X79110Y-53493D01*
X79140Y-53523D01*
X79140Y-54730D01*
X79117Y-54745D01*
X79096Y-54766D01*
X79080Y-54790D01*
X79068Y-54818D01*
X79062Y-54846D01*
X79062Y-54876D01*
X79062Y-55034D01*
X79068Y-55063D01*
X79079Y-55090D01*
X79095Y-55114D01*
X79116Y-55135D01*
X79141Y-55152D01*
X79168Y-55163D01*
X79196Y-55169D01*
X79222Y-55169D01*
X79241Y-55179D01*
X79242Y-55180D01*
X79243Y-55180D01*
X79265Y-55187D01*
X79287Y-55194D01*
X79288Y-55194D01*
X79290Y-55195D01*
X79313Y-55197D01*
X79336Y-55199D01*
X79338Y-55199D01*
X79338Y-55199D01*
X79338Y-55199D01*
X79339Y-55200D01*
X79630Y-55200D01*
X79623Y-55207D01*
X79608Y-55225D01*
X79593Y-55242D01*
X79593Y-55243D01*
X79592Y-55244D01*
X79581Y-55265D01*
X79570Y-55285D01*
X79569Y-55286D01*
X79569Y-55287D01*
X79562Y-55310D01*
X79555Y-55332D01*
X79555Y-55333D01*
X79554Y-55334D01*
X79552Y-55357D01*
X79550Y-55380D01*
X79550Y-55383D01*
X79550Y-55383D01*
X79550Y-55383D01*
X79550Y-55384D01*
X79550Y-55834D01*
X79535Y-55854D01*
X79512Y-55908D01*
X79500Y-55966D01*
X79499Y-56025D01*
X79510Y-56083D01*
X79531Y-56137D01*
X79563Y-56187D01*
X79604Y-56229D01*
X79652Y-56263D01*
X79706Y-56286D01*
X79764Y-56299D01*
X79823Y-56300D01*
X79881Y-56290D01*
X79935Y-56269D01*
X79985Y-56237D01*
X80028Y-56196D01*
X80062Y-56148D01*
X80086Y-56095D01*
X80099Y-56037D01*
X80100Y-55970D01*
X80088Y-55912D01*
X80066Y-55858D01*
X80050Y-55834D01*
X80050Y-55487D01*
X80319Y-55218D01*
X80445Y-55218D01*
X80474Y-55212D01*
X80501Y-55201D01*
X80526Y-55184D01*
X80547Y-55164D01*
X80563Y-55139D01*
X80574Y-55112D01*
X80580Y-55083D01*
X80581Y-55054D01*
X80581Y-54817D01*
X80575Y-54788D01*
X80569Y-54775D01*
X80743Y-54775D01*
X80752Y-54788D01*
X80772Y-54809D01*
X80797Y-54825D01*
X80824Y-54836D01*
X80853Y-54842D01*
X80882Y-54843D01*
X81277Y-54843D01*
X81306Y-54837D01*
X81333Y-54826D01*
X81358Y-54809D01*
X81379Y-54789D01*
X81388Y-54775D01*
X81996Y-54775D01*
X82010Y-54784D01*
X82037Y-54795D01*
X82066Y-54801D01*
X82095Y-54801D01*
X82332Y-54801D01*
X82361Y-54795D01*
X82388Y-54784D01*
X82406Y-54773D01*
X82977Y-54773D01*
X82995Y-54771D01*
X83013Y-54769D01*
X83014Y-54769D01*
X83015Y-54769D01*
X83033Y-54763D01*
X83051Y-54758D01*
X83052Y-54758D01*
X83053Y-54757D01*
X83069Y-54749D01*
X83085Y-54740D01*
X83086Y-54740D01*
X83087Y-54739D01*
X83102Y-54727D01*
X83116Y-54716D01*
X83117Y-54714D01*
X83117Y-54714D01*
X83117Y-54714D01*
X83118Y-54714D01*
X83676Y-54156D01*
X83688Y-54142D01*
X83700Y-54127D01*
X83700Y-54127D01*
X83701Y-54126D01*
X83709Y-54109D01*
X83718Y-54093D01*
X83719Y-54092D01*
X83719Y-54091D01*
X83725Y-54074D01*
X83730Y-54056D01*
X83730Y-54055D01*
X83731Y-54054D01*
X83732Y-54036D01*
X83734Y-54017D01*
X83734Y-54015D01*
X83734Y-54015D01*
X83734Y-54015D01*
X83735Y-54015D01*
X83735Y-53954D01*
X83804Y-53954D01*
X83833Y-53948D01*
X83860Y-53937D01*
X83885Y-53920D01*
X83906Y-53900D01*
X83922Y-53875D01*
X83933Y-53848D01*
X83939Y-53819D01*
X83940Y-53790D01*
X83940Y-50642D01*
X83940Y-50031D01*
X83934Y-50002D01*
X83923Y-49975D01*
X83906Y-49950D01*
X83886Y-49929D01*
X83861Y-49913D01*
X83834Y-49902D01*
X83805Y-49896D01*
X83776Y-49895D01*
X83265Y-49895D01*
X83236Y-49901D01*
X83209Y-49912D01*
X83184Y-49929D01*
X83163Y-49949D01*
X83147Y-49974D01*
X83136Y-50001D01*
X83130Y-50030D01*
X83129Y-50059D01*
X83129Y-50670D01*
X83135Y-50699D01*
X83146Y-50726D01*
X83163Y-50751D01*
X83183Y-50772D01*
X83208Y-50788D01*
X83235Y-50799D01*
X83264Y-50805D01*
X83293Y-50806D01*
X83804Y-50806D01*
X83833Y-50800D01*
X83860Y-50789D01*
X83885Y-50772D01*
X83906Y-50752D01*
X83922Y-50727D01*
X83933Y-50700D01*
X83939Y-50671D01*
X83940Y-50642D01*
X83940Y-53790D01*
X83940Y-53179D01*
X83934Y-53150D01*
X83923Y-53123D01*
X83906Y-53098D01*
X83886Y-53077D01*
X83861Y-53061D01*
X83834Y-53050D01*
X83805Y-53044D01*
X83776Y-53043D01*
X83265Y-53043D01*
X83236Y-53049D01*
X83209Y-53060D01*
X83184Y-53077D01*
X83163Y-53097D01*
X83147Y-53122D01*
X83136Y-53149D01*
X83130Y-53178D01*
X83129Y-53207D01*
X83129Y-53818D01*
X83135Y-53847D01*
X83146Y-53874D01*
X83163Y-53899D01*
X83183Y-53920D01*
X83208Y-53936D01*
X83235Y-53947D01*
X83264Y-53953D01*
X83293Y-53954D01*
X83313Y-53954D01*
X82894Y-54373D01*
X82406Y-54373D01*
X82389Y-54361D01*
X82362Y-54350D01*
X82333Y-54344D01*
X82304Y-54344D01*
X82170Y-54344D01*
X82170Y-53790D01*
X82170Y-50642D01*
X82170Y-50031D01*
X82164Y-50002D01*
X82153Y-49975D01*
X82136Y-49950D01*
X82116Y-49929D01*
X82091Y-49913D01*
X82064Y-49902D01*
X82035Y-49896D01*
X82006Y-49895D01*
X81495Y-49895D01*
X81466Y-49901D01*
X81439Y-49912D01*
X81414Y-49929D01*
X81393Y-49949D01*
X81377Y-49974D01*
X81366Y-50001D01*
X81360Y-50030D01*
X81359Y-50059D01*
X81359Y-50670D01*
X81365Y-50699D01*
X81376Y-50726D01*
X81393Y-50751D01*
X81413Y-50772D01*
X81438Y-50788D01*
X81465Y-50799D01*
X81494Y-50805D01*
X81523Y-50806D01*
X82034Y-50806D01*
X82063Y-50800D01*
X82090Y-50789D01*
X82115Y-50772D01*
X82136Y-50752D01*
X82152Y-50727D01*
X82163Y-50700D01*
X82169Y-50671D01*
X82170Y-50642D01*
X82170Y-53790D01*
X82170Y-53179D01*
X82164Y-53150D01*
X82153Y-53123D01*
X82136Y-53098D01*
X82116Y-53077D01*
X82091Y-53061D01*
X82064Y-53050D01*
X82035Y-53044D01*
X82006Y-53043D01*
X81965Y-53043D01*
X81965Y-53008D01*
X82003Y-52971D01*
X82037Y-52923D01*
X82061Y-52870D01*
X82074Y-52812D01*
X82075Y-52745D01*
X82063Y-52687D01*
X82041Y-52633D01*
X82008Y-52584D01*
X81967Y-52542D01*
X81918Y-52509D01*
X81864Y-52487D01*
X81806Y-52475D01*
X81747Y-52474D01*
X81689Y-52485D01*
X81635Y-52507D01*
X81586Y-52540D01*
X81544Y-52581D01*
X81510Y-52629D01*
X81487Y-52683D01*
X81475Y-52741D01*
X81474Y-52800D01*
X81485Y-52858D01*
X81506Y-52912D01*
X81538Y-52962D01*
X81565Y-52989D01*
X81565Y-53043D01*
X81495Y-53043D01*
X81466Y-53049D01*
X81439Y-53060D01*
X81414Y-53077D01*
X81393Y-53097D01*
X81377Y-53122D01*
X81366Y-53149D01*
X81360Y-53178D01*
X81359Y-53207D01*
X81359Y-53818D01*
X81365Y-53847D01*
X81376Y-53874D01*
X81393Y-53899D01*
X81413Y-53920D01*
X81438Y-53936D01*
X81465Y-53947D01*
X81494Y-53953D01*
X81523Y-53954D01*
X82034Y-53954D01*
X82063Y-53948D01*
X82090Y-53937D01*
X82115Y-53920D01*
X82136Y-53900D01*
X82152Y-53875D01*
X82163Y-53848D01*
X82169Y-53819D01*
X82170Y-53790D01*
X82170Y-54344D01*
X82067Y-54344D01*
X82038Y-54350D01*
X82011Y-54361D01*
X81990Y-54375D01*
X81388Y-54375D01*
X81379Y-54361D01*
X81359Y-54340D01*
X81334Y-54324D01*
X81307Y-54313D01*
X81278Y-54307D01*
X81249Y-54306D01*
X80854Y-54306D01*
X80825Y-54312D01*
X80798Y-54323D01*
X80773Y-54340D01*
X80752Y-54360D01*
X80743Y-54375D01*
X80537Y-54375D01*
X79972Y-53810D01*
X80413Y-53810D01*
X80431Y-53808D01*
X80449Y-53806D01*
X80450Y-53806D01*
X80451Y-53806D01*
X80469Y-53800D01*
X80487Y-53795D01*
X80488Y-53795D01*
X80489Y-53794D01*
X80505Y-53786D01*
X80521Y-53777D01*
X80522Y-53777D01*
X80523Y-53776D01*
X80538Y-53764D01*
X80552Y-53753D01*
X80553Y-53751D01*
X80553Y-53751D01*
X80553Y-53751D01*
X80554Y-53751D01*
X80637Y-53668D01*
X80716Y-53668D01*
X80745Y-53662D01*
X80772Y-53651D01*
X80796Y-53634D01*
X80799Y-53631D01*
X80802Y-53634D01*
X80826Y-53650D01*
X80853Y-53661D01*
X80882Y-53667D01*
X80912Y-53668D01*
X81070Y-53668D01*
X81099Y-53662D01*
X81126Y-53651D01*
X81150Y-53634D01*
X81171Y-53614D01*
X81188Y-53589D01*
X81199Y-53562D01*
X81205Y-53533D01*
X81205Y-53504D01*
X81205Y-53267D01*
X81199Y-53238D01*
X81188Y-53211D01*
X81172Y-53186D01*
X81160Y-53174D01*
X81160Y-53076D01*
X81160Y-53076D01*
X81187Y-53065D01*
X81212Y-53048D01*
X81233Y-53028D01*
X81249Y-53003D01*
X81260Y-52976D01*
X81266Y-52947D01*
X81267Y-52918D01*
X81267Y-52603D01*
X81261Y-52574D01*
X81250Y-52547D01*
X81233Y-52522D01*
X81213Y-52501D01*
X81188Y-52485D01*
X81175Y-52480D01*
X81187Y-52475D01*
X81212Y-52458D01*
X81233Y-52438D01*
X81249Y-52413D01*
X81260Y-52386D01*
X81266Y-52357D01*
X81267Y-52328D01*
X81267Y-52013D01*
X81261Y-51984D01*
X81250Y-51957D01*
X81233Y-51932D01*
X81213Y-51911D01*
X81188Y-51895D01*
X81181Y-51892D01*
X81202Y-51878D01*
X81223Y-51858D01*
X81239Y-51833D01*
X81250Y-51806D01*
X81256Y-51777D01*
X81257Y-51748D01*
X81257Y-51433D01*
X81251Y-51404D01*
X81240Y-51377D01*
X81223Y-51352D01*
X81203Y-51331D01*
X81178Y-51315D01*
X81165Y-51310D01*
X81177Y-51305D01*
X81202Y-51288D01*
X81223Y-51268D01*
X81239Y-51243D01*
X81250Y-51216D01*
X81256Y-51187D01*
X81257Y-51158D01*
X81257Y-50843D01*
X81251Y-50814D01*
X81240Y-50787D01*
X81223Y-50762D01*
X81203Y-50741D01*
X81178Y-50725D01*
X81151Y-50714D01*
X81150Y-50713D01*
X81150Y-50691D01*
X81163Y-50682D01*
X81184Y-50661D01*
X81200Y-50637D01*
X81211Y-50610D01*
X81217Y-50581D01*
X81218Y-50551D01*
X81218Y-50393D01*
X81212Y-50364D01*
X81201Y-50337D01*
X81184Y-50313D01*
X81181Y-50310D01*
X81184Y-50307D01*
X81200Y-50283D01*
X81211Y-50256D01*
X81217Y-50227D01*
X81218Y-50197D01*
X81218Y-50039D01*
X81212Y-50010D01*
X81201Y-49983D01*
X81184Y-49959D01*
X81164Y-49938D01*
X81139Y-49921D01*
X81112Y-49910D01*
X81083Y-49904D01*
X81054Y-49904D01*
X81007Y-49904D01*
X80823Y-49721D01*
X80809Y-49709D01*
X80795Y-49697D01*
X80794Y-49697D01*
X80793Y-49696D01*
X80777Y-49687D01*
X80761Y-49678D01*
X80760Y-49678D01*
X80759Y-49677D01*
X80741Y-49672D01*
X80724Y-49666D01*
X80723Y-49666D01*
X80722Y-49666D01*
X80703Y-49664D01*
X80685Y-49662D01*
X80683Y-49662D01*
X80683Y-49662D01*
X80683Y-49662D01*
X80682Y-49662D01*
X80615Y-49662D01*
X80615Y-49652D01*
X80615Y-49414D01*
X80610Y-49389D01*
X80615Y-49366D01*
X80615Y-49337D01*
X80615Y-49099D01*
X80610Y-49074D01*
X80615Y-49051D01*
X80615Y-49022D01*
X80615Y-48784D01*
X80610Y-48760D01*
X80615Y-48736D01*
X80615Y-48707D01*
X80615Y-48469D01*
X80610Y-48445D01*
X80615Y-48421D01*
X80615Y-48392D01*
X80615Y-48154D01*
X80610Y-48130D01*
X80615Y-48106D01*
X80615Y-48077D01*
X80615Y-47839D01*
X80610Y-47815D01*
X80615Y-47791D01*
X80615Y-47762D01*
X80615Y-47525D01*
X80610Y-47496D01*
X80598Y-47468D01*
X80582Y-47444D01*
X80561Y-47423D01*
X80537Y-47407D01*
X80510Y-47395D01*
X80481Y-47389D01*
X80452Y-47389D01*
X80057Y-47389D01*
X80028Y-47395D01*
X80001Y-47406D01*
X79976Y-47422D01*
X79955Y-47443D01*
X79955Y-47444D01*
X79916Y-47405D01*
X79867Y-47372D01*
X79839Y-47360D01*
X82300Y-47366D01*
X82364Y-47416D01*
X83172Y-48351D01*
X83782Y-49425D01*
X84172Y-50597D01*
X84327Y-51830D01*
X84330Y-51992D01*
M02*
