G04 (created by PCBNEW (2013-07-07 BZR 4022)-stable) date 5/30/2015 6:27:29 PM*
%MOIN*%
G04 Gerber Fmt 3.4, Leading zero omitted, Abs format*
%FSLAX34Y34*%
G01*
G70*
G90*
G04 APERTURE LIST*
%ADD10C,0.00590551*%
%ADD11C,0.00393701*%
%ADD12R,0.0433071X0.0472441*%
%ADD13C,0.0669291*%
%ADD14C,0.0216535*%
%ADD15C,0.03*%
%ADD16C,0.01*%
%ADD17C,0.032*%
G04 APERTURE END LIST*
G54D10*
G54D11*
X84500Y-52000D02*
G75*
G03X84500Y-52000I-6500J0D01*
G74*
G01*
G54D12*
X80425Y-57300D03*
X81225Y-56875D03*
G54D13*
X76624Y-57195D03*
X79399Y-57195D03*
G54D14*
X77224Y-56348D03*
X78799Y-56348D03*
G54D15*
X75000Y-48917D03*
X76377Y-48917D03*
X78700Y-53600D03*
X78000Y-55500D03*
X76710Y-50380D03*
X74690Y-54300D03*
X74700Y-56700D03*
X78500Y-52500D03*
X82825Y-54925D03*
X83125Y-52300D03*
X82450Y-51550D03*
X83125Y-51575D03*
X81225Y-56150D03*
X76890Y-48540D03*
X76905Y-47925D03*
X77445Y-48570D03*
X72933Y-51574D03*
X74409Y-51181D03*
X73917Y-50492D03*
X79724Y-47637D03*
X79800Y-56000D03*
X73326Y-54429D03*
X75100Y-55900D03*
X78900Y-52200D03*
X77975Y-51000D03*
X81775Y-52775D03*
G54D16*
X76377Y-48917D02*
X75000Y-48917D01*
X78600Y-53700D02*
X78700Y-53600D01*
X78600Y-55300D02*
X78600Y-53700D01*
X78400Y-55500D02*
X78600Y-55300D01*
X78000Y-55500D02*
X78400Y-55500D01*
X76710Y-51240D02*
X76710Y-50380D01*
X74680Y-53270D02*
X76710Y-51240D01*
X74680Y-54290D02*
X74680Y-53270D01*
X74690Y-54300D02*
X74680Y-54290D01*
X74700Y-56700D02*
X75100Y-56400D01*
X75100Y-56400D02*
X75400Y-56400D01*
X75400Y-56400D02*
X78500Y-53300D01*
X78500Y-53300D02*
X78500Y-52500D01*
X82825Y-54925D02*
X83125Y-54625D01*
X83125Y-54625D02*
X83125Y-52300D01*
X83100Y-51550D02*
X82450Y-51550D01*
X83125Y-51575D02*
X83100Y-51550D01*
G54D17*
X81225Y-56875D02*
X81225Y-56150D01*
G54D16*
X73326Y-51181D02*
X72933Y-51574D01*
X74409Y-51181D02*
X73326Y-51181D01*
X74311Y-50492D02*
X73917Y-50492D01*
X75492Y-49311D02*
X74311Y-50492D01*
X78051Y-49311D02*
X75492Y-49311D01*
X79724Y-47637D02*
X78051Y-49311D01*
G54D17*
X80425Y-56000D02*
X79800Y-56000D01*
X80425Y-56000D02*
X80425Y-52669D01*
X74015Y-55118D02*
X73326Y-54429D01*
X74704Y-55118D02*
X74015Y-55118D01*
X78248Y-51574D02*
X74704Y-55118D01*
X79330Y-51574D02*
X78248Y-51574D01*
X80425Y-52669D02*
X79330Y-51574D01*
X80425Y-56000D02*
X80425Y-57300D01*
X80440Y-57285D02*
X80425Y-57300D01*
G54D16*
X78900Y-52100D02*
X78900Y-52200D01*
X78400Y-52100D02*
X78900Y-52100D01*
X75100Y-55400D02*
X78400Y-52100D01*
X75100Y-55400D02*
X75100Y-55900D01*
X80000Y-51000D02*
X77975Y-51000D01*
X81775Y-52775D02*
X80000Y-51000D01*
G54D10*
G36*
X84330Y-51992D02*
X84208Y-53229D01*
X83851Y-54411D01*
X83271Y-55502D01*
X82491Y-56459D01*
X82075Y-56804D01*
X82075Y-52745D01*
X82063Y-52687D01*
X82041Y-52633D01*
X82008Y-52584D01*
X81967Y-52542D01*
X81918Y-52509D01*
X81864Y-52487D01*
X81806Y-52475D01*
X81757Y-52474D01*
X80141Y-50858D01*
X80127Y-50846D01*
X80112Y-50834D01*
X80112Y-50834D01*
X80111Y-50833D01*
X80094Y-50825D01*
X80078Y-50816D01*
X80077Y-50815D01*
X80076Y-50815D01*
X80059Y-50809D01*
X80041Y-50804D01*
X80040Y-50804D01*
X80039Y-50803D01*
X80021Y-50802D01*
X80002Y-50800D01*
X80000Y-50800D01*
X80000Y-50800D01*
X80000Y-50800D01*
X80000Y-50800D01*
X78199Y-50800D01*
X78167Y-50767D01*
X78118Y-50734D01*
X78064Y-50712D01*
X78006Y-50700D01*
X77947Y-50699D01*
X77889Y-50710D01*
X77835Y-50732D01*
X77786Y-50765D01*
X77744Y-50806D01*
X77710Y-50854D01*
X77687Y-50908D01*
X77675Y-50966D01*
X77674Y-51025D01*
X77685Y-51083D01*
X77706Y-51137D01*
X77738Y-51187D01*
X77779Y-51229D01*
X77827Y-51263D01*
X77881Y-51286D01*
X77939Y-51299D01*
X77998Y-51300D01*
X78056Y-51290D01*
X78110Y-51269D01*
X78160Y-51237D01*
X78200Y-51200D01*
X79917Y-51200D01*
X81475Y-52758D01*
X81474Y-52800D01*
X81485Y-52858D01*
X81506Y-52912D01*
X81538Y-52962D01*
X81579Y-53004D01*
X81627Y-53038D01*
X81681Y-53061D01*
X81739Y-53074D01*
X81798Y-53075D01*
X81856Y-53065D01*
X81910Y-53044D01*
X81960Y-53012D01*
X82003Y-52971D01*
X82037Y-52923D01*
X82061Y-52870D01*
X82074Y-52812D01*
X82075Y-52745D01*
X82075Y-56804D01*
X81539Y-57247D01*
X80791Y-57651D01*
X80791Y-57522D01*
X80791Y-57049D01*
X80785Y-57020D01*
X80774Y-56993D01*
X80758Y-56968D01*
X80737Y-56947D01*
X80735Y-56945D01*
X80735Y-56000D01*
X80735Y-52669D01*
X80732Y-52640D01*
X80729Y-52612D01*
X80729Y-52610D01*
X80729Y-52608D01*
X80720Y-52581D01*
X80712Y-52553D01*
X80712Y-52552D01*
X80711Y-52550D01*
X80698Y-52525D01*
X80684Y-52500D01*
X80683Y-52498D01*
X80683Y-52497D01*
X80665Y-52475D01*
X80647Y-52452D01*
X80645Y-52450D01*
X80644Y-52450D01*
X80644Y-52450D01*
X80644Y-52449D01*
X79549Y-51355D01*
X79527Y-51337D01*
X79505Y-51319D01*
X79504Y-51318D01*
X79503Y-51317D01*
X79477Y-51303D01*
X79452Y-51289D01*
X79451Y-51289D01*
X79449Y-51288D01*
X79422Y-51280D01*
X79395Y-51271D01*
X79393Y-51271D01*
X79391Y-51270D01*
X79363Y-51268D01*
X79335Y-51264D01*
X79331Y-51264D01*
X79331Y-51264D01*
X79331Y-51264D01*
X79330Y-51264D01*
X78248Y-51264D01*
X78219Y-51267D01*
X78191Y-51270D01*
X78189Y-51270D01*
X78187Y-51270D01*
X78160Y-51278D01*
X78132Y-51286D01*
X78131Y-51287D01*
X78129Y-51288D01*
X78104Y-51301D01*
X78079Y-51314D01*
X78077Y-51315D01*
X78076Y-51316D01*
X78054Y-51334D01*
X78031Y-51352D01*
X78029Y-51354D01*
X78029Y-51354D01*
X78029Y-51354D01*
X78028Y-51355D01*
X74965Y-54419D01*
X74976Y-54395D01*
X74989Y-54337D01*
X74990Y-54270D01*
X74978Y-54212D01*
X74956Y-54158D01*
X74923Y-54109D01*
X74882Y-54067D01*
X74880Y-54066D01*
X74880Y-53352D01*
X76851Y-51381D01*
X76863Y-51367D01*
X76875Y-51352D01*
X76875Y-51352D01*
X76876Y-51351D01*
X76884Y-51335D01*
X76893Y-51318D01*
X76894Y-51317D01*
X76894Y-51316D01*
X76900Y-51299D01*
X76905Y-51281D01*
X76905Y-51280D01*
X76906Y-51279D01*
X76907Y-51261D01*
X76909Y-51242D01*
X76909Y-51240D01*
X76909Y-51240D01*
X76909Y-51240D01*
X76910Y-51240D01*
X76910Y-50603D01*
X76938Y-50576D01*
X76972Y-50528D01*
X76996Y-50475D01*
X77009Y-50417D01*
X77010Y-50350D01*
X76998Y-50292D01*
X76976Y-50238D01*
X76943Y-50189D01*
X76902Y-50147D01*
X76853Y-50114D01*
X76799Y-50092D01*
X76741Y-50080D01*
X76682Y-50079D01*
X76624Y-50090D01*
X76570Y-50112D01*
X76521Y-50145D01*
X76479Y-50186D01*
X76445Y-50234D01*
X76422Y-50288D01*
X76410Y-50346D01*
X76409Y-50405D01*
X76420Y-50463D01*
X76441Y-50517D01*
X76473Y-50567D01*
X76510Y-50604D01*
X76510Y-51157D01*
X74709Y-52957D01*
X74709Y-51151D01*
X74698Y-51093D01*
X74675Y-51039D01*
X74643Y-50990D01*
X74601Y-50948D01*
X74552Y-50915D01*
X74498Y-50893D01*
X74440Y-50881D01*
X74382Y-50880D01*
X74324Y-50891D01*
X74269Y-50913D01*
X74220Y-50946D01*
X74184Y-50981D01*
X73326Y-50981D01*
X73308Y-50982D01*
X73289Y-50984D01*
X73288Y-50984D01*
X73287Y-50984D01*
X73270Y-50990D01*
X73252Y-50995D01*
X73251Y-50995D01*
X73250Y-50996D01*
X73234Y-51004D01*
X73217Y-51013D01*
X73217Y-51014D01*
X73216Y-51014D01*
X73201Y-51026D01*
X73187Y-51037D01*
X73185Y-51039D01*
X73185Y-51039D01*
X73185Y-51039D01*
X73185Y-51039D01*
X72950Y-51274D01*
X72905Y-51274D01*
X72847Y-51285D01*
X72793Y-51307D01*
X72744Y-51339D01*
X72702Y-51381D01*
X72668Y-51429D01*
X72645Y-51483D01*
X72633Y-51541D01*
X72632Y-51600D01*
X72643Y-51657D01*
X72664Y-51712D01*
X72696Y-51762D01*
X72737Y-51804D01*
X72786Y-51837D01*
X72839Y-51861D01*
X72897Y-51874D01*
X72956Y-51875D01*
X73014Y-51865D01*
X73068Y-51843D01*
X73118Y-51812D01*
X73161Y-51771D01*
X73195Y-51723D01*
X73219Y-51669D01*
X73232Y-51612D01*
X73232Y-51557D01*
X73409Y-51381D01*
X74185Y-51381D01*
X74214Y-51410D01*
X74262Y-51444D01*
X74316Y-51467D01*
X74373Y-51480D01*
X74432Y-51481D01*
X74490Y-51471D01*
X74545Y-51450D01*
X74595Y-51418D01*
X74637Y-51378D01*
X74671Y-51330D01*
X74695Y-51276D01*
X74708Y-51218D01*
X74709Y-51151D01*
X74709Y-52957D01*
X74538Y-53128D01*
X74526Y-53142D01*
X74514Y-53157D01*
X74514Y-53157D01*
X74513Y-53158D01*
X74505Y-53175D01*
X74496Y-53191D01*
X74495Y-53192D01*
X74495Y-53193D01*
X74489Y-53210D01*
X74484Y-53228D01*
X74484Y-53229D01*
X74483Y-53230D01*
X74482Y-53248D01*
X74480Y-53267D01*
X74480Y-53269D01*
X74480Y-53269D01*
X74480Y-53269D01*
X74480Y-53270D01*
X74480Y-54085D01*
X74459Y-54106D01*
X74425Y-54154D01*
X74402Y-54208D01*
X74390Y-54266D01*
X74389Y-54325D01*
X74400Y-54383D01*
X74421Y-54437D01*
X74453Y-54487D01*
X74494Y-54529D01*
X74542Y-54563D01*
X74596Y-54586D01*
X74654Y-54599D01*
X74713Y-54600D01*
X74771Y-54590D01*
X74808Y-54575D01*
X74576Y-54808D01*
X74144Y-54808D01*
X73545Y-54209D01*
X73499Y-54171D01*
X73445Y-54142D01*
X73388Y-54125D01*
X73327Y-54119D01*
X73267Y-54124D01*
X73209Y-54142D01*
X73156Y-54170D01*
X73109Y-54208D01*
X73070Y-54254D01*
X73041Y-54308D01*
X73023Y-54365D01*
X73016Y-54425D01*
X73022Y-54486D01*
X73038Y-54544D01*
X73066Y-54597D01*
X73104Y-54645D01*
X73107Y-54648D01*
X73796Y-55337D01*
X73818Y-55355D01*
X73840Y-55373D01*
X73842Y-55374D01*
X73843Y-55375D01*
X73868Y-55389D01*
X73893Y-55403D01*
X73895Y-55403D01*
X73896Y-55404D01*
X73924Y-55412D01*
X73951Y-55421D01*
X73952Y-55421D01*
X73954Y-55421D01*
X73982Y-55424D01*
X74011Y-55428D01*
X74014Y-55428D01*
X74014Y-55428D01*
X74014Y-55428D01*
X74015Y-55428D01*
X74704Y-55428D01*
X74733Y-55425D01*
X74761Y-55422D01*
X74763Y-55422D01*
X74764Y-55422D01*
X74792Y-55413D01*
X74819Y-55405D01*
X74821Y-55405D01*
X74822Y-55404D01*
X74848Y-55391D01*
X74873Y-55378D01*
X74874Y-55377D01*
X74876Y-55376D01*
X74898Y-55358D01*
X74906Y-55351D01*
X74904Y-55358D01*
X74904Y-55359D01*
X74903Y-55360D01*
X74902Y-55378D01*
X74900Y-55397D01*
X74900Y-55399D01*
X74900Y-55399D01*
X74900Y-55399D01*
X74900Y-55400D01*
X74900Y-55675D01*
X74869Y-55706D01*
X74835Y-55754D01*
X74812Y-55808D01*
X74800Y-55866D01*
X74799Y-55925D01*
X74810Y-55983D01*
X74831Y-56037D01*
X74863Y-56087D01*
X74904Y-56129D01*
X74952Y-56163D01*
X75006Y-56186D01*
X75064Y-56199D01*
X75099Y-56200D01*
X75096Y-56200D01*
X75091Y-56199D01*
X75070Y-56202D01*
X75061Y-56203D01*
X75058Y-56204D01*
X75052Y-56205D01*
X75032Y-56212D01*
X75023Y-56215D01*
X75021Y-56216D01*
X75015Y-56218D01*
X74997Y-56229D01*
X74989Y-56233D01*
X74987Y-56235D01*
X74982Y-56238D01*
X74979Y-56239D01*
X74758Y-56405D01*
X74731Y-56400D01*
X74672Y-56399D01*
X74614Y-56410D01*
X74560Y-56432D01*
X74511Y-56465D01*
X74469Y-56506D01*
X74435Y-56554D01*
X74412Y-56608D01*
X74400Y-56666D01*
X74399Y-56725D01*
X74410Y-56783D01*
X74431Y-56837D01*
X74463Y-56887D01*
X74504Y-56929D01*
X74552Y-56963D01*
X74606Y-56986D01*
X74664Y-56999D01*
X74723Y-57000D01*
X74781Y-56990D01*
X74835Y-56969D01*
X74885Y-56937D01*
X74928Y-56896D01*
X74962Y-56848D01*
X74986Y-56795D01*
X74999Y-56737D01*
X74999Y-56725D01*
X75166Y-56600D01*
X75400Y-56600D01*
X75418Y-56598D01*
X75436Y-56596D01*
X75437Y-56596D01*
X75438Y-56596D01*
X75456Y-56590D01*
X75474Y-56585D01*
X75475Y-56585D01*
X75476Y-56584D01*
X75492Y-56576D01*
X75508Y-56567D01*
X75509Y-56567D01*
X75510Y-56566D01*
X75525Y-56554D01*
X75539Y-56543D01*
X75540Y-56541D01*
X75540Y-56541D01*
X75540Y-56541D01*
X75541Y-56541D01*
X78401Y-53681D01*
X78400Y-53697D01*
X78400Y-53699D01*
X78400Y-53699D01*
X78400Y-53699D01*
X78400Y-53700D01*
X78400Y-55217D01*
X78317Y-55300D01*
X78224Y-55300D01*
X78192Y-55267D01*
X78143Y-55234D01*
X78089Y-55212D01*
X78031Y-55200D01*
X77972Y-55199D01*
X77914Y-55210D01*
X77860Y-55232D01*
X77811Y-55265D01*
X77769Y-55306D01*
X77735Y-55354D01*
X77712Y-55408D01*
X77700Y-55466D01*
X77699Y-55525D01*
X77710Y-55583D01*
X77731Y-55637D01*
X77763Y-55687D01*
X77804Y-55729D01*
X77852Y-55763D01*
X77906Y-55786D01*
X77964Y-55799D01*
X78023Y-55800D01*
X78081Y-55790D01*
X78135Y-55769D01*
X78185Y-55737D01*
X78225Y-55700D01*
X78400Y-55700D01*
X78418Y-55698D01*
X78436Y-55696D01*
X78437Y-55696D01*
X78438Y-55696D01*
X78456Y-55690D01*
X78474Y-55685D01*
X78475Y-55685D01*
X78476Y-55684D01*
X78492Y-55676D01*
X78508Y-55667D01*
X78509Y-55667D01*
X78510Y-55666D01*
X78525Y-55654D01*
X78539Y-55643D01*
X78540Y-55641D01*
X78540Y-55641D01*
X78540Y-55641D01*
X78541Y-55641D01*
X78741Y-55441D01*
X78753Y-55427D01*
X78765Y-55412D01*
X78765Y-55412D01*
X78766Y-55411D01*
X78774Y-55394D01*
X78783Y-55378D01*
X78784Y-55377D01*
X78784Y-55376D01*
X78790Y-55359D01*
X78795Y-55341D01*
X78795Y-55340D01*
X78796Y-55339D01*
X78797Y-55321D01*
X78799Y-55302D01*
X78799Y-55300D01*
X78799Y-55300D01*
X78799Y-55300D01*
X78800Y-55300D01*
X78800Y-53883D01*
X78835Y-53869D01*
X78885Y-53837D01*
X78928Y-53796D01*
X78962Y-53748D01*
X78986Y-53695D01*
X78999Y-53637D01*
X79000Y-53570D01*
X78988Y-53512D01*
X78966Y-53458D01*
X78933Y-53409D01*
X78892Y-53367D01*
X78843Y-53334D01*
X78789Y-53312D01*
X78731Y-53300D01*
X78700Y-53299D01*
X78700Y-52723D01*
X78728Y-52696D01*
X78762Y-52648D01*
X78786Y-52595D01*
X78799Y-52537D01*
X78799Y-52483D01*
X78806Y-52486D01*
X78864Y-52499D01*
X78923Y-52500D01*
X78981Y-52490D01*
X79035Y-52469D01*
X79085Y-52437D01*
X79128Y-52396D01*
X79162Y-52348D01*
X79186Y-52295D01*
X79199Y-52237D01*
X79200Y-52170D01*
X79188Y-52112D01*
X79166Y-52058D01*
X79133Y-52009D01*
X79092Y-51967D01*
X79043Y-51934D01*
X78989Y-51912D01*
X78931Y-51900D01*
X78872Y-51899D01*
X78871Y-51900D01*
X78400Y-51900D01*
X78381Y-51901D01*
X78363Y-51903D01*
X78362Y-51903D01*
X78361Y-51903D01*
X78355Y-51905D01*
X78376Y-51884D01*
X79202Y-51884D01*
X80115Y-52797D01*
X80115Y-55690D01*
X79800Y-55690D01*
X79739Y-55695D01*
X79681Y-55713D01*
X79628Y-55741D01*
X79581Y-55780D01*
X79542Y-55826D01*
X79514Y-55879D01*
X79496Y-55937D01*
X79490Y-55997D01*
X79495Y-56058D01*
X79512Y-56116D01*
X79540Y-56169D01*
X79578Y-56216D01*
X79624Y-56255D01*
X79677Y-56284D01*
X79735Y-56303D01*
X79795Y-56309D01*
X79800Y-56310D01*
X80115Y-56310D01*
X80115Y-56945D01*
X80113Y-56946D01*
X80092Y-56967D01*
X80075Y-56992D01*
X80064Y-57019D01*
X80058Y-57048D01*
X80058Y-57077D01*
X80058Y-57550D01*
X80064Y-57579D01*
X80075Y-57606D01*
X80091Y-57631D01*
X80112Y-57652D01*
X80136Y-57668D01*
X80163Y-57680D01*
X80192Y-57686D01*
X80222Y-57686D01*
X80656Y-57686D01*
X80685Y-57680D01*
X80712Y-57669D01*
X80736Y-57653D01*
X80757Y-57632D01*
X80774Y-57607D01*
X80785Y-57580D01*
X80791Y-57551D01*
X80791Y-57522D01*
X80791Y-57651D01*
X80452Y-57834D01*
X79884Y-58010D01*
X79884Y-57147D01*
X79866Y-57054D01*
X79829Y-56966D01*
X79777Y-56887D01*
X79710Y-56820D01*
X79631Y-56766D01*
X79543Y-56730D01*
X79450Y-56711D01*
X79355Y-56710D01*
X79262Y-56728D01*
X79174Y-56763D01*
X79094Y-56815D01*
X79057Y-56852D01*
X79057Y-56323D01*
X79047Y-56273D01*
X79028Y-56227D01*
X79000Y-56184D01*
X78964Y-56148D01*
X78922Y-56120D01*
X78875Y-56100D01*
X78826Y-56090D01*
X78775Y-56090D01*
X78725Y-56099D01*
X78678Y-56118D01*
X78636Y-56146D01*
X78600Y-56182D01*
X78571Y-56223D01*
X78551Y-56270D01*
X78541Y-56319D01*
X78540Y-56370D01*
X78549Y-56420D01*
X78568Y-56467D01*
X78595Y-56510D01*
X78630Y-56546D01*
X78672Y-56575D01*
X78718Y-56595D01*
X78768Y-56606D01*
X78818Y-56607D01*
X78868Y-56598D01*
X78916Y-56580D01*
X78958Y-56553D01*
X78995Y-56518D01*
X79024Y-56477D01*
X79045Y-56430D01*
X79056Y-56381D01*
X79057Y-56323D01*
X79057Y-56852D01*
X79026Y-56882D01*
X78973Y-56960D01*
X78935Y-57048D01*
X78915Y-57141D01*
X78914Y-57236D01*
X78931Y-57329D01*
X78966Y-57417D01*
X79018Y-57497D01*
X79084Y-57566D01*
X79162Y-57620D01*
X79249Y-57658D01*
X79342Y-57678D01*
X79437Y-57680D01*
X79530Y-57664D01*
X79619Y-57630D01*
X79699Y-57579D01*
X79768Y-57513D01*
X79823Y-57435D01*
X79861Y-57349D01*
X79882Y-57256D01*
X79884Y-57147D01*
X79884Y-58010D01*
X79272Y-58200D01*
X78044Y-58329D01*
X77482Y-58278D01*
X77482Y-56323D01*
X77473Y-56273D01*
X77453Y-56227D01*
X77425Y-56184D01*
X77390Y-56148D01*
X77348Y-56120D01*
X77301Y-56100D01*
X77251Y-56090D01*
X77201Y-56090D01*
X77151Y-56099D01*
X77104Y-56118D01*
X77061Y-56146D01*
X77025Y-56182D01*
X76997Y-56223D01*
X76977Y-56270D01*
X76966Y-56319D01*
X76965Y-56370D01*
X76975Y-56420D01*
X76993Y-56467D01*
X77021Y-56510D01*
X77056Y-56546D01*
X77097Y-56575D01*
X77144Y-56595D01*
X77193Y-56606D01*
X77244Y-56607D01*
X77294Y-56598D01*
X77341Y-56580D01*
X77384Y-56553D01*
X77421Y-56518D01*
X77450Y-56477D01*
X77470Y-56430D01*
X77482Y-56381D01*
X77482Y-56323D01*
X77482Y-58278D01*
X77108Y-58244D01*
X77108Y-57147D01*
X77090Y-57054D01*
X77054Y-56966D01*
X77001Y-56887D01*
X76934Y-56820D01*
X76855Y-56766D01*
X76768Y-56730D01*
X76675Y-56711D01*
X76580Y-56710D01*
X76486Y-56728D01*
X76398Y-56763D01*
X76319Y-56815D01*
X76251Y-56882D01*
X76197Y-56960D01*
X76160Y-57048D01*
X76140Y-57141D01*
X76138Y-57236D01*
X76156Y-57329D01*
X76191Y-57417D01*
X76242Y-57497D01*
X76308Y-57566D01*
X76386Y-57620D01*
X76473Y-57658D01*
X76566Y-57678D01*
X76661Y-57680D01*
X76755Y-57664D01*
X76843Y-57630D01*
X76924Y-57579D01*
X76992Y-57513D01*
X77047Y-57435D01*
X77086Y-57349D01*
X77107Y-57256D01*
X77108Y-57147D01*
X77108Y-58244D01*
X76813Y-58217D01*
X75628Y-57868D01*
X74534Y-57296D01*
X73571Y-56522D01*
X72777Y-55575D01*
X72182Y-54493D01*
X71808Y-53315D01*
X71671Y-52088D01*
X71774Y-50857D01*
X72114Y-49669D01*
X72679Y-48571D01*
X73446Y-47603D01*
X74387Y-46802D01*
X75465Y-46199D01*
X76640Y-45818D01*
X77120Y-45761D01*
X77120Y-47359D01*
X79602Y-47363D01*
X79584Y-47370D01*
X79535Y-47402D01*
X79493Y-47444D01*
X79460Y-47492D01*
X79437Y-47546D01*
X79424Y-47604D01*
X79424Y-47655D01*
X77968Y-49111D01*
X76608Y-49111D01*
X76640Y-49066D01*
X76663Y-49012D01*
X76677Y-48955D01*
X76677Y-48887D01*
X76666Y-48830D01*
X76644Y-48775D01*
X76611Y-48726D01*
X76570Y-48685D01*
X76521Y-48652D01*
X76467Y-48629D01*
X76409Y-48617D01*
X76350Y-48617D01*
X76292Y-48628D01*
X76238Y-48650D01*
X76189Y-48682D01*
X76153Y-48717D01*
X75224Y-48717D01*
X75192Y-48685D01*
X75143Y-48652D01*
X75089Y-48629D01*
X75031Y-48617D01*
X74972Y-48617D01*
X74914Y-48628D01*
X74860Y-48650D01*
X74811Y-48682D01*
X74769Y-48723D01*
X74735Y-48772D01*
X74712Y-48826D01*
X74700Y-48883D01*
X74699Y-48942D01*
X74710Y-49000D01*
X74731Y-49055D01*
X74763Y-49104D01*
X74804Y-49146D01*
X74852Y-49180D01*
X74906Y-49204D01*
X74964Y-49216D01*
X75023Y-49217D01*
X75081Y-49207D01*
X75135Y-49186D01*
X75185Y-49154D01*
X75225Y-49117D01*
X75445Y-49117D01*
X75435Y-49120D01*
X75417Y-49125D01*
X75416Y-49125D01*
X75415Y-49126D01*
X75399Y-49134D01*
X75383Y-49143D01*
X75382Y-49143D01*
X75381Y-49144D01*
X75367Y-49156D01*
X75352Y-49167D01*
X75351Y-49169D01*
X75351Y-49169D01*
X75351Y-49169D01*
X75350Y-49169D01*
X74228Y-50292D01*
X74141Y-50292D01*
X74109Y-50259D01*
X74060Y-50226D01*
X74006Y-50204D01*
X73948Y-50192D01*
X73890Y-50191D01*
X73832Y-50202D01*
X73777Y-50224D01*
X73728Y-50257D01*
X73686Y-50298D01*
X73653Y-50346D01*
X73629Y-50400D01*
X73617Y-50458D01*
X73616Y-50517D01*
X73627Y-50575D01*
X73649Y-50629D01*
X73681Y-50679D01*
X73721Y-50721D01*
X73770Y-50755D01*
X73824Y-50778D01*
X73881Y-50791D01*
X73940Y-50792D01*
X73998Y-50782D01*
X74053Y-50761D01*
X74102Y-50729D01*
X74142Y-50692D01*
X74311Y-50692D01*
X74329Y-50690D01*
X74347Y-50688D01*
X74348Y-50688D01*
X74349Y-50688D01*
X74367Y-50682D01*
X74385Y-50677D01*
X74386Y-50677D01*
X74387Y-50677D01*
X74403Y-50668D01*
X74419Y-50659D01*
X74420Y-50659D01*
X74421Y-50658D01*
X74436Y-50647D01*
X74450Y-50635D01*
X74451Y-50634D01*
X74451Y-50634D01*
X74451Y-50634D01*
X74452Y-50633D01*
X75574Y-49511D01*
X78051Y-49511D01*
X78069Y-49509D01*
X78087Y-49507D01*
X78088Y-49507D01*
X78090Y-49507D01*
X78107Y-49501D01*
X78125Y-49496D01*
X78126Y-49496D01*
X78127Y-49495D01*
X78143Y-49487D01*
X78160Y-49478D01*
X78160Y-49478D01*
X78161Y-49477D01*
X78176Y-49465D01*
X78190Y-49454D01*
X78192Y-49452D01*
X78192Y-49452D01*
X78192Y-49452D01*
X78192Y-49452D01*
X79707Y-47937D01*
X79747Y-47938D01*
X79805Y-47928D01*
X79860Y-47906D01*
X79910Y-47875D01*
X79952Y-47834D01*
X79986Y-47786D01*
X80010Y-47732D01*
X80023Y-47675D01*
X80024Y-47608D01*
X80012Y-47550D01*
X79990Y-47496D01*
X79958Y-47447D01*
X79916Y-47405D01*
X79867Y-47372D01*
X79847Y-47363D01*
X82302Y-47367D01*
X82364Y-47416D01*
X83172Y-48351D01*
X83782Y-49425D01*
X84172Y-50597D01*
X84327Y-51830D01*
X84330Y-51992D01*
X84330Y-51992D01*
G37*
G54D16*
X84330Y-51992D02*
X84208Y-53229D01*
X83851Y-54411D01*
X83271Y-55502D01*
X82491Y-56459D01*
X82075Y-56804D01*
X82075Y-52745D01*
X82063Y-52687D01*
X82041Y-52633D01*
X82008Y-52584D01*
X81967Y-52542D01*
X81918Y-52509D01*
X81864Y-52487D01*
X81806Y-52475D01*
X81757Y-52474D01*
X80141Y-50858D01*
X80127Y-50846D01*
X80112Y-50834D01*
X80112Y-50834D01*
X80111Y-50833D01*
X80094Y-50825D01*
X80078Y-50816D01*
X80077Y-50815D01*
X80076Y-50815D01*
X80059Y-50809D01*
X80041Y-50804D01*
X80040Y-50804D01*
X80039Y-50803D01*
X80021Y-50802D01*
X80002Y-50800D01*
X80000Y-50800D01*
X80000Y-50800D01*
X80000Y-50800D01*
X80000Y-50800D01*
X78199Y-50800D01*
X78167Y-50767D01*
X78118Y-50734D01*
X78064Y-50712D01*
X78006Y-50700D01*
X77947Y-50699D01*
X77889Y-50710D01*
X77835Y-50732D01*
X77786Y-50765D01*
X77744Y-50806D01*
X77710Y-50854D01*
X77687Y-50908D01*
X77675Y-50966D01*
X77674Y-51025D01*
X77685Y-51083D01*
X77706Y-51137D01*
X77738Y-51187D01*
X77779Y-51229D01*
X77827Y-51263D01*
X77881Y-51286D01*
X77939Y-51299D01*
X77998Y-51300D01*
X78056Y-51290D01*
X78110Y-51269D01*
X78160Y-51237D01*
X78200Y-51200D01*
X79917Y-51200D01*
X81475Y-52758D01*
X81474Y-52800D01*
X81485Y-52858D01*
X81506Y-52912D01*
X81538Y-52962D01*
X81579Y-53004D01*
X81627Y-53038D01*
X81681Y-53061D01*
X81739Y-53074D01*
X81798Y-53075D01*
X81856Y-53065D01*
X81910Y-53044D01*
X81960Y-53012D01*
X82003Y-52971D01*
X82037Y-52923D01*
X82061Y-52870D01*
X82074Y-52812D01*
X82075Y-52745D01*
X82075Y-56804D01*
X81539Y-57247D01*
X80791Y-57651D01*
X80791Y-57522D01*
X80791Y-57049D01*
X80785Y-57020D01*
X80774Y-56993D01*
X80758Y-56968D01*
X80737Y-56947D01*
X80735Y-56945D01*
X80735Y-56000D01*
X80735Y-52669D01*
X80732Y-52640D01*
X80729Y-52612D01*
X80729Y-52610D01*
X80729Y-52608D01*
X80720Y-52581D01*
X80712Y-52553D01*
X80712Y-52552D01*
X80711Y-52550D01*
X80698Y-52525D01*
X80684Y-52500D01*
X80683Y-52498D01*
X80683Y-52497D01*
X80665Y-52475D01*
X80647Y-52452D01*
X80645Y-52450D01*
X80644Y-52450D01*
X80644Y-52450D01*
X80644Y-52449D01*
X79549Y-51355D01*
X79527Y-51337D01*
X79505Y-51319D01*
X79504Y-51318D01*
X79503Y-51317D01*
X79477Y-51303D01*
X79452Y-51289D01*
X79451Y-51289D01*
X79449Y-51288D01*
X79422Y-51280D01*
X79395Y-51271D01*
X79393Y-51271D01*
X79391Y-51270D01*
X79363Y-51268D01*
X79335Y-51264D01*
X79331Y-51264D01*
X79331Y-51264D01*
X79331Y-51264D01*
X79330Y-51264D01*
X78248Y-51264D01*
X78219Y-51267D01*
X78191Y-51270D01*
X78189Y-51270D01*
X78187Y-51270D01*
X78160Y-51278D01*
X78132Y-51286D01*
X78131Y-51287D01*
X78129Y-51288D01*
X78104Y-51301D01*
X78079Y-51314D01*
X78077Y-51315D01*
X78076Y-51316D01*
X78054Y-51334D01*
X78031Y-51352D01*
X78029Y-51354D01*
X78029Y-51354D01*
X78029Y-51354D01*
X78028Y-51355D01*
X74965Y-54419D01*
X74976Y-54395D01*
X74989Y-54337D01*
X74990Y-54270D01*
X74978Y-54212D01*
X74956Y-54158D01*
X74923Y-54109D01*
X74882Y-54067D01*
X74880Y-54066D01*
X74880Y-53352D01*
X76851Y-51381D01*
X76863Y-51367D01*
X76875Y-51352D01*
X76875Y-51352D01*
X76876Y-51351D01*
X76884Y-51335D01*
X76893Y-51318D01*
X76894Y-51317D01*
X76894Y-51316D01*
X76900Y-51299D01*
X76905Y-51281D01*
X76905Y-51280D01*
X76906Y-51279D01*
X76907Y-51261D01*
X76909Y-51242D01*
X76909Y-51240D01*
X76909Y-51240D01*
X76909Y-51240D01*
X76910Y-51240D01*
X76910Y-50603D01*
X76938Y-50576D01*
X76972Y-50528D01*
X76996Y-50475D01*
X77009Y-50417D01*
X77010Y-50350D01*
X76998Y-50292D01*
X76976Y-50238D01*
X76943Y-50189D01*
X76902Y-50147D01*
X76853Y-50114D01*
X76799Y-50092D01*
X76741Y-50080D01*
X76682Y-50079D01*
X76624Y-50090D01*
X76570Y-50112D01*
X76521Y-50145D01*
X76479Y-50186D01*
X76445Y-50234D01*
X76422Y-50288D01*
X76410Y-50346D01*
X76409Y-50405D01*
X76420Y-50463D01*
X76441Y-50517D01*
X76473Y-50567D01*
X76510Y-50604D01*
X76510Y-51157D01*
X74709Y-52957D01*
X74709Y-51151D01*
X74698Y-51093D01*
X74675Y-51039D01*
X74643Y-50990D01*
X74601Y-50948D01*
X74552Y-50915D01*
X74498Y-50893D01*
X74440Y-50881D01*
X74382Y-50880D01*
X74324Y-50891D01*
X74269Y-50913D01*
X74220Y-50946D01*
X74184Y-50981D01*
X73326Y-50981D01*
X73308Y-50982D01*
X73289Y-50984D01*
X73288Y-50984D01*
X73287Y-50984D01*
X73270Y-50990D01*
X73252Y-50995D01*
X73251Y-50995D01*
X73250Y-50996D01*
X73234Y-51004D01*
X73217Y-51013D01*
X73217Y-51014D01*
X73216Y-51014D01*
X73201Y-51026D01*
X73187Y-51037D01*
X73185Y-51039D01*
X73185Y-51039D01*
X73185Y-51039D01*
X73185Y-51039D01*
X72950Y-51274D01*
X72905Y-51274D01*
X72847Y-51285D01*
X72793Y-51307D01*
X72744Y-51339D01*
X72702Y-51381D01*
X72668Y-51429D01*
X72645Y-51483D01*
X72633Y-51541D01*
X72632Y-51600D01*
X72643Y-51657D01*
X72664Y-51712D01*
X72696Y-51762D01*
X72737Y-51804D01*
X72786Y-51837D01*
X72839Y-51861D01*
X72897Y-51874D01*
X72956Y-51875D01*
X73014Y-51865D01*
X73068Y-51843D01*
X73118Y-51812D01*
X73161Y-51771D01*
X73195Y-51723D01*
X73219Y-51669D01*
X73232Y-51612D01*
X73232Y-51557D01*
X73409Y-51381D01*
X74185Y-51381D01*
X74214Y-51410D01*
X74262Y-51444D01*
X74316Y-51467D01*
X74373Y-51480D01*
X74432Y-51481D01*
X74490Y-51471D01*
X74545Y-51450D01*
X74595Y-51418D01*
X74637Y-51378D01*
X74671Y-51330D01*
X74695Y-51276D01*
X74708Y-51218D01*
X74709Y-51151D01*
X74709Y-52957D01*
X74538Y-53128D01*
X74526Y-53142D01*
X74514Y-53157D01*
X74514Y-53157D01*
X74513Y-53158D01*
X74505Y-53175D01*
X74496Y-53191D01*
X74495Y-53192D01*
X74495Y-53193D01*
X74489Y-53210D01*
X74484Y-53228D01*
X74484Y-53229D01*
X74483Y-53230D01*
X74482Y-53248D01*
X74480Y-53267D01*
X74480Y-53269D01*
X74480Y-53269D01*
X74480Y-53269D01*
X74480Y-53270D01*
X74480Y-54085D01*
X74459Y-54106D01*
X74425Y-54154D01*
X74402Y-54208D01*
X74390Y-54266D01*
X74389Y-54325D01*
X74400Y-54383D01*
X74421Y-54437D01*
X74453Y-54487D01*
X74494Y-54529D01*
X74542Y-54563D01*
X74596Y-54586D01*
X74654Y-54599D01*
X74713Y-54600D01*
X74771Y-54590D01*
X74808Y-54575D01*
X74576Y-54808D01*
X74144Y-54808D01*
X73545Y-54209D01*
X73499Y-54171D01*
X73445Y-54142D01*
X73388Y-54125D01*
X73327Y-54119D01*
X73267Y-54124D01*
X73209Y-54142D01*
X73156Y-54170D01*
X73109Y-54208D01*
X73070Y-54254D01*
X73041Y-54308D01*
X73023Y-54365D01*
X73016Y-54425D01*
X73022Y-54486D01*
X73038Y-54544D01*
X73066Y-54597D01*
X73104Y-54645D01*
X73107Y-54648D01*
X73796Y-55337D01*
X73818Y-55355D01*
X73840Y-55373D01*
X73842Y-55374D01*
X73843Y-55375D01*
X73868Y-55389D01*
X73893Y-55403D01*
X73895Y-55403D01*
X73896Y-55404D01*
X73924Y-55412D01*
X73951Y-55421D01*
X73952Y-55421D01*
X73954Y-55421D01*
X73982Y-55424D01*
X74011Y-55428D01*
X74014Y-55428D01*
X74014Y-55428D01*
X74014Y-55428D01*
X74015Y-55428D01*
X74704Y-55428D01*
X74733Y-55425D01*
X74761Y-55422D01*
X74763Y-55422D01*
X74764Y-55422D01*
X74792Y-55413D01*
X74819Y-55405D01*
X74821Y-55405D01*
X74822Y-55404D01*
X74848Y-55391D01*
X74873Y-55378D01*
X74874Y-55377D01*
X74876Y-55376D01*
X74898Y-55358D01*
X74906Y-55351D01*
X74904Y-55358D01*
X74904Y-55359D01*
X74903Y-55360D01*
X74902Y-55378D01*
X74900Y-55397D01*
X74900Y-55399D01*
X74900Y-55399D01*
X74900Y-55399D01*
X74900Y-55400D01*
X74900Y-55675D01*
X74869Y-55706D01*
X74835Y-55754D01*
X74812Y-55808D01*
X74800Y-55866D01*
X74799Y-55925D01*
X74810Y-55983D01*
X74831Y-56037D01*
X74863Y-56087D01*
X74904Y-56129D01*
X74952Y-56163D01*
X75006Y-56186D01*
X75064Y-56199D01*
X75099Y-56200D01*
X75096Y-56200D01*
X75091Y-56199D01*
X75070Y-56202D01*
X75061Y-56203D01*
X75058Y-56204D01*
X75052Y-56205D01*
X75032Y-56212D01*
X75023Y-56215D01*
X75021Y-56216D01*
X75015Y-56218D01*
X74997Y-56229D01*
X74989Y-56233D01*
X74987Y-56235D01*
X74982Y-56238D01*
X74979Y-56239D01*
X74758Y-56405D01*
X74731Y-56400D01*
X74672Y-56399D01*
X74614Y-56410D01*
X74560Y-56432D01*
X74511Y-56465D01*
X74469Y-56506D01*
X74435Y-56554D01*
X74412Y-56608D01*
X74400Y-56666D01*
X74399Y-56725D01*
X74410Y-56783D01*
X74431Y-56837D01*
X74463Y-56887D01*
X74504Y-56929D01*
X74552Y-56963D01*
X74606Y-56986D01*
X74664Y-56999D01*
X74723Y-57000D01*
X74781Y-56990D01*
X74835Y-56969D01*
X74885Y-56937D01*
X74928Y-56896D01*
X74962Y-56848D01*
X74986Y-56795D01*
X74999Y-56737D01*
X74999Y-56725D01*
X75166Y-56600D01*
X75400Y-56600D01*
X75418Y-56598D01*
X75436Y-56596D01*
X75437Y-56596D01*
X75438Y-56596D01*
X75456Y-56590D01*
X75474Y-56585D01*
X75475Y-56585D01*
X75476Y-56584D01*
X75492Y-56576D01*
X75508Y-56567D01*
X75509Y-56567D01*
X75510Y-56566D01*
X75525Y-56554D01*
X75539Y-56543D01*
X75540Y-56541D01*
X75540Y-56541D01*
X75540Y-56541D01*
X75541Y-56541D01*
X78401Y-53681D01*
X78400Y-53697D01*
X78400Y-53699D01*
X78400Y-53699D01*
X78400Y-53699D01*
X78400Y-53700D01*
X78400Y-55217D01*
X78317Y-55300D01*
X78224Y-55300D01*
X78192Y-55267D01*
X78143Y-55234D01*
X78089Y-55212D01*
X78031Y-55200D01*
X77972Y-55199D01*
X77914Y-55210D01*
X77860Y-55232D01*
X77811Y-55265D01*
X77769Y-55306D01*
X77735Y-55354D01*
X77712Y-55408D01*
X77700Y-55466D01*
X77699Y-55525D01*
X77710Y-55583D01*
X77731Y-55637D01*
X77763Y-55687D01*
X77804Y-55729D01*
X77852Y-55763D01*
X77906Y-55786D01*
X77964Y-55799D01*
X78023Y-55800D01*
X78081Y-55790D01*
X78135Y-55769D01*
X78185Y-55737D01*
X78225Y-55700D01*
X78400Y-55700D01*
X78418Y-55698D01*
X78436Y-55696D01*
X78437Y-55696D01*
X78438Y-55696D01*
X78456Y-55690D01*
X78474Y-55685D01*
X78475Y-55685D01*
X78476Y-55684D01*
X78492Y-55676D01*
X78508Y-55667D01*
X78509Y-55667D01*
X78510Y-55666D01*
X78525Y-55654D01*
X78539Y-55643D01*
X78540Y-55641D01*
X78540Y-55641D01*
X78540Y-55641D01*
X78541Y-55641D01*
X78741Y-55441D01*
X78753Y-55427D01*
X78765Y-55412D01*
X78765Y-55412D01*
X78766Y-55411D01*
X78774Y-55394D01*
X78783Y-55378D01*
X78784Y-55377D01*
X78784Y-55376D01*
X78790Y-55359D01*
X78795Y-55341D01*
X78795Y-55340D01*
X78796Y-55339D01*
X78797Y-55321D01*
X78799Y-55302D01*
X78799Y-55300D01*
X78799Y-55300D01*
X78799Y-55300D01*
X78800Y-55300D01*
X78800Y-53883D01*
X78835Y-53869D01*
X78885Y-53837D01*
X78928Y-53796D01*
X78962Y-53748D01*
X78986Y-53695D01*
X78999Y-53637D01*
X79000Y-53570D01*
X78988Y-53512D01*
X78966Y-53458D01*
X78933Y-53409D01*
X78892Y-53367D01*
X78843Y-53334D01*
X78789Y-53312D01*
X78731Y-53300D01*
X78700Y-53299D01*
X78700Y-52723D01*
X78728Y-52696D01*
X78762Y-52648D01*
X78786Y-52595D01*
X78799Y-52537D01*
X78799Y-52483D01*
X78806Y-52486D01*
X78864Y-52499D01*
X78923Y-52500D01*
X78981Y-52490D01*
X79035Y-52469D01*
X79085Y-52437D01*
X79128Y-52396D01*
X79162Y-52348D01*
X79186Y-52295D01*
X79199Y-52237D01*
X79200Y-52170D01*
X79188Y-52112D01*
X79166Y-52058D01*
X79133Y-52009D01*
X79092Y-51967D01*
X79043Y-51934D01*
X78989Y-51912D01*
X78931Y-51900D01*
X78872Y-51899D01*
X78871Y-51900D01*
X78400Y-51900D01*
X78381Y-51901D01*
X78363Y-51903D01*
X78362Y-51903D01*
X78361Y-51903D01*
X78355Y-51905D01*
X78376Y-51884D01*
X79202Y-51884D01*
X80115Y-52797D01*
X80115Y-55690D01*
X79800Y-55690D01*
X79739Y-55695D01*
X79681Y-55713D01*
X79628Y-55741D01*
X79581Y-55780D01*
X79542Y-55826D01*
X79514Y-55879D01*
X79496Y-55937D01*
X79490Y-55997D01*
X79495Y-56058D01*
X79512Y-56116D01*
X79540Y-56169D01*
X79578Y-56216D01*
X79624Y-56255D01*
X79677Y-56284D01*
X79735Y-56303D01*
X79795Y-56309D01*
X79800Y-56310D01*
X80115Y-56310D01*
X80115Y-56945D01*
X80113Y-56946D01*
X80092Y-56967D01*
X80075Y-56992D01*
X80064Y-57019D01*
X80058Y-57048D01*
X80058Y-57077D01*
X80058Y-57550D01*
X80064Y-57579D01*
X80075Y-57606D01*
X80091Y-57631D01*
X80112Y-57652D01*
X80136Y-57668D01*
X80163Y-57680D01*
X80192Y-57686D01*
X80222Y-57686D01*
X80656Y-57686D01*
X80685Y-57680D01*
X80712Y-57669D01*
X80736Y-57653D01*
X80757Y-57632D01*
X80774Y-57607D01*
X80785Y-57580D01*
X80791Y-57551D01*
X80791Y-57522D01*
X80791Y-57651D01*
X80452Y-57834D01*
X79884Y-58010D01*
X79884Y-57147D01*
X79866Y-57054D01*
X79829Y-56966D01*
X79777Y-56887D01*
X79710Y-56820D01*
X79631Y-56766D01*
X79543Y-56730D01*
X79450Y-56711D01*
X79355Y-56710D01*
X79262Y-56728D01*
X79174Y-56763D01*
X79094Y-56815D01*
X79057Y-56852D01*
X79057Y-56323D01*
X79047Y-56273D01*
X79028Y-56227D01*
X79000Y-56184D01*
X78964Y-56148D01*
X78922Y-56120D01*
X78875Y-56100D01*
X78826Y-56090D01*
X78775Y-56090D01*
X78725Y-56099D01*
X78678Y-56118D01*
X78636Y-56146D01*
X78600Y-56182D01*
X78571Y-56223D01*
X78551Y-56270D01*
X78541Y-56319D01*
X78540Y-56370D01*
X78549Y-56420D01*
X78568Y-56467D01*
X78595Y-56510D01*
X78630Y-56546D01*
X78672Y-56575D01*
X78718Y-56595D01*
X78768Y-56606D01*
X78818Y-56607D01*
X78868Y-56598D01*
X78916Y-56580D01*
X78958Y-56553D01*
X78995Y-56518D01*
X79024Y-56477D01*
X79045Y-56430D01*
X79056Y-56381D01*
X79057Y-56323D01*
X79057Y-56852D01*
X79026Y-56882D01*
X78973Y-56960D01*
X78935Y-57048D01*
X78915Y-57141D01*
X78914Y-57236D01*
X78931Y-57329D01*
X78966Y-57417D01*
X79018Y-57497D01*
X79084Y-57566D01*
X79162Y-57620D01*
X79249Y-57658D01*
X79342Y-57678D01*
X79437Y-57680D01*
X79530Y-57664D01*
X79619Y-57630D01*
X79699Y-57579D01*
X79768Y-57513D01*
X79823Y-57435D01*
X79861Y-57349D01*
X79882Y-57256D01*
X79884Y-57147D01*
X79884Y-58010D01*
X79272Y-58200D01*
X78044Y-58329D01*
X77482Y-58278D01*
X77482Y-56323D01*
X77473Y-56273D01*
X77453Y-56227D01*
X77425Y-56184D01*
X77390Y-56148D01*
X77348Y-56120D01*
X77301Y-56100D01*
X77251Y-56090D01*
X77201Y-56090D01*
X77151Y-56099D01*
X77104Y-56118D01*
X77061Y-56146D01*
X77025Y-56182D01*
X76997Y-56223D01*
X76977Y-56270D01*
X76966Y-56319D01*
X76965Y-56370D01*
X76975Y-56420D01*
X76993Y-56467D01*
X77021Y-56510D01*
X77056Y-56546D01*
X77097Y-56575D01*
X77144Y-56595D01*
X77193Y-56606D01*
X77244Y-56607D01*
X77294Y-56598D01*
X77341Y-56580D01*
X77384Y-56553D01*
X77421Y-56518D01*
X77450Y-56477D01*
X77470Y-56430D01*
X77482Y-56381D01*
X77482Y-56323D01*
X77482Y-58278D01*
X77108Y-58244D01*
X77108Y-57147D01*
X77090Y-57054D01*
X77054Y-56966D01*
X77001Y-56887D01*
X76934Y-56820D01*
X76855Y-56766D01*
X76768Y-56730D01*
X76675Y-56711D01*
X76580Y-56710D01*
X76486Y-56728D01*
X76398Y-56763D01*
X76319Y-56815D01*
X76251Y-56882D01*
X76197Y-56960D01*
X76160Y-57048D01*
X76140Y-57141D01*
X76138Y-57236D01*
X76156Y-57329D01*
X76191Y-57417D01*
X76242Y-57497D01*
X76308Y-57566D01*
X76386Y-57620D01*
X76473Y-57658D01*
X76566Y-57678D01*
X76661Y-57680D01*
X76755Y-57664D01*
X76843Y-57630D01*
X76924Y-57579D01*
X76992Y-57513D01*
X77047Y-57435D01*
X77086Y-57349D01*
X77107Y-57256D01*
X77108Y-57147D01*
X77108Y-58244D01*
X76813Y-58217D01*
X75628Y-57868D01*
X74534Y-57296D01*
X73571Y-56522D01*
X72777Y-55575D01*
X72182Y-54493D01*
X71808Y-53315D01*
X71671Y-52088D01*
X71774Y-50857D01*
X72114Y-49669D01*
X72679Y-48571D01*
X73446Y-47603D01*
X74387Y-46802D01*
X75465Y-46199D01*
X76640Y-45818D01*
X77120Y-45761D01*
X77120Y-47359D01*
X79602Y-47363D01*
X79584Y-47370D01*
X79535Y-47402D01*
X79493Y-47444D01*
X79460Y-47492D01*
X79437Y-47546D01*
X79424Y-47604D01*
X79424Y-47655D01*
X77968Y-49111D01*
X76608Y-49111D01*
X76640Y-49066D01*
X76663Y-49012D01*
X76677Y-48955D01*
X76677Y-48887D01*
X76666Y-48830D01*
X76644Y-48775D01*
X76611Y-48726D01*
X76570Y-48685D01*
X76521Y-48652D01*
X76467Y-48629D01*
X76409Y-48617D01*
X76350Y-48617D01*
X76292Y-48628D01*
X76238Y-48650D01*
X76189Y-48682D01*
X76153Y-48717D01*
X75224Y-48717D01*
X75192Y-48685D01*
X75143Y-48652D01*
X75089Y-48629D01*
X75031Y-48617D01*
X74972Y-48617D01*
X74914Y-48628D01*
X74860Y-48650D01*
X74811Y-48682D01*
X74769Y-48723D01*
X74735Y-48772D01*
X74712Y-48826D01*
X74700Y-48883D01*
X74699Y-48942D01*
X74710Y-49000D01*
X74731Y-49055D01*
X74763Y-49104D01*
X74804Y-49146D01*
X74852Y-49180D01*
X74906Y-49204D01*
X74964Y-49216D01*
X75023Y-49217D01*
X75081Y-49207D01*
X75135Y-49186D01*
X75185Y-49154D01*
X75225Y-49117D01*
X75445Y-49117D01*
X75435Y-49120D01*
X75417Y-49125D01*
X75416Y-49125D01*
X75415Y-49126D01*
X75399Y-49134D01*
X75383Y-49143D01*
X75382Y-49143D01*
X75381Y-49144D01*
X75367Y-49156D01*
X75352Y-49167D01*
X75351Y-49169D01*
X75351Y-49169D01*
X75351Y-49169D01*
X75350Y-49169D01*
X74228Y-50292D01*
X74141Y-50292D01*
X74109Y-50259D01*
X74060Y-50226D01*
X74006Y-50204D01*
X73948Y-50192D01*
X73890Y-50191D01*
X73832Y-50202D01*
X73777Y-50224D01*
X73728Y-50257D01*
X73686Y-50298D01*
X73653Y-50346D01*
X73629Y-50400D01*
X73617Y-50458D01*
X73616Y-50517D01*
X73627Y-50575D01*
X73649Y-50629D01*
X73681Y-50679D01*
X73721Y-50721D01*
X73770Y-50755D01*
X73824Y-50778D01*
X73881Y-50791D01*
X73940Y-50792D01*
X73998Y-50782D01*
X74053Y-50761D01*
X74102Y-50729D01*
X74142Y-50692D01*
X74311Y-50692D01*
X74329Y-50690D01*
X74347Y-50688D01*
X74348Y-50688D01*
X74349Y-50688D01*
X74367Y-50682D01*
X74385Y-50677D01*
X74386Y-50677D01*
X74387Y-50677D01*
X74403Y-50668D01*
X74419Y-50659D01*
X74420Y-50659D01*
X74421Y-50658D01*
X74436Y-50647D01*
X74450Y-50635D01*
X74451Y-50634D01*
X74451Y-50634D01*
X74451Y-50634D01*
X74452Y-50633D01*
X75574Y-49511D01*
X78051Y-49511D01*
X78069Y-49509D01*
X78087Y-49507D01*
X78088Y-49507D01*
X78090Y-49507D01*
X78107Y-49501D01*
X78125Y-49496D01*
X78126Y-49496D01*
X78127Y-49495D01*
X78143Y-49487D01*
X78160Y-49478D01*
X78160Y-49478D01*
X78161Y-49477D01*
X78176Y-49465D01*
X78190Y-49454D01*
X78192Y-49452D01*
X78192Y-49452D01*
X78192Y-49452D01*
X78192Y-49452D01*
X79707Y-47937D01*
X79747Y-47938D01*
X79805Y-47928D01*
X79860Y-47906D01*
X79910Y-47875D01*
X79952Y-47834D01*
X79986Y-47786D01*
X80010Y-47732D01*
X80023Y-47675D01*
X80024Y-47608D01*
X80012Y-47550D01*
X79990Y-47496D01*
X79958Y-47447D01*
X79916Y-47405D01*
X79867Y-47372D01*
X79847Y-47363D01*
X82302Y-47367D01*
X82364Y-47416D01*
X83172Y-48351D01*
X83782Y-49425D01*
X84172Y-50597D01*
X84327Y-51830D01*
X84330Y-51992D01*
M02*
