M48
;DRILL file {Pcbnew (2013-07-07 BZR 4022)-stable} date 5/30/2015 6:28:00 PM
;FORMAT={-:-/ absolute / inch / decimal}
FMAT,2
INCH,TZ
T1C0.015
T2C0.022
T3C0.039
%
G90
G05
M72
T1
X7.2933Y-5.1575
X7.3327Y-5.4429
X7.3917Y-5.0492
X7.4409Y-5.1181
X7.469Y-5.43
X7.47Y-5.67
X7.5Y-4.8917
X7.51Y-5.59
X7.6378Y-4.8917
X7.671Y-5.038
X7.689Y-4.854
X7.6905Y-4.7925
X7.7445Y-4.857
X7.7975Y-5.1
X7.8Y-5.55
X7.85Y-5.25
X7.87Y-5.36
X7.89Y-5.22
X7.9724Y-4.7638
X7.98Y-5.6
X8.1225Y-5.615
X8.1775Y-5.2775
X8.245Y-5.155
X8.2825Y-5.4925
X8.3125Y-5.1575
X8.3125Y-5.23
T2
X7.7225Y-5.6349
X7.8799Y-5.6349
T3
X7.6624Y-5.7195
X7.94Y-5.7195
T0
M30
