G04 (created by PCBNEW (2013-07-07 BZR 4022)-stable) date 6/15/2015 10:21:50 PM*
%MOIN*%
G04 Gerber Fmt 3.4, Leading zero omitted, Abs format*
%FSLAX34Y34*%
G01*
G70*
G90*
G04 APERTURE LIST*
%ADD10C,0.00590551*%
%ADD11C,0.00787402*%
%ADD12C,0.00393701*%
%ADD13C,0.005*%
%ADD14C,0.0039*%
%ADD15C,0.0028*%
%ADD16C,0.0026*%
%ADD17C,0.004*%
%ADD18C,0.002*%
%ADD19C,0.0047*%
G04 APERTURE END LIST*
G54D10*
G54D11*
X83665Y-49400D02*
G75*
G03X83665Y-49400I-445J0D01*
G74*
G01*
G54D12*
X84500Y-52000D02*
G75*
G03X84500Y-52000I-6500J0D01*
G74*
G01*
G54D13*
X76200Y-56450D02*
X75000Y-56450D01*
X75000Y-56450D02*
X75000Y-56150D01*
X75000Y-56150D02*
X76200Y-56150D01*
X76200Y-56150D02*
X76200Y-56450D01*
G54D14*
X74900Y-55700D02*
G75*
G03X74900Y-55700I-50J0D01*
G74*
G01*
X74400Y-55700D02*
X74800Y-55700D01*
X74800Y-55700D02*
X74800Y-56300D01*
X74800Y-56300D02*
X74400Y-56300D01*
X74000Y-56300D02*
X73600Y-56300D01*
X73600Y-56300D02*
X73600Y-55700D01*
X73600Y-55700D02*
X74000Y-55700D01*
X73170Y-55515D02*
G75*
G03X73170Y-55515I-50J0D01*
G74*
G01*
X73570Y-55515D02*
X73170Y-55515D01*
X73170Y-55515D02*
X73170Y-54915D01*
X73170Y-54915D02*
X73570Y-54915D01*
X73970Y-54915D02*
X74370Y-54915D01*
X74370Y-54915D02*
X74370Y-55515D01*
X74370Y-55515D02*
X73970Y-55515D01*
G54D15*
X74214Y-53693D02*
X74414Y-53693D01*
X74414Y-53693D02*
X74414Y-53393D01*
X74414Y-53393D02*
X74214Y-53393D01*
X74014Y-53693D02*
X73814Y-53693D01*
X73814Y-53693D02*
X73814Y-53393D01*
X73814Y-53393D02*
X74014Y-53393D01*
X75344Y-55109D02*
X75344Y-54909D01*
X75344Y-54909D02*
X75044Y-54909D01*
X75044Y-54909D02*
X75044Y-55109D01*
X75344Y-55309D02*
X75344Y-55509D01*
X75344Y-55509D02*
X75044Y-55509D01*
X75044Y-55509D02*
X75044Y-55309D01*
X82430Y-47990D02*
X82230Y-47990D01*
X82230Y-47990D02*
X82230Y-48290D01*
X82230Y-48290D02*
X82430Y-48290D01*
X82630Y-47990D02*
X82830Y-47990D01*
X82830Y-47990D02*
X82830Y-48290D01*
X82830Y-48290D02*
X82630Y-48290D01*
X82440Y-48490D02*
X82240Y-48490D01*
X82240Y-48490D02*
X82240Y-48790D01*
X82240Y-48790D02*
X82440Y-48790D01*
X82640Y-48490D02*
X82840Y-48490D01*
X82840Y-48490D02*
X82840Y-48790D01*
X82840Y-48790D02*
X82640Y-48790D01*
X75548Y-55302D02*
X75548Y-55502D01*
X75548Y-55502D02*
X75848Y-55502D01*
X75848Y-55502D02*
X75848Y-55302D01*
X75548Y-55102D02*
X75548Y-54902D01*
X75548Y-54902D02*
X75848Y-54902D01*
X75848Y-54902D02*
X75848Y-55102D01*
X74550Y-55300D02*
X74550Y-55500D01*
X74550Y-55500D02*
X74850Y-55500D01*
X74850Y-55500D02*
X74850Y-55300D01*
X74550Y-55100D02*
X74550Y-54900D01*
X74550Y-54900D02*
X74850Y-54900D01*
X74850Y-54900D02*
X74850Y-55100D01*
X74014Y-52901D02*
X73814Y-52901D01*
X73814Y-52901D02*
X73814Y-53201D01*
X73814Y-53201D02*
X74014Y-53201D01*
X74214Y-52901D02*
X74414Y-52901D01*
X74414Y-52901D02*
X74414Y-53201D01*
X74414Y-53201D02*
X74214Y-53201D01*
X81504Y-54962D02*
X81504Y-54762D01*
X81504Y-54762D02*
X81204Y-54762D01*
X81204Y-54762D02*
X81204Y-54962D01*
X81504Y-55162D02*
X81504Y-55362D01*
X81504Y-55362D02*
X81204Y-55362D01*
X81204Y-55362D02*
X81204Y-55162D01*
G54D16*
X81403Y-48827D02*
X81403Y-48473D01*
X81403Y-48473D02*
X81246Y-48473D01*
X81246Y-48827D02*
X81246Y-48473D01*
X81403Y-48827D02*
X81246Y-48827D01*
X81914Y-48827D02*
X81914Y-48473D01*
X81914Y-48473D02*
X81757Y-48473D01*
X81757Y-48827D02*
X81757Y-48473D01*
X81914Y-48827D02*
X81757Y-48827D01*
X81580Y-48827D02*
X81580Y-48768D01*
X81580Y-48768D02*
X81462Y-48768D01*
X81462Y-48827D02*
X81462Y-48768D01*
X81580Y-48827D02*
X81462Y-48827D01*
X81580Y-48532D02*
X81580Y-48473D01*
X81580Y-48473D02*
X81462Y-48473D01*
X81462Y-48532D02*
X81462Y-48473D01*
X81580Y-48532D02*
X81462Y-48532D01*
X81580Y-48709D02*
X81580Y-48591D01*
X81580Y-48591D02*
X81462Y-48591D01*
X81462Y-48709D02*
X81462Y-48591D01*
X81580Y-48709D02*
X81462Y-48709D01*
G54D17*
X81403Y-48807D02*
X81757Y-48807D01*
X81403Y-48493D02*
X81757Y-48493D01*
G54D16*
X81403Y-48267D02*
X81403Y-47913D01*
X81403Y-47913D02*
X81246Y-47913D01*
X81246Y-48267D02*
X81246Y-47913D01*
X81403Y-48267D02*
X81246Y-48267D01*
X81914Y-48267D02*
X81914Y-47913D01*
X81914Y-47913D02*
X81757Y-47913D01*
X81757Y-48267D02*
X81757Y-47913D01*
X81914Y-48267D02*
X81757Y-48267D01*
X81580Y-48267D02*
X81580Y-48208D01*
X81580Y-48208D02*
X81462Y-48208D01*
X81462Y-48267D02*
X81462Y-48208D01*
X81580Y-48267D02*
X81462Y-48267D01*
X81580Y-47972D02*
X81580Y-47913D01*
X81580Y-47913D02*
X81462Y-47913D01*
X81462Y-47972D02*
X81462Y-47913D01*
X81580Y-47972D02*
X81462Y-47972D01*
X81580Y-48149D02*
X81580Y-48031D01*
X81580Y-48031D02*
X81462Y-48031D01*
X81462Y-48149D02*
X81462Y-48031D01*
X81580Y-48149D02*
X81462Y-48149D01*
G54D17*
X81403Y-48247D02*
X81757Y-48247D01*
X81403Y-47933D02*
X81757Y-47933D01*
G54D10*
X75662Y-46043D02*
X75662Y-53130D01*
X75662Y-53130D02*
X80308Y-53130D01*
X80308Y-46043D02*
X80308Y-53130D01*
X75662Y-46043D02*
X80308Y-46043D01*
X76748Y-46575D02*
G75*
G03X76748Y-46575I-278J0D01*
G74*
G01*
G54D18*
X79115Y-57412D02*
G75*
G03X78996Y-57293I-119J0D01*
G74*
G01*
X78996Y-57294D02*
G75*
G03X78878Y-57412I0J-118D01*
G74*
G01*
X77147Y-57412D02*
G75*
G03X77028Y-57293I-119J0D01*
G74*
G01*
X77028Y-57294D02*
G75*
G03X76910Y-57412I0J-118D01*
G74*
G01*
X79114Y-57825D02*
X79114Y-57412D01*
X78878Y-57825D02*
X78878Y-57412D01*
X77146Y-57825D02*
X77146Y-57412D01*
X76910Y-57825D02*
X76910Y-57412D01*
X78878Y-57628D02*
X79114Y-57628D01*
X76910Y-57628D02*
X77146Y-57628D01*
X78878Y-57667D02*
X79114Y-57667D01*
X76910Y-57667D02*
X77146Y-57667D01*
X78878Y-57825D02*
X79114Y-57825D01*
X76910Y-57825D02*
X77146Y-57825D01*
X79626Y-58317D02*
X79685Y-58258D01*
X79626Y-58317D02*
X79449Y-58140D01*
X79449Y-58140D02*
X79449Y-58081D01*
X76339Y-58258D02*
X76398Y-58317D01*
X76398Y-58317D02*
X76575Y-58140D01*
X76575Y-58140D02*
X76575Y-58081D01*
X79508Y-58081D02*
X79685Y-58258D01*
X76516Y-58081D02*
X76339Y-58258D01*
X78799Y-58081D02*
X79508Y-58081D01*
X77618Y-58081D02*
X78406Y-58081D01*
X76516Y-58081D02*
X77225Y-58081D01*
X76654Y-58199D02*
G75*
G03X76752Y-58297I98J0D01*
G74*
G01*
X79272Y-58297D02*
G75*
G03X79370Y-58199I0J98D01*
G74*
G01*
X78799Y-58297D02*
X79272Y-58297D01*
X77618Y-58297D02*
X78406Y-58297D01*
X76752Y-58297D02*
X77225Y-58297D01*
X79370Y-57766D02*
X79370Y-58199D01*
X76654Y-57766D02*
X76654Y-58199D01*
X76516Y-56230D02*
X76516Y-58081D01*
X79508Y-56230D02*
X79508Y-58081D01*
X76654Y-56092D02*
G75*
G03X76516Y-56230I0J-138D01*
G74*
G01*
X79507Y-56230D02*
G75*
G03X79370Y-56093I-137J0D01*
G74*
G01*
G54D14*
X76654Y-56093D02*
X77264Y-56093D01*
X79370Y-56093D02*
X78760Y-56093D01*
X76654Y-57766D02*
X76654Y-56093D01*
X79370Y-57766D02*
X79370Y-56093D01*
X76654Y-57766D02*
X79370Y-57766D01*
G54D18*
X77638Y-56821D02*
X78386Y-56821D01*
X78386Y-56821D02*
X78386Y-57569D01*
X78386Y-57569D02*
X77638Y-57569D01*
X77638Y-57569D02*
X77638Y-56821D01*
G54D15*
X74214Y-54185D02*
X74414Y-54185D01*
X74414Y-54185D02*
X74414Y-53885D01*
X74414Y-53885D02*
X74214Y-53885D01*
X74014Y-54185D02*
X73814Y-54185D01*
X73814Y-54185D02*
X73814Y-53885D01*
X73814Y-53885D02*
X74014Y-53885D01*
X79360Y-55330D02*
X79360Y-55130D01*
X79360Y-55130D02*
X79060Y-55130D01*
X79060Y-55130D02*
X79060Y-55330D01*
X79360Y-55530D02*
X79360Y-55730D01*
X79360Y-55730D02*
X79060Y-55730D01*
X79060Y-55730D02*
X79060Y-55530D01*
G54D13*
X80585Y-54885D02*
X80845Y-54885D01*
X80585Y-55635D02*
X80845Y-55635D01*
X80035Y-55260D02*
X79775Y-55260D01*
X80035Y-55850D02*
X80035Y-54670D01*
X80035Y-54670D02*
X80585Y-54670D01*
X80585Y-54670D02*
X80585Y-55850D01*
X80585Y-55850D02*
X80035Y-55850D01*
G54D15*
X74200Y-47690D02*
X74200Y-47890D01*
X74200Y-47890D02*
X74500Y-47890D01*
X74500Y-47890D02*
X74500Y-47690D01*
X74200Y-47490D02*
X74200Y-47290D01*
X74200Y-47290D02*
X74500Y-47290D01*
X74500Y-47290D02*
X74500Y-47490D01*
X74230Y-48540D02*
X74430Y-48540D01*
X74430Y-48540D02*
X74430Y-48240D01*
X74430Y-48240D02*
X74230Y-48240D01*
X74030Y-48540D02*
X73830Y-48540D01*
X73830Y-48540D02*
X73830Y-48240D01*
X73830Y-48240D02*
X74030Y-48240D01*
X74700Y-47690D02*
X74700Y-47890D01*
X74700Y-47890D02*
X75000Y-47890D01*
X75000Y-47890D02*
X75000Y-47690D01*
X74700Y-47490D02*
X74700Y-47290D01*
X74700Y-47290D02*
X75000Y-47290D01*
X75000Y-47290D02*
X75000Y-47490D01*
G54D19*
X81870Y-52760D02*
X81870Y-51560D01*
X81870Y-51560D02*
X82170Y-51560D01*
X82170Y-51560D02*
X82170Y-52760D01*
X82170Y-52760D02*
X81870Y-52760D01*
X81680Y-50340D02*
X81680Y-49140D01*
X81680Y-49140D02*
X81980Y-49140D01*
X81980Y-49140D02*
X81980Y-50340D01*
X81980Y-50340D02*
X81680Y-50340D01*
G54D15*
X82140Y-53570D02*
X81940Y-53570D01*
X81940Y-53570D02*
X81940Y-53870D01*
X81940Y-53870D02*
X82140Y-53870D01*
X82340Y-53570D02*
X82540Y-53570D01*
X82540Y-53570D02*
X82540Y-53870D01*
X82540Y-53870D02*
X82340Y-53870D01*
X74210Y-52690D02*
X74410Y-52690D01*
X74410Y-52690D02*
X74410Y-52390D01*
X74410Y-52390D02*
X74210Y-52390D01*
X74010Y-52690D02*
X73810Y-52690D01*
X73810Y-52690D02*
X73810Y-52390D01*
X73810Y-52390D02*
X74010Y-52390D01*
X74801Y-51882D02*
X74601Y-51882D01*
X74601Y-51882D02*
X74601Y-52182D01*
X74601Y-52182D02*
X74801Y-52182D01*
X75001Y-51882D02*
X75201Y-51882D01*
X75201Y-51882D02*
X75201Y-52182D01*
X75201Y-52182D02*
X75001Y-52182D01*
X74210Y-52180D02*
X74410Y-52180D01*
X74410Y-52180D02*
X74410Y-51880D01*
X74410Y-51880D02*
X74210Y-51880D01*
X74010Y-52180D02*
X73810Y-52180D01*
X73810Y-52180D02*
X73810Y-51880D01*
X73810Y-51880D02*
X74010Y-51880D01*
X81160Y-52330D02*
X81160Y-52130D01*
X81160Y-52130D02*
X80860Y-52130D01*
X80860Y-52130D02*
X80860Y-52330D01*
X81160Y-52530D02*
X81160Y-52730D01*
X81160Y-52730D02*
X80860Y-52730D01*
X80860Y-52730D02*
X80860Y-52530D01*
X80960Y-49900D02*
X80960Y-49700D01*
X80960Y-49700D02*
X80660Y-49700D01*
X80660Y-49700D02*
X80660Y-49900D01*
X80960Y-50100D02*
X80960Y-50300D01*
X80960Y-50300D02*
X80660Y-50300D01*
X80660Y-50300D02*
X80660Y-50100D01*
X82140Y-53040D02*
X81940Y-53040D01*
X81940Y-53040D02*
X81940Y-53340D01*
X81940Y-53340D02*
X82140Y-53340D01*
X82340Y-53040D02*
X82540Y-53040D01*
X82540Y-53040D02*
X82540Y-53340D01*
X82540Y-53340D02*
X82340Y-53340D01*
X82130Y-50574D02*
X82130Y-50774D01*
X82130Y-50774D02*
X82430Y-50774D01*
X82430Y-50774D02*
X82430Y-50574D01*
X82130Y-50374D02*
X82130Y-50174D01*
X82130Y-50174D02*
X82430Y-50174D01*
X82430Y-50174D02*
X82430Y-50374D01*
X81390Y-50550D02*
X81190Y-50550D01*
X81190Y-50550D02*
X81190Y-50850D01*
X81190Y-50850D02*
X81390Y-50850D01*
X81590Y-50550D02*
X81790Y-50550D01*
X81790Y-50550D02*
X81790Y-50850D01*
X81790Y-50850D02*
X81590Y-50850D01*
X74933Y-50355D02*
X74733Y-50355D01*
X74733Y-50355D02*
X74733Y-50655D01*
X74733Y-50655D02*
X74933Y-50655D01*
X75133Y-50355D02*
X75333Y-50355D01*
X75333Y-50355D02*
X75333Y-50655D01*
X75333Y-50655D02*
X75133Y-50655D01*
X74933Y-50978D02*
X74733Y-50978D01*
X74733Y-50978D02*
X74733Y-51278D01*
X74733Y-51278D02*
X74933Y-51278D01*
X75133Y-50978D02*
X75333Y-50978D01*
X75333Y-50978D02*
X75333Y-51278D01*
X75333Y-51278D02*
X75133Y-51278D01*
X77100Y-55350D02*
X77300Y-55350D01*
X77300Y-55350D02*
X77300Y-55050D01*
X77300Y-55050D02*
X77100Y-55050D01*
X76900Y-55350D02*
X76700Y-55350D01*
X76700Y-55350D02*
X76700Y-55050D01*
X76700Y-55050D02*
X76900Y-55050D01*
G54D13*
X74562Y-50984D02*
X74562Y-49424D01*
X74562Y-49424D02*
X72662Y-49424D01*
X72662Y-49424D02*
X72662Y-50984D01*
X72662Y-50984D02*
X74562Y-50984D01*
X74362Y-50984D02*
X74362Y-51414D01*
X73862Y-50984D02*
X73862Y-51414D01*
X73362Y-50984D02*
X73362Y-51414D01*
X72862Y-51414D02*
X72862Y-50984D01*
X72862Y-49424D02*
X72862Y-48994D01*
X73362Y-48994D02*
X73362Y-49424D01*
X73862Y-48994D02*
X73862Y-49424D01*
X74362Y-48994D02*
X74362Y-49424D01*
X74458Y-49714D02*
G75*
G03X74458Y-49714I-186J0D01*
G74*
G01*
X73565Y-51864D02*
X72665Y-51864D01*
X72665Y-51864D02*
X72665Y-52514D01*
X73565Y-53214D02*
X73565Y-53864D01*
X73565Y-53864D02*
X72665Y-53864D01*
X72665Y-53864D02*
X72665Y-53214D01*
X73565Y-52514D02*
X73565Y-51864D01*
M02*
