G04 (created by PCBNEW (2013-07-07 BZR 4022)-stable) date 6/15/2015 10:21:50 PM*
%MOIN*%
G04 Gerber Fmt 3.4, Leading zero omitted, Abs format*
%FSLAX34Y34*%
G01*
G70*
G90*
G04 APERTURE LIST*
%ADD10C,0.00590551*%
%ADD11C,0.00393701*%
%ADD12R,0.036X0.036*%
%ADD13R,0.035X0.055*%
%ADD14R,0.0157X0.0236*%
%ADD15R,0.0236X0.0157*%
%ADD16R,0.0314X0.0314*%
%ADD17R,0.0393701X0.023622*%
%ADD18R,0.023622X0.0393701*%
%ADD19R,0.015748X0.0531496*%
%ADD20C,0.0669291*%
%ADD21C,0.0216535*%
%ADD22R,0.0590551X0.0393701*%
%ADD23R,0.053937X0.0846457*%
%ADD24R,0.0394X0.0236*%
%ADD25R,0.025X0.05*%
%ADD26C,0.07*%
%ADD27R,0.08X0.06*%
%ADD28C,0.03*%
%ADD29C,0.01*%
%ADD30C,0.02*%
G04 APERTURE END LIST*
G54D10*
G54D11*
X84500Y-52000D02*
G75*
G03X84500Y-52000I-6500J0D01*
G74*
G01*
G54D12*
X75950Y-56700D03*
X75250Y-56700D03*
X75600Y-55900D03*
G54D13*
X74575Y-56000D03*
X73825Y-56000D03*
X73395Y-55215D03*
X74145Y-55215D03*
G54D14*
X74291Y-53543D03*
X73937Y-53543D03*
G54D15*
X75194Y-55032D03*
X75194Y-55386D03*
G54D14*
X82353Y-48140D03*
X82707Y-48140D03*
X82363Y-48640D03*
X82717Y-48640D03*
G54D15*
X75698Y-55379D03*
X75698Y-55025D03*
X74700Y-55377D03*
X74700Y-55023D03*
G54D14*
X73937Y-53051D03*
X74291Y-53051D03*
G54D15*
X81354Y-54885D03*
X81354Y-55239D03*
G54D16*
X81875Y-48650D03*
X81285Y-48650D03*
X81875Y-48090D03*
X81285Y-48090D03*
G54D17*
X75702Y-46398D03*
X75702Y-46712D03*
X75702Y-47027D03*
X75702Y-47342D03*
X75702Y-47657D03*
X75702Y-47972D03*
X75702Y-48287D03*
X75702Y-48602D03*
X75702Y-48917D03*
X75702Y-49232D03*
X75702Y-49547D03*
X75702Y-49862D03*
X75702Y-50177D03*
X75702Y-50492D03*
X75702Y-50807D03*
X75702Y-51122D03*
X75702Y-51437D03*
X75702Y-51752D03*
X75702Y-52067D03*
X75702Y-52382D03*
X75702Y-52697D03*
G54D18*
X76095Y-53090D03*
X76410Y-53090D03*
X76725Y-53090D03*
X77040Y-53090D03*
X77355Y-53090D03*
X77670Y-53090D03*
X77985Y-53090D03*
X78300Y-53090D03*
X78615Y-53090D03*
X78930Y-53090D03*
X79245Y-53090D03*
X79560Y-53090D03*
X79875Y-53090D03*
G54D17*
X80268Y-52697D03*
X80268Y-52382D03*
X80268Y-52067D03*
X80268Y-51752D03*
X80268Y-51437D03*
X80268Y-51122D03*
X80268Y-50807D03*
X80268Y-50492D03*
X80268Y-50177D03*
X80268Y-49862D03*
X80268Y-49547D03*
X80268Y-49232D03*
X80268Y-48917D03*
X80268Y-48602D03*
X80268Y-48287D03*
X80268Y-47972D03*
X80268Y-47657D03*
G54D19*
X77500Y-56142D03*
X77756Y-56142D03*
X78012Y-56142D03*
X78267Y-56142D03*
X78523Y-56142D03*
G54D20*
X76624Y-57195D03*
X79399Y-57195D03*
G54D21*
X77224Y-56348D03*
X78799Y-56348D03*
G54D22*
X78430Y-54850D03*
X78430Y-54100D03*
G54D14*
X74291Y-54035D03*
X73937Y-54035D03*
G54D15*
X79210Y-55253D03*
X79210Y-55607D03*
G54D23*
X75885Y-54133D03*
X77263Y-54133D03*
G54D24*
X80726Y-55635D03*
X79894Y-55260D03*
X80726Y-54885D03*
G54D15*
X74350Y-47767D03*
X74350Y-47413D03*
G54D14*
X74307Y-48390D03*
X73953Y-48390D03*
G54D15*
X74850Y-47767D03*
X74850Y-47413D03*
G54D12*
X81620Y-52510D03*
X81620Y-51810D03*
X82420Y-52160D03*
X81430Y-50090D03*
X81430Y-49390D03*
X82230Y-49740D03*
G54D14*
X82063Y-53720D03*
X82417Y-53720D03*
X74287Y-52540D03*
X73933Y-52540D03*
X74724Y-52032D03*
X75078Y-52032D03*
X74287Y-52030D03*
X73933Y-52030D03*
G54D15*
X81010Y-52253D03*
X81010Y-52607D03*
X80810Y-49823D03*
X80810Y-50177D03*
G54D14*
X82063Y-53190D03*
X82417Y-53190D03*
G54D15*
X82280Y-50651D03*
X82280Y-50297D03*
G54D14*
X81313Y-50700D03*
X81667Y-50700D03*
X74856Y-50505D03*
X75210Y-50505D03*
X74856Y-51128D03*
X75210Y-51128D03*
X77177Y-55200D03*
X76823Y-55200D03*
G54D25*
X74362Y-49104D03*
X73862Y-49104D03*
X73362Y-49104D03*
X72862Y-49104D03*
X72862Y-51304D03*
X73362Y-51304D03*
X73862Y-51304D03*
X74362Y-51304D03*
G54D26*
X83226Y-49414D03*
X83226Y-50414D03*
X83226Y-51414D03*
X83226Y-52414D03*
X83226Y-53414D03*
X83226Y-54414D03*
G54D27*
X73115Y-52214D03*
X73115Y-53514D03*
G54D28*
X74305Y-50596D03*
X75000Y-48917D03*
X76377Y-48917D03*
X79760Y-50190D03*
X81680Y-51240D03*
X81585Y-53186D03*
X82485Y-51195D03*
X78000Y-55500D03*
X78617Y-53578D03*
X76699Y-50393D03*
X76650Y-51674D03*
X76470Y-52530D03*
X75159Y-54257D03*
X78183Y-53599D03*
X74700Y-56700D03*
X79702Y-50869D03*
X80879Y-53487D03*
X81225Y-56150D03*
X76890Y-48540D03*
X76910Y-48110D03*
X77445Y-48570D03*
X79650Y-52050D03*
X80770Y-48090D03*
X79730Y-51430D03*
X80770Y-48640D03*
X73380Y-48435D03*
X79724Y-47637D03*
X81162Y-53172D03*
X81210Y-51230D03*
X73326Y-54429D03*
X79800Y-56000D03*
X75100Y-55900D03*
X79180Y-54020D03*
X77980Y-52100D03*
G54D29*
X74343Y-50557D02*
X74305Y-50596D01*
X74343Y-49976D02*
X74343Y-50557D01*
X80726Y-54885D02*
X80726Y-54546D01*
X79560Y-53380D02*
X79560Y-53090D01*
X80726Y-54546D02*
X79560Y-53380D01*
X79560Y-53090D02*
X79560Y-52750D01*
X79250Y-52440D02*
X79250Y-51360D01*
X79560Y-52750D02*
X79250Y-52440D01*
X74350Y-47767D02*
X74850Y-47767D01*
X74850Y-47767D02*
X74850Y-48767D01*
X74850Y-48767D02*
X75000Y-48917D01*
X82717Y-48640D02*
X82717Y-48973D01*
X81630Y-49190D02*
X81430Y-49390D01*
X82500Y-49190D02*
X81630Y-49190D01*
X82717Y-48973D02*
X82500Y-49190D01*
X82707Y-48140D02*
X82707Y-48630D01*
X82707Y-48630D02*
X82717Y-48640D01*
X79427Y-49862D02*
X79402Y-49862D01*
X75000Y-49320D02*
X74343Y-49976D01*
X77230Y-48917D02*
X76377Y-48917D01*
X75000Y-48917D02*
X75000Y-49320D01*
X77550Y-48920D02*
X77230Y-48920D01*
X77230Y-48920D02*
X77230Y-48917D01*
X78460Y-48920D02*
X77550Y-48920D01*
X79402Y-49862D02*
X78460Y-48920D01*
X79250Y-51360D02*
X79250Y-50040D01*
X79250Y-50040D02*
X79427Y-49862D01*
X79760Y-50190D02*
X79432Y-49862D01*
X79432Y-49862D02*
X79427Y-49862D01*
X79427Y-49862D02*
X79412Y-49862D01*
X80268Y-49862D02*
X79412Y-49862D01*
X81354Y-54885D02*
X80726Y-54885D01*
X81620Y-51810D02*
X81620Y-51300D01*
X81620Y-51300D02*
X81680Y-51240D01*
X81620Y-51810D02*
X81453Y-51810D01*
X81453Y-51810D02*
X81010Y-52253D01*
X81430Y-49390D02*
X81243Y-49390D01*
X81243Y-49390D02*
X80810Y-49823D01*
X80810Y-49823D02*
X80308Y-49823D01*
X80308Y-49823D02*
X80268Y-49862D01*
X79250Y-51360D02*
X79250Y-51320D01*
X74343Y-49976D02*
X73362Y-50958D01*
X73362Y-50958D02*
X73362Y-51304D01*
X82485Y-51195D02*
X83007Y-51195D01*
X83007Y-51195D02*
X83226Y-51414D01*
X82280Y-50651D02*
X82280Y-50990D01*
X81589Y-53190D02*
X82063Y-53190D01*
X81585Y-53186D02*
X81589Y-53190D01*
X82280Y-50990D02*
X82485Y-51195D01*
X77453Y-55476D02*
X77177Y-55200D01*
X77500Y-55476D02*
X77453Y-55476D01*
X77177Y-55200D02*
X77700Y-55200D01*
X77700Y-55200D02*
X78000Y-55500D01*
X76134Y-55881D02*
X76134Y-55631D01*
X76241Y-55881D02*
X76134Y-55881D01*
G54D30*
X76900Y-55881D02*
X76241Y-55881D01*
G54D29*
X75882Y-55379D02*
X75698Y-55379D01*
X76134Y-55631D02*
X75882Y-55379D01*
X78615Y-53576D02*
X78615Y-53090D01*
X78617Y-53578D02*
X78615Y-53576D01*
X77500Y-56142D02*
X77500Y-55476D01*
X77500Y-55476D02*
X77500Y-55450D01*
G54D30*
X76064Y-56615D02*
X76798Y-55881D01*
X76798Y-55881D02*
X76900Y-55881D01*
X76060Y-56615D02*
X76064Y-56615D01*
G54D29*
X77099Y-55881D02*
X77239Y-55881D01*
G54D30*
X76900Y-55881D02*
X77099Y-55881D01*
G54D29*
X77239Y-55881D02*
X77500Y-56142D01*
X75950Y-56700D02*
X75835Y-56640D01*
X75835Y-56640D02*
X76060Y-56615D01*
X75698Y-55379D02*
X75201Y-55379D01*
X75201Y-55379D02*
X75194Y-55386D01*
X76710Y-50382D02*
X76710Y-50383D01*
X76670Y-51694D02*
X76650Y-51674D01*
X76670Y-52330D02*
X76670Y-51694D01*
X76470Y-52530D02*
X76670Y-52330D01*
X75194Y-54292D02*
X75159Y-54257D01*
X75194Y-55032D02*
X75194Y-54292D01*
X75702Y-49862D02*
X76192Y-49862D01*
X75292Y-54932D02*
X75194Y-55032D01*
X76710Y-50380D02*
X76192Y-49862D01*
X78300Y-53090D02*
X78300Y-53481D01*
X78300Y-53481D02*
X78183Y-53599D01*
X75250Y-56700D02*
X74700Y-56700D01*
X80268Y-51122D02*
X79955Y-51122D01*
X79955Y-51122D02*
X79702Y-50869D01*
X82063Y-53720D02*
X81638Y-53720D01*
X81405Y-53487D02*
X80879Y-53487D01*
X81638Y-53720D02*
X81405Y-53487D01*
X75702Y-47342D02*
X76322Y-47342D01*
X76890Y-48540D02*
X77415Y-48540D01*
X76905Y-48525D02*
X76890Y-48540D01*
X76322Y-47342D02*
X76910Y-48110D01*
X76910Y-48110D02*
X76905Y-48525D01*
X77415Y-48540D02*
X77445Y-48570D01*
X81285Y-48090D02*
X80770Y-48090D01*
X79667Y-52067D02*
X80268Y-52067D01*
X79650Y-52050D02*
X79667Y-52067D01*
X80052Y-51752D02*
X80268Y-51752D01*
X79730Y-51430D02*
X80052Y-51752D01*
X81285Y-48650D02*
X80780Y-48650D01*
X80780Y-48650D02*
X80770Y-48640D01*
X74307Y-48390D02*
X74307Y-49049D01*
X74307Y-49049D02*
X74362Y-49104D01*
X74287Y-52030D02*
X74287Y-52540D01*
X74287Y-52030D02*
X74722Y-52030D01*
X74722Y-52030D02*
X74724Y-52032D01*
X74287Y-52030D02*
X74287Y-51379D01*
X74287Y-51379D02*
X74362Y-51304D01*
X82363Y-48640D02*
X81885Y-48640D01*
X81885Y-48640D02*
X81875Y-48650D01*
X73933Y-52030D02*
X73299Y-52030D01*
X73299Y-52030D02*
X73115Y-52214D01*
X73933Y-52030D02*
X73933Y-51375D01*
X73933Y-51375D02*
X73862Y-51304D01*
X73115Y-52489D02*
X73426Y-52489D01*
X73426Y-52489D02*
X73536Y-52030D01*
X74291Y-53051D02*
X74704Y-53051D01*
X78078Y-54850D02*
X78430Y-54850D01*
X77854Y-54625D02*
X78078Y-54850D01*
X77854Y-53740D02*
X77854Y-54625D01*
X77657Y-53543D02*
X77854Y-53740D01*
X75196Y-53543D02*
X77657Y-53543D01*
X74704Y-53051D02*
X75196Y-53543D01*
X73115Y-53514D02*
X73907Y-53514D01*
X73907Y-53514D02*
X73937Y-53543D01*
X73115Y-53239D02*
X73294Y-53239D01*
X73294Y-53239D02*
X73410Y-53355D01*
X73937Y-53051D02*
X73937Y-53543D01*
X74291Y-54035D02*
X74507Y-54035D01*
X75590Y-53838D02*
X75885Y-54133D01*
X74704Y-53838D02*
X75590Y-53838D01*
X74507Y-54035D02*
X74704Y-53838D01*
X74291Y-53543D02*
X74291Y-54035D01*
X74856Y-51128D02*
X74856Y-51476D01*
X75078Y-51698D02*
X75078Y-52032D01*
X74856Y-51476D02*
X75078Y-51698D01*
X74856Y-51128D02*
X74849Y-50512D01*
X74849Y-50512D02*
X74856Y-50505D01*
X82360Y-51680D02*
X82710Y-51680D01*
X81667Y-50747D02*
X82110Y-51190D01*
X82110Y-51190D02*
X82110Y-51430D01*
X82110Y-51430D02*
X82360Y-51680D01*
X81667Y-50700D02*
X81667Y-50747D01*
X83226Y-52196D02*
X83226Y-52414D01*
X82710Y-51680D02*
X83226Y-52196D01*
X82280Y-50297D02*
X83109Y-50297D01*
X83109Y-50297D02*
X83226Y-50414D01*
X82280Y-50297D02*
X82280Y-49790D01*
X82280Y-49790D02*
X82230Y-49740D01*
X82417Y-53720D02*
X82532Y-53720D01*
X82532Y-53720D02*
X83226Y-54414D01*
X82449Y-53752D02*
X82417Y-53720D01*
X82417Y-53720D02*
X82417Y-53751D01*
X82417Y-53190D02*
X83002Y-53190D01*
X83002Y-53190D02*
X83226Y-53414D01*
X82441Y-53214D02*
X82417Y-53190D01*
X82420Y-52160D02*
X82420Y-53187D01*
X82420Y-53187D02*
X82417Y-53190D01*
X82417Y-53190D02*
X82452Y-53190D01*
X82420Y-53187D02*
X82417Y-53190D01*
X81875Y-48090D02*
X82303Y-48090D01*
X82303Y-48090D02*
X82353Y-48140D01*
X74700Y-55377D02*
X74307Y-55377D01*
X74307Y-55377D02*
X74145Y-55215D01*
X73380Y-48435D02*
X73362Y-48453D01*
X73362Y-48453D02*
X73362Y-49104D01*
X80268Y-47657D02*
X79744Y-47657D01*
X79744Y-47657D02*
X79724Y-47637D01*
X81430Y-50090D02*
X81260Y-50090D01*
X81173Y-50177D02*
X80810Y-50177D01*
X81260Y-50090D02*
X81173Y-50177D01*
X80810Y-50177D02*
X80269Y-50177D01*
X80269Y-50177D02*
X80268Y-50177D01*
X81313Y-50700D02*
X80807Y-50700D01*
X80599Y-50492D02*
X80268Y-50492D01*
X80807Y-50700D02*
X80599Y-50492D01*
X75210Y-50505D02*
X75689Y-50505D01*
X75689Y-50505D02*
X75702Y-50492D01*
X75210Y-51128D02*
X75700Y-51121D01*
X75700Y-51121D02*
X75702Y-51122D01*
X81248Y-53086D02*
X81248Y-52607D01*
X81162Y-53172D02*
X81248Y-53086D01*
X80547Y-50807D02*
X80268Y-50807D01*
X80760Y-51020D02*
X80547Y-50807D01*
X81000Y-51020D02*
X80760Y-51020D01*
X81210Y-51230D02*
X81000Y-51020D01*
X81010Y-52607D02*
X81248Y-52607D01*
X81248Y-52607D02*
X81523Y-52607D01*
X81523Y-52607D02*
X81620Y-52510D01*
G54D30*
X73326Y-54429D02*
X73395Y-54497D01*
X73395Y-54497D02*
X73395Y-55215D01*
G54D29*
X79894Y-55260D02*
X79894Y-54071D01*
X79245Y-53422D02*
X79245Y-53090D01*
X79894Y-54071D02*
X79245Y-53422D01*
G54D30*
X79800Y-55384D02*
X79800Y-56000D01*
X79892Y-55262D02*
X79800Y-55384D01*
X79894Y-55260D02*
X79218Y-55261D01*
G54D29*
X79245Y-55217D02*
X79210Y-55253D01*
G54D30*
X79218Y-55261D02*
X79210Y-55253D01*
G54D29*
X73825Y-56000D02*
X73700Y-56000D01*
X73395Y-55695D02*
X73395Y-55215D01*
X73700Y-56000D02*
X73395Y-55695D01*
X79180Y-54020D02*
X78930Y-53770D01*
X78930Y-53770D02*
X78930Y-53090D01*
X75100Y-55900D02*
X74675Y-55900D01*
X74675Y-55900D02*
X74575Y-56000D01*
X75600Y-55900D02*
X75100Y-55900D01*
X77985Y-52105D02*
X77980Y-52100D01*
X77985Y-52350D02*
X77985Y-52105D01*
X77985Y-52344D02*
X77985Y-52350D01*
X77985Y-52350D02*
X77985Y-52380D01*
X77985Y-52380D02*
X77985Y-53090D01*
G54D10*
G36*
X84330Y-51992D02*
X84208Y-53229D01*
X83851Y-54411D01*
X83271Y-55502D01*
X82491Y-56459D01*
X81539Y-57247D01*
X80452Y-57834D01*
X79884Y-58010D01*
X79884Y-57147D01*
X79866Y-57054D01*
X79829Y-56966D01*
X79777Y-56887D01*
X79710Y-56820D01*
X79631Y-56766D01*
X79543Y-56730D01*
X79450Y-56711D01*
X79355Y-56710D01*
X79262Y-56728D01*
X79174Y-56763D01*
X79094Y-56815D01*
X79057Y-56852D01*
X79057Y-56323D01*
X79047Y-56273D01*
X79028Y-56227D01*
X79000Y-56184D01*
X78964Y-56148D01*
X78922Y-56120D01*
X78875Y-56100D01*
X78826Y-56090D01*
X78775Y-56090D01*
X78725Y-56099D01*
X78678Y-56118D01*
X78636Y-56146D01*
X78600Y-56182D01*
X78571Y-56223D01*
X78551Y-56270D01*
X78541Y-56319D01*
X78540Y-56370D01*
X78549Y-56420D01*
X78568Y-56467D01*
X78595Y-56510D01*
X78630Y-56546D01*
X78672Y-56575D01*
X78718Y-56595D01*
X78768Y-56606D01*
X78818Y-56607D01*
X78868Y-56598D01*
X78916Y-56580D01*
X78958Y-56553D01*
X78995Y-56518D01*
X79024Y-56477D01*
X79045Y-56430D01*
X79056Y-56381D01*
X79057Y-56323D01*
X79057Y-56852D01*
X79026Y-56882D01*
X78973Y-56960D01*
X78935Y-57048D01*
X78915Y-57141D01*
X78914Y-57236D01*
X78931Y-57329D01*
X78966Y-57417D01*
X79018Y-57497D01*
X79084Y-57566D01*
X79162Y-57620D01*
X79249Y-57658D01*
X79342Y-57678D01*
X79437Y-57680D01*
X79530Y-57664D01*
X79619Y-57630D01*
X79699Y-57579D01*
X79768Y-57513D01*
X79823Y-57435D01*
X79861Y-57349D01*
X79882Y-57256D01*
X79884Y-57147D01*
X79884Y-58010D01*
X79272Y-58200D01*
X78044Y-58329D01*
X76813Y-58217D01*
X75628Y-57868D01*
X74534Y-57296D01*
X73571Y-56522D01*
X72777Y-55575D01*
X72182Y-54493D01*
X71808Y-53315D01*
X71671Y-52088D01*
X71774Y-50857D01*
X72114Y-49669D01*
X72679Y-48571D01*
X73446Y-47603D01*
X74387Y-46802D01*
X75465Y-46199D01*
X76640Y-45818D01*
X77115Y-45761D01*
X77115Y-47354D01*
X79610Y-47360D01*
X79584Y-47370D01*
X79535Y-47402D01*
X79493Y-47444D01*
X79460Y-47492D01*
X79437Y-47546D01*
X79424Y-47604D01*
X79424Y-47663D01*
X79434Y-47720D01*
X79456Y-47775D01*
X79488Y-47825D01*
X79529Y-47867D01*
X79577Y-47900D01*
X79631Y-47924D01*
X79688Y-47937D01*
X79747Y-47938D01*
X79805Y-47928D01*
X79860Y-47906D01*
X79910Y-47875D01*
X79922Y-47863D01*
X79921Y-47868D01*
X79922Y-48105D01*
X79926Y-48130D01*
X79922Y-48153D01*
X79921Y-48183D01*
X79922Y-48420D01*
X79926Y-48445D01*
X79922Y-48468D01*
X79921Y-48498D01*
X79922Y-48735D01*
X79926Y-48760D01*
X79922Y-48783D01*
X79921Y-48813D01*
X79922Y-49050D01*
X79926Y-49075D01*
X79922Y-49098D01*
X79921Y-49128D01*
X79922Y-49365D01*
X79926Y-49390D01*
X79922Y-49413D01*
X79921Y-49443D01*
X79922Y-49662D01*
X79485Y-49662D01*
X78601Y-48778D01*
X78587Y-48766D01*
X78572Y-48754D01*
X78572Y-48754D01*
X78571Y-48753D01*
X78554Y-48745D01*
X78538Y-48736D01*
X78537Y-48735D01*
X78536Y-48735D01*
X78519Y-48729D01*
X78501Y-48724D01*
X78500Y-48724D01*
X78499Y-48723D01*
X78481Y-48722D01*
X78462Y-48720D01*
X78460Y-48720D01*
X78460Y-48720D01*
X78460Y-48720D01*
X78460Y-48720D01*
X77550Y-48720D01*
X77256Y-48720D01*
X77251Y-48719D01*
X77232Y-48717D01*
X77231Y-48717D01*
X77231Y-48717D01*
X77231Y-48717D01*
X77230Y-48717D01*
X76602Y-48717D01*
X76570Y-48685D01*
X76521Y-48652D01*
X76467Y-48629D01*
X76409Y-48617D01*
X76350Y-48617D01*
X76292Y-48628D01*
X76238Y-48650D01*
X76189Y-48682D01*
X76147Y-48723D01*
X76113Y-48772D01*
X76090Y-48826D01*
X76078Y-48883D01*
X76077Y-48942D01*
X76088Y-49000D01*
X76109Y-49055D01*
X76141Y-49104D01*
X76182Y-49146D01*
X76230Y-49180D01*
X76284Y-49204D01*
X76342Y-49216D01*
X76401Y-49217D01*
X76459Y-49207D01*
X76513Y-49186D01*
X76563Y-49154D01*
X76602Y-49117D01*
X77203Y-49117D01*
X77208Y-49117D01*
X77227Y-49119D01*
X77228Y-49119D01*
X77228Y-49119D01*
X77228Y-49119D01*
X77230Y-49120D01*
X77550Y-49120D01*
X78377Y-49120D01*
X79132Y-49875D01*
X79108Y-49898D01*
X79096Y-49912D01*
X79084Y-49927D01*
X79084Y-49927D01*
X79083Y-49928D01*
X79075Y-49945D01*
X79066Y-49961D01*
X79065Y-49962D01*
X79065Y-49963D01*
X79059Y-49980D01*
X79054Y-49998D01*
X79054Y-49999D01*
X79053Y-50000D01*
X79052Y-50018D01*
X79050Y-50037D01*
X79050Y-50039D01*
X79050Y-50039D01*
X79050Y-50039D01*
X79050Y-50040D01*
X79050Y-51320D01*
X79050Y-51360D01*
X79050Y-52440D01*
X79051Y-52458D01*
X79053Y-52476D01*
X79053Y-52477D01*
X79053Y-52478D01*
X79059Y-52496D01*
X79064Y-52514D01*
X79064Y-52515D01*
X79065Y-52516D01*
X79073Y-52532D01*
X79082Y-52548D01*
X79082Y-52549D01*
X79083Y-52550D01*
X79095Y-52565D01*
X79106Y-52579D01*
X79108Y-52580D01*
X79108Y-52580D01*
X79108Y-52580D01*
X79108Y-52581D01*
X79271Y-52743D01*
X79112Y-52744D01*
X79087Y-52748D01*
X79064Y-52744D01*
X79034Y-52743D01*
X78797Y-52744D01*
X78772Y-52748D01*
X78749Y-52744D01*
X78719Y-52743D01*
X78482Y-52744D01*
X78457Y-52748D01*
X78434Y-52744D01*
X78404Y-52743D01*
X78185Y-52744D01*
X78185Y-52380D01*
X78185Y-52350D01*
X78185Y-52344D01*
X78185Y-52318D01*
X78208Y-52296D01*
X78242Y-52248D01*
X78266Y-52195D01*
X78279Y-52137D01*
X78280Y-52070D01*
X78268Y-52012D01*
X78246Y-51958D01*
X78213Y-51909D01*
X78172Y-51867D01*
X78123Y-51834D01*
X78069Y-51812D01*
X78011Y-51800D01*
X77952Y-51799D01*
X77894Y-51810D01*
X77840Y-51832D01*
X77791Y-51865D01*
X77749Y-51906D01*
X77715Y-51954D01*
X77692Y-52008D01*
X77680Y-52066D01*
X77679Y-52125D01*
X77690Y-52183D01*
X77711Y-52237D01*
X77743Y-52287D01*
X77784Y-52329D01*
X77785Y-52330D01*
X77785Y-52344D01*
X77785Y-52350D01*
X77785Y-52380D01*
X77785Y-52768D01*
X77772Y-52777D01*
X77751Y-52797D01*
X77734Y-52822D01*
X77723Y-52849D01*
X77717Y-52878D01*
X77717Y-52907D01*
X77717Y-53302D01*
X77723Y-53331D01*
X77734Y-53358D01*
X77734Y-53358D01*
X77734Y-53358D01*
X77716Y-53353D01*
X77699Y-53347D01*
X77698Y-53347D01*
X77697Y-53347D01*
X77678Y-53345D01*
X77660Y-53343D01*
X77658Y-53343D01*
X77658Y-53343D01*
X77658Y-53343D01*
X77657Y-53343D01*
X77613Y-53343D01*
X77617Y-53332D01*
X77623Y-53303D01*
X77623Y-53274D01*
X77623Y-52879D01*
X77617Y-52850D01*
X77606Y-52823D01*
X77590Y-52798D01*
X77569Y-52777D01*
X77545Y-52761D01*
X77518Y-52750D01*
X77489Y-52744D01*
X77459Y-52743D01*
X77222Y-52744D01*
X77197Y-52748D01*
X77174Y-52744D01*
X77145Y-52743D01*
X76907Y-52744D01*
X76882Y-52748D01*
X76859Y-52744D01*
X76830Y-52743D01*
X76680Y-52744D01*
X76698Y-52726D01*
X76732Y-52678D01*
X76756Y-52625D01*
X76769Y-52567D01*
X76769Y-52513D01*
X76811Y-52471D01*
X76823Y-52457D01*
X76835Y-52442D01*
X76835Y-52442D01*
X76836Y-52441D01*
X76844Y-52424D01*
X76853Y-52408D01*
X76854Y-52407D01*
X76854Y-52406D01*
X76860Y-52389D01*
X76865Y-52371D01*
X76865Y-52370D01*
X76866Y-52369D01*
X76867Y-52351D01*
X76869Y-52332D01*
X76869Y-52330D01*
X76869Y-52330D01*
X76869Y-52330D01*
X76870Y-52330D01*
X76870Y-51878D01*
X76878Y-51870D01*
X76912Y-51822D01*
X76936Y-51769D01*
X76949Y-51711D01*
X76950Y-51644D01*
X76938Y-51586D01*
X76916Y-51532D01*
X76883Y-51483D01*
X76842Y-51441D01*
X76793Y-51408D01*
X76739Y-51386D01*
X76681Y-51374D01*
X76622Y-51373D01*
X76564Y-51384D01*
X76510Y-51406D01*
X76461Y-51439D01*
X76419Y-51480D01*
X76385Y-51528D01*
X76362Y-51582D01*
X76350Y-51640D01*
X76349Y-51699D01*
X76360Y-51757D01*
X76381Y-51811D01*
X76413Y-51861D01*
X76454Y-51903D01*
X76470Y-51914D01*
X76470Y-52229D01*
X76442Y-52229D01*
X76384Y-52240D01*
X76330Y-52262D01*
X76281Y-52295D01*
X76239Y-52336D01*
X76205Y-52384D01*
X76182Y-52438D01*
X76170Y-52496D01*
X76169Y-52555D01*
X76180Y-52613D01*
X76201Y-52667D01*
X76233Y-52717D01*
X76262Y-52747D01*
X76248Y-52749D01*
X76221Y-52760D01*
X76197Y-52777D01*
X76176Y-52797D01*
X76159Y-52822D01*
X76148Y-52849D01*
X76142Y-52878D01*
X76142Y-52907D01*
X76142Y-53302D01*
X76148Y-53331D01*
X76153Y-53343D01*
X75279Y-53343D01*
X74846Y-52909D01*
X74831Y-52898D01*
X74817Y-52886D01*
X74816Y-52885D01*
X74815Y-52884D01*
X74799Y-52876D01*
X74783Y-52867D01*
X74782Y-52867D01*
X74781Y-52866D01*
X74763Y-52861D01*
X74746Y-52855D01*
X74745Y-52855D01*
X74744Y-52855D01*
X74725Y-52853D01*
X74707Y-52851D01*
X74705Y-52851D01*
X74705Y-52851D01*
X74705Y-52851D01*
X74704Y-52851D01*
X74495Y-52851D01*
X74486Y-52837D01*
X74465Y-52817D01*
X74441Y-52800D01*
X74427Y-52794D01*
X74436Y-52791D01*
X74460Y-52774D01*
X74481Y-52754D01*
X74498Y-52729D01*
X74509Y-52702D01*
X74515Y-52673D01*
X74515Y-52644D01*
X74515Y-52407D01*
X74509Y-52378D01*
X74498Y-52351D01*
X74487Y-52333D01*
X74487Y-52236D01*
X74491Y-52230D01*
X74518Y-52230D01*
X74528Y-52245D01*
X74549Y-52266D01*
X74573Y-52282D01*
X74600Y-52293D01*
X74629Y-52299D01*
X74659Y-52300D01*
X74817Y-52300D01*
X74846Y-52294D01*
X74873Y-52283D01*
X74897Y-52266D01*
X74900Y-52263D01*
X74903Y-52266D01*
X74927Y-52282D01*
X74954Y-52293D01*
X74983Y-52299D01*
X75013Y-52300D01*
X75171Y-52300D01*
X75200Y-52294D01*
X75227Y-52283D01*
X75251Y-52266D01*
X75272Y-52246D01*
X75289Y-52221D01*
X75300Y-52194D01*
X75306Y-52165D01*
X75306Y-52136D01*
X75306Y-51899D01*
X75300Y-51870D01*
X75289Y-51843D01*
X75278Y-51825D01*
X75278Y-51698D01*
X75276Y-51679D01*
X75274Y-51661D01*
X75274Y-51660D01*
X75274Y-51659D01*
X75268Y-51641D01*
X75263Y-51623D01*
X75263Y-51622D01*
X75262Y-51621D01*
X75254Y-51605D01*
X75245Y-51589D01*
X75245Y-51588D01*
X75244Y-51587D01*
X75232Y-51572D01*
X75221Y-51558D01*
X75219Y-51557D01*
X75219Y-51557D01*
X75219Y-51557D01*
X75219Y-51556D01*
X75056Y-51393D01*
X75056Y-51376D01*
X75059Y-51378D01*
X75086Y-51389D01*
X75115Y-51395D01*
X75145Y-51396D01*
X75303Y-51396D01*
X75332Y-51390D01*
X75355Y-51380D01*
X75355Y-51570D01*
X75360Y-51595D01*
X75355Y-51618D01*
X75355Y-51647D01*
X75355Y-51885D01*
X75360Y-51909D01*
X75355Y-51933D01*
X75355Y-51962D01*
X75355Y-52200D01*
X75360Y-52224D01*
X75355Y-52248D01*
X75355Y-52277D01*
X75355Y-52515D01*
X75360Y-52539D01*
X75355Y-52563D01*
X75355Y-52592D01*
X75355Y-52830D01*
X75360Y-52858D01*
X75372Y-52886D01*
X75388Y-52910D01*
X75409Y-52931D01*
X75433Y-52947D01*
X75460Y-52959D01*
X75489Y-52965D01*
X75518Y-52965D01*
X75913Y-52965D01*
X75942Y-52959D01*
X75969Y-52948D01*
X75994Y-52932D01*
X76014Y-52911D01*
X76031Y-52887D01*
X76042Y-52859D01*
X76048Y-52831D01*
X76048Y-52801D01*
X76048Y-52564D01*
X76043Y-52539D01*
X76048Y-52516D01*
X76048Y-52486D01*
X76048Y-52249D01*
X76043Y-52224D01*
X76048Y-52201D01*
X76048Y-52171D01*
X76048Y-51934D01*
X76043Y-51909D01*
X76048Y-51886D01*
X76048Y-51856D01*
X76048Y-51619D01*
X76043Y-51594D01*
X76048Y-51571D01*
X76048Y-51541D01*
X76048Y-51304D01*
X76043Y-51279D01*
X76048Y-51256D01*
X76048Y-51226D01*
X76048Y-50989D01*
X76043Y-50964D01*
X76048Y-50941D01*
X76048Y-50911D01*
X76048Y-50674D01*
X76043Y-50649D01*
X76048Y-50626D01*
X76048Y-50596D01*
X76048Y-50359D01*
X76043Y-50334D01*
X76048Y-50311D01*
X76048Y-50281D01*
X76048Y-50062D01*
X76109Y-50062D01*
X76400Y-50353D01*
X76399Y-50359D01*
X76398Y-50418D01*
X76409Y-50476D01*
X76430Y-50530D01*
X76462Y-50580D01*
X76503Y-50622D01*
X76551Y-50656D01*
X76605Y-50679D01*
X76663Y-50692D01*
X76722Y-50693D01*
X76780Y-50683D01*
X76834Y-50662D01*
X76884Y-50630D01*
X76927Y-50589D01*
X76961Y-50541D01*
X76985Y-50488D01*
X76998Y-50430D01*
X76999Y-50363D01*
X76987Y-50305D01*
X76965Y-50251D01*
X76932Y-50202D01*
X76891Y-50160D01*
X76842Y-50127D01*
X76788Y-50105D01*
X76730Y-50093D01*
X76705Y-50093D01*
X76333Y-49721D01*
X76319Y-49709D01*
X76305Y-49697D01*
X76304Y-49697D01*
X76303Y-49696D01*
X76287Y-49687D01*
X76271Y-49678D01*
X76270Y-49678D01*
X76269Y-49677D01*
X76251Y-49672D01*
X76234Y-49666D01*
X76233Y-49666D01*
X76232Y-49666D01*
X76213Y-49664D01*
X76195Y-49662D01*
X76193Y-49662D01*
X76193Y-49662D01*
X76193Y-49662D01*
X76192Y-49662D01*
X76048Y-49662D01*
X76048Y-49337D01*
X76048Y-49099D01*
X76043Y-49074D01*
X76048Y-49051D01*
X76048Y-49022D01*
X76048Y-48784D01*
X76043Y-48760D01*
X76048Y-48736D01*
X76048Y-48707D01*
X76048Y-48469D01*
X76043Y-48445D01*
X76048Y-48421D01*
X76048Y-48392D01*
X76048Y-48154D01*
X76043Y-48130D01*
X76048Y-48106D01*
X76048Y-48077D01*
X76048Y-47839D01*
X76043Y-47815D01*
X76048Y-47791D01*
X76048Y-47762D01*
X76048Y-47525D01*
X76043Y-47496D01*
X76031Y-47468D01*
X76015Y-47444D01*
X75994Y-47423D01*
X75970Y-47407D01*
X75943Y-47395D01*
X75914Y-47389D01*
X75885Y-47389D01*
X75490Y-47389D01*
X75461Y-47395D01*
X75434Y-47406D01*
X75409Y-47422D01*
X75389Y-47443D01*
X75372Y-47468D01*
X75361Y-47495D01*
X75355Y-47523D01*
X75355Y-47553D01*
X75355Y-47790D01*
X75360Y-47815D01*
X75355Y-47838D01*
X75355Y-47868D01*
X75355Y-48105D01*
X75360Y-48130D01*
X75355Y-48153D01*
X75355Y-48183D01*
X75355Y-48420D01*
X75360Y-48445D01*
X75355Y-48468D01*
X75355Y-48498D01*
X75355Y-48735D01*
X75360Y-48760D01*
X75355Y-48783D01*
X75355Y-48813D01*
X75355Y-49050D01*
X75360Y-49075D01*
X75355Y-49098D01*
X75355Y-49128D01*
X75355Y-49365D01*
X75360Y-49394D01*
X75372Y-49421D01*
X75388Y-49446D01*
X75409Y-49466D01*
X75433Y-49483D01*
X75460Y-49494D01*
X75489Y-49500D01*
X75518Y-49500D01*
X75913Y-49500D01*
X75942Y-49495D01*
X75969Y-49483D01*
X75994Y-49467D01*
X76014Y-49446D01*
X76031Y-49422D01*
X76042Y-49395D01*
X76048Y-49366D01*
X76048Y-49337D01*
X76048Y-49662D01*
X76024Y-49662D01*
X76015Y-49649D01*
X75994Y-49628D01*
X75970Y-49611D01*
X75943Y-49600D01*
X75914Y-49594D01*
X75885Y-49594D01*
X75490Y-49594D01*
X75461Y-49600D01*
X75434Y-49611D01*
X75409Y-49627D01*
X75389Y-49648D01*
X75372Y-49672D01*
X75361Y-49699D01*
X75355Y-49728D01*
X75355Y-49758D01*
X75355Y-49995D01*
X75360Y-50020D01*
X75355Y-50043D01*
X75355Y-50073D01*
X75355Y-50252D01*
X75333Y-50243D01*
X75304Y-50237D01*
X75274Y-50236D01*
X75116Y-50236D01*
X75087Y-50242D01*
X75060Y-50253D01*
X75036Y-50270D01*
X75033Y-50273D01*
X75030Y-50270D01*
X75006Y-50254D01*
X74979Y-50243D01*
X74950Y-50237D01*
X74920Y-50236D01*
X74762Y-50236D01*
X74733Y-50242D01*
X74706Y-50253D01*
X74682Y-50270D01*
X74661Y-50290D01*
X74644Y-50315D01*
X74633Y-50342D01*
X74627Y-50371D01*
X74627Y-50400D01*
X74627Y-50637D01*
X74633Y-50666D01*
X74644Y-50693D01*
X74651Y-50704D01*
X74654Y-50924D01*
X74644Y-50938D01*
X74633Y-50965D01*
X74627Y-50994D01*
X74627Y-51001D01*
X74620Y-50983D01*
X74603Y-50958D01*
X74583Y-50937D01*
X74558Y-50921D01*
X74531Y-50910D01*
X74502Y-50904D01*
X74473Y-50903D01*
X74222Y-50903D01*
X74193Y-50909D01*
X74166Y-50920D01*
X74141Y-50937D01*
X74120Y-50957D01*
X74111Y-50971D01*
X74103Y-50958D01*
X74083Y-50937D01*
X74058Y-50921D01*
X74031Y-50910D01*
X74002Y-50904D01*
X73973Y-50903D01*
X73722Y-50903D01*
X73693Y-50909D01*
X73692Y-50909D01*
X74004Y-50597D01*
X74004Y-50621D01*
X74015Y-50679D01*
X74036Y-50733D01*
X74068Y-50783D01*
X74109Y-50825D01*
X74157Y-50859D01*
X74211Y-50882D01*
X74269Y-50895D01*
X74328Y-50896D01*
X74386Y-50886D01*
X74440Y-50865D01*
X74490Y-50833D01*
X74533Y-50792D01*
X74567Y-50744D01*
X74591Y-50691D01*
X74604Y-50633D01*
X74605Y-50566D01*
X74593Y-50508D01*
X74571Y-50454D01*
X74543Y-50412D01*
X74543Y-50059D01*
X75141Y-49461D01*
X75153Y-49447D01*
X75165Y-49432D01*
X75165Y-49432D01*
X75166Y-49431D01*
X75174Y-49414D01*
X75183Y-49398D01*
X75184Y-49397D01*
X75184Y-49396D01*
X75190Y-49379D01*
X75195Y-49361D01*
X75195Y-49360D01*
X75196Y-49359D01*
X75197Y-49341D01*
X75199Y-49322D01*
X75199Y-49320D01*
X75199Y-49320D01*
X75199Y-49320D01*
X75200Y-49320D01*
X75200Y-49141D01*
X75228Y-49114D01*
X75262Y-49066D01*
X75286Y-49012D01*
X75299Y-48955D01*
X75300Y-48887D01*
X75288Y-48830D01*
X75266Y-48775D01*
X75233Y-48726D01*
X75192Y-48685D01*
X75143Y-48652D01*
X75089Y-48629D01*
X75050Y-48621D01*
X75050Y-47971D01*
X75063Y-47962D01*
X75084Y-47941D01*
X75100Y-47917D01*
X75111Y-47890D01*
X75117Y-47861D01*
X75118Y-47831D01*
X75118Y-47673D01*
X75112Y-47644D01*
X75101Y-47617D01*
X75084Y-47593D01*
X75064Y-47572D01*
X75039Y-47555D01*
X75012Y-47544D01*
X74983Y-47538D01*
X74954Y-47538D01*
X74717Y-47538D01*
X74688Y-47544D01*
X74661Y-47555D01*
X74643Y-47567D01*
X74556Y-47567D01*
X74539Y-47555D01*
X74512Y-47544D01*
X74483Y-47538D01*
X74454Y-47538D01*
X74217Y-47538D01*
X74188Y-47544D01*
X74161Y-47555D01*
X74136Y-47571D01*
X74115Y-47592D01*
X74099Y-47616D01*
X74088Y-47643D01*
X74082Y-47672D01*
X74081Y-47702D01*
X74081Y-47860D01*
X74087Y-47889D01*
X74098Y-47916D01*
X74115Y-47940D01*
X74135Y-47961D01*
X74160Y-47978D01*
X74187Y-47989D01*
X74216Y-47995D01*
X74245Y-47995D01*
X74482Y-47995D01*
X74511Y-47989D01*
X74538Y-47978D01*
X74556Y-47967D01*
X74643Y-47967D01*
X74650Y-47971D01*
X74650Y-48767D01*
X74651Y-48785D01*
X74653Y-48804D01*
X74653Y-48805D01*
X74653Y-48806D01*
X74659Y-48823D01*
X74664Y-48841D01*
X74664Y-48842D01*
X74665Y-48843D01*
X74673Y-48859D01*
X74682Y-48876D01*
X74682Y-48877D01*
X74683Y-48878D01*
X74695Y-48892D01*
X74700Y-48898D01*
X74699Y-48942D01*
X74710Y-49000D01*
X74731Y-49055D01*
X74763Y-49104D01*
X74800Y-49142D01*
X74800Y-49237D01*
X74625Y-49411D01*
X74630Y-49398D01*
X74636Y-49369D01*
X74637Y-49340D01*
X74637Y-48839D01*
X74631Y-48810D01*
X74620Y-48783D01*
X74603Y-48758D01*
X74583Y-48737D01*
X74558Y-48721D01*
X74531Y-48710D01*
X74507Y-48704D01*
X74507Y-48596D01*
X74518Y-48579D01*
X74529Y-48552D01*
X74535Y-48523D01*
X74535Y-48494D01*
X74535Y-48257D01*
X74529Y-48228D01*
X74518Y-48201D01*
X74502Y-48176D01*
X74481Y-48155D01*
X74457Y-48139D01*
X74430Y-48128D01*
X74401Y-48122D01*
X74371Y-48121D01*
X74213Y-48121D01*
X74184Y-48127D01*
X74157Y-48138D01*
X74133Y-48155D01*
X74112Y-48175D01*
X74095Y-48200D01*
X74084Y-48227D01*
X74078Y-48256D01*
X74078Y-48285D01*
X74078Y-48522D01*
X74084Y-48551D01*
X74095Y-48578D01*
X74107Y-48596D01*
X74107Y-48778D01*
X74104Y-48782D01*
X74093Y-48809D01*
X74087Y-48838D01*
X74086Y-48867D01*
X74086Y-49368D01*
X74092Y-49397D01*
X74103Y-49424D01*
X74120Y-49449D01*
X74140Y-49470D01*
X74165Y-49486D01*
X74192Y-49497D01*
X74221Y-49503D01*
X74250Y-49504D01*
X74501Y-49504D01*
X74530Y-49498D01*
X74544Y-49492D01*
X74202Y-49835D01*
X74202Y-49835D01*
X73680Y-50357D01*
X73680Y-48405D01*
X73668Y-48347D01*
X73646Y-48293D01*
X73613Y-48244D01*
X73572Y-48202D01*
X73523Y-48169D01*
X73469Y-48147D01*
X73411Y-48135D01*
X73352Y-48134D01*
X73294Y-48145D01*
X73240Y-48167D01*
X73191Y-48200D01*
X73149Y-48241D01*
X73115Y-48289D01*
X73092Y-48343D01*
X73080Y-48401D01*
X73079Y-48460D01*
X73090Y-48518D01*
X73111Y-48572D01*
X73143Y-48622D01*
X73162Y-48641D01*
X73162Y-48723D01*
X73141Y-48737D01*
X73120Y-48757D01*
X73111Y-48771D01*
X73103Y-48758D01*
X73083Y-48737D01*
X73058Y-48721D01*
X73031Y-48710D01*
X73002Y-48704D01*
X72973Y-48703D01*
X72722Y-48703D01*
X72693Y-48709D01*
X72666Y-48720D01*
X72641Y-48737D01*
X72620Y-48757D01*
X72604Y-48782D01*
X72593Y-48809D01*
X72587Y-48838D01*
X72586Y-48867D01*
X72586Y-49368D01*
X72592Y-49397D01*
X72603Y-49424D01*
X72620Y-49449D01*
X72640Y-49470D01*
X72665Y-49486D01*
X72692Y-49497D01*
X72721Y-49503D01*
X72750Y-49504D01*
X73001Y-49504D01*
X73030Y-49498D01*
X73057Y-49487D01*
X73082Y-49470D01*
X73103Y-49450D01*
X73112Y-49436D01*
X73120Y-49449D01*
X73140Y-49470D01*
X73165Y-49486D01*
X73192Y-49497D01*
X73221Y-49503D01*
X73250Y-49504D01*
X73501Y-49504D01*
X73530Y-49498D01*
X73557Y-49487D01*
X73582Y-49470D01*
X73603Y-49450D01*
X73619Y-49425D01*
X73630Y-49398D01*
X73636Y-49369D01*
X73637Y-49340D01*
X73637Y-48839D01*
X73631Y-48810D01*
X73620Y-48783D01*
X73603Y-48758D01*
X73583Y-48737D01*
X73562Y-48723D01*
X73562Y-48674D01*
X73565Y-48672D01*
X73608Y-48631D01*
X73642Y-48583D01*
X73666Y-48530D01*
X73679Y-48472D01*
X73680Y-48405D01*
X73680Y-50357D01*
X73220Y-50816D01*
X73208Y-50830D01*
X73196Y-50845D01*
X73196Y-50845D01*
X73195Y-50846D01*
X73187Y-50863D01*
X73178Y-50879D01*
X73177Y-50880D01*
X73177Y-50881D01*
X73171Y-50898D01*
X73166Y-50916D01*
X73166Y-50917D01*
X73165Y-50918D01*
X73165Y-50921D01*
X73141Y-50937D01*
X73120Y-50957D01*
X73111Y-50971D01*
X73103Y-50958D01*
X73083Y-50937D01*
X73058Y-50921D01*
X73031Y-50910D01*
X73002Y-50904D01*
X72973Y-50903D01*
X72722Y-50903D01*
X72693Y-50909D01*
X72666Y-50920D01*
X72641Y-50937D01*
X72620Y-50957D01*
X72604Y-50982D01*
X72593Y-51009D01*
X72587Y-51038D01*
X72586Y-51067D01*
X72586Y-51568D01*
X72592Y-51597D01*
X72603Y-51624D01*
X72620Y-51649D01*
X72640Y-51670D01*
X72665Y-51686D01*
X72692Y-51697D01*
X72721Y-51703D01*
X72750Y-51704D01*
X73001Y-51704D01*
X73030Y-51698D01*
X73057Y-51687D01*
X73082Y-51670D01*
X73103Y-51650D01*
X73112Y-51636D01*
X73120Y-51649D01*
X73140Y-51670D01*
X73165Y-51686D01*
X73192Y-51697D01*
X73221Y-51703D01*
X73250Y-51704D01*
X73501Y-51704D01*
X73530Y-51698D01*
X73557Y-51687D01*
X73582Y-51670D01*
X73603Y-51650D01*
X73612Y-51636D01*
X73620Y-51649D01*
X73640Y-51670D01*
X73665Y-51686D01*
X73692Y-51697D01*
X73721Y-51703D01*
X73733Y-51703D01*
X73733Y-51823D01*
X73728Y-51830D01*
X73639Y-51830D01*
X73631Y-51818D01*
X73611Y-51797D01*
X73586Y-51781D01*
X73559Y-51770D01*
X73530Y-51764D01*
X73501Y-51763D01*
X72700Y-51763D01*
X72671Y-51769D01*
X72644Y-51780D01*
X72619Y-51797D01*
X72598Y-51817D01*
X72582Y-51842D01*
X72571Y-51869D01*
X72565Y-51898D01*
X72564Y-51927D01*
X72564Y-52528D01*
X72570Y-52557D01*
X72581Y-52584D01*
X72598Y-52609D01*
X72618Y-52630D01*
X72643Y-52646D01*
X72670Y-52657D01*
X72699Y-52663D01*
X72728Y-52664D01*
X73020Y-52664D01*
X73036Y-52672D01*
X73073Y-52684D01*
X73112Y-52688D01*
X73115Y-52689D01*
X73426Y-52689D01*
X73440Y-52687D01*
X73455Y-52686D01*
X73460Y-52685D01*
X73464Y-52685D01*
X73479Y-52680D01*
X73493Y-52677D01*
X73497Y-52675D01*
X73502Y-52673D01*
X73515Y-52666D01*
X73521Y-52664D01*
X73529Y-52664D01*
X73558Y-52658D01*
X73585Y-52647D01*
X73610Y-52630D01*
X73631Y-52610D01*
X73647Y-52585D01*
X73658Y-52558D01*
X73664Y-52529D01*
X73665Y-52500D01*
X73665Y-52349D01*
X73693Y-52230D01*
X73728Y-52230D01*
X73737Y-52243D01*
X73758Y-52264D01*
X73782Y-52280D01*
X73809Y-52291D01*
X73838Y-52297D01*
X73868Y-52298D01*
X74026Y-52298D01*
X74055Y-52292D01*
X74082Y-52281D01*
X74087Y-52277D01*
X74087Y-52333D01*
X74075Y-52350D01*
X74064Y-52377D01*
X74058Y-52406D01*
X74058Y-52435D01*
X74058Y-52672D01*
X74064Y-52701D01*
X74075Y-52728D01*
X74091Y-52753D01*
X74112Y-52774D01*
X74136Y-52790D01*
X74150Y-52796D01*
X74141Y-52800D01*
X74117Y-52816D01*
X74114Y-52819D01*
X74111Y-52817D01*
X74087Y-52800D01*
X74060Y-52789D01*
X74031Y-52783D01*
X74002Y-52783D01*
X73843Y-52783D01*
X73815Y-52788D01*
X73787Y-52800D01*
X73763Y-52816D01*
X73742Y-52837D01*
X73726Y-52861D01*
X73714Y-52888D01*
X73708Y-52917D01*
X73708Y-52946D01*
X73708Y-53183D01*
X73714Y-53212D01*
X73725Y-53239D01*
X73737Y-53257D01*
X73737Y-53314D01*
X73665Y-53314D01*
X73665Y-53199D01*
X73659Y-53170D01*
X73648Y-53143D01*
X73631Y-53118D01*
X73611Y-53097D01*
X73586Y-53081D01*
X73559Y-53070D01*
X73530Y-53064D01*
X73501Y-53063D01*
X73388Y-53063D01*
X73372Y-53055D01*
X73371Y-53054D01*
X73370Y-53054D01*
X73353Y-53048D01*
X73335Y-53043D01*
X73334Y-53043D01*
X73333Y-53042D01*
X73315Y-53041D01*
X73296Y-53039D01*
X73294Y-53039D01*
X73294Y-53039D01*
X73294Y-53039D01*
X73294Y-53039D01*
X73115Y-53039D01*
X73076Y-53042D01*
X73038Y-53054D01*
X73020Y-53063D01*
X72700Y-53063D01*
X72671Y-53069D01*
X72644Y-53080D01*
X72619Y-53097D01*
X72598Y-53117D01*
X72582Y-53142D01*
X72571Y-53169D01*
X72565Y-53198D01*
X72564Y-53227D01*
X72564Y-53828D01*
X72570Y-53857D01*
X72581Y-53884D01*
X72598Y-53909D01*
X72618Y-53930D01*
X72643Y-53946D01*
X72670Y-53957D01*
X72699Y-53963D01*
X72728Y-53964D01*
X73529Y-53964D01*
X73558Y-53958D01*
X73585Y-53947D01*
X73610Y-53930D01*
X73631Y-53910D01*
X73647Y-53885D01*
X73658Y-53858D01*
X73664Y-53829D01*
X73665Y-53800D01*
X73665Y-53714D01*
X73718Y-53714D01*
X73725Y-53732D01*
X73741Y-53756D01*
X73762Y-53777D01*
X73786Y-53793D01*
X73814Y-53805D01*
X73842Y-53811D01*
X73872Y-53811D01*
X74030Y-53811D01*
X74059Y-53805D01*
X74086Y-53794D01*
X74091Y-53791D01*
X74091Y-53829D01*
X74080Y-53845D01*
X74068Y-53872D01*
X74062Y-53901D01*
X74062Y-53931D01*
X74062Y-54168D01*
X74068Y-54196D01*
X74079Y-54224D01*
X74095Y-54248D01*
X74116Y-54269D01*
X74140Y-54286D01*
X74168Y-54297D01*
X74196Y-54303D01*
X74226Y-54303D01*
X74384Y-54303D01*
X74413Y-54297D01*
X74440Y-54286D01*
X74464Y-54270D01*
X74485Y-54249D01*
X74495Y-54235D01*
X74507Y-54235D01*
X74526Y-54233D01*
X74544Y-54232D01*
X74545Y-54231D01*
X74546Y-54231D01*
X74564Y-54226D01*
X74582Y-54221D01*
X74583Y-54220D01*
X74584Y-54220D01*
X74600Y-54211D01*
X74616Y-54203D01*
X74617Y-54202D01*
X74618Y-54202D01*
X74632Y-54190D01*
X74647Y-54178D01*
X74648Y-54177D01*
X74648Y-54177D01*
X74648Y-54177D01*
X74649Y-54176D01*
X74787Y-54038D01*
X74953Y-54038D01*
X74928Y-54063D01*
X74894Y-54111D01*
X74871Y-54165D01*
X74859Y-54223D01*
X74858Y-54282D01*
X74869Y-54340D01*
X74890Y-54394D01*
X74922Y-54444D01*
X74963Y-54486D01*
X74994Y-54507D01*
X74994Y-54827D01*
X74980Y-54836D01*
X74959Y-54857D01*
X74943Y-54881D01*
X74932Y-54908D01*
X74926Y-54937D01*
X74925Y-54967D01*
X74925Y-55125D01*
X74931Y-55154D01*
X74942Y-55181D01*
X74959Y-55205D01*
X74962Y-55208D01*
X74959Y-55211D01*
X74949Y-55226D01*
X74934Y-55203D01*
X74914Y-55182D01*
X74889Y-55165D01*
X74862Y-55154D01*
X74833Y-55148D01*
X74804Y-55148D01*
X74567Y-55148D01*
X74538Y-55154D01*
X74511Y-55165D01*
X74493Y-55177D01*
X74470Y-55177D01*
X74470Y-54925D01*
X74464Y-54896D01*
X74453Y-54869D01*
X74436Y-54844D01*
X74416Y-54823D01*
X74391Y-54807D01*
X74364Y-54796D01*
X74335Y-54790D01*
X74306Y-54789D01*
X73955Y-54789D01*
X73926Y-54795D01*
X73899Y-54806D01*
X73874Y-54823D01*
X73853Y-54843D01*
X73837Y-54868D01*
X73826Y-54895D01*
X73820Y-54924D01*
X73819Y-54953D01*
X73819Y-55504D01*
X73825Y-55533D01*
X73836Y-55560D01*
X73846Y-55574D01*
X73693Y-55574D01*
X73702Y-55561D01*
X73713Y-55534D01*
X73719Y-55505D01*
X73720Y-55476D01*
X73720Y-54925D01*
X73714Y-54896D01*
X73703Y-54869D01*
X73686Y-54844D01*
X73666Y-54823D01*
X73645Y-54809D01*
X73645Y-54497D01*
X73642Y-54474D01*
X73640Y-54451D01*
X73640Y-54450D01*
X73640Y-54448D01*
X73633Y-54426D01*
X73627Y-54404D01*
X73626Y-54403D01*
X73626Y-54399D01*
X73615Y-54342D01*
X73592Y-54287D01*
X73560Y-54238D01*
X73518Y-54196D01*
X73470Y-54163D01*
X73415Y-54141D01*
X73358Y-54129D01*
X73299Y-54128D01*
X73241Y-54139D01*
X73187Y-54161D01*
X73137Y-54194D01*
X73095Y-54235D01*
X73062Y-54283D01*
X73039Y-54337D01*
X73027Y-54395D01*
X73026Y-54454D01*
X73036Y-54512D01*
X73058Y-54566D01*
X73090Y-54616D01*
X73131Y-54658D01*
X73145Y-54668D01*
X73145Y-54809D01*
X73124Y-54823D01*
X73103Y-54843D01*
X73087Y-54868D01*
X73076Y-54895D01*
X73070Y-54924D01*
X73069Y-54953D01*
X73069Y-55504D01*
X73075Y-55533D01*
X73086Y-55560D01*
X73103Y-55585D01*
X73123Y-55606D01*
X73148Y-55622D01*
X73175Y-55633D01*
X73195Y-55638D01*
X73195Y-55695D01*
X73196Y-55713D01*
X73198Y-55731D01*
X73198Y-55732D01*
X73198Y-55733D01*
X73204Y-55751D01*
X73209Y-55769D01*
X73209Y-55770D01*
X73210Y-55771D01*
X73218Y-55787D01*
X73227Y-55803D01*
X73227Y-55804D01*
X73228Y-55805D01*
X73240Y-55820D01*
X73251Y-55834D01*
X73253Y-55835D01*
X73253Y-55835D01*
X73253Y-55835D01*
X73253Y-55836D01*
X73499Y-56082D01*
X73499Y-56289D01*
X73505Y-56318D01*
X73516Y-56345D01*
X73533Y-56370D01*
X73553Y-56391D01*
X73578Y-56407D01*
X73605Y-56418D01*
X73634Y-56424D01*
X73663Y-56425D01*
X74014Y-56425D01*
X74043Y-56419D01*
X74070Y-56408D01*
X74095Y-56391D01*
X74116Y-56371D01*
X74132Y-56346D01*
X74143Y-56319D01*
X74149Y-56290D01*
X74150Y-56261D01*
X74150Y-55710D01*
X74144Y-55681D01*
X74133Y-55654D01*
X74123Y-55640D01*
X74276Y-55640D01*
X74267Y-55653D01*
X74256Y-55680D01*
X74250Y-55709D01*
X74249Y-55738D01*
X74249Y-56289D01*
X74255Y-56318D01*
X74266Y-56345D01*
X74283Y-56370D01*
X74303Y-56391D01*
X74328Y-56407D01*
X74355Y-56418D01*
X74384Y-56424D01*
X74413Y-56425D01*
X74579Y-56425D01*
X74560Y-56432D01*
X74511Y-56465D01*
X74469Y-56506D01*
X74435Y-56554D01*
X74412Y-56608D01*
X74400Y-56666D01*
X74399Y-56725D01*
X74410Y-56783D01*
X74431Y-56837D01*
X74463Y-56887D01*
X74504Y-56929D01*
X74552Y-56963D01*
X74606Y-56986D01*
X74664Y-56999D01*
X74723Y-57000D01*
X74781Y-56990D01*
X74835Y-56969D01*
X74885Y-56937D01*
X74921Y-56903D01*
X74925Y-56923D01*
X74936Y-56950D01*
X74953Y-56975D01*
X74973Y-56996D01*
X74998Y-57012D01*
X75025Y-57023D01*
X75054Y-57029D01*
X75083Y-57030D01*
X75444Y-57030D01*
X75473Y-57024D01*
X75500Y-57013D01*
X75525Y-56996D01*
X75546Y-56976D01*
X75562Y-56951D01*
X75573Y-56924D01*
X75579Y-56895D01*
X75580Y-56866D01*
X75580Y-56505D01*
X75574Y-56476D01*
X75563Y-56449D01*
X75546Y-56424D01*
X75526Y-56403D01*
X75501Y-56387D01*
X75474Y-56376D01*
X75445Y-56370D01*
X75416Y-56369D01*
X75055Y-56369D01*
X75026Y-56375D01*
X74999Y-56386D01*
X74974Y-56403D01*
X74953Y-56423D01*
X74937Y-56448D01*
X74926Y-56475D01*
X74921Y-56497D01*
X74892Y-56467D01*
X74843Y-56434D01*
X74800Y-56416D01*
X74820Y-56408D01*
X74845Y-56391D01*
X74866Y-56371D01*
X74882Y-56346D01*
X74893Y-56319D01*
X74899Y-56290D01*
X74900Y-56261D01*
X74900Y-56124D01*
X74904Y-56129D01*
X74952Y-56163D01*
X75006Y-56186D01*
X75064Y-56199D01*
X75123Y-56200D01*
X75181Y-56190D01*
X75235Y-56169D01*
X75282Y-56139D01*
X75286Y-56150D01*
X75303Y-56175D01*
X75323Y-56196D01*
X75348Y-56212D01*
X75375Y-56223D01*
X75404Y-56229D01*
X75433Y-56230D01*
X75794Y-56230D01*
X75823Y-56224D01*
X75850Y-56213D01*
X75875Y-56196D01*
X75896Y-56176D01*
X75912Y-56151D01*
X75923Y-56124D01*
X75929Y-56095D01*
X75930Y-56066D01*
X75930Y-55709D01*
X75934Y-55713D01*
X75934Y-55881D01*
X75935Y-55899D01*
X75937Y-55918D01*
X75937Y-55919D01*
X75937Y-55919D01*
X75943Y-55937D01*
X75948Y-55955D01*
X75948Y-55956D01*
X75949Y-55957D01*
X75957Y-55973D01*
X75966Y-55990D01*
X75967Y-55991D01*
X75967Y-55991D01*
X75979Y-56006D01*
X75991Y-56020D01*
X75991Y-56021D01*
X75992Y-56021D01*
X76006Y-56033D01*
X76021Y-56046D01*
X76021Y-56046D01*
X76022Y-56046D01*
X76038Y-56055D01*
X76055Y-56064D01*
X76055Y-56065D01*
X76056Y-56065D01*
X76074Y-56070D01*
X76083Y-56073D01*
X76099Y-56087D01*
X76142Y-56110D01*
X76189Y-56125D01*
X76198Y-56126D01*
X75955Y-56369D01*
X75755Y-56369D01*
X75726Y-56375D01*
X75699Y-56386D01*
X75674Y-56403D01*
X75653Y-56423D01*
X75637Y-56448D01*
X75626Y-56475D01*
X75620Y-56504D01*
X75619Y-56533D01*
X75619Y-56894D01*
X75625Y-56923D01*
X75636Y-56950D01*
X75653Y-56975D01*
X75673Y-56996D01*
X75698Y-57012D01*
X75725Y-57023D01*
X75754Y-57029D01*
X75783Y-57030D01*
X76144Y-57030D01*
X76169Y-57025D01*
X76160Y-57048D01*
X76140Y-57141D01*
X76138Y-57236D01*
X76156Y-57329D01*
X76191Y-57417D01*
X76242Y-57497D01*
X76308Y-57566D01*
X76386Y-57620D01*
X76473Y-57658D01*
X76566Y-57678D01*
X76661Y-57680D01*
X76755Y-57664D01*
X76843Y-57630D01*
X76924Y-57579D01*
X76992Y-57513D01*
X77047Y-57435D01*
X77086Y-57349D01*
X77107Y-57256D01*
X77108Y-57147D01*
X77090Y-57054D01*
X77054Y-56966D01*
X77001Y-56887D01*
X76934Y-56820D01*
X76855Y-56766D01*
X76768Y-56730D01*
X76675Y-56711D01*
X76580Y-56710D01*
X76486Y-56728D01*
X76398Y-56763D01*
X76319Y-56815D01*
X76280Y-56853D01*
X76280Y-56752D01*
X76901Y-56131D01*
X77085Y-56131D01*
X77061Y-56146D01*
X77025Y-56182D01*
X76997Y-56223D01*
X76977Y-56270D01*
X76966Y-56319D01*
X76965Y-56370D01*
X76975Y-56420D01*
X76993Y-56467D01*
X77021Y-56510D01*
X77056Y-56546D01*
X77097Y-56575D01*
X77144Y-56595D01*
X77193Y-56606D01*
X77244Y-56607D01*
X77294Y-56598D01*
X77341Y-56580D01*
X77384Y-56553D01*
X77405Y-56557D01*
X77435Y-56558D01*
X77593Y-56557D01*
X77622Y-56552D01*
X77628Y-56549D01*
X77632Y-56551D01*
X77661Y-56557D01*
X77691Y-56558D01*
X77849Y-56557D01*
X77878Y-56552D01*
X77883Y-56549D01*
X77888Y-56551D01*
X77917Y-56557D01*
X77946Y-56558D01*
X78105Y-56557D01*
X78134Y-56552D01*
X78139Y-56549D01*
X78144Y-56551D01*
X78173Y-56557D01*
X78202Y-56558D01*
X78361Y-56557D01*
X78390Y-56552D01*
X78417Y-56541D01*
X78441Y-56524D01*
X78462Y-56503D01*
X78479Y-56479D01*
X78490Y-56452D01*
X78496Y-56423D01*
X78496Y-56394D01*
X78496Y-55861D01*
X78490Y-55832D01*
X78479Y-55805D01*
X78463Y-55781D01*
X78442Y-55760D01*
X78418Y-55743D01*
X78391Y-55732D01*
X78362Y-55726D01*
X78332Y-55726D01*
X78197Y-55726D01*
X78228Y-55696D01*
X78262Y-55648D01*
X78286Y-55595D01*
X78299Y-55537D01*
X78300Y-55470D01*
X78288Y-55412D01*
X78266Y-55358D01*
X78233Y-55309D01*
X78192Y-55267D01*
X78143Y-55234D01*
X78089Y-55212D01*
X78031Y-55200D01*
X77982Y-55199D01*
X77841Y-55058D01*
X77827Y-55046D01*
X77812Y-55034D01*
X77812Y-55034D01*
X77811Y-55033D01*
X77794Y-55025D01*
X77778Y-55016D01*
X77777Y-55015D01*
X77776Y-55015D01*
X77759Y-55009D01*
X77741Y-55004D01*
X77740Y-55004D01*
X77739Y-55003D01*
X77721Y-55002D01*
X77702Y-55000D01*
X77700Y-55000D01*
X77700Y-55000D01*
X77700Y-55000D01*
X77700Y-55000D01*
X77381Y-55000D01*
X77372Y-54986D01*
X77351Y-54965D01*
X77327Y-54949D01*
X77300Y-54938D01*
X77271Y-54932D01*
X77241Y-54931D01*
X77083Y-54931D01*
X77054Y-54937D01*
X77027Y-54948D01*
X77003Y-54965D01*
X76982Y-54985D01*
X76965Y-55010D01*
X76954Y-55037D01*
X76948Y-55066D01*
X76948Y-55095D01*
X76948Y-55332D01*
X76954Y-55361D01*
X76965Y-55388D01*
X76981Y-55413D01*
X77002Y-55434D01*
X77026Y-55450D01*
X77053Y-55461D01*
X77082Y-55467D01*
X77112Y-55468D01*
X77162Y-55468D01*
X77300Y-55606D01*
X77300Y-55691D01*
X77298Y-55690D01*
X77280Y-55685D01*
X77279Y-55685D01*
X77278Y-55684D01*
X77260Y-55683D01*
X77248Y-55681D01*
X77240Y-55674D01*
X77197Y-55651D01*
X77150Y-55636D01*
X77102Y-55631D01*
X77099Y-55631D01*
X76900Y-55631D01*
X76798Y-55631D01*
X76334Y-55631D01*
X76332Y-55612D01*
X76330Y-55594D01*
X76330Y-55593D01*
X76330Y-55592D01*
X76324Y-55574D01*
X76319Y-55556D01*
X76319Y-55555D01*
X76318Y-55554D01*
X76310Y-55538D01*
X76301Y-55522D01*
X76301Y-55521D01*
X76300Y-55520D01*
X76288Y-55505D01*
X76277Y-55491D01*
X76275Y-55490D01*
X76275Y-55490D01*
X76275Y-55490D01*
X76275Y-55489D01*
X76023Y-55237D01*
X76009Y-55225D01*
X75994Y-55213D01*
X75994Y-55213D01*
X75993Y-55212D01*
X75976Y-55204D01*
X75960Y-55195D01*
X75959Y-55194D01*
X75958Y-55194D01*
X75941Y-55188D01*
X75923Y-55183D01*
X75922Y-55183D01*
X75921Y-55182D01*
X75907Y-55181D01*
X75887Y-55167D01*
X75860Y-55156D01*
X75831Y-55150D01*
X75802Y-55150D01*
X75565Y-55150D01*
X75536Y-55156D01*
X75509Y-55167D01*
X75491Y-55179D01*
X75445Y-55179D01*
X75455Y-55155D01*
X75461Y-55126D01*
X75462Y-55096D01*
X75462Y-55036D01*
X75477Y-55006D01*
X75488Y-54969D01*
X75491Y-54930D01*
X75487Y-54891D01*
X75476Y-54854D01*
X75457Y-54820D01*
X75432Y-54790D01*
X75402Y-54765D01*
X75394Y-54760D01*
X75394Y-54444D01*
X75421Y-54405D01*
X75445Y-54352D01*
X75458Y-54294D01*
X75459Y-54227D01*
X75447Y-54169D01*
X75425Y-54115D01*
X75392Y-54066D01*
X75364Y-54038D01*
X75466Y-54038D01*
X75466Y-54571D01*
X75471Y-54600D01*
X75483Y-54627D01*
X75499Y-54652D01*
X75520Y-54673D01*
X75544Y-54689D01*
X75571Y-54701D01*
X75600Y-54706D01*
X75629Y-54707D01*
X76170Y-54707D01*
X76199Y-54701D01*
X76226Y-54690D01*
X76250Y-54673D01*
X76271Y-54653D01*
X76288Y-54628D01*
X76299Y-54601D01*
X76305Y-54572D01*
X76305Y-54543D01*
X76305Y-53743D01*
X77574Y-53743D01*
X77654Y-53823D01*
X77654Y-54625D01*
X77656Y-54644D01*
X77657Y-54662D01*
X77658Y-54663D01*
X77658Y-54664D01*
X77663Y-54682D01*
X77668Y-54700D01*
X77669Y-54701D01*
X77669Y-54702D01*
X77678Y-54718D01*
X77686Y-54734D01*
X77687Y-54735D01*
X77687Y-54736D01*
X77699Y-54750D01*
X77710Y-54765D01*
X77712Y-54766D01*
X77712Y-54766D01*
X77712Y-54766D01*
X77712Y-54767D01*
X77936Y-54991D01*
X77951Y-55003D01*
X77965Y-55015D01*
X77966Y-55015D01*
X77967Y-55016D01*
X77983Y-55024D01*
X77984Y-55025D01*
X77984Y-55061D01*
X77990Y-55090D01*
X78001Y-55117D01*
X78017Y-55142D01*
X78038Y-55162D01*
X78063Y-55179D01*
X78090Y-55190D01*
X78118Y-55196D01*
X78148Y-55196D01*
X78739Y-55196D01*
X78768Y-55191D01*
X78796Y-55179D01*
X78820Y-55163D01*
X78841Y-55142D01*
X78857Y-55118D01*
X78869Y-55091D01*
X78875Y-55062D01*
X78875Y-55033D01*
X78875Y-54638D01*
X78869Y-54609D01*
X78858Y-54582D01*
X78842Y-54557D01*
X78821Y-54537D01*
X78796Y-54520D01*
X78769Y-54509D01*
X78741Y-54503D01*
X78711Y-54503D01*
X78120Y-54503D01*
X78091Y-54508D01*
X78063Y-54520D01*
X78054Y-54526D01*
X78054Y-53870D01*
X78089Y-53885D01*
X78147Y-53898D01*
X78206Y-53899D01*
X78264Y-53889D01*
X78318Y-53868D01*
X78368Y-53836D01*
X78410Y-53796D01*
X78421Y-53807D01*
X78469Y-53841D01*
X78523Y-53864D01*
X78581Y-53877D01*
X78640Y-53878D01*
X78698Y-53868D01*
X78746Y-53849D01*
X78754Y-53862D01*
X78762Y-53879D01*
X78763Y-53880D01*
X78763Y-53881D01*
X78775Y-53895D01*
X78786Y-53909D01*
X78788Y-53911D01*
X78788Y-53911D01*
X78788Y-53911D01*
X78788Y-53911D01*
X78880Y-54003D01*
X78879Y-54045D01*
X78890Y-54103D01*
X78911Y-54157D01*
X78943Y-54207D01*
X78984Y-54249D01*
X79032Y-54283D01*
X79086Y-54306D01*
X79144Y-54319D01*
X79203Y-54320D01*
X79261Y-54310D01*
X79315Y-54289D01*
X79365Y-54257D01*
X79408Y-54216D01*
X79442Y-54168D01*
X79466Y-54115D01*
X79479Y-54057D01*
X79480Y-53990D01*
X79468Y-53932D01*
X79465Y-53925D01*
X79694Y-54153D01*
X79694Y-54991D01*
X79682Y-54991D01*
X79653Y-54997D01*
X79626Y-55008D01*
X79623Y-55010D01*
X79271Y-55011D01*
X79259Y-55007D01*
X79210Y-55003D01*
X79162Y-55007D01*
X79115Y-55021D01*
X79109Y-55024D01*
X79077Y-55024D01*
X79048Y-55030D01*
X79021Y-55041D01*
X78996Y-55057D01*
X78975Y-55078D01*
X78959Y-55102D01*
X78948Y-55129D01*
X78942Y-55158D01*
X78941Y-55188D01*
X78941Y-55346D01*
X78947Y-55375D01*
X78958Y-55402D01*
X78975Y-55426D01*
X78995Y-55447D01*
X79020Y-55464D01*
X79047Y-55475D01*
X79076Y-55481D01*
X79102Y-55481D01*
X79121Y-55492D01*
X79122Y-55492D01*
X79122Y-55492D01*
X79145Y-55499D01*
X79167Y-55506D01*
X79168Y-55506D01*
X79169Y-55506D01*
X79192Y-55509D01*
X79216Y-55511D01*
X79217Y-55511D01*
X79218Y-55511D01*
X79218Y-55511D01*
X79219Y-55511D01*
X79550Y-55510D01*
X79550Y-55834D01*
X79535Y-55854D01*
X79512Y-55908D01*
X79500Y-55966D01*
X79499Y-56025D01*
X79510Y-56083D01*
X79531Y-56137D01*
X79563Y-56187D01*
X79604Y-56229D01*
X79652Y-56263D01*
X79706Y-56286D01*
X79764Y-56299D01*
X79823Y-56300D01*
X79881Y-56290D01*
X79935Y-56269D01*
X79985Y-56237D01*
X80028Y-56196D01*
X80062Y-56148D01*
X80086Y-56095D01*
X80099Y-56037D01*
X80100Y-55970D01*
X80088Y-55912D01*
X80066Y-55858D01*
X80050Y-55834D01*
X80050Y-55528D01*
X80105Y-55528D01*
X80134Y-55522D01*
X80161Y-55511D01*
X80186Y-55494D01*
X80207Y-55474D01*
X80223Y-55449D01*
X80234Y-55422D01*
X80240Y-55393D01*
X80241Y-55364D01*
X80241Y-55127D01*
X80235Y-55098D01*
X80224Y-55071D01*
X80207Y-55046D01*
X80187Y-55025D01*
X80162Y-55009D01*
X80135Y-54998D01*
X80106Y-54992D01*
X80094Y-54992D01*
X80094Y-54196D01*
X80514Y-54617D01*
X80485Y-54622D01*
X80458Y-54633D01*
X80433Y-54650D01*
X80412Y-54670D01*
X80396Y-54695D01*
X80385Y-54722D01*
X80379Y-54751D01*
X80378Y-54780D01*
X80378Y-55017D01*
X80384Y-55046D01*
X80395Y-55073D01*
X80412Y-55098D01*
X80432Y-55119D01*
X80457Y-55135D01*
X80484Y-55146D01*
X80513Y-55152D01*
X80542Y-55153D01*
X80937Y-55153D01*
X80966Y-55147D01*
X80993Y-55136D01*
X81018Y-55119D01*
X81039Y-55099D01*
X81048Y-55085D01*
X81147Y-55085D01*
X81164Y-55096D01*
X81191Y-55107D01*
X81220Y-55113D01*
X81249Y-55113D01*
X81486Y-55113D01*
X81515Y-55107D01*
X81542Y-55096D01*
X81567Y-55080D01*
X81588Y-55059D01*
X81604Y-55035D01*
X81615Y-55008D01*
X81621Y-54979D01*
X81622Y-54949D01*
X81622Y-54791D01*
X81616Y-54762D01*
X81605Y-54735D01*
X81588Y-54711D01*
X81568Y-54690D01*
X81543Y-54673D01*
X81516Y-54662D01*
X81487Y-54656D01*
X81458Y-54656D01*
X81221Y-54656D01*
X81192Y-54662D01*
X81165Y-54673D01*
X81147Y-54685D01*
X81048Y-54685D01*
X81039Y-54671D01*
X81019Y-54650D01*
X80994Y-54634D01*
X80967Y-54623D01*
X80938Y-54617D01*
X80926Y-54617D01*
X80926Y-54546D01*
X80924Y-54527D01*
X80922Y-54509D01*
X80922Y-54508D01*
X80922Y-54507D01*
X80916Y-54489D01*
X80911Y-54471D01*
X80911Y-54470D01*
X80910Y-54469D01*
X80902Y-54453D01*
X80893Y-54437D01*
X80893Y-54436D01*
X80892Y-54435D01*
X80880Y-54420D01*
X80869Y-54406D01*
X80867Y-54405D01*
X80867Y-54405D01*
X80867Y-54405D01*
X80867Y-54404D01*
X79900Y-53437D01*
X80008Y-53437D01*
X80036Y-53432D01*
X80064Y-53420D01*
X80088Y-53404D01*
X80109Y-53383D01*
X80125Y-53359D01*
X80137Y-53332D01*
X80143Y-53303D01*
X80143Y-53274D01*
X80143Y-52965D01*
X80480Y-52965D01*
X80509Y-52959D01*
X80536Y-52948D01*
X80561Y-52932D01*
X80581Y-52911D01*
X80598Y-52887D01*
X80609Y-52859D01*
X80615Y-52831D01*
X80615Y-52801D01*
X80615Y-52564D01*
X80610Y-52539D01*
X80615Y-52516D01*
X80615Y-52486D01*
X80615Y-52249D01*
X80610Y-52224D01*
X80615Y-52201D01*
X80615Y-52171D01*
X80615Y-51934D01*
X80610Y-51909D01*
X80615Y-51886D01*
X80615Y-51856D01*
X80615Y-51619D01*
X80610Y-51594D01*
X80615Y-51571D01*
X80615Y-51541D01*
X80615Y-51304D01*
X80610Y-51279D01*
X80615Y-51256D01*
X80615Y-51226D01*
X80615Y-51158D01*
X80618Y-51161D01*
X80632Y-51173D01*
X80647Y-51185D01*
X80647Y-51185D01*
X80648Y-51186D01*
X80664Y-51194D01*
X80681Y-51203D01*
X80682Y-51204D01*
X80683Y-51204D01*
X80700Y-51210D01*
X80718Y-51215D01*
X80719Y-51215D01*
X80720Y-51216D01*
X80738Y-51217D01*
X80757Y-51219D01*
X80759Y-51219D01*
X80759Y-51219D01*
X80759Y-51219D01*
X80760Y-51220D01*
X80910Y-51220D01*
X80909Y-51255D01*
X80920Y-51313D01*
X80941Y-51367D01*
X80973Y-51417D01*
X81014Y-51459D01*
X81062Y-51493D01*
X81116Y-51516D01*
X81174Y-51529D01*
X81233Y-51530D01*
X81291Y-51520D01*
X81345Y-51499D01*
X81395Y-51467D01*
X81420Y-51444D01*
X81420Y-51481D01*
X81396Y-51485D01*
X81369Y-51496D01*
X81344Y-51513D01*
X81323Y-51533D01*
X81307Y-51558D01*
X81296Y-51585D01*
X81290Y-51614D01*
X81289Y-51643D01*
X81289Y-51690D01*
X80955Y-52024D01*
X80877Y-52024D01*
X80848Y-52030D01*
X80821Y-52041D01*
X80796Y-52057D01*
X80775Y-52078D01*
X80759Y-52102D01*
X80748Y-52129D01*
X80742Y-52158D01*
X80741Y-52188D01*
X80741Y-52346D01*
X80747Y-52375D01*
X80758Y-52402D01*
X80775Y-52426D01*
X80778Y-52429D01*
X80775Y-52432D01*
X80759Y-52456D01*
X80748Y-52483D01*
X80742Y-52512D01*
X80741Y-52542D01*
X80741Y-52700D01*
X80747Y-52729D01*
X80758Y-52756D01*
X80775Y-52780D01*
X80795Y-52801D01*
X80820Y-52818D01*
X80847Y-52829D01*
X80876Y-52835D01*
X80905Y-52835D01*
X81048Y-52835D01*
X81048Y-52894D01*
X81022Y-52904D01*
X80973Y-52937D01*
X80931Y-52978D01*
X80897Y-53026D01*
X80874Y-53080D01*
X80862Y-53138D01*
X80861Y-53186D01*
X80851Y-53186D01*
X80793Y-53197D01*
X80739Y-53219D01*
X80690Y-53252D01*
X80648Y-53293D01*
X80614Y-53341D01*
X80591Y-53395D01*
X80579Y-53453D01*
X80578Y-53512D01*
X80589Y-53570D01*
X80610Y-53624D01*
X80642Y-53674D01*
X80683Y-53716D01*
X80731Y-53750D01*
X80785Y-53773D01*
X80843Y-53786D01*
X80902Y-53787D01*
X80960Y-53777D01*
X81014Y-53756D01*
X81064Y-53724D01*
X81104Y-53687D01*
X81322Y-53687D01*
X81496Y-53861D01*
X81510Y-53873D01*
X81525Y-53885D01*
X81525Y-53885D01*
X81526Y-53886D01*
X81542Y-53894D01*
X81559Y-53903D01*
X81560Y-53904D01*
X81561Y-53904D01*
X81578Y-53910D01*
X81596Y-53915D01*
X81597Y-53915D01*
X81598Y-53916D01*
X81616Y-53917D01*
X81635Y-53919D01*
X81637Y-53919D01*
X81637Y-53919D01*
X81637Y-53919D01*
X81638Y-53920D01*
X81858Y-53920D01*
X81867Y-53933D01*
X81888Y-53954D01*
X81912Y-53970D01*
X81939Y-53981D01*
X81968Y-53987D01*
X81998Y-53988D01*
X82156Y-53988D01*
X82185Y-53982D01*
X82212Y-53971D01*
X82236Y-53954D01*
X82239Y-53951D01*
X82242Y-53954D01*
X82266Y-53970D01*
X82293Y-53981D01*
X82322Y-53987D01*
X82352Y-53988D01*
X82510Y-53988D01*
X82516Y-53986D01*
X82760Y-54231D01*
X82747Y-54262D01*
X82726Y-54357D01*
X82725Y-54456D01*
X82743Y-54552D01*
X82779Y-54643D01*
X82832Y-54726D01*
X82900Y-54796D01*
X82980Y-54852D01*
X83070Y-54891D01*
X83166Y-54912D01*
X83264Y-54914D01*
X83361Y-54897D01*
X83452Y-54862D01*
X83535Y-54809D01*
X83606Y-54742D01*
X83662Y-54662D01*
X83702Y-54572D01*
X83724Y-54476D01*
X83726Y-54364D01*
X83706Y-54268D01*
X83669Y-54178D01*
X83615Y-54096D01*
X83546Y-54026D01*
X83464Y-53972D01*
X83374Y-53934D01*
X83278Y-53914D01*
X83268Y-53914D01*
X83361Y-53897D01*
X83452Y-53862D01*
X83535Y-53809D01*
X83606Y-53742D01*
X83662Y-53662D01*
X83702Y-53572D01*
X83724Y-53476D01*
X83726Y-53364D01*
X83706Y-53268D01*
X83669Y-53178D01*
X83615Y-53096D01*
X83546Y-53026D01*
X83464Y-52972D01*
X83374Y-52934D01*
X83278Y-52914D01*
X83268Y-52914D01*
X83361Y-52897D01*
X83452Y-52862D01*
X83535Y-52809D01*
X83606Y-52742D01*
X83662Y-52662D01*
X83702Y-52572D01*
X83724Y-52476D01*
X83726Y-52364D01*
X83706Y-52268D01*
X83669Y-52178D01*
X83615Y-52096D01*
X83546Y-52026D01*
X83464Y-51972D01*
X83374Y-51934D01*
X83278Y-51914D01*
X83268Y-51914D01*
X83361Y-51897D01*
X83452Y-51862D01*
X83535Y-51809D01*
X83606Y-51742D01*
X83662Y-51662D01*
X83702Y-51572D01*
X83724Y-51476D01*
X83726Y-51364D01*
X83706Y-51268D01*
X83669Y-51178D01*
X83615Y-51096D01*
X83546Y-51026D01*
X83464Y-50972D01*
X83374Y-50934D01*
X83278Y-50914D01*
X83268Y-50914D01*
X83361Y-50897D01*
X83452Y-50862D01*
X83535Y-50809D01*
X83606Y-50742D01*
X83662Y-50662D01*
X83702Y-50572D01*
X83724Y-50476D01*
X83726Y-50364D01*
X83706Y-50268D01*
X83669Y-50178D01*
X83615Y-50096D01*
X83546Y-50026D01*
X83464Y-49972D01*
X83374Y-49934D01*
X83278Y-49914D01*
X83180Y-49913D01*
X83084Y-49932D01*
X82993Y-49968D01*
X82911Y-50022D01*
X82841Y-50091D01*
X82837Y-50097D01*
X82486Y-50097D01*
X82480Y-50092D01*
X82480Y-50053D01*
X82480Y-50053D01*
X82505Y-50036D01*
X82526Y-50016D01*
X82542Y-49991D01*
X82553Y-49964D01*
X82559Y-49935D01*
X82560Y-49906D01*
X82560Y-49545D01*
X82554Y-49516D01*
X82543Y-49489D01*
X82526Y-49464D01*
X82506Y-49443D01*
X82481Y-49427D01*
X82454Y-49416D01*
X82425Y-49410D01*
X82396Y-49409D01*
X82035Y-49409D01*
X82006Y-49415D01*
X81979Y-49426D01*
X81954Y-49443D01*
X81933Y-49463D01*
X81917Y-49488D01*
X81906Y-49515D01*
X81900Y-49544D01*
X81899Y-49573D01*
X81899Y-49934D01*
X81905Y-49963D01*
X81916Y-49990D01*
X81933Y-50015D01*
X81953Y-50036D01*
X81978Y-50052D01*
X82005Y-50063D01*
X82034Y-50069D01*
X82063Y-50070D01*
X82080Y-50070D01*
X82080Y-50092D01*
X82066Y-50101D01*
X82045Y-50122D01*
X82029Y-50146D01*
X82018Y-50173D01*
X82012Y-50202D01*
X82011Y-50232D01*
X82011Y-50390D01*
X82017Y-50419D01*
X82028Y-50446D01*
X82045Y-50470D01*
X82048Y-50473D01*
X82045Y-50476D01*
X82029Y-50500D01*
X82018Y-50527D01*
X82012Y-50556D01*
X82011Y-50586D01*
X82011Y-50744D01*
X82017Y-50773D01*
X82028Y-50800D01*
X82045Y-50824D01*
X82065Y-50845D01*
X82080Y-50855D01*
X82080Y-50877D01*
X81895Y-50692D01*
X81895Y-50567D01*
X81889Y-50538D01*
X81878Y-50511D01*
X81862Y-50486D01*
X81841Y-50465D01*
X81817Y-50449D01*
X81790Y-50438D01*
X81761Y-50432D01*
X81731Y-50431D01*
X81573Y-50431D01*
X81544Y-50437D01*
X81517Y-50448D01*
X81493Y-50465D01*
X81490Y-50468D01*
X81487Y-50465D01*
X81463Y-50449D01*
X81436Y-50438D01*
X81407Y-50432D01*
X81377Y-50431D01*
X81219Y-50431D01*
X81190Y-50437D01*
X81163Y-50448D01*
X81139Y-50465D01*
X81118Y-50485D01*
X81108Y-50500D01*
X80889Y-50500D01*
X80795Y-50405D01*
X80942Y-50405D01*
X80971Y-50399D01*
X80998Y-50388D01*
X81016Y-50377D01*
X81144Y-50377D01*
X81153Y-50386D01*
X81178Y-50402D01*
X81205Y-50413D01*
X81234Y-50419D01*
X81263Y-50420D01*
X81624Y-50420D01*
X81653Y-50414D01*
X81680Y-50403D01*
X81705Y-50386D01*
X81726Y-50366D01*
X81742Y-50341D01*
X81753Y-50314D01*
X81759Y-50285D01*
X81760Y-50256D01*
X81760Y-49895D01*
X81754Y-49866D01*
X81743Y-49839D01*
X81726Y-49814D01*
X81706Y-49793D01*
X81681Y-49777D01*
X81654Y-49766D01*
X81625Y-49760D01*
X81596Y-49759D01*
X81235Y-49759D01*
X81206Y-49765D01*
X81179Y-49776D01*
X81154Y-49793D01*
X81133Y-49813D01*
X81117Y-49838D01*
X81106Y-49865D01*
X81100Y-49894D01*
X81099Y-49923D01*
X81099Y-49967D01*
X81090Y-49977D01*
X81058Y-49977D01*
X81060Y-49973D01*
X81071Y-49946D01*
X81077Y-49917D01*
X81078Y-49887D01*
X81078Y-49837D01*
X81202Y-49712D01*
X81205Y-49713D01*
X81234Y-49719D01*
X81263Y-49720D01*
X81624Y-49720D01*
X81653Y-49714D01*
X81680Y-49703D01*
X81705Y-49686D01*
X81726Y-49666D01*
X81742Y-49641D01*
X81753Y-49614D01*
X81759Y-49585D01*
X81760Y-49556D01*
X81760Y-49390D01*
X82500Y-49390D01*
X82518Y-49388D01*
X82536Y-49386D01*
X82537Y-49386D01*
X82538Y-49386D01*
X82556Y-49380D01*
X82574Y-49375D01*
X82575Y-49375D01*
X82576Y-49374D01*
X82592Y-49366D01*
X82608Y-49357D01*
X82609Y-49357D01*
X82610Y-49356D01*
X82625Y-49344D01*
X82639Y-49333D01*
X82640Y-49331D01*
X82640Y-49331D01*
X82640Y-49331D01*
X82641Y-49331D01*
X82858Y-49114D01*
X82870Y-49100D01*
X82882Y-49085D01*
X82882Y-49085D01*
X82883Y-49084D01*
X82891Y-49067D01*
X82900Y-49051D01*
X82901Y-49050D01*
X82901Y-49049D01*
X82907Y-49032D01*
X82912Y-49014D01*
X82912Y-49013D01*
X82913Y-49012D01*
X82914Y-48994D01*
X82916Y-48975D01*
X82916Y-48973D01*
X82916Y-48973D01*
X82916Y-48973D01*
X82917Y-48973D01*
X82917Y-48846D01*
X82928Y-48829D01*
X82939Y-48802D01*
X82945Y-48773D01*
X82945Y-48744D01*
X82945Y-48507D01*
X82939Y-48478D01*
X82928Y-48451D01*
X82912Y-48426D01*
X82907Y-48421D01*
X82907Y-48346D01*
X82918Y-48329D01*
X82929Y-48302D01*
X82935Y-48273D01*
X82935Y-48244D01*
X82935Y-48077D01*
X83172Y-48351D01*
X83782Y-49425D01*
X84172Y-50597D01*
X84327Y-51830D01*
X84330Y-51992D01*
X84330Y-51992D01*
G37*
G54D29*
X84330Y-51992D02*
X84208Y-53229D01*
X83851Y-54411D01*
X83271Y-55502D01*
X82491Y-56459D01*
X81539Y-57247D01*
X80452Y-57834D01*
X79884Y-58010D01*
X79884Y-57147D01*
X79866Y-57054D01*
X79829Y-56966D01*
X79777Y-56887D01*
X79710Y-56820D01*
X79631Y-56766D01*
X79543Y-56730D01*
X79450Y-56711D01*
X79355Y-56710D01*
X79262Y-56728D01*
X79174Y-56763D01*
X79094Y-56815D01*
X79057Y-56852D01*
X79057Y-56323D01*
X79047Y-56273D01*
X79028Y-56227D01*
X79000Y-56184D01*
X78964Y-56148D01*
X78922Y-56120D01*
X78875Y-56100D01*
X78826Y-56090D01*
X78775Y-56090D01*
X78725Y-56099D01*
X78678Y-56118D01*
X78636Y-56146D01*
X78600Y-56182D01*
X78571Y-56223D01*
X78551Y-56270D01*
X78541Y-56319D01*
X78540Y-56370D01*
X78549Y-56420D01*
X78568Y-56467D01*
X78595Y-56510D01*
X78630Y-56546D01*
X78672Y-56575D01*
X78718Y-56595D01*
X78768Y-56606D01*
X78818Y-56607D01*
X78868Y-56598D01*
X78916Y-56580D01*
X78958Y-56553D01*
X78995Y-56518D01*
X79024Y-56477D01*
X79045Y-56430D01*
X79056Y-56381D01*
X79057Y-56323D01*
X79057Y-56852D01*
X79026Y-56882D01*
X78973Y-56960D01*
X78935Y-57048D01*
X78915Y-57141D01*
X78914Y-57236D01*
X78931Y-57329D01*
X78966Y-57417D01*
X79018Y-57497D01*
X79084Y-57566D01*
X79162Y-57620D01*
X79249Y-57658D01*
X79342Y-57678D01*
X79437Y-57680D01*
X79530Y-57664D01*
X79619Y-57630D01*
X79699Y-57579D01*
X79768Y-57513D01*
X79823Y-57435D01*
X79861Y-57349D01*
X79882Y-57256D01*
X79884Y-57147D01*
X79884Y-58010D01*
X79272Y-58200D01*
X78044Y-58329D01*
X76813Y-58217D01*
X75628Y-57868D01*
X74534Y-57296D01*
X73571Y-56522D01*
X72777Y-55575D01*
X72182Y-54493D01*
X71808Y-53315D01*
X71671Y-52088D01*
X71774Y-50857D01*
X72114Y-49669D01*
X72679Y-48571D01*
X73446Y-47603D01*
X74387Y-46802D01*
X75465Y-46199D01*
X76640Y-45818D01*
X77115Y-45761D01*
X77115Y-47354D01*
X79610Y-47360D01*
X79584Y-47370D01*
X79535Y-47402D01*
X79493Y-47444D01*
X79460Y-47492D01*
X79437Y-47546D01*
X79424Y-47604D01*
X79424Y-47663D01*
X79434Y-47720D01*
X79456Y-47775D01*
X79488Y-47825D01*
X79529Y-47867D01*
X79577Y-47900D01*
X79631Y-47924D01*
X79688Y-47937D01*
X79747Y-47938D01*
X79805Y-47928D01*
X79860Y-47906D01*
X79910Y-47875D01*
X79922Y-47863D01*
X79921Y-47868D01*
X79922Y-48105D01*
X79926Y-48130D01*
X79922Y-48153D01*
X79921Y-48183D01*
X79922Y-48420D01*
X79926Y-48445D01*
X79922Y-48468D01*
X79921Y-48498D01*
X79922Y-48735D01*
X79926Y-48760D01*
X79922Y-48783D01*
X79921Y-48813D01*
X79922Y-49050D01*
X79926Y-49075D01*
X79922Y-49098D01*
X79921Y-49128D01*
X79922Y-49365D01*
X79926Y-49390D01*
X79922Y-49413D01*
X79921Y-49443D01*
X79922Y-49662D01*
X79485Y-49662D01*
X78601Y-48778D01*
X78587Y-48766D01*
X78572Y-48754D01*
X78572Y-48754D01*
X78571Y-48753D01*
X78554Y-48745D01*
X78538Y-48736D01*
X78537Y-48735D01*
X78536Y-48735D01*
X78519Y-48729D01*
X78501Y-48724D01*
X78500Y-48724D01*
X78499Y-48723D01*
X78481Y-48722D01*
X78462Y-48720D01*
X78460Y-48720D01*
X78460Y-48720D01*
X78460Y-48720D01*
X78460Y-48720D01*
X77550Y-48720D01*
X77256Y-48720D01*
X77251Y-48719D01*
X77232Y-48717D01*
X77231Y-48717D01*
X77231Y-48717D01*
X77231Y-48717D01*
X77230Y-48717D01*
X76602Y-48717D01*
X76570Y-48685D01*
X76521Y-48652D01*
X76467Y-48629D01*
X76409Y-48617D01*
X76350Y-48617D01*
X76292Y-48628D01*
X76238Y-48650D01*
X76189Y-48682D01*
X76147Y-48723D01*
X76113Y-48772D01*
X76090Y-48826D01*
X76078Y-48883D01*
X76077Y-48942D01*
X76088Y-49000D01*
X76109Y-49055D01*
X76141Y-49104D01*
X76182Y-49146D01*
X76230Y-49180D01*
X76284Y-49204D01*
X76342Y-49216D01*
X76401Y-49217D01*
X76459Y-49207D01*
X76513Y-49186D01*
X76563Y-49154D01*
X76602Y-49117D01*
X77203Y-49117D01*
X77208Y-49117D01*
X77227Y-49119D01*
X77228Y-49119D01*
X77228Y-49119D01*
X77228Y-49119D01*
X77230Y-49120D01*
X77550Y-49120D01*
X78377Y-49120D01*
X79132Y-49875D01*
X79108Y-49898D01*
X79096Y-49912D01*
X79084Y-49927D01*
X79084Y-49927D01*
X79083Y-49928D01*
X79075Y-49945D01*
X79066Y-49961D01*
X79065Y-49962D01*
X79065Y-49963D01*
X79059Y-49980D01*
X79054Y-49998D01*
X79054Y-49999D01*
X79053Y-50000D01*
X79052Y-50018D01*
X79050Y-50037D01*
X79050Y-50039D01*
X79050Y-50039D01*
X79050Y-50039D01*
X79050Y-50040D01*
X79050Y-51320D01*
X79050Y-51360D01*
X79050Y-52440D01*
X79051Y-52458D01*
X79053Y-52476D01*
X79053Y-52477D01*
X79053Y-52478D01*
X79059Y-52496D01*
X79064Y-52514D01*
X79064Y-52515D01*
X79065Y-52516D01*
X79073Y-52532D01*
X79082Y-52548D01*
X79082Y-52549D01*
X79083Y-52550D01*
X79095Y-52565D01*
X79106Y-52579D01*
X79108Y-52580D01*
X79108Y-52580D01*
X79108Y-52580D01*
X79108Y-52581D01*
X79271Y-52743D01*
X79112Y-52744D01*
X79087Y-52748D01*
X79064Y-52744D01*
X79034Y-52743D01*
X78797Y-52744D01*
X78772Y-52748D01*
X78749Y-52744D01*
X78719Y-52743D01*
X78482Y-52744D01*
X78457Y-52748D01*
X78434Y-52744D01*
X78404Y-52743D01*
X78185Y-52744D01*
X78185Y-52380D01*
X78185Y-52350D01*
X78185Y-52344D01*
X78185Y-52318D01*
X78208Y-52296D01*
X78242Y-52248D01*
X78266Y-52195D01*
X78279Y-52137D01*
X78280Y-52070D01*
X78268Y-52012D01*
X78246Y-51958D01*
X78213Y-51909D01*
X78172Y-51867D01*
X78123Y-51834D01*
X78069Y-51812D01*
X78011Y-51800D01*
X77952Y-51799D01*
X77894Y-51810D01*
X77840Y-51832D01*
X77791Y-51865D01*
X77749Y-51906D01*
X77715Y-51954D01*
X77692Y-52008D01*
X77680Y-52066D01*
X77679Y-52125D01*
X77690Y-52183D01*
X77711Y-52237D01*
X77743Y-52287D01*
X77784Y-52329D01*
X77785Y-52330D01*
X77785Y-52344D01*
X77785Y-52350D01*
X77785Y-52380D01*
X77785Y-52768D01*
X77772Y-52777D01*
X77751Y-52797D01*
X77734Y-52822D01*
X77723Y-52849D01*
X77717Y-52878D01*
X77717Y-52907D01*
X77717Y-53302D01*
X77723Y-53331D01*
X77734Y-53358D01*
X77734Y-53358D01*
X77734Y-53358D01*
X77716Y-53353D01*
X77699Y-53347D01*
X77698Y-53347D01*
X77697Y-53347D01*
X77678Y-53345D01*
X77660Y-53343D01*
X77658Y-53343D01*
X77658Y-53343D01*
X77658Y-53343D01*
X77657Y-53343D01*
X77613Y-53343D01*
X77617Y-53332D01*
X77623Y-53303D01*
X77623Y-53274D01*
X77623Y-52879D01*
X77617Y-52850D01*
X77606Y-52823D01*
X77590Y-52798D01*
X77569Y-52777D01*
X77545Y-52761D01*
X77518Y-52750D01*
X77489Y-52744D01*
X77459Y-52743D01*
X77222Y-52744D01*
X77197Y-52748D01*
X77174Y-52744D01*
X77145Y-52743D01*
X76907Y-52744D01*
X76882Y-52748D01*
X76859Y-52744D01*
X76830Y-52743D01*
X76680Y-52744D01*
X76698Y-52726D01*
X76732Y-52678D01*
X76756Y-52625D01*
X76769Y-52567D01*
X76769Y-52513D01*
X76811Y-52471D01*
X76823Y-52457D01*
X76835Y-52442D01*
X76835Y-52442D01*
X76836Y-52441D01*
X76844Y-52424D01*
X76853Y-52408D01*
X76854Y-52407D01*
X76854Y-52406D01*
X76860Y-52389D01*
X76865Y-52371D01*
X76865Y-52370D01*
X76866Y-52369D01*
X76867Y-52351D01*
X76869Y-52332D01*
X76869Y-52330D01*
X76869Y-52330D01*
X76869Y-52330D01*
X76870Y-52330D01*
X76870Y-51878D01*
X76878Y-51870D01*
X76912Y-51822D01*
X76936Y-51769D01*
X76949Y-51711D01*
X76950Y-51644D01*
X76938Y-51586D01*
X76916Y-51532D01*
X76883Y-51483D01*
X76842Y-51441D01*
X76793Y-51408D01*
X76739Y-51386D01*
X76681Y-51374D01*
X76622Y-51373D01*
X76564Y-51384D01*
X76510Y-51406D01*
X76461Y-51439D01*
X76419Y-51480D01*
X76385Y-51528D01*
X76362Y-51582D01*
X76350Y-51640D01*
X76349Y-51699D01*
X76360Y-51757D01*
X76381Y-51811D01*
X76413Y-51861D01*
X76454Y-51903D01*
X76470Y-51914D01*
X76470Y-52229D01*
X76442Y-52229D01*
X76384Y-52240D01*
X76330Y-52262D01*
X76281Y-52295D01*
X76239Y-52336D01*
X76205Y-52384D01*
X76182Y-52438D01*
X76170Y-52496D01*
X76169Y-52555D01*
X76180Y-52613D01*
X76201Y-52667D01*
X76233Y-52717D01*
X76262Y-52747D01*
X76248Y-52749D01*
X76221Y-52760D01*
X76197Y-52777D01*
X76176Y-52797D01*
X76159Y-52822D01*
X76148Y-52849D01*
X76142Y-52878D01*
X76142Y-52907D01*
X76142Y-53302D01*
X76148Y-53331D01*
X76153Y-53343D01*
X75279Y-53343D01*
X74846Y-52909D01*
X74831Y-52898D01*
X74817Y-52886D01*
X74816Y-52885D01*
X74815Y-52884D01*
X74799Y-52876D01*
X74783Y-52867D01*
X74782Y-52867D01*
X74781Y-52866D01*
X74763Y-52861D01*
X74746Y-52855D01*
X74745Y-52855D01*
X74744Y-52855D01*
X74725Y-52853D01*
X74707Y-52851D01*
X74705Y-52851D01*
X74705Y-52851D01*
X74705Y-52851D01*
X74704Y-52851D01*
X74495Y-52851D01*
X74486Y-52837D01*
X74465Y-52817D01*
X74441Y-52800D01*
X74427Y-52794D01*
X74436Y-52791D01*
X74460Y-52774D01*
X74481Y-52754D01*
X74498Y-52729D01*
X74509Y-52702D01*
X74515Y-52673D01*
X74515Y-52644D01*
X74515Y-52407D01*
X74509Y-52378D01*
X74498Y-52351D01*
X74487Y-52333D01*
X74487Y-52236D01*
X74491Y-52230D01*
X74518Y-52230D01*
X74528Y-52245D01*
X74549Y-52266D01*
X74573Y-52282D01*
X74600Y-52293D01*
X74629Y-52299D01*
X74659Y-52300D01*
X74817Y-52300D01*
X74846Y-52294D01*
X74873Y-52283D01*
X74897Y-52266D01*
X74900Y-52263D01*
X74903Y-52266D01*
X74927Y-52282D01*
X74954Y-52293D01*
X74983Y-52299D01*
X75013Y-52300D01*
X75171Y-52300D01*
X75200Y-52294D01*
X75227Y-52283D01*
X75251Y-52266D01*
X75272Y-52246D01*
X75289Y-52221D01*
X75300Y-52194D01*
X75306Y-52165D01*
X75306Y-52136D01*
X75306Y-51899D01*
X75300Y-51870D01*
X75289Y-51843D01*
X75278Y-51825D01*
X75278Y-51698D01*
X75276Y-51679D01*
X75274Y-51661D01*
X75274Y-51660D01*
X75274Y-51659D01*
X75268Y-51641D01*
X75263Y-51623D01*
X75263Y-51622D01*
X75262Y-51621D01*
X75254Y-51605D01*
X75245Y-51589D01*
X75245Y-51588D01*
X75244Y-51587D01*
X75232Y-51572D01*
X75221Y-51558D01*
X75219Y-51557D01*
X75219Y-51557D01*
X75219Y-51557D01*
X75219Y-51556D01*
X75056Y-51393D01*
X75056Y-51376D01*
X75059Y-51378D01*
X75086Y-51389D01*
X75115Y-51395D01*
X75145Y-51396D01*
X75303Y-51396D01*
X75332Y-51390D01*
X75355Y-51380D01*
X75355Y-51570D01*
X75360Y-51595D01*
X75355Y-51618D01*
X75355Y-51647D01*
X75355Y-51885D01*
X75360Y-51909D01*
X75355Y-51933D01*
X75355Y-51962D01*
X75355Y-52200D01*
X75360Y-52224D01*
X75355Y-52248D01*
X75355Y-52277D01*
X75355Y-52515D01*
X75360Y-52539D01*
X75355Y-52563D01*
X75355Y-52592D01*
X75355Y-52830D01*
X75360Y-52858D01*
X75372Y-52886D01*
X75388Y-52910D01*
X75409Y-52931D01*
X75433Y-52947D01*
X75460Y-52959D01*
X75489Y-52965D01*
X75518Y-52965D01*
X75913Y-52965D01*
X75942Y-52959D01*
X75969Y-52948D01*
X75994Y-52932D01*
X76014Y-52911D01*
X76031Y-52887D01*
X76042Y-52859D01*
X76048Y-52831D01*
X76048Y-52801D01*
X76048Y-52564D01*
X76043Y-52539D01*
X76048Y-52516D01*
X76048Y-52486D01*
X76048Y-52249D01*
X76043Y-52224D01*
X76048Y-52201D01*
X76048Y-52171D01*
X76048Y-51934D01*
X76043Y-51909D01*
X76048Y-51886D01*
X76048Y-51856D01*
X76048Y-51619D01*
X76043Y-51594D01*
X76048Y-51571D01*
X76048Y-51541D01*
X76048Y-51304D01*
X76043Y-51279D01*
X76048Y-51256D01*
X76048Y-51226D01*
X76048Y-50989D01*
X76043Y-50964D01*
X76048Y-50941D01*
X76048Y-50911D01*
X76048Y-50674D01*
X76043Y-50649D01*
X76048Y-50626D01*
X76048Y-50596D01*
X76048Y-50359D01*
X76043Y-50334D01*
X76048Y-50311D01*
X76048Y-50281D01*
X76048Y-50062D01*
X76109Y-50062D01*
X76400Y-50353D01*
X76399Y-50359D01*
X76398Y-50418D01*
X76409Y-50476D01*
X76430Y-50530D01*
X76462Y-50580D01*
X76503Y-50622D01*
X76551Y-50656D01*
X76605Y-50679D01*
X76663Y-50692D01*
X76722Y-50693D01*
X76780Y-50683D01*
X76834Y-50662D01*
X76884Y-50630D01*
X76927Y-50589D01*
X76961Y-50541D01*
X76985Y-50488D01*
X76998Y-50430D01*
X76999Y-50363D01*
X76987Y-50305D01*
X76965Y-50251D01*
X76932Y-50202D01*
X76891Y-50160D01*
X76842Y-50127D01*
X76788Y-50105D01*
X76730Y-50093D01*
X76705Y-50093D01*
X76333Y-49721D01*
X76319Y-49709D01*
X76305Y-49697D01*
X76304Y-49697D01*
X76303Y-49696D01*
X76287Y-49687D01*
X76271Y-49678D01*
X76270Y-49678D01*
X76269Y-49677D01*
X76251Y-49672D01*
X76234Y-49666D01*
X76233Y-49666D01*
X76232Y-49666D01*
X76213Y-49664D01*
X76195Y-49662D01*
X76193Y-49662D01*
X76193Y-49662D01*
X76193Y-49662D01*
X76192Y-49662D01*
X76048Y-49662D01*
X76048Y-49337D01*
X76048Y-49099D01*
X76043Y-49074D01*
X76048Y-49051D01*
X76048Y-49022D01*
X76048Y-48784D01*
X76043Y-48760D01*
X76048Y-48736D01*
X76048Y-48707D01*
X76048Y-48469D01*
X76043Y-48445D01*
X76048Y-48421D01*
X76048Y-48392D01*
X76048Y-48154D01*
X76043Y-48130D01*
X76048Y-48106D01*
X76048Y-48077D01*
X76048Y-47839D01*
X76043Y-47815D01*
X76048Y-47791D01*
X76048Y-47762D01*
X76048Y-47525D01*
X76043Y-47496D01*
X76031Y-47468D01*
X76015Y-47444D01*
X75994Y-47423D01*
X75970Y-47407D01*
X75943Y-47395D01*
X75914Y-47389D01*
X75885Y-47389D01*
X75490Y-47389D01*
X75461Y-47395D01*
X75434Y-47406D01*
X75409Y-47422D01*
X75389Y-47443D01*
X75372Y-47468D01*
X75361Y-47495D01*
X75355Y-47523D01*
X75355Y-47553D01*
X75355Y-47790D01*
X75360Y-47815D01*
X75355Y-47838D01*
X75355Y-47868D01*
X75355Y-48105D01*
X75360Y-48130D01*
X75355Y-48153D01*
X75355Y-48183D01*
X75355Y-48420D01*
X75360Y-48445D01*
X75355Y-48468D01*
X75355Y-48498D01*
X75355Y-48735D01*
X75360Y-48760D01*
X75355Y-48783D01*
X75355Y-48813D01*
X75355Y-49050D01*
X75360Y-49075D01*
X75355Y-49098D01*
X75355Y-49128D01*
X75355Y-49365D01*
X75360Y-49394D01*
X75372Y-49421D01*
X75388Y-49446D01*
X75409Y-49466D01*
X75433Y-49483D01*
X75460Y-49494D01*
X75489Y-49500D01*
X75518Y-49500D01*
X75913Y-49500D01*
X75942Y-49495D01*
X75969Y-49483D01*
X75994Y-49467D01*
X76014Y-49446D01*
X76031Y-49422D01*
X76042Y-49395D01*
X76048Y-49366D01*
X76048Y-49337D01*
X76048Y-49662D01*
X76024Y-49662D01*
X76015Y-49649D01*
X75994Y-49628D01*
X75970Y-49611D01*
X75943Y-49600D01*
X75914Y-49594D01*
X75885Y-49594D01*
X75490Y-49594D01*
X75461Y-49600D01*
X75434Y-49611D01*
X75409Y-49627D01*
X75389Y-49648D01*
X75372Y-49672D01*
X75361Y-49699D01*
X75355Y-49728D01*
X75355Y-49758D01*
X75355Y-49995D01*
X75360Y-50020D01*
X75355Y-50043D01*
X75355Y-50073D01*
X75355Y-50252D01*
X75333Y-50243D01*
X75304Y-50237D01*
X75274Y-50236D01*
X75116Y-50236D01*
X75087Y-50242D01*
X75060Y-50253D01*
X75036Y-50270D01*
X75033Y-50273D01*
X75030Y-50270D01*
X75006Y-50254D01*
X74979Y-50243D01*
X74950Y-50237D01*
X74920Y-50236D01*
X74762Y-50236D01*
X74733Y-50242D01*
X74706Y-50253D01*
X74682Y-50270D01*
X74661Y-50290D01*
X74644Y-50315D01*
X74633Y-50342D01*
X74627Y-50371D01*
X74627Y-50400D01*
X74627Y-50637D01*
X74633Y-50666D01*
X74644Y-50693D01*
X74651Y-50704D01*
X74654Y-50924D01*
X74644Y-50938D01*
X74633Y-50965D01*
X74627Y-50994D01*
X74627Y-51001D01*
X74620Y-50983D01*
X74603Y-50958D01*
X74583Y-50937D01*
X74558Y-50921D01*
X74531Y-50910D01*
X74502Y-50904D01*
X74473Y-50903D01*
X74222Y-50903D01*
X74193Y-50909D01*
X74166Y-50920D01*
X74141Y-50937D01*
X74120Y-50957D01*
X74111Y-50971D01*
X74103Y-50958D01*
X74083Y-50937D01*
X74058Y-50921D01*
X74031Y-50910D01*
X74002Y-50904D01*
X73973Y-50903D01*
X73722Y-50903D01*
X73693Y-50909D01*
X73692Y-50909D01*
X74004Y-50597D01*
X74004Y-50621D01*
X74015Y-50679D01*
X74036Y-50733D01*
X74068Y-50783D01*
X74109Y-50825D01*
X74157Y-50859D01*
X74211Y-50882D01*
X74269Y-50895D01*
X74328Y-50896D01*
X74386Y-50886D01*
X74440Y-50865D01*
X74490Y-50833D01*
X74533Y-50792D01*
X74567Y-50744D01*
X74591Y-50691D01*
X74604Y-50633D01*
X74605Y-50566D01*
X74593Y-50508D01*
X74571Y-50454D01*
X74543Y-50412D01*
X74543Y-50059D01*
X75141Y-49461D01*
X75153Y-49447D01*
X75165Y-49432D01*
X75165Y-49432D01*
X75166Y-49431D01*
X75174Y-49414D01*
X75183Y-49398D01*
X75184Y-49397D01*
X75184Y-49396D01*
X75190Y-49379D01*
X75195Y-49361D01*
X75195Y-49360D01*
X75196Y-49359D01*
X75197Y-49341D01*
X75199Y-49322D01*
X75199Y-49320D01*
X75199Y-49320D01*
X75199Y-49320D01*
X75200Y-49320D01*
X75200Y-49141D01*
X75228Y-49114D01*
X75262Y-49066D01*
X75286Y-49012D01*
X75299Y-48955D01*
X75300Y-48887D01*
X75288Y-48830D01*
X75266Y-48775D01*
X75233Y-48726D01*
X75192Y-48685D01*
X75143Y-48652D01*
X75089Y-48629D01*
X75050Y-48621D01*
X75050Y-47971D01*
X75063Y-47962D01*
X75084Y-47941D01*
X75100Y-47917D01*
X75111Y-47890D01*
X75117Y-47861D01*
X75118Y-47831D01*
X75118Y-47673D01*
X75112Y-47644D01*
X75101Y-47617D01*
X75084Y-47593D01*
X75064Y-47572D01*
X75039Y-47555D01*
X75012Y-47544D01*
X74983Y-47538D01*
X74954Y-47538D01*
X74717Y-47538D01*
X74688Y-47544D01*
X74661Y-47555D01*
X74643Y-47567D01*
X74556Y-47567D01*
X74539Y-47555D01*
X74512Y-47544D01*
X74483Y-47538D01*
X74454Y-47538D01*
X74217Y-47538D01*
X74188Y-47544D01*
X74161Y-47555D01*
X74136Y-47571D01*
X74115Y-47592D01*
X74099Y-47616D01*
X74088Y-47643D01*
X74082Y-47672D01*
X74081Y-47702D01*
X74081Y-47860D01*
X74087Y-47889D01*
X74098Y-47916D01*
X74115Y-47940D01*
X74135Y-47961D01*
X74160Y-47978D01*
X74187Y-47989D01*
X74216Y-47995D01*
X74245Y-47995D01*
X74482Y-47995D01*
X74511Y-47989D01*
X74538Y-47978D01*
X74556Y-47967D01*
X74643Y-47967D01*
X74650Y-47971D01*
X74650Y-48767D01*
X74651Y-48785D01*
X74653Y-48804D01*
X74653Y-48805D01*
X74653Y-48806D01*
X74659Y-48823D01*
X74664Y-48841D01*
X74664Y-48842D01*
X74665Y-48843D01*
X74673Y-48859D01*
X74682Y-48876D01*
X74682Y-48877D01*
X74683Y-48878D01*
X74695Y-48892D01*
X74700Y-48898D01*
X74699Y-48942D01*
X74710Y-49000D01*
X74731Y-49055D01*
X74763Y-49104D01*
X74800Y-49142D01*
X74800Y-49237D01*
X74625Y-49411D01*
X74630Y-49398D01*
X74636Y-49369D01*
X74637Y-49340D01*
X74637Y-48839D01*
X74631Y-48810D01*
X74620Y-48783D01*
X74603Y-48758D01*
X74583Y-48737D01*
X74558Y-48721D01*
X74531Y-48710D01*
X74507Y-48704D01*
X74507Y-48596D01*
X74518Y-48579D01*
X74529Y-48552D01*
X74535Y-48523D01*
X74535Y-48494D01*
X74535Y-48257D01*
X74529Y-48228D01*
X74518Y-48201D01*
X74502Y-48176D01*
X74481Y-48155D01*
X74457Y-48139D01*
X74430Y-48128D01*
X74401Y-48122D01*
X74371Y-48121D01*
X74213Y-48121D01*
X74184Y-48127D01*
X74157Y-48138D01*
X74133Y-48155D01*
X74112Y-48175D01*
X74095Y-48200D01*
X74084Y-48227D01*
X74078Y-48256D01*
X74078Y-48285D01*
X74078Y-48522D01*
X74084Y-48551D01*
X74095Y-48578D01*
X74107Y-48596D01*
X74107Y-48778D01*
X74104Y-48782D01*
X74093Y-48809D01*
X74087Y-48838D01*
X74086Y-48867D01*
X74086Y-49368D01*
X74092Y-49397D01*
X74103Y-49424D01*
X74120Y-49449D01*
X74140Y-49470D01*
X74165Y-49486D01*
X74192Y-49497D01*
X74221Y-49503D01*
X74250Y-49504D01*
X74501Y-49504D01*
X74530Y-49498D01*
X74544Y-49492D01*
X74202Y-49835D01*
X74202Y-49835D01*
X73680Y-50357D01*
X73680Y-48405D01*
X73668Y-48347D01*
X73646Y-48293D01*
X73613Y-48244D01*
X73572Y-48202D01*
X73523Y-48169D01*
X73469Y-48147D01*
X73411Y-48135D01*
X73352Y-48134D01*
X73294Y-48145D01*
X73240Y-48167D01*
X73191Y-48200D01*
X73149Y-48241D01*
X73115Y-48289D01*
X73092Y-48343D01*
X73080Y-48401D01*
X73079Y-48460D01*
X73090Y-48518D01*
X73111Y-48572D01*
X73143Y-48622D01*
X73162Y-48641D01*
X73162Y-48723D01*
X73141Y-48737D01*
X73120Y-48757D01*
X73111Y-48771D01*
X73103Y-48758D01*
X73083Y-48737D01*
X73058Y-48721D01*
X73031Y-48710D01*
X73002Y-48704D01*
X72973Y-48703D01*
X72722Y-48703D01*
X72693Y-48709D01*
X72666Y-48720D01*
X72641Y-48737D01*
X72620Y-48757D01*
X72604Y-48782D01*
X72593Y-48809D01*
X72587Y-48838D01*
X72586Y-48867D01*
X72586Y-49368D01*
X72592Y-49397D01*
X72603Y-49424D01*
X72620Y-49449D01*
X72640Y-49470D01*
X72665Y-49486D01*
X72692Y-49497D01*
X72721Y-49503D01*
X72750Y-49504D01*
X73001Y-49504D01*
X73030Y-49498D01*
X73057Y-49487D01*
X73082Y-49470D01*
X73103Y-49450D01*
X73112Y-49436D01*
X73120Y-49449D01*
X73140Y-49470D01*
X73165Y-49486D01*
X73192Y-49497D01*
X73221Y-49503D01*
X73250Y-49504D01*
X73501Y-49504D01*
X73530Y-49498D01*
X73557Y-49487D01*
X73582Y-49470D01*
X73603Y-49450D01*
X73619Y-49425D01*
X73630Y-49398D01*
X73636Y-49369D01*
X73637Y-49340D01*
X73637Y-48839D01*
X73631Y-48810D01*
X73620Y-48783D01*
X73603Y-48758D01*
X73583Y-48737D01*
X73562Y-48723D01*
X73562Y-48674D01*
X73565Y-48672D01*
X73608Y-48631D01*
X73642Y-48583D01*
X73666Y-48530D01*
X73679Y-48472D01*
X73680Y-48405D01*
X73680Y-50357D01*
X73220Y-50816D01*
X73208Y-50830D01*
X73196Y-50845D01*
X73196Y-50845D01*
X73195Y-50846D01*
X73187Y-50863D01*
X73178Y-50879D01*
X73177Y-50880D01*
X73177Y-50881D01*
X73171Y-50898D01*
X73166Y-50916D01*
X73166Y-50917D01*
X73165Y-50918D01*
X73165Y-50921D01*
X73141Y-50937D01*
X73120Y-50957D01*
X73111Y-50971D01*
X73103Y-50958D01*
X73083Y-50937D01*
X73058Y-50921D01*
X73031Y-50910D01*
X73002Y-50904D01*
X72973Y-50903D01*
X72722Y-50903D01*
X72693Y-50909D01*
X72666Y-50920D01*
X72641Y-50937D01*
X72620Y-50957D01*
X72604Y-50982D01*
X72593Y-51009D01*
X72587Y-51038D01*
X72586Y-51067D01*
X72586Y-51568D01*
X72592Y-51597D01*
X72603Y-51624D01*
X72620Y-51649D01*
X72640Y-51670D01*
X72665Y-51686D01*
X72692Y-51697D01*
X72721Y-51703D01*
X72750Y-51704D01*
X73001Y-51704D01*
X73030Y-51698D01*
X73057Y-51687D01*
X73082Y-51670D01*
X73103Y-51650D01*
X73112Y-51636D01*
X73120Y-51649D01*
X73140Y-51670D01*
X73165Y-51686D01*
X73192Y-51697D01*
X73221Y-51703D01*
X73250Y-51704D01*
X73501Y-51704D01*
X73530Y-51698D01*
X73557Y-51687D01*
X73582Y-51670D01*
X73603Y-51650D01*
X73612Y-51636D01*
X73620Y-51649D01*
X73640Y-51670D01*
X73665Y-51686D01*
X73692Y-51697D01*
X73721Y-51703D01*
X73733Y-51703D01*
X73733Y-51823D01*
X73728Y-51830D01*
X73639Y-51830D01*
X73631Y-51818D01*
X73611Y-51797D01*
X73586Y-51781D01*
X73559Y-51770D01*
X73530Y-51764D01*
X73501Y-51763D01*
X72700Y-51763D01*
X72671Y-51769D01*
X72644Y-51780D01*
X72619Y-51797D01*
X72598Y-51817D01*
X72582Y-51842D01*
X72571Y-51869D01*
X72565Y-51898D01*
X72564Y-51927D01*
X72564Y-52528D01*
X72570Y-52557D01*
X72581Y-52584D01*
X72598Y-52609D01*
X72618Y-52630D01*
X72643Y-52646D01*
X72670Y-52657D01*
X72699Y-52663D01*
X72728Y-52664D01*
X73020Y-52664D01*
X73036Y-52672D01*
X73073Y-52684D01*
X73112Y-52688D01*
X73115Y-52689D01*
X73426Y-52689D01*
X73440Y-52687D01*
X73455Y-52686D01*
X73460Y-52685D01*
X73464Y-52685D01*
X73479Y-52680D01*
X73493Y-52677D01*
X73497Y-52675D01*
X73502Y-52673D01*
X73515Y-52666D01*
X73521Y-52664D01*
X73529Y-52664D01*
X73558Y-52658D01*
X73585Y-52647D01*
X73610Y-52630D01*
X73631Y-52610D01*
X73647Y-52585D01*
X73658Y-52558D01*
X73664Y-52529D01*
X73665Y-52500D01*
X73665Y-52349D01*
X73693Y-52230D01*
X73728Y-52230D01*
X73737Y-52243D01*
X73758Y-52264D01*
X73782Y-52280D01*
X73809Y-52291D01*
X73838Y-52297D01*
X73868Y-52298D01*
X74026Y-52298D01*
X74055Y-52292D01*
X74082Y-52281D01*
X74087Y-52277D01*
X74087Y-52333D01*
X74075Y-52350D01*
X74064Y-52377D01*
X74058Y-52406D01*
X74058Y-52435D01*
X74058Y-52672D01*
X74064Y-52701D01*
X74075Y-52728D01*
X74091Y-52753D01*
X74112Y-52774D01*
X74136Y-52790D01*
X74150Y-52796D01*
X74141Y-52800D01*
X74117Y-52816D01*
X74114Y-52819D01*
X74111Y-52817D01*
X74087Y-52800D01*
X74060Y-52789D01*
X74031Y-52783D01*
X74002Y-52783D01*
X73843Y-52783D01*
X73815Y-52788D01*
X73787Y-52800D01*
X73763Y-52816D01*
X73742Y-52837D01*
X73726Y-52861D01*
X73714Y-52888D01*
X73708Y-52917D01*
X73708Y-52946D01*
X73708Y-53183D01*
X73714Y-53212D01*
X73725Y-53239D01*
X73737Y-53257D01*
X73737Y-53314D01*
X73665Y-53314D01*
X73665Y-53199D01*
X73659Y-53170D01*
X73648Y-53143D01*
X73631Y-53118D01*
X73611Y-53097D01*
X73586Y-53081D01*
X73559Y-53070D01*
X73530Y-53064D01*
X73501Y-53063D01*
X73388Y-53063D01*
X73372Y-53055D01*
X73371Y-53054D01*
X73370Y-53054D01*
X73353Y-53048D01*
X73335Y-53043D01*
X73334Y-53043D01*
X73333Y-53042D01*
X73315Y-53041D01*
X73296Y-53039D01*
X73294Y-53039D01*
X73294Y-53039D01*
X73294Y-53039D01*
X73294Y-53039D01*
X73115Y-53039D01*
X73076Y-53042D01*
X73038Y-53054D01*
X73020Y-53063D01*
X72700Y-53063D01*
X72671Y-53069D01*
X72644Y-53080D01*
X72619Y-53097D01*
X72598Y-53117D01*
X72582Y-53142D01*
X72571Y-53169D01*
X72565Y-53198D01*
X72564Y-53227D01*
X72564Y-53828D01*
X72570Y-53857D01*
X72581Y-53884D01*
X72598Y-53909D01*
X72618Y-53930D01*
X72643Y-53946D01*
X72670Y-53957D01*
X72699Y-53963D01*
X72728Y-53964D01*
X73529Y-53964D01*
X73558Y-53958D01*
X73585Y-53947D01*
X73610Y-53930D01*
X73631Y-53910D01*
X73647Y-53885D01*
X73658Y-53858D01*
X73664Y-53829D01*
X73665Y-53800D01*
X73665Y-53714D01*
X73718Y-53714D01*
X73725Y-53732D01*
X73741Y-53756D01*
X73762Y-53777D01*
X73786Y-53793D01*
X73814Y-53805D01*
X73842Y-53811D01*
X73872Y-53811D01*
X74030Y-53811D01*
X74059Y-53805D01*
X74086Y-53794D01*
X74091Y-53791D01*
X74091Y-53829D01*
X74080Y-53845D01*
X74068Y-53872D01*
X74062Y-53901D01*
X74062Y-53931D01*
X74062Y-54168D01*
X74068Y-54196D01*
X74079Y-54224D01*
X74095Y-54248D01*
X74116Y-54269D01*
X74140Y-54286D01*
X74168Y-54297D01*
X74196Y-54303D01*
X74226Y-54303D01*
X74384Y-54303D01*
X74413Y-54297D01*
X74440Y-54286D01*
X74464Y-54270D01*
X74485Y-54249D01*
X74495Y-54235D01*
X74507Y-54235D01*
X74526Y-54233D01*
X74544Y-54232D01*
X74545Y-54231D01*
X74546Y-54231D01*
X74564Y-54226D01*
X74582Y-54221D01*
X74583Y-54220D01*
X74584Y-54220D01*
X74600Y-54211D01*
X74616Y-54203D01*
X74617Y-54202D01*
X74618Y-54202D01*
X74632Y-54190D01*
X74647Y-54178D01*
X74648Y-54177D01*
X74648Y-54177D01*
X74648Y-54177D01*
X74649Y-54176D01*
X74787Y-54038D01*
X74953Y-54038D01*
X74928Y-54063D01*
X74894Y-54111D01*
X74871Y-54165D01*
X74859Y-54223D01*
X74858Y-54282D01*
X74869Y-54340D01*
X74890Y-54394D01*
X74922Y-54444D01*
X74963Y-54486D01*
X74994Y-54507D01*
X74994Y-54827D01*
X74980Y-54836D01*
X74959Y-54857D01*
X74943Y-54881D01*
X74932Y-54908D01*
X74926Y-54937D01*
X74925Y-54967D01*
X74925Y-55125D01*
X74931Y-55154D01*
X74942Y-55181D01*
X74959Y-55205D01*
X74962Y-55208D01*
X74959Y-55211D01*
X74949Y-55226D01*
X74934Y-55203D01*
X74914Y-55182D01*
X74889Y-55165D01*
X74862Y-55154D01*
X74833Y-55148D01*
X74804Y-55148D01*
X74567Y-55148D01*
X74538Y-55154D01*
X74511Y-55165D01*
X74493Y-55177D01*
X74470Y-55177D01*
X74470Y-54925D01*
X74464Y-54896D01*
X74453Y-54869D01*
X74436Y-54844D01*
X74416Y-54823D01*
X74391Y-54807D01*
X74364Y-54796D01*
X74335Y-54790D01*
X74306Y-54789D01*
X73955Y-54789D01*
X73926Y-54795D01*
X73899Y-54806D01*
X73874Y-54823D01*
X73853Y-54843D01*
X73837Y-54868D01*
X73826Y-54895D01*
X73820Y-54924D01*
X73819Y-54953D01*
X73819Y-55504D01*
X73825Y-55533D01*
X73836Y-55560D01*
X73846Y-55574D01*
X73693Y-55574D01*
X73702Y-55561D01*
X73713Y-55534D01*
X73719Y-55505D01*
X73720Y-55476D01*
X73720Y-54925D01*
X73714Y-54896D01*
X73703Y-54869D01*
X73686Y-54844D01*
X73666Y-54823D01*
X73645Y-54809D01*
X73645Y-54497D01*
X73642Y-54474D01*
X73640Y-54451D01*
X73640Y-54450D01*
X73640Y-54448D01*
X73633Y-54426D01*
X73627Y-54404D01*
X73626Y-54403D01*
X73626Y-54399D01*
X73615Y-54342D01*
X73592Y-54287D01*
X73560Y-54238D01*
X73518Y-54196D01*
X73470Y-54163D01*
X73415Y-54141D01*
X73358Y-54129D01*
X73299Y-54128D01*
X73241Y-54139D01*
X73187Y-54161D01*
X73137Y-54194D01*
X73095Y-54235D01*
X73062Y-54283D01*
X73039Y-54337D01*
X73027Y-54395D01*
X73026Y-54454D01*
X73036Y-54512D01*
X73058Y-54566D01*
X73090Y-54616D01*
X73131Y-54658D01*
X73145Y-54668D01*
X73145Y-54809D01*
X73124Y-54823D01*
X73103Y-54843D01*
X73087Y-54868D01*
X73076Y-54895D01*
X73070Y-54924D01*
X73069Y-54953D01*
X73069Y-55504D01*
X73075Y-55533D01*
X73086Y-55560D01*
X73103Y-55585D01*
X73123Y-55606D01*
X73148Y-55622D01*
X73175Y-55633D01*
X73195Y-55638D01*
X73195Y-55695D01*
X73196Y-55713D01*
X73198Y-55731D01*
X73198Y-55732D01*
X73198Y-55733D01*
X73204Y-55751D01*
X73209Y-55769D01*
X73209Y-55770D01*
X73210Y-55771D01*
X73218Y-55787D01*
X73227Y-55803D01*
X73227Y-55804D01*
X73228Y-55805D01*
X73240Y-55820D01*
X73251Y-55834D01*
X73253Y-55835D01*
X73253Y-55835D01*
X73253Y-55835D01*
X73253Y-55836D01*
X73499Y-56082D01*
X73499Y-56289D01*
X73505Y-56318D01*
X73516Y-56345D01*
X73533Y-56370D01*
X73553Y-56391D01*
X73578Y-56407D01*
X73605Y-56418D01*
X73634Y-56424D01*
X73663Y-56425D01*
X74014Y-56425D01*
X74043Y-56419D01*
X74070Y-56408D01*
X74095Y-56391D01*
X74116Y-56371D01*
X74132Y-56346D01*
X74143Y-56319D01*
X74149Y-56290D01*
X74150Y-56261D01*
X74150Y-55710D01*
X74144Y-55681D01*
X74133Y-55654D01*
X74123Y-55640D01*
X74276Y-55640D01*
X74267Y-55653D01*
X74256Y-55680D01*
X74250Y-55709D01*
X74249Y-55738D01*
X74249Y-56289D01*
X74255Y-56318D01*
X74266Y-56345D01*
X74283Y-56370D01*
X74303Y-56391D01*
X74328Y-56407D01*
X74355Y-56418D01*
X74384Y-56424D01*
X74413Y-56425D01*
X74579Y-56425D01*
X74560Y-56432D01*
X74511Y-56465D01*
X74469Y-56506D01*
X74435Y-56554D01*
X74412Y-56608D01*
X74400Y-56666D01*
X74399Y-56725D01*
X74410Y-56783D01*
X74431Y-56837D01*
X74463Y-56887D01*
X74504Y-56929D01*
X74552Y-56963D01*
X74606Y-56986D01*
X74664Y-56999D01*
X74723Y-57000D01*
X74781Y-56990D01*
X74835Y-56969D01*
X74885Y-56937D01*
X74921Y-56903D01*
X74925Y-56923D01*
X74936Y-56950D01*
X74953Y-56975D01*
X74973Y-56996D01*
X74998Y-57012D01*
X75025Y-57023D01*
X75054Y-57029D01*
X75083Y-57030D01*
X75444Y-57030D01*
X75473Y-57024D01*
X75500Y-57013D01*
X75525Y-56996D01*
X75546Y-56976D01*
X75562Y-56951D01*
X75573Y-56924D01*
X75579Y-56895D01*
X75580Y-56866D01*
X75580Y-56505D01*
X75574Y-56476D01*
X75563Y-56449D01*
X75546Y-56424D01*
X75526Y-56403D01*
X75501Y-56387D01*
X75474Y-56376D01*
X75445Y-56370D01*
X75416Y-56369D01*
X75055Y-56369D01*
X75026Y-56375D01*
X74999Y-56386D01*
X74974Y-56403D01*
X74953Y-56423D01*
X74937Y-56448D01*
X74926Y-56475D01*
X74921Y-56497D01*
X74892Y-56467D01*
X74843Y-56434D01*
X74800Y-56416D01*
X74820Y-56408D01*
X74845Y-56391D01*
X74866Y-56371D01*
X74882Y-56346D01*
X74893Y-56319D01*
X74899Y-56290D01*
X74900Y-56261D01*
X74900Y-56124D01*
X74904Y-56129D01*
X74952Y-56163D01*
X75006Y-56186D01*
X75064Y-56199D01*
X75123Y-56200D01*
X75181Y-56190D01*
X75235Y-56169D01*
X75282Y-56139D01*
X75286Y-56150D01*
X75303Y-56175D01*
X75323Y-56196D01*
X75348Y-56212D01*
X75375Y-56223D01*
X75404Y-56229D01*
X75433Y-56230D01*
X75794Y-56230D01*
X75823Y-56224D01*
X75850Y-56213D01*
X75875Y-56196D01*
X75896Y-56176D01*
X75912Y-56151D01*
X75923Y-56124D01*
X75929Y-56095D01*
X75930Y-56066D01*
X75930Y-55709D01*
X75934Y-55713D01*
X75934Y-55881D01*
X75935Y-55899D01*
X75937Y-55918D01*
X75937Y-55919D01*
X75937Y-55919D01*
X75943Y-55937D01*
X75948Y-55955D01*
X75948Y-55956D01*
X75949Y-55957D01*
X75957Y-55973D01*
X75966Y-55990D01*
X75967Y-55991D01*
X75967Y-55991D01*
X75979Y-56006D01*
X75991Y-56020D01*
X75991Y-56021D01*
X75992Y-56021D01*
X76006Y-56033D01*
X76021Y-56046D01*
X76021Y-56046D01*
X76022Y-56046D01*
X76038Y-56055D01*
X76055Y-56064D01*
X76055Y-56065D01*
X76056Y-56065D01*
X76074Y-56070D01*
X76083Y-56073D01*
X76099Y-56087D01*
X76142Y-56110D01*
X76189Y-56125D01*
X76198Y-56126D01*
X75955Y-56369D01*
X75755Y-56369D01*
X75726Y-56375D01*
X75699Y-56386D01*
X75674Y-56403D01*
X75653Y-56423D01*
X75637Y-56448D01*
X75626Y-56475D01*
X75620Y-56504D01*
X75619Y-56533D01*
X75619Y-56894D01*
X75625Y-56923D01*
X75636Y-56950D01*
X75653Y-56975D01*
X75673Y-56996D01*
X75698Y-57012D01*
X75725Y-57023D01*
X75754Y-57029D01*
X75783Y-57030D01*
X76144Y-57030D01*
X76169Y-57025D01*
X76160Y-57048D01*
X76140Y-57141D01*
X76138Y-57236D01*
X76156Y-57329D01*
X76191Y-57417D01*
X76242Y-57497D01*
X76308Y-57566D01*
X76386Y-57620D01*
X76473Y-57658D01*
X76566Y-57678D01*
X76661Y-57680D01*
X76755Y-57664D01*
X76843Y-57630D01*
X76924Y-57579D01*
X76992Y-57513D01*
X77047Y-57435D01*
X77086Y-57349D01*
X77107Y-57256D01*
X77108Y-57147D01*
X77090Y-57054D01*
X77054Y-56966D01*
X77001Y-56887D01*
X76934Y-56820D01*
X76855Y-56766D01*
X76768Y-56730D01*
X76675Y-56711D01*
X76580Y-56710D01*
X76486Y-56728D01*
X76398Y-56763D01*
X76319Y-56815D01*
X76280Y-56853D01*
X76280Y-56752D01*
X76901Y-56131D01*
X77085Y-56131D01*
X77061Y-56146D01*
X77025Y-56182D01*
X76997Y-56223D01*
X76977Y-56270D01*
X76966Y-56319D01*
X76965Y-56370D01*
X76975Y-56420D01*
X76993Y-56467D01*
X77021Y-56510D01*
X77056Y-56546D01*
X77097Y-56575D01*
X77144Y-56595D01*
X77193Y-56606D01*
X77244Y-56607D01*
X77294Y-56598D01*
X77341Y-56580D01*
X77384Y-56553D01*
X77405Y-56557D01*
X77435Y-56558D01*
X77593Y-56557D01*
X77622Y-56552D01*
X77628Y-56549D01*
X77632Y-56551D01*
X77661Y-56557D01*
X77691Y-56558D01*
X77849Y-56557D01*
X77878Y-56552D01*
X77883Y-56549D01*
X77888Y-56551D01*
X77917Y-56557D01*
X77946Y-56558D01*
X78105Y-56557D01*
X78134Y-56552D01*
X78139Y-56549D01*
X78144Y-56551D01*
X78173Y-56557D01*
X78202Y-56558D01*
X78361Y-56557D01*
X78390Y-56552D01*
X78417Y-56541D01*
X78441Y-56524D01*
X78462Y-56503D01*
X78479Y-56479D01*
X78490Y-56452D01*
X78496Y-56423D01*
X78496Y-56394D01*
X78496Y-55861D01*
X78490Y-55832D01*
X78479Y-55805D01*
X78463Y-55781D01*
X78442Y-55760D01*
X78418Y-55743D01*
X78391Y-55732D01*
X78362Y-55726D01*
X78332Y-55726D01*
X78197Y-55726D01*
X78228Y-55696D01*
X78262Y-55648D01*
X78286Y-55595D01*
X78299Y-55537D01*
X78300Y-55470D01*
X78288Y-55412D01*
X78266Y-55358D01*
X78233Y-55309D01*
X78192Y-55267D01*
X78143Y-55234D01*
X78089Y-55212D01*
X78031Y-55200D01*
X77982Y-55199D01*
X77841Y-55058D01*
X77827Y-55046D01*
X77812Y-55034D01*
X77812Y-55034D01*
X77811Y-55033D01*
X77794Y-55025D01*
X77778Y-55016D01*
X77777Y-55015D01*
X77776Y-55015D01*
X77759Y-55009D01*
X77741Y-55004D01*
X77740Y-55004D01*
X77739Y-55003D01*
X77721Y-55002D01*
X77702Y-55000D01*
X77700Y-55000D01*
X77700Y-55000D01*
X77700Y-55000D01*
X77700Y-55000D01*
X77381Y-55000D01*
X77372Y-54986D01*
X77351Y-54965D01*
X77327Y-54949D01*
X77300Y-54938D01*
X77271Y-54932D01*
X77241Y-54931D01*
X77083Y-54931D01*
X77054Y-54937D01*
X77027Y-54948D01*
X77003Y-54965D01*
X76982Y-54985D01*
X76965Y-55010D01*
X76954Y-55037D01*
X76948Y-55066D01*
X76948Y-55095D01*
X76948Y-55332D01*
X76954Y-55361D01*
X76965Y-55388D01*
X76981Y-55413D01*
X77002Y-55434D01*
X77026Y-55450D01*
X77053Y-55461D01*
X77082Y-55467D01*
X77112Y-55468D01*
X77162Y-55468D01*
X77300Y-55606D01*
X77300Y-55691D01*
X77298Y-55690D01*
X77280Y-55685D01*
X77279Y-55685D01*
X77278Y-55684D01*
X77260Y-55683D01*
X77248Y-55681D01*
X77240Y-55674D01*
X77197Y-55651D01*
X77150Y-55636D01*
X77102Y-55631D01*
X77099Y-55631D01*
X76900Y-55631D01*
X76798Y-55631D01*
X76334Y-55631D01*
X76332Y-55612D01*
X76330Y-55594D01*
X76330Y-55593D01*
X76330Y-55592D01*
X76324Y-55574D01*
X76319Y-55556D01*
X76319Y-55555D01*
X76318Y-55554D01*
X76310Y-55538D01*
X76301Y-55522D01*
X76301Y-55521D01*
X76300Y-55520D01*
X76288Y-55505D01*
X76277Y-55491D01*
X76275Y-55490D01*
X76275Y-55490D01*
X76275Y-55490D01*
X76275Y-55489D01*
X76023Y-55237D01*
X76009Y-55225D01*
X75994Y-55213D01*
X75994Y-55213D01*
X75993Y-55212D01*
X75976Y-55204D01*
X75960Y-55195D01*
X75959Y-55194D01*
X75958Y-55194D01*
X75941Y-55188D01*
X75923Y-55183D01*
X75922Y-55183D01*
X75921Y-55182D01*
X75907Y-55181D01*
X75887Y-55167D01*
X75860Y-55156D01*
X75831Y-55150D01*
X75802Y-55150D01*
X75565Y-55150D01*
X75536Y-55156D01*
X75509Y-55167D01*
X75491Y-55179D01*
X75445Y-55179D01*
X75455Y-55155D01*
X75461Y-55126D01*
X75462Y-55096D01*
X75462Y-55036D01*
X75477Y-55006D01*
X75488Y-54969D01*
X75491Y-54930D01*
X75487Y-54891D01*
X75476Y-54854D01*
X75457Y-54820D01*
X75432Y-54790D01*
X75402Y-54765D01*
X75394Y-54760D01*
X75394Y-54444D01*
X75421Y-54405D01*
X75445Y-54352D01*
X75458Y-54294D01*
X75459Y-54227D01*
X75447Y-54169D01*
X75425Y-54115D01*
X75392Y-54066D01*
X75364Y-54038D01*
X75466Y-54038D01*
X75466Y-54571D01*
X75471Y-54600D01*
X75483Y-54627D01*
X75499Y-54652D01*
X75520Y-54673D01*
X75544Y-54689D01*
X75571Y-54701D01*
X75600Y-54706D01*
X75629Y-54707D01*
X76170Y-54707D01*
X76199Y-54701D01*
X76226Y-54690D01*
X76250Y-54673D01*
X76271Y-54653D01*
X76288Y-54628D01*
X76299Y-54601D01*
X76305Y-54572D01*
X76305Y-54543D01*
X76305Y-53743D01*
X77574Y-53743D01*
X77654Y-53823D01*
X77654Y-54625D01*
X77656Y-54644D01*
X77657Y-54662D01*
X77658Y-54663D01*
X77658Y-54664D01*
X77663Y-54682D01*
X77668Y-54700D01*
X77669Y-54701D01*
X77669Y-54702D01*
X77678Y-54718D01*
X77686Y-54734D01*
X77687Y-54735D01*
X77687Y-54736D01*
X77699Y-54750D01*
X77710Y-54765D01*
X77712Y-54766D01*
X77712Y-54766D01*
X77712Y-54766D01*
X77712Y-54767D01*
X77936Y-54991D01*
X77951Y-55003D01*
X77965Y-55015D01*
X77966Y-55015D01*
X77967Y-55016D01*
X77983Y-55024D01*
X77984Y-55025D01*
X77984Y-55061D01*
X77990Y-55090D01*
X78001Y-55117D01*
X78017Y-55142D01*
X78038Y-55162D01*
X78063Y-55179D01*
X78090Y-55190D01*
X78118Y-55196D01*
X78148Y-55196D01*
X78739Y-55196D01*
X78768Y-55191D01*
X78796Y-55179D01*
X78820Y-55163D01*
X78841Y-55142D01*
X78857Y-55118D01*
X78869Y-55091D01*
X78875Y-55062D01*
X78875Y-55033D01*
X78875Y-54638D01*
X78869Y-54609D01*
X78858Y-54582D01*
X78842Y-54557D01*
X78821Y-54537D01*
X78796Y-54520D01*
X78769Y-54509D01*
X78741Y-54503D01*
X78711Y-54503D01*
X78120Y-54503D01*
X78091Y-54508D01*
X78063Y-54520D01*
X78054Y-54526D01*
X78054Y-53870D01*
X78089Y-53885D01*
X78147Y-53898D01*
X78206Y-53899D01*
X78264Y-53889D01*
X78318Y-53868D01*
X78368Y-53836D01*
X78410Y-53796D01*
X78421Y-53807D01*
X78469Y-53841D01*
X78523Y-53864D01*
X78581Y-53877D01*
X78640Y-53878D01*
X78698Y-53868D01*
X78746Y-53849D01*
X78754Y-53862D01*
X78762Y-53879D01*
X78763Y-53880D01*
X78763Y-53881D01*
X78775Y-53895D01*
X78786Y-53909D01*
X78788Y-53911D01*
X78788Y-53911D01*
X78788Y-53911D01*
X78788Y-53911D01*
X78880Y-54003D01*
X78879Y-54045D01*
X78890Y-54103D01*
X78911Y-54157D01*
X78943Y-54207D01*
X78984Y-54249D01*
X79032Y-54283D01*
X79086Y-54306D01*
X79144Y-54319D01*
X79203Y-54320D01*
X79261Y-54310D01*
X79315Y-54289D01*
X79365Y-54257D01*
X79408Y-54216D01*
X79442Y-54168D01*
X79466Y-54115D01*
X79479Y-54057D01*
X79480Y-53990D01*
X79468Y-53932D01*
X79465Y-53925D01*
X79694Y-54153D01*
X79694Y-54991D01*
X79682Y-54991D01*
X79653Y-54997D01*
X79626Y-55008D01*
X79623Y-55010D01*
X79271Y-55011D01*
X79259Y-55007D01*
X79210Y-55003D01*
X79162Y-55007D01*
X79115Y-55021D01*
X79109Y-55024D01*
X79077Y-55024D01*
X79048Y-55030D01*
X79021Y-55041D01*
X78996Y-55057D01*
X78975Y-55078D01*
X78959Y-55102D01*
X78948Y-55129D01*
X78942Y-55158D01*
X78941Y-55188D01*
X78941Y-55346D01*
X78947Y-55375D01*
X78958Y-55402D01*
X78975Y-55426D01*
X78995Y-55447D01*
X79020Y-55464D01*
X79047Y-55475D01*
X79076Y-55481D01*
X79102Y-55481D01*
X79121Y-55492D01*
X79122Y-55492D01*
X79122Y-55492D01*
X79145Y-55499D01*
X79167Y-55506D01*
X79168Y-55506D01*
X79169Y-55506D01*
X79192Y-55509D01*
X79216Y-55511D01*
X79217Y-55511D01*
X79218Y-55511D01*
X79218Y-55511D01*
X79219Y-55511D01*
X79550Y-55510D01*
X79550Y-55834D01*
X79535Y-55854D01*
X79512Y-55908D01*
X79500Y-55966D01*
X79499Y-56025D01*
X79510Y-56083D01*
X79531Y-56137D01*
X79563Y-56187D01*
X79604Y-56229D01*
X79652Y-56263D01*
X79706Y-56286D01*
X79764Y-56299D01*
X79823Y-56300D01*
X79881Y-56290D01*
X79935Y-56269D01*
X79985Y-56237D01*
X80028Y-56196D01*
X80062Y-56148D01*
X80086Y-56095D01*
X80099Y-56037D01*
X80100Y-55970D01*
X80088Y-55912D01*
X80066Y-55858D01*
X80050Y-55834D01*
X80050Y-55528D01*
X80105Y-55528D01*
X80134Y-55522D01*
X80161Y-55511D01*
X80186Y-55494D01*
X80207Y-55474D01*
X80223Y-55449D01*
X80234Y-55422D01*
X80240Y-55393D01*
X80241Y-55364D01*
X80241Y-55127D01*
X80235Y-55098D01*
X80224Y-55071D01*
X80207Y-55046D01*
X80187Y-55025D01*
X80162Y-55009D01*
X80135Y-54998D01*
X80106Y-54992D01*
X80094Y-54992D01*
X80094Y-54196D01*
X80514Y-54617D01*
X80485Y-54622D01*
X80458Y-54633D01*
X80433Y-54650D01*
X80412Y-54670D01*
X80396Y-54695D01*
X80385Y-54722D01*
X80379Y-54751D01*
X80378Y-54780D01*
X80378Y-55017D01*
X80384Y-55046D01*
X80395Y-55073D01*
X80412Y-55098D01*
X80432Y-55119D01*
X80457Y-55135D01*
X80484Y-55146D01*
X80513Y-55152D01*
X80542Y-55153D01*
X80937Y-55153D01*
X80966Y-55147D01*
X80993Y-55136D01*
X81018Y-55119D01*
X81039Y-55099D01*
X81048Y-55085D01*
X81147Y-55085D01*
X81164Y-55096D01*
X81191Y-55107D01*
X81220Y-55113D01*
X81249Y-55113D01*
X81486Y-55113D01*
X81515Y-55107D01*
X81542Y-55096D01*
X81567Y-55080D01*
X81588Y-55059D01*
X81604Y-55035D01*
X81615Y-55008D01*
X81621Y-54979D01*
X81622Y-54949D01*
X81622Y-54791D01*
X81616Y-54762D01*
X81605Y-54735D01*
X81588Y-54711D01*
X81568Y-54690D01*
X81543Y-54673D01*
X81516Y-54662D01*
X81487Y-54656D01*
X81458Y-54656D01*
X81221Y-54656D01*
X81192Y-54662D01*
X81165Y-54673D01*
X81147Y-54685D01*
X81048Y-54685D01*
X81039Y-54671D01*
X81019Y-54650D01*
X80994Y-54634D01*
X80967Y-54623D01*
X80938Y-54617D01*
X80926Y-54617D01*
X80926Y-54546D01*
X80924Y-54527D01*
X80922Y-54509D01*
X80922Y-54508D01*
X80922Y-54507D01*
X80916Y-54489D01*
X80911Y-54471D01*
X80911Y-54470D01*
X80910Y-54469D01*
X80902Y-54453D01*
X80893Y-54437D01*
X80893Y-54436D01*
X80892Y-54435D01*
X80880Y-54420D01*
X80869Y-54406D01*
X80867Y-54405D01*
X80867Y-54405D01*
X80867Y-54405D01*
X80867Y-54404D01*
X79900Y-53437D01*
X80008Y-53437D01*
X80036Y-53432D01*
X80064Y-53420D01*
X80088Y-53404D01*
X80109Y-53383D01*
X80125Y-53359D01*
X80137Y-53332D01*
X80143Y-53303D01*
X80143Y-53274D01*
X80143Y-52965D01*
X80480Y-52965D01*
X80509Y-52959D01*
X80536Y-52948D01*
X80561Y-52932D01*
X80581Y-52911D01*
X80598Y-52887D01*
X80609Y-52859D01*
X80615Y-52831D01*
X80615Y-52801D01*
X80615Y-52564D01*
X80610Y-52539D01*
X80615Y-52516D01*
X80615Y-52486D01*
X80615Y-52249D01*
X80610Y-52224D01*
X80615Y-52201D01*
X80615Y-52171D01*
X80615Y-51934D01*
X80610Y-51909D01*
X80615Y-51886D01*
X80615Y-51856D01*
X80615Y-51619D01*
X80610Y-51594D01*
X80615Y-51571D01*
X80615Y-51541D01*
X80615Y-51304D01*
X80610Y-51279D01*
X80615Y-51256D01*
X80615Y-51226D01*
X80615Y-51158D01*
X80618Y-51161D01*
X80632Y-51173D01*
X80647Y-51185D01*
X80647Y-51185D01*
X80648Y-51186D01*
X80664Y-51194D01*
X80681Y-51203D01*
X80682Y-51204D01*
X80683Y-51204D01*
X80700Y-51210D01*
X80718Y-51215D01*
X80719Y-51215D01*
X80720Y-51216D01*
X80738Y-51217D01*
X80757Y-51219D01*
X80759Y-51219D01*
X80759Y-51219D01*
X80759Y-51219D01*
X80760Y-51220D01*
X80910Y-51220D01*
X80909Y-51255D01*
X80920Y-51313D01*
X80941Y-51367D01*
X80973Y-51417D01*
X81014Y-51459D01*
X81062Y-51493D01*
X81116Y-51516D01*
X81174Y-51529D01*
X81233Y-51530D01*
X81291Y-51520D01*
X81345Y-51499D01*
X81395Y-51467D01*
X81420Y-51444D01*
X81420Y-51481D01*
X81396Y-51485D01*
X81369Y-51496D01*
X81344Y-51513D01*
X81323Y-51533D01*
X81307Y-51558D01*
X81296Y-51585D01*
X81290Y-51614D01*
X81289Y-51643D01*
X81289Y-51690D01*
X80955Y-52024D01*
X80877Y-52024D01*
X80848Y-52030D01*
X80821Y-52041D01*
X80796Y-52057D01*
X80775Y-52078D01*
X80759Y-52102D01*
X80748Y-52129D01*
X80742Y-52158D01*
X80741Y-52188D01*
X80741Y-52346D01*
X80747Y-52375D01*
X80758Y-52402D01*
X80775Y-52426D01*
X80778Y-52429D01*
X80775Y-52432D01*
X80759Y-52456D01*
X80748Y-52483D01*
X80742Y-52512D01*
X80741Y-52542D01*
X80741Y-52700D01*
X80747Y-52729D01*
X80758Y-52756D01*
X80775Y-52780D01*
X80795Y-52801D01*
X80820Y-52818D01*
X80847Y-52829D01*
X80876Y-52835D01*
X80905Y-52835D01*
X81048Y-52835D01*
X81048Y-52894D01*
X81022Y-52904D01*
X80973Y-52937D01*
X80931Y-52978D01*
X80897Y-53026D01*
X80874Y-53080D01*
X80862Y-53138D01*
X80861Y-53186D01*
X80851Y-53186D01*
X80793Y-53197D01*
X80739Y-53219D01*
X80690Y-53252D01*
X80648Y-53293D01*
X80614Y-53341D01*
X80591Y-53395D01*
X80579Y-53453D01*
X80578Y-53512D01*
X80589Y-53570D01*
X80610Y-53624D01*
X80642Y-53674D01*
X80683Y-53716D01*
X80731Y-53750D01*
X80785Y-53773D01*
X80843Y-53786D01*
X80902Y-53787D01*
X80960Y-53777D01*
X81014Y-53756D01*
X81064Y-53724D01*
X81104Y-53687D01*
X81322Y-53687D01*
X81496Y-53861D01*
X81510Y-53873D01*
X81525Y-53885D01*
X81525Y-53885D01*
X81526Y-53886D01*
X81542Y-53894D01*
X81559Y-53903D01*
X81560Y-53904D01*
X81561Y-53904D01*
X81578Y-53910D01*
X81596Y-53915D01*
X81597Y-53915D01*
X81598Y-53916D01*
X81616Y-53917D01*
X81635Y-53919D01*
X81637Y-53919D01*
X81637Y-53919D01*
X81637Y-53919D01*
X81638Y-53920D01*
X81858Y-53920D01*
X81867Y-53933D01*
X81888Y-53954D01*
X81912Y-53970D01*
X81939Y-53981D01*
X81968Y-53987D01*
X81998Y-53988D01*
X82156Y-53988D01*
X82185Y-53982D01*
X82212Y-53971D01*
X82236Y-53954D01*
X82239Y-53951D01*
X82242Y-53954D01*
X82266Y-53970D01*
X82293Y-53981D01*
X82322Y-53987D01*
X82352Y-53988D01*
X82510Y-53988D01*
X82516Y-53986D01*
X82760Y-54231D01*
X82747Y-54262D01*
X82726Y-54357D01*
X82725Y-54456D01*
X82743Y-54552D01*
X82779Y-54643D01*
X82832Y-54726D01*
X82900Y-54796D01*
X82980Y-54852D01*
X83070Y-54891D01*
X83166Y-54912D01*
X83264Y-54914D01*
X83361Y-54897D01*
X83452Y-54862D01*
X83535Y-54809D01*
X83606Y-54742D01*
X83662Y-54662D01*
X83702Y-54572D01*
X83724Y-54476D01*
X83726Y-54364D01*
X83706Y-54268D01*
X83669Y-54178D01*
X83615Y-54096D01*
X83546Y-54026D01*
X83464Y-53972D01*
X83374Y-53934D01*
X83278Y-53914D01*
X83268Y-53914D01*
X83361Y-53897D01*
X83452Y-53862D01*
X83535Y-53809D01*
X83606Y-53742D01*
X83662Y-53662D01*
X83702Y-53572D01*
X83724Y-53476D01*
X83726Y-53364D01*
X83706Y-53268D01*
X83669Y-53178D01*
X83615Y-53096D01*
X83546Y-53026D01*
X83464Y-52972D01*
X83374Y-52934D01*
X83278Y-52914D01*
X83268Y-52914D01*
X83361Y-52897D01*
X83452Y-52862D01*
X83535Y-52809D01*
X83606Y-52742D01*
X83662Y-52662D01*
X83702Y-52572D01*
X83724Y-52476D01*
X83726Y-52364D01*
X83706Y-52268D01*
X83669Y-52178D01*
X83615Y-52096D01*
X83546Y-52026D01*
X83464Y-51972D01*
X83374Y-51934D01*
X83278Y-51914D01*
X83268Y-51914D01*
X83361Y-51897D01*
X83452Y-51862D01*
X83535Y-51809D01*
X83606Y-51742D01*
X83662Y-51662D01*
X83702Y-51572D01*
X83724Y-51476D01*
X83726Y-51364D01*
X83706Y-51268D01*
X83669Y-51178D01*
X83615Y-51096D01*
X83546Y-51026D01*
X83464Y-50972D01*
X83374Y-50934D01*
X83278Y-50914D01*
X83268Y-50914D01*
X83361Y-50897D01*
X83452Y-50862D01*
X83535Y-50809D01*
X83606Y-50742D01*
X83662Y-50662D01*
X83702Y-50572D01*
X83724Y-50476D01*
X83726Y-50364D01*
X83706Y-50268D01*
X83669Y-50178D01*
X83615Y-50096D01*
X83546Y-50026D01*
X83464Y-49972D01*
X83374Y-49934D01*
X83278Y-49914D01*
X83180Y-49913D01*
X83084Y-49932D01*
X82993Y-49968D01*
X82911Y-50022D01*
X82841Y-50091D01*
X82837Y-50097D01*
X82486Y-50097D01*
X82480Y-50092D01*
X82480Y-50053D01*
X82480Y-50053D01*
X82505Y-50036D01*
X82526Y-50016D01*
X82542Y-49991D01*
X82553Y-49964D01*
X82559Y-49935D01*
X82560Y-49906D01*
X82560Y-49545D01*
X82554Y-49516D01*
X82543Y-49489D01*
X82526Y-49464D01*
X82506Y-49443D01*
X82481Y-49427D01*
X82454Y-49416D01*
X82425Y-49410D01*
X82396Y-49409D01*
X82035Y-49409D01*
X82006Y-49415D01*
X81979Y-49426D01*
X81954Y-49443D01*
X81933Y-49463D01*
X81917Y-49488D01*
X81906Y-49515D01*
X81900Y-49544D01*
X81899Y-49573D01*
X81899Y-49934D01*
X81905Y-49963D01*
X81916Y-49990D01*
X81933Y-50015D01*
X81953Y-50036D01*
X81978Y-50052D01*
X82005Y-50063D01*
X82034Y-50069D01*
X82063Y-50070D01*
X82080Y-50070D01*
X82080Y-50092D01*
X82066Y-50101D01*
X82045Y-50122D01*
X82029Y-50146D01*
X82018Y-50173D01*
X82012Y-50202D01*
X82011Y-50232D01*
X82011Y-50390D01*
X82017Y-50419D01*
X82028Y-50446D01*
X82045Y-50470D01*
X82048Y-50473D01*
X82045Y-50476D01*
X82029Y-50500D01*
X82018Y-50527D01*
X82012Y-50556D01*
X82011Y-50586D01*
X82011Y-50744D01*
X82017Y-50773D01*
X82028Y-50800D01*
X82045Y-50824D01*
X82065Y-50845D01*
X82080Y-50855D01*
X82080Y-50877D01*
X81895Y-50692D01*
X81895Y-50567D01*
X81889Y-50538D01*
X81878Y-50511D01*
X81862Y-50486D01*
X81841Y-50465D01*
X81817Y-50449D01*
X81790Y-50438D01*
X81761Y-50432D01*
X81731Y-50431D01*
X81573Y-50431D01*
X81544Y-50437D01*
X81517Y-50448D01*
X81493Y-50465D01*
X81490Y-50468D01*
X81487Y-50465D01*
X81463Y-50449D01*
X81436Y-50438D01*
X81407Y-50432D01*
X81377Y-50431D01*
X81219Y-50431D01*
X81190Y-50437D01*
X81163Y-50448D01*
X81139Y-50465D01*
X81118Y-50485D01*
X81108Y-50500D01*
X80889Y-50500D01*
X80795Y-50405D01*
X80942Y-50405D01*
X80971Y-50399D01*
X80998Y-50388D01*
X81016Y-50377D01*
X81144Y-50377D01*
X81153Y-50386D01*
X81178Y-50402D01*
X81205Y-50413D01*
X81234Y-50419D01*
X81263Y-50420D01*
X81624Y-50420D01*
X81653Y-50414D01*
X81680Y-50403D01*
X81705Y-50386D01*
X81726Y-50366D01*
X81742Y-50341D01*
X81753Y-50314D01*
X81759Y-50285D01*
X81760Y-50256D01*
X81760Y-49895D01*
X81754Y-49866D01*
X81743Y-49839D01*
X81726Y-49814D01*
X81706Y-49793D01*
X81681Y-49777D01*
X81654Y-49766D01*
X81625Y-49760D01*
X81596Y-49759D01*
X81235Y-49759D01*
X81206Y-49765D01*
X81179Y-49776D01*
X81154Y-49793D01*
X81133Y-49813D01*
X81117Y-49838D01*
X81106Y-49865D01*
X81100Y-49894D01*
X81099Y-49923D01*
X81099Y-49967D01*
X81090Y-49977D01*
X81058Y-49977D01*
X81060Y-49973D01*
X81071Y-49946D01*
X81077Y-49917D01*
X81078Y-49887D01*
X81078Y-49837D01*
X81202Y-49712D01*
X81205Y-49713D01*
X81234Y-49719D01*
X81263Y-49720D01*
X81624Y-49720D01*
X81653Y-49714D01*
X81680Y-49703D01*
X81705Y-49686D01*
X81726Y-49666D01*
X81742Y-49641D01*
X81753Y-49614D01*
X81759Y-49585D01*
X81760Y-49556D01*
X81760Y-49390D01*
X82500Y-49390D01*
X82518Y-49388D01*
X82536Y-49386D01*
X82537Y-49386D01*
X82538Y-49386D01*
X82556Y-49380D01*
X82574Y-49375D01*
X82575Y-49375D01*
X82576Y-49374D01*
X82592Y-49366D01*
X82608Y-49357D01*
X82609Y-49357D01*
X82610Y-49356D01*
X82625Y-49344D01*
X82639Y-49333D01*
X82640Y-49331D01*
X82640Y-49331D01*
X82640Y-49331D01*
X82641Y-49331D01*
X82858Y-49114D01*
X82870Y-49100D01*
X82882Y-49085D01*
X82882Y-49085D01*
X82883Y-49084D01*
X82891Y-49067D01*
X82900Y-49051D01*
X82901Y-49050D01*
X82901Y-49049D01*
X82907Y-49032D01*
X82912Y-49014D01*
X82912Y-49013D01*
X82913Y-49012D01*
X82914Y-48994D01*
X82916Y-48975D01*
X82916Y-48973D01*
X82916Y-48973D01*
X82916Y-48973D01*
X82917Y-48973D01*
X82917Y-48846D01*
X82928Y-48829D01*
X82939Y-48802D01*
X82945Y-48773D01*
X82945Y-48744D01*
X82945Y-48507D01*
X82939Y-48478D01*
X82928Y-48451D01*
X82912Y-48426D01*
X82907Y-48421D01*
X82907Y-48346D01*
X82918Y-48329D01*
X82929Y-48302D01*
X82935Y-48273D01*
X82935Y-48244D01*
X82935Y-48077D01*
X83172Y-48351D01*
X83782Y-49425D01*
X84172Y-50597D01*
X84327Y-51830D01*
X84330Y-51992D01*
M02*
