M48
;DRILL file {Pcbnew (2013-07-07 BZR 4022)-stable} date 6/15/2015 10:22:02 PM
;FORMAT={-:-/ absolute / inch / decimal}
FMAT,2
INCH,TZ
T1C0.015
T2C0.022
T3C0.035
T4C0.039
%
G90
G05
M72
T1
X7.3327Y-5.4429
X7.338Y-4.8435
X7.4305Y-5.0596
X7.47Y-5.67
X7.5Y-4.8917
X7.51Y-5.59
X7.5159Y-5.4257
X7.6378Y-4.8917
X7.647Y-5.253
X7.665Y-5.1674
X7.6699Y-5.0393
X7.689Y-4.854
X7.691Y-4.811
X7.7445Y-4.857
X7.798Y-5.21
X7.8Y-5.55
X7.8183Y-5.3599
X7.8617Y-5.3578
X7.918Y-5.402
X7.965Y-5.205
X7.9702Y-5.0869
X7.9724Y-4.7638
X7.973Y-5.143
X7.976Y-5.019
X7.98Y-5.6
X8.077Y-4.809
X8.077Y-4.864
X8.0879Y-5.3487
X8.1162Y-5.3172
X8.121Y-5.123
X8.1225Y-5.615
X8.1585Y-5.3186
X8.168Y-5.124
X8.2485Y-5.1195
T2
X7.7225Y-5.6349
X7.8799Y-5.6349
T3
X8.3226Y-4.9414
X8.3226Y-5.0414
X8.3226Y-5.1414
X8.3226Y-5.2414
X8.3226Y-5.3414
X8.3226Y-5.4414
T4
X7.6624Y-5.7195
X7.94Y-5.7195
T0
M30
