G04 (created by PCBNEW (2013-07-07 BZR 4022)-stable) date 6/15/2015 10:21:50 PM*
%MOIN*%
G04 Gerber Fmt 3.4, Leading zero omitted, Abs format*
%FSLAX34Y34*%
G01*
G70*
G90*
G04 APERTURE LIST*
%ADD10C,0.00590551*%
%ADD11C,0.00492126*%
%ADD12C,0.00393701*%
%ADD13C,0.005*%
G04 APERTURE END LIST*
G54D10*
G54D11*
X78454Y-51822D02*
X78435Y-51822D01*
X78416Y-51832D01*
X78407Y-51841D01*
X78398Y-51860D01*
X78388Y-51897D01*
X78388Y-51944D01*
X78398Y-51982D01*
X78407Y-52000D01*
X78416Y-52010D01*
X78435Y-52019D01*
X78454Y-52019D01*
X78473Y-52010D01*
X78482Y-52000D01*
X78491Y-51982D01*
X78501Y-51944D01*
X78501Y-51897D01*
X78491Y-51860D01*
X78482Y-51841D01*
X78473Y-51832D01*
X78454Y-51822D01*
X78219Y-51822D02*
X78257Y-51822D01*
X78276Y-51832D01*
X78285Y-51841D01*
X78304Y-51869D01*
X78313Y-51907D01*
X78313Y-51982D01*
X78304Y-52000D01*
X78294Y-52010D01*
X78276Y-52019D01*
X78238Y-52019D01*
X78219Y-52010D01*
X78210Y-52000D01*
X78201Y-51982D01*
X78201Y-51935D01*
X78210Y-51916D01*
X78219Y-51907D01*
X78238Y-51897D01*
X78276Y-51897D01*
X78294Y-51907D01*
X78304Y-51916D01*
X78313Y-51935D01*
X77976Y-51813D02*
X78144Y-52066D01*
X77807Y-52019D02*
X77919Y-52019D01*
X77863Y-52019D02*
X77863Y-51822D01*
X77882Y-51850D01*
X77901Y-51869D01*
X77919Y-51879D01*
X77638Y-51888D02*
X77638Y-52019D01*
X77685Y-51813D02*
X77732Y-51954D01*
X77610Y-51954D01*
X77395Y-51813D02*
X77563Y-52066D01*
X77226Y-52019D02*
X77338Y-52019D01*
X77282Y-52019D02*
X77282Y-51822D01*
X77301Y-51850D01*
X77320Y-51869D01*
X77338Y-51879D01*
X77048Y-51822D02*
X77141Y-51822D01*
X77151Y-51916D01*
X77141Y-51907D01*
X77123Y-51897D01*
X77076Y-51897D01*
X77057Y-51907D01*
X77048Y-51916D01*
X77038Y-51935D01*
X77038Y-51982D01*
X77048Y-52000D01*
X77057Y-52010D01*
X77076Y-52019D01*
X77123Y-52019D01*
X77141Y-52010D01*
X77151Y-52000D01*
X78372Y-51650D02*
X78381Y-51660D01*
X78409Y-51669D01*
X78428Y-51669D01*
X78456Y-51660D01*
X78475Y-51641D01*
X78484Y-51622D01*
X78494Y-51585D01*
X78494Y-51557D01*
X78484Y-51519D01*
X78475Y-51500D01*
X78456Y-51482D01*
X78428Y-51472D01*
X78409Y-51472D01*
X78381Y-51482D01*
X78372Y-51491D01*
X78306Y-51472D02*
X78259Y-51669D01*
X78222Y-51529D01*
X78184Y-51669D01*
X78138Y-51472D01*
X78063Y-51669D02*
X78063Y-51472D01*
X77969Y-51566D02*
X77903Y-51566D01*
X77875Y-51669D02*
X77969Y-51669D01*
X77969Y-51472D01*
X77875Y-51472D01*
X77791Y-51669D02*
X77791Y-51472D01*
X77725Y-51613D01*
X77660Y-51472D01*
X77660Y-51669D01*
X77435Y-51538D02*
X77388Y-51669D01*
X77341Y-51538D01*
X77228Y-51472D02*
X77210Y-51472D01*
X77191Y-51482D01*
X77181Y-51491D01*
X77172Y-51510D01*
X77163Y-51547D01*
X77163Y-51594D01*
X77172Y-51632D01*
X77181Y-51650D01*
X77191Y-51660D01*
X77210Y-51669D01*
X77228Y-51669D01*
X77247Y-51660D01*
X77256Y-51650D01*
X77266Y-51632D01*
X77275Y-51594D01*
X77275Y-51547D01*
X77266Y-51510D01*
X77256Y-51491D01*
X77247Y-51482D01*
X77228Y-51472D01*
X76985Y-51472D02*
X77078Y-51472D01*
X77088Y-51566D01*
X77078Y-51557D01*
X77060Y-51547D01*
X77013Y-51547D01*
X76994Y-51557D01*
X76985Y-51566D01*
X76975Y-51585D01*
X76975Y-51632D01*
X76985Y-51650D01*
X76994Y-51660D01*
X77013Y-51669D01*
X77060Y-51669D01*
X77078Y-51660D01*
X77088Y-51650D01*
G54D12*
X84500Y-52000D02*
G75*
G03X84500Y-52000I-6500J0D01*
G74*
G01*
G54D13*
X72821Y-53298D02*
X73201Y-53286D01*
X73455Y-53002D02*
X73183Y-53129D01*
X72549Y-53425D02*
X72821Y-53298D01*
X71914Y-53720D02*
X72760Y-55533D01*
X72760Y-55533D02*
X73025Y-55630D01*
X73025Y-55630D02*
X74838Y-54784D01*
X74838Y-54784D02*
X74935Y-54519D01*
X74935Y-54519D02*
X74089Y-52706D01*
X74089Y-52706D02*
X73824Y-52609D01*
X73824Y-52609D02*
X72011Y-53455D01*
X72011Y-53455D02*
X71914Y-53720D01*
X74124Y-54120D02*
G75*
G03X74124Y-54120I-699J0D01*
G74*
G01*
M02*
