G04 (created by PCBNEW (2013-07-07 BZR 4022)-stable) date 6/15/2015 10:21:50 PM*
%MOIN*%
G04 Gerber Fmt 3.4, Leading zero omitted, Abs format*
%FSLAX34Y34*%
G01*
G70*
G90*
G04 APERTURE LIST*
%ADD10C,0.00590551*%
%ADD11C,0.00393701*%
%ADD12R,0.0433071X0.0472441*%
%ADD13C,0.0669291*%
%ADD14C,0.0216535*%
%ADD15C,0.07*%
%ADD16C,0.03*%
%ADD17C,0.01*%
%ADD18C,0.032*%
%ADD19C,0.02*%
G04 APERTURE END LIST*
G54D10*
G54D11*
X84500Y-52000D02*
G75*
G03X84500Y-52000I-6500J0D01*
G74*
G01*
G54D12*
X80425Y-57300D03*
X81225Y-56875D03*
G54D13*
X76624Y-57195D03*
X79399Y-57195D03*
G54D14*
X77224Y-56348D03*
X78799Y-56348D03*
G54D10*
G36*
X71903Y-53092D02*
X72295Y-52909D01*
X72595Y-53551D01*
X72202Y-53734D01*
X71903Y-53092D01*
X71903Y-53092D01*
G37*
G36*
X72934Y-55304D02*
X73327Y-55121D01*
X73626Y-55763D01*
X73234Y-55946D01*
X72934Y-55304D01*
X72934Y-55304D01*
G37*
G36*
X73223Y-52476D02*
X73615Y-52293D01*
X73915Y-52935D01*
X73522Y-53118D01*
X73223Y-52476D01*
X73223Y-52476D01*
G37*
G36*
X74254Y-54688D02*
X74647Y-54505D01*
X74946Y-55147D01*
X74554Y-55330D01*
X74254Y-54688D01*
X74254Y-54688D01*
G37*
G54D15*
X83226Y-49414D03*
X83226Y-50414D03*
X83226Y-51414D03*
X83226Y-52414D03*
X83226Y-53414D03*
X83226Y-54414D03*
G54D16*
X74305Y-50596D03*
X75000Y-48917D03*
X76377Y-48917D03*
X79760Y-50190D03*
X81680Y-51240D03*
X81585Y-53186D03*
X82485Y-51195D03*
X78000Y-55500D03*
X78617Y-53578D03*
X76699Y-50393D03*
X76650Y-51674D03*
X76470Y-52530D03*
X75159Y-54257D03*
X78183Y-53599D03*
X74700Y-56700D03*
X79702Y-50869D03*
X80879Y-53487D03*
X81225Y-56150D03*
X76890Y-48540D03*
X76910Y-48110D03*
X77445Y-48570D03*
X79650Y-52050D03*
X80770Y-48090D03*
X79730Y-51430D03*
X80770Y-48640D03*
X73380Y-48435D03*
X79724Y-47637D03*
X81162Y-53172D03*
X81210Y-51230D03*
X73326Y-54429D03*
X79800Y-56000D03*
X75100Y-55900D03*
X79180Y-54020D03*
X77980Y-52100D03*
G54D17*
X75100Y-55400D02*
X75130Y-55400D01*
X74305Y-51915D02*
X74305Y-51970D01*
X74305Y-51970D02*
X73569Y-52706D01*
X74305Y-50596D02*
X74305Y-51915D01*
X74305Y-51915D02*
X74305Y-51940D01*
X76377Y-48917D02*
X75000Y-48917D01*
X80675Y-50235D02*
X79805Y-50235D01*
X79805Y-50235D02*
X79760Y-50190D01*
X81680Y-51240D02*
X80675Y-50235D01*
X80675Y-50235D02*
X80660Y-50220D01*
X81919Y-53186D02*
X81585Y-53186D01*
X82485Y-52620D02*
X81919Y-53186D01*
X82485Y-51195D02*
X82485Y-52620D01*
X78600Y-55300D02*
X78600Y-53595D01*
X78000Y-55500D02*
X78400Y-55500D01*
X78400Y-55500D02*
X78600Y-55300D01*
X78600Y-53595D02*
X78617Y-53578D01*
X76699Y-51625D02*
X76699Y-50393D01*
X76650Y-51674D02*
X76699Y-51625D01*
X75159Y-54257D02*
X76470Y-52946D01*
X76470Y-52946D02*
X76470Y-52530D01*
X75382Y-56400D02*
X75361Y-56400D01*
X78183Y-53599D02*
X75382Y-56400D01*
X74700Y-56700D02*
X75100Y-56400D01*
X75100Y-56400D02*
X75361Y-56400D01*
X75361Y-56400D02*
X75400Y-56400D01*
X80816Y-51983D02*
X80816Y-52256D01*
X79702Y-50869D02*
X80816Y-51983D01*
X80816Y-53424D02*
X80816Y-52256D01*
X80816Y-52256D02*
X80816Y-52200D01*
X80879Y-53487D02*
X80816Y-53424D01*
G54D18*
X81225Y-56875D02*
X81225Y-56150D01*
G54D17*
X78980Y-51380D02*
X79650Y-52050D01*
X78980Y-48820D02*
X78980Y-51380D01*
X79710Y-48090D02*
X78980Y-48820D01*
X80770Y-48090D02*
X79710Y-48090D01*
X79370Y-49120D02*
X79370Y-51070D01*
X79800Y-48690D02*
X79370Y-49120D01*
X79870Y-48690D02*
X79800Y-48690D01*
X79370Y-51070D02*
X79730Y-51430D01*
X80720Y-48690D02*
X79870Y-48690D01*
X79870Y-48690D02*
X79860Y-48690D01*
X80770Y-48640D02*
X80720Y-48690D01*
X79724Y-47637D02*
X74177Y-47637D01*
X74177Y-47637D02*
X73380Y-48435D01*
X79724Y-47637D02*
X79632Y-47637D01*
X81210Y-52934D02*
X81210Y-53124D01*
X81210Y-53124D02*
X81162Y-53172D01*
X81210Y-52940D02*
X81210Y-52934D01*
X81210Y-52934D02*
X81210Y-51230D01*
G54D19*
X77160Y-52530D02*
X77160Y-52520D01*
X75695Y-52060D02*
X73326Y-54429D01*
X76700Y-52060D02*
X75695Y-52060D01*
X77160Y-52520D02*
X76700Y-52060D01*
X80425Y-52710D02*
X80410Y-52710D01*
X80230Y-52530D02*
X77160Y-52530D01*
X77160Y-52530D02*
X77130Y-52530D01*
X80410Y-52710D02*
X80230Y-52530D01*
G54D18*
X80425Y-56000D02*
X80425Y-52710D01*
X80425Y-52710D02*
X80425Y-52700D01*
X80425Y-52700D02*
X80425Y-52669D01*
X80425Y-56000D02*
X79800Y-56000D01*
X80425Y-56000D02*
X80425Y-57300D01*
X80440Y-57285D02*
X80425Y-57300D01*
G54D17*
X75100Y-55900D02*
X75100Y-55895D01*
X77845Y-53150D02*
X77905Y-53150D01*
X75100Y-55895D02*
X77845Y-53150D01*
X77905Y-53150D02*
X78800Y-53150D01*
X78800Y-53150D02*
X78950Y-53300D01*
X78950Y-53300D02*
X78950Y-53790D01*
X78950Y-53790D02*
X79180Y-54020D01*
X72926Y-49970D02*
X72865Y-49970D01*
X75204Y-49970D02*
X72926Y-49970D01*
X72249Y-50585D02*
X72249Y-53321D01*
X72865Y-49970D02*
X72249Y-50585D01*
X77970Y-51716D02*
X77970Y-50334D01*
X75698Y-49476D02*
X75204Y-49970D01*
X77112Y-49476D02*
X75698Y-49476D01*
X77970Y-50334D02*
X77112Y-49476D01*
X77980Y-52100D02*
X77970Y-52090D01*
X77970Y-52090D02*
X77970Y-51716D01*
X77970Y-51716D02*
X77970Y-51710D01*
X72268Y-53301D02*
X72249Y-53321D01*
X75260Y-49970D02*
X75204Y-49970D01*
G54D10*
G36*
X79612Y-47916D02*
X79601Y-47922D01*
X79600Y-47922D01*
X79599Y-47923D01*
X79584Y-47935D01*
X79570Y-47946D01*
X79569Y-47948D01*
X79569Y-47948D01*
X79569Y-47948D01*
X79568Y-47948D01*
X78838Y-48678D01*
X78826Y-48692D01*
X78814Y-48707D01*
X78814Y-48707D01*
X78813Y-48708D01*
X78805Y-48725D01*
X78796Y-48741D01*
X78795Y-48742D01*
X78795Y-48743D01*
X78789Y-48760D01*
X78784Y-48778D01*
X78784Y-48779D01*
X78783Y-48780D01*
X78782Y-48798D01*
X78780Y-48817D01*
X78780Y-48819D01*
X78780Y-48819D01*
X78780Y-48819D01*
X78780Y-48820D01*
X78780Y-51380D01*
X78781Y-51398D01*
X78783Y-51416D01*
X78783Y-51417D01*
X78783Y-51418D01*
X78789Y-51436D01*
X78794Y-51454D01*
X78794Y-51455D01*
X78795Y-51456D01*
X78803Y-51472D01*
X78812Y-51488D01*
X78812Y-51489D01*
X78813Y-51490D01*
X78825Y-51505D01*
X78836Y-51519D01*
X78838Y-51520D01*
X78838Y-51520D01*
X78838Y-51520D01*
X78838Y-51521D01*
X79350Y-52033D01*
X79349Y-52075D01*
X79360Y-52133D01*
X79381Y-52187D01*
X79413Y-52237D01*
X79454Y-52279D01*
X79455Y-52280D01*
X78220Y-52280D01*
X78242Y-52248D01*
X78266Y-52195D01*
X78279Y-52137D01*
X78280Y-52070D01*
X78268Y-52012D01*
X78246Y-51958D01*
X78213Y-51909D01*
X78172Y-51867D01*
X78170Y-51866D01*
X78170Y-51716D01*
X78170Y-51710D01*
X78170Y-50334D01*
X78168Y-50315D01*
X78166Y-50297D01*
X78166Y-50296D01*
X78166Y-50295D01*
X78160Y-50277D01*
X78155Y-50259D01*
X78155Y-50258D01*
X78154Y-50257D01*
X78146Y-50241D01*
X78137Y-50225D01*
X78137Y-50224D01*
X78136Y-50223D01*
X78124Y-50208D01*
X78113Y-50194D01*
X78111Y-50193D01*
X78111Y-50193D01*
X78111Y-50193D01*
X78111Y-50192D01*
X77253Y-49334D01*
X77239Y-49322D01*
X77224Y-49310D01*
X77224Y-49310D01*
X77223Y-49309D01*
X77206Y-49301D01*
X77190Y-49292D01*
X77189Y-49291D01*
X77188Y-49291D01*
X77171Y-49285D01*
X77153Y-49280D01*
X77152Y-49280D01*
X77151Y-49279D01*
X77133Y-49278D01*
X77114Y-49276D01*
X77112Y-49276D01*
X77112Y-49276D01*
X77112Y-49276D01*
X77112Y-49276D01*
X76677Y-49276D01*
X76677Y-48887D01*
X76666Y-48830D01*
X76644Y-48775D01*
X76611Y-48726D01*
X76570Y-48685D01*
X76521Y-48652D01*
X76467Y-48629D01*
X76409Y-48617D01*
X76350Y-48617D01*
X76292Y-48628D01*
X76238Y-48650D01*
X76189Y-48682D01*
X76153Y-48717D01*
X75224Y-48717D01*
X75192Y-48685D01*
X75143Y-48652D01*
X75089Y-48629D01*
X75031Y-48617D01*
X74972Y-48617D01*
X74914Y-48628D01*
X74860Y-48650D01*
X74811Y-48682D01*
X74769Y-48723D01*
X74735Y-48772D01*
X74712Y-48826D01*
X74700Y-48883D01*
X74699Y-48942D01*
X74710Y-49000D01*
X74731Y-49055D01*
X74763Y-49104D01*
X74804Y-49146D01*
X74852Y-49180D01*
X74906Y-49204D01*
X74964Y-49216D01*
X75023Y-49217D01*
X75081Y-49207D01*
X75135Y-49186D01*
X75185Y-49154D01*
X75225Y-49117D01*
X76154Y-49117D01*
X76182Y-49146D01*
X76230Y-49180D01*
X76284Y-49204D01*
X76342Y-49216D01*
X76401Y-49217D01*
X76459Y-49207D01*
X76513Y-49186D01*
X76563Y-49154D01*
X76606Y-49114D01*
X76640Y-49066D01*
X76663Y-49012D01*
X76677Y-48955D01*
X76677Y-48887D01*
X76677Y-49276D01*
X75698Y-49276D01*
X75679Y-49277D01*
X75661Y-49279D01*
X75660Y-49279D01*
X75659Y-49279D01*
X75641Y-49285D01*
X75623Y-49290D01*
X75622Y-49290D01*
X75621Y-49291D01*
X75605Y-49299D01*
X75589Y-49308D01*
X75588Y-49308D01*
X75587Y-49309D01*
X75572Y-49321D01*
X75558Y-49332D01*
X75557Y-49334D01*
X75557Y-49334D01*
X75557Y-49334D01*
X75556Y-49334D01*
X75121Y-49770D01*
X72926Y-49770D01*
X72865Y-49770D01*
X72846Y-49771D01*
X72828Y-49773D01*
X72827Y-49773D01*
X72826Y-49773D01*
X72808Y-49779D01*
X72790Y-49784D01*
X72789Y-49784D01*
X72788Y-49785D01*
X72772Y-49793D01*
X72756Y-49802D01*
X72755Y-49802D01*
X72754Y-49803D01*
X72739Y-49815D01*
X72725Y-49826D01*
X72724Y-49828D01*
X72724Y-49828D01*
X72724Y-49828D01*
X72723Y-49828D01*
X72107Y-50444D01*
X72095Y-50458D01*
X72084Y-50472D01*
X72083Y-50473D01*
X72082Y-50474D01*
X72074Y-50490D01*
X72065Y-50507D01*
X72064Y-50508D01*
X72064Y-50509D01*
X72059Y-50526D01*
X72053Y-50544D01*
X72053Y-50545D01*
X72053Y-50546D01*
X72051Y-50564D01*
X72049Y-50583D01*
X72049Y-50585D01*
X72049Y-50585D01*
X72049Y-50585D01*
X72049Y-50585D01*
X72049Y-52858D01*
X71826Y-52962D01*
X71802Y-52979D01*
X71782Y-53001D01*
X71774Y-53014D01*
X71671Y-52088D01*
X71774Y-50857D01*
X72114Y-49669D01*
X72679Y-48571D01*
X73446Y-47603D01*
X74387Y-46802D01*
X75465Y-46199D01*
X76640Y-45818D01*
X77120Y-45761D01*
X77120Y-47359D01*
X79602Y-47363D01*
X79584Y-47370D01*
X79535Y-47402D01*
X79499Y-47437D01*
X74177Y-47437D01*
X74158Y-47439D01*
X74140Y-47441D01*
X74139Y-47441D01*
X74138Y-47441D01*
X74120Y-47446D01*
X74102Y-47452D01*
X74101Y-47452D01*
X74100Y-47452D01*
X74084Y-47461D01*
X74068Y-47470D01*
X74067Y-47470D01*
X74066Y-47471D01*
X74052Y-47482D01*
X74037Y-47494D01*
X74036Y-47495D01*
X74036Y-47495D01*
X74036Y-47495D01*
X74035Y-47496D01*
X73397Y-48135D01*
X73352Y-48134D01*
X73294Y-48145D01*
X73240Y-48167D01*
X73191Y-48200D01*
X73149Y-48241D01*
X73115Y-48289D01*
X73092Y-48343D01*
X73080Y-48401D01*
X73079Y-48460D01*
X73090Y-48518D01*
X73111Y-48572D01*
X73143Y-48622D01*
X73184Y-48664D01*
X73232Y-48698D01*
X73286Y-48721D01*
X73344Y-48734D01*
X73403Y-48735D01*
X73461Y-48725D01*
X73515Y-48704D01*
X73565Y-48672D01*
X73608Y-48631D01*
X73642Y-48583D01*
X73666Y-48530D01*
X73679Y-48472D01*
X73679Y-48418D01*
X74260Y-47837D01*
X79500Y-47837D01*
X79529Y-47867D01*
X79577Y-47900D01*
X79612Y-47916D01*
X79612Y-47916D01*
G37*
G54D17*
X79612Y-47916D02*
X79601Y-47922D01*
X79600Y-47922D01*
X79599Y-47923D01*
X79584Y-47935D01*
X79570Y-47946D01*
X79569Y-47948D01*
X79569Y-47948D01*
X79569Y-47948D01*
X79568Y-47948D01*
X78838Y-48678D01*
X78826Y-48692D01*
X78814Y-48707D01*
X78814Y-48707D01*
X78813Y-48708D01*
X78805Y-48725D01*
X78796Y-48741D01*
X78795Y-48742D01*
X78795Y-48743D01*
X78789Y-48760D01*
X78784Y-48778D01*
X78784Y-48779D01*
X78783Y-48780D01*
X78782Y-48798D01*
X78780Y-48817D01*
X78780Y-48819D01*
X78780Y-48819D01*
X78780Y-48819D01*
X78780Y-48820D01*
X78780Y-51380D01*
X78781Y-51398D01*
X78783Y-51416D01*
X78783Y-51417D01*
X78783Y-51418D01*
X78789Y-51436D01*
X78794Y-51454D01*
X78794Y-51455D01*
X78795Y-51456D01*
X78803Y-51472D01*
X78812Y-51488D01*
X78812Y-51489D01*
X78813Y-51490D01*
X78825Y-51505D01*
X78836Y-51519D01*
X78838Y-51520D01*
X78838Y-51520D01*
X78838Y-51520D01*
X78838Y-51521D01*
X79350Y-52033D01*
X79349Y-52075D01*
X79360Y-52133D01*
X79381Y-52187D01*
X79413Y-52237D01*
X79454Y-52279D01*
X79455Y-52280D01*
X78220Y-52280D01*
X78242Y-52248D01*
X78266Y-52195D01*
X78279Y-52137D01*
X78280Y-52070D01*
X78268Y-52012D01*
X78246Y-51958D01*
X78213Y-51909D01*
X78172Y-51867D01*
X78170Y-51866D01*
X78170Y-51716D01*
X78170Y-51710D01*
X78170Y-50334D01*
X78168Y-50315D01*
X78166Y-50297D01*
X78166Y-50296D01*
X78166Y-50295D01*
X78160Y-50277D01*
X78155Y-50259D01*
X78155Y-50258D01*
X78154Y-50257D01*
X78146Y-50241D01*
X78137Y-50225D01*
X78137Y-50224D01*
X78136Y-50223D01*
X78124Y-50208D01*
X78113Y-50194D01*
X78111Y-50193D01*
X78111Y-50193D01*
X78111Y-50193D01*
X78111Y-50192D01*
X77253Y-49334D01*
X77239Y-49322D01*
X77224Y-49310D01*
X77224Y-49310D01*
X77223Y-49309D01*
X77206Y-49301D01*
X77190Y-49292D01*
X77189Y-49291D01*
X77188Y-49291D01*
X77171Y-49285D01*
X77153Y-49280D01*
X77152Y-49280D01*
X77151Y-49279D01*
X77133Y-49278D01*
X77114Y-49276D01*
X77112Y-49276D01*
X77112Y-49276D01*
X77112Y-49276D01*
X77112Y-49276D01*
X76677Y-49276D01*
X76677Y-48887D01*
X76666Y-48830D01*
X76644Y-48775D01*
X76611Y-48726D01*
X76570Y-48685D01*
X76521Y-48652D01*
X76467Y-48629D01*
X76409Y-48617D01*
X76350Y-48617D01*
X76292Y-48628D01*
X76238Y-48650D01*
X76189Y-48682D01*
X76153Y-48717D01*
X75224Y-48717D01*
X75192Y-48685D01*
X75143Y-48652D01*
X75089Y-48629D01*
X75031Y-48617D01*
X74972Y-48617D01*
X74914Y-48628D01*
X74860Y-48650D01*
X74811Y-48682D01*
X74769Y-48723D01*
X74735Y-48772D01*
X74712Y-48826D01*
X74700Y-48883D01*
X74699Y-48942D01*
X74710Y-49000D01*
X74731Y-49055D01*
X74763Y-49104D01*
X74804Y-49146D01*
X74852Y-49180D01*
X74906Y-49204D01*
X74964Y-49216D01*
X75023Y-49217D01*
X75081Y-49207D01*
X75135Y-49186D01*
X75185Y-49154D01*
X75225Y-49117D01*
X76154Y-49117D01*
X76182Y-49146D01*
X76230Y-49180D01*
X76284Y-49204D01*
X76342Y-49216D01*
X76401Y-49217D01*
X76459Y-49207D01*
X76513Y-49186D01*
X76563Y-49154D01*
X76606Y-49114D01*
X76640Y-49066D01*
X76663Y-49012D01*
X76677Y-48955D01*
X76677Y-48887D01*
X76677Y-49276D01*
X75698Y-49276D01*
X75679Y-49277D01*
X75661Y-49279D01*
X75660Y-49279D01*
X75659Y-49279D01*
X75641Y-49285D01*
X75623Y-49290D01*
X75622Y-49290D01*
X75621Y-49291D01*
X75605Y-49299D01*
X75589Y-49308D01*
X75588Y-49308D01*
X75587Y-49309D01*
X75572Y-49321D01*
X75558Y-49332D01*
X75557Y-49334D01*
X75557Y-49334D01*
X75557Y-49334D01*
X75556Y-49334D01*
X75121Y-49770D01*
X72926Y-49770D01*
X72865Y-49770D01*
X72846Y-49771D01*
X72828Y-49773D01*
X72827Y-49773D01*
X72826Y-49773D01*
X72808Y-49779D01*
X72790Y-49784D01*
X72789Y-49784D01*
X72788Y-49785D01*
X72772Y-49793D01*
X72756Y-49802D01*
X72755Y-49802D01*
X72754Y-49803D01*
X72739Y-49815D01*
X72725Y-49826D01*
X72724Y-49828D01*
X72724Y-49828D01*
X72724Y-49828D01*
X72723Y-49828D01*
X72107Y-50444D01*
X72095Y-50458D01*
X72084Y-50472D01*
X72083Y-50473D01*
X72082Y-50474D01*
X72074Y-50490D01*
X72065Y-50507D01*
X72064Y-50508D01*
X72064Y-50509D01*
X72059Y-50526D01*
X72053Y-50544D01*
X72053Y-50545D01*
X72053Y-50546D01*
X72051Y-50564D01*
X72049Y-50583D01*
X72049Y-50585D01*
X72049Y-50585D01*
X72049Y-50585D01*
X72049Y-50585D01*
X72049Y-52858D01*
X71826Y-52962D01*
X71802Y-52979D01*
X71782Y-53001D01*
X71774Y-53014D01*
X71671Y-52088D01*
X71774Y-50857D01*
X72114Y-49669D01*
X72679Y-48571D01*
X73446Y-47603D01*
X74387Y-46802D01*
X75465Y-46199D01*
X76640Y-45818D01*
X77120Y-45761D01*
X77120Y-47359D01*
X79602Y-47363D01*
X79584Y-47370D01*
X79535Y-47402D01*
X79499Y-47437D01*
X74177Y-47437D01*
X74158Y-47439D01*
X74140Y-47441D01*
X74139Y-47441D01*
X74138Y-47441D01*
X74120Y-47446D01*
X74102Y-47452D01*
X74101Y-47452D01*
X74100Y-47452D01*
X74084Y-47461D01*
X74068Y-47470D01*
X74067Y-47470D01*
X74066Y-47471D01*
X74052Y-47482D01*
X74037Y-47494D01*
X74036Y-47495D01*
X74036Y-47495D01*
X74036Y-47495D01*
X74035Y-47496D01*
X73397Y-48135D01*
X73352Y-48134D01*
X73294Y-48145D01*
X73240Y-48167D01*
X73191Y-48200D01*
X73149Y-48241D01*
X73115Y-48289D01*
X73092Y-48343D01*
X73080Y-48401D01*
X73079Y-48460D01*
X73090Y-48518D01*
X73111Y-48572D01*
X73143Y-48622D01*
X73184Y-48664D01*
X73232Y-48698D01*
X73286Y-48721D01*
X73344Y-48734D01*
X73403Y-48735D01*
X73461Y-48725D01*
X73515Y-48704D01*
X73565Y-48672D01*
X73608Y-48631D01*
X73642Y-48583D01*
X73666Y-48530D01*
X73679Y-48472D01*
X73679Y-48418D01*
X74260Y-47837D01*
X79500Y-47837D01*
X79529Y-47867D01*
X79577Y-47900D01*
X79612Y-47916D01*
G54D10*
G36*
X84330Y-51992D02*
X84208Y-53229D01*
X83851Y-54411D01*
X83271Y-55502D01*
X82491Y-56459D01*
X81539Y-57247D01*
X80452Y-57834D01*
X79884Y-58010D01*
X79884Y-57147D01*
X79866Y-57054D01*
X79829Y-56966D01*
X79777Y-56887D01*
X79710Y-56820D01*
X79631Y-56766D01*
X79543Y-56730D01*
X79480Y-56717D01*
X79480Y-53990D01*
X79468Y-53932D01*
X79446Y-53878D01*
X79413Y-53829D01*
X79372Y-53787D01*
X79323Y-53754D01*
X79269Y-53732D01*
X79211Y-53720D01*
X79162Y-53719D01*
X79150Y-53707D01*
X79150Y-53300D01*
X79148Y-53281D01*
X79146Y-53263D01*
X79146Y-53262D01*
X79146Y-53261D01*
X79140Y-53243D01*
X79135Y-53225D01*
X79135Y-53224D01*
X79134Y-53223D01*
X79126Y-53207D01*
X79117Y-53191D01*
X79117Y-53190D01*
X79116Y-53189D01*
X79104Y-53174D01*
X79093Y-53160D01*
X79091Y-53159D01*
X79091Y-53159D01*
X79091Y-53159D01*
X79091Y-53158D01*
X78941Y-53008D01*
X78927Y-52996D01*
X78912Y-52984D01*
X78912Y-52984D01*
X78911Y-52983D01*
X78894Y-52975D01*
X78878Y-52966D01*
X78877Y-52965D01*
X78876Y-52965D01*
X78859Y-52959D01*
X78841Y-52954D01*
X78840Y-52954D01*
X78839Y-52953D01*
X78821Y-52952D01*
X78802Y-52950D01*
X78800Y-52950D01*
X78800Y-52950D01*
X78800Y-52950D01*
X78800Y-52950D01*
X77905Y-52950D01*
X77845Y-52950D01*
X77826Y-52951D01*
X77808Y-52953D01*
X77807Y-52953D01*
X77806Y-52953D01*
X77788Y-52959D01*
X77770Y-52964D01*
X77769Y-52964D01*
X77768Y-52965D01*
X77752Y-52973D01*
X77736Y-52982D01*
X77735Y-52982D01*
X77734Y-52983D01*
X77719Y-52995D01*
X77705Y-53006D01*
X77704Y-53008D01*
X77704Y-53008D01*
X77704Y-53008D01*
X77703Y-53008D01*
X75328Y-55383D01*
X75326Y-55362D01*
X75315Y-55325D01*
X75297Y-55290D01*
X75272Y-55260D01*
X75242Y-55234D01*
X75208Y-55216D01*
X75171Y-55204D01*
X75132Y-55200D01*
X75130Y-55200D01*
X75100Y-55200D01*
X75087Y-55201D01*
X75092Y-55185D01*
X75097Y-55156D01*
X75096Y-55127D01*
X75089Y-55098D01*
X75077Y-55072D01*
X74777Y-54428D01*
X74759Y-54405D01*
X74738Y-54385D01*
X74713Y-54369D01*
X74685Y-54359D01*
X74656Y-54355D01*
X74626Y-54356D01*
X74598Y-54363D01*
X74571Y-54375D01*
X74178Y-54558D01*
X74154Y-54576D01*
X74134Y-54597D01*
X74119Y-54623D01*
X74109Y-54650D01*
X74104Y-54679D01*
X74105Y-54709D01*
X74112Y-54737D01*
X74124Y-54764D01*
X74424Y-55407D01*
X74442Y-55431D01*
X74463Y-55451D01*
X74488Y-55466D01*
X74516Y-55476D01*
X74545Y-55481D01*
X74574Y-55480D01*
X74603Y-55473D01*
X74630Y-55461D01*
X74913Y-55328D01*
X74904Y-55359D01*
X74900Y-55398D01*
X74903Y-55437D01*
X74914Y-55474D01*
X74932Y-55509D01*
X74957Y-55539D01*
X74987Y-55565D01*
X75021Y-55583D01*
X75058Y-55595D01*
X75097Y-55599D01*
X75072Y-55599D01*
X75014Y-55610D01*
X74960Y-55632D01*
X74911Y-55665D01*
X74869Y-55706D01*
X74835Y-55754D01*
X74812Y-55808D01*
X74800Y-55866D01*
X74799Y-55925D01*
X74810Y-55983D01*
X74831Y-56037D01*
X74863Y-56087D01*
X74904Y-56129D01*
X74952Y-56163D01*
X75006Y-56186D01*
X75064Y-56199D01*
X75099Y-56200D01*
X75096Y-56200D01*
X75091Y-56199D01*
X75070Y-56202D01*
X75061Y-56203D01*
X75058Y-56204D01*
X75052Y-56205D01*
X75032Y-56212D01*
X75023Y-56215D01*
X75021Y-56216D01*
X75015Y-56218D01*
X74997Y-56229D01*
X74989Y-56233D01*
X74987Y-56235D01*
X74982Y-56238D01*
X74979Y-56239D01*
X74758Y-56405D01*
X74731Y-56400D01*
X74672Y-56399D01*
X74614Y-56410D01*
X74560Y-56432D01*
X74511Y-56465D01*
X74469Y-56506D01*
X74435Y-56554D01*
X74412Y-56608D01*
X74400Y-56666D01*
X74399Y-56725D01*
X74410Y-56783D01*
X74431Y-56837D01*
X74463Y-56887D01*
X74504Y-56929D01*
X74552Y-56963D01*
X74606Y-56986D01*
X74664Y-56999D01*
X74723Y-57000D01*
X74781Y-56990D01*
X74835Y-56969D01*
X74885Y-56937D01*
X74928Y-56896D01*
X74962Y-56848D01*
X74986Y-56795D01*
X74999Y-56737D01*
X74999Y-56725D01*
X75166Y-56600D01*
X75361Y-56600D01*
X75382Y-56600D01*
X75400Y-56600D01*
X75438Y-56596D01*
X75476Y-56584D01*
X75510Y-56566D01*
X75540Y-56541D01*
X75565Y-56511D01*
X75580Y-56483D01*
X78166Y-53898D01*
X78206Y-53899D01*
X78264Y-53889D01*
X78318Y-53868D01*
X78368Y-53836D01*
X78400Y-53806D01*
X78400Y-55217D01*
X78317Y-55300D01*
X78224Y-55300D01*
X78192Y-55267D01*
X78143Y-55234D01*
X78089Y-55212D01*
X78031Y-55200D01*
X77972Y-55199D01*
X77914Y-55210D01*
X77860Y-55232D01*
X77811Y-55265D01*
X77769Y-55306D01*
X77735Y-55354D01*
X77712Y-55408D01*
X77700Y-55466D01*
X77699Y-55525D01*
X77710Y-55583D01*
X77731Y-55637D01*
X77763Y-55687D01*
X77804Y-55729D01*
X77852Y-55763D01*
X77906Y-55786D01*
X77964Y-55799D01*
X78023Y-55800D01*
X78081Y-55790D01*
X78135Y-55769D01*
X78185Y-55737D01*
X78225Y-55700D01*
X78400Y-55700D01*
X78418Y-55698D01*
X78436Y-55696D01*
X78437Y-55696D01*
X78438Y-55696D01*
X78456Y-55690D01*
X78474Y-55685D01*
X78475Y-55685D01*
X78476Y-55684D01*
X78492Y-55676D01*
X78508Y-55667D01*
X78509Y-55667D01*
X78510Y-55666D01*
X78525Y-55654D01*
X78539Y-55643D01*
X78540Y-55641D01*
X78540Y-55641D01*
X78540Y-55641D01*
X78541Y-55641D01*
X78741Y-55441D01*
X78753Y-55427D01*
X78765Y-55412D01*
X78765Y-55412D01*
X78766Y-55411D01*
X78774Y-55394D01*
X78783Y-55378D01*
X78784Y-55377D01*
X78784Y-55376D01*
X78790Y-55359D01*
X78795Y-55341D01*
X78795Y-55340D01*
X78796Y-55339D01*
X78797Y-55321D01*
X78799Y-55302D01*
X78799Y-55300D01*
X78799Y-55300D01*
X78799Y-55300D01*
X78800Y-55300D01*
X78800Y-53921D01*
X78806Y-53929D01*
X78808Y-53930D01*
X78808Y-53930D01*
X78808Y-53930D01*
X78808Y-53931D01*
X78880Y-54003D01*
X78879Y-54045D01*
X78890Y-54103D01*
X78911Y-54157D01*
X78943Y-54207D01*
X78984Y-54249D01*
X79032Y-54283D01*
X79086Y-54306D01*
X79144Y-54319D01*
X79203Y-54320D01*
X79261Y-54310D01*
X79315Y-54289D01*
X79365Y-54257D01*
X79408Y-54216D01*
X79442Y-54168D01*
X79466Y-54115D01*
X79479Y-54057D01*
X79480Y-53990D01*
X79480Y-56717D01*
X79450Y-56711D01*
X79355Y-56710D01*
X79262Y-56728D01*
X79174Y-56763D01*
X79094Y-56815D01*
X79057Y-56852D01*
X79057Y-56323D01*
X79047Y-56273D01*
X79028Y-56227D01*
X79000Y-56184D01*
X78964Y-56148D01*
X78922Y-56120D01*
X78875Y-56100D01*
X78826Y-56090D01*
X78775Y-56090D01*
X78725Y-56099D01*
X78678Y-56118D01*
X78636Y-56146D01*
X78600Y-56182D01*
X78571Y-56223D01*
X78551Y-56270D01*
X78541Y-56319D01*
X78540Y-56370D01*
X78549Y-56420D01*
X78568Y-56467D01*
X78595Y-56510D01*
X78630Y-56546D01*
X78672Y-56575D01*
X78718Y-56595D01*
X78768Y-56606D01*
X78818Y-56607D01*
X78868Y-56598D01*
X78916Y-56580D01*
X78958Y-56553D01*
X78995Y-56518D01*
X79024Y-56477D01*
X79045Y-56430D01*
X79056Y-56381D01*
X79057Y-56323D01*
X79057Y-56852D01*
X79026Y-56882D01*
X78973Y-56960D01*
X78935Y-57048D01*
X78915Y-57141D01*
X78914Y-57236D01*
X78931Y-57329D01*
X78966Y-57417D01*
X79018Y-57497D01*
X79084Y-57566D01*
X79162Y-57620D01*
X79249Y-57658D01*
X79342Y-57678D01*
X79437Y-57680D01*
X79530Y-57664D01*
X79619Y-57630D01*
X79699Y-57579D01*
X79768Y-57513D01*
X79823Y-57435D01*
X79861Y-57349D01*
X79882Y-57256D01*
X79884Y-57147D01*
X79884Y-58010D01*
X79272Y-58200D01*
X78044Y-58329D01*
X77482Y-58278D01*
X77482Y-56323D01*
X77473Y-56273D01*
X77453Y-56227D01*
X77425Y-56184D01*
X77390Y-56148D01*
X77348Y-56120D01*
X77301Y-56100D01*
X77251Y-56090D01*
X77201Y-56090D01*
X77151Y-56099D01*
X77104Y-56118D01*
X77061Y-56146D01*
X77025Y-56182D01*
X76997Y-56223D01*
X76977Y-56270D01*
X76966Y-56319D01*
X76965Y-56370D01*
X76975Y-56420D01*
X76993Y-56467D01*
X77021Y-56510D01*
X77056Y-56546D01*
X77097Y-56575D01*
X77144Y-56595D01*
X77193Y-56606D01*
X77244Y-56607D01*
X77294Y-56598D01*
X77341Y-56580D01*
X77384Y-56553D01*
X77421Y-56518D01*
X77450Y-56477D01*
X77470Y-56430D01*
X77482Y-56381D01*
X77482Y-56323D01*
X77482Y-58278D01*
X77108Y-58244D01*
X77108Y-57147D01*
X77090Y-57054D01*
X77054Y-56966D01*
X77001Y-56887D01*
X76934Y-56820D01*
X76855Y-56766D01*
X76768Y-56730D01*
X76675Y-56711D01*
X76580Y-56710D01*
X76486Y-56728D01*
X76398Y-56763D01*
X76319Y-56815D01*
X76251Y-56882D01*
X76197Y-56960D01*
X76160Y-57048D01*
X76140Y-57141D01*
X76138Y-57236D01*
X76156Y-57329D01*
X76191Y-57417D01*
X76242Y-57497D01*
X76308Y-57566D01*
X76386Y-57620D01*
X76473Y-57658D01*
X76566Y-57678D01*
X76661Y-57680D01*
X76755Y-57664D01*
X76843Y-57630D01*
X76924Y-57579D01*
X76992Y-57513D01*
X77047Y-57435D01*
X77086Y-57349D01*
X77107Y-57256D01*
X77108Y-57147D01*
X77108Y-58244D01*
X76813Y-58217D01*
X75628Y-57868D01*
X74534Y-57296D01*
X73571Y-56522D01*
X73213Y-56095D01*
X73225Y-56097D01*
X73254Y-56095D01*
X73283Y-56089D01*
X73310Y-56076D01*
X73703Y-55893D01*
X73727Y-55875D01*
X73747Y-55854D01*
X73762Y-55829D01*
X73772Y-55801D01*
X73777Y-55772D01*
X73776Y-55743D01*
X73769Y-55714D01*
X73756Y-55687D01*
X73456Y-55044D01*
X73439Y-55020D01*
X73417Y-55000D01*
X73392Y-54985D01*
X73365Y-54975D01*
X73336Y-54970D01*
X73306Y-54971D01*
X73278Y-54978D01*
X73251Y-54991D01*
X72857Y-55174D01*
X72834Y-55191D01*
X72814Y-55213D01*
X72798Y-55238D01*
X72788Y-55266D01*
X72784Y-55295D01*
X72785Y-55324D01*
X72792Y-55353D01*
X72804Y-55380D01*
X73043Y-55893D01*
X72777Y-55575D01*
X72182Y-54493D01*
X71808Y-53315D01*
X71798Y-53222D01*
X72072Y-53811D01*
X72090Y-53834D01*
X72111Y-53854D01*
X72136Y-53870D01*
X72164Y-53880D01*
X72193Y-53884D01*
X72223Y-53883D01*
X72251Y-53876D01*
X72278Y-53864D01*
X72671Y-53681D01*
X72695Y-53663D01*
X72715Y-53642D01*
X72730Y-53616D01*
X72740Y-53589D01*
X72745Y-53560D01*
X72744Y-53530D01*
X72737Y-53502D01*
X72725Y-53475D01*
X72449Y-52883D01*
X72449Y-50668D01*
X72947Y-50170D01*
X75204Y-50170D01*
X75260Y-50170D01*
X75298Y-50166D01*
X75336Y-50154D01*
X75370Y-50136D01*
X75400Y-50111D01*
X75425Y-50081D01*
X75444Y-50047D01*
X75455Y-50010D01*
X75457Y-49999D01*
X75780Y-49676D01*
X77029Y-49676D01*
X77770Y-50416D01*
X77770Y-51710D01*
X77770Y-51716D01*
X77770Y-51885D01*
X77749Y-51906D01*
X77715Y-51954D01*
X77692Y-52008D01*
X77680Y-52066D01*
X77679Y-52125D01*
X77690Y-52183D01*
X77711Y-52237D01*
X77739Y-52280D01*
X77273Y-52280D01*
X76876Y-51883D01*
X76870Y-51878D01*
X76878Y-51870D01*
X76912Y-51822D01*
X76936Y-51769D01*
X76949Y-51711D01*
X76950Y-51644D01*
X76938Y-51586D01*
X76916Y-51532D01*
X76899Y-51506D01*
X76899Y-50616D01*
X76927Y-50589D01*
X76961Y-50541D01*
X76985Y-50488D01*
X76998Y-50430D01*
X76999Y-50363D01*
X76987Y-50305D01*
X76965Y-50251D01*
X76932Y-50202D01*
X76891Y-50160D01*
X76842Y-50127D01*
X76788Y-50105D01*
X76730Y-50093D01*
X76671Y-50092D01*
X76613Y-50103D01*
X76559Y-50125D01*
X76510Y-50158D01*
X76468Y-50199D01*
X76434Y-50247D01*
X76411Y-50301D01*
X76399Y-50359D01*
X76398Y-50418D01*
X76409Y-50476D01*
X76430Y-50530D01*
X76462Y-50580D01*
X76499Y-50617D01*
X76499Y-51414D01*
X76461Y-51439D01*
X76419Y-51480D01*
X76385Y-51528D01*
X76362Y-51582D01*
X76350Y-51640D01*
X76349Y-51699D01*
X76360Y-51757D01*
X76381Y-51810D01*
X75695Y-51810D01*
X75672Y-51812D01*
X75649Y-51814D01*
X75648Y-51814D01*
X75647Y-51814D01*
X75625Y-51821D01*
X75603Y-51827D01*
X75601Y-51828D01*
X75600Y-51828D01*
X75580Y-51839D01*
X75559Y-51850D01*
X75558Y-51851D01*
X75557Y-51851D01*
X75539Y-51866D01*
X75521Y-51880D01*
X75519Y-51882D01*
X75519Y-51882D01*
X75519Y-51882D01*
X75519Y-51883D01*
X74605Y-52797D01*
X74605Y-50566D01*
X74593Y-50508D01*
X74571Y-50454D01*
X74538Y-50405D01*
X74497Y-50363D01*
X74448Y-50330D01*
X74394Y-50308D01*
X74336Y-50296D01*
X74277Y-50295D01*
X74219Y-50306D01*
X74165Y-50328D01*
X74116Y-50361D01*
X74074Y-50402D01*
X74040Y-50450D01*
X74017Y-50504D01*
X74005Y-50562D01*
X74004Y-50621D01*
X74015Y-50679D01*
X74036Y-50733D01*
X74068Y-50783D01*
X74105Y-50820D01*
X74105Y-51887D01*
X73755Y-52237D01*
X73745Y-52216D01*
X73728Y-52192D01*
X73706Y-52173D01*
X73681Y-52157D01*
X73653Y-52147D01*
X73624Y-52142D01*
X73595Y-52144D01*
X73566Y-52150D01*
X73539Y-52163D01*
X73146Y-52346D01*
X73122Y-52364D01*
X73102Y-52385D01*
X73087Y-52410D01*
X73077Y-52438D01*
X73072Y-52467D01*
X73073Y-52496D01*
X73080Y-52525D01*
X73093Y-52552D01*
X73393Y-53195D01*
X73410Y-53219D01*
X73432Y-53239D01*
X73457Y-53254D01*
X73484Y-53264D01*
X73513Y-53269D01*
X73543Y-53268D01*
X73571Y-53261D01*
X73598Y-53248D01*
X73992Y-53065D01*
X74015Y-53048D01*
X74035Y-53026D01*
X74051Y-53001D01*
X74061Y-52973D01*
X74065Y-52944D01*
X74064Y-52915D01*
X74057Y-52886D01*
X74045Y-52859D01*
X73935Y-52623D01*
X74446Y-52111D01*
X74458Y-52097D01*
X74470Y-52083D01*
X74470Y-52082D01*
X74471Y-52081D01*
X74479Y-52065D01*
X74488Y-52049D01*
X74489Y-52048D01*
X74489Y-52047D01*
X74495Y-52029D01*
X74500Y-52011D01*
X74500Y-52010D01*
X74501Y-52009D01*
X74502Y-51991D01*
X74504Y-51973D01*
X74504Y-51971D01*
X74504Y-51971D01*
X74504Y-51971D01*
X74505Y-51970D01*
X74505Y-51940D01*
X74505Y-51915D01*
X74505Y-50819D01*
X74533Y-50792D01*
X74567Y-50744D01*
X74591Y-50691D01*
X74604Y-50633D01*
X74605Y-50566D01*
X74605Y-52797D01*
X73267Y-54135D01*
X73241Y-54139D01*
X73187Y-54161D01*
X73137Y-54194D01*
X73095Y-54235D01*
X73062Y-54283D01*
X73039Y-54337D01*
X73027Y-54395D01*
X73026Y-54454D01*
X73036Y-54512D01*
X73058Y-54566D01*
X73090Y-54616D01*
X73131Y-54658D01*
X73179Y-54692D01*
X73233Y-54715D01*
X73291Y-54728D01*
X73349Y-54729D01*
X73407Y-54719D01*
X73462Y-54698D01*
X73512Y-54666D01*
X73554Y-54626D01*
X73588Y-54578D01*
X73612Y-54524D01*
X73620Y-54488D01*
X75799Y-52310D01*
X76265Y-52310D01*
X76239Y-52336D01*
X76205Y-52384D01*
X76182Y-52438D01*
X76170Y-52496D01*
X76169Y-52555D01*
X76180Y-52613D01*
X76201Y-52667D01*
X76233Y-52717D01*
X76270Y-52754D01*
X76270Y-52863D01*
X75176Y-53957D01*
X75131Y-53956D01*
X75073Y-53967D01*
X75019Y-53989D01*
X74970Y-54022D01*
X74928Y-54063D01*
X74894Y-54111D01*
X74871Y-54165D01*
X74859Y-54223D01*
X74858Y-54282D01*
X74869Y-54340D01*
X74890Y-54394D01*
X74922Y-54444D01*
X74963Y-54486D01*
X75011Y-54520D01*
X75065Y-54543D01*
X75123Y-54556D01*
X75182Y-54557D01*
X75240Y-54547D01*
X75294Y-54526D01*
X75344Y-54494D01*
X75387Y-54453D01*
X75421Y-54405D01*
X75445Y-54352D01*
X75458Y-54294D01*
X75458Y-54240D01*
X76611Y-53087D01*
X76623Y-53073D01*
X76635Y-53058D01*
X76635Y-53058D01*
X76636Y-53057D01*
X76644Y-53040D01*
X76653Y-53024D01*
X76654Y-53023D01*
X76654Y-53022D01*
X76660Y-53005D01*
X76665Y-52987D01*
X76665Y-52986D01*
X76666Y-52985D01*
X76667Y-52967D01*
X76669Y-52948D01*
X76669Y-52946D01*
X76669Y-52946D01*
X76669Y-52946D01*
X76670Y-52946D01*
X76670Y-52753D01*
X76698Y-52726D01*
X76732Y-52678D01*
X76756Y-52625D01*
X76769Y-52567D01*
X76770Y-52500D01*
X76765Y-52479D01*
X76893Y-52606D01*
X76898Y-52623D01*
X76920Y-52666D01*
X76951Y-52704D01*
X76988Y-52736D01*
X77031Y-52759D01*
X77078Y-52774D01*
X77126Y-52779D01*
X77130Y-52780D01*
X77160Y-52780D01*
X80115Y-52780D01*
X80115Y-55690D01*
X79800Y-55690D01*
X79739Y-55695D01*
X79681Y-55713D01*
X79628Y-55741D01*
X79581Y-55780D01*
X79542Y-55826D01*
X79514Y-55879D01*
X79496Y-55937D01*
X79490Y-55997D01*
X79495Y-56058D01*
X79512Y-56116D01*
X79540Y-56169D01*
X79578Y-56216D01*
X79624Y-56255D01*
X79677Y-56284D01*
X79735Y-56303D01*
X79795Y-56309D01*
X79800Y-56310D01*
X80115Y-56310D01*
X80115Y-56945D01*
X80113Y-56946D01*
X80092Y-56967D01*
X80075Y-56992D01*
X80064Y-57019D01*
X80058Y-57048D01*
X80058Y-57077D01*
X80058Y-57550D01*
X80064Y-57579D01*
X80075Y-57606D01*
X80091Y-57631D01*
X80112Y-57652D01*
X80136Y-57668D01*
X80163Y-57680D01*
X80192Y-57686D01*
X80222Y-57686D01*
X80656Y-57686D01*
X80685Y-57680D01*
X80712Y-57669D01*
X80736Y-57653D01*
X80757Y-57632D01*
X80774Y-57607D01*
X80785Y-57580D01*
X80791Y-57551D01*
X80791Y-57522D01*
X80791Y-57049D01*
X80785Y-57020D01*
X80774Y-56993D01*
X80758Y-56968D01*
X80737Y-56947D01*
X80735Y-56945D01*
X80735Y-56000D01*
X80735Y-53751D01*
X80785Y-53773D01*
X80843Y-53786D01*
X80902Y-53787D01*
X80960Y-53777D01*
X81014Y-53756D01*
X81064Y-53724D01*
X81107Y-53683D01*
X81141Y-53635D01*
X81165Y-53582D01*
X81178Y-53524D01*
X81178Y-53472D01*
X81185Y-53472D01*
X81243Y-53462D01*
X81297Y-53441D01*
X81347Y-53409D01*
X81366Y-53391D01*
X81389Y-53415D01*
X81437Y-53449D01*
X81491Y-53472D01*
X81549Y-53485D01*
X81608Y-53486D01*
X81666Y-53476D01*
X81720Y-53455D01*
X81770Y-53423D01*
X81810Y-53386D01*
X81919Y-53386D01*
X81937Y-53384D01*
X81955Y-53382D01*
X81956Y-53382D01*
X81957Y-53382D01*
X81975Y-53376D01*
X81993Y-53371D01*
X81994Y-53371D01*
X81995Y-53370D01*
X82011Y-53362D01*
X82027Y-53353D01*
X82028Y-53353D01*
X82029Y-53352D01*
X82044Y-53340D01*
X82058Y-53329D01*
X82059Y-53327D01*
X82059Y-53327D01*
X82059Y-53327D01*
X82060Y-53327D01*
X82626Y-52761D01*
X82638Y-52747D01*
X82650Y-52732D01*
X82650Y-52732D01*
X82651Y-52731D01*
X82659Y-52715D01*
X82668Y-52698D01*
X82669Y-52697D01*
X82669Y-52696D01*
X82675Y-52679D01*
X82680Y-52661D01*
X82680Y-52660D01*
X82681Y-52659D01*
X82682Y-52641D01*
X82684Y-52622D01*
X82684Y-52620D01*
X82684Y-52620D01*
X82684Y-52620D01*
X82685Y-52620D01*
X82685Y-51418D01*
X82713Y-51391D01*
X82726Y-51373D01*
X82725Y-51456D01*
X82743Y-51552D01*
X82779Y-51643D01*
X82832Y-51726D01*
X82900Y-51796D01*
X82980Y-51852D01*
X83070Y-51891D01*
X83166Y-51912D01*
X83214Y-51913D01*
X83180Y-51913D01*
X83084Y-51932D01*
X82993Y-51968D01*
X82911Y-52022D01*
X82841Y-52091D01*
X82785Y-52171D01*
X82747Y-52262D01*
X82726Y-52357D01*
X82725Y-52456D01*
X82743Y-52552D01*
X82779Y-52643D01*
X82832Y-52726D01*
X82900Y-52796D01*
X82980Y-52852D01*
X83070Y-52891D01*
X83166Y-52912D01*
X83214Y-52913D01*
X83180Y-52913D01*
X83084Y-52932D01*
X82993Y-52968D01*
X82911Y-53022D01*
X82841Y-53091D01*
X82785Y-53171D01*
X82747Y-53262D01*
X82726Y-53357D01*
X82725Y-53456D01*
X82743Y-53552D01*
X82779Y-53643D01*
X82832Y-53726D01*
X82900Y-53796D01*
X82980Y-53852D01*
X83070Y-53891D01*
X83166Y-53912D01*
X83214Y-53913D01*
X83180Y-53913D01*
X83084Y-53932D01*
X82993Y-53968D01*
X82911Y-54022D01*
X82841Y-54091D01*
X82785Y-54171D01*
X82747Y-54262D01*
X82726Y-54357D01*
X82725Y-54456D01*
X82743Y-54552D01*
X82779Y-54643D01*
X82832Y-54726D01*
X82900Y-54796D01*
X82980Y-54852D01*
X83070Y-54891D01*
X83166Y-54912D01*
X83264Y-54914D01*
X83361Y-54897D01*
X83452Y-54862D01*
X83535Y-54809D01*
X83606Y-54742D01*
X83662Y-54662D01*
X83702Y-54572D01*
X83724Y-54476D01*
X83726Y-54364D01*
X83706Y-54268D01*
X83669Y-54178D01*
X83615Y-54096D01*
X83546Y-54026D01*
X83464Y-53972D01*
X83374Y-53934D01*
X83278Y-53914D01*
X83268Y-53914D01*
X83361Y-53897D01*
X83452Y-53862D01*
X83535Y-53809D01*
X83606Y-53742D01*
X83662Y-53662D01*
X83702Y-53572D01*
X83724Y-53476D01*
X83726Y-53364D01*
X83706Y-53268D01*
X83669Y-53178D01*
X83615Y-53096D01*
X83546Y-53026D01*
X83464Y-52972D01*
X83374Y-52934D01*
X83278Y-52914D01*
X83268Y-52914D01*
X83361Y-52897D01*
X83452Y-52862D01*
X83535Y-52809D01*
X83606Y-52742D01*
X83662Y-52662D01*
X83702Y-52572D01*
X83724Y-52476D01*
X83726Y-52364D01*
X83706Y-52268D01*
X83669Y-52178D01*
X83615Y-52096D01*
X83546Y-52026D01*
X83464Y-51972D01*
X83374Y-51934D01*
X83278Y-51914D01*
X83268Y-51914D01*
X83361Y-51897D01*
X83452Y-51862D01*
X83535Y-51809D01*
X83606Y-51742D01*
X83662Y-51662D01*
X83702Y-51572D01*
X83724Y-51476D01*
X83726Y-51364D01*
X83706Y-51268D01*
X83669Y-51178D01*
X83615Y-51096D01*
X83546Y-51026D01*
X83464Y-50972D01*
X83374Y-50934D01*
X83278Y-50914D01*
X83268Y-50914D01*
X83361Y-50897D01*
X83452Y-50862D01*
X83535Y-50809D01*
X83606Y-50742D01*
X83662Y-50662D01*
X83702Y-50572D01*
X83724Y-50476D01*
X83726Y-50364D01*
X83706Y-50268D01*
X83669Y-50178D01*
X83615Y-50096D01*
X83546Y-50026D01*
X83464Y-49972D01*
X83374Y-49934D01*
X83278Y-49914D01*
X83180Y-49913D01*
X83084Y-49932D01*
X82993Y-49968D01*
X82911Y-50022D01*
X82841Y-50091D01*
X82785Y-50171D01*
X82747Y-50262D01*
X82726Y-50357D01*
X82725Y-50456D01*
X82743Y-50552D01*
X82779Y-50643D01*
X82832Y-50726D01*
X82900Y-50796D01*
X82980Y-50852D01*
X83070Y-50891D01*
X83166Y-50912D01*
X83214Y-50913D01*
X83180Y-50913D01*
X83084Y-50932D01*
X82993Y-50968D01*
X82911Y-51022D01*
X82841Y-51091D01*
X82785Y-51171D01*
X82784Y-51173D01*
X82785Y-51165D01*
X82773Y-51107D01*
X82751Y-51053D01*
X82718Y-51004D01*
X82677Y-50962D01*
X82628Y-50929D01*
X82574Y-50907D01*
X82516Y-50895D01*
X82457Y-50894D01*
X82399Y-50905D01*
X82345Y-50927D01*
X82296Y-50960D01*
X82254Y-51001D01*
X82220Y-51049D01*
X82197Y-51103D01*
X82185Y-51161D01*
X82184Y-51220D01*
X82195Y-51278D01*
X82216Y-51332D01*
X82248Y-51382D01*
X82285Y-51419D01*
X82285Y-52537D01*
X81836Y-52986D01*
X81809Y-52986D01*
X81777Y-52953D01*
X81728Y-52920D01*
X81674Y-52898D01*
X81616Y-52886D01*
X81557Y-52885D01*
X81499Y-52896D01*
X81445Y-52918D01*
X81410Y-52941D01*
X81410Y-52940D01*
X81410Y-52934D01*
X81410Y-51453D01*
X81438Y-51426D01*
X81441Y-51422D01*
X81443Y-51427D01*
X81484Y-51469D01*
X81532Y-51503D01*
X81586Y-51526D01*
X81644Y-51539D01*
X81703Y-51540D01*
X81761Y-51530D01*
X81815Y-51509D01*
X81865Y-51477D01*
X81908Y-51436D01*
X81942Y-51388D01*
X81966Y-51335D01*
X81979Y-51277D01*
X81980Y-51210D01*
X81968Y-51152D01*
X81946Y-51098D01*
X81913Y-51049D01*
X81872Y-51007D01*
X81823Y-50974D01*
X81769Y-50952D01*
X81711Y-50940D01*
X81662Y-50939D01*
X80816Y-50093D01*
X80816Y-50093D01*
X80816Y-50093D01*
X80801Y-50078D01*
X80771Y-50053D01*
X80736Y-50035D01*
X80699Y-50023D01*
X80660Y-50020D01*
X80621Y-50023D01*
X80584Y-50034D01*
X80584Y-50035D01*
X80017Y-50035D01*
X79993Y-49999D01*
X79952Y-49957D01*
X79903Y-49924D01*
X79849Y-49902D01*
X79791Y-49890D01*
X79732Y-49889D01*
X79674Y-49900D01*
X79620Y-49922D01*
X79571Y-49955D01*
X79570Y-49956D01*
X79570Y-49202D01*
X79882Y-48890D01*
X80604Y-48890D01*
X80622Y-48903D01*
X80676Y-48926D01*
X80734Y-48939D01*
X80793Y-48940D01*
X80851Y-48930D01*
X80905Y-48909D01*
X80955Y-48877D01*
X80998Y-48836D01*
X81032Y-48788D01*
X81056Y-48735D01*
X81069Y-48677D01*
X81070Y-48610D01*
X81058Y-48552D01*
X81036Y-48498D01*
X81003Y-48449D01*
X80962Y-48407D01*
X80913Y-48374D01*
X80890Y-48365D01*
X80905Y-48359D01*
X80955Y-48327D01*
X80998Y-48286D01*
X81032Y-48238D01*
X81056Y-48185D01*
X81069Y-48127D01*
X81070Y-48060D01*
X81058Y-48002D01*
X81036Y-47948D01*
X81003Y-47899D01*
X80962Y-47857D01*
X80913Y-47824D01*
X80859Y-47802D01*
X80801Y-47790D01*
X80742Y-47789D01*
X80684Y-47800D01*
X80630Y-47822D01*
X80581Y-47855D01*
X80545Y-47890D01*
X79886Y-47890D01*
X79910Y-47875D01*
X79952Y-47834D01*
X79986Y-47786D01*
X80010Y-47732D01*
X80023Y-47675D01*
X80024Y-47608D01*
X80012Y-47550D01*
X79990Y-47496D01*
X79958Y-47447D01*
X79916Y-47405D01*
X79867Y-47372D01*
X79847Y-47363D01*
X82302Y-47367D01*
X82364Y-47416D01*
X83172Y-48351D01*
X83782Y-49425D01*
X84172Y-50597D01*
X84327Y-51830D01*
X84330Y-51992D01*
X84330Y-51992D01*
G37*
G54D17*
X84330Y-51992D02*
X84208Y-53229D01*
X83851Y-54411D01*
X83271Y-55502D01*
X82491Y-56459D01*
X81539Y-57247D01*
X80452Y-57834D01*
X79884Y-58010D01*
X79884Y-57147D01*
X79866Y-57054D01*
X79829Y-56966D01*
X79777Y-56887D01*
X79710Y-56820D01*
X79631Y-56766D01*
X79543Y-56730D01*
X79480Y-56717D01*
X79480Y-53990D01*
X79468Y-53932D01*
X79446Y-53878D01*
X79413Y-53829D01*
X79372Y-53787D01*
X79323Y-53754D01*
X79269Y-53732D01*
X79211Y-53720D01*
X79162Y-53719D01*
X79150Y-53707D01*
X79150Y-53300D01*
X79148Y-53281D01*
X79146Y-53263D01*
X79146Y-53262D01*
X79146Y-53261D01*
X79140Y-53243D01*
X79135Y-53225D01*
X79135Y-53224D01*
X79134Y-53223D01*
X79126Y-53207D01*
X79117Y-53191D01*
X79117Y-53190D01*
X79116Y-53189D01*
X79104Y-53174D01*
X79093Y-53160D01*
X79091Y-53159D01*
X79091Y-53159D01*
X79091Y-53159D01*
X79091Y-53158D01*
X78941Y-53008D01*
X78927Y-52996D01*
X78912Y-52984D01*
X78912Y-52984D01*
X78911Y-52983D01*
X78894Y-52975D01*
X78878Y-52966D01*
X78877Y-52965D01*
X78876Y-52965D01*
X78859Y-52959D01*
X78841Y-52954D01*
X78840Y-52954D01*
X78839Y-52953D01*
X78821Y-52952D01*
X78802Y-52950D01*
X78800Y-52950D01*
X78800Y-52950D01*
X78800Y-52950D01*
X78800Y-52950D01*
X77905Y-52950D01*
X77845Y-52950D01*
X77826Y-52951D01*
X77808Y-52953D01*
X77807Y-52953D01*
X77806Y-52953D01*
X77788Y-52959D01*
X77770Y-52964D01*
X77769Y-52964D01*
X77768Y-52965D01*
X77752Y-52973D01*
X77736Y-52982D01*
X77735Y-52982D01*
X77734Y-52983D01*
X77719Y-52995D01*
X77705Y-53006D01*
X77704Y-53008D01*
X77704Y-53008D01*
X77704Y-53008D01*
X77703Y-53008D01*
X75328Y-55383D01*
X75326Y-55362D01*
X75315Y-55325D01*
X75297Y-55290D01*
X75272Y-55260D01*
X75242Y-55234D01*
X75208Y-55216D01*
X75171Y-55204D01*
X75132Y-55200D01*
X75130Y-55200D01*
X75100Y-55200D01*
X75087Y-55201D01*
X75092Y-55185D01*
X75097Y-55156D01*
X75096Y-55127D01*
X75089Y-55098D01*
X75077Y-55072D01*
X74777Y-54428D01*
X74759Y-54405D01*
X74738Y-54385D01*
X74713Y-54369D01*
X74685Y-54359D01*
X74656Y-54355D01*
X74626Y-54356D01*
X74598Y-54363D01*
X74571Y-54375D01*
X74178Y-54558D01*
X74154Y-54576D01*
X74134Y-54597D01*
X74119Y-54623D01*
X74109Y-54650D01*
X74104Y-54679D01*
X74105Y-54709D01*
X74112Y-54737D01*
X74124Y-54764D01*
X74424Y-55407D01*
X74442Y-55431D01*
X74463Y-55451D01*
X74488Y-55466D01*
X74516Y-55476D01*
X74545Y-55481D01*
X74574Y-55480D01*
X74603Y-55473D01*
X74630Y-55461D01*
X74913Y-55328D01*
X74904Y-55359D01*
X74900Y-55398D01*
X74903Y-55437D01*
X74914Y-55474D01*
X74932Y-55509D01*
X74957Y-55539D01*
X74987Y-55565D01*
X75021Y-55583D01*
X75058Y-55595D01*
X75097Y-55599D01*
X75072Y-55599D01*
X75014Y-55610D01*
X74960Y-55632D01*
X74911Y-55665D01*
X74869Y-55706D01*
X74835Y-55754D01*
X74812Y-55808D01*
X74800Y-55866D01*
X74799Y-55925D01*
X74810Y-55983D01*
X74831Y-56037D01*
X74863Y-56087D01*
X74904Y-56129D01*
X74952Y-56163D01*
X75006Y-56186D01*
X75064Y-56199D01*
X75099Y-56200D01*
X75096Y-56200D01*
X75091Y-56199D01*
X75070Y-56202D01*
X75061Y-56203D01*
X75058Y-56204D01*
X75052Y-56205D01*
X75032Y-56212D01*
X75023Y-56215D01*
X75021Y-56216D01*
X75015Y-56218D01*
X74997Y-56229D01*
X74989Y-56233D01*
X74987Y-56235D01*
X74982Y-56238D01*
X74979Y-56239D01*
X74758Y-56405D01*
X74731Y-56400D01*
X74672Y-56399D01*
X74614Y-56410D01*
X74560Y-56432D01*
X74511Y-56465D01*
X74469Y-56506D01*
X74435Y-56554D01*
X74412Y-56608D01*
X74400Y-56666D01*
X74399Y-56725D01*
X74410Y-56783D01*
X74431Y-56837D01*
X74463Y-56887D01*
X74504Y-56929D01*
X74552Y-56963D01*
X74606Y-56986D01*
X74664Y-56999D01*
X74723Y-57000D01*
X74781Y-56990D01*
X74835Y-56969D01*
X74885Y-56937D01*
X74928Y-56896D01*
X74962Y-56848D01*
X74986Y-56795D01*
X74999Y-56737D01*
X74999Y-56725D01*
X75166Y-56600D01*
X75361Y-56600D01*
X75382Y-56600D01*
X75400Y-56600D01*
X75438Y-56596D01*
X75476Y-56584D01*
X75510Y-56566D01*
X75540Y-56541D01*
X75565Y-56511D01*
X75580Y-56483D01*
X78166Y-53898D01*
X78206Y-53899D01*
X78264Y-53889D01*
X78318Y-53868D01*
X78368Y-53836D01*
X78400Y-53806D01*
X78400Y-55217D01*
X78317Y-55300D01*
X78224Y-55300D01*
X78192Y-55267D01*
X78143Y-55234D01*
X78089Y-55212D01*
X78031Y-55200D01*
X77972Y-55199D01*
X77914Y-55210D01*
X77860Y-55232D01*
X77811Y-55265D01*
X77769Y-55306D01*
X77735Y-55354D01*
X77712Y-55408D01*
X77700Y-55466D01*
X77699Y-55525D01*
X77710Y-55583D01*
X77731Y-55637D01*
X77763Y-55687D01*
X77804Y-55729D01*
X77852Y-55763D01*
X77906Y-55786D01*
X77964Y-55799D01*
X78023Y-55800D01*
X78081Y-55790D01*
X78135Y-55769D01*
X78185Y-55737D01*
X78225Y-55700D01*
X78400Y-55700D01*
X78418Y-55698D01*
X78436Y-55696D01*
X78437Y-55696D01*
X78438Y-55696D01*
X78456Y-55690D01*
X78474Y-55685D01*
X78475Y-55685D01*
X78476Y-55684D01*
X78492Y-55676D01*
X78508Y-55667D01*
X78509Y-55667D01*
X78510Y-55666D01*
X78525Y-55654D01*
X78539Y-55643D01*
X78540Y-55641D01*
X78540Y-55641D01*
X78540Y-55641D01*
X78541Y-55641D01*
X78741Y-55441D01*
X78753Y-55427D01*
X78765Y-55412D01*
X78765Y-55412D01*
X78766Y-55411D01*
X78774Y-55394D01*
X78783Y-55378D01*
X78784Y-55377D01*
X78784Y-55376D01*
X78790Y-55359D01*
X78795Y-55341D01*
X78795Y-55340D01*
X78796Y-55339D01*
X78797Y-55321D01*
X78799Y-55302D01*
X78799Y-55300D01*
X78799Y-55300D01*
X78799Y-55300D01*
X78800Y-55300D01*
X78800Y-53921D01*
X78806Y-53929D01*
X78808Y-53930D01*
X78808Y-53930D01*
X78808Y-53930D01*
X78808Y-53931D01*
X78880Y-54003D01*
X78879Y-54045D01*
X78890Y-54103D01*
X78911Y-54157D01*
X78943Y-54207D01*
X78984Y-54249D01*
X79032Y-54283D01*
X79086Y-54306D01*
X79144Y-54319D01*
X79203Y-54320D01*
X79261Y-54310D01*
X79315Y-54289D01*
X79365Y-54257D01*
X79408Y-54216D01*
X79442Y-54168D01*
X79466Y-54115D01*
X79479Y-54057D01*
X79480Y-53990D01*
X79480Y-56717D01*
X79450Y-56711D01*
X79355Y-56710D01*
X79262Y-56728D01*
X79174Y-56763D01*
X79094Y-56815D01*
X79057Y-56852D01*
X79057Y-56323D01*
X79047Y-56273D01*
X79028Y-56227D01*
X79000Y-56184D01*
X78964Y-56148D01*
X78922Y-56120D01*
X78875Y-56100D01*
X78826Y-56090D01*
X78775Y-56090D01*
X78725Y-56099D01*
X78678Y-56118D01*
X78636Y-56146D01*
X78600Y-56182D01*
X78571Y-56223D01*
X78551Y-56270D01*
X78541Y-56319D01*
X78540Y-56370D01*
X78549Y-56420D01*
X78568Y-56467D01*
X78595Y-56510D01*
X78630Y-56546D01*
X78672Y-56575D01*
X78718Y-56595D01*
X78768Y-56606D01*
X78818Y-56607D01*
X78868Y-56598D01*
X78916Y-56580D01*
X78958Y-56553D01*
X78995Y-56518D01*
X79024Y-56477D01*
X79045Y-56430D01*
X79056Y-56381D01*
X79057Y-56323D01*
X79057Y-56852D01*
X79026Y-56882D01*
X78973Y-56960D01*
X78935Y-57048D01*
X78915Y-57141D01*
X78914Y-57236D01*
X78931Y-57329D01*
X78966Y-57417D01*
X79018Y-57497D01*
X79084Y-57566D01*
X79162Y-57620D01*
X79249Y-57658D01*
X79342Y-57678D01*
X79437Y-57680D01*
X79530Y-57664D01*
X79619Y-57630D01*
X79699Y-57579D01*
X79768Y-57513D01*
X79823Y-57435D01*
X79861Y-57349D01*
X79882Y-57256D01*
X79884Y-57147D01*
X79884Y-58010D01*
X79272Y-58200D01*
X78044Y-58329D01*
X77482Y-58278D01*
X77482Y-56323D01*
X77473Y-56273D01*
X77453Y-56227D01*
X77425Y-56184D01*
X77390Y-56148D01*
X77348Y-56120D01*
X77301Y-56100D01*
X77251Y-56090D01*
X77201Y-56090D01*
X77151Y-56099D01*
X77104Y-56118D01*
X77061Y-56146D01*
X77025Y-56182D01*
X76997Y-56223D01*
X76977Y-56270D01*
X76966Y-56319D01*
X76965Y-56370D01*
X76975Y-56420D01*
X76993Y-56467D01*
X77021Y-56510D01*
X77056Y-56546D01*
X77097Y-56575D01*
X77144Y-56595D01*
X77193Y-56606D01*
X77244Y-56607D01*
X77294Y-56598D01*
X77341Y-56580D01*
X77384Y-56553D01*
X77421Y-56518D01*
X77450Y-56477D01*
X77470Y-56430D01*
X77482Y-56381D01*
X77482Y-56323D01*
X77482Y-58278D01*
X77108Y-58244D01*
X77108Y-57147D01*
X77090Y-57054D01*
X77054Y-56966D01*
X77001Y-56887D01*
X76934Y-56820D01*
X76855Y-56766D01*
X76768Y-56730D01*
X76675Y-56711D01*
X76580Y-56710D01*
X76486Y-56728D01*
X76398Y-56763D01*
X76319Y-56815D01*
X76251Y-56882D01*
X76197Y-56960D01*
X76160Y-57048D01*
X76140Y-57141D01*
X76138Y-57236D01*
X76156Y-57329D01*
X76191Y-57417D01*
X76242Y-57497D01*
X76308Y-57566D01*
X76386Y-57620D01*
X76473Y-57658D01*
X76566Y-57678D01*
X76661Y-57680D01*
X76755Y-57664D01*
X76843Y-57630D01*
X76924Y-57579D01*
X76992Y-57513D01*
X77047Y-57435D01*
X77086Y-57349D01*
X77107Y-57256D01*
X77108Y-57147D01*
X77108Y-58244D01*
X76813Y-58217D01*
X75628Y-57868D01*
X74534Y-57296D01*
X73571Y-56522D01*
X73213Y-56095D01*
X73225Y-56097D01*
X73254Y-56095D01*
X73283Y-56089D01*
X73310Y-56076D01*
X73703Y-55893D01*
X73727Y-55875D01*
X73747Y-55854D01*
X73762Y-55829D01*
X73772Y-55801D01*
X73777Y-55772D01*
X73776Y-55743D01*
X73769Y-55714D01*
X73756Y-55687D01*
X73456Y-55044D01*
X73439Y-55020D01*
X73417Y-55000D01*
X73392Y-54985D01*
X73365Y-54975D01*
X73336Y-54970D01*
X73306Y-54971D01*
X73278Y-54978D01*
X73251Y-54991D01*
X72857Y-55174D01*
X72834Y-55191D01*
X72814Y-55213D01*
X72798Y-55238D01*
X72788Y-55266D01*
X72784Y-55295D01*
X72785Y-55324D01*
X72792Y-55353D01*
X72804Y-55380D01*
X73043Y-55893D01*
X72777Y-55575D01*
X72182Y-54493D01*
X71808Y-53315D01*
X71798Y-53222D01*
X72072Y-53811D01*
X72090Y-53834D01*
X72111Y-53854D01*
X72136Y-53870D01*
X72164Y-53880D01*
X72193Y-53884D01*
X72223Y-53883D01*
X72251Y-53876D01*
X72278Y-53864D01*
X72671Y-53681D01*
X72695Y-53663D01*
X72715Y-53642D01*
X72730Y-53616D01*
X72740Y-53589D01*
X72745Y-53560D01*
X72744Y-53530D01*
X72737Y-53502D01*
X72725Y-53475D01*
X72449Y-52883D01*
X72449Y-50668D01*
X72947Y-50170D01*
X75204Y-50170D01*
X75260Y-50170D01*
X75298Y-50166D01*
X75336Y-50154D01*
X75370Y-50136D01*
X75400Y-50111D01*
X75425Y-50081D01*
X75444Y-50047D01*
X75455Y-50010D01*
X75457Y-49999D01*
X75780Y-49676D01*
X77029Y-49676D01*
X77770Y-50416D01*
X77770Y-51710D01*
X77770Y-51716D01*
X77770Y-51885D01*
X77749Y-51906D01*
X77715Y-51954D01*
X77692Y-52008D01*
X77680Y-52066D01*
X77679Y-52125D01*
X77690Y-52183D01*
X77711Y-52237D01*
X77739Y-52280D01*
X77273Y-52280D01*
X76876Y-51883D01*
X76870Y-51878D01*
X76878Y-51870D01*
X76912Y-51822D01*
X76936Y-51769D01*
X76949Y-51711D01*
X76950Y-51644D01*
X76938Y-51586D01*
X76916Y-51532D01*
X76899Y-51506D01*
X76899Y-50616D01*
X76927Y-50589D01*
X76961Y-50541D01*
X76985Y-50488D01*
X76998Y-50430D01*
X76999Y-50363D01*
X76987Y-50305D01*
X76965Y-50251D01*
X76932Y-50202D01*
X76891Y-50160D01*
X76842Y-50127D01*
X76788Y-50105D01*
X76730Y-50093D01*
X76671Y-50092D01*
X76613Y-50103D01*
X76559Y-50125D01*
X76510Y-50158D01*
X76468Y-50199D01*
X76434Y-50247D01*
X76411Y-50301D01*
X76399Y-50359D01*
X76398Y-50418D01*
X76409Y-50476D01*
X76430Y-50530D01*
X76462Y-50580D01*
X76499Y-50617D01*
X76499Y-51414D01*
X76461Y-51439D01*
X76419Y-51480D01*
X76385Y-51528D01*
X76362Y-51582D01*
X76350Y-51640D01*
X76349Y-51699D01*
X76360Y-51757D01*
X76381Y-51810D01*
X75695Y-51810D01*
X75672Y-51812D01*
X75649Y-51814D01*
X75648Y-51814D01*
X75647Y-51814D01*
X75625Y-51821D01*
X75603Y-51827D01*
X75601Y-51828D01*
X75600Y-51828D01*
X75580Y-51839D01*
X75559Y-51850D01*
X75558Y-51851D01*
X75557Y-51851D01*
X75539Y-51866D01*
X75521Y-51880D01*
X75519Y-51882D01*
X75519Y-51882D01*
X75519Y-51882D01*
X75519Y-51883D01*
X74605Y-52797D01*
X74605Y-50566D01*
X74593Y-50508D01*
X74571Y-50454D01*
X74538Y-50405D01*
X74497Y-50363D01*
X74448Y-50330D01*
X74394Y-50308D01*
X74336Y-50296D01*
X74277Y-50295D01*
X74219Y-50306D01*
X74165Y-50328D01*
X74116Y-50361D01*
X74074Y-50402D01*
X74040Y-50450D01*
X74017Y-50504D01*
X74005Y-50562D01*
X74004Y-50621D01*
X74015Y-50679D01*
X74036Y-50733D01*
X74068Y-50783D01*
X74105Y-50820D01*
X74105Y-51887D01*
X73755Y-52237D01*
X73745Y-52216D01*
X73728Y-52192D01*
X73706Y-52173D01*
X73681Y-52157D01*
X73653Y-52147D01*
X73624Y-52142D01*
X73595Y-52144D01*
X73566Y-52150D01*
X73539Y-52163D01*
X73146Y-52346D01*
X73122Y-52364D01*
X73102Y-52385D01*
X73087Y-52410D01*
X73077Y-52438D01*
X73072Y-52467D01*
X73073Y-52496D01*
X73080Y-52525D01*
X73093Y-52552D01*
X73393Y-53195D01*
X73410Y-53219D01*
X73432Y-53239D01*
X73457Y-53254D01*
X73484Y-53264D01*
X73513Y-53269D01*
X73543Y-53268D01*
X73571Y-53261D01*
X73598Y-53248D01*
X73992Y-53065D01*
X74015Y-53048D01*
X74035Y-53026D01*
X74051Y-53001D01*
X74061Y-52973D01*
X74065Y-52944D01*
X74064Y-52915D01*
X74057Y-52886D01*
X74045Y-52859D01*
X73935Y-52623D01*
X74446Y-52111D01*
X74458Y-52097D01*
X74470Y-52083D01*
X74470Y-52082D01*
X74471Y-52081D01*
X74479Y-52065D01*
X74488Y-52049D01*
X74489Y-52048D01*
X74489Y-52047D01*
X74495Y-52029D01*
X74500Y-52011D01*
X74500Y-52010D01*
X74501Y-52009D01*
X74502Y-51991D01*
X74504Y-51973D01*
X74504Y-51971D01*
X74504Y-51971D01*
X74504Y-51971D01*
X74505Y-51970D01*
X74505Y-51940D01*
X74505Y-51915D01*
X74505Y-50819D01*
X74533Y-50792D01*
X74567Y-50744D01*
X74591Y-50691D01*
X74604Y-50633D01*
X74605Y-50566D01*
X74605Y-52797D01*
X73267Y-54135D01*
X73241Y-54139D01*
X73187Y-54161D01*
X73137Y-54194D01*
X73095Y-54235D01*
X73062Y-54283D01*
X73039Y-54337D01*
X73027Y-54395D01*
X73026Y-54454D01*
X73036Y-54512D01*
X73058Y-54566D01*
X73090Y-54616D01*
X73131Y-54658D01*
X73179Y-54692D01*
X73233Y-54715D01*
X73291Y-54728D01*
X73349Y-54729D01*
X73407Y-54719D01*
X73462Y-54698D01*
X73512Y-54666D01*
X73554Y-54626D01*
X73588Y-54578D01*
X73612Y-54524D01*
X73620Y-54488D01*
X75799Y-52310D01*
X76265Y-52310D01*
X76239Y-52336D01*
X76205Y-52384D01*
X76182Y-52438D01*
X76170Y-52496D01*
X76169Y-52555D01*
X76180Y-52613D01*
X76201Y-52667D01*
X76233Y-52717D01*
X76270Y-52754D01*
X76270Y-52863D01*
X75176Y-53957D01*
X75131Y-53956D01*
X75073Y-53967D01*
X75019Y-53989D01*
X74970Y-54022D01*
X74928Y-54063D01*
X74894Y-54111D01*
X74871Y-54165D01*
X74859Y-54223D01*
X74858Y-54282D01*
X74869Y-54340D01*
X74890Y-54394D01*
X74922Y-54444D01*
X74963Y-54486D01*
X75011Y-54520D01*
X75065Y-54543D01*
X75123Y-54556D01*
X75182Y-54557D01*
X75240Y-54547D01*
X75294Y-54526D01*
X75344Y-54494D01*
X75387Y-54453D01*
X75421Y-54405D01*
X75445Y-54352D01*
X75458Y-54294D01*
X75458Y-54240D01*
X76611Y-53087D01*
X76623Y-53073D01*
X76635Y-53058D01*
X76635Y-53058D01*
X76636Y-53057D01*
X76644Y-53040D01*
X76653Y-53024D01*
X76654Y-53023D01*
X76654Y-53022D01*
X76660Y-53005D01*
X76665Y-52987D01*
X76665Y-52986D01*
X76666Y-52985D01*
X76667Y-52967D01*
X76669Y-52948D01*
X76669Y-52946D01*
X76669Y-52946D01*
X76669Y-52946D01*
X76670Y-52946D01*
X76670Y-52753D01*
X76698Y-52726D01*
X76732Y-52678D01*
X76756Y-52625D01*
X76769Y-52567D01*
X76770Y-52500D01*
X76765Y-52479D01*
X76893Y-52606D01*
X76898Y-52623D01*
X76920Y-52666D01*
X76951Y-52704D01*
X76988Y-52736D01*
X77031Y-52759D01*
X77078Y-52774D01*
X77126Y-52779D01*
X77130Y-52780D01*
X77160Y-52780D01*
X80115Y-52780D01*
X80115Y-55690D01*
X79800Y-55690D01*
X79739Y-55695D01*
X79681Y-55713D01*
X79628Y-55741D01*
X79581Y-55780D01*
X79542Y-55826D01*
X79514Y-55879D01*
X79496Y-55937D01*
X79490Y-55997D01*
X79495Y-56058D01*
X79512Y-56116D01*
X79540Y-56169D01*
X79578Y-56216D01*
X79624Y-56255D01*
X79677Y-56284D01*
X79735Y-56303D01*
X79795Y-56309D01*
X79800Y-56310D01*
X80115Y-56310D01*
X80115Y-56945D01*
X80113Y-56946D01*
X80092Y-56967D01*
X80075Y-56992D01*
X80064Y-57019D01*
X80058Y-57048D01*
X80058Y-57077D01*
X80058Y-57550D01*
X80064Y-57579D01*
X80075Y-57606D01*
X80091Y-57631D01*
X80112Y-57652D01*
X80136Y-57668D01*
X80163Y-57680D01*
X80192Y-57686D01*
X80222Y-57686D01*
X80656Y-57686D01*
X80685Y-57680D01*
X80712Y-57669D01*
X80736Y-57653D01*
X80757Y-57632D01*
X80774Y-57607D01*
X80785Y-57580D01*
X80791Y-57551D01*
X80791Y-57522D01*
X80791Y-57049D01*
X80785Y-57020D01*
X80774Y-56993D01*
X80758Y-56968D01*
X80737Y-56947D01*
X80735Y-56945D01*
X80735Y-56000D01*
X80735Y-53751D01*
X80785Y-53773D01*
X80843Y-53786D01*
X80902Y-53787D01*
X80960Y-53777D01*
X81014Y-53756D01*
X81064Y-53724D01*
X81107Y-53683D01*
X81141Y-53635D01*
X81165Y-53582D01*
X81178Y-53524D01*
X81178Y-53472D01*
X81185Y-53472D01*
X81243Y-53462D01*
X81297Y-53441D01*
X81347Y-53409D01*
X81366Y-53391D01*
X81389Y-53415D01*
X81437Y-53449D01*
X81491Y-53472D01*
X81549Y-53485D01*
X81608Y-53486D01*
X81666Y-53476D01*
X81720Y-53455D01*
X81770Y-53423D01*
X81810Y-53386D01*
X81919Y-53386D01*
X81937Y-53384D01*
X81955Y-53382D01*
X81956Y-53382D01*
X81957Y-53382D01*
X81975Y-53376D01*
X81993Y-53371D01*
X81994Y-53371D01*
X81995Y-53370D01*
X82011Y-53362D01*
X82027Y-53353D01*
X82028Y-53353D01*
X82029Y-53352D01*
X82044Y-53340D01*
X82058Y-53329D01*
X82059Y-53327D01*
X82059Y-53327D01*
X82059Y-53327D01*
X82060Y-53327D01*
X82626Y-52761D01*
X82638Y-52747D01*
X82650Y-52732D01*
X82650Y-52732D01*
X82651Y-52731D01*
X82659Y-52715D01*
X82668Y-52698D01*
X82669Y-52697D01*
X82669Y-52696D01*
X82675Y-52679D01*
X82680Y-52661D01*
X82680Y-52660D01*
X82681Y-52659D01*
X82682Y-52641D01*
X82684Y-52622D01*
X82684Y-52620D01*
X82684Y-52620D01*
X82684Y-52620D01*
X82685Y-52620D01*
X82685Y-51418D01*
X82713Y-51391D01*
X82726Y-51373D01*
X82725Y-51456D01*
X82743Y-51552D01*
X82779Y-51643D01*
X82832Y-51726D01*
X82900Y-51796D01*
X82980Y-51852D01*
X83070Y-51891D01*
X83166Y-51912D01*
X83214Y-51913D01*
X83180Y-51913D01*
X83084Y-51932D01*
X82993Y-51968D01*
X82911Y-52022D01*
X82841Y-52091D01*
X82785Y-52171D01*
X82747Y-52262D01*
X82726Y-52357D01*
X82725Y-52456D01*
X82743Y-52552D01*
X82779Y-52643D01*
X82832Y-52726D01*
X82900Y-52796D01*
X82980Y-52852D01*
X83070Y-52891D01*
X83166Y-52912D01*
X83214Y-52913D01*
X83180Y-52913D01*
X83084Y-52932D01*
X82993Y-52968D01*
X82911Y-53022D01*
X82841Y-53091D01*
X82785Y-53171D01*
X82747Y-53262D01*
X82726Y-53357D01*
X82725Y-53456D01*
X82743Y-53552D01*
X82779Y-53643D01*
X82832Y-53726D01*
X82900Y-53796D01*
X82980Y-53852D01*
X83070Y-53891D01*
X83166Y-53912D01*
X83214Y-53913D01*
X83180Y-53913D01*
X83084Y-53932D01*
X82993Y-53968D01*
X82911Y-54022D01*
X82841Y-54091D01*
X82785Y-54171D01*
X82747Y-54262D01*
X82726Y-54357D01*
X82725Y-54456D01*
X82743Y-54552D01*
X82779Y-54643D01*
X82832Y-54726D01*
X82900Y-54796D01*
X82980Y-54852D01*
X83070Y-54891D01*
X83166Y-54912D01*
X83264Y-54914D01*
X83361Y-54897D01*
X83452Y-54862D01*
X83535Y-54809D01*
X83606Y-54742D01*
X83662Y-54662D01*
X83702Y-54572D01*
X83724Y-54476D01*
X83726Y-54364D01*
X83706Y-54268D01*
X83669Y-54178D01*
X83615Y-54096D01*
X83546Y-54026D01*
X83464Y-53972D01*
X83374Y-53934D01*
X83278Y-53914D01*
X83268Y-53914D01*
X83361Y-53897D01*
X83452Y-53862D01*
X83535Y-53809D01*
X83606Y-53742D01*
X83662Y-53662D01*
X83702Y-53572D01*
X83724Y-53476D01*
X83726Y-53364D01*
X83706Y-53268D01*
X83669Y-53178D01*
X83615Y-53096D01*
X83546Y-53026D01*
X83464Y-52972D01*
X83374Y-52934D01*
X83278Y-52914D01*
X83268Y-52914D01*
X83361Y-52897D01*
X83452Y-52862D01*
X83535Y-52809D01*
X83606Y-52742D01*
X83662Y-52662D01*
X83702Y-52572D01*
X83724Y-52476D01*
X83726Y-52364D01*
X83706Y-52268D01*
X83669Y-52178D01*
X83615Y-52096D01*
X83546Y-52026D01*
X83464Y-51972D01*
X83374Y-51934D01*
X83278Y-51914D01*
X83268Y-51914D01*
X83361Y-51897D01*
X83452Y-51862D01*
X83535Y-51809D01*
X83606Y-51742D01*
X83662Y-51662D01*
X83702Y-51572D01*
X83724Y-51476D01*
X83726Y-51364D01*
X83706Y-51268D01*
X83669Y-51178D01*
X83615Y-51096D01*
X83546Y-51026D01*
X83464Y-50972D01*
X83374Y-50934D01*
X83278Y-50914D01*
X83268Y-50914D01*
X83361Y-50897D01*
X83452Y-50862D01*
X83535Y-50809D01*
X83606Y-50742D01*
X83662Y-50662D01*
X83702Y-50572D01*
X83724Y-50476D01*
X83726Y-50364D01*
X83706Y-50268D01*
X83669Y-50178D01*
X83615Y-50096D01*
X83546Y-50026D01*
X83464Y-49972D01*
X83374Y-49934D01*
X83278Y-49914D01*
X83180Y-49913D01*
X83084Y-49932D01*
X82993Y-49968D01*
X82911Y-50022D01*
X82841Y-50091D01*
X82785Y-50171D01*
X82747Y-50262D01*
X82726Y-50357D01*
X82725Y-50456D01*
X82743Y-50552D01*
X82779Y-50643D01*
X82832Y-50726D01*
X82900Y-50796D01*
X82980Y-50852D01*
X83070Y-50891D01*
X83166Y-50912D01*
X83214Y-50913D01*
X83180Y-50913D01*
X83084Y-50932D01*
X82993Y-50968D01*
X82911Y-51022D01*
X82841Y-51091D01*
X82785Y-51171D01*
X82784Y-51173D01*
X82785Y-51165D01*
X82773Y-51107D01*
X82751Y-51053D01*
X82718Y-51004D01*
X82677Y-50962D01*
X82628Y-50929D01*
X82574Y-50907D01*
X82516Y-50895D01*
X82457Y-50894D01*
X82399Y-50905D01*
X82345Y-50927D01*
X82296Y-50960D01*
X82254Y-51001D01*
X82220Y-51049D01*
X82197Y-51103D01*
X82185Y-51161D01*
X82184Y-51220D01*
X82195Y-51278D01*
X82216Y-51332D01*
X82248Y-51382D01*
X82285Y-51419D01*
X82285Y-52537D01*
X81836Y-52986D01*
X81809Y-52986D01*
X81777Y-52953D01*
X81728Y-52920D01*
X81674Y-52898D01*
X81616Y-52886D01*
X81557Y-52885D01*
X81499Y-52896D01*
X81445Y-52918D01*
X81410Y-52941D01*
X81410Y-52940D01*
X81410Y-52934D01*
X81410Y-51453D01*
X81438Y-51426D01*
X81441Y-51422D01*
X81443Y-51427D01*
X81484Y-51469D01*
X81532Y-51503D01*
X81586Y-51526D01*
X81644Y-51539D01*
X81703Y-51540D01*
X81761Y-51530D01*
X81815Y-51509D01*
X81865Y-51477D01*
X81908Y-51436D01*
X81942Y-51388D01*
X81966Y-51335D01*
X81979Y-51277D01*
X81980Y-51210D01*
X81968Y-51152D01*
X81946Y-51098D01*
X81913Y-51049D01*
X81872Y-51007D01*
X81823Y-50974D01*
X81769Y-50952D01*
X81711Y-50940D01*
X81662Y-50939D01*
X80816Y-50093D01*
X80816Y-50093D01*
X80816Y-50093D01*
X80801Y-50078D01*
X80771Y-50053D01*
X80736Y-50035D01*
X80699Y-50023D01*
X80660Y-50020D01*
X80621Y-50023D01*
X80584Y-50034D01*
X80584Y-50035D01*
X80017Y-50035D01*
X79993Y-49999D01*
X79952Y-49957D01*
X79903Y-49924D01*
X79849Y-49902D01*
X79791Y-49890D01*
X79732Y-49889D01*
X79674Y-49900D01*
X79620Y-49922D01*
X79571Y-49955D01*
X79570Y-49956D01*
X79570Y-49202D01*
X79882Y-48890D01*
X80604Y-48890D01*
X80622Y-48903D01*
X80676Y-48926D01*
X80734Y-48939D01*
X80793Y-48940D01*
X80851Y-48930D01*
X80905Y-48909D01*
X80955Y-48877D01*
X80998Y-48836D01*
X81032Y-48788D01*
X81056Y-48735D01*
X81069Y-48677D01*
X81070Y-48610D01*
X81058Y-48552D01*
X81036Y-48498D01*
X81003Y-48449D01*
X80962Y-48407D01*
X80913Y-48374D01*
X80890Y-48365D01*
X80905Y-48359D01*
X80955Y-48327D01*
X80998Y-48286D01*
X81032Y-48238D01*
X81056Y-48185D01*
X81069Y-48127D01*
X81070Y-48060D01*
X81058Y-48002D01*
X81036Y-47948D01*
X81003Y-47899D01*
X80962Y-47857D01*
X80913Y-47824D01*
X80859Y-47802D01*
X80801Y-47790D01*
X80742Y-47789D01*
X80684Y-47800D01*
X80630Y-47822D01*
X80581Y-47855D01*
X80545Y-47890D01*
X79886Y-47890D01*
X79910Y-47875D01*
X79952Y-47834D01*
X79986Y-47786D01*
X80010Y-47732D01*
X80023Y-47675D01*
X80024Y-47608D01*
X80012Y-47550D01*
X79990Y-47496D01*
X79958Y-47447D01*
X79916Y-47405D01*
X79867Y-47372D01*
X79847Y-47363D01*
X82302Y-47367D01*
X82364Y-47416D01*
X83172Y-48351D01*
X83782Y-49425D01*
X84172Y-50597D01*
X84327Y-51830D01*
X84330Y-51992D01*
M02*
