G04 (created by PCBNEW (2013-07-07 BZR 4022)-stable) date 6/15/2015 10:21:50 PM*
%MOIN*%
G04 Gerber Fmt 3.4, Leading zero omitted, Abs format*
%FSLAX34Y34*%
G01*
G70*
G90*
G04 APERTURE LIST*
%ADD10C,0.00590551*%
%ADD11C,0.00393701*%
G04 APERTURE END LIST*
G54D10*
G54D11*
X84500Y-52000D02*
G75*
G03X84500Y-52000I-6500J0D01*
G74*
G01*
G54D10*
G36*
X72621Y-53561D02*
X72192Y-53761D01*
X71876Y-53082D01*
X72305Y-52882D01*
X72621Y-53561D01*
X72621Y-53561D01*
G37*
G36*
X73653Y-55773D02*
X73224Y-55973D01*
X72907Y-55294D01*
X73336Y-55094D01*
X73653Y-55773D01*
X73653Y-55773D01*
G37*
G36*
X73942Y-52945D02*
X73513Y-53145D01*
X73196Y-52466D01*
X73625Y-52266D01*
X73942Y-52945D01*
X73942Y-52945D01*
G37*
G36*
X74973Y-55157D02*
X74544Y-55357D01*
X74228Y-54678D01*
X74657Y-54478D01*
X74973Y-55157D01*
X74973Y-55157D01*
G37*
G36*
X76986Y-57160D02*
X76984Y-57240D01*
X76968Y-57310D01*
X76940Y-57374D01*
X76898Y-57433D01*
X76848Y-57481D01*
X76787Y-57520D01*
X76722Y-57545D01*
X76651Y-57557D01*
X76581Y-57556D01*
X76511Y-57540D01*
X76447Y-57512D01*
X76388Y-57471D01*
X76339Y-57421D01*
X76300Y-57360D01*
X76275Y-57296D01*
X76261Y-57224D01*
X76262Y-57155D01*
X76277Y-57084D01*
X76305Y-57020D01*
X76346Y-56961D01*
X76395Y-56912D01*
X76456Y-56872D01*
X76520Y-56846D01*
X76592Y-56833D01*
X76661Y-56833D01*
X76732Y-56848D01*
X76796Y-56875D01*
X76856Y-56915D01*
X76905Y-56964D01*
X76945Y-57024D01*
X76945Y-57025D01*
X76971Y-57089D01*
X76985Y-57159D01*
X76986Y-57160D01*
X76986Y-57160D01*
G37*
G36*
X77360Y-56336D02*
X77359Y-56365D01*
X77353Y-56392D01*
X77343Y-56415D01*
X77327Y-56438D01*
X77308Y-56455D01*
X77285Y-56470D01*
X77261Y-56479D01*
X77234Y-56484D01*
X77209Y-56484D01*
X77181Y-56477D01*
X77158Y-56467D01*
X77135Y-56451D01*
X77118Y-56433D01*
X77103Y-56410D01*
X77094Y-56387D01*
X77088Y-56359D01*
X77089Y-56334D01*
X77095Y-56306D01*
X77104Y-56284D01*
X77120Y-56260D01*
X77138Y-56243D01*
X77162Y-56227D01*
X77185Y-56218D01*
X77213Y-56213D01*
X77237Y-56213D01*
X77265Y-56219D01*
X77288Y-56228D01*
X77312Y-56244D01*
X77329Y-56262D01*
X77344Y-56285D01*
X77345Y-56285D01*
X77354Y-56308D01*
X77359Y-56335D01*
X77360Y-56336D01*
X77360Y-56336D01*
G37*
G36*
X78934Y-56336D02*
X78934Y-56365D01*
X78927Y-56392D01*
X78917Y-56415D01*
X78901Y-56438D01*
X78883Y-56455D01*
X78859Y-56470D01*
X78836Y-56479D01*
X78808Y-56484D01*
X78783Y-56484D01*
X78756Y-56477D01*
X78733Y-56467D01*
X78710Y-56451D01*
X78692Y-56433D01*
X78677Y-56410D01*
X78668Y-56387D01*
X78663Y-56359D01*
X78663Y-56334D01*
X78669Y-56306D01*
X78679Y-56284D01*
X78695Y-56260D01*
X78713Y-56243D01*
X78736Y-56227D01*
X78759Y-56218D01*
X78787Y-56213D01*
X78812Y-56213D01*
X78840Y-56219D01*
X78862Y-56228D01*
X78886Y-56244D01*
X78903Y-56262D01*
X78919Y-56285D01*
X78919Y-56285D01*
X78928Y-56308D01*
X78934Y-56335D01*
X78934Y-56336D01*
X78934Y-56336D01*
G37*
G36*
X79761Y-57160D02*
X79760Y-57240D01*
X79744Y-57310D01*
X79716Y-57374D01*
X79674Y-57433D01*
X79624Y-57481D01*
X79563Y-57520D01*
X79498Y-57545D01*
X79426Y-57557D01*
X79357Y-57556D01*
X79286Y-57540D01*
X79223Y-57512D01*
X79163Y-57471D01*
X79115Y-57421D01*
X79076Y-57360D01*
X79050Y-57296D01*
X79037Y-57224D01*
X79038Y-57155D01*
X79053Y-57084D01*
X79080Y-57020D01*
X79121Y-56961D01*
X79171Y-56912D01*
X79232Y-56872D01*
X79296Y-56846D01*
X79367Y-56833D01*
X79436Y-56833D01*
X79508Y-56848D01*
X79571Y-56875D01*
X79632Y-56915D01*
X79680Y-56964D01*
X79720Y-57024D01*
X79721Y-57025D01*
X79747Y-57089D01*
X79761Y-57159D01*
X79761Y-57160D01*
X79761Y-57160D01*
G37*
G36*
X80661Y-57556D02*
X80188Y-57556D01*
X80188Y-57043D01*
X80661Y-57043D01*
X80661Y-57556D01*
X80661Y-57556D01*
G37*
G36*
X81461Y-57131D02*
X80988Y-57131D01*
X80988Y-56618D01*
X81461Y-56618D01*
X81461Y-57131D01*
X81461Y-57131D01*
G37*
G36*
X83596Y-49378D02*
X83595Y-49459D01*
X83578Y-49532D01*
X83549Y-49597D01*
X83507Y-49657D01*
X83455Y-49706D01*
X83392Y-49746D01*
X83326Y-49771D01*
X83253Y-49784D01*
X83182Y-49783D01*
X83110Y-49767D01*
X83045Y-49739D01*
X82984Y-49696D01*
X82935Y-49645D01*
X82894Y-49583D01*
X82868Y-49517D01*
X82855Y-49444D01*
X82856Y-49373D01*
X82871Y-49300D01*
X82899Y-49235D01*
X82941Y-49174D01*
X82992Y-49124D01*
X83054Y-49084D01*
X83120Y-49057D01*
X83193Y-49043D01*
X83263Y-49044D01*
X83336Y-49059D01*
X83402Y-49086D01*
X83463Y-49128D01*
X83513Y-49178D01*
X83514Y-49179D01*
X83554Y-49239D01*
X83554Y-49240D01*
X83581Y-49305D01*
X83581Y-49306D01*
X83596Y-49377D01*
X83596Y-49378D01*
X83596Y-49378D01*
G37*
G36*
X83596Y-50378D02*
X83595Y-50459D01*
X83578Y-50532D01*
X83549Y-50597D01*
X83507Y-50657D01*
X83455Y-50706D01*
X83392Y-50746D01*
X83326Y-50771D01*
X83253Y-50784D01*
X83182Y-50783D01*
X83110Y-50767D01*
X83045Y-50739D01*
X82984Y-50696D01*
X82935Y-50645D01*
X82894Y-50583D01*
X82868Y-50517D01*
X82855Y-50444D01*
X82856Y-50373D01*
X82871Y-50300D01*
X82899Y-50235D01*
X82941Y-50174D01*
X82992Y-50124D01*
X83054Y-50084D01*
X83120Y-50057D01*
X83193Y-50043D01*
X83263Y-50044D01*
X83336Y-50059D01*
X83402Y-50086D01*
X83463Y-50128D01*
X83513Y-50178D01*
X83514Y-50179D01*
X83554Y-50239D01*
X83554Y-50240D01*
X83581Y-50305D01*
X83581Y-50306D01*
X83596Y-50377D01*
X83596Y-50378D01*
X83596Y-50378D01*
G37*
G36*
X83596Y-51378D02*
X83595Y-51459D01*
X83578Y-51532D01*
X83549Y-51597D01*
X83507Y-51657D01*
X83455Y-51706D01*
X83392Y-51746D01*
X83326Y-51771D01*
X83253Y-51784D01*
X83182Y-51783D01*
X83110Y-51767D01*
X83045Y-51739D01*
X82984Y-51696D01*
X82935Y-51645D01*
X82894Y-51583D01*
X82868Y-51517D01*
X82855Y-51444D01*
X82856Y-51373D01*
X82871Y-51300D01*
X82899Y-51235D01*
X82941Y-51174D01*
X82992Y-51124D01*
X83054Y-51084D01*
X83120Y-51057D01*
X83193Y-51043D01*
X83263Y-51044D01*
X83336Y-51059D01*
X83402Y-51086D01*
X83463Y-51128D01*
X83513Y-51178D01*
X83514Y-51179D01*
X83554Y-51239D01*
X83554Y-51240D01*
X83581Y-51305D01*
X83581Y-51306D01*
X83596Y-51377D01*
X83596Y-51378D01*
X83596Y-51378D01*
G37*
G36*
X83596Y-52378D02*
X83595Y-52459D01*
X83578Y-52532D01*
X83549Y-52597D01*
X83507Y-52657D01*
X83455Y-52706D01*
X83392Y-52746D01*
X83326Y-52771D01*
X83253Y-52784D01*
X83182Y-52783D01*
X83110Y-52767D01*
X83045Y-52739D01*
X82984Y-52696D01*
X82935Y-52645D01*
X82894Y-52583D01*
X82868Y-52517D01*
X82855Y-52444D01*
X82856Y-52373D01*
X82871Y-52300D01*
X82899Y-52235D01*
X82941Y-52174D01*
X82992Y-52124D01*
X83054Y-52084D01*
X83120Y-52057D01*
X83193Y-52043D01*
X83263Y-52044D01*
X83336Y-52059D01*
X83402Y-52086D01*
X83463Y-52128D01*
X83513Y-52178D01*
X83514Y-52179D01*
X83554Y-52239D01*
X83554Y-52240D01*
X83581Y-52305D01*
X83581Y-52306D01*
X83596Y-52377D01*
X83596Y-52378D01*
X83596Y-52378D01*
G37*
G36*
X83596Y-53378D02*
X83595Y-53459D01*
X83578Y-53532D01*
X83549Y-53597D01*
X83507Y-53657D01*
X83455Y-53706D01*
X83392Y-53746D01*
X83326Y-53771D01*
X83253Y-53784D01*
X83182Y-53783D01*
X83110Y-53767D01*
X83045Y-53739D01*
X82984Y-53696D01*
X82935Y-53645D01*
X82894Y-53583D01*
X82868Y-53517D01*
X82855Y-53444D01*
X82856Y-53373D01*
X82871Y-53300D01*
X82899Y-53235D01*
X82941Y-53174D01*
X82992Y-53124D01*
X83054Y-53084D01*
X83120Y-53057D01*
X83193Y-53043D01*
X83263Y-53044D01*
X83336Y-53059D01*
X83402Y-53086D01*
X83463Y-53128D01*
X83513Y-53178D01*
X83514Y-53179D01*
X83554Y-53239D01*
X83554Y-53240D01*
X83581Y-53305D01*
X83581Y-53306D01*
X83596Y-53377D01*
X83596Y-53378D01*
X83596Y-53378D01*
G37*
G36*
X83596Y-54378D02*
X83595Y-54459D01*
X83578Y-54532D01*
X83549Y-54597D01*
X83507Y-54657D01*
X83455Y-54706D01*
X83392Y-54746D01*
X83326Y-54771D01*
X83253Y-54784D01*
X83182Y-54783D01*
X83110Y-54767D01*
X83045Y-54739D01*
X82984Y-54696D01*
X82935Y-54645D01*
X82894Y-54583D01*
X82868Y-54517D01*
X82855Y-54444D01*
X82856Y-54373D01*
X82871Y-54300D01*
X82899Y-54235D01*
X82941Y-54174D01*
X82992Y-54124D01*
X83054Y-54084D01*
X83120Y-54057D01*
X83193Y-54043D01*
X83263Y-54044D01*
X83336Y-54059D01*
X83402Y-54086D01*
X83463Y-54128D01*
X83513Y-54178D01*
X83514Y-54179D01*
X83554Y-54239D01*
X83554Y-54240D01*
X83581Y-54305D01*
X83581Y-54306D01*
X83596Y-54377D01*
X83596Y-54378D01*
X83596Y-54378D01*
G37*
M02*
