M48
;DRILL file {Pcbnew (2013-07-07 BZR 4022)-stable} date 2/27/2015 9:28:35 PM
;FORMAT={-:-/ absolute / inch / decimal}
FMAT,2
INCH,TZ
T1C0.015
T2C0.022
T3C0.039
%
G90
G05
M72
T1
X7.22Y-5.31
X7.28Y-5.44
X7.35Y-4.96
X7.3619Y-5.3613
X7.4Y-4.92
X7.4Y-4.96
X7.469Y-5.43
X7.48Y-5.67
X7.51Y-5.6
X7.512Y-4.81
X7.512Y-5.111
X7.618Y-5.089
X7.671Y-5.038
X7.689Y-4.854
X7.6905Y-4.7925
X7.742Y-5.1037
X7.7445Y-4.857
X7.85Y-5.25
X7.89Y-5.22
X7.927Y-4.986
X8.064Y-5.6085
X8.1315Y-4.9635
X8.2425Y-5.1585
X8.3025Y-5.1585
X8.3025Y-5.229
X8.304Y-5.4945
T2
X7.7225Y-5.6349
X7.8799Y-5.6349
T3
X7.69Y-5.7195
X7.9124Y-5.7195
T0
M30
