G04 (created by PCBNEW (2013-07-07 BZR 4022)-stable) date 2/27/2015 9:27:32 PM*
%MOIN*%
G04 Gerber Fmt 3.4, Leading zero omitted, Abs format*
%FSLAX34Y34*%
G01*
G70*
G90*
G04 APERTURE LIST*
%ADD10C,0.00590551*%
%ADD11C,0.00393701*%
%ADD12C,0.0669291*%
%ADD13C,0.0216535*%
%ADD14C,0.03*%
%ADD15C,0.035*%
%ADD16C,0.01*%
%ADD17C,0.032*%
G04 APERTURE END LIST*
G54D10*
G54D11*
X84500Y-52000D02*
G75*
G03X84500Y-52000I-6500J0D01*
G74*
G01*
G54D12*
X76899Y-57195D03*
X79124Y-57195D03*
G54D13*
X77224Y-56348D03*
X78799Y-56348D03*
G54D14*
X75120Y-48100D03*
X79270Y-49860D03*
X76710Y-50380D03*
X74690Y-54300D03*
X78500Y-52500D03*
X74800Y-56700D03*
X74000Y-49600D03*
X73500Y-49600D03*
X74000Y-49200D03*
X76890Y-48540D03*
X76905Y-47925D03*
X77445Y-48570D03*
X83025Y-51585D03*
X83025Y-52290D03*
X83040Y-54945D03*
X82425Y-51585D03*
X76180Y-50890D03*
X73619Y-53613D03*
X72200Y-53100D03*
X75120Y-51110D03*
G54D15*
X80640Y-56085D03*
G54D14*
X72800Y-54400D03*
X75100Y-56000D03*
X78900Y-52200D03*
X81315Y-49635D03*
X77420Y-51037D03*
G54D16*
X76920Y-49900D02*
X75120Y-48100D01*
X79230Y-49900D02*
X76920Y-49900D01*
X79270Y-49860D02*
X79230Y-49900D01*
X76710Y-51240D02*
X76710Y-50380D01*
X74680Y-53270D02*
X76710Y-51240D01*
X74680Y-54290D02*
X74680Y-53270D01*
X74690Y-54300D02*
X74680Y-54290D01*
X78500Y-53300D02*
X78500Y-52500D01*
X75400Y-56400D02*
X78500Y-53300D01*
X75100Y-56400D02*
X75400Y-56400D01*
X74800Y-56700D02*
X75100Y-56400D01*
X83025Y-54930D02*
X83025Y-52290D01*
X83040Y-54945D02*
X83025Y-54930D01*
X76180Y-51052D02*
X76180Y-50890D01*
X73619Y-53613D02*
X76180Y-51052D01*
X72190Y-52990D02*
X72190Y-53090D01*
X72190Y-53090D02*
X72200Y-53100D01*
X74070Y-51110D02*
X75120Y-51110D01*
X72190Y-52990D02*
X74070Y-51110D01*
X73400Y-54400D02*
X72800Y-54400D01*
G54D17*
X77980Y-51720D02*
X74800Y-54900D01*
X74800Y-54900D02*
X73900Y-54900D01*
X73900Y-54900D02*
X73400Y-54400D01*
X79230Y-51720D02*
X77980Y-51720D01*
X80625Y-53115D02*
X79230Y-51720D01*
X80625Y-56070D02*
X80625Y-53115D01*
X80640Y-56085D02*
X80625Y-56070D01*
G54D16*
X78900Y-52100D02*
X78900Y-52200D01*
X78400Y-52100D02*
X78900Y-52100D01*
X75100Y-55400D02*
X78400Y-52100D01*
X75100Y-55400D02*
X75100Y-56000D01*
X80610Y-50340D02*
X81315Y-49635D01*
X78117Y-50340D02*
X80610Y-50340D01*
X77420Y-51037D02*
X78117Y-50340D01*
G54D10*
G36*
X84330Y-51992D02*
X84208Y-53229D01*
X83851Y-54411D01*
X83271Y-55502D01*
X82491Y-56459D01*
X81615Y-57184D01*
X81615Y-49605D01*
X81603Y-49547D01*
X81581Y-49493D01*
X81548Y-49444D01*
X81507Y-49402D01*
X81458Y-49369D01*
X81404Y-49347D01*
X81346Y-49335D01*
X81287Y-49334D01*
X81229Y-49345D01*
X81175Y-49367D01*
X81126Y-49400D01*
X81084Y-49441D01*
X81050Y-49489D01*
X81027Y-49543D01*
X81015Y-49601D01*
X81014Y-49652D01*
X80527Y-50140D01*
X79377Y-50140D01*
X79405Y-50129D01*
X79455Y-50097D01*
X79498Y-50056D01*
X79532Y-50008D01*
X79556Y-49955D01*
X79569Y-49897D01*
X79570Y-49830D01*
X79558Y-49772D01*
X79536Y-49718D01*
X79503Y-49669D01*
X79462Y-49627D01*
X79413Y-49594D01*
X79359Y-49572D01*
X79301Y-49560D01*
X79242Y-49559D01*
X79184Y-49570D01*
X79130Y-49592D01*
X79081Y-49625D01*
X79039Y-49666D01*
X79015Y-49700D01*
X77002Y-49700D01*
X75419Y-48116D01*
X75420Y-48070D01*
X75408Y-48012D01*
X75386Y-47958D01*
X75353Y-47909D01*
X75312Y-47867D01*
X75263Y-47834D01*
X75209Y-47812D01*
X75151Y-47800D01*
X75092Y-47799D01*
X75034Y-47810D01*
X74980Y-47832D01*
X74931Y-47865D01*
X74889Y-47906D01*
X74855Y-47954D01*
X74832Y-48008D01*
X74820Y-48066D01*
X74819Y-48125D01*
X74830Y-48183D01*
X74851Y-48237D01*
X74883Y-48287D01*
X74924Y-48329D01*
X74972Y-48363D01*
X75026Y-48386D01*
X75084Y-48399D01*
X75137Y-48400D01*
X76778Y-50041D01*
X76792Y-50053D01*
X76807Y-50065D01*
X76807Y-50065D01*
X76808Y-50066D01*
X76825Y-50074D01*
X76841Y-50083D01*
X76842Y-50084D01*
X76843Y-50084D01*
X76860Y-50090D01*
X76878Y-50095D01*
X76879Y-50095D01*
X76880Y-50096D01*
X76898Y-50097D01*
X76917Y-50099D01*
X76919Y-50099D01*
X76919Y-50099D01*
X76919Y-50099D01*
X76920Y-50100D01*
X79089Y-50100D01*
X79122Y-50123D01*
X79161Y-50140D01*
X78117Y-50140D01*
X78098Y-50141D01*
X78080Y-50143D01*
X78079Y-50143D01*
X78078Y-50143D01*
X78060Y-50149D01*
X78042Y-50154D01*
X78041Y-50154D01*
X78040Y-50155D01*
X78024Y-50163D01*
X78008Y-50172D01*
X78007Y-50172D01*
X78006Y-50173D01*
X77991Y-50185D01*
X77977Y-50196D01*
X77976Y-50198D01*
X77976Y-50198D01*
X77976Y-50198D01*
X77975Y-50198D01*
X77437Y-50737D01*
X77392Y-50736D01*
X77334Y-50747D01*
X77280Y-50769D01*
X77231Y-50802D01*
X77189Y-50843D01*
X77155Y-50891D01*
X77132Y-50945D01*
X77120Y-51003D01*
X77119Y-51062D01*
X77130Y-51120D01*
X77151Y-51174D01*
X77183Y-51224D01*
X77224Y-51266D01*
X77272Y-51300D01*
X77326Y-51323D01*
X77384Y-51336D01*
X77443Y-51337D01*
X77501Y-51327D01*
X77555Y-51306D01*
X77605Y-51274D01*
X77648Y-51233D01*
X77682Y-51185D01*
X77706Y-51132D01*
X77719Y-51074D01*
X77719Y-51020D01*
X78199Y-50540D01*
X80610Y-50540D01*
X80628Y-50538D01*
X80646Y-50536D01*
X80647Y-50536D01*
X80648Y-50536D01*
X80666Y-50530D01*
X80684Y-50525D01*
X80685Y-50525D01*
X80686Y-50524D01*
X80702Y-50516D01*
X80718Y-50507D01*
X80719Y-50507D01*
X80720Y-50506D01*
X80735Y-50494D01*
X80749Y-50483D01*
X80750Y-50481D01*
X80750Y-50481D01*
X80750Y-50481D01*
X80751Y-50481D01*
X81298Y-49934D01*
X81338Y-49935D01*
X81396Y-49925D01*
X81450Y-49904D01*
X81500Y-49872D01*
X81543Y-49831D01*
X81577Y-49783D01*
X81601Y-49730D01*
X81614Y-49672D01*
X81615Y-49605D01*
X81615Y-57184D01*
X81539Y-57247D01*
X80965Y-57557D01*
X80965Y-56053D01*
X80952Y-55990D01*
X80935Y-55947D01*
X80935Y-53115D01*
X80932Y-53086D01*
X80929Y-53057D01*
X80929Y-53056D01*
X80929Y-53054D01*
X80920Y-53027D01*
X80912Y-52999D01*
X80912Y-52998D01*
X80911Y-52996D01*
X80898Y-52971D01*
X80884Y-52946D01*
X80883Y-52944D01*
X80883Y-52943D01*
X80865Y-52921D01*
X80847Y-52898D01*
X80845Y-52896D01*
X80844Y-52896D01*
X80844Y-52896D01*
X80844Y-52895D01*
X79449Y-51500D01*
X79427Y-51482D01*
X79405Y-51464D01*
X79403Y-51463D01*
X79402Y-51462D01*
X79377Y-51448D01*
X79352Y-51435D01*
X79350Y-51434D01*
X79349Y-51433D01*
X79321Y-51425D01*
X79294Y-51416D01*
X79292Y-51416D01*
X79291Y-51416D01*
X79262Y-51413D01*
X79234Y-51410D01*
X79231Y-51410D01*
X79231Y-51410D01*
X79231Y-51410D01*
X79230Y-51410D01*
X77980Y-51410D01*
X77951Y-51412D01*
X77922Y-51415D01*
X77921Y-51415D01*
X77919Y-51415D01*
X77892Y-51424D01*
X77864Y-51432D01*
X77863Y-51432D01*
X77861Y-51433D01*
X77836Y-51446D01*
X77811Y-51460D01*
X77809Y-51461D01*
X77808Y-51461D01*
X77786Y-51479D01*
X77763Y-51497D01*
X77761Y-51499D01*
X77761Y-51500D01*
X77761Y-51500D01*
X77760Y-51500D01*
X74989Y-54271D01*
X74990Y-54270D01*
X74978Y-54212D01*
X74956Y-54158D01*
X74923Y-54109D01*
X74882Y-54067D01*
X74880Y-54066D01*
X74880Y-53352D01*
X76851Y-51381D01*
X76863Y-51367D01*
X76875Y-51352D01*
X76875Y-51352D01*
X76876Y-51351D01*
X76884Y-51335D01*
X76893Y-51318D01*
X76894Y-51317D01*
X76894Y-51316D01*
X76900Y-51299D01*
X76905Y-51281D01*
X76905Y-51280D01*
X76906Y-51279D01*
X76907Y-51261D01*
X76909Y-51242D01*
X76909Y-51240D01*
X76909Y-51240D01*
X76909Y-51240D01*
X76910Y-51240D01*
X76910Y-50603D01*
X76938Y-50576D01*
X76972Y-50528D01*
X76996Y-50475D01*
X77009Y-50417D01*
X77010Y-50350D01*
X76998Y-50292D01*
X76976Y-50238D01*
X76943Y-50189D01*
X76902Y-50147D01*
X76853Y-50114D01*
X76799Y-50092D01*
X76741Y-50080D01*
X76682Y-50079D01*
X76624Y-50090D01*
X76570Y-50112D01*
X76521Y-50145D01*
X76479Y-50186D01*
X76445Y-50234D01*
X76422Y-50288D01*
X76410Y-50346D01*
X76409Y-50405D01*
X76420Y-50463D01*
X76441Y-50517D01*
X76473Y-50567D01*
X76510Y-50604D01*
X76510Y-51157D01*
X76480Y-51187D01*
X76480Y-50860D01*
X76468Y-50802D01*
X76446Y-50748D01*
X76413Y-50699D01*
X76372Y-50657D01*
X76323Y-50624D01*
X76269Y-50602D01*
X76211Y-50590D01*
X76152Y-50589D01*
X76094Y-50600D01*
X76040Y-50622D01*
X75991Y-50655D01*
X75949Y-50696D01*
X75915Y-50744D01*
X75892Y-50798D01*
X75880Y-50856D01*
X75879Y-50915D01*
X75890Y-50973D01*
X75911Y-51027D01*
X75915Y-51033D01*
X75420Y-51529D01*
X75420Y-51080D01*
X75408Y-51022D01*
X75386Y-50968D01*
X75353Y-50919D01*
X75312Y-50877D01*
X75263Y-50844D01*
X75209Y-50822D01*
X75151Y-50810D01*
X75092Y-50809D01*
X75034Y-50820D01*
X74980Y-50842D01*
X74931Y-50875D01*
X74895Y-50910D01*
X74070Y-50910D01*
X74051Y-50911D01*
X74033Y-50913D01*
X74032Y-50913D01*
X74031Y-50913D01*
X74013Y-50919D01*
X73995Y-50924D01*
X73994Y-50924D01*
X73993Y-50925D01*
X73977Y-50933D01*
X73961Y-50942D01*
X73960Y-50942D01*
X73959Y-50943D01*
X73944Y-50955D01*
X73930Y-50966D01*
X73929Y-50968D01*
X73929Y-50968D01*
X73929Y-50968D01*
X73928Y-50968D01*
X72066Y-52830D01*
X72060Y-52832D01*
X72011Y-52865D01*
X71969Y-52906D01*
X71935Y-52954D01*
X71912Y-53008D01*
X71900Y-53066D01*
X71899Y-53125D01*
X71910Y-53183D01*
X71931Y-53237D01*
X71963Y-53287D01*
X72004Y-53329D01*
X72052Y-53363D01*
X72106Y-53386D01*
X72164Y-53399D01*
X72223Y-53400D01*
X72281Y-53390D01*
X72335Y-53369D01*
X72385Y-53337D01*
X72428Y-53296D01*
X72462Y-53248D01*
X72486Y-53195D01*
X72499Y-53137D01*
X72500Y-53070D01*
X72488Y-53012D01*
X72477Y-52985D01*
X74152Y-51310D01*
X74896Y-51310D01*
X74924Y-51339D01*
X74972Y-51373D01*
X75026Y-51396D01*
X75084Y-51409D01*
X75143Y-51410D01*
X75201Y-51400D01*
X75255Y-51379D01*
X75305Y-51347D01*
X75348Y-51306D01*
X75382Y-51258D01*
X75406Y-51205D01*
X75419Y-51147D01*
X75420Y-51080D01*
X75420Y-51529D01*
X73636Y-53313D01*
X73591Y-53312D01*
X73533Y-53323D01*
X73479Y-53345D01*
X73430Y-53378D01*
X73388Y-53419D01*
X73354Y-53467D01*
X73331Y-53521D01*
X73319Y-53579D01*
X73318Y-53638D01*
X73329Y-53696D01*
X73350Y-53750D01*
X73382Y-53800D01*
X73423Y-53842D01*
X73471Y-53876D01*
X73525Y-53899D01*
X73583Y-53912D01*
X73642Y-53913D01*
X73700Y-53903D01*
X73754Y-53882D01*
X73804Y-53850D01*
X73847Y-53809D01*
X73881Y-53761D01*
X73905Y-53708D01*
X73918Y-53650D01*
X73918Y-53596D01*
X76321Y-51193D01*
X76333Y-51179D01*
X76345Y-51164D01*
X76345Y-51164D01*
X76346Y-51163D01*
X76354Y-51146D01*
X76363Y-51130D01*
X76364Y-51129D01*
X76364Y-51128D01*
X76364Y-51127D01*
X76365Y-51127D01*
X76408Y-51086D01*
X76442Y-51038D01*
X76466Y-50985D01*
X76479Y-50927D01*
X76480Y-50860D01*
X76480Y-51187D01*
X74538Y-53128D01*
X74526Y-53142D01*
X74514Y-53157D01*
X74514Y-53157D01*
X74513Y-53158D01*
X74505Y-53175D01*
X74496Y-53191D01*
X74495Y-53192D01*
X74495Y-53193D01*
X74489Y-53210D01*
X74484Y-53228D01*
X74484Y-53229D01*
X74483Y-53230D01*
X74482Y-53248D01*
X74480Y-53267D01*
X74480Y-53269D01*
X74480Y-53269D01*
X74480Y-53269D01*
X74480Y-53270D01*
X74480Y-54085D01*
X74459Y-54106D01*
X74425Y-54154D01*
X74402Y-54208D01*
X74390Y-54266D01*
X74389Y-54325D01*
X74400Y-54383D01*
X74421Y-54437D01*
X74453Y-54487D01*
X74494Y-54529D01*
X74542Y-54563D01*
X74596Y-54586D01*
X74611Y-54590D01*
X74028Y-54590D01*
X73619Y-54180D01*
X73572Y-54142D01*
X73519Y-54113D01*
X73461Y-54096D01*
X73401Y-54090D01*
X73340Y-54095D01*
X73282Y-54112D01*
X73229Y-54141D01*
X73182Y-54179D01*
X73165Y-54200D01*
X73024Y-54200D01*
X72992Y-54167D01*
X72943Y-54134D01*
X72889Y-54112D01*
X72831Y-54100D01*
X72772Y-54099D01*
X72714Y-54110D01*
X72660Y-54132D01*
X72611Y-54165D01*
X72569Y-54206D01*
X72535Y-54254D01*
X72512Y-54308D01*
X72500Y-54366D01*
X72499Y-54425D01*
X72510Y-54483D01*
X72531Y-54537D01*
X72563Y-54587D01*
X72604Y-54629D01*
X72652Y-54663D01*
X72706Y-54686D01*
X72764Y-54699D01*
X72823Y-54700D01*
X72881Y-54690D01*
X72935Y-54669D01*
X72985Y-54637D01*
X73025Y-54600D01*
X73164Y-54600D01*
X73177Y-54616D01*
X73180Y-54619D01*
X73680Y-55119D01*
X73702Y-55137D01*
X73724Y-55155D01*
X73726Y-55156D01*
X73727Y-55157D01*
X73752Y-55171D01*
X73777Y-55184D01*
X73779Y-55185D01*
X73780Y-55186D01*
X73808Y-55194D01*
X73835Y-55203D01*
X73837Y-55203D01*
X73838Y-55203D01*
X73867Y-55206D01*
X73895Y-55209D01*
X73898Y-55209D01*
X73898Y-55209D01*
X73898Y-55209D01*
X73900Y-55210D01*
X74800Y-55210D01*
X74828Y-55207D01*
X74857Y-55204D01*
X74858Y-55204D01*
X74860Y-55204D01*
X74887Y-55195D01*
X74915Y-55187D01*
X74916Y-55187D01*
X74918Y-55186D01*
X74943Y-55173D01*
X74968Y-55159D01*
X74970Y-55158D01*
X74971Y-55158D01*
X74993Y-55140D01*
X75016Y-55122D01*
X75018Y-55120D01*
X75018Y-55119D01*
X75018Y-55119D01*
X75019Y-55119D01*
X78108Y-52030D01*
X78187Y-52030D01*
X74958Y-55258D01*
X74946Y-55272D01*
X74934Y-55287D01*
X74934Y-55287D01*
X74933Y-55288D01*
X74925Y-55305D01*
X74916Y-55321D01*
X74915Y-55322D01*
X74915Y-55323D01*
X74909Y-55340D01*
X74904Y-55358D01*
X74904Y-55359D01*
X74903Y-55360D01*
X74902Y-55378D01*
X74900Y-55397D01*
X74900Y-55399D01*
X74900Y-55399D01*
X74900Y-55399D01*
X74900Y-55400D01*
X74900Y-55775D01*
X74869Y-55806D01*
X74835Y-55854D01*
X74812Y-55908D01*
X74800Y-55966D01*
X74799Y-56025D01*
X74810Y-56083D01*
X74831Y-56137D01*
X74863Y-56187D01*
X74904Y-56229D01*
X74952Y-56263D01*
X74953Y-56263D01*
X74817Y-56400D01*
X74772Y-56399D01*
X74714Y-56410D01*
X74660Y-56432D01*
X74611Y-56465D01*
X74569Y-56506D01*
X74535Y-56554D01*
X74512Y-56608D01*
X74500Y-56666D01*
X74499Y-56725D01*
X74510Y-56783D01*
X74531Y-56837D01*
X74563Y-56887D01*
X74604Y-56929D01*
X74652Y-56963D01*
X74706Y-56986D01*
X74764Y-56999D01*
X74823Y-57000D01*
X74881Y-56990D01*
X74935Y-56969D01*
X74985Y-56937D01*
X75028Y-56896D01*
X75062Y-56848D01*
X75086Y-56795D01*
X75099Y-56737D01*
X75099Y-56683D01*
X75182Y-56600D01*
X75400Y-56600D01*
X75418Y-56598D01*
X75436Y-56596D01*
X75437Y-56596D01*
X75438Y-56596D01*
X75456Y-56590D01*
X75474Y-56585D01*
X75475Y-56585D01*
X75476Y-56584D01*
X75492Y-56576D01*
X75508Y-56567D01*
X75509Y-56567D01*
X75510Y-56566D01*
X75525Y-56554D01*
X75539Y-56543D01*
X75540Y-56541D01*
X75540Y-56541D01*
X75540Y-56541D01*
X75541Y-56541D01*
X78641Y-53441D01*
X78653Y-53427D01*
X78665Y-53412D01*
X78665Y-53412D01*
X78666Y-53411D01*
X78674Y-53394D01*
X78683Y-53378D01*
X78684Y-53377D01*
X78684Y-53376D01*
X78690Y-53359D01*
X78695Y-53341D01*
X78695Y-53340D01*
X78696Y-53339D01*
X78697Y-53321D01*
X78699Y-53302D01*
X78699Y-53300D01*
X78699Y-53300D01*
X78699Y-53300D01*
X78700Y-53300D01*
X78700Y-52723D01*
X78728Y-52696D01*
X78762Y-52648D01*
X78786Y-52595D01*
X78799Y-52537D01*
X78799Y-52483D01*
X78806Y-52486D01*
X78864Y-52499D01*
X78923Y-52500D01*
X78981Y-52490D01*
X79035Y-52469D01*
X79085Y-52437D01*
X79128Y-52396D01*
X79162Y-52348D01*
X79186Y-52295D01*
X79199Y-52237D01*
X79200Y-52170D01*
X79189Y-52118D01*
X80315Y-53243D01*
X80315Y-56070D01*
X80315Y-56071D01*
X80314Y-56112D01*
X80326Y-56175D01*
X80349Y-56234D01*
X80384Y-56287D01*
X80428Y-56333D01*
X80480Y-56370D01*
X80539Y-56395D01*
X80601Y-56409D01*
X80665Y-56410D01*
X80727Y-56399D01*
X80787Y-56376D01*
X80841Y-56342D01*
X80887Y-56298D01*
X80923Y-56246D01*
X80949Y-56188D01*
X80963Y-56125D01*
X80965Y-56053D01*
X80965Y-57557D01*
X80452Y-57834D01*
X79608Y-58096D01*
X79608Y-57147D01*
X79590Y-57054D01*
X79554Y-56966D01*
X79501Y-56887D01*
X79434Y-56820D01*
X79355Y-56766D01*
X79268Y-56730D01*
X79175Y-56711D01*
X79080Y-56710D01*
X79057Y-56714D01*
X79057Y-56323D01*
X79047Y-56273D01*
X79028Y-56227D01*
X79000Y-56184D01*
X78964Y-56148D01*
X78922Y-56120D01*
X78875Y-56100D01*
X78826Y-56090D01*
X78775Y-56090D01*
X78725Y-56099D01*
X78678Y-56118D01*
X78636Y-56146D01*
X78600Y-56182D01*
X78571Y-56223D01*
X78551Y-56270D01*
X78541Y-56319D01*
X78540Y-56370D01*
X78549Y-56420D01*
X78568Y-56467D01*
X78595Y-56510D01*
X78630Y-56546D01*
X78672Y-56575D01*
X78718Y-56595D01*
X78768Y-56606D01*
X78818Y-56607D01*
X78868Y-56598D01*
X78916Y-56580D01*
X78958Y-56553D01*
X78995Y-56518D01*
X79024Y-56477D01*
X79045Y-56430D01*
X79056Y-56381D01*
X79057Y-56323D01*
X79057Y-56714D01*
X78986Y-56728D01*
X78898Y-56763D01*
X78819Y-56815D01*
X78751Y-56882D01*
X78697Y-56960D01*
X78660Y-57048D01*
X78640Y-57141D01*
X78638Y-57236D01*
X78656Y-57329D01*
X78691Y-57417D01*
X78742Y-57497D01*
X78808Y-57566D01*
X78886Y-57620D01*
X78973Y-57658D01*
X79066Y-57678D01*
X79161Y-57680D01*
X79255Y-57664D01*
X79343Y-57630D01*
X79424Y-57579D01*
X79492Y-57513D01*
X79547Y-57435D01*
X79586Y-57349D01*
X79607Y-57256D01*
X79608Y-57147D01*
X79608Y-58096D01*
X79272Y-58200D01*
X78044Y-58329D01*
X77482Y-58278D01*
X77482Y-56323D01*
X77473Y-56273D01*
X77453Y-56227D01*
X77425Y-56184D01*
X77390Y-56148D01*
X77348Y-56120D01*
X77301Y-56100D01*
X77251Y-56090D01*
X77201Y-56090D01*
X77151Y-56099D01*
X77104Y-56118D01*
X77061Y-56146D01*
X77025Y-56182D01*
X76997Y-56223D01*
X76977Y-56270D01*
X76966Y-56319D01*
X76965Y-56370D01*
X76975Y-56420D01*
X76993Y-56467D01*
X77021Y-56510D01*
X77056Y-56546D01*
X77097Y-56575D01*
X77144Y-56595D01*
X77193Y-56606D01*
X77244Y-56607D01*
X77294Y-56598D01*
X77341Y-56580D01*
X77384Y-56553D01*
X77421Y-56518D01*
X77450Y-56477D01*
X77470Y-56430D01*
X77482Y-56381D01*
X77482Y-56323D01*
X77482Y-58278D01*
X77384Y-58269D01*
X77384Y-57147D01*
X77366Y-57054D01*
X77329Y-56966D01*
X77277Y-56887D01*
X77210Y-56820D01*
X77131Y-56766D01*
X77043Y-56730D01*
X76950Y-56711D01*
X76855Y-56710D01*
X76762Y-56728D01*
X76674Y-56763D01*
X76594Y-56815D01*
X76526Y-56882D01*
X76473Y-56960D01*
X76435Y-57048D01*
X76415Y-57141D01*
X76414Y-57236D01*
X76431Y-57329D01*
X76466Y-57417D01*
X76518Y-57497D01*
X76584Y-57566D01*
X76662Y-57620D01*
X76749Y-57658D01*
X76842Y-57678D01*
X76937Y-57680D01*
X77030Y-57664D01*
X77119Y-57630D01*
X77199Y-57579D01*
X77268Y-57513D01*
X77323Y-57435D01*
X77361Y-57349D01*
X77382Y-57256D01*
X77384Y-57147D01*
X77384Y-58269D01*
X76813Y-58217D01*
X75628Y-57868D01*
X74534Y-57296D01*
X73571Y-56522D01*
X72777Y-55575D01*
X72182Y-54493D01*
X71808Y-53315D01*
X71671Y-52088D01*
X71774Y-50857D01*
X72114Y-49669D01*
X72679Y-48571D01*
X73446Y-47603D01*
X74387Y-46802D01*
X75465Y-46199D01*
X76640Y-45818D01*
X77120Y-45761D01*
X77120Y-47359D01*
X82302Y-47367D01*
X82364Y-47416D01*
X83172Y-48351D01*
X83782Y-49425D01*
X84172Y-50597D01*
X84327Y-51830D01*
X84330Y-51992D01*
X84330Y-51992D01*
G37*
G54D16*
X84330Y-51992D02*
X84208Y-53229D01*
X83851Y-54411D01*
X83271Y-55502D01*
X82491Y-56459D01*
X81615Y-57184D01*
X81615Y-49605D01*
X81603Y-49547D01*
X81581Y-49493D01*
X81548Y-49444D01*
X81507Y-49402D01*
X81458Y-49369D01*
X81404Y-49347D01*
X81346Y-49335D01*
X81287Y-49334D01*
X81229Y-49345D01*
X81175Y-49367D01*
X81126Y-49400D01*
X81084Y-49441D01*
X81050Y-49489D01*
X81027Y-49543D01*
X81015Y-49601D01*
X81014Y-49652D01*
X80527Y-50140D01*
X79377Y-50140D01*
X79405Y-50129D01*
X79455Y-50097D01*
X79498Y-50056D01*
X79532Y-50008D01*
X79556Y-49955D01*
X79569Y-49897D01*
X79570Y-49830D01*
X79558Y-49772D01*
X79536Y-49718D01*
X79503Y-49669D01*
X79462Y-49627D01*
X79413Y-49594D01*
X79359Y-49572D01*
X79301Y-49560D01*
X79242Y-49559D01*
X79184Y-49570D01*
X79130Y-49592D01*
X79081Y-49625D01*
X79039Y-49666D01*
X79015Y-49700D01*
X77002Y-49700D01*
X75419Y-48116D01*
X75420Y-48070D01*
X75408Y-48012D01*
X75386Y-47958D01*
X75353Y-47909D01*
X75312Y-47867D01*
X75263Y-47834D01*
X75209Y-47812D01*
X75151Y-47800D01*
X75092Y-47799D01*
X75034Y-47810D01*
X74980Y-47832D01*
X74931Y-47865D01*
X74889Y-47906D01*
X74855Y-47954D01*
X74832Y-48008D01*
X74820Y-48066D01*
X74819Y-48125D01*
X74830Y-48183D01*
X74851Y-48237D01*
X74883Y-48287D01*
X74924Y-48329D01*
X74972Y-48363D01*
X75026Y-48386D01*
X75084Y-48399D01*
X75137Y-48400D01*
X76778Y-50041D01*
X76792Y-50053D01*
X76807Y-50065D01*
X76807Y-50065D01*
X76808Y-50066D01*
X76825Y-50074D01*
X76841Y-50083D01*
X76842Y-50084D01*
X76843Y-50084D01*
X76860Y-50090D01*
X76878Y-50095D01*
X76879Y-50095D01*
X76880Y-50096D01*
X76898Y-50097D01*
X76917Y-50099D01*
X76919Y-50099D01*
X76919Y-50099D01*
X76919Y-50099D01*
X76920Y-50100D01*
X79089Y-50100D01*
X79122Y-50123D01*
X79161Y-50140D01*
X78117Y-50140D01*
X78098Y-50141D01*
X78080Y-50143D01*
X78079Y-50143D01*
X78078Y-50143D01*
X78060Y-50149D01*
X78042Y-50154D01*
X78041Y-50154D01*
X78040Y-50155D01*
X78024Y-50163D01*
X78008Y-50172D01*
X78007Y-50172D01*
X78006Y-50173D01*
X77991Y-50185D01*
X77977Y-50196D01*
X77976Y-50198D01*
X77976Y-50198D01*
X77976Y-50198D01*
X77975Y-50198D01*
X77437Y-50737D01*
X77392Y-50736D01*
X77334Y-50747D01*
X77280Y-50769D01*
X77231Y-50802D01*
X77189Y-50843D01*
X77155Y-50891D01*
X77132Y-50945D01*
X77120Y-51003D01*
X77119Y-51062D01*
X77130Y-51120D01*
X77151Y-51174D01*
X77183Y-51224D01*
X77224Y-51266D01*
X77272Y-51300D01*
X77326Y-51323D01*
X77384Y-51336D01*
X77443Y-51337D01*
X77501Y-51327D01*
X77555Y-51306D01*
X77605Y-51274D01*
X77648Y-51233D01*
X77682Y-51185D01*
X77706Y-51132D01*
X77719Y-51074D01*
X77719Y-51020D01*
X78199Y-50540D01*
X80610Y-50540D01*
X80628Y-50538D01*
X80646Y-50536D01*
X80647Y-50536D01*
X80648Y-50536D01*
X80666Y-50530D01*
X80684Y-50525D01*
X80685Y-50525D01*
X80686Y-50524D01*
X80702Y-50516D01*
X80718Y-50507D01*
X80719Y-50507D01*
X80720Y-50506D01*
X80735Y-50494D01*
X80749Y-50483D01*
X80750Y-50481D01*
X80750Y-50481D01*
X80750Y-50481D01*
X80751Y-50481D01*
X81298Y-49934D01*
X81338Y-49935D01*
X81396Y-49925D01*
X81450Y-49904D01*
X81500Y-49872D01*
X81543Y-49831D01*
X81577Y-49783D01*
X81601Y-49730D01*
X81614Y-49672D01*
X81615Y-49605D01*
X81615Y-57184D01*
X81539Y-57247D01*
X80965Y-57557D01*
X80965Y-56053D01*
X80952Y-55990D01*
X80935Y-55947D01*
X80935Y-53115D01*
X80932Y-53086D01*
X80929Y-53057D01*
X80929Y-53056D01*
X80929Y-53054D01*
X80920Y-53027D01*
X80912Y-52999D01*
X80912Y-52998D01*
X80911Y-52996D01*
X80898Y-52971D01*
X80884Y-52946D01*
X80883Y-52944D01*
X80883Y-52943D01*
X80865Y-52921D01*
X80847Y-52898D01*
X80845Y-52896D01*
X80844Y-52896D01*
X80844Y-52896D01*
X80844Y-52895D01*
X79449Y-51500D01*
X79427Y-51482D01*
X79405Y-51464D01*
X79403Y-51463D01*
X79402Y-51462D01*
X79377Y-51448D01*
X79352Y-51435D01*
X79350Y-51434D01*
X79349Y-51433D01*
X79321Y-51425D01*
X79294Y-51416D01*
X79292Y-51416D01*
X79291Y-51416D01*
X79262Y-51413D01*
X79234Y-51410D01*
X79231Y-51410D01*
X79231Y-51410D01*
X79231Y-51410D01*
X79230Y-51410D01*
X77980Y-51410D01*
X77951Y-51412D01*
X77922Y-51415D01*
X77921Y-51415D01*
X77919Y-51415D01*
X77892Y-51424D01*
X77864Y-51432D01*
X77863Y-51432D01*
X77861Y-51433D01*
X77836Y-51446D01*
X77811Y-51460D01*
X77809Y-51461D01*
X77808Y-51461D01*
X77786Y-51479D01*
X77763Y-51497D01*
X77761Y-51499D01*
X77761Y-51500D01*
X77761Y-51500D01*
X77760Y-51500D01*
X74989Y-54271D01*
X74990Y-54270D01*
X74978Y-54212D01*
X74956Y-54158D01*
X74923Y-54109D01*
X74882Y-54067D01*
X74880Y-54066D01*
X74880Y-53352D01*
X76851Y-51381D01*
X76863Y-51367D01*
X76875Y-51352D01*
X76875Y-51352D01*
X76876Y-51351D01*
X76884Y-51335D01*
X76893Y-51318D01*
X76894Y-51317D01*
X76894Y-51316D01*
X76900Y-51299D01*
X76905Y-51281D01*
X76905Y-51280D01*
X76906Y-51279D01*
X76907Y-51261D01*
X76909Y-51242D01*
X76909Y-51240D01*
X76909Y-51240D01*
X76909Y-51240D01*
X76910Y-51240D01*
X76910Y-50603D01*
X76938Y-50576D01*
X76972Y-50528D01*
X76996Y-50475D01*
X77009Y-50417D01*
X77010Y-50350D01*
X76998Y-50292D01*
X76976Y-50238D01*
X76943Y-50189D01*
X76902Y-50147D01*
X76853Y-50114D01*
X76799Y-50092D01*
X76741Y-50080D01*
X76682Y-50079D01*
X76624Y-50090D01*
X76570Y-50112D01*
X76521Y-50145D01*
X76479Y-50186D01*
X76445Y-50234D01*
X76422Y-50288D01*
X76410Y-50346D01*
X76409Y-50405D01*
X76420Y-50463D01*
X76441Y-50517D01*
X76473Y-50567D01*
X76510Y-50604D01*
X76510Y-51157D01*
X76480Y-51187D01*
X76480Y-50860D01*
X76468Y-50802D01*
X76446Y-50748D01*
X76413Y-50699D01*
X76372Y-50657D01*
X76323Y-50624D01*
X76269Y-50602D01*
X76211Y-50590D01*
X76152Y-50589D01*
X76094Y-50600D01*
X76040Y-50622D01*
X75991Y-50655D01*
X75949Y-50696D01*
X75915Y-50744D01*
X75892Y-50798D01*
X75880Y-50856D01*
X75879Y-50915D01*
X75890Y-50973D01*
X75911Y-51027D01*
X75915Y-51033D01*
X75420Y-51529D01*
X75420Y-51080D01*
X75408Y-51022D01*
X75386Y-50968D01*
X75353Y-50919D01*
X75312Y-50877D01*
X75263Y-50844D01*
X75209Y-50822D01*
X75151Y-50810D01*
X75092Y-50809D01*
X75034Y-50820D01*
X74980Y-50842D01*
X74931Y-50875D01*
X74895Y-50910D01*
X74070Y-50910D01*
X74051Y-50911D01*
X74033Y-50913D01*
X74032Y-50913D01*
X74031Y-50913D01*
X74013Y-50919D01*
X73995Y-50924D01*
X73994Y-50924D01*
X73993Y-50925D01*
X73977Y-50933D01*
X73961Y-50942D01*
X73960Y-50942D01*
X73959Y-50943D01*
X73944Y-50955D01*
X73930Y-50966D01*
X73929Y-50968D01*
X73929Y-50968D01*
X73929Y-50968D01*
X73928Y-50968D01*
X72066Y-52830D01*
X72060Y-52832D01*
X72011Y-52865D01*
X71969Y-52906D01*
X71935Y-52954D01*
X71912Y-53008D01*
X71900Y-53066D01*
X71899Y-53125D01*
X71910Y-53183D01*
X71931Y-53237D01*
X71963Y-53287D01*
X72004Y-53329D01*
X72052Y-53363D01*
X72106Y-53386D01*
X72164Y-53399D01*
X72223Y-53400D01*
X72281Y-53390D01*
X72335Y-53369D01*
X72385Y-53337D01*
X72428Y-53296D01*
X72462Y-53248D01*
X72486Y-53195D01*
X72499Y-53137D01*
X72500Y-53070D01*
X72488Y-53012D01*
X72477Y-52985D01*
X74152Y-51310D01*
X74896Y-51310D01*
X74924Y-51339D01*
X74972Y-51373D01*
X75026Y-51396D01*
X75084Y-51409D01*
X75143Y-51410D01*
X75201Y-51400D01*
X75255Y-51379D01*
X75305Y-51347D01*
X75348Y-51306D01*
X75382Y-51258D01*
X75406Y-51205D01*
X75419Y-51147D01*
X75420Y-51080D01*
X75420Y-51529D01*
X73636Y-53313D01*
X73591Y-53312D01*
X73533Y-53323D01*
X73479Y-53345D01*
X73430Y-53378D01*
X73388Y-53419D01*
X73354Y-53467D01*
X73331Y-53521D01*
X73319Y-53579D01*
X73318Y-53638D01*
X73329Y-53696D01*
X73350Y-53750D01*
X73382Y-53800D01*
X73423Y-53842D01*
X73471Y-53876D01*
X73525Y-53899D01*
X73583Y-53912D01*
X73642Y-53913D01*
X73700Y-53903D01*
X73754Y-53882D01*
X73804Y-53850D01*
X73847Y-53809D01*
X73881Y-53761D01*
X73905Y-53708D01*
X73918Y-53650D01*
X73918Y-53596D01*
X76321Y-51193D01*
X76333Y-51179D01*
X76345Y-51164D01*
X76345Y-51164D01*
X76346Y-51163D01*
X76354Y-51146D01*
X76363Y-51130D01*
X76364Y-51129D01*
X76364Y-51128D01*
X76364Y-51127D01*
X76365Y-51127D01*
X76408Y-51086D01*
X76442Y-51038D01*
X76466Y-50985D01*
X76479Y-50927D01*
X76480Y-50860D01*
X76480Y-51187D01*
X74538Y-53128D01*
X74526Y-53142D01*
X74514Y-53157D01*
X74514Y-53157D01*
X74513Y-53158D01*
X74505Y-53175D01*
X74496Y-53191D01*
X74495Y-53192D01*
X74495Y-53193D01*
X74489Y-53210D01*
X74484Y-53228D01*
X74484Y-53229D01*
X74483Y-53230D01*
X74482Y-53248D01*
X74480Y-53267D01*
X74480Y-53269D01*
X74480Y-53269D01*
X74480Y-53269D01*
X74480Y-53270D01*
X74480Y-54085D01*
X74459Y-54106D01*
X74425Y-54154D01*
X74402Y-54208D01*
X74390Y-54266D01*
X74389Y-54325D01*
X74400Y-54383D01*
X74421Y-54437D01*
X74453Y-54487D01*
X74494Y-54529D01*
X74542Y-54563D01*
X74596Y-54586D01*
X74611Y-54590D01*
X74028Y-54590D01*
X73619Y-54180D01*
X73572Y-54142D01*
X73519Y-54113D01*
X73461Y-54096D01*
X73401Y-54090D01*
X73340Y-54095D01*
X73282Y-54112D01*
X73229Y-54141D01*
X73182Y-54179D01*
X73165Y-54200D01*
X73024Y-54200D01*
X72992Y-54167D01*
X72943Y-54134D01*
X72889Y-54112D01*
X72831Y-54100D01*
X72772Y-54099D01*
X72714Y-54110D01*
X72660Y-54132D01*
X72611Y-54165D01*
X72569Y-54206D01*
X72535Y-54254D01*
X72512Y-54308D01*
X72500Y-54366D01*
X72499Y-54425D01*
X72510Y-54483D01*
X72531Y-54537D01*
X72563Y-54587D01*
X72604Y-54629D01*
X72652Y-54663D01*
X72706Y-54686D01*
X72764Y-54699D01*
X72823Y-54700D01*
X72881Y-54690D01*
X72935Y-54669D01*
X72985Y-54637D01*
X73025Y-54600D01*
X73164Y-54600D01*
X73177Y-54616D01*
X73180Y-54619D01*
X73680Y-55119D01*
X73702Y-55137D01*
X73724Y-55155D01*
X73726Y-55156D01*
X73727Y-55157D01*
X73752Y-55171D01*
X73777Y-55184D01*
X73779Y-55185D01*
X73780Y-55186D01*
X73808Y-55194D01*
X73835Y-55203D01*
X73837Y-55203D01*
X73838Y-55203D01*
X73867Y-55206D01*
X73895Y-55209D01*
X73898Y-55209D01*
X73898Y-55209D01*
X73898Y-55209D01*
X73900Y-55210D01*
X74800Y-55210D01*
X74828Y-55207D01*
X74857Y-55204D01*
X74858Y-55204D01*
X74860Y-55204D01*
X74887Y-55195D01*
X74915Y-55187D01*
X74916Y-55187D01*
X74918Y-55186D01*
X74943Y-55173D01*
X74968Y-55159D01*
X74970Y-55158D01*
X74971Y-55158D01*
X74993Y-55140D01*
X75016Y-55122D01*
X75018Y-55120D01*
X75018Y-55119D01*
X75018Y-55119D01*
X75019Y-55119D01*
X78108Y-52030D01*
X78187Y-52030D01*
X74958Y-55258D01*
X74946Y-55272D01*
X74934Y-55287D01*
X74934Y-55287D01*
X74933Y-55288D01*
X74925Y-55305D01*
X74916Y-55321D01*
X74915Y-55322D01*
X74915Y-55323D01*
X74909Y-55340D01*
X74904Y-55358D01*
X74904Y-55359D01*
X74903Y-55360D01*
X74902Y-55378D01*
X74900Y-55397D01*
X74900Y-55399D01*
X74900Y-55399D01*
X74900Y-55399D01*
X74900Y-55400D01*
X74900Y-55775D01*
X74869Y-55806D01*
X74835Y-55854D01*
X74812Y-55908D01*
X74800Y-55966D01*
X74799Y-56025D01*
X74810Y-56083D01*
X74831Y-56137D01*
X74863Y-56187D01*
X74904Y-56229D01*
X74952Y-56263D01*
X74953Y-56263D01*
X74817Y-56400D01*
X74772Y-56399D01*
X74714Y-56410D01*
X74660Y-56432D01*
X74611Y-56465D01*
X74569Y-56506D01*
X74535Y-56554D01*
X74512Y-56608D01*
X74500Y-56666D01*
X74499Y-56725D01*
X74510Y-56783D01*
X74531Y-56837D01*
X74563Y-56887D01*
X74604Y-56929D01*
X74652Y-56963D01*
X74706Y-56986D01*
X74764Y-56999D01*
X74823Y-57000D01*
X74881Y-56990D01*
X74935Y-56969D01*
X74985Y-56937D01*
X75028Y-56896D01*
X75062Y-56848D01*
X75086Y-56795D01*
X75099Y-56737D01*
X75099Y-56683D01*
X75182Y-56600D01*
X75400Y-56600D01*
X75418Y-56598D01*
X75436Y-56596D01*
X75437Y-56596D01*
X75438Y-56596D01*
X75456Y-56590D01*
X75474Y-56585D01*
X75475Y-56585D01*
X75476Y-56584D01*
X75492Y-56576D01*
X75508Y-56567D01*
X75509Y-56567D01*
X75510Y-56566D01*
X75525Y-56554D01*
X75539Y-56543D01*
X75540Y-56541D01*
X75540Y-56541D01*
X75540Y-56541D01*
X75541Y-56541D01*
X78641Y-53441D01*
X78653Y-53427D01*
X78665Y-53412D01*
X78665Y-53412D01*
X78666Y-53411D01*
X78674Y-53394D01*
X78683Y-53378D01*
X78684Y-53377D01*
X78684Y-53376D01*
X78690Y-53359D01*
X78695Y-53341D01*
X78695Y-53340D01*
X78696Y-53339D01*
X78697Y-53321D01*
X78699Y-53302D01*
X78699Y-53300D01*
X78699Y-53300D01*
X78699Y-53300D01*
X78700Y-53300D01*
X78700Y-52723D01*
X78728Y-52696D01*
X78762Y-52648D01*
X78786Y-52595D01*
X78799Y-52537D01*
X78799Y-52483D01*
X78806Y-52486D01*
X78864Y-52499D01*
X78923Y-52500D01*
X78981Y-52490D01*
X79035Y-52469D01*
X79085Y-52437D01*
X79128Y-52396D01*
X79162Y-52348D01*
X79186Y-52295D01*
X79199Y-52237D01*
X79200Y-52170D01*
X79189Y-52118D01*
X80315Y-53243D01*
X80315Y-56070D01*
X80315Y-56071D01*
X80314Y-56112D01*
X80326Y-56175D01*
X80349Y-56234D01*
X80384Y-56287D01*
X80428Y-56333D01*
X80480Y-56370D01*
X80539Y-56395D01*
X80601Y-56409D01*
X80665Y-56410D01*
X80727Y-56399D01*
X80787Y-56376D01*
X80841Y-56342D01*
X80887Y-56298D01*
X80923Y-56246D01*
X80949Y-56188D01*
X80963Y-56125D01*
X80965Y-56053D01*
X80965Y-57557D01*
X80452Y-57834D01*
X79608Y-58096D01*
X79608Y-57147D01*
X79590Y-57054D01*
X79554Y-56966D01*
X79501Y-56887D01*
X79434Y-56820D01*
X79355Y-56766D01*
X79268Y-56730D01*
X79175Y-56711D01*
X79080Y-56710D01*
X79057Y-56714D01*
X79057Y-56323D01*
X79047Y-56273D01*
X79028Y-56227D01*
X79000Y-56184D01*
X78964Y-56148D01*
X78922Y-56120D01*
X78875Y-56100D01*
X78826Y-56090D01*
X78775Y-56090D01*
X78725Y-56099D01*
X78678Y-56118D01*
X78636Y-56146D01*
X78600Y-56182D01*
X78571Y-56223D01*
X78551Y-56270D01*
X78541Y-56319D01*
X78540Y-56370D01*
X78549Y-56420D01*
X78568Y-56467D01*
X78595Y-56510D01*
X78630Y-56546D01*
X78672Y-56575D01*
X78718Y-56595D01*
X78768Y-56606D01*
X78818Y-56607D01*
X78868Y-56598D01*
X78916Y-56580D01*
X78958Y-56553D01*
X78995Y-56518D01*
X79024Y-56477D01*
X79045Y-56430D01*
X79056Y-56381D01*
X79057Y-56323D01*
X79057Y-56714D01*
X78986Y-56728D01*
X78898Y-56763D01*
X78819Y-56815D01*
X78751Y-56882D01*
X78697Y-56960D01*
X78660Y-57048D01*
X78640Y-57141D01*
X78638Y-57236D01*
X78656Y-57329D01*
X78691Y-57417D01*
X78742Y-57497D01*
X78808Y-57566D01*
X78886Y-57620D01*
X78973Y-57658D01*
X79066Y-57678D01*
X79161Y-57680D01*
X79255Y-57664D01*
X79343Y-57630D01*
X79424Y-57579D01*
X79492Y-57513D01*
X79547Y-57435D01*
X79586Y-57349D01*
X79607Y-57256D01*
X79608Y-57147D01*
X79608Y-58096D01*
X79272Y-58200D01*
X78044Y-58329D01*
X77482Y-58278D01*
X77482Y-56323D01*
X77473Y-56273D01*
X77453Y-56227D01*
X77425Y-56184D01*
X77390Y-56148D01*
X77348Y-56120D01*
X77301Y-56100D01*
X77251Y-56090D01*
X77201Y-56090D01*
X77151Y-56099D01*
X77104Y-56118D01*
X77061Y-56146D01*
X77025Y-56182D01*
X76997Y-56223D01*
X76977Y-56270D01*
X76966Y-56319D01*
X76965Y-56370D01*
X76975Y-56420D01*
X76993Y-56467D01*
X77021Y-56510D01*
X77056Y-56546D01*
X77097Y-56575D01*
X77144Y-56595D01*
X77193Y-56606D01*
X77244Y-56607D01*
X77294Y-56598D01*
X77341Y-56580D01*
X77384Y-56553D01*
X77421Y-56518D01*
X77450Y-56477D01*
X77470Y-56430D01*
X77482Y-56381D01*
X77482Y-56323D01*
X77482Y-58278D01*
X77384Y-58269D01*
X77384Y-57147D01*
X77366Y-57054D01*
X77329Y-56966D01*
X77277Y-56887D01*
X77210Y-56820D01*
X77131Y-56766D01*
X77043Y-56730D01*
X76950Y-56711D01*
X76855Y-56710D01*
X76762Y-56728D01*
X76674Y-56763D01*
X76594Y-56815D01*
X76526Y-56882D01*
X76473Y-56960D01*
X76435Y-57048D01*
X76415Y-57141D01*
X76414Y-57236D01*
X76431Y-57329D01*
X76466Y-57417D01*
X76518Y-57497D01*
X76584Y-57566D01*
X76662Y-57620D01*
X76749Y-57658D01*
X76842Y-57678D01*
X76937Y-57680D01*
X77030Y-57664D01*
X77119Y-57630D01*
X77199Y-57579D01*
X77268Y-57513D01*
X77323Y-57435D01*
X77361Y-57349D01*
X77382Y-57256D01*
X77384Y-57147D01*
X77384Y-58269D01*
X76813Y-58217D01*
X75628Y-57868D01*
X74534Y-57296D01*
X73571Y-56522D01*
X72777Y-55575D01*
X72182Y-54493D01*
X71808Y-53315D01*
X71671Y-52088D01*
X71774Y-50857D01*
X72114Y-49669D01*
X72679Y-48571D01*
X73446Y-47603D01*
X74387Y-46802D01*
X75465Y-46199D01*
X76640Y-45818D01*
X77120Y-45761D01*
X77120Y-47359D01*
X82302Y-47367D01*
X82364Y-47416D01*
X83172Y-48351D01*
X83782Y-49425D01*
X84172Y-50597D01*
X84327Y-51830D01*
X84330Y-51992D01*
M02*
