G04 (created by PCBNEW (2013-07-07 BZR 4022)-stable) date 2/27/2015 9:27:32 PM*
%MOIN*%
G04 Gerber Fmt 3.4, Leading zero omitted, Abs format*
%FSLAX34Y34*%
G01*
G70*
G90*
G04 APERTURE LIST*
%ADD10C,0.00590551*%
%ADD11C,0.00393701*%
%ADD12R,0.0590551X0.0393701*%
%ADD13R,0.0118X0.0512*%
%ADD14R,0.051X0.061*%
%ADD15R,0.036X0.036*%
%ADD16R,0.03X0.02*%
%ADD17R,0.035X0.055*%
%ADD18R,0.055X0.035*%
%ADD19R,0.0236X0.0157*%
%ADD20R,0.0157X0.0236*%
%ADD21R,0.0314X0.0314*%
%ADD22R,0.053937X0.0846457*%
%ADD23R,0.0393701X0.023622*%
%ADD24R,0.023622X0.0393701*%
%ADD25R,0.0433071X0.0472441*%
%ADD26R,0.015748X0.0531496*%
%ADD27C,0.0669291*%
%ADD28C,0.0216535*%
%ADD29C,0.03*%
%ADD30C,0.035*%
%ADD31C,0.01*%
%ADD32C,0.02*%
%ADD33C,0.032*%
G04 APERTURE END LIST*
G54D10*
G54D11*
X84500Y-52000D02*
G75*
G03X84500Y-52000I-6500J0D01*
G74*
G01*
G54D12*
X78300Y-54100D03*
X78300Y-54800D03*
G54D13*
X73100Y-50705D03*
X73350Y-50705D03*
X73610Y-50705D03*
X73860Y-50705D03*
X74120Y-50705D03*
X74375Y-50705D03*
X74630Y-50705D03*
X74630Y-48505D03*
X74375Y-48505D03*
X74120Y-48505D03*
X73860Y-48505D03*
X73605Y-48505D03*
X73350Y-48505D03*
X73095Y-48505D03*
G54D14*
X81857Y-53494D03*
X81857Y-50346D03*
X83627Y-50346D03*
X83627Y-53494D03*
G54D15*
X76050Y-56800D03*
X75350Y-56800D03*
X75700Y-56000D03*
G54D16*
X79285Y-54525D03*
X79285Y-55275D03*
X80285Y-54525D03*
X79285Y-54900D03*
X80285Y-55275D03*
G54D17*
X77375Y-55200D03*
X76625Y-55200D03*
X73735Y-52770D03*
X74485Y-52770D03*
X74580Y-56055D03*
X73830Y-56055D03*
X73395Y-55215D03*
X74145Y-55215D03*
X73405Y-54370D03*
X74155Y-54370D03*
G54D18*
X82005Y-54555D03*
X82005Y-55305D03*
G54D19*
X73170Y-52553D03*
X73170Y-52907D03*
X72660Y-52553D03*
X72660Y-52907D03*
X80835Y-54468D03*
X80835Y-54822D03*
X73240Y-51323D03*
X73240Y-51677D03*
X72160Y-52193D03*
X72160Y-52547D03*
X75300Y-55023D03*
X75300Y-55377D03*
G54D20*
X80868Y-55290D03*
X81222Y-55290D03*
G54D19*
X72730Y-51323D03*
X72730Y-51677D03*
G54D20*
X80977Y-53400D03*
X80623Y-53400D03*
G54D19*
X80950Y-50487D03*
X80950Y-50133D03*
G54D20*
X73897Y-52120D03*
X73543Y-52120D03*
X74298Y-52119D03*
X74652Y-52119D03*
G54D19*
X75900Y-55377D03*
X75900Y-55023D03*
X81345Y-54468D03*
X81345Y-54822D03*
X74720Y-55407D03*
X74720Y-55053D03*
X74628Y-51344D03*
X74628Y-51698D03*
G54D20*
X73767Y-51539D03*
X74121Y-51539D03*
G54D19*
X74200Y-53401D03*
X74200Y-53755D03*
X72191Y-51329D03*
X72191Y-51683D03*
X72670Y-53667D03*
X72670Y-53313D03*
X73170Y-53667D03*
X73170Y-53313D03*
G54D20*
X73117Y-52120D03*
X72763Y-52120D03*
G54D19*
X74595Y-47622D03*
X74595Y-47268D03*
X75110Y-49432D03*
X75110Y-49786D03*
G54D21*
X80950Y-51015D03*
X80950Y-51605D03*
X80960Y-52775D03*
X80960Y-52185D03*
G54D22*
X75800Y-54200D03*
X77200Y-54200D03*
G54D23*
X75702Y-46398D03*
X75702Y-46712D03*
X75702Y-47027D03*
X75702Y-47342D03*
X75702Y-47657D03*
X75702Y-47972D03*
X75702Y-48287D03*
X75702Y-48602D03*
X75702Y-48917D03*
X75702Y-49232D03*
X75702Y-49547D03*
X75702Y-49862D03*
X75702Y-50177D03*
X75702Y-50492D03*
X75702Y-50807D03*
X75702Y-51122D03*
X75702Y-51437D03*
X75702Y-51752D03*
X75702Y-52067D03*
X75702Y-52382D03*
X75702Y-52697D03*
G54D24*
X76095Y-53090D03*
X76410Y-53090D03*
X76725Y-53090D03*
X77040Y-53090D03*
X77355Y-53090D03*
X77670Y-53090D03*
X77985Y-53090D03*
X78300Y-53090D03*
X78615Y-53090D03*
X78930Y-53090D03*
X79245Y-53090D03*
X79560Y-53090D03*
X79875Y-53090D03*
G54D23*
X80268Y-52697D03*
X80268Y-52382D03*
X80268Y-52067D03*
X80268Y-51752D03*
X80268Y-51437D03*
X80268Y-51122D03*
X80268Y-50807D03*
X80268Y-50492D03*
X80268Y-50177D03*
X80268Y-49862D03*
X80268Y-49547D03*
X80268Y-49232D03*
X80268Y-48917D03*
X80268Y-48602D03*
X80268Y-48287D03*
X80268Y-47972D03*
X80268Y-47657D03*
G54D25*
X80610Y-56835D03*
X81420Y-56295D03*
G54D26*
X77500Y-56142D03*
X77756Y-56142D03*
X78012Y-56142D03*
X78267Y-56142D03*
X78523Y-56142D03*
G54D27*
X76899Y-57195D03*
X79124Y-57195D03*
G54D28*
X77224Y-56348D03*
X78799Y-56348D03*
G54D29*
X75120Y-48100D03*
X79270Y-49860D03*
X76710Y-50380D03*
X74690Y-54300D03*
X78500Y-52500D03*
X74800Y-56700D03*
X74000Y-49600D03*
X73500Y-49600D03*
X74000Y-49200D03*
X76890Y-48540D03*
X76905Y-47925D03*
X77445Y-48570D03*
X83025Y-51585D03*
X83025Y-52290D03*
X83040Y-54945D03*
X82425Y-51585D03*
X76180Y-50890D03*
X73619Y-53613D03*
X72200Y-53100D03*
X75120Y-51110D03*
G54D30*
X80640Y-56085D03*
G54D29*
X72800Y-54400D03*
X75100Y-56000D03*
X78900Y-52200D03*
X81315Y-49635D03*
X77420Y-51037D03*
G54D31*
X83627Y-50346D02*
X83627Y-50090D01*
X80950Y-49439D02*
X80950Y-50133D01*
X81200Y-49189D02*
X80950Y-49439D01*
X82726Y-49189D02*
X81200Y-49189D01*
X83627Y-50090D02*
X82726Y-49189D01*
X80268Y-49862D02*
X79272Y-49862D01*
X74376Y-48040D02*
X74375Y-48041D01*
X75060Y-48040D02*
X74376Y-48040D01*
X75120Y-48100D02*
X75060Y-48040D01*
X79272Y-49862D02*
X79270Y-49860D01*
X83627Y-53494D02*
X83627Y-50346D01*
X80285Y-54065D02*
X80275Y-54065D01*
X80275Y-54065D02*
X79560Y-53350D01*
X79560Y-53350D02*
X79560Y-53090D01*
X80285Y-54525D02*
X80285Y-54065D01*
X80285Y-54065D02*
X80623Y-53727D01*
X80623Y-53727D02*
X80623Y-53400D01*
X80835Y-54468D02*
X80342Y-54468D01*
X80342Y-54468D02*
X80285Y-54525D01*
X80835Y-54468D02*
X81345Y-54468D01*
X82005Y-54555D02*
X81660Y-54555D01*
X81573Y-54468D02*
X81345Y-54468D01*
X81660Y-54555D02*
X81573Y-54468D01*
X83627Y-53494D02*
X83627Y-53773D01*
X82845Y-54555D02*
X82005Y-54555D01*
X83627Y-53773D02*
X82845Y-54555D01*
X80950Y-50133D02*
X80950Y-50130D01*
X80950Y-50130D02*
X80682Y-49862D01*
X80682Y-49862D02*
X80268Y-49862D01*
X74595Y-47622D02*
X74595Y-47821D01*
X74595Y-47821D02*
X74375Y-48041D01*
X74375Y-48041D02*
X74375Y-48505D01*
G54D32*
X76064Y-56615D02*
X76798Y-55881D01*
X76798Y-55881D02*
X76900Y-55881D01*
X76060Y-56615D02*
X76064Y-56615D01*
X76900Y-55881D02*
X76241Y-55881D01*
G54D31*
X77099Y-55881D02*
X77239Y-55881D01*
G54D32*
X76900Y-55881D02*
X77099Y-55881D01*
G54D31*
X77239Y-55881D02*
X77500Y-56142D01*
X76241Y-55881D02*
X76134Y-55881D01*
X76134Y-55881D02*
X75900Y-55377D01*
X76050Y-56800D02*
X75935Y-56740D01*
X75935Y-56740D02*
X76060Y-56615D01*
X75900Y-55377D02*
X75307Y-55370D01*
X75307Y-55370D02*
X75300Y-55377D01*
X77500Y-56142D02*
X77500Y-55450D01*
X77500Y-55450D02*
X77375Y-55200D01*
X75300Y-55023D02*
X75292Y-54932D01*
X76192Y-49862D02*
X75702Y-49862D01*
X76710Y-50380D02*
X76192Y-49862D01*
X74690Y-54330D02*
X74690Y-54300D01*
X75292Y-54932D02*
X74690Y-54330D01*
X75350Y-56800D02*
X74900Y-56800D01*
X78300Y-52699D02*
X78300Y-53090D01*
X78500Y-52500D02*
X78300Y-52699D01*
X74900Y-56800D02*
X74800Y-56700D01*
X74000Y-49200D02*
X74000Y-49600D01*
X73860Y-49960D02*
X73860Y-50705D01*
X73860Y-49960D02*
X73500Y-49600D01*
X74000Y-49600D02*
X73500Y-49600D01*
X76890Y-48540D02*
X77415Y-48540D01*
X76905Y-48525D02*
X76890Y-48540D01*
X75702Y-47342D02*
X76322Y-47342D01*
X76322Y-47342D02*
X76905Y-47925D01*
X76905Y-47925D02*
X76905Y-48525D01*
X77415Y-48540D02*
X77445Y-48570D01*
X82425Y-51585D02*
X83025Y-51585D01*
X82680Y-55305D02*
X82005Y-55305D01*
X82680Y-55305D02*
X83040Y-54945D01*
X83025Y-51585D02*
X83025Y-52290D01*
X80950Y-50487D02*
X80950Y-51015D01*
X80960Y-52775D02*
X80960Y-53383D01*
X80960Y-53383D02*
X80977Y-53400D01*
X72660Y-52553D02*
X72166Y-52553D01*
X72166Y-52553D02*
X72160Y-52547D01*
X72763Y-52120D02*
X72763Y-52450D01*
X72763Y-52450D02*
X72660Y-52553D01*
X72763Y-52120D02*
X72763Y-51710D01*
X72763Y-51710D02*
X72730Y-51677D01*
X72670Y-53313D02*
X72670Y-52917D01*
X72670Y-52917D02*
X72660Y-52907D01*
X73170Y-53313D02*
X73170Y-52907D01*
X72191Y-51329D02*
X72724Y-51329D01*
X72724Y-51329D02*
X72730Y-51323D01*
X72730Y-51323D02*
X72730Y-51075D01*
X72730Y-51075D02*
X73100Y-50705D01*
X75800Y-54200D02*
X75740Y-54200D01*
X74761Y-53401D02*
X74200Y-53401D01*
X75740Y-54200D02*
X74761Y-53401D01*
X74200Y-53401D02*
X74107Y-53401D01*
X73735Y-53029D02*
X73735Y-52770D01*
X74107Y-53401D02*
X73735Y-53029D01*
X73117Y-52120D02*
X73117Y-52500D01*
X73117Y-52500D02*
X73170Y-52553D01*
X73117Y-52120D02*
X73543Y-52120D01*
X73117Y-52120D02*
X73117Y-51800D01*
X73117Y-51800D02*
X73240Y-51677D01*
X75110Y-49432D02*
X75110Y-48909D01*
X74706Y-48505D02*
X74630Y-48505D01*
X75110Y-48909D02*
X74706Y-48505D01*
X74887Y-50705D02*
X74630Y-50705D01*
X75110Y-50482D02*
X74887Y-50705D01*
X75110Y-49786D02*
X75110Y-50482D01*
X74375Y-51173D02*
X74375Y-50705D01*
X74546Y-51344D02*
X74375Y-51173D01*
X74628Y-51344D02*
X74546Y-51344D01*
X80950Y-51605D02*
X80635Y-51605D01*
X80487Y-51752D02*
X80268Y-51752D01*
X80635Y-51605D02*
X80487Y-51752D01*
X78300Y-54100D02*
X77860Y-53760D01*
X74819Y-52119D02*
X74652Y-52119D01*
X75100Y-52400D02*
X74819Y-52119D01*
X75100Y-53100D02*
X75100Y-52400D01*
X75600Y-53600D02*
X75100Y-53100D01*
X77700Y-53600D02*
X75600Y-53600D01*
X77860Y-53760D02*
X77700Y-53600D01*
X73767Y-51539D02*
X73767Y-51532D01*
X73558Y-51323D02*
X73240Y-51323D01*
X73767Y-51532D02*
X73558Y-51323D01*
X73240Y-51323D02*
X73240Y-51240D01*
X73350Y-51130D02*
X73350Y-50705D01*
X73240Y-51240D02*
X73350Y-51130D01*
X74121Y-51539D02*
X74121Y-51279D01*
X73610Y-51051D02*
X73610Y-50705D01*
X73749Y-51190D02*
X73610Y-51051D01*
X74032Y-51190D02*
X73749Y-51190D01*
X74121Y-51279D02*
X74032Y-51190D01*
X74121Y-51539D02*
X74121Y-51769D01*
X74298Y-51946D02*
X74298Y-52119D01*
X74121Y-51769D02*
X74298Y-51946D01*
X74298Y-52119D02*
X73898Y-52119D01*
X73898Y-52119D02*
X73897Y-52120D01*
X74485Y-52770D02*
X74485Y-52519D01*
X74298Y-52332D02*
X74298Y-52119D01*
X74485Y-52519D02*
X74298Y-52332D01*
X80960Y-52185D02*
X80815Y-52185D01*
X80697Y-52067D02*
X80268Y-52067D01*
X80815Y-52185D02*
X80697Y-52067D01*
X74145Y-55215D02*
X74155Y-55215D01*
X74347Y-55407D02*
X74720Y-55407D01*
X74155Y-55215D02*
X74347Y-55407D01*
X80868Y-55290D02*
X80300Y-55290D01*
X80300Y-55290D02*
X80285Y-55275D01*
X80835Y-54822D02*
X80835Y-55257D01*
X80835Y-55257D02*
X80868Y-55290D01*
X81345Y-54822D02*
X80835Y-54822D01*
X73170Y-53667D02*
X73565Y-53667D01*
X76097Y-50807D02*
X75702Y-50807D01*
X76180Y-50890D02*
X76097Y-50807D01*
X73565Y-53667D02*
X73619Y-53613D01*
X72400Y-53667D02*
X72367Y-53667D01*
X72200Y-53500D02*
X72200Y-53100D01*
X72367Y-53667D02*
X72200Y-53500D01*
X75702Y-51122D02*
X75132Y-51122D01*
X75120Y-51110D02*
X75132Y-51122D01*
X72670Y-53667D02*
X72400Y-53667D01*
G54D33*
X80610Y-56835D02*
X80610Y-56115D01*
X80610Y-56115D02*
X80640Y-56085D01*
G54D31*
X72830Y-54370D02*
X73405Y-54370D01*
X72800Y-54400D02*
X72830Y-54370D01*
X73405Y-54370D02*
X73397Y-54362D01*
G54D32*
X80610Y-56835D02*
X80475Y-56835D01*
X80475Y-56835D02*
X79410Y-55770D01*
G54D31*
X79410Y-55770D02*
X79410Y-55725D01*
X79410Y-55725D02*
X79285Y-55600D01*
X79285Y-55600D02*
X79285Y-55275D01*
X79285Y-55275D02*
X79625Y-55275D01*
X79625Y-55275D02*
X79790Y-55110D01*
X79790Y-55110D02*
X79790Y-54720D01*
X79790Y-54720D02*
X79595Y-54525D01*
X79595Y-54525D02*
X79285Y-54525D01*
X79285Y-54525D02*
X79285Y-53130D01*
X79285Y-53130D02*
X79245Y-53090D01*
X73395Y-55215D02*
X73395Y-54380D01*
X73395Y-54380D02*
X73405Y-54370D01*
X73830Y-56055D02*
X73705Y-56055D01*
X73395Y-55745D02*
X73395Y-55215D01*
X73705Y-56055D02*
X73395Y-55745D01*
X78930Y-53090D02*
X78930Y-52230D01*
X78900Y-52200D02*
X78930Y-52230D01*
X75700Y-56000D02*
X75100Y-56000D01*
X75100Y-56000D02*
X74635Y-56000D01*
X74635Y-56000D02*
X74580Y-56055D01*
X77985Y-53090D02*
X77985Y-52857D01*
X81857Y-49787D02*
X81857Y-50346D01*
X81705Y-49635D02*
X81857Y-49787D01*
X81315Y-49635D02*
X81705Y-49635D01*
X77396Y-51061D02*
X77420Y-51037D01*
X77396Y-52268D02*
X77396Y-51061D01*
X77985Y-52857D02*
X77396Y-52268D01*
X81857Y-50346D02*
X81857Y-53494D01*
G54D10*
G36*
X83427Y-53038D02*
X83357Y-53038D01*
X83328Y-53044D01*
X83301Y-53055D01*
X83276Y-53072D01*
X83255Y-53092D01*
X83239Y-53117D01*
X83228Y-53144D01*
X83222Y-53173D01*
X83221Y-53202D01*
X83221Y-53813D01*
X83227Y-53842D01*
X83238Y-53869D01*
X83242Y-53874D01*
X82762Y-54355D01*
X82427Y-54355D01*
X82424Y-54336D01*
X82413Y-54309D01*
X82396Y-54284D01*
X82376Y-54263D01*
X82351Y-54247D01*
X82324Y-54236D01*
X82295Y-54230D01*
X82266Y-54229D01*
X81715Y-54229D01*
X81686Y-54235D01*
X81659Y-54246D01*
X81634Y-54263D01*
X81622Y-54274D01*
X81614Y-54272D01*
X81613Y-54272D01*
X81612Y-54271D01*
X81594Y-54270D01*
X81575Y-54268D01*
X81573Y-54268D01*
X81573Y-54268D01*
X81573Y-54268D01*
X81573Y-54268D01*
X81551Y-54268D01*
X81534Y-54256D01*
X81507Y-54245D01*
X81478Y-54239D01*
X81449Y-54239D01*
X81212Y-54239D01*
X81183Y-54245D01*
X81156Y-54256D01*
X81138Y-54268D01*
X81041Y-54268D01*
X81024Y-54256D01*
X80997Y-54245D01*
X80968Y-54239D01*
X80939Y-54239D01*
X80702Y-54239D01*
X80673Y-54245D01*
X80646Y-54256D01*
X80628Y-54268D01*
X80485Y-54268D01*
X80485Y-54147D01*
X80764Y-53868D01*
X80776Y-53854D01*
X80788Y-53839D01*
X80788Y-53839D01*
X80789Y-53838D01*
X80797Y-53822D01*
X80806Y-53805D01*
X80807Y-53804D01*
X80807Y-53803D01*
X80813Y-53786D01*
X80818Y-53768D01*
X80818Y-53767D01*
X80819Y-53766D01*
X80820Y-53748D01*
X80822Y-53729D01*
X80822Y-53727D01*
X80822Y-53727D01*
X80822Y-53727D01*
X80823Y-53727D01*
X80823Y-53648D01*
X80826Y-53650D01*
X80853Y-53661D01*
X80882Y-53667D01*
X80912Y-53668D01*
X81070Y-53668D01*
X81099Y-53662D01*
X81126Y-53651D01*
X81150Y-53634D01*
X81171Y-53614D01*
X81188Y-53589D01*
X81199Y-53562D01*
X81205Y-53533D01*
X81205Y-53504D01*
X81205Y-53267D01*
X81199Y-53238D01*
X81188Y-53211D01*
X81172Y-53186D01*
X81160Y-53174D01*
X81160Y-53076D01*
X81160Y-53076D01*
X81187Y-53065D01*
X81212Y-53048D01*
X81233Y-53028D01*
X81249Y-53003D01*
X81260Y-52976D01*
X81266Y-52947D01*
X81267Y-52918D01*
X81267Y-52603D01*
X81261Y-52574D01*
X81250Y-52547D01*
X81233Y-52522D01*
X81213Y-52501D01*
X81188Y-52485D01*
X81175Y-52480D01*
X81187Y-52475D01*
X81212Y-52458D01*
X81233Y-52438D01*
X81249Y-52413D01*
X81260Y-52386D01*
X81266Y-52357D01*
X81267Y-52328D01*
X81267Y-52013D01*
X81261Y-51984D01*
X81250Y-51957D01*
X81233Y-51932D01*
X81213Y-51911D01*
X81188Y-51895D01*
X81181Y-51892D01*
X81202Y-51878D01*
X81223Y-51858D01*
X81239Y-51833D01*
X81250Y-51806D01*
X81256Y-51777D01*
X81257Y-51748D01*
X81257Y-51433D01*
X81251Y-51404D01*
X81240Y-51377D01*
X81223Y-51352D01*
X81203Y-51331D01*
X81178Y-51315D01*
X81165Y-51310D01*
X81177Y-51305D01*
X81202Y-51288D01*
X81223Y-51268D01*
X81239Y-51243D01*
X81250Y-51216D01*
X81256Y-51187D01*
X81257Y-51158D01*
X81257Y-50843D01*
X81251Y-50814D01*
X81240Y-50787D01*
X81223Y-50762D01*
X81203Y-50741D01*
X81178Y-50725D01*
X81151Y-50714D01*
X81150Y-50713D01*
X81150Y-50691D01*
X81163Y-50682D01*
X81184Y-50661D01*
X81200Y-50637D01*
X81211Y-50610D01*
X81217Y-50581D01*
X81218Y-50551D01*
X81218Y-50393D01*
X81212Y-50364D01*
X81201Y-50337D01*
X81184Y-50313D01*
X81181Y-50310D01*
X81184Y-50307D01*
X81200Y-50283D01*
X81211Y-50256D01*
X81217Y-50227D01*
X81218Y-50197D01*
X81218Y-50039D01*
X81212Y-50010D01*
X81201Y-49983D01*
X81184Y-49959D01*
X81164Y-49938D01*
X81150Y-49928D01*
X81150Y-49885D01*
X81167Y-49898D01*
X81221Y-49921D01*
X81279Y-49934D01*
X81338Y-49935D01*
X81396Y-49925D01*
X81450Y-49904D01*
X81500Y-49872D01*
X81540Y-49835D01*
X81622Y-49835D01*
X81657Y-49869D01*
X81657Y-49890D01*
X81587Y-49890D01*
X81558Y-49896D01*
X81531Y-49907D01*
X81506Y-49924D01*
X81485Y-49944D01*
X81469Y-49969D01*
X81458Y-49996D01*
X81452Y-50025D01*
X81451Y-50054D01*
X81451Y-50665D01*
X81457Y-50694D01*
X81468Y-50721D01*
X81485Y-50746D01*
X81505Y-50767D01*
X81530Y-50783D01*
X81557Y-50794D01*
X81586Y-50800D01*
X81615Y-50801D01*
X81657Y-50801D01*
X81657Y-53038D01*
X81587Y-53038D01*
X81558Y-53044D01*
X81531Y-53055D01*
X81506Y-53072D01*
X81485Y-53092D01*
X81469Y-53117D01*
X81458Y-53144D01*
X81452Y-53173D01*
X81451Y-53202D01*
X81451Y-53813D01*
X81457Y-53842D01*
X81468Y-53869D01*
X81485Y-53894D01*
X81505Y-53915D01*
X81530Y-53931D01*
X81557Y-53942D01*
X81586Y-53948D01*
X81615Y-53949D01*
X82126Y-53949D01*
X82155Y-53943D01*
X82182Y-53932D01*
X82207Y-53915D01*
X82228Y-53895D01*
X82244Y-53870D01*
X82255Y-53843D01*
X82261Y-53814D01*
X82262Y-53785D01*
X82262Y-53174D01*
X82256Y-53145D01*
X82245Y-53118D01*
X82228Y-53093D01*
X82208Y-53072D01*
X82183Y-53056D01*
X82156Y-53045D01*
X82127Y-53039D01*
X82098Y-53038D01*
X82057Y-53038D01*
X82057Y-50801D01*
X82126Y-50801D01*
X82155Y-50795D01*
X82182Y-50784D01*
X82207Y-50767D01*
X82228Y-50747D01*
X82244Y-50722D01*
X82255Y-50695D01*
X82261Y-50666D01*
X82262Y-50637D01*
X82262Y-50026D01*
X82256Y-49997D01*
X82245Y-49970D01*
X82228Y-49945D01*
X82208Y-49924D01*
X82183Y-49908D01*
X82156Y-49897D01*
X82127Y-49891D01*
X82098Y-49890D01*
X82057Y-49890D01*
X82057Y-49787D01*
X82055Y-49768D01*
X82053Y-49750D01*
X82053Y-49749D01*
X82053Y-49748D01*
X82047Y-49730D01*
X82042Y-49712D01*
X82042Y-49711D01*
X82041Y-49710D01*
X82033Y-49694D01*
X82024Y-49678D01*
X82024Y-49677D01*
X82023Y-49676D01*
X82011Y-49661D01*
X82000Y-49647D01*
X81998Y-49646D01*
X81998Y-49646D01*
X81998Y-49646D01*
X81998Y-49645D01*
X81846Y-49493D01*
X81832Y-49481D01*
X81817Y-49469D01*
X81817Y-49469D01*
X81816Y-49468D01*
X81799Y-49460D01*
X81783Y-49451D01*
X81782Y-49450D01*
X81781Y-49450D01*
X81764Y-49444D01*
X81746Y-49439D01*
X81745Y-49439D01*
X81744Y-49438D01*
X81726Y-49437D01*
X81707Y-49435D01*
X81705Y-49435D01*
X81705Y-49435D01*
X81705Y-49435D01*
X81705Y-49435D01*
X81539Y-49435D01*
X81507Y-49402D01*
X81486Y-49389D01*
X82643Y-49389D01*
X83234Y-49980D01*
X83228Y-49996D01*
X83222Y-50025D01*
X83221Y-50054D01*
X83221Y-50665D01*
X83227Y-50694D01*
X83238Y-50721D01*
X83255Y-50746D01*
X83275Y-50767D01*
X83300Y-50783D01*
X83327Y-50794D01*
X83356Y-50800D01*
X83385Y-50801D01*
X83427Y-50801D01*
X83427Y-53038D01*
X83427Y-53038D01*
G37*
G54D31*
X83427Y-53038D02*
X83357Y-53038D01*
X83328Y-53044D01*
X83301Y-53055D01*
X83276Y-53072D01*
X83255Y-53092D01*
X83239Y-53117D01*
X83228Y-53144D01*
X83222Y-53173D01*
X83221Y-53202D01*
X83221Y-53813D01*
X83227Y-53842D01*
X83238Y-53869D01*
X83242Y-53874D01*
X82762Y-54355D01*
X82427Y-54355D01*
X82424Y-54336D01*
X82413Y-54309D01*
X82396Y-54284D01*
X82376Y-54263D01*
X82351Y-54247D01*
X82324Y-54236D01*
X82295Y-54230D01*
X82266Y-54229D01*
X81715Y-54229D01*
X81686Y-54235D01*
X81659Y-54246D01*
X81634Y-54263D01*
X81622Y-54274D01*
X81614Y-54272D01*
X81613Y-54272D01*
X81612Y-54271D01*
X81594Y-54270D01*
X81575Y-54268D01*
X81573Y-54268D01*
X81573Y-54268D01*
X81573Y-54268D01*
X81573Y-54268D01*
X81551Y-54268D01*
X81534Y-54256D01*
X81507Y-54245D01*
X81478Y-54239D01*
X81449Y-54239D01*
X81212Y-54239D01*
X81183Y-54245D01*
X81156Y-54256D01*
X81138Y-54268D01*
X81041Y-54268D01*
X81024Y-54256D01*
X80997Y-54245D01*
X80968Y-54239D01*
X80939Y-54239D01*
X80702Y-54239D01*
X80673Y-54245D01*
X80646Y-54256D01*
X80628Y-54268D01*
X80485Y-54268D01*
X80485Y-54147D01*
X80764Y-53868D01*
X80776Y-53854D01*
X80788Y-53839D01*
X80788Y-53839D01*
X80789Y-53838D01*
X80797Y-53822D01*
X80806Y-53805D01*
X80807Y-53804D01*
X80807Y-53803D01*
X80813Y-53786D01*
X80818Y-53768D01*
X80818Y-53767D01*
X80819Y-53766D01*
X80820Y-53748D01*
X80822Y-53729D01*
X80822Y-53727D01*
X80822Y-53727D01*
X80822Y-53727D01*
X80823Y-53727D01*
X80823Y-53648D01*
X80826Y-53650D01*
X80853Y-53661D01*
X80882Y-53667D01*
X80912Y-53668D01*
X81070Y-53668D01*
X81099Y-53662D01*
X81126Y-53651D01*
X81150Y-53634D01*
X81171Y-53614D01*
X81188Y-53589D01*
X81199Y-53562D01*
X81205Y-53533D01*
X81205Y-53504D01*
X81205Y-53267D01*
X81199Y-53238D01*
X81188Y-53211D01*
X81172Y-53186D01*
X81160Y-53174D01*
X81160Y-53076D01*
X81160Y-53076D01*
X81187Y-53065D01*
X81212Y-53048D01*
X81233Y-53028D01*
X81249Y-53003D01*
X81260Y-52976D01*
X81266Y-52947D01*
X81267Y-52918D01*
X81267Y-52603D01*
X81261Y-52574D01*
X81250Y-52547D01*
X81233Y-52522D01*
X81213Y-52501D01*
X81188Y-52485D01*
X81175Y-52480D01*
X81187Y-52475D01*
X81212Y-52458D01*
X81233Y-52438D01*
X81249Y-52413D01*
X81260Y-52386D01*
X81266Y-52357D01*
X81267Y-52328D01*
X81267Y-52013D01*
X81261Y-51984D01*
X81250Y-51957D01*
X81233Y-51932D01*
X81213Y-51911D01*
X81188Y-51895D01*
X81181Y-51892D01*
X81202Y-51878D01*
X81223Y-51858D01*
X81239Y-51833D01*
X81250Y-51806D01*
X81256Y-51777D01*
X81257Y-51748D01*
X81257Y-51433D01*
X81251Y-51404D01*
X81240Y-51377D01*
X81223Y-51352D01*
X81203Y-51331D01*
X81178Y-51315D01*
X81165Y-51310D01*
X81177Y-51305D01*
X81202Y-51288D01*
X81223Y-51268D01*
X81239Y-51243D01*
X81250Y-51216D01*
X81256Y-51187D01*
X81257Y-51158D01*
X81257Y-50843D01*
X81251Y-50814D01*
X81240Y-50787D01*
X81223Y-50762D01*
X81203Y-50741D01*
X81178Y-50725D01*
X81151Y-50714D01*
X81150Y-50713D01*
X81150Y-50691D01*
X81163Y-50682D01*
X81184Y-50661D01*
X81200Y-50637D01*
X81211Y-50610D01*
X81217Y-50581D01*
X81218Y-50551D01*
X81218Y-50393D01*
X81212Y-50364D01*
X81201Y-50337D01*
X81184Y-50313D01*
X81181Y-50310D01*
X81184Y-50307D01*
X81200Y-50283D01*
X81211Y-50256D01*
X81217Y-50227D01*
X81218Y-50197D01*
X81218Y-50039D01*
X81212Y-50010D01*
X81201Y-49983D01*
X81184Y-49959D01*
X81164Y-49938D01*
X81150Y-49928D01*
X81150Y-49885D01*
X81167Y-49898D01*
X81221Y-49921D01*
X81279Y-49934D01*
X81338Y-49935D01*
X81396Y-49925D01*
X81450Y-49904D01*
X81500Y-49872D01*
X81540Y-49835D01*
X81622Y-49835D01*
X81657Y-49869D01*
X81657Y-49890D01*
X81587Y-49890D01*
X81558Y-49896D01*
X81531Y-49907D01*
X81506Y-49924D01*
X81485Y-49944D01*
X81469Y-49969D01*
X81458Y-49996D01*
X81452Y-50025D01*
X81451Y-50054D01*
X81451Y-50665D01*
X81457Y-50694D01*
X81468Y-50721D01*
X81485Y-50746D01*
X81505Y-50767D01*
X81530Y-50783D01*
X81557Y-50794D01*
X81586Y-50800D01*
X81615Y-50801D01*
X81657Y-50801D01*
X81657Y-53038D01*
X81587Y-53038D01*
X81558Y-53044D01*
X81531Y-53055D01*
X81506Y-53072D01*
X81485Y-53092D01*
X81469Y-53117D01*
X81458Y-53144D01*
X81452Y-53173D01*
X81451Y-53202D01*
X81451Y-53813D01*
X81457Y-53842D01*
X81468Y-53869D01*
X81485Y-53894D01*
X81505Y-53915D01*
X81530Y-53931D01*
X81557Y-53942D01*
X81586Y-53948D01*
X81615Y-53949D01*
X82126Y-53949D01*
X82155Y-53943D01*
X82182Y-53932D01*
X82207Y-53915D01*
X82228Y-53895D01*
X82244Y-53870D01*
X82255Y-53843D01*
X82261Y-53814D01*
X82262Y-53785D01*
X82262Y-53174D01*
X82256Y-53145D01*
X82245Y-53118D01*
X82228Y-53093D01*
X82208Y-53072D01*
X82183Y-53056D01*
X82156Y-53045D01*
X82127Y-53039D01*
X82098Y-53038D01*
X82057Y-53038D01*
X82057Y-50801D01*
X82126Y-50801D01*
X82155Y-50795D01*
X82182Y-50784D01*
X82207Y-50767D01*
X82228Y-50747D01*
X82244Y-50722D01*
X82255Y-50695D01*
X82261Y-50666D01*
X82262Y-50637D01*
X82262Y-50026D01*
X82256Y-49997D01*
X82245Y-49970D01*
X82228Y-49945D01*
X82208Y-49924D01*
X82183Y-49908D01*
X82156Y-49897D01*
X82127Y-49891D01*
X82098Y-49890D01*
X82057Y-49890D01*
X82057Y-49787D01*
X82055Y-49768D01*
X82053Y-49750D01*
X82053Y-49749D01*
X82053Y-49748D01*
X82047Y-49730D01*
X82042Y-49712D01*
X82042Y-49711D01*
X82041Y-49710D01*
X82033Y-49694D01*
X82024Y-49678D01*
X82024Y-49677D01*
X82023Y-49676D01*
X82011Y-49661D01*
X82000Y-49647D01*
X81998Y-49646D01*
X81998Y-49646D01*
X81998Y-49646D01*
X81998Y-49645D01*
X81846Y-49493D01*
X81832Y-49481D01*
X81817Y-49469D01*
X81817Y-49469D01*
X81816Y-49468D01*
X81799Y-49460D01*
X81783Y-49451D01*
X81782Y-49450D01*
X81781Y-49450D01*
X81764Y-49444D01*
X81746Y-49439D01*
X81745Y-49439D01*
X81744Y-49438D01*
X81726Y-49437D01*
X81707Y-49435D01*
X81705Y-49435D01*
X81705Y-49435D01*
X81705Y-49435D01*
X81705Y-49435D01*
X81539Y-49435D01*
X81507Y-49402D01*
X81486Y-49389D01*
X82643Y-49389D01*
X83234Y-49980D01*
X83228Y-49996D01*
X83222Y-50025D01*
X83221Y-50054D01*
X83221Y-50665D01*
X83227Y-50694D01*
X83238Y-50721D01*
X83255Y-50746D01*
X83275Y-50767D01*
X83300Y-50783D01*
X83327Y-50794D01*
X83356Y-50800D01*
X83385Y-50801D01*
X83427Y-50801D01*
X83427Y-53038D01*
G54D10*
G36*
X84017Y-53864D02*
X83851Y-54411D01*
X83271Y-55502D01*
X82491Y-56459D01*
X81539Y-57247D01*
X80452Y-57834D01*
X79608Y-58096D01*
X79608Y-57147D01*
X79590Y-57054D01*
X79554Y-56966D01*
X79501Y-56887D01*
X79434Y-56820D01*
X79355Y-56766D01*
X79268Y-56730D01*
X79175Y-56711D01*
X79080Y-56710D01*
X79057Y-56714D01*
X79057Y-56323D01*
X79047Y-56273D01*
X79028Y-56227D01*
X79000Y-56184D01*
X78964Y-56148D01*
X78922Y-56120D01*
X78875Y-56100D01*
X78826Y-56090D01*
X78775Y-56090D01*
X78752Y-56094D01*
X78752Y-55861D01*
X78746Y-55832D01*
X78745Y-55829D01*
X78745Y-54283D01*
X78745Y-53888D01*
X78739Y-53859D01*
X78728Y-53832D01*
X78712Y-53807D01*
X78691Y-53787D01*
X78666Y-53770D01*
X78639Y-53759D01*
X78611Y-53753D01*
X78581Y-53753D01*
X78178Y-53753D01*
X77992Y-53609D01*
X77841Y-53458D01*
X77827Y-53446D01*
X77812Y-53434D01*
X77812Y-53434D01*
X77811Y-53433D01*
X77794Y-53425D01*
X77778Y-53416D01*
X77777Y-53415D01*
X77776Y-53415D01*
X77759Y-53409D01*
X77741Y-53404D01*
X77740Y-53404D01*
X77739Y-53403D01*
X77721Y-53402D01*
X77702Y-53400D01*
X77700Y-53400D01*
X77700Y-53400D01*
X77700Y-53400D01*
X77700Y-53400D01*
X77573Y-53400D01*
X77589Y-53383D01*
X77606Y-53359D01*
X77617Y-53332D01*
X77623Y-53303D01*
X77623Y-53274D01*
X77623Y-52879D01*
X77617Y-52850D01*
X77606Y-52823D01*
X77590Y-52798D01*
X77569Y-52777D01*
X77545Y-52761D01*
X77518Y-52750D01*
X77489Y-52744D01*
X77459Y-52743D01*
X77222Y-52744D01*
X77197Y-52748D01*
X77174Y-52744D01*
X77145Y-52743D01*
X76907Y-52744D01*
X76882Y-52748D01*
X76859Y-52744D01*
X76830Y-52743D01*
X76592Y-52744D01*
X76567Y-52748D01*
X76544Y-52744D01*
X76515Y-52743D01*
X76277Y-52744D01*
X76248Y-52749D01*
X76221Y-52760D01*
X76197Y-52777D01*
X76176Y-52797D01*
X76159Y-52822D01*
X76148Y-52849D01*
X76142Y-52878D01*
X76142Y-52907D01*
X76142Y-53302D01*
X76148Y-53331D01*
X76159Y-53358D01*
X76175Y-53383D01*
X76192Y-53400D01*
X75682Y-53400D01*
X75300Y-53017D01*
X75300Y-52400D01*
X75298Y-52381D01*
X75296Y-52363D01*
X75296Y-52362D01*
X75296Y-52361D01*
X75290Y-52343D01*
X75285Y-52325D01*
X75285Y-52324D01*
X75284Y-52323D01*
X75276Y-52307D01*
X75267Y-52291D01*
X75267Y-52290D01*
X75266Y-52289D01*
X75254Y-52274D01*
X75243Y-52260D01*
X75241Y-52259D01*
X75241Y-52259D01*
X75241Y-52259D01*
X75241Y-52258D01*
X74960Y-51977D01*
X74946Y-51965D01*
X74931Y-51953D01*
X74931Y-51953D01*
X74930Y-51952D01*
X74913Y-51944D01*
X74897Y-51935D01*
X74896Y-51934D01*
X74895Y-51934D01*
X74878Y-51928D01*
X74860Y-51923D01*
X74859Y-51923D01*
X74858Y-51923D01*
X74847Y-51905D01*
X74826Y-51884D01*
X74802Y-51868D01*
X74775Y-51857D01*
X74746Y-51851D01*
X74716Y-51850D01*
X74558Y-51850D01*
X74529Y-51856D01*
X74502Y-51867D01*
X74485Y-51879D01*
X74483Y-51871D01*
X74483Y-51870D01*
X74482Y-51869D01*
X74474Y-51853D01*
X74465Y-51837D01*
X74465Y-51836D01*
X74464Y-51835D01*
X74452Y-51820D01*
X74441Y-51806D01*
X74439Y-51805D01*
X74439Y-51805D01*
X74439Y-51805D01*
X74439Y-51804D01*
X74341Y-51706D01*
X74343Y-51701D01*
X74349Y-51672D01*
X74349Y-51643D01*
X74349Y-51430D01*
X74360Y-51441D01*
X74365Y-51466D01*
X74376Y-51493D01*
X74393Y-51517D01*
X74413Y-51538D01*
X74438Y-51555D01*
X74465Y-51566D01*
X74494Y-51572D01*
X74523Y-51572D01*
X74760Y-51572D01*
X74789Y-51566D01*
X74816Y-51555D01*
X74841Y-51539D01*
X74862Y-51518D01*
X74878Y-51494D01*
X74889Y-51467D01*
X74895Y-51438D01*
X74896Y-51408D01*
X74896Y-51309D01*
X74924Y-51339D01*
X74972Y-51373D01*
X75026Y-51396D01*
X75084Y-51409D01*
X75143Y-51410D01*
X75201Y-51400D01*
X75255Y-51379D01*
X75305Y-51347D01*
X75331Y-51322D01*
X75355Y-51322D01*
X75355Y-51332D01*
X75355Y-51570D01*
X75360Y-51595D01*
X75355Y-51618D01*
X75355Y-51647D01*
X75355Y-51885D01*
X75360Y-51909D01*
X75355Y-51933D01*
X75355Y-51962D01*
X75355Y-52200D01*
X75360Y-52224D01*
X75355Y-52248D01*
X75355Y-52277D01*
X75355Y-52515D01*
X75360Y-52539D01*
X75355Y-52563D01*
X75355Y-52592D01*
X75355Y-52830D01*
X75360Y-52858D01*
X75372Y-52886D01*
X75388Y-52910D01*
X75409Y-52931D01*
X75433Y-52947D01*
X75460Y-52959D01*
X75489Y-52965D01*
X75518Y-52965D01*
X75913Y-52965D01*
X75942Y-52959D01*
X75969Y-52948D01*
X75994Y-52932D01*
X76014Y-52911D01*
X76031Y-52887D01*
X76042Y-52859D01*
X76048Y-52831D01*
X76048Y-52801D01*
X76048Y-52564D01*
X76043Y-52539D01*
X76048Y-52516D01*
X76048Y-52486D01*
X76048Y-52249D01*
X76043Y-52224D01*
X76048Y-52201D01*
X76048Y-52171D01*
X76048Y-51934D01*
X76043Y-51909D01*
X76048Y-51886D01*
X76048Y-51856D01*
X76048Y-51619D01*
X76043Y-51594D01*
X76048Y-51571D01*
X76048Y-51541D01*
X76048Y-51304D01*
X76043Y-51279D01*
X76048Y-51256D01*
X76048Y-51226D01*
X76048Y-51160D01*
X76086Y-51176D01*
X76144Y-51189D01*
X76203Y-51190D01*
X76261Y-51180D01*
X76315Y-51159D01*
X76365Y-51127D01*
X76408Y-51086D01*
X76442Y-51038D01*
X76466Y-50985D01*
X76479Y-50927D01*
X76480Y-50860D01*
X76468Y-50802D01*
X76446Y-50748D01*
X76413Y-50699D01*
X76372Y-50657D01*
X76323Y-50624D01*
X76269Y-50602D01*
X76211Y-50590D01*
X76152Y-50589D01*
X76094Y-50600D01*
X76078Y-50607D01*
X76048Y-50607D01*
X76048Y-50596D01*
X76048Y-50359D01*
X76043Y-50334D01*
X76048Y-50311D01*
X76048Y-50281D01*
X76048Y-50062D01*
X76109Y-50062D01*
X76410Y-50363D01*
X76409Y-50405D01*
X76420Y-50463D01*
X76441Y-50517D01*
X76473Y-50567D01*
X76514Y-50609D01*
X76562Y-50643D01*
X76616Y-50666D01*
X76674Y-50679D01*
X76733Y-50680D01*
X76791Y-50670D01*
X76845Y-50649D01*
X76895Y-50617D01*
X76938Y-50576D01*
X76972Y-50528D01*
X76996Y-50475D01*
X77009Y-50417D01*
X77010Y-50350D01*
X76998Y-50292D01*
X76976Y-50238D01*
X76943Y-50189D01*
X76902Y-50147D01*
X76853Y-50114D01*
X76799Y-50092D01*
X76741Y-50080D01*
X76692Y-50079D01*
X76333Y-49721D01*
X76319Y-49709D01*
X76305Y-49697D01*
X76304Y-49697D01*
X76303Y-49696D01*
X76287Y-49687D01*
X76271Y-49678D01*
X76270Y-49678D01*
X76269Y-49677D01*
X76251Y-49672D01*
X76234Y-49666D01*
X76233Y-49666D01*
X76232Y-49666D01*
X76213Y-49664D01*
X76195Y-49662D01*
X76193Y-49662D01*
X76193Y-49662D01*
X76193Y-49662D01*
X76192Y-49662D01*
X76024Y-49662D01*
X76015Y-49649D01*
X75994Y-49628D01*
X75970Y-49611D01*
X75943Y-49600D01*
X75914Y-49594D01*
X75885Y-49594D01*
X75490Y-49594D01*
X75461Y-49600D01*
X75434Y-49611D01*
X75409Y-49627D01*
X75389Y-49648D01*
X75373Y-49671D01*
X75372Y-49663D01*
X75361Y-49636D01*
X75344Y-49612D01*
X75341Y-49609D01*
X75344Y-49606D01*
X75360Y-49582D01*
X75371Y-49555D01*
X75377Y-49526D01*
X75378Y-49496D01*
X75378Y-49430D01*
X75388Y-49446D01*
X75409Y-49466D01*
X75433Y-49483D01*
X75460Y-49494D01*
X75489Y-49500D01*
X75518Y-49500D01*
X75913Y-49500D01*
X75942Y-49495D01*
X75969Y-49483D01*
X75994Y-49467D01*
X76014Y-49446D01*
X76031Y-49422D01*
X76042Y-49395D01*
X76048Y-49366D01*
X76048Y-49337D01*
X76048Y-49099D01*
X76043Y-49074D01*
X76048Y-49051D01*
X76048Y-49022D01*
X76048Y-48784D01*
X76043Y-48760D01*
X76048Y-48736D01*
X76048Y-48707D01*
X76048Y-48469D01*
X76043Y-48445D01*
X76048Y-48421D01*
X76048Y-48392D01*
X76048Y-48154D01*
X76043Y-48130D01*
X76048Y-48106D01*
X76048Y-48077D01*
X76048Y-47839D01*
X76043Y-47815D01*
X76048Y-47791D01*
X76048Y-47762D01*
X76048Y-47525D01*
X76043Y-47496D01*
X76031Y-47468D01*
X76015Y-47444D01*
X75994Y-47423D01*
X75970Y-47407D01*
X75943Y-47395D01*
X75914Y-47389D01*
X75885Y-47389D01*
X75490Y-47389D01*
X75461Y-47395D01*
X75434Y-47406D01*
X75409Y-47422D01*
X75389Y-47443D01*
X75372Y-47468D01*
X75361Y-47495D01*
X75355Y-47523D01*
X75355Y-47553D01*
X75355Y-47790D01*
X75360Y-47815D01*
X75355Y-47838D01*
X75355Y-47868D01*
X75355Y-47911D01*
X75353Y-47909D01*
X75312Y-47867D01*
X75263Y-47834D01*
X75209Y-47812D01*
X75151Y-47800D01*
X75092Y-47799D01*
X75034Y-47810D01*
X74980Y-47832D01*
X74969Y-47840D01*
X74793Y-47840D01*
X74794Y-47826D01*
X74808Y-47817D01*
X74829Y-47796D01*
X74845Y-47772D01*
X74856Y-47745D01*
X74862Y-47716D01*
X74863Y-47686D01*
X74863Y-47528D01*
X74857Y-47499D01*
X74846Y-47472D01*
X74829Y-47448D01*
X74809Y-47427D01*
X74784Y-47410D01*
X74757Y-47399D01*
X74728Y-47393D01*
X74699Y-47393D01*
X74462Y-47393D01*
X74433Y-47399D01*
X74406Y-47410D01*
X74381Y-47426D01*
X74360Y-47447D01*
X74344Y-47471D01*
X74333Y-47498D01*
X74327Y-47527D01*
X74326Y-47557D01*
X74326Y-47715D01*
X74332Y-47744D01*
X74343Y-47771D01*
X74351Y-47782D01*
X74233Y-47899D01*
X74221Y-47913D01*
X74209Y-47928D01*
X74209Y-47928D01*
X74208Y-47929D01*
X74200Y-47946D01*
X74191Y-47962D01*
X74190Y-47963D01*
X74190Y-47964D01*
X74184Y-47981D01*
X74179Y-47999D01*
X74179Y-48000D01*
X74178Y-48001D01*
X74177Y-48019D01*
X74175Y-48038D01*
X74175Y-48040D01*
X74175Y-48040D01*
X74175Y-48040D01*
X74175Y-48041D01*
X74175Y-48197D01*
X74172Y-48204D01*
X74166Y-48233D01*
X74165Y-48262D01*
X74165Y-48775D01*
X74171Y-48804D01*
X74182Y-48831D01*
X74199Y-48856D01*
X74219Y-48877D01*
X74244Y-48893D01*
X74271Y-48904D01*
X74300Y-48910D01*
X74329Y-48911D01*
X74448Y-48911D01*
X74477Y-48905D01*
X74502Y-48894D01*
X74526Y-48904D01*
X74555Y-48910D01*
X74584Y-48911D01*
X74703Y-48911D01*
X74732Y-48905D01*
X74759Y-48894D01*
X74784Y-48877D01*
X74790Y-48871D01*
X74910Y-48991D01*
X74910Y-49227D01*
X74896Y-49236D01*
X74875Y-49257D01*
X74859Y-49281D01*
X74848Y-49308D01*
X74842Y-49337D01*
X74841Y-49367D01*
X74841Y-49525D01*
X74847Y-49554D01*
X74858Y-49581D01*
X74875Y-49605D01*
X74878Y-49608D01*
X74875Y-49611D01*
X74859Y-49635D01*
X74848Y-49662D01*
X74842Y-49691D01*
X74841Y-49721D01*
X74841Y-49879D01*
X74847Y-49908D01*
X74858Y-49935D01*
X74875Y-49959D01*
X74895Y-49980D01*
X74910Y-49990D01*
X74910Y-50399D01*
X74839Y-50470D01*
X74839Y-50434D01*
X74833Y-50405D01*
X74822Y-50378D01*
X74805Y-50353D01*
X74785Y-50332D01*
X74760Y-50316D01*
X74733Y-50305D01*
X74704Y-50299D01*
X74675Y-50298D01*
X74556Y-50298D01*
X74527Y-50304D01*
X74502Y-50315D01*
X74478Y-50305D01*
X74449Y-50299D01*
X74420Y-50298D01*
X74301Y-50298D01*
X74272Y-50304D01*
X74247Y-50315D01*
X74223Y-50305D01*
X74194Y-50299D01*
X74165Y-50298D01*
X74046Y-50298D01*
X74017Y-50304D01*
X73990Y-50315D01*
X73965Y-50332D01*
X73944Y-50352D01*
X73928Y-50377D01*
X73917Y-50404D01*
X73911Y-50433D01*
X73910Y-50462D01*
X73910Y-50975D01*
X73913Y-50990D01*
X73831Y-50990D01*
X73818Y-50977D01*
X73818Y-50976D01*
X73819Y-50947D01*
X73819Y-50434D01*
X73813Y-50405D01*
X73802Y-50378D01*
X73785Y-50353D01*
X73765Y-50332D01*
X73740Y-50316D01*
X73713Y-50305D01*
X73684Y-50299D01*
X73655Y-50298D01*
X73536Y-50298D01*
X73507Y-50304D01*
X73480Y-50315D01*
X73479Y-50316D01*
X73453Y-50305D01*
X73424Y-50299D01*
X73395Y-50298D01*
X73276Y-50298D01*
X73247Y-50304D01*
X73224Y-50313D01*
X73203Y-50305D01*
X73174Y-50299D01*
X73145Y-50298D01*
X73026Y-50298D01*
X72997Y-50304D01*
X72970Y-50315D01*
X72945Y-50332D01*
X72924Y-50352D01*
X72908Y-50377D01*
X72897Y-50404D01*
X72891Y-50433D01*
X72890Y-50462D01*
X72890Y-50631D01*
X72588Y-50933D01*
X72576Y-50947D01*
X72564Y-50962D01*
X72564Y-50962D01*
X72563Y-50963D01*
X72555Y-50980D01*
X72546Y-50996D01*
X72545Y-50997D01*
X72545Y-50998D01*
X72539Y-51015D01*
X72534Y-51033D01*
X72534Y-51034D01*
X72533Y-51035D01*
X72532Y-51053D01*
X72530Y-51072D01*
X72530Y-51074D01*
X72530Y-51074D01*
X72530Y-51074D01*
X72530Y-51075D01*
X72530Y-51118D01*
X72516Y-51127D01*
X72515Y-51129D01*
X72397Y-51129D01*
X72380Y-51117D01*
X72353Y-51106D01*
X72324Y-51100D01*
X72295Y-51100D01*
X72058Y-51100D01*
X72029Y-51106D01*
X72002Y-51117D01*
X71977Y-51133D01*
X71956Y-51154D01*
X71940Y-51178D01*
X71929Y-51205D01*
X71923Y-51234D01*
X71922Y-51264D01*
X71922Y-51422D01*
X71928Y-51451D01*
X71939Y-51478D01*
X71956Y-51502D01*
X71976Y-51523D01*
X72001Y-51540D01*
X72028Y-51551D01*
X72057Y-51557D01*
X72086Y-51557D01*
X72323Y-51557D01*
X72352Y-51551D01*
X72379Y-51540D01*
X72397Y-51529D01*
X72478Y-51529D01*
X72468Y-51553D01*
X72462Y-51582D01*
X72461Y-51612D01*
X72461Y-51770D01*
X72467Y-51799D01*
X72478Y-51826D01*
X72495Y-51850D01*
X72515Y-51871D01*
X72540Y-51888D01*
X72563Y-51897D01*
X72563Y-51913D01*
X72551Y-51930D01*
X72540Y-51957D01*
X72534Y-51986D01*
X72534Y-52015D01*
X72534Y-52252D01*
X72540Y-52281D01*
X72551Y-52308D01*
X72561Y-52324D01*
X72527Y-52324D01*
X72498Y-52330D01*
X72471Y-52341D01*
X72453Y-52353D01*
X72374Y-52353D01*
X72374Y-52352D01*
X72349Y-52335D01*
X72322Y-52324D01*
X72293Y-52318D01*
X72264Y-52318D01*
X72027Y-52318D01*
X71998Y-52324D01*
X71971Y-52335D01*
X71946Y-52351D01*
X71925Y-52372D01*
X71909Y-52396D01*
X71898Y-52423D01*
X71892Y-52452D01*
X71891Y-52482D01*
X71891Y-52640D01*
X71897Y-52669D01*
X71908Y-52696D01*
X71925Y-52720D01*
X71945Y-52741D01*
X71970Y-52758D01*
X71997Y-52769D01*
X72026Y-52775D01*
X72055Y-52775D01*
X72292Y-52775D01*
X72321Y-52769D01*
X72348Y-52758D01*
X72357Y-52753D01*
X72411Y-52753D01*
X72409Y-52756D01*
X72398Y-52783D01*
X72392Y-52812D01*
X72391Y-52842D01*
X72391Y-52867D01*
X72343Y-52834D01*
X72289Y-52812D01*
X72231Y-52800D01*
X72172Y-52799D01*
X72114Y-52810D01*
X72060Y-52832D01*
X72011Y-52865D01*
X71969Y-52906D01*
X71935Y-52954D01*
X71912Y-53008D01*
X71900Y-53066D01*
X71899Y-53125D01*
X71910Y-53183D01*
X71931Y-53237D01*
X71963Y-53287D01*
X72000Y-53324D01*
X72000Y-53500D01*
X72001Y-53518D01*
X72003Y-53536D01*
X72003Y-53537D01*
X72003Y-53538D01*
X72009Y-53556D01*
X72014Y-53574D01*
X72014Y-53575D01*
X72015Y-53576D01*
X72023Y-53592D01*
X72032Y-53608D01*
X72032Y-53609D01*
X72033Y-53610D01*
X72045Y-53625D01*
X72056Y-53639D01*
X72058Y-53640D01*
X72058Y-53640D01*
X72058Y-53640D01*
X72058Y-53641D01*
X72225Y-53808D01*
X72239Y-53820D01*
X72254Y-53832D01*
X72254Y-53832D01*
X72255Y-53833D01*
X72272Y-53841D01*
X72288Y-53850D01*
X72289Y-53851D01*
X72290Y-53851D01*
X72307Y-53857D01*
X72325Y-53862D01*
X72326Y-53862D01*
X72327Y-53863D01*
X72345Y-53864D01*
X72364Y-53866D01*
X72366Y-53866D01*
X72366Y-53866D01*
X72366Y-53866D01*
X72367Y-53867D01*
X72400Y-53867D01*
X72463Y-53867D01*
X72480Y-53878D01*
X72507Y-53889D01*
X72536Y-53895D01*
X72565Y-53895D01*
X72802Y-53895D01*
X72831Y-53889D01*
X72858Y-53878D01*
X72883Y-53862D01*
X72904Y-53841D01*
X72920Y-53817D01*
X72935Y-53840D01*
X72955Y-53861D01*
X72980Y-53878D01*
X73007Y-53889D01*
X73036Y-53895D01*
X73065Y-53895D01*
X73302Y-53895D01*
X73331Y-53889D01*
X73358Y-53878D01*
X73376Y-53867D01*
X73458Y-53867D01*
X73471Y-53876D01*
X73525Y-53899D01*
X73583Y-53912D01*
X73642Y-53913D01*
X73700Y-53903D01*
X73754Y-53882D01*
X73804Y-53850D01*
X73847Y-53809D01*
X73881Y-53761D01*
X73905Y-53708D01*
X73918Y-53650D01*
X73919Y-53583D01*
X73907Y-53525D01*
X73885Y-53471D01*
X73866Y-53443D01*
X73935Y-53512D01*
X73937Y-53523D01*
X73948Y-53550D01*
X73965Y-53574D01*
X73985Y-53595D01*
X74010Y-53612D01*
X74037Y-53623D01*
X74066Y-53629D01*
X74095Y-53629D01*
X74332Y-53629D01*
X74361Y-53623D01*
X74388Y-53612D01*
X74406Y-53601D01*
X74689Y-53601D01*
X75380Y-54164D01*
X75380Y-54637D01*
X75386Y-54666D01*
X75397Y-54693D01*
X75413Y-54718D01*
X75434Y-54739D01*
X75458Y-54755D01*
X75485Y-54767D01*
X75514Y-54773D01*
X75543Y-54773D01*
X76084Y-54773D01*
X76113Y-54767D01*
X76140Y-54756D01*
X76164Y-54740D01*
X76185Y-54719D01*
X76202Y-54694D01*
X76213Y-54667D01*
X76219Y-54638D01*
X76219Y-54609D01*
X76219Y-53800D01*
X77617Y-53800D01*
X77718Y-53901D01*
X77727Y-53908D01*
X77735Y-53916D01*
X77737Y-53918D01*
X77854Y-54008D01*
X77854Y-54311D01*
X77860Y-54340D01*
X77871Y-54367D01*
X77887Y-54392D01*
X77908Y-54412D01*
X77933Y-54429D01*
X77960Y-54440D01*
X77988Y-54446D01*
X78018Y-54446D01*
X78609Y-54446D01*
X78638Y-54441D01*
X78666Y-54429D01*
X78690Y-54413D01*
X78711Y-54392D01*
X78727Y-54368D01*
X78739Y-54341D01*
X78745Y-54312D01*
X78745Y-54283D01*
X78745Y-55829D01*
X78735Y-55805D01*
X78719Y-55781D01*
X78698Y-55760D01*
X78674Y-55743D01*
X78647Y-55732D01*
X78618Y-55726D01*
X78588Y-55726D01*
X78430Y-55726D01*
X78401Y-55732D01*
X78374Y-55743D01*
X78349Y-55759D01*
X78328Y-55780D01*
X78312Y-55804D01*
X78301Y-55831D01*
X78295Y-55860D01*
X78294Y-55890D01*
X78295Y-56422D01*
X78300Y-56451D01*
X78311Y-56478D01*
X78328Y-56503D01*
X78348Y-56524D01*
X78373Y-56540D01*
X78400Y-56551D01*
X78429Y-56557D01*
X78458Y-56558D01*
X78617Y-56557D01*
X78640Y-56553D01*
X78672Y-56575D01*
X78718Y-56595D01*
X78768Y-56606D01*
X78818Y-56607D01*
X78868Y-56598D01*
X78916Y-56580D01*
X78958Y-56553D01*
X78995Y-56518D01*
X79024Y-56477D01*
X79045Y-56430D01*
X79056Y-56381D01*
X79057Y-56323D01*
X79057Y-56714D01*
X78986Y-56728D01*
X78898Y-56763D01*
X78819Y-56815D01*
X78751Y-56882D01*
X78697Y-56960D01*
X78660Y-57048D01*
X78640Y-57141D01*
X78638Y-57236D01*
X78656Y-57329D01*
X78691Y-57417D01*
X78742Y-57497D01*
X78808Y-57566D01*
X78886Y-57620D01*
X78973Y-57658D01*
X79066Y-57678D01*
X79161Y-57680D01*
X79255Y-57664D01*
X79343Y-57630D01*
X79424Y-57579D01*
X79492Y-57513D01*
X79547Y-57435D01*
X79586Y-57349D01*
X79607Y-57256D01*
X79608Y-57147D01*
X79608Y-58096D01*
X79272Y-58200D01*
X78240Y-58308D01*
X78240Y-56394D01*
X78240Y-55861D01*
X78235Y-55832D01*
X78223Y-55805D01*
X78207Y-55781D01*
X78186Y-55760D01*
X78162Y-55743D01*
X78135Y-55732D01*
X78106Y-55726D01*
X78077Y-55726D01*
X77918Y-55726D01*
X77889Y-55732D01*
X77884Y-55734D01*
X77879Y-55732D01*
X77850Y-55726D01*
X77821Y-55726D01*
X77700Y-55726D01*
X77700Y-55450D01*
X77700Y-55449D01*
X77700Y-54910D01*
X77694Y-54881D01*
X77683Y-54854D01*
X77666Y-54829D01*
X77646Y-54808D01*
X77621Y-54792D01*
X77594Y-54781D01*
X77565Y-54775D01*
X77536Y-54774D01*
X77185Y-54774D01*
X77156Y-54780D01*
X77129Y-54791D01*
X77104Y-54808D01*
X77083Y-54828D01*
X77067Y-54853D01*
X77056Y-54880D01*
X77050Y-54909D01*
X77049Y-54938D01*
X77049Y-55489D01*
X77055Y-55518D01*
X77066Y-55545D01*
X77083Y-55570D01*
X77103Y-55591D01*
X77128Y-55607D01*
X77155Y-55618D01*
X77184Y-55624D01*
X77213Y-55625D01*
X77300Y-55625D01*
X77300Y-55691D01*
X77298Y-55690D01*
X77280Y-55685D01*
X77279Y-55685D01*
X77278Y-55684D01*
X77260Y-55683D01*
X77248Y-55681D01*
X77240Y-55674D01*
X77197Y-55651D01*
X77150Y-55636D01*
X77102Y-55631D01*
X77099Y-55631D01*
X76900Y-55631D01*
X76798Y-55631D01*
X76241Y-55631D01*
X76238Y-55631D01*
X76166Y-55476D01*
X76167Y-55471D01*
X76168Y-55441D01*
X76168Y-55283D01*
X76162Y-55254D01*
X76151Y-55227D01*
X76134Y-55203D01*
X76114Y-55182D01*
X76089Y-55165D01*
X76062Y-55154D01*
X76033Y-55148D01*
X76004Y-55148D01*
X75767Y-55148D01*
X75738Y-55154D01*
X75711Y-55165D01*
X75697Y-55174D01*
X75550Y-55172D01*
X75561Y-55146D01*
X75567Y-55117D01*
X75568Y-55087D01*
X75568Y-54929D01*
X75562Y-54900D01*
X75551Y-54873D01*
X75534Y-54849D01*
X75514Y-54828D01*
X75489Y-54811D01*
X75462Y-54800D01*
X75437Y-54795D01*
X75435Y-54792D01*
X75433Y-54790D01*
X74987Y-54344D01*
X74989Y-54337D01*
X74990Y-54270D01*
X74978Y-54212D01*
X74956Y-54158D01*
X74923Y-54109D01*
X74882Y-54067D01*
X74833Y-54034D01*
X74779Y-54012D01*
X74721Y-54000D01*
X74662Y-53999D01*
X74604Y-54010D01*
X74550Y-54032D01*
X74501Y-54065D01*
X74459Y-54106D01*
X74425Y-54154D01*
X74402Y-54208D01*
X74390Y-54266D01*
X74389Y-54325D01*
X74400Y-54383D01*
X74421Y-54437D01*
X74453Y-54487D01*
X74494Y-54529D01*
X74542Y-54563D01*
X74596Y-54586D01*
X74654Y-54599D01*
X74676Y-54599D01*
X75031Y-54954D01*
X75031Y-54958D01*
X75031Y-55116D01*
X75037Y-55145D01*
X75048Y-55172D01*
X75065Y-55196D01*
X75068Y-55199D01*
X75065Y-55202D01*
X75049Y-55226D01*
X75038Y-55253D01*
X75032Y-55282D01*
X75031Y-55312D01*
X75031Y-55470D01*
X75037Y-55499D01*
X75048Y-55526D01*
X75065Y-55550D01*
X75085Y-55571D01*
X75110Y-55588D01*
X75137Y-55599D01*
X75166Y-55605D01*
X75195Y-55605D01*
X75432Y-55605D01*
X75461Y-55599D01*
X75488Y-55588D01*
X75512Y-55572D01*
X75690Y-55574D01*
X75710Y-55588D01*
X75737Y-55599D01*
X75766Y-55605D01*
X75785Y-55605D01*
X75815Y-55669D01*
X75505Y-55669D01*
X75476Y-55675D01*
X75449Y-55686D01*
X75424Y-55703D01*
X75403Y-55723D01*
X75387Y-55748D01*
X75376Y-55775D01*
X75370Y-55800D01*
X75324Y-55800D01*
X75292Y-55767D01*
X75243Y-55734D01*
X75189Y-55712D01*
X75131Y-55700D01*
X75072Y-55699D01*
X75014Y-55710D01*
X74960Y-55732D01*
X74911Y-55765D01*
X74905Y-55771D01*
X74905Y-55765D01*
X74899Y-55736D01*
X74888Y-55709D01*
X74871Y-55684D01*
X74851Y-55663D01*
X74826Y-55647D01*
X74799Y-55636D01*
X74797Y-55635D01*
X74852Y-55635D01*
X74881Y-55629D01*
X74908Y-55618D01*
X74933Y-55602D01*
X74954Y-55581D01*
X74970Y-55557D01*
X74981Y-55530D01*
X74987Y-55501D01*
X74988Y-55471D01*
X74988Y-55313D01*
X74982Y-55284D01*
X74971Y-55257D01*
X74954Y-55233D01*
X74934Y-55212D01*
X74909Y-55195D01*
X74882Y-55184D01*
X74853Y-55178D01*
X74824Y-55178D01*
X74587Y-55178D01*
X74558Y-55184D01*
X74531Y-55195D01*
X74513Y-55207D01*
X74470Y-55207D01*
X74470Y-54925D01*
X74464Y-54896D01*
X74453Y-54869D01*
X74436Y-54844D01*
X74416Y-54823D01*
X74391Y-54807D01*
X74364Y-54796D01*
X74335Y-54790D01*
X74306Y-54789D01*
X73955Y-54789D01*
X73926Y-54795D01*
X73899Y-54806D01*
X73874Y-54823D01*
X73853Y-54843D01*
X73837Y-54868D01*
X73826Y-54895D01*
X73820Y-54924D01*
X73819Y-54953D01*
X73819Y-55504D01*
X73825Y-55533D01*
X73836Y-55560D01*
X73853Y-55585D01*
X73873Y-55606D01*
X73898Y-55622D01*
X73915Y-55629D01*
X73640Y-55629D01*
X73611Y-55635D01*
X73595Y-55642D01*
X73595Y-55637D01*
X73613Y-55634D01*
X73640Y-55623D01*
X73665Y-55606D01*
X73686Y-55586D01*
X73702Y-55561D01*
X73713Y-55534D01*
X73719Y-55505D01*
X73720Y-55476D01*
X73720Y-54925D01*
X73714Y-54896D01*
X73703Y-54869D01*
X73686Y-54844D01*
X73666Y-54823D01*
X73641Y-54807D01*
X73614Y-54796D01*
X73602Y-54793D01*
X73623Y-54789D01*
X73650Y-54778D01*
X73675Y-54761D01*
X73696Y-54741D01*
X73712Y-54716D01*
X73723Y-54689D01*
X73729Y-54660D01*
X73730Y-54631D01*
X73730Y-54080D01*
X73724Y-54051D01*
X73713Y-54024D01*
X73696Y-53999D01*
X73676Y-53978D01*
X73651Y-53962D01*
X73624Y-53951D01*
X73595Y-53945D01*
X73566Y-53944D01*
X73215Y-53944D01*
X73186Y-53950D01*
X73159Y-53961D01*
X73134Y-53978D01*
X73113Y-53998D01*
X73097Y-54023D01*
X73086Y-54050D01*
X73080Y-54079D01*
X73079Y-54108D01*
X73079Y-54170D01*
X72994Y-54170D01*
X72992Y-54167D01*
X72943Y-54134D01*
X72889Y-54112D01*
X72831Y-54100D01*
X72772Y-54099D01*
X72714Y-54110D01*
X72660Y-54132D01*
X72611Y-54165D01*
X72569Y-54206D01*
X72535Y-54254D01*
X72512Y-54308D01*
X72500Y-54366D01*
X72499Y-54425D01*
X72510Y-54483D01*
X72531Y-54537D01*
X72563Y-54587D01*
X72604Y-54629D01*
X72652Y-54663D01*
X72706Y-54686D01*
X72764Y-54699D01*
X72823Y-54700D01*
X72881Y-54690D01*
X72935Y-54669D01*
X72985Y-54637D01*
X73028Y-54596D01*
X73047Y-54570D01*
X73079Y-54570D01*
X73079Y-54659D01*
X73085Y-54688D01*
X73096Y-54715D01*
X73113Y-54740D01*
X73133Y-54761D01*
X73158Y-54777D01*
X73185Y-54788D01*
X73195Y-54790D01*
X73195Y-54792D01*
X73176Y-54795D01*
X73149Y-54806D01*
X73124Y-54823D01*
X73103Y-54843D01*
X73087Y-54868D01*
X73076Y-54895D01*
X73070Y-54924D01*
X73069Y-54953D01*
X73069Y-55504D01*
X73075Y-55533D01*
X73086Y-55560D01*
X73103Y-55585D01*
X73123Y-55606D01*
X73148Y-55622D01*
X73175Y-55633D01*
X73195Y-55638D01*
X73195Y-55745D01*
X73196Y-55763D01*
X73198Y-55781D01*
X73198Y-55782D01*
X73198Y-55783D01*
X73204Y-55801D01*
X73209Y-55819D01*
X73209Y-55820D01*
X73210Y-55821D01*
X73218Y-55837D01*
X73227Y-55853D01*
X73227Y-55854D01*
X73228Y-55855D01*
X73240Y-55870D01*
X73251Y-55884D01*
X73253Y-55885D01*
X73253Y-55885D01*
X73253Y-55885D01*
X73253Y-55886D01*
X73504Y-56137D01*
X73504Y-56344D01*
X73510Y-56373D01*
X73521Y-56400D01*
X73538Y-56425D01*
X73558Y-56446D01*
X73583Y-56462D01*
X73610Y-56473D01*
X73639Y-56479D01*
X73668Y-56480D01*
X74019Y-56480D01*
X74048Y-56474D01*
X74075Y-56463D01*
X74100Y-56446D01*
X74121Y-56426D01*
X74137Y-56401D01*
X74148Y-56374D01*
X74154Y-56345D01*
X74155Y-56316D01*
X74155Y-55765D01*
X74149Y-55736D01*
X74138Y-55709D01*
X74121Y-55684D01*
X74101Y-55663D01*
X74076Y-55647D01*
X74059Y-55640D01*
X74334Y-55640D01*
X74363Y-55634D01*
X74390Y-55623D01*
X74414Y-55607D01*
X74513Y-55607D01*
X74530Y-55618D01*
X74557Y-55629D01*
X74559Y-55629D01*
X74390Y-55629D01*
X74361Y-55635D01*
X74334Y-55646D01*
X74309Y-55663D01*
X74288Y-55683D01*
X74272Y-55708D01*
X74261Y-55735D01*
X74255Y-55764D01*
X74254Y-55793D01*
X74254Y-56344D01*
X74260Y-56373D01*
X74271Y-56400D01*
X74288Y-56425D01*
X74308Y-56446D01*
X74333Y-56462D01*
X74360Y-56473D01*
X74389Y-56479D01*
X74418Y-56480D01*
X74595Y-56480D01*
X74569Y-56506D01*
X74535Y-56554D01*
X74512Y-56608D01*
X74500Y-56666D01*
X74499Y-56725D01*
X74510Y-56783D01*
X74531Y-56837D01*
X74563Y-56887D01*
X74604Y-56929D01*
X74652Y-56963D01*
X74706Y-56986D01*
X74764Y-56999D01*
X74823Y-57000D01*
X74855Y-56994D01*
X74858Y-56995D01*
X74859Y-56995D01*
X74860Y-56996D01*
X74878Y-56997D01*
X74897Y-56999D01*
X74899Y-56999D01*
X74899Y-56999D01*
X74899Y-56999D01*
X74900Y-57000D01*
X75021Y-57000D01*
X75025Y-57023D01*
X75036Y-57050D01*
X75053Y-57075D01*
X75073Y-57096D01*
X75098Y-57112D01*
X75125Y-57123D01*
X75154Y-57129D01*
X75183Y-57130D01*
X75544Y-57130D01*
X75573Y-57124D01*
X75600Y-57113D01*
X75625Y-57096D01*
X75646Y-57076D01*
X75662Y-57051D01*
X75673Y-57024D01*
X75679Y-56995D01*
X75680Y-56966D01*
X75680Y-56605D01*
X75674Y-56576D01*
X75663Y-56549D01*
X75646Y-56524D01*
X75626Y-56503D01*
X75601Y-56487D01*
X75574Y-56476D01*
X75545Y-56470D01*
X75516Y-56469D01*
X75155Y-56469D01*
X75126Y-56475D01*
X75099Y-56486D01*
X75074Y-56503D01*
X75053Y-56523D01*
X75048Y-56531D01*
X75033Y-56509D01*
X74992Y-56467D01*
X74943Y-56434D01*
X74889Y-56412D01*
X74881Y-56410D01*
X74887Y-56401D01*
X74898Y-56374D01*
X74904Y-56345D01*
X74905Y-56316D01*
X74905Y-56229D01*
X74952Y-56263D01*
X75006Y-56286D01*
X75064Y-56299D01*
X75123Y-56300D01*
X75181Y-56290D01*
X75235Y-56269D01*
X75285Y-56237D01*
X75325Y-56200D01*
X75371Y-56200D01*
X75375Y-56223D01*
X75386Y-56250D01*
X75403Y-56275D01*
X75423Y-56296D01*
X75448Y-56312D01*
X75475Y-56323D01*
X75504Y-56329D01*
X75533Y-56330D01*
X75894Y-56330D01*
X75923Y-56324D01*
X75950Y-56313D01*
X75975Y-56296D01*
X75996Y-56276D01*
X76012Y-56251D01*
X76023Y-56224D01*
X76029Y-56195D01*
X76030Y-56166D01*
X76030Y-56051D01*
X76043Y-56058D01*
X76055Y-56064D01*
X76059Y-56066D01*
X76064Y-56068D01*
X76079Y-56072D01*
X76083Y-56073D01*
X76099Y-56087D01*
X76142Y-56110D01*
X76189Y-56125D01*
X76198Y-56126D01*
X75905Y-56419D01*
X75883Y-56437D01*
X75857Y-56469D01*
X75855Y-56469D01*
X75826Y-56475D01*
X75799Y-56486D01*
X75774Y-56503D01*
X75753Y-56523D01*
X75737Y-56548D01*
X75726Y-56575D01*
X75720Y-56604D01*
X75719Y-56633D01*
X75719Y-56994D01*
X75725Y-57023D01*
X75736Y-57050D01*
X75753Y-57075D01*
X75773Y-57096D01*
X75798Y-57112D01*
X75825Y-57123D01*
X75854Y-57129D01*
X75883Y-57130D01*
X76244Y-57130D01*
X76273Y-57124D01*
X76300Y-57113D01*
X76325Y-57096D01*
X76346Y-57076D01*
X76362Y-57051D01*
X76373Y-57024D01*
X76379Y-56995D01*
X76380Y-56966D01*
X76380Y-56652D01*
X76901Y-56131D01*
X77085Y-56131D01*
X77061Y-56146D01*
X77025Y-56182D01*
X76997Y-56223D01*
X76977Y-56270D01*
X76966Y-56319D01*
X76965Y-56370D01*
X76975Y-56420D01*
X76993Y-56467D01*
X77021Y-56510D01*
X77056Y-56546D01*
X77097Y-56575D01*
X77144Y-56595D01*
X77193Y-56606D01*
X77244Y-56607D01*
X77294Y-56598D01*
X77341Y-56580D01*
X77384Y-56553D01*
X77405Y-56557D01*
X77435Y-56558D01*
X77593Y-56557D01*
X77622Y-56552D01*
X77628Y-56549D01*
X77632Y-56551D01*
X77661Y-56557D01*
X77691Y-56558D01*
X77849Y-56557D01*
X77878Y-56552D01*
X77883Y-56549D01*
X77888Y-56551D01*
X77917Y-56557D01*
X77946Y-56558D01*
X78105Y-56557D01*
X78134Y-56552D01*
X78161Y-56541D01*
X78186Y-56524D01*
X78206Y-56503D01*
X78223Y-56479D01*
X78234Y-56452D01*
X78240Y-56423D01*
X78240Y-56394D01*
X78240Y-58308D01*
X78044Y-58329D01*
X77384Y-58269D01*
X77384Y-57147D01*
X77366Y-57054D01*
X77329Y-56966D01*
X77277Y-56887D01*
X77210Y-56820D01*
X77131Y-56766D01*
X77043Y-56730D01*
X76950Y-56711D01*
X76855Y-56710D01*
X76762Y-56728D01*
X76674Y-56763D01*
X76594Y-56815D01*
X76526Y-56882D01*
X76473Y-56960D01*
X76435Y-57048D01*
X76415Y-57141D01*
X76414Y-57236D01*
X76431Y-57329D01*
X76466Y-57417D01*
X76518Y-57497D01*
X76584Y-57566D01*
X76662Y-57620D01*
X76749Y-57658D01*
X76842Y-57678D01*
X76937Y-57680D01*
X77030Y-57664D01*
X77119Y-57630D01*
X77199Y-57579D01*
X77268Y-57513D01*
X77323Y-57435D01*
X77361Y-57349D01*
X77382Y-57256D01*
X77384Y-57147D01*
X77384Y-58269D01*
X76813Y-58217D01*
X75628Y-57868D01*
X74534Y-57296D01*
X73571Y-56522D01*
X72777Y-55575D01*
X72182Y-54493D01*
X71808Y-53315D01*
X71671Y-52088D01*
X71774Y-50857D01*
X72114Y-49669D01*
X72679Y-48571D01*
X72885Y-48311D01*
X72885Y-48775D01*
X72891Y-48804D01*
X72902Y-48831D01*
X72919Y-48856D01*
X72939Y-48877D01*
X72964Y-48893D01*
X72991Y-48904D01*
X73020Y-48910D01*
X73049Y-48911D01*
X73168Y-48911D01*
X73197Y-48905D01*
X73222Y-48894D01*
X73246Y-48904D01*
X73275Y-48910D01*
X73304Y-48911D01*
X73423Y-48911D01*
X73452Y-48905D01*
X73477Y-48894D01*
X73501Y-48904D01*
X73530Y-48910D01*
X73559Y-48911D01*
X73678Y-48911D01*
X73707Y-48905D01*
X73732Y-48894D01*
X73756Y-48904D01*
X73785Y-48910D01*
X73814Y-48911D01*
X73933Y-48911D01*
X73962Y-48905D01*
X73989Y-48894D01*
X74014Y-48877D01*
X74035Y-48857D01*
X74051Y-48832D01*
X74062Y-48805D01*
X74068Y-48776D01*
X74069Y-48747D01*
X74069Y-48234D01*
X74063Y-48205D01*
X74052Y-48178D01*
X74035Y-48153D01*
X74015Y-48132D01*
X73990Y-48116D01*
X73963Y-48105D01*
X73934Y-48099D01*
X73905Y-48098D01*
X73786Y-48098D01*
X73757Y-48104D01*
X73732Y-48115D01*
X73708Y-48105D01*
X73679Y-48099D01*
X73650Y-48098D01*
X73531Y-48098D01*
X73502Y-48104D01*
X73477Y-48115D01*
X73453Y-48105D01*
X73424Y-48099D01*
X73395Y-48098D01*
X73276Y-48098D01*
X73247Y-48104D01*
X73222Y-48115D01*
X73198Y-48105D01*
X73169Y-48099D01*
X73140Y-48098D01*
X73053Y-48098D01*
X73446Y-47603D01*
X74387Y-46802D01*
X75465Y-46199D01*
X76640Y-45818D01*
X77115Y-45761D01*
X77115Y-47354D01*
X82300Y-47366D01*
X82364Y-47416D01*
X83172Y-48351D01*
X83782Y-49425D01*
X83941Y-49903D01*
X83926Y-49897D01*
X83897Y-49891D01*
X83868Y-49890D01*
X83710Y-49890D01*
X82867Y-49047D01*
X82853Y-49035D01*
X82838Y-49023D01*
X82838Y-49023D01*
X82837Y-49022D01*
X82820Y-49014D01*
X82804Y-49005D01*
X82803Y-49004D01*
X82802Y-49004D01*
X82785Y-48998D01*
X82767Y-48993D01*
X82766Y-48993D01*
X82765Y-48992D01*
X82747Y-48991D01*
X82728Y-48989D01*
X82726Y-48989D01*
X82726Y-48989D01*
X82726Y-48989D01*
X82726Y-48989D01*
X81200Y-48989D01*
X81181Y-48990D01*
X81163Y-48992D01*
X81162Y-48992D01*
X81161Y-48992D01*
X81143Y-48998D01*
X81125Y-49003D01*
X81124Y-49003D01*
X81123Y-49004D01*
X81107Y-49012D01*
X81091Y-49021D01*
X81090Y-49021D01*
X81089Y-49022D01*
X81074Y-49034D01*
X81060Y-49045D01*
X81059Y-49047D01*
X81059Y-49047D01*
X81059Y-49047D01*
X81058Y-49047D01*
X80808Y-49297D01*
X80796Y-49311D01*
X80784Y-49326D01*
X80784Y-49326D01*
X80783Y-49327D01*
X80775Y-49344D01*
X80766Y-49360D01*
X80765Y-49361D01*
X80765Y-49362D01*
X80759Y-49379D01*
X80754Y-49397D01*
X80754Y-49398D01*
X80753Y-49399D01*
X80752Y-49417D01*
X80750Y-49436D01*
X80750Y-49438D01*
X80750Y-49438D01*
X80750Y-49438D01*
X80750Y-49439D01*
X80750Y-49675D01*
X80741Y-49672D01*
X80724Y-49666D01*
X80723Y-49666D01*
X80722Y-49666D01*
X80703Y-49664D01*
X80685Y-49662D01*
X80683Y-49662D01*
X80683Y-49662D01*
X80683Y-49662D01*
X80682Y-49662D01*
X80615Y-49662D01*
X80615Y-49652D01*
X80615Y-49414D01*
X80610Y-49389D01*
X80615Y-49366D01*
X80615Y-49337D01*
X80615Y-49099D01*
X80610Y-49074D01*
X80615Y-49051D01*
X80615Y-49022D01*
X80615Y-48784D01*
X80610Y-48760D01*
X80615Y-48736D01*
X80615Y-48707D01*
X80615Y-48469D01*
X80610Y-48445D01*
X80615Y-48421D01*
X80615Y-48392D01*
X80615Y-48154D01*
X80610Y-48130D01*
X80615Y-48106D01*
X80615Y-48077D01*
X80615Y-47839D01*
X80610Y-47815D01*
X80615Y-47791D01*
X80615Y-47762D01*
X80615Y-47525D01*
X80610Y-47496D01*
X80598Y-47468D01*
X80582Y-47444D01*
X80561Y-47423D01*
X80537Y-47407D01*
X80510Y-47395D01*
X80481Y-47389D01*
X80452Y-47389D01*
X80057Y-47389D01*
X80028Y-47395D01*
X80001Y-47406D01*
X79976Y-47422D01*
X79955Y-47443D01*
X79939Y-47468D01*
X79928Y-47495D01*
X79922Y-47523D01*
X79921Y-47553D01*
X79922Y-47790D01*
X79926Y-47815D01*
X79922Y-47838D01*
X79921Y-47868D01*
X79922Y-48105D01*
X79926Y-48130D01*
X79922Y-48153D01*
X79921Y-48183D01*
X79922Y-48420D01*
X79926Y-48445D01*
X79922Y-48468D01*
X79921Y-48498D01*
X79922Y-48735D01*
X79926Y-48760D01*
X79922Y-48783D01*
X79921Y-48813D01*
X79922Y-49050D01*
X79926Y-49075D01*
X79922Y-49098D01*
X79921Y-49128D01*
X79922Y-49365D01*
X79926Y-49390D01*
X79922Y-49413D01*
X79921Y-49443D01*
X79922Y-49662D01*
X79496Y-49662D01*
X79462Y-49627D01*
X79413Y-49594D01*
X79359Y-49572D01*
X79301Y-49560D01*
X79242Y-49559D01*
X79184Y-49570D01*
X79130Y-49592D01*
X79081Y-49625D01*
X79039Y-49666D01*
X79005Y-49714D01*
X78982Y-49768D01*
X78970Y-49826D01*
X78969Y-49885D01*
X78980Y-49943D01*
X79001Y-49997D01*
X79033Y-50047D01*
X79074Y-50089D01*
X79122Y-50123D01*
X79176Y-50146D01*
X79234Y-50159D01*
X79293Y-50160D01*
X79351Y-50150D01*
X79405Y-50129D01*
X79455Y-50097D01*
X79492Y-50062D01*
X79922Y-50062D01*
X79921Y-50073D01*
X79922Y-50310D01*
X79926Y-50335D01*
X79922Y-50358D01*
X79921Y-50388D01*
X79922Y-50625D01*
X79926Y-50650D01*
X79922Y-50673D01*
X79921Y-50702D01*
X79922Y-50940D01*
X79926Y-50965D01*
X79922Y-50988D01*
X79921Y-51017D01*
X79922Y-51255D01*
X79926Y-51280D01*
X79922Y-51303D01*
X79921Y-51332D01*
X79922Y-51570D01*
X79926Y-51595D01*
X79922Y-51618D01*
X79921Y-51647D01*
X79922Y-51885D01*
X79926Y-51909D01*
X79922Y-51933D01*
X79921Y-51962D01*
X79922Y-52200D01*
X79926Y-52224D01*
X79922Y-52248D01*
X79921Y-52277D01*
X79922Y-52515D01*
X79926Y-52539D01*
X79922Y-52563D01*
X79921Y-52592D01*
X79922Y-52743D01*
X79742Y-52744D01*
X79717Y-52748D01*
X79694Y-52744D01*
X79664Y-52743D01*
X79427Y-52744D01*
X79402Y-52748D01*
X79379Y-52744D01*
X79349Y-52743D01*
X79130Y-52744D01*
X79130Y-52393D01*
X79162Y-52348D01*
X79186Y-52295D01*
X79199Y-52237D01*
X79200Y-52170D01*
X79188Y-52112D01*
X79166Y-52058D01*
X79133Y-52009D01*
X79092Y-51967D01*
X79043Y-51934D01*
X78989Y-51912D01*
X78931Y-51900D01*
X78872Y-51899D01*
X78814Y-51910D01*
X78760Y-51932D01*
X78711Y-51965D01*
X78669Y-52006D01*
X78635Y-52054D01*
X78612Y-52108D01*
X78600Y-52166D01*
X78599Y-52216D01*
X78589Y-52212D01*
X78531Y-52200D01*
X78472Y-52199D01*
X78414Y-52210D01*
X78360Y-52232D01*
X78311Y-52265D01*
X78269Y-52306D01*
X78235Y-52354D01*
X78212Y-52408D01*
X78200Y-52466D01*
X78199Y-52517D01*
X78159Y-52558D01*
X78147Y-52572D01*
X78135Y-52586D01*
X78134Y-52587D01*
X78134Y-52588D01*
X78125Y-52604D01*
X78116Y-52620D01*
X78116Y-52621D01*
X78115Y-52622D01*
X78110Y-52640D01*
X78104Y-52657D01*
X78104Y-52659D01*
X78104Y-52660D01*
X78102Y-52678D01*
X78101Y-52690D01*
X77596Y-52185D01*
X77596Y-51280D01*
X77605Y-51274D01*
X77648Y-51233D01*
X77682Y-51185D01*
X77706Y-51132D01*
X77719Y-51074D01*
X77720Y-51007D01*
X77708Y-50949D01*
X77686Y-50895D01*
X77653Y-50846D01*
X77612Y-50804D01*
X77563Y-50771D01*
X77509Y-50749D01*
X77451Y-50737D01*
X77392Y-50736D01*
X77334Y-50747D01*
X77280Y-50769D01*
X77231Y-50802D01*
X77189Y-50843D01*
X77155Y-50891D01*
X77132Y-50945D01*
X77120Y-51003D01*
X77119Y-51062D01*
X77130Y-51120D01*
X77151Y-51174D01*
X77183Y-51224D01*
X77196Y-51236D01*
X77196Y-52268D01*
X77197Y-52286D01*
X77199Y-52304D01*
X77199Y-52305D01*
X77199Y-52306D01*
X77205Y-52324D01*
X77210Y-52342D01*
X77210Y-52343D01*
X77211Y-52344D01*
X77219Y-52360D01*
X77228Y-52376D01*
X77228Y-52377D01*
X77229Y-52378D01*
X77241Y-52393D01*
X77252Y-52407D01*
X77254Y-52408D01*
X77254Y-52408D01*
X77254Y-52408D01*
X77254Y-52409D01*
X77718Y-52873D01*
X77717Y-52878D01*
X77717Y-52907D01*
X77717Y-53302D01*
X77723Y-53331D01*
X77734Y-53358D01*
X77750Y-53383D01*
X77771Y-53403D01*
X77795Y-53420D01*
X77822Y-53431D01*
X77851Y-53437D01*
X77881Y-53437D01*
X78118Y-53437D01*
X78143Y-53432D01*
X78166Y-53437D01*
X78195Y-53437D01*
X78433Y-53437D01*
X78458Y-53432D01*
X78481Y-53437D01*
X78510Y-53437D01*
X78748Y-53437D01*
X78773Y-53432D01*
X78796Y-53437D01*
X78825Y-53437D01*
X79063Y-53437D01*
X79085Y-53433D01*
X79085Y-54283D01*
X79064Y-54291D01*
X79039Y-54308D01*
X79018Y-54328D01*
X79002Y-54353D01*
X78991Y-54380D01*
X78985Y-54409D01*
X78984Y-54438D01*
X78984Y-54639D01*
X78990Y-54668D01*
X79001Y-54695D01*
X79018Y-54720D01*
X79038Y-54741D01*
X79063Y-54757D01*
X79090Y-54768D01*
X79119Y-54774D01*
X79148Y-54775D01*
X79449Y-54775D01*
X79478Y-54769D01*
X79505Y-54758D01*
X79529Y-54742D01*
X79590Y-54802D01*
X79590Y-55027D01*
X79544Y-55072D01*
X79531Y-55058D01*
X79506Y-55042D01*
X79479Y-55031D01*
X79450Y-55025D01*
X79421Y-55024D01*
X79120Y-55024D01*
X79091Y-55030D01*
X79064Y-55041D01*
X79039Y-55058D01*
X79018Y-55078D01*
X79002Y-55103D01*
X78991Y-55130D01*
X78985Y-55159D01*
X78984Y-55188D01*
X78984Y-55389D01*
X78990Y-55418D01*
X79001Y-55445D01*
X79018Y-55470D01*
X79038Y-55491D01*
X79063Y-55507D01*
X79085Y-55516D01*
X79085Y-55600D01*
X79086Y-55618D01*
X79088Y-55636D01*
X79088Y-55637D01*
X79088Y-55638D01*
X79094Y-55656D01*
X79099Y-55674D01*
X79099Y-55675D01*
X79100Y-55676D01*
X79108Y-55692D01*
X79117Y-55708D01*
X79117Y-55709D01*
X79118Y-55710D01*
X79130Y-55725D01*
X79141Y-55739D01*
X79143Y-55740D01*
X79143Y-55740D01*
X79143Y-55740D01*
X79143Y-55741D01*
X79160Y-55758D01*
X79160Y-55767D01*
X79164Y-55815D01*
X79177Y-55862D01*
X79200Y-55906D01*
X79230Y-55944D01*
X79233Y-55946D01*
X80243Y-56956D01*
X80243Y-57085D01*
X80249Y-57114D01*
X80260Y-57141D01*
X80276Y-57166D01*
X80297Y-57187D01*
X80321Y-57203D01*
X80348Y-57215D01*
X80377Y-57221D01*
X80407Y-57221D01*
X80841Y-57221D01*
X80870Y-57215D01*
X80897Y-57204D01*
X80921Y-57188D01*
X80942Y-57167D01*
X80959Y-57142D01*
X80970Y-57115D01*
X80976Y-57086D01*
X80976Y-57057D01*
X80976Y-56584D01*
X80970Y-56555D01*
X80959Y-56528D01*
X80943Y-56503D01*
X80922Y-56482D01*
X80920Y-56480D01*
X80920Y-56251D01*
X80923Y-56246D01*
X80949Y-56188D01*
X80963Y-56125D01*
X80965Y-56053D01*
X80952Y-55990D01*
X80928Y-55931D01*
X80893Y-55878D01*
X80848Y-55833D01*
X80795Y-55797D01*
X80736Y-55773D01*
X80674Y-55760D01*
X80610Y-55759D01*
X80547Y-55771D01*
X80488Y-55795D01*
X80435Y-55830D01*
X80389Y-55875D01*
X80353Y-55927D01*
X80328Y-55986D01*
X80325Y-55992D01*
X80324Y-55994D01*
X80323Y-55995D01*
X80315Y-56023D01*
X80306Y-56050D01*
X80306Y-56052D01*
X80306Y-56053D01*
X80303Y-56082D01*
X80300Y-56110D01*
X80300Y-56113D01*
X80300Y-56113D01*
X80300Y-56113D01*
X80300Y-56115D01*
X80300Y-56306D01*
X79586Y-55593D01*
X79549Y-55562D01*
X79508Y-55540D01*
X79485Y-55517D01*
X79485Y-55516D01*
X79505Y-55508D01*
X79530Y-55491D01*
X79547Y-55475D01*
X79625Y-55475D01*
X79643Y-55473D01*
X79661Y-55471D01*
X79662Y-55471D01*
X79663Y-55471D01*
X79681Y-55465D01*
X79699Y-55460D01*
X79700Y-55460D01*
X79701Y-55459D01*
X79717Y-55451D01*
X79733Y-55442D01*
X79734Y-55442D01*
X79735Y-55441D01*
X79750Y-55429D01*
X79764Y-55418D01*
X79765Y-55416D01*
X79765Y-55416D01*
X79765Y-55416D01*
X79766Y-55416D01*
X79931Y-55251D01*
X79943Y-55237D01*
X79955Y-55222D01*
X79955Y-55222D01*
X79956Y-55221D01*
X79964Y-55205D01*
X79973Y-55188D01*
X79974Y-55187D01*
X79974Y-55186D01*
X79980Y-55169D01*
X79985Y-55151D01*
X79985Y-55150D01*
X79986Y-55149D01*
X79987Y-55131D01*
X79989Y-55112D01*
X79989Y-55110D01*
X79989Y-55110D01*
X79989Y-55110D01*
X79990Y-55110D01*
X79990Y-54720D01*
X79988Y-54701D01*
X79986Y-54683D01*
X79986Y-54682D01*
X79986Y-54681D01*
X79980Y-54663D01*
X79975Y-54645D01*
X79975Y-54644D01*
X79974Y-54643D01*
X79966Y-54627D01*
X79957Y-54611D01*
X79957Y-54610D01*
X79956Y-54609D01*
X79944Y-54594D01*
X79933Y-54580D01*
X79931Y-54579D01*
X79931Y-54579D01*
X79931Y-54579D01*
X79931Y-54578D01*
X79736Y-54383D01*
X79722Y-54371D01*
X79707Y-54359D01*
X79707Y-54359D01*
X79706Y-54358D01*
X79689Y-54350D01*
X79673Y-54341D01*
X79672Y-54340D01*
X79671Y-54340D01*
X79654Y-54334D01*
X79636Y-54329D01*
X79635Y-54329D01*
X79634Y-54328D01*
X79616Y-54327D01*
X79597Y-54325D01*
X79595Y-54325D01*
X79595Y-54325D01*
X79595Y-54325D01*
X79595Y-54325D01*
X79547Y-54325D01*
X79531Y-54308D01*
X79506Y-54292D01*
X79485Y-54283D01*
X79485Y-53557D01*
X80085Y-54157D01*
X80085Y-54283D01*
X80064Y-54291D01*
X80039Y-54308D01*
X80018Y-54328D01*
X80002Y-54353D01*
X79991Y-54380D01*
X79985Y-54409D01*
X79984Y-54438D01*
X79984Y-54639D01*
X79990Y-54668D01*
X80001Y-54695D01*
X80018Y-54720D01*
X80038Y-54741D01*
X80063Y-54757D01*
X80090Y-54768D01*
X80119Y-54774D01*
X80148Y-54775D01*
X80449Y-54775D01*
X80478Y-54769D01*
X80505Y-54758D01*
X80530Y-54741D01*
X80551Y-54721D01*
X80567Y-54696D01*
X80578Y-54669D01*
X80579Y-54668D01*
X80586Y-54668D01*
X80584Y-54671D01*
X80573Y-54698D01*
X80567Y-54727D01*
X80566Y-54757D01*
X80566Y-54915D01*
X80572Y-54944D01*
X80583Y-54971D01*
X80600Y-54995D01*
X80620Y-55016D01*
X80635Y-55026D01*
X80635Y-55090D01*
X80558Y-55090D01*
X80551Y-55079D01*
X80531Y-55058D01*
X80506Y-55042D01*
X80479Y-55031D01*
X80450Y-55025D01*
X80421Y-55024D01*
X80120Y-55024D01*
X80091Y-55030D01*
X80064Y-55041D01*
X80039Y-55058D01*
X80018Y-55078D01*
X80002Y-55103D01*
X79991Y-55130D01*
X79985Y-55159D01*
X79984Y-55188D01*
X79984Y-55389D01*
X79990Y-55418D01*
X80001Y-55445D01*
X80018Y-55470D01*
X80038Y-55491D01*
X80063Y-55507D01*
X80090Y-55518D01*
X80119Y-55524D01*
X80148Y-55525D01*
X80449Y-55525D01*
X80478Y-55519D01*
X80505Y-55508D01*
X80530Y-55491D01*
X80532Y-55490D01*
X80663Y-55490D01*
X80672Y-55503D01*
X80693Y-55524D01*
X80717Y-55540D01*
X80744Y-55551D01*
X80773Y-55557D01*
X80803Y-55558D01*
X80961Y-55558D01*
X80990Y-55552D01*
X81017Y-55541D01*
X81041Y-55524D01*
X81062Y-55504D01*
X81079Y-55479D01*
X81090Y-55452D01*
X81096Y-55423D01*
X81096Y-55394D01*
X81096Y-55157D01*
X81090Y-55128D01*
X81079Y-55101D01*
X81063Y-55076D01*
X81042Y-55055D01*
X81035Y-55050D01*
X81035Y-55026D01*
X81041Y-55022D01*
X81138Y-55022D01*
X81155Y-55033D01*
X81182Y-55044D01*
X81211Y-55050D01*
X81240Y-55050D01*
X81477Y-55050D01*
X81506Y-55044D01*
X81533Y-55033D01*
X81558Y-55017D01*
X81579Y-54996D01*
X81595Y-54972D01*
X81606Y-54945D01*
X81612Y-54916D01*
X81613Y-54886D01*
X81613Y-54825D01*
X81613Y-54825D01*
X81633Y-54846D01*
X81658Y-54862D01*
X81685Y-54873D01*
X81714Y-54879D01*
X81743Y-54880D01*
X82294Y-54880D01*
X82323Y-54874D01*
X82350Y-54863D01*
X82375Y-54846D01*
X82396Y-54826D01*
X82412Y-54801D01*
X82423Y-54774D01*
X82428Y-54755D01*
X82845Y-54755D01*
X82863Y-54753D01*
X82881Y-54751D01*
X82882Y-54751D01*
X82883Y-54751D01*
X82901Y-54745D01*
X82919Y-54740D01*
X82920Y-54740D01*
X82921Y-54739D01*
X82937Y-54731D01*
X82953Y-54722D01*
X82954Y-54722D01*
X82955Y-54721D01*
X82970Y-54709D01*
X82984Y-54698D01*
X82985Y-54696D01*
X82985Y-54696D01*
X82985Y-54696D01*
X82986Y-54696D01*
X83733Y-53949D01*
X83896Y-53949D01*
X83925Y-53943D01*
X83952Y-53932D01*
X83977Y-53915D01*
X83998Y-53895D01*
X84014Y-53870D01*
X84017Y-53864D01*
X84017Y-53864D01*
G37*
G54D31*
X84017Y-53864D02*
X83851Y-54411D01*
X83271Y-55502D01*
X82491Y-56459D01*
X81539Y-57247D01*
X80452Y-57834D01*
X79608Y-58096D01*
X79608Y-57147D01*
X79590Y-57054D01*
X79554Y-56966D01*
X79501Y-56887D01*
X79434Y-56820D01*
X79355Y-56766D01*
X79268Y-56730D01*
X79175Y-56711D01*
X79080Y-56710D01*
X79057Y-56714D01*
X79057Y-56323D01*
X79047Y-56273D01*
X79028Y-56227D01*
X79000Y-56184D01*
X78964Y-56148D01*
X78922Y-56120D01*
X78875Y-56100D01*
X78826Y-56090D01*
X78775Y-56090D01*
X78752Y-56094D01*
X78752Y-55861D01*
X78746Y-55832D01*
X78745Y-55829D01*
X78745Y-54283D01*
X78745Y-53888D01*
X78739Y-53859D01*
X78728Y-53832D01*
X78712Y-53807D01*
X78691Y-53787D01*
X78666Y-53770D01*
X78639Y-53759D01*
X78611Y-53753D01*
X78581Y-53753D01*
X78178Y-53753D01*
X77992Y-53609D01*
X77841Y-53458D01*
X77827Y-53446D01*
X77812Y-53434D01*
X77812Y-53434D01*
X77811Y-53433D01*
X77794Y-53425D01*
X77778Y-53416D01*
X77777Y-53415D01*
X77776Y-53415D01*
X77759Y-53409D01*
X77741Y-53404D01*
X77740Y-53404D01*
X77739Y-53403D01*
X77721Y-53402D01*
X77702Y-53400D01*
X77700Y-53400D01*
X77700Y-53400D01*
X77700Y-53400D01*
X77700Y-53400D01*
X77573Y-53400D01*
X77589Y-53383D01*
X77606Y-53359D01*
X77617Y-53332D01*
X77623Y-53303D01*
X77623Y-53274D01*
X77623Y-52879D01*
X77617Y-52850D01*
X77606Y-52823D01*
X77590Y-52798D01*
X77569Y-52777D01*
X77545Y-52761D01*
X77518Y-52750D01*
X77489Y-52744D01*
X77459Y-52743D01*
X77222Y-52744D01*
X77197Y-52748D01*
X77174Y-52744D01*
X77145Y-52743D01*
X76907Y-52744D01*
X76882Y-52748D01*
X76859Y-52744D01*
X76830Y-52743D01*
X76592Y-52744D01*
X76567Y-52748D01*
X76544Y-52744D01*
X76515Y-52743D01*
X76277Y-52744D01*
X76248Y-52749D01*
X76221Y-52760D01*
X76197Y-52777D01*
X76176Y-52797D01*
X76159Y-52822D01*
X76148Y-52849D01*
X76142Y-52878D01*
X76142Y-52907D01*
X76142Y-53302D01*
X76148Y-53331D01*
X76159Y-53358D01*
X76175Y-53383D01*
X76192Y-53400D01*
X75682Y-53400D01*
X75300Y-53017D01*
X75300Y-52400D01*
X75298Y-52381D01*
X75296Y-52363D01*
X75296Y-52362D01*
X75296Y-52361D01*
X75290Y-52343D01*
X75285Y-52325D01*
X75285Y-52324D01*
X75284Y-52323D01*
X75276Y-52307D01*
X75267Y-52291D01*
X75267Y-52290D01*
X75266Y-52289D01*
X75254Y-52274D01*
X75243Y-52260D01*
X75241Y-52259D01*
X75241Y-52259D01*
X75241Y-52259D01*
X75241Y-52258D01*
X74960Y-51977D01*
X74946Y-51965D01*
X74931Y-51953D01*
X74931Y-51953D01*
X74930Y-51952D01*
X74913Y-51944D01*
X74897Y-51935D01*
X74896Y-51934D01*
X74895Y-51934D01*
X74878Y-51928D01*
X74860Y-51923D01*
X74859Y-51923D01*
X74858Y-51923D01*
X74847Y-51905D01*
X74826Y-51884D01*
X74802Y-51868D01*
X74775Y-51857D01*
X74746Y-51851D01*
X74716Y-51850D01*
X74558Y-51850D01*
X74529Y-51856D01*
X74502Y-51867D01*
X74485Y-51879D01*
X74483Y-51871D01*
X74483Y-51870D01*
X74482Y-51869D01*
X74474Y-51853D01*
X74465Y-51837D01*
X74465Y-51836D01*
X74464Y-51835D01*
X74452Y-51820D01*
X74441Y-51806D01*
X74439Y-51805D01*
X74439Y-51805D01*
X74439Y-51805D01*
X74439Y-51804D01*
X74341Y-51706D01*
X74343Y-51701D01*
X74349Y-51672D01*
X74349Y-51643D01*
X74349Y-51430D01*
X74360Y-51441D01*
X74365Y-51466D01*
X74376Y-51493D01*
X74393Y-51517D01*
X74413Y-51538D01*
X74438Y-51555D01*
X74465Y-51566D01*
X74494Y-51572D01*
X74523Y-51572D01*
X74760Y-51572D01*
X74789Y-51566D01*
X74816Y-51555D01*
X74841Y-51539D01*
X74862Y-51518D01*
X74878Y-51494D01*
X74889Y-51467D01*
X74895Y-51438D01*
X74896Y-51408D01*
X74896Y-51309D01*
X74924Y-51339D01*
X74972Y-51373D01*
X75026Y-51396D01*
X75084Y-51409D01*
X75143Y-51410D01*
X75201Y-51400D01*
X75255Y-51379D01*
X75305Y-51347D01*
X75331Y-51322D01*
X75355Y-51322D01*
X75355Y-51332D01*
X75355Y-51570D01*
X75360Y-51595D01*
X75355Y-51618D01*
X75355Y-51647D01*
X75355Y-51885D01*
X75360Y-51909D01*
X75355Y-51933D01*
X75355Y-51962D01*
X75355Y-52200D01*
X75360Y-52224D01*
X75355Y-52248D01*
X75355Y-52277D01*
X75355Y-52515D01*
X75360Y-52539D01*
X75355Y-52563D01*
X75355Y-52592D01*
X75355Y-52830D01*
X75360Y-52858D01*
X75372Y-52886D01*
X75388Y-52910D01*
X75409Y-52931D01*
X75433Y-52947D01*
X75460Y-52959D01*
X75489Y-52965D01*
X75518Y-52965D01*
X75913Y-52965D01*
X75942Y-52959D01*
X75969Y-52948D01*
X75994Y-52932D01*
X76014Y-52911D01*
X76031Y-52887D01*
X76042Y-52859D01*
X76048Y-52831D01*
X76048Y-52801D01*
X76048Y-52564D01*
X76043Y-52539D01*
X76048Y-52516D01*
X76048Y-52486D01*
X76048Y-52249D01*
X76043Y-52224D01*
X76048Y-52201D01*
X76048Y-52171D01*
X76048Y-51934D01*
X76043Y-51909D01*
X76048Y-51886D01*
X76048Y-51856D01*
X76048Y-51619D01*
X76043Y-51594D01*
X76048Y-51571D01*
X76048Y-51541D01*
X76048Y-51304D01*
X76043Y-51279D01*
X76048Y-51256D01*
X76048Y-51226D01*
X76048Y-51160D01*
X76086Y-51176D01*
X76144Y-51189D01*
X76203Y-51190D01*
X76261Y-51180D01*
X76315Y-51159D01*
X76365Y-51127D01*
X76408Y-51086D01*
X76442Y-51038D01*
X76466Y-50985D01*
X76479Y-50927D01*
X76480Y-50860D01*
X76468Y-50802D01*
X76446Y-50748D01*
X76413Y-50699D01*
X76372Y-50657D01*
X76323Y-50624D01*
X76269Y-50602D01*
X76211Y-50590D01*
X76152Y-50589D01*
X76094Y-50600D01*
X76078Y-50607D01*
X76048Y-50607D01*
X76048Y-50596D01*
X76048Y-50359D01*
X76043Y-50334D01*
X76048Y-50311D01*
X76048Y-50281D01*
X76048Y-50062D01*
X76109Y-50062D01*
X76410Y-50363D01*
X76409Y-50405D01*
X76420Y-50463D01*
X76441Y-50517D01*
X76473Y-50567D01*
X76514Y-50609D01*
X76562Y-50643D01*
X76616Y-50666D01*
X76674Y-50679D01*
X76733Y-50680D01*
X76791Y-50670D01*
X76845Y-50649D01*
X76895Y-50617D01*
X76938Y-50576D01*
X76972Y-50528D01*
X76996Y-50475D01*
X77009Y-50417D01*
X77010Y-50350D01*
X76998Y-50292D01*
X76976Y-50238D01*
X76943Y-50189D01*
X76902Y-50147D01*
X76853Y-50114D01*
X76799Y-50092D01*
X76741Y-50080D01*
X76692Y-50079D01*
X76333Y-49721D01*
X76319Y-49709D01*
X76305Y-49697D01*
X76304Y-49697D01*
X76303Y-49696D01*
X76287Y-49687D01*
X76271Y-49678D01*
X76270Y-49678D01*
X76269Y-49677D01*
X76251Y-49672D01*
X76234Y-49666D01*
X76233Y-49666D01*
X76232Y-49666D01*
X76213Y-49664D01*
X76195Y-49662D01*
X76193Y-49662D01*
X76193Y-49662D01*
X76193Y-49662D01*
X76192Y-49662D01*
X76024Y-49662D01*
X76015Y-49649D01*
X75994Y-49628D01*
X75970Y-49611D01*
X75943Y-49600D01*
X75914Y-49594D01*
X75885Y-49594D01*
X75490Y-49594D01*
X75461Y-49600D01*
X75434Y-49611D01*
X75409Y-49627D01*
X75389Y-49648D01*
X75373Y-49671D01*
X75372Y-49663D01*
X75361Y-49636D01*
X75344Y-49612D01*
X75341Y-49609D01*
X75344Y-49606D01*
X75360Y-49582D01*
X75371Y-49555D01*
X75377Y-49526D01*
X75378Y-49496D01*
X75378Y-49430D01*
X75388Y-49446D01*
X75409Y-49466D01*
X75433Y-49483D01*
X75460Y-49494D01*
X75489Y-49500D01*
X75518Y-49500D01*
X75913Y-49500D01*
X75942Y-49495D01*
X75969Y-49483D01*
X75994Y-49467D01*
X76014Y-49446D01*
X76031Y-49422D01*
X76042Y-49395D01*
X76048Y-49366D01*
X76048Y-49337D01*
X76048Y-49099D01*
X76043Y-49074D01*
X76048Y-49051D01*
X76048Y-49022D01*
X76048Y-48784D01*
X76043Y-48760D01*
X76048Y-48736D01*
X76048Y-48707D01*
X76048Y-48469D01*
X76043Y-48445D01*
X76048Y-48421D01*
X76048Y-48392D01*
X76048Y-48154D01*
X76043Y-48130D01*
X76048Y-48106D01*
X76048Y-48077D01*
X76048Y-47839D01*
X76043Y-47815D01*
X76048Y-47791D01*
X76048Y-47762D01*
X76048Y-47525D01*
X76043Y-47496D01*
X76031Y-47468D01*
X76015Y-47444D01*
X75994Y-47423D01*
X75970Y-47407D01*
X75943Y-47395D01*
X75914Y-47389D01*
X75885Y-47389D01*
X75490Y-47389D01*
X75461Y-47395D01*
X75434Y-47406D01*
X75409Y-47422D01*
X75389Y-47443D01*
X75372Y-47468D01*
X75361Y-47495D01*
X75355Y-47523D01*
X75355Y-47553D01*
X75355Y-47790D01*
X75360Y-47815D01*
X75355Y-47838D01*
X75355Y-47868D01*
X75355Y-47911D01*
X75353Y-47909D01*
X75312Y-47867D01*
X75263Y-47834D01*
X75209Y-47812D01*
X75151Y-47800D01*
X75092Y-47799D01*
X75034Y-47810D01*
X74980Y-47832D01*
X74969Y-47840D01*
X74793Y-47840D01*
X74794Y-47826D01*
X74808Y-47817D01*
X74829Y-47796D01*
X74845Y-47772D01*
X74856Y-47745D01*
X74862Y-47716D01*
X74863Y-47686D01*
X74863Y-47528D01*
X74857Y-47499D01*
X74846Y-47472D01*
X74829Y-47448D01*
X74809Y-47427D01*
X74784Y-47410D01*
X74757Y-47399D01*
X74728Y-47393D01*
X74699Y-47393D01*
X74462Y-47393D01*
X74433Y-47399D01*
X74406Y-47410D01*
X74381Y-47426D01*
X74360Y-47447D01*
X74344Y-47471D01*
X74333Y-47498D01*
X74327Y-47527D01*
X74326Y-47557D01*
X74326Y-47715D01*
X74332Y-47744D01*
X74343Y-47771D01*
X74351Y-47782D01*
X74233Y-47899D01*
X74221Y-47913D01*
X74209Y-47928D01*
X74209Y-47928D01*
X74208Y-47929D01*
X74200Y-47946D01*
X74191Y-47962D01*
X74190Y-47963D01*
X74190Y-47964D01*
X74184Y-47981D01*
X74179Y-47999D01*
X74179Y-48000D01*
X74178Y-48001D01*
X74177Y-48019D01*
X74175Y-48038D01*
X74175Y-48040D01*
X74175Y-48040D01*
X74175Y-48040D01*
X74175Y-48041D01*
X74175Y-48197D01*
X74172Y-48204D01*
X74166Y-48233D01*
X74165Y-48262D01*
X74165Y-48775D01*
X74171Y-48804D01*
X74182Y-48831D01*
X74199Y-48856D01*
X74219Y-48877D01*
X74244Y-48893D01*
X74271Y-48904D01*
X74300Y-48910D01*
X74329Y-48911D01*
X74448Y-48911D01*
X74477Y-48905D01*
X74502Y-48894D01*
X74526Y-48904D01*
X74555Y-48910D01*
X74584Y-48911D01*
X74703Y-48911D01*
X74732Y-48905D01*
X74759Y-48894D01*
X74784Y-48877D01*
X74790Y-48871D01*
X74910Y-48991D01*
X74910Y-49227D01*
X74896Y-49236D01*
X74875Y-49257D01*
X74859Y-49281D01*
X74848Y-49308D01*
X74842Y-49337D01*
X74841Y-49367D01*
X74841Y-49525D01*
X74847Y-49554D01*
X74858Y-49581D01*
X74875Y-49605D01*
X74878Y-49608D01*
X74875Y-49611D01*
X74859Y-49635D01*
X74848Y-49662D01*
X74842Y-49691D01*
X74841Y-49721D01*
X74841Y-49879D01*
X74847Y-49908D01*
X74858Y-49935D01*
X74875Y-49959D01*
X74895Y-49980D01*
X74910Y-49990D01*
X74910Y-50399D01*
X74839Y-50470D01*
X74839Y-50434D01*
X74833Y-50405D01*
X74822Y-50378D01*
X74805Y-50353D01*
X74785Y-50332D01*
X74760Y-50316D01*
X74733Y-50305D01*
X74704Y-50299D01*
X74675Y-50298D01*
X74556Y-50298D01*
X74527Y-50304D01*
X74502Y-50315D01*
X74478Y-50305D01*
X74449Y-50299D01*
X74420Y-50298D01*
X74301Y-50298D01*
X74272Y-50304D01*
X74247Y-50315D01*
X74223Y-50305D01*
X74194Y-50299D01*
X74165Y-50298D01*
X74046Y-50298D01*
X74017Y-50304D01*
X73990Y-50315D01*
X73965Y-50332D01*
X73944Y-50352D01*
X73928Y-50377D01*
X73917Y-50404D01*
X73911Y-50433D01*
X73910Y-50462D01*
X73910Y-50975D01*
X73913Y-50990D01*
X73831Y-50990D01*
X73818Y-50977D01*
X73818Y-50976D01*
X73819Y-50947D01*
X73819Y-50434D01*
X73813Y-50405D01*
X73802Y-50378D01*
X73785Y-50353D01*
X73765Y-50332D01*
X73740Y-50316D01*
X73713Y-50305D01*
X73684Y-50299D01*
X73655Y-50298D01*
X73536Y-50298D01*
X73507Y-50304D01*
X73480Y-50315D01*
X73479Y-50316D01*
X73453Y-50305D01*
X73424Y-50299D01*
X73395Y-50298D01*
X73276Y-50298D01*
X73247Y-50304D01*
X73224Y-50313D01*
X73203Y-50305D01*
X73174Y-50299D01*
X73145Y-50298D01*
X73026Y-50298D01*
X72997Y-50304D01*
X72970Y-50315D01*
X72945Y-50332D01*
X72924Y-50352D01*
X72908Y-50377D01*
X72897Y-50404D01*
X72891Y-50433D01*
X72890Y-50462D01*
X72890Y-50631D01*
X72588Y-50933D01*
X72576Y-50947D01*
X72564Y-50962D01*
X72564Y-50962D01*
X72563Y-50963D01*
X72555Y-50980D01*
X72546Y-50996D01*
X72545Y-50997D01*
X72545Y-50998D01*
X72539Y-51015D01*
X72534Y-51033D01*
X72534Y-51034D01*
X72533Y-51035D01*
X72532Y-51053D01*
X72530Y-51072D01*
X72530Y-51074D01*
X72530Y-51074D01*
X72530Y-51074D01*
X72530Y-51075D01*
X72530Y-51118D01*
X72516Y-51127D01*
X72515Y-51129D01*
X72397Y-51129D01*
X72380Y-51117D01*
X72353Y-51106D01*
X72324Y-51100D01*
X72295Y-51100D01*
X72058Y-51100D01*
X72029Y-51106D01*
X72002Y-51117D01*
X71977Y-51133D01*
X71956Y-51154D01*
X71940Y-51178D01*
X71929Y-51205D01*
X71923Y-51234D01*
X71922Y-51264D01*
X71922Y-51422D01*
X71928Y-51451D01*
X71939Y-51478D01*
X71956Y-51502D01*
X71976Y-51523D01*
X72001Y-51540D01*
X72028Y-51551D01*
X72057Y-51557D01*
X72086Y-51557D01*
X72323Y-51557D01*
X72352Y-51551D01*
X72379Y-51540D01*
X72397Y-51529D01*
X72478Y-51529D01*
X72468Y-51553D01*
X72462Y-51582D01*
X72461Y-51612D01*
X72461Y-51770D01*
X72467Y-51799D01*
X72478Y-51826D01*
X72495Y-51850D01*
X72515Y-51871D01*
X72540Y-51888D01*
X72563Y-51897D01*
X72563Y-51913D01*
X72551Y-51930D01*
X72540Y-51957D01*
X72534Y-51986D01*
X72534Y-52015D01*
X72534Y-52252D01*
X72540Y-52281D01*
X72551Y-52308D01*
X72561Y-52324D01*
X72527Y-52324D01*
X72498Y-52330D01*
X72471Y-52341D01*
X72453Y-52353D01*
X72374Y-52353D01*
X72374Y-52352D01*
X72349Y-52335D01*
X72322Y-52324D01*
X72293Y-52318D01*
X72264Y-52318D01*
X72027Y-52318D01*
X71998Y-52324D01*
X71971Y-52335D01*
X71946Y-52351D01*
X71925Y-52372D01*
X71909Y-52396D01*
X71898Y-52423D01*
X71892Y-52452D01*
X71891Y-52482D01*
X71891Y-52640D01*
X71897Y-52669D01*
X71908Y-52696D01*
X71925Y-52720D01*
X71945Y-52741D01*
X71970Y-52758D01*
X71997Y-52769D01*
X72026Y-52775D01*
X72055Y-52775D01*
X72292Y-52775D01*
X72321Y-52769D01*
X72348Y-52758D01*
X72357Y-52753D01*
X72411Y-52753D01*
X72409Y-52756D01*
X72398Y-52783D01*
X72392Y-52812D01*
X72391Y-52842D01*
X72391Y-52867D01*
X72343Y-52834D01*
X72289Y-52812D01*
X72231Y-52800D01*
X72172Y-52799D01*
X72114Y-52810D01*
X72060Y-52832D01*
X72011Y-52865D01*
X71969Y-52906D01*
X71935Y-52954D01*
X71912Y-53008D01*
X71900Y-53066D01*
X71899Y-53125D01*
X71910Y-53183D01*
X71931Y-53237D01*
X71963Y-53287D01*
X72000Y-53324D01*
X72000Y-53500D01*
X72001Y-53518D01*
X72003Y-53536D01*
X72003Y-53537D01*
X72003Y-53538D01*
X72009Y-53556D01*
X72014Y-53574D01*
X72014Y-53575D01*
X72015Y-53576D01*
X72023Y-53592D01*
X72032Y-53608D01*
X72032Y-53609D01*
X72033Y-53610D01*
X72045Y-53625D01*
X72056Y-53639D01*
X72058Y-53640D01*
X72058Y-53640D01*
X72058Y-53640D01*
X72058Y-53641D01*
X72225Y-53808D01*
X72239Y-53820D01*
X72254Y-53832D01*
X72254Y-53832D01*
X72255Y-53833D01*
X72272Y-53841D01*
X72288Y-53850D01*
X72289Y-53851D01*
X72290Y-53851D01*
X72307Y-53857D01*
X72325Y-53862D01*
X72326Y-53862D01*
X72327Y-53863D01*
X72345Y-53864D01*
X72364Y-53866D01*
X72366Y-53866D01*
X72366Y-53866D01*
X72366Y-53866D01*
X72367Y-53867D01*
X72400Y-53867D01*
X72463Y-53867D01*
X72480Y-53878D01*
X72507Y-53889D01*
X72536Y-53895D01*
X72565Y-53895D01*
X72802Y-53895D01*
X72831Y-53889D01*
X72858Y-53878D01*
X72883Y-53862D01*
X72904Y-53841D01*
X72920Y-53817D01*
X72935Y-53840D01*
X72955Y-53861D01*
X72980Y-53878D01*
X73007Y-53889D01*
X73036Y-53895D01*
X73065Y-53895D01*
X73302Y-53895D01*
X73331Y-53889D01*
X73358Y-53878D01*
X73376Y-53867D01*
X73458Y-53867D01*
X73471Y-53876D01*
X73525Y-53899D01*
X73583Y-53912D01*
X73642Y-53913D01*
X73700Y-53903D01*
X73754Y-53882D01*
X73804Y-53850D01*
X73847Y-53809D01*
X73881Y-53761D01*
X73905Y-53708D01*
X73918Y-53650D01*
X73919Y-53583D01*
X73907Y-53525D01*
X73885Y-53471D01*
X73866Y-53443D01*
X73935Y-53512D01*
X73937Y-53523D01*
X73948Y-53550D01*
X73965Y-53574D01*
X73985Y-53595D01*
X74010Y-53612D01*
X74037Y-53623D01*
X74066Y-53629D01*
X74095Y-53629D01*
X74332Y-53629D01*
X74361Y-53623D01*
X74388Y-53612D01*
X74406Y-53601D01*
X74689Y-53601D01*
X75380Y-54164D01*
X75380Y-54637D01*
X75386Y-54666D01*
X75397Y-54693D01*
X75413Y-54718D01*
X75434Y-54739D01*
X75458Y-54755D01*
X75485Y-54767D01*
X75514Y-54773D01*
X75543Y-54773D01*
X76084Y-54773D01*
X76113Y-54767D01*
X76140Y-54756D01*
X76164Y-54740D01*
X76185Y-54719D01*
X76202Y-54694D01*
X76213Y-54667D01*
X76219Y-54638D01*
X76219Y-54609D01*
X76219Y-53800D01*
X77617Y-53800D01*
X77718Y-53901D01*
X77727Y-53908D01*
X77735Y-53916D01*
X77737Y-53918D01*
X77854Y-54008D01*
X77854Y-54311D01*
X77860Y-54340D01*
X77871Y-54367D01*
X77887Y-54392D01*
X77908Y-54412D01*
X77933Y-54429D01*
X77960Y-54440D01*
X77988Y-54446D01*
X78018Y-54446D01*
X78609Y-54446D01*
X78638Y-54441D01*
X78666Y-54429D01*
X78690Y-54413D01*
X78711Y-54392D01*
X78727Y-54368D01*
X78739Y-54341D01*
X78745Y-54312D01*
X78745Y-54283D01*
X78745Y-55829D01*
X78735Y-55805D01*
X78719Y-55781D01*
X78698Y-55760D01*
X78674Y-55743D01*
X78647Y-55732D01*
X78618Y-55726D01*
X78588Y-55726D01*
X78430Y-55726D01*
X78401Y-55732D01*
X78374Y-55743D01*
X78349Y-55759D01*
X78328Y-55780D01*
X78312Y-55804D01*
X78301Y-55831D01*
X78295Y-55860D01*
X78294Y-55890D01*
X78295Y-56422D01*
X78300Y-56451D01*
X78311Y-56478D01*
X78328Y-56503D01*
X78348Y-56524D01*
X78373Y-56540D01*
X78400Y-56551D01*
X78429Y-56557D01*
X78458Y-56558D01*
X78617Y-56557D01*
X78640Y-56553D01*
X78672Y-56575D01*
X78718Y-56595D01*
X78768Y-56606D01*
X78818Y-56607D01*
X78868Y-56598D01*
X78916Y-56580D01*
X78958Y-56553D01*
X78995Y-56518D01*
X79024Y-56477D01*
X79045Y-56430D01*
X79056Y-56381D01*
X79057Y-56323D01*
X79057Y-56714D01*
X78986Y-56728D01*
X78898Y-56763D01*
X78819Y-56815D01*
X78751Y-56882D01*
X78697Y-56960D01*
X78660Y-57048D01*
X78640Y-57141D01*
X78638Y-57236D01*
X78656Y-57329D01*
X78691Y-57417D01*
X78742Y-57497D01*
X78808Y-57566D01*
X78886Y-57620D01*
X78973Y-57658D01*
X79066Y-57678D01*
X79161Y-57680D01*
X79255Y-57664D01*
X79343Y-57630D01*
X79424Y-57579D01*
X79492Y-57513D01*
X79547Y-57435D01*
X79586Y-57349D01*
X79607Y-57256D01*
X79608Y-57147D01*
X79608Y-58096D01*
X79272Y-58200D01*
X78240Y-58308D01*
X78240Y-56394D01*
X78240Y-55861D01*
X78235Y-55832D01*
X78223Y-55805D01*
X78207Y-55781D01*
X78186Y-55760D01*
X78162Y-55743D01*
X78135Y-55732D01*
X78106Y-55726D01*
X78077Y-55726D01*
X77918Y-55726D01*
X77889Y-55732D01*
X77884Y-55734D01*
X77879Y-55732D01*
X77850Y-55726D01*
X77821Y-55726D01*
X77700Y-55726D01*
X77700Y-55450D01*
X77700Y-55449D01*
X77700Y-54910D01*
X77694Y-54881D01*
X77683Y-54854D01*
X77666Y-54829D01*
X77646Y-54808D01*
X77621Y-54792D01*
X77594Y-54781D01*
X77565Y-54775D01*
X77536Y-54774D01*
X77185Y-54774D01*
X77156Y-54780D01*
X77129Y-54791D01*
X77104Y-54808D01*
X77083Y-54828D01*
X77067Y-54853D01*
X77056Y-54880D01*
X77050Y-54909D01*
X77049Y-54938D01*
X77049Y-55489D01*
X77055Y-55518D01*
X77066Y-55545D01*
X77083Y-55570D01*
X77103Y-55591D01*
X77128Y-55607D01*
X77155Y-55618D01*
X77184Y-55624D01*
X77213Y-55625D01*
X77300Y-55625D01*
X77300Y-55691D01*
X77298Y-55690D01*
X77280Y-55685D01*
X77279Y-55685D01*
X77278Y-55684D01*
X77260Y-55683D01*
X77248Y-55681D01*
X77240Y-55674D01*
X77197Y-55651D01*
X77150Y-55636D01*
X77102Y-55631D01*
X77099Y-55631D01*
X76900Y-55631D01*
X76798Y-55631D01*
X76241Y-55631D01*
X76238Y-55631D01*
X76166Y-55476D01*
X76167Y-55471D01*
X76168Y-55441D01*
X76168Y-55283D01*
X76162Y-55254D01*
X76151Y-55227D01*
X76134Y-55203D01*
X76114Y-55182D01*
X76089Y-55165D01*
X76062Y-55154D01*
X76033Y-55148D01*
X76004Y-55148D01*
X75767Y-55148D01*
X75738Y-55154D01*
X75711Y-55165D01*
X75697Y-55174D01*
X75550Y-55172D01*
X75561Y-55146D01*
X75567Y-55117D01*
X75568Y-55087D01*
X75568Y-54929D01*
X75562Y-54900D01*
X75551Y-54873D01*
X75534Y-54849D01*
X75514Y-54828D01*
X75489Y-54811D01*
X75462Y-54800D01*
X75437Y-54795D01*
X75435Y-54792D01*
X75433Y-54790D01*
X74987Y-54344D01*
X74989Y-54337D01*
X74990Y-54270D01*
X74978Y-54212D01*
X74956Y-54158D01*
X74923Y-54109D01*
X74882Y-54067D01*
X74833Y-54034D01*
X74779Y-54012D01*
X74721Y-54000D01*
X74662Y-53999D01*
X74604Y-54010D01*
X74550Y-54032D01*
X74501Y-54065D01*
X74459Y-54106D01*
X74425Y-54154D01*
X74402Y-54208D01*
X74390Y-54266D01*
X74389Y-54325D01*
X74400Y-54383D01*
X74421Y-54437D01*
X74453Y-54487D01*
X74494Y-54529D01*
X74542Y-54563D01*
X74596Y-54586D01*
X74654Y-54599D01*
X74676Y-54599D01*
X75031Y-54954D01*
X75031Y-54958D01*
X75031Y-55116D01*
X75037Y-55145D01*
X75048Y-55172D01*
X75065Y-55196D01*
X75068Y-55199D01*
X75065Y-55202D01*
X75049Y-55226D01*
X75038Y-55253D01*
X75032Y-55282D01*
X75031Y-55312D01*
X75031Y-55470D01*
X75037Y-55499D01*
X75048Y-55526D01*
X75065Y-55550D01*
X75085Y-55571D01*
X75110Y-55588D01*
X75137Y-55599D01*
X75166Y-55605D01*
X75195Y-55605D01*
X75432Y-55605D01*
X75461Y-55599D01*
X75488Y-55588D01*
X75512Y-55572D01*
X75690Y-55574D01*
X75710Y-55588D01*
X75737Y-55599D01*
X75766Y-55605D01*
X75785Y-55605D01*
X75815Y-55669D01*
X75505Y-55669D01*
X75476Y-55675D01*
X75449Y-55686D01*
X75424Y-55703D01*
X75403Y-55723D01*
X75387Y-55748D01*
X75376Y-55775D01*
X75370Y-55800D01*
X75324Y-55800D01*
X75292Y-55767D01*
X75243Y-55734D01*
X75189Y-55712D01*
X75131Y-55700D01*
X75072Y-55699D01*
X75014Y-55710D01*
X74960Y-55732D01*
X74911Y-55765D01*
X74905Y-55771D01*
X74905Y-55765D01*
X74899Y-55736D01*
X74888Y-55709D01*
X74871Y-55684D01*
X74851Y-55663D01*
X74826Y-55647D01*
X74799Y-55636D01*
X74797Y-55635D01*
X74852Y-55635D01*
X74881Y-55629D01*
X74908Y-55618D01*
X74933Y-55602D01*
X74954Y-55581D01*
X74970Y-55557D01*
X74981Y-55530D01*
X74987Y-55501D01*
X74988Y-55471D01*
X74988Y-55313D01*
X74982Y-55284D01*
X74971Y-55257D01*
X74954Y-55233D01*
X74934Y-55212D01*
X74909Y-55195D01*
X74882Y-55184D01*
X74853Y-55178D01*
X74824Y-55178D01*
X74587Y-55178D01*
X74558Y-55184D01*
X74531Y-55195D01*
X74513Y-55207D01*
X74470Y-55207D01*
X74470Y-54925D01*
X74464Y-54896D01*
X74453Y-54869D01*
X74436Y-54844D01*
X74416Y-54823D01*
X74391Y-54807D01*
X74364Y-54796D01*
X74335Y-54790D01*
X74306Y-54789D01*
X73955Y-54789D01*
X73926Y-54795D01*
X73899Y-54806D01*
X73874Y-54823D01*
X73853Y-54843D01*
X73837Y-54868D01*
X73826Y-54895D01*
X73820Y-54924D01*
X73819Y-54953D01*
X73819Y-55504D01*
X73825Y-55533D01*
X73836Y-55560D01*
X73853Y-55585D01*
X73873Y-55606D01*
X73898Y-55622D01*
X73915Y-55629D01*
X73640Y-55629D01*
X73611Y-55635D01*
X73595Y-55642D01*
X73595Y-55637D01*
X73613Y-55634D01*
X73640Y-55623D01*
X73665Y-55606D01*
X73686Y-55586D01*
X73702Y-55561D01*
X73713Y-55534D01*
X73719Y-55505D01*
X73720Y-55476D01*
X73720Y-54925D01*
X73714Y-54896D01*
X73703Y-54869D01*
X73686Y-54844D01*
X73666Y-54823D01*
X73641Y-54807D01*
X73614Y-54796D01*
X73602Y-54793D01*
X73623Y-54789D01*
X73650Y-54778D01*
X73675Y-54761D01*
X73696Y-54741D01*
X73712Y-54716D01*
X73723Y-54689D01*
X73729Y-54660D01*
X73730Y-54631D01*
X73730Y-54080D01*
X73724Y-54051D01*
X73713Y-54024D01*
X73696Y-53999D01*
X73676Y-53978D01*
X73651Y-53962D01*
X73624Y-53951D01*
X73595Y-53945D01*
X73566Y-53944D01*
X73215Y-53944D01*
X73186Y-53950D01*
X73159Y-53961D01*
X73134Y-53978D01*
X73113Y-53998D01*
X73097Y-54023D01*
X73086Y-54050D01*
X73080Y-54079D01*
X73079Y-54108D01*
X73079Y-54170D01*
X72994Y-54170D01*
X72992Y-54167D01*
X72943Y-54134D01*
X72889Y-54112D01*
X72831Y-54100D01*
X72772Y-54099D01*
X72714Y-54110D01*
X72660Y-54132D01*
X72611Y-54165D01*
X72569Y-54206D01*
X72535Y-54254D01*
X72512Y-54308D01*
X72500Y-54366D01*
X72499Y-54425D01*
X72510Y-54483D01*
X72531Y-54537D01*
X72563Y-54587D01*
X72604Y-54629D01*
X72652Y-54663D01*
X72706Y-54686D01*
X72764Y-54699D01*
X72823Y-54700D01*
X72881Y-54690D01*
X72935Y-54669D01*
X72985Y-54637D01*
X73028Y-54596D01*
X73047Y-54570D01*
X73079Y-54570D01*
X73079Y-54659D01*
X73085Y-54688D01*
X73096Y-54715D01*
X73113Y-54740D01*
X73133Y-54761D01*
X73158Y-54777D01*
X73185Y-54788D01*
X73195Y-54790D01*
X73195Y-54792D01*
X73176Y-54795D01*
X73149Y-54806D01*
X73124Y-54823D01*
X73103Y-54843D01*
X73087Y-54868D01*
X73076Y-54895D01*
X73070Y-54924D01*
X73069Y-54953D01*
X73069Y-55504D01*
X73075Y-55533D01*
X73086Y-55560D01*
X73103Y-55585D01*
X73123Y-55606D01*
X73148Y-55622D01*
X73175Y-55633D01*
X73195Y-55638D01*
X73195Y-55745D01*
X73196Y-55763D01*
X73198Y-55781D01*
X73198Y-55782D01*
X73198Y-55783D01*
X73204Y-55801D01*
X73209Y-55819D01*
X73209Y-55820D01*
X73210Y-55821D01*
X73218Y-55837D01*
X73227Y-55853D01*
X73227Y-55854D01*
X73228Y-55855D01*
X73240Y-55870D01*
X73251Y-55884D01*
X73253Y-55885D01*
X73253Y-55885D01*
X73253Y-55885D01*
X73253Y-55886D01*
X73504Y-56137D01*
X73504Y-56344D01*
X73510Y-56373D01*
X73521Y-56400D01*
X73538Y-56425D01*
X73558Y-56446D01*
X73583Y-56462D01*
X73610Y-56473D01*
X73639Y-56479D01*
X73668Y-56480D01*
X74019Y-56480D01*
X74048Y-56474D01*
X74075Y-56463D01*
X74100Y-56446D01*
X74121Y-56426D01*
X74137Y-56401D01*
X74148Y-56374D01*
X74154Y-56345D01*
X74155Y-56316D01*
X74155Y-55765D01*
X74149Y-55736D01*
X74138Y-55709D01*
X74121Y-55684D01*
X74101Y-55663D01*
X74076Y-55647D01*
X74059Y-55640D01*
X74334Y-55640D01*
X74363Y-55634D01*
X74390Y-55623D01*
X74414Y-55607D01*
X74513Y-55607D01*
X74530Y-55618D01*
X74557Y-55629D01*
X74559Y-55629D01*
X74390Y-55629D01*
X74361Y-55635D01*
X74334Y-55646D01*
X74309Y-55663D01*
X74288Y-55683D01*
X74272Y-55708D01*
X74261Y-55735D01*
X74255Y-55764D01*
X74254Y-55793D01*
X74254Y-56344D01*
X74260Y-56373D01*
X74271Y-56400D01*
X74288Y-56425D01*
X74308Y-56446D01*
X74333Y-56462D01*
X74360Y-56473D01*
X74389Y-56479D01*
X74418Y-56480D01*
X74595Y-56480D01*
X74569Y-56506D01*
X74535Y-56554D01*
X74512Y-56608D01*
X74500Y-56666D01*
X74499Y-56725D01*
X74510Y-56783D01*
X74531Y-56837D01*
X74563Y-56887D01*
X74604Y-56929D01*
X74652Y-56963D01*
X74706Y-56986D01*
X74764Y-56999D01*
X74823Y-57000D01*
X74855Y-56994D01*
X74858Y-56995D01*
X74859Y-56995D01*
X74860Y-56996D01*
X74878Y-56997D01*
X74897Y-56999D01*
X74899Y-56999D01*
X74899Y-56999D01*
X74899Y-56999D01*
X74900Y-57000D01*
X75021Y-57000D01*
X75025Y-57023D01*
X75036Y-57050D01*
X75053Y-57075D01*
X75073Y-57096D01*
X75098Y-57112D01*
X75125Y-57123D01*
X75154Y-57129D01*
X75183Y-57130D01*
X75544Y-57130D01*
X75573Y-57124D01*
X75600Y-57113D01*
X75625Y-57096D01*
X75646Y-57076D01*
X75662Y-57051D01*
X75673Y-57024D01*
X75679Y-56995D01*
X75680Y-56966D01*
X75680Y-56605D01*
X75674Y-56576D01*
X75663Y-56549D01*
X75646Y-56524D01*
X75626Y-56503D01*
X75601Y-56487D01*
X75574Y-56476D01*
X75545Y-56470D01*
X75516Y-56469D01*
X75155Y-56469D01*
X75126Y-56475D01*
X75099Y-56486D01*
X75074Y-56503D01*
X75053Y-56523D01*
X75048Y-56531D01*
X75033Y-56509D01*
X74992Y-56467D01*
X74943Y-56434D01*
X74889Y-56412D01*
X74881Y-56410D01*
X74887Y-56401D01*
X74898Y-56374D01*
X74904Y-56345D01*
X74905Y-56316D01*
X74905Y-56229D01*
X74952Y-56263D01*
X75006Y-56286D01*
X75064Y-56299D01*
X75123Y-56300D01*
X75181Y-56290D01*
X75235Y-56269D01*
X75285Y-56237D01*
X75325Y-56200D01*
X75371Y-56200D01*
X75375Y-56223D01*
X75386Y-56250D01*
X75403Y-56275D01*
X75423Y-56296D01*
X75448Y-56312D01*
X75475Y-56323D01*
X75504Y-56329D01*
X75533Y-56330D01*
X75894Y-56330D01*
X75923Y-56324D01*
X75950Y-56313D01*
X75975Y-56296D01*
X75996Y-56276D01*
X76012Y-56251D01*
X76023Y-56224D01*
X76029Y-56195D01*
X76030Y-56166D01*
X76030Y-56051D01*
X76043Y-56058D01*
X76055Y-56064D01*
X76059Y-56066D01*
X76064Y-56068D01*
X76079Y-56072D01*
X76083Y-56073D01*
X76099Y-56087D01*
X76142Y-56110D01*
X76189Y-56125D01*
X76198Y-56126D01*
X75905Y-56419D01*
X75883Y-56437D01*
X75857Y-56469D01*
X75855Y-56469D01*
X75826Y-56475D01*
X75799Y-56486D01*
X75774Y-56503D01*
X75753Y-56523D01*
X75737Y-56548D01*
X75726Y-56575D01*
X75720Y-56604D01*
X75719Y-56633D01*
X75719Y-56994D01*
X75725Y-57023D01*
X75736Y-57050D01*
X75753Y-57075D01*
X75773Y-57096D01*
X75798Y-57112D01*
X75825Y-57123D01*
X75854Y-57129D01*
X75883Y-57130D01*
X76244Y-57130D01*
X76273Y-57124D01*
X76300Y-57113D01*
X76325Y-57096D01*
X76346Y-57076D01*
X76362Y-57051D01*
X76373Y-57024D01*
X76379Y-56995D01*
X76380Y-56966D01*
X76380Y-56652D01*
X76901Y-56131D01*
X77085Y-56131D01*
X77061Y-56146D01*
X77025Y-56182D01*
X76997Y-56223D01*
X76977Y-56270D01*
X76966Y-56319D01*
X76965Y-56370D01*
X76975Y-56420D01*
X76993Y-56467D01*
X77021Y-56510D01*
X77056Y-56546D01*
X77097Y-56575D01*
X77144Y-56595D01*
X77193Y-56606D01*
X77244Y-56607D01*
X77294Y-56598D01*
X77341Y-56580D01*
X77384Y-56553D01*
X77405Y-56557D01*
X77435Y-56558D01*
X77593Y-56557D01*
X77622Y-56552D01*
X77628Y-56549D01*
X77632Y-56551D01*
X77661Y-56557D01*
X77691Y-56558D01*
X77849Y-56557D01*
X77878Y-56552D01*
X77883Y-56549D01*
X77888Y-56551D01*
X77917Y-56557D01*
X77946Y-56558D01*
X78105Y-56557D01*
X78134Y-56552D01*
X78161Y-56541D01*
X78186Y-56524D01*
X78206Y-56503D01*
X78223Y-56479D01*
X78234Y-56452D01*
X78240Y-56423D01*
X78240Y-56394D01*
X78240Y-58308D01*
X78044Y-58329D01*
X77384Y-58269D01*
X77384Y-57147D01*
X77366Y-57054D01*
X77329Y-56966D01*
X77277Y-56887D01*
X77210Y-56820D01*
X77131Y-56766D01*
X77043Y-56730D01*
X76950Y-56711D01*
X76855Y-56710D01*
X76762Y-56728D01*
X76674Y-56763D01*
X76594Y-56815D01*
X76526Y-56882D01*
X76473Y-56960D01*
X76435Y-57048D01*
X76415Y-57141D01*
X76414Y-57236D01*
X76431Y-57329D01*
X76466Y-57417D01*
X76518Y-57497D01*
X76584Y-57566D01*
X76662Y-57620D01*
X76749Y-57658D01*
X76842Y-57678D01*
X76937Y-57680D01*
X77030Y-57664D01*
X77119Y-57630D01*
X77199Y-57579D01*
X77268Y-57513D01*
X77323Y-57435D01*
X77361Y-57349D01*
X77382Y-57256D01*
X77384Y-57147D01*
X77384Y-58269D01*
X76813Y-58217D01*
X75628Y-57868D01*
X74534Y-57296D01*
X73571Y-56522D01*
X72777Y-55575D01*
X72182Y-54493D01*
X71808Y-53315D01*
X71671Y-52088D01*
X71774Y-50857D01*
X72114Y-49669D01*
X72679Y-48571D01*
X72885Y-48311D01*
X72885Y-48775D01*
X72891Y-48804D01*
X72902Y-48831D01*
X72919Y-48856D01*
X72939Y-48877D01*
X72964Y-48893D01*
X72991Y-48904D01*
X73020Y-48910D01*
X73049Y-48911D01*
X73168Y-48911D01*
X73197Y-48905D01*
X73222Y-48894D01*
X73246Y-48904D01*
X73275Y-48910D01*
X73304Y-48911D01*
X73423Y-48911D01*
X73452Y-48905D01*
X73477Y-48894D01*
X73501Y-48904D01*
X73530Y-48910D01*
X73559Y-48911D01*
X73678Y-48911D01*
X73707Y-48905D01*
X73732Y-48894D01*
X73756Y-48904D01*
X73785Y-48910D01*
X73814Y-48911D01*
X73933Y-48911D01*
X73962Y-48905D01*
X73989Y-48894D01*
X74014Y-48877D01*
X74035Y-48857D01*
X74051Y-48832D01*
X74062Y-48805D01*
X74068Y-48776D01*
X74069Y-48747D01*
X74069Y-48234D01*
X74063Y-48205D01*
X74052Y-48178D01*
X74035Y-48153D01*
X74015Y-48132D01*
X73990Y-48116D01*
X73963Y-48105D01*
X73934Y-48099D01*
X73905Y-48098D01*
X73786Y-48098D01*
X73757Y-48104D01*
X73732Y-48115D01*
X73708Y-48105D01*
X73679Y-48099D01*
X73650Y-48098D01*
X73531Y-48098D01*
X73502Y-48104D01*
X73477Y-48115D01*
X73453Y-48105D01*
X73424Y-48099D01*
X73395Y-48098D01*
X73276Y-48098D01*
X73247Y-48104D01*
X73222Y-48115D01*
X73198Y-48105D01*
X73169Y-48099D01*
X73140Y-48098D01*
X73053Y-48098D01*
X73446Y-47603D01*
X74387Y-46802D01*
X75465Y-46199D01*
X76640Y-45818D01*
X77115Y-45761D01*
X77115Y-47354D01*
X82300Y-47366D01*
X82364Y-47416D01*
X83172Y-48351D01*
X83782Y-49425D01*
X83941Y-49903D01*
X83926Y-49897D01*
X83897Y-49891D01*
X83868Y-49890D01*
X83710Y-49890D01*
X82867Y-49047D01*
X82853Y-49035D01*
X82838Y-49023D01*
X82838Y-49023D01*
X82837Y-49022D01*
X82820Y-49014D01*
X82804Y-49005D01*
X82803Y-49004D01*
X82802Y-49004D01*
X82785Y-48998D01*
X82767Y-48993D01*
X82766Y-48993D01*
X82765Y-48992D01*
X82747Y-48991D01*
X82728Y-48989D01*
X82726Y-48989D01*
X82726Y-48989D01*
X82726Y-48989D01*
X82726Y-48989D01*
X81200Y-48989D01*
X81181Y-48990D01*
X81163Y-48992D01*
X81162Y-48992D01*
X81161Y-48992D01*
X81143Y-48998D01*
X81125Y-49003D01*
X81124Y-49003D01*
X81123Y-49004D01*
X81107Y-49012D01*
X81091Y-49021D01*
X81090Y-49021D01*
X81089Y-49022D01*
X81074Y-49034D01*
X81060Y-49045D01*
X81059Y-49047D01*
X81059Y-49047D01*
X81059Y-49047D01*
X81058Y-49047D01*
X80808Y-49297D01*
X80796Y-49311D01*
X80784Y-49326D01*
X80784Y-49326D01*
X80783Y-49327D01*
X80775Y-49344D01*
X80766Y-49360D01*
X80765Y-49361D01*
X80765Y-49362D01*
X80759Y-49379D01*
X80754Y-49397D01*
X80754Y-49398D01*
X80753Y-49399D01*
X80752Y-49417D01*
X80750Y-49436D01*
X80750Y-49438D01*
X80750Y-49438D01*
X80750Y-49438D01*
X80750Y-49439D01*
X80750Y-49675D01*
X80741Y-49672D01*
X80724Y-49666D01*
X80723Y-49666D01*
X80722Y-49666D01*
X80703Y-49664D01*
X80685Y-49662D01*
X80683Y-49662D01*
X80683Y-49662D01*
X80683Y-49662D01*
X80682Y-49662D01*
X80615Y-49662D01*
X80615Y-49652D01*
X80615Y-49414D01*
X80610Y-49389D01*
X80615Y-49366D01*
X80615Y-49337D01*
X80615Y-49099D01*
X80610Y-49074D01*
X80615Y-49051D01*
X80615Y-49022D01*
X80615Y-48784D01*
X80610Y-48760D01*
X80615Y-48736D01*
X80615Y-48707D01*
X80615Y-48469D01*
X80610Y-48445D01*
X80615Y-48421D01*
X80615Y-48392D01*
X80615Y-48154D01*
X80610Y-48130D01*
X80615Y-48106D01*
X80615Y-48077D01*
X80615Y-47839D01*
X80610Y-47815D01*
X80615Y-47791D01*
X80615Y-47762D01*
X80615Y-47525D01*
X80610Y-47496D01*
X80598Y-47468D01*
X80582Y-47444D01*
X80561Y-47423D01*
X80537Y-47407D01*
X80510Y-47395D01*
X80481Y-47389D01*
X80452Y-47389D01*
X80057Y-47389D01*
X80028Y-47395D01*
X80001Y-47406D01*
X79976Y-47422D01*
X79955Y-47443D01*
X79939Y-47468D01*
X79928Y-47495D01*
X79922Y-47523D01*
X79921Y-47553D01*
X79922Y-47790D01*
X79926Y-47815D01*
X79922Y-47838D01*
X79921Y-47868D01*
X79922Y-48105D01*
X79926Y-48130D01*
X79922Y-48153D01*
X79921Y-48183D01*
X79922Y-48420D01*
X79926Y-48445D01*
X79922Y-48468D01*
X79921Y-48498D01*
X79922Y-48735D01*
X79926Y-48760D01*
X79922Y-48783D01*
X79921Y-48813D01*
X79922Y-49050D01*
X79926Y-49075D01*
X79922Y-49098D01*
X79921Y-49128D01*
X79922Y-49365D01*
X79926Y-49390D01*
X79922Y-49413D01*
X79921Y-49443D01*
X79922Y-49662D01*
X79496Y-49662D01*
X79462Y-49627D01*
X79413Y-49594D01*
X79359Y-49572D01*
X79301Y-49560D01*
X79242Y-49559D01*
X79184Y-49570D01*
X79130Y-49592D01*
X79081Y-49625D01*
X79039Y-49666D01*
X79005Y-49714D01*
X78982Y-49768D01*
X78970Y-49826D01*
X78969Y-49885D01*
X78980Y-49943D01*
X79001Y-49997D01*
X79033Y-50047D01*
X79074Y-50089D01*
X79122Y-50123D01*
X79176Y-50146D01*
X79234Y-50159D01*
X79293Y-50160D01*
X79351Y-50150D01*
X79405Y-50129D01*
X79455Y-50097D01*
X79492Y-50062D01*
X79922Y-50062D01*
X79921Y-50073D01*
X79922Y-50310D01*
X79926Y-50335D01*
X79922Y-50358D01*
X79921Y-50388D01*
X79922Y-50625D01*
X79926Y-50650D01*
X79922Y-50673D01*
X79921Y-50702D01*
X79922Y-50940D01*
X79926Y-50965D01*
X79922Y-50988D01*
X79921Y-51017D01*
X79922Y-51255D01*
X79926Y-51280D01*
X79922Y-51303D01*
X79921Y-51332D01*
X79922Y-51570D01*
X79926Y-51595D01*
X79922Y-51618D01*
X79921Y-51647D01*
X79922Y-51885D01*
X79926Y-51909D01*
X79922Y-51933D01*
X79921Y-51962D01*
X79922Y-52200D01*
X79926Y-52224D01*
X79922Y-52248D01*
X79921Y-52277D01*
X79922Y-52515D01*
X79926Y-52539D01*
X79922Y-52563D01*
X79921Y-52592D01*
X79922Y-52743D01*
X79742Y-52744D01*
X79717Y-52748D01*
X79694Y-52744D01*
X79664Y-52743D01*
X79427Y-52744D01*
X79402Y-52748D01*
X79379Y-52744D01*
X79349Y-52743D01*
X79130Y-52744D01*
X79130Y-52393D01*
X79162Y-52348D01*
X79186Y-52295D01*
X79199Y-52237D01*
X79200Y-52170D01*
X79188Y-52112D01*
X79166Y-52058D01*
X79133Y-52009D01*
X79092Y-51967D01*
X79043Y-51934D01*
X78989Y-51912D01*
X78931Y-51900D01*
X78872Y-51899D01*
X78814Y-51910D01*
X78760Y-51932D01*
X78711Y-51965D01*
X78669Y-52006D01*
X78635Y-52054D01*
X78612Y-52108D01*
X78600Y-52166D01*
X78599Y-52216D01*
X78589Y-52212D01*
X78531Y-52200D01*
X78472Y-52199D01*
X78414Y-52210D01*
X78360Y-52232D01*
X78311Y-52265D01*
X78269Y-52306D01*
X78235Y-52354D01*
X78212Y-52408D01*
X78200Y-52466D01*
X78199Y-52517D01*
X78159Y-52558D01*
X78147Y-52572D01*
X78135Y-52586D01*
X78134Y-52587D01*
X78134Y-52588D01*
X78125Y-52604D01*
X78116Y-52620D01*
X78116Y-52621D01*
X78115Y-52622D01*
X78110Y-52640D01*
X78104Y-52657D01*
X78104Y-52659D01*
X78104Y-52660D01*
X78102Y-52678D01*
X78101Y-52690D01*
X77596Y-52185D01*
X77596Y-51280D01*
X77605Y-51274D01*
X77648Y-51233D01*
X77682Y-51185D01*
X77706Y-51132D01*
X77719Y-51074D01*
X77720Y-51007D01*
X77708Y-50949D01*
X77686Y-50895D01*
X77653Y-50846D01*
X77612Y-50804D01*
X77563Y-50771D01*
X77509Y-50749D01*
X77451Y-50737D01*
X77392Y-50736D01*
X77334Y-50747D01*
X77280Y-50769D01*
X77231Y-50802D01*
X77189Y-50843D01*
X77155Y-50891D01*
X77132Y-50945D01*
X77120Y-51003D01*
X77119Y-51062D01*
X77130Y-51120D01*
X77151Y-51174D01*
X77183Y-51224D01*
X77196Y-51236D01*
X77196Y-52268D01*
X77197Y-52286D01*
X77199Y-52304D01*
X77199Y-52305D01*
X77199Y-52306D01*
X77205Y-52324D01*
X77210Y-52342D01*
X77210Y-52343D01*
X77211Y-52344D01*
X77219Y-52360D01*
X77228Y-52376D01*
X77228Y-52377D01*
X77229Y-52378D01*
X77241Y-52393D01*
X77252Y-52407D01*
X77254Y-52408D01*
X77254Y-52408D01*
X77254Y-52408D01*
X77254Y-52409D01*
X77718Y-52873D01*
X77717Y-52878D01*
X77717Y-52907D01*
X77717Y-53302D01*
X77723Y-53331D01*
X77734Y-53358D01*
X77750Y-53383D01*
X77771Y-53403D01*
X77795Y-53420D01*
X77822Y-53431D01*
X77851Y-53437D01*
X77881Y-53437D01*
X78118Y-53437D01*
X78143Y-53432D01*
X78166Y-53437D01*
X78195Y-53437D01*
X78433Y-53437D01*
X78458Y-53432D01*
X78481Y-53437D01*
X78510Y-53437D01*
X78748Y-53437D01*
X78773Y-53432D01*
X78796Y-53437D01*
X78825Y-53437D01*
X79063Y-53437D01*
X79085Y-53433D01*
X79085Y-54283D01*
X79064Y-54291D01*
X79039Y-54308D01*
X79018Y-54328D01*
X79002Y-54353D01*
X78991Y-54380D01*
X78985Y-54409D01*
X78984Y-54438D01*
X78984Y-54639D01*
X78990Y-54668D01*
X79001Y-54695D01*
X79018Y-54720D01*
X79038Y-54741D01*
X79063Y-54757D01*
X79090Y-54768D01*
X79119Y-54774D01*
X79148Y-54775D01*
X79449Y-54775D01*
X79478Y-54769D01*
X79505Y-54758D01*
X79529Y-54742D01*
X79590Y-54802D01*
X79590Y-55027D01*
X79544Y-55072D01*
X79531Y-55058D01*
X79506Y-55042D01*
X79479Y-55031D01*
X79450Y-55025D01*
X79421Y-55024D01*
X79120Y-55024D01*
X79091Y-55030D01*
X79064Y-55041D01*
X79039Y-55058D01*
X79018Y-55078D01*
X79002Y-55103D01*
X78991Y-55130D01*
X78985Y-55159D01*
X78984Y-55188D01*
X78984Y-55389D01*
X78990Y-55418D01*
X79001Y-55445D01*
X79018Y-55470D01*
X79038Y-55491D01*
X79063Y-55507D01*
X79085Y-55516D01*
X79085Y-55600D01*
X79086Y-55618D01*
X79088Y-55636D01*
X79088Y-55637D01*
X79088Y-55638D01*
X79094Y-55656D01*
X79099Y-55674D01*
X79099Y-55675D01*
X79100Y-55676D01*
X79108Y-55692D01*
X79117Y-55708D01*
X79117Y-55709D01*
X79118Y-55710D01*
X79130Y-55725D01*
X79141Y-55739D01*
X79143Y-55740D01*
X79143Y-55740D01*
X79143Y-55740D01*
X79143Y-55741D01*
X79160Y-55758D01*
X79160Y-55767D01*
X79164Y-55815D01*
X79177Y-55862D01*
X79200Y-55906D01*
X79230Y-55944D01*
X79233Y-55946D01*
X80243Y-56956D01*
X80243Y-57085D01*
X80249Y-57114D01*
X80260Y-57141D01*
X80276Y-57166D01*
X80297Y-57187D01*
X80321Y-57203D01*
X80348Y-57215D01*
X80377Y-57221D01*
X80407Y-57221D01*
X80841Y-57221D01*
X80870Y-57215D01*
X80897Y-57204D01*
X80921Y-57188D01*
X80942Y-57167D01*
X80959Y-57142D01*
X80970Y-57115D01*
X80976Y-57086D01*
X80976Y-57057D01*
X80976Y-56584D01*
X80970Y-56555D01*
X80959Y-56528D01*
X80943Y-56503D01*
X80922Y-56482D01*
X80920Y-56480D01*
X80920Y-56251D01*
X80923Y-56246D01*
X80949Y-56188D01*
X80963Y-56125D01*
X80965Y-56053D01*
X80952Y-55990D01*
X80928Y-55931D01*
X80893Y-55878D01*
X80848Y-55833D01*
X80795Y-55797D01*
X80736Y-55773D01*
X80674Y-55760D01*
X80610Y-55759D01*
X80547Y-55771D01*
X80488Y-55795D01*
X80435Y-55830D01*
X80389Y-55875D01*
X80353Y-55927D01*
X80328Y-55986D01*
X80325Y-55992D01*
X80324Y-55994D01*
X80323Y-55995D01*
X80315Y-56023D01*
X80306Y-56050D01*
X80306Y-56052D01*
X80306Y-56053D01*
X80303Y-56082D01*
X80300Y-56110D01*
X80300Y-56113D01*
X80300Y-56113D01*
X80300Y-56113D01*
X80300Y-56115D01*
X80300Y-56306D01*
X79586Y-55593D01*
X79549Y-55562D01*
X79508Y-55540D01*
X79485Y-55517D01*
X79485Y-55516D01*
X79505Y-55508D01*
X79530Y-55491D01*
X79547Y-55475D01*
X79625Y-55475D01*
X79643Y-55473D01*
X79661Y-55471D01*
X79662Y-55471D01*
X79663Y-55471D01*
X79681Y-55465D01*
X79699Y-55460D01*
X79700Y-55460D01*
X79701Y-55459D01*
X79717Y-55451D01*
X79733Y-55442D01*
X79734Y-55442D01*
X79735Y-55441D01*
X79750Y-55429D01*
X79764Y-55418D01*
X79765Y-55416D01*
X79765Y-55416D01*
X79765Y-55416D01*
X79766Y-55416D01*
X79931Y-55251D01*
X79943Y-55237D01*
X79955Y-55222D01*
X79955Y-55222D01*
X79956Y-55221D01*
X79964Y-55205D01*
X79973Y-55188D01*
X79974Y-55187D01*
X79974Y-55186D01*
X79980Y-55169D01*
X79985Y-55151D01*
X79985Y-55150D01*
X79986Y-55149D01*
X79987Y-55131D01*
X79989Y-55112D01*
X79989Y-55110D01*
X79989Y-55110D01*
X79989Y-55110D01*
X79990Y-55110D01*
X79990Y-54720D01*
X79988Y-54701D01*
X79986Y-54683D01*
X79986Y-54682D01*
X79986Y-54681D01*
X79980Y-54663D01*
X79975Y-54645D01*
X79975Y-54644D01*
X79974Y-54643D01*
X79966Y-54627D01*
X79957Y-54611D01*
X79957Y-54610D01*
X79956Y-54609D01*
X79944Y-54594D01*
X79933Y-54580D01*
X79931Y-54579D01*
X79931Y-54579D01*
X79931Y-54579D01*
X79931Y-54578D01*
X79736Y-54383D01*
X79722Y-54371D01*
X79707Y-54359D01*
X79707Y-54359D01*
X79706Y-54358D01*
X79689Y-54350D01*
X79673Y-54341D01*
X79672Y-54340D01*
X79671Y-54340D01*
X79654Y-54334D01*
X79636Y-54329D01*
X79635Y-54329D01*
X79634Y-54328D01*
X79616Y-54327D01*
X79597Y-54325D01*
X79595Y-54325D01*
X79595Y-54325D01*
X79595Y-54325D01*
X79595Y-54325D01*
X79547Y-54325D01*
X79531Y-54308D01*
X79506Y-54292D01*
X79485Y-54283D01*
X79485Y-53557D01*
X80085Y-54157D01*
X80085Y-54283D01*
X80064Y-54291D01*
X80039Y-54308D01*
X80018Y-54328D01*
X80002Y-54353D01*
X79991Y-54380D01*
X79985Y-54409D01*
X79984Y-54438D01*
X79984Y-54639D01*
X79990Y-54668D01*
X80001Y-54695D01*
X80018Y-54720D01*
X80038Y-54741D01*
X80063Y-54757D01*
X80090Y-54768D01*
X80119Y-54774D01*
X80148Y-54775D01*
X80449Y-54775D01*
X80478Y-54769D01*
X80505Y-54758D01*
X80530Y-54741D01*
X80551Y-54721D01*
X80567Y-54696D01*
X80578Y-54669D01*
X80579Y-54668D01*
X80586Y-54668D01*
X80584Y-54671D01*
X80573Y-54698D01*
X80567Y-54727D01*
X80566Y-54757D01*
X80566Y-54915D01*
X80572Y-54944D01*
X80583Y-54971D01*
X80600Y-54995D01*
X80620Y-55016D01*
X80635Y-55026D01*
X80635Y-55090D01*
X80558Y-55090D01*
X80551Y-55079D01*
X80531Y-55058D01*
X80506Y-55042D01*
X80479Y-55031D01*
X80450Y-55025D01*
X80421Y-55024D01*
X80120Y-55024D01*
X80091Y-55030D01*
X80064Y-55041D01*
X80039Y-55058D01*
X80018Y-55078D01*
X80002Y-55103D01*
X79991Y-55130D01*
X79985Y-55159D01*
X79984Y-55188D01*
X79984Y-55389D01*
X79990Y-55418D01*
X80001Y-55445D01*
X80018Y-55470D01*
X80038Y-55491D01*
X80063Y-55507D01*
X80090Y-55518D01*
X80119Y-55524D01*
X80148Y-55525D01*
X80449Y-55525D01*
X80478Y-55519D01*
X80505Y-55508D01*
X80530Y-55491D01*
X80532Y-55490D01*
X80663Y-55490D01*
X80672Y-55503D01*
X80693Y-55524D01*
X80717Y-55540D01*
X80744Y-55551D01*
X80773Y-55557D01*
X80803Y-55558D01*
X80961Y-55558D01*
X80990Y-55552D01*
X81017Y-55541D01*
X81041Y-55524D01*
X81062Y-55504D01*
X81079Y-55479D01*
X81090Y-55452D01*
X81096Y-55423D01*
X81096Y-55394D01*
X81096Y-55157D01*
X81090Y-55128D01*
X81079Y-55101D01*
X81063Y-55076D01*
X81042Y-55055D01*
X81035Y-55050D01*
X81035Y-55026D01*
X81041Y-55022D01*
X81138Y-55022D01*
X81155Y-55033D01*
X81182Y-55044D01*
X81211Y-55050D01*
X81240Y-55050D01*
X81477Y-55050D01*
X81506Y-55044D01*
X81533Y-55033D01*
X81558Y-55017D01*
X81579Y-54996D01*
X81595Y-54972D01*
X81606Y-54945D01*
X81612Y-54916D01*
X81613Y-54886D01*
X81613Y-54825D01*
X81613Y-54825D01*
X81633Y-54846D01*
X81658Y-54862D01*
X81685Y-54873D01*
X81714Y-54879D01*
X81743Y-54880D01*
X82294Y-54880D01*
X82323Y-54874D01*
X82350Y-54863D01*
X82375Y-54846D01*
X82396Y-54826D01*
X82412Y-54801D01*
X82423Y-54774D01*
X82428Y-54755D01*
X82845Y-54755D01*
X82863Y-54753D01*
X82881Y-54751D01*
X82882Y-54751D01*
X82883Y-54751D01*
X82901Y-54745D01*
X82919Y-54740D01*
X82920Y-54740D01*
X82921Y-54739D01*
X82937Y-54731D01*
X82953Y-54722D01*
X82954Y-54722D01*
X82955Y-54721D01*
X82970Y-54709D01*
X82984Y-54698D01*
X82985Y-54696D01*
X82985Y-54696D01*
X82985Y-54696D01*
X82986Y-54696D01*
X83733Y-53949D01*
X83896Y-53949D01*
X83925Y-53943D01*
X83952Y-53932D01*
X83977Y-53915D01*
X83998Y-53895D01*
X84014Y-53870D01*
X84017Y-53864D01*
M02*
