G04 (created by PCBNEW (2013-07-07 BZR 4022)-stable) date 2/27/2015 9:27:32 PM*
%MOIN*%
G04 Gerber Fmt 3.4, Leading zero omitted, Abs format*
%FSLAX34Y34*%
G01*
G70*
G90*
G04 APERTURE LIST*
%ADD10C,0.00590551*%
%ADD11C,0.006*%
%ADD12C,0.00393701*%
%ADD13C,0.008*%
%ADD14C,0.0118*%
%ADD15C,0.005*%
%ADD16C,0.0039*%
%ADD17C,0.0028*%
%ADD18C,0.0026*%
%ADD19C,0.004*%
%ADD20C,0.002*%
G04 APERTURE END LIST*
G54D10*
G54D11*
X81056Y-48120D02*
X81037Y-48139D01*
X80981Y-48158D01*
X80944Y-48158D01*
X80888Y-48139D01*
X80851Y-48102D01*
X80832Y-48065D01*
X80814Y-47990D01*
X80814Y-47934D01*
X80832Y-47860D01*
X80851Y-47823D01*
X80888Y-47786D01*
X80944Y-47767D01*
X80981Y-47767D01*
X81037Y-47786D01*
X81056Y-47804D01*
X81186Y-47767D02*
X81279Y-48158D01*
X81353Y-47879D01*
X81428Y-48158D01*
X81521Y-47767D01*
X81669Y-48158D02*
X81669Y-47767D01*
X81855Y-47953D02*
X81985Y-47953D01*
X82041Y-48158D02*
X81855Y-48158D01*
X81855Y-47767D01*
X82041Y-47767D01*
X82209Y-48158D02*
X82209Y-47767D01*
X82339Y-48046D01*
X82469Y-47767D01*
X82469Y-48158D01*
X81251Y-48764D02*
X81121Y-48578D01*
X81028Y-48764D02*
X81028Y-48374D01*
X81176Y-48374D01*
X81214Y-48392D01*
X81232Y-48411D01*
X81251Y-48448D01*
X81251Y-48504D01*
X81232Y-48541D01*
X81214Y-48560D01*
X81176Y-48578D01*
X81028Y-48578D01*
X81679Y-48504D02*
X81772Y-48764D01*
X81865Y-48504D01*
X82088Y-48374D02*
X82125Y-48374D01*
X82162Y-48392D01*
X82181Y-48411D01*
X82199Y-48448D01*
X82218Y-48523D01*
X82218Y-48616D01*
X82199Y-48690D01*
X82181Y-48727D01*
X82162Y-48746D01*
X82125Y-48764D01*
X82088Y-48764D01*
X82051Y-48746D01*
X82032Y-48727D01*
X82013Y-48690D01*
X81995Y-48616D01*
X81995Y-48523D01*
X82013Y-48448D01*
X82032Y-48411D01*
X82051Y-48392D01*
X82088Y-48374D01*
X82367Y-48411D02*
X82385Y-48392D01*
X82423Y-48374D01*
X82516Y-48374D01*
X82553Y-48392D01*
X82571Y-48411D01*
X82590Y-48448D01*
X82590Y-48485D01*
X82571Y-48541D01*
X82348Y-48764D01*
X82590Y-48764D01*
G54D12*
X84500Y-52000D02*
G75*
G03X84500Y-52000I-6500J0D01*
G74*
G01*
G54D13*
X72910Y-48905D02*
X74810Y-48905D01*
X74810Y-48905D02*
X74810Y-50305D01*
X74810Y-50305D02*
X72910Y-50305D01*
X72910Y-50305D02*
X72910Y-48905D01*
X73310Y-50055D02*
G75*
G03X73310Y-50055I-150J0D01*
G74*
G01*
G54D14*
X81561Y-53101D02*
X81561Y-50739D01*
X81561Y-50739D02*
X83923Y-50739D01*
X83923Y-50739D02*
X83923Y-53101D01*
X83923Y-53101D02*
X81561Y-53101D01*
G54D15*
X76300Y-56550D02*
X75100Y-56550D01*
X75100Y-56550D02*
X75100Y-56250D01*
X75100Y-56250D02*
X76300Y-56250D01*
X76300Y-56250D02*
X76300Y-56550D01*
X80135Y-55500D02*
X79435Y-55500D01*
X79435Y-55500D02*
X79435Y-54300D01*
X79435Y-54300D02*
X80135Y-54300D01*
X80135Y-54300D02*
X80135Y-55500D01*
G54D16*
X77700Y-54900D02*
G75*
G03X77700Y-54900I-50J0D01*
G74*
G01*
X77200Y-54900D02*
X77600Y-54900D01*
X77600Y-54900D02*
X77600Y-55500D01*
X77600Y-55500D02*
X77200Y-55500D01*
X76800Y-55500D02*
X76400Y-55500D01*
X76400Y-55500D02*
X76400Y-54900D01*
X76400Y-54900D02*
X76800Y-54900D01*
X73510Y-53070D02*
G75*
G03X73510Y-53070I-50J0D01*
G74*
G01*
X73910Y-53070D02*
X73510Y-53070D01*
X73510Y-53070D02*
X73510Y-52470D01*
X73510Y-52470D02*
X73910Y-52470D01*
X74310Y-52470D02*
X74710Y-52470D01*
X74710Y-52470D02*
X74710Y-53070D01*
X74710Y-53070D02*
X74310Y-53070D01*
X74905Y-55755D02*
G75*
G03X74905Y-55755I-50J0D01*
G74*
G01*
X74405Y-55755D02*
X74805Y-55755D01*
X74805Y-55755D02*
X74805Y-56355D01*
X74805Y-56355D02*
X74405Y-56355D01*
X74005Y-56355D02*
X73605Y-56355D01*
X73605Y-56355D02*
X73605Y-55755D01*
X73605Y-55755D02*
X74005Y-55755D01*
X73170Y-55515D02*
G75*
G03X73170Y-55515I-50J0D01*
G74*
G01*
X73570Y-55515D02*
X73170Y-55515D01*
X73170Y-55515D02*
X73170Y-54915D01*
X73170Y-54915D02*
X73570Y-54915D01*
X73970Y-54915D02*
X74370Y-54915D01*
X74370Y-54915D02*
X74370Y-55515D01*
X74370Y-55515D02*
X73970Y-55515D01*
X73180Y-54670D02*
G75*
G03X73180Y-54670I-50J0D01*
G74*
G01*
X73580Y-54670D02*
X73180Y-54670D01*
X73180Y-54670D02*
X73180Y-54070D01*
X73180Y-54070D02*
X73580Y-54070D01*
X73980Y-54070D02*
X74380Y-54070D01*
X74380Y-54070D02*
X74380Y-54670D01*
X74380Y-54670D02*
X73980Y-54670D01*
X81755Y-54280D02*
G75*
G03X81755Y-54280I-50J0D01*
G74*
G01*
X81705Y-54730D02*
X81705Y-54330D01*
X81705Y-54330D02*
X82305Y-54330D01*
X82305Y-54330D02*
X82305Y-54730D01*
X82305Y-55130D02*
X82305Y-55530D01*
X82305Y-55530D02*
X81705Y-55530D01*
X81705Y-55530D02*
X81705Y-55130D01*
G54D17*
X73320Y-52630D02*
X73320Y-52430D01*
X73320Y-52430D02*
X73020Y-52430D01*
X73020Y-52430D02*
X73020Y-52630D01*
X73320Y-52830D02*
X73320Y-53030D01*
X73320Y-53030D02*
X73020Y-53030D01*
X73020Y-53030D02*
X73020Y-52830D01*
X72810Y-52630D02*
X72810Y-52430D01*
X72810Y-52430D02*
X72510Y-52430D01*
X72510Y-52430D02*
X72510Y-52630D01*
X72810Y-52830D02*
X72810Y-53030D01*
X72810Y-53030D02*
X72510Y-53030D01*
X72510Y-53030D02*
X72510Y-52830D01*
X80985Y-54545D02*
X80985Y-54345D01*
X80985Y-54345D02*
X80685Y-54345D01*
X80685Y-54345D02*
X80685Y-54545D01*
X80985Y-54745D02*
X80985Y-54945D01*
X80985Y-54945D02*
X80685Y-54945D01*
X80685Y-54945D02*
X80685Y-54745D01*
X73390Y-51400D02*
X73390Y-51200D01*
X73390Y-51200D02*
X73090Y-51200D01*
X73090Y-51200D02*
X73090Y-51400D01*
X73390Y-51600D02*
X73390Y-51800D01*
X73390Y-51800D02*
X73090Y-51800D01*
X73090Y-51800D02*
X73090Y-51600D01*
X72310Y-52270D02*
X72310Y-52070D01*
X72310Y-52070D02*
X72010Y-52070D01*
X72010Y-52070D02*
X72010Y-52270D01*
X72310Y-52470D02*
X72310Y-52670D01*
X72310Y-52670D02*
X72010Y-52670D01*
X72010Y-52670D02*
X72010Y-52470D01*
X75450Y-55100D02*
X75450Y-54900D01*
X75450Y-54900D02*
X75150Y-54900D01*
X75150Y-54900D02*
X75150Y-55100D01*
X75450Y-55300D02*
X75450Y-55500D01*
X75450Y-55500D02*
X75150Y-55500D01*
X75150Y-55500D02*
X75150Y-55300D01*
X80945Y-55140D02*
X80745Y-55140D01*
X80745Y-55140D02*
X80745Y-55440D01*
X80745Y-55440D02*
X80945Y-55440D01*
X81145Y-55140D02*
X81345Y-55140D01*
X81345Y-55140D02*
X81345Y-55440D01*
X81345Y-55440D02*
X81145Y-55440D01*
X72880Y-51400D02*
X72880Y-51200D01*
X72880Y-51200D02*
X72580Y-51200D01*
X72580Y-51200D02*
X72580Y-51400D01*
X72880Y-51600D02*
X72880Y-51800D01*
X72880Y-51800D02*
X72580Y-51800D01*
X72580Y-51800D02*
X72580Y-51600D01*
X80900Y-53550D02*
X81100Y-53550D01*
X81100Y-53550D02*
X81100Y-53250D01*
X81100Y-53250D02*
X80900Y-53250D01*
X80700Y-53550D02*
X80500Y-53550D01*
X80500Y-53550D02*
X80500Y-53250D01*
X80500Y-53250D02*
X80700Y-53250D01*
X80800Y-50410D02*
X80800Y-50610D01*
X80800Y-50610D02*
X81100Y-50610D01*
X81100Y-50610D02*
X81100Y-50410D01*
X80800Y-50210D02*
X80800Y-50010D01*
X80800Y-50010D02*
X81100Y-50010D01*
X81100Y-50010D02*
X81100Y-50210D01*
X73820Y-52270D02*
X74020Y-52270D01*
X74020Y-52270D02*
X74020Y-51970D01*
X74020Y-51970D02*
X73820Y-51970D01*
X73620Y-52270D02*
X73420Y-52270D01*
X73420Y-52270D02*
X73420Y-51970D01*
X73420Y-51970D02*
X73620Y-51970D01*
X74375Y-51969D02*
X74175Y-51969D01*
X74175Y-51969D02*
X74175Y-52269D01*
X74175Y-52269D02*
X74375Y-52269D01*
X74575Y-51969D02*
X74775Y-51969D01*
X74775Y-51969D02*
X74775Y-52269D01*
X74775Y-52269D02*
X74575Y-52269D01*
X75750Y-55300D02*
X75750Y-55500D01*
X75750Y-55500D02*
X76050Y-55500D01*
X76050Y-55500D02*
X76050Y-55300D01*
X75750Y-55100D02*
X75750Y-54900D01*
X75750Y-54900D02*
X76050Y-54900D01*
X76050Y-54900D02*
X76050Y-55100D01*
X81495Y-54545D02*
X81495Y-54345D01*
X81495Y-54345D02*
X81195Y-54345D01*
X81195Y-54345D02*
X81195Y-54545D01*
X81495Y-54745D02*
X81495Y-54945D01*
X81495Y-54945D02*
X81195Y-54945D01*
X81195Y-54945D02*
X81195Y-54745D01*
X74570Y-55330D02*
X74570Y-55530D01*
X74570Y-55530D02*
X74870Y-55530D01*
X74870Y-55530D02*
X74870Y-55330D01*
X74570Y-55130D02*
X74570Y-54930D01*
X74570Y-54930D02*
X74870Y-54930D01*
X74870Y-54930D02*
X74870Y-55130D01*
X74778Y-51421D02*
X74778Y-51221D01*
X74778Y-51221D02*
X74478Y-51221D01*
X74478Y-51221D02*
X74478Y-51421D01*
X74778Y-51621D02*
X74778Y-51821D01*
X74778Y-51821D02*
X74478Y-51821D01*
X74478Y-51821D02*
X74478Y-51621D01*
X73844Y-51389D02*
X73644Y-51389D01*
X73644Y-51389D02*
X73644Y-51689D01*
X73644Y-51689D02*
X73844Y-51689D01*
X74044Y-51389D02*
X74244Y-51389D01*
X74244Y-51389D02*
X74244Y-51689D01*
X74244Y-51689D02*
X74044Y-51689D01*
X74350Y-53478D02*
X74350Y-53278D01*
X74350Y-53278D02*
X74050Y-53278D01*
X74050Y-53278D02*
X74050Y-53478D01*
X74350Y-53678D02*
X74350Y-53878D01*
X74350Y-53878D02*
X74050Y-53878D01*
X74050Y-53878D02*
X74050Y-53678D01*
X72341Y-51406D02*
X72341Y-51206D01*
X72341Y-51206D02*
X72041Y-51206D01*
X72041Y-51206D02*
X72041Y-51406D01*
X72341Y-51606D02*
X72341Y-51806D01*
X72341Y-51806D02*
X72041Y-51806D01*
X72041Y-51806D02*
X72041Y-51606D01*
X72520Y-53590D02*
X72520Y-53790D01*
X72520Y-53790D02*
X72820Y-53790D01*
X72820Y-53790D02*
X72820Y-53590D01*
X72520Y-53390D02*
X72520Y-53190D01*
X72520Y-53190D02*
X72820Y-53190D01*
X72820Y-53190D02*
X72820Y-53390D01*
X73020Y-53590D02*
X73020Y-53790D01*
X73020Y-53790D02*
X73320Y-53790D01*
X73320Y-53790D02*
X73320Y-53590D01*
X73020Y-53390D02*
X73020Y-53190D01*
X73020Y-53190D02*
X73320Y-53190D01*
X73320Y-53190D02*
X73320Y-53390D01*
X73040Y-52270D02*
X73240Y-52270D01*
X73240Y-52270D02*
X73240Y-51970D01*
X73240Y-51970D02*
X73040Y-51970D01*
X72840Y-52270D02*
X72640Y-52270D01*
X72640Y-52270D02*
X72640Y-51970D01*
X72640Y-51970D02*
X72840Y-51970D01*
X74445Y-47545D02*
X74445Y-47745D01*
X74445Y-47745D02*
X74745Y-47745D01*
X74745Y-47745D02*
X74745Y-47545D01*
X74445Y-47345D02*
X74445Y-47145D01*
X74445Y-47145D02*
X74745Y-47145D01*
X74745Y-47145D02*
X74745Y-47345D01*
X75260Y-49509D02*
X75260Y-49309D01*
X75260Y-49309D02*
X74960Y-49309D01*
X74960Y-49309D02*
X74960Y-49509D01*
X75260Y-49709D02*
X75260Y-49909D01*
X75260Y-49909D02*
X74960Y-49909D01*
X74960Y-49909D02*
X74960Y-49709D01*
G54D18*
X81127Y-51487D02*
X80773Y-51487D01*
X80773Y-51487D02*
X80773Y-51644D01*
X81127Y-51644D02*
X80773Y-51644D01*
X81127Y-51487D02*
X81127Y-51644D01*
X81127Y-50976D02*
X80773Y-50976D01*
X80773Y-50976D02*
X80773Y-51133D01*
X81127Y-51133D02*
X80773Y-51133D01*
X81127Y-50976D02*
X81127Y-51133D01*
X81127Y-51310D02*
X81068Y-51310D01*
X81068Y-51310D02*
X81068Y-51428D01*
X81127Y-51428D02*
X81068Y-51428D01*
X81127Y-51310D02*
X81127Y-51428D01*
X80832Y-51310D02*
X80773Y-51310D01*
X80773Y-51310D02*
X80773Y-51428D01*
X80832Y-51428D02*
X80773Y-51428D01*
X80832Y-51310D02*
X80832Y-51428D01*
X81009Y-51310D02*
X80891Y-51310D01*
X80891Y-51310D02*
X80891Y-51428D01*
X81009Y-51428D02*
X80891Y-51428D01*
X81009Y-51310D02*
X81009Y-51428D01*
G54D19*
X81107Y-51487D02*
X81107Y-51133D01*
X80793Y-51487D02*
X80793Y-51133D01*
G54D18*
X80783Y-52303D02*
X81137Y-52303D01*
X81137Y-52303D02*
X81137Y-52146D01*
X80783Y-52146D02*
X81137Y-52146D01*
X80783Y-52303D02*
X80783Y-52146D01*
X80783Y-52814D02*
X81137Y-52814D01*
X81137Y-52814D02*
X81137Y-52657D01*
X80783Y-52657D02*
X81137Y-52657D01*
X80783Y-52814D02*
X80783Y-52657D01*
X80783Y-52480D02*
X80842Y-52480D01*
X80842Y-52480D02*
X80842Y-52362D01*
X80783Y-52362D02*
X80842Y-52362D01*
X80783Y-52480D02*
X80783Y-52362D01*
X81078Y-52480D02*
X81137Y-52480D01*
X81137Y-52480D02*
X81137Y-52362D01*
X81078Y-52362D02*
X81137Y-52362D01*
X81078Y-52480D02*
X81078Y-52362D01*
X80901Y-52480D02*
X81019Y-52480D01*
X81019Y-52480D02*
X81019Y-52362D01*
X80901Y-52362D02*
X81019Y-52362D01*
X80901Y-52480D02*
X80901Y-52362D01*
G54D19*
X80803Y-52303D02*
X80803Y-52657D01*
X81117Y-52303D02*
X81117Y-52657D01*
G54D10*
X75662Y-46043D02*
X75662Y-53130D01*
X75662Y-53130D02*
X80308Y-53130D01*
X80308Y-46043D02*
X80308Y-53130D01*
X75662Y-46043D02*
X80308Y-46043D01*
X76748Y-46575D02*
G75*
G03X76748Y-46575I-278J0D01*
G74*
G01*
G54D20*
X79115Y-57412D02*
G75*
G03X78996Y-57293I-119J0D01*
G74*
G01*
X78996Y-57294D02*
G75*
G03X78878Y-57412I0J-118D01*
G74*
G01*
X77147Y-57412D02*
G75*
G03X77028Y-57293I-119J0D01*
G74*
G01*
X77028Y-57294D02*
G75*
G03X76910Y-57412I0J-118D01*
G74*
G01*
X79114Y-57825D02*
X79114Y-57412D01*
X78878Y-57825D02*
X78878Y-57412D01*
X77146Y-57825D02*
X77146Y-57412D01*
X76910Y-57825D02*
X76910Y-57412D01*
X78878Y-57628D02*
X79114Y-57628D01*
X76910Y-57628D02*
X77146Y-57628D01*
X78878Y-57667D02*
X79114Y-57667D01*
X76910Y-57667D02*
X77146Y-57667D01*
X78878Y-57825D02*
X79114Y-57825D01*
X76910Y-57825D02*
X77146Y-57825D01*
X79626Y-58317D02*
X79685Y-58258D01*
X79626Y-58317D02*
X79449Y-58140D01*
X79449Y-58140D02*
X79449Y-58081D01*
X76339Y-58258D02*
X76398Y-58317D01*
X76398Y-58317D02*
X76575Y-58140D01*
X76575Y-58140D02*
X76575Y-58081D01*
X79508Y-58081D02*
X79685Y-58258D01*
X76516Y-58081D02*
X76339Y-58258D01*
X78799Y-58081D02*
X79508Y-58081D01*
X77618Y-58081D02*
X78406Y-58081D01*
X76516Y-58081D02*
X77225Y-58081D01*
X76654Y-58199D02*
G75*
G03X76752Y-58297I98J0D01*
G74*
G01*
X79272Y-58297D02*
G75*
G03X79370Y-58199I0J98D01*
G74*
G01*
X78799Y-58297D02*
X79272Y-58297D01*
X77618Y-58297D02*
X78406Y-58297D01*
X76752Y-58297D02*
X77225Y-58297D01*
X79370Y-57766D02*
X79370Y-58199D01*
X76654Y-57766D02*
X76654Y-58199D01*
X76516Y-56230D02*
X76516Y-58081D01*
X79508Y-56230D02*
X79508Y-58081D01*
X76654Y-56092D02*
G75*
G03X76516Y-56230I0J-138D01*
G74*
G01*
X79507Y-56230D02*
G75*
G03X79370Y-56093I-137J0D01*
G74*
G01*
G54D16*
X76654Y-56093D02*
X77264Y-56093D01*
X79370Y-56093D02*
X78760Y-56093D01*
X76654Y-57766D02*
X76654Y-56093D01*
X79370Y-57766D02*
X79370Y-56093D01*
X76654Y-57766D02*
X79370Y-57766D01*
G54D20*
X77638Y-56821D02*
X78386Y-56821D01*
X78386Y-56821D02*
X78386Y-57569D01*
X78386Y-57569D02*
X77638Y-57569D01*
X77638Y-57569D02*
X77638Y-56821D01*
M02*
