G04 (created by PCBNEW (2013-07-07 BZR 4022)-stable) date 4/12/2015 11:00:48 PM*
%MOIN*%
G04 Gerber Fmt 3.4, Leading zero omitted, Abs format*
%FSLAX34Y34*%
G01*
G70*
G90*
G04 APERTURE LIST*
%ADD10C,0.00590551*%
%ADD11C,0.006*%
%ADD12C,0.00393701*%
%ADD13C,0.0118*%
%ADD14C,0.005*%
%ADD15C,0.0039*%
%ADD16C,0.0028*%
%ADD17C,0.0026*%
%ADD18C,0.004*%
%ADD19C,0.002*%
%ADD20C,5.90551e-005*%
G04 APERTURE END LIST*
G54D10*
G54D11*
X81056Y-48120D02*
X81037Y-48139D01*
X80981Y-48158D01*
X80944Y-48158D01*
X80888Y-48139D01*
X80851Y-48102D01*
X80832Y-48065D01*
X80814Y-47990D01*
X80814Y-47934D01*
X80832Y-47860D01*
X80851Y-47823D01*
X80888Y-47786D01*
X80944Y-47767D01*
X80981Y-47767D01*
X81037Y-47786D01*
X81056Y-47804D01*
X81186Y-47767D02*
X81279Y-48158D01*
X81353Y-47879D01*
X81428Y-48158D01*
X81521Y-47767D01*
X81669Y-48158D02*
X81669Y-47767D01*
X81855Y-47953D02*
X81985Y-47953D01*
X82041Y-48158D02*
X81855Y-48158D01*
X81855Y-47767D01*
X82041Y-47767D01*
X82209Y-48158D02*
X82209Y-47767D01*
X82339Y-48046D01*
X82469Y-47767D01*
X82469Y-48158D01*
X81251Y-48764D02*
X81121Y-48578D01*
X81028Y-48764D02*
X81028Y-48374D01*
X81176Y-48374D01*
X81214Y-48392D01*
X81232Y-48411D01*
X81251Y-48448D01*
X81251Y-48504D01*
X81232Y-48541D01*
X81214Y-48560D01*
X81176Y-48578D01*
X81028Y-48578D01*
X81679Y-48504D02*
X81772Y-48764D01*
X81865Y-48504D01*
X82088Y-48374D02*
X82125Y-48374D01*
X82162Y-48392D01*
X82181Y-48411D01*
X82199Y-48448D01*
X82218Y-48523D01*
X82218Y-48616D01*
X82199Y-48690D01*
X82181Y-48727D01*
X82162Y-48746D01*
X82125Y-48764D01*
X82088Y-48764D01*
X82051Y-48746D01*
X82032Y-48727D01*
X82013Y-48690D01*
X81995Y-48616D01*
X81995Y-48523D01*
X82013Y-48448D01*
X82032Y-48411D01*
X82051Y-48392D01*
X82088Y-48374D01*
X82553Y-48504D02*
X82553Y-48764D01*
X82460Y-48355D02*
X82367Y-48634D01*
X82608Y-48634D01*
G54D12*
X84500Y-52000D02*
G75*
G03X84500Y-52000I-6500J0D01*
G74*
G01*
G54D13*
X81469Y-53106D02*
X81469Y-50744D01*
X81469Y-50744D02*
X83831Y-50744D01*
X83831Y-50744D02*
X83831Y-53106D01*
X83831Y-53106D02*
X81469Y-53106D01*
G54D14*
X76200Y-56450D02*
X75000Y-56450D01*
X75000Y-56450D02*
X75000Y-56150D01*
X75000Y-56150D02*
X76200Y-56150D01*
X76200Y-56150D02*
X76200Y-56450D01*
G54D15*
X77700Y-54900D02*
G75*
G03X77700Y-54900I-50J0D01*
G74*
G01*
X77200Y-54900D02*
X77600Y-54900D01*
X77600Y-54900D02*
X77600Y-55500D01*
X77600Y-55500D02*
X77200Y-55500D01*
X76800Y-55500D02*
X76400Y-55500D01*
X76400Y-55500D02*
X76400Y-54900D01*
X76400Y-54900D02*
X76800Y-54900D01*
X74900Y-55700D02*
G75*
G03X74900Y-55700I-50J0D01*
G74*
G01*
X74400Y-55700D02*
X74800Y-55700D01*
X74800Y-55700D02*
X74800Y-56300D01*
X74800Y-56300D02*
X74400Y-56300D01*
X74000Y-56300D02*
X73600Y-56300D01*
X73600Y-56300D02*
X73600Y-55700D01*
X73600Y-55700D02*
X74000Y-55700D01*
X73170Y-55515D02*
G75*
G03X73170Y-55515I-50J0D01*
G74*
G01*
X73570Y-55515D02*
X73170Y-55515D01*
X73170Y-55515D02*
X73170Y-54915D01*
X73170Y-54915D02*
X73570Y-54915D01*
X73970Y-54915D02*
X74370Y-54915D01*
X74370Y-54915D02*
X74370Y-55515D01*
X74370Y-55515D02*
X73970Y-55515D01*
G54D16*
X74214Y-53693D02*
X74414Y-53693D01*
X74414Y-53693D02*
X74414Y-53393D01*
X74414Y-53393D02*
X74214Y-53393D01*
X74014Y-53693D02*
X73814Y-53693D01*
X73814Y-53693D02*
X73814Y-53393D01*
X73814Y-53393D02*
X74014Y-53393D01*
X75450Y-55100D02*
X75450Y-54900D01*
X75450Y-54900D02*
X75150Y-54900D01*
X75150Y-54900D02*
X75150Y-55100D01*
X75450Y-55300D02*
X75450Y-55500D01*
X75450Y-55500D02*
X75150Y-55500D01*
X75150Y-55500D02*
X75150Y-55300D01*
X80900Y-53550D02*
X81100Y-53550D01*
X81100Y-53550D02*
X81100Y-53250D01*
X81100Y-53250D02*
X80900Y-53250D01*
X80700Y-53550D02*
X80500Y-53550D01*
X80500Y-53550D02*
X80500Y-53250D01*
X80500Y-53250D02*
X80700Y-53250D01*
X80800Y-50410D02*
X80800Y-50610D01*
X80800Y-50610D02*
X81100Y-50610D01*
X81100Y-50610D02*
X81100Y-50410D01*
X80800Y-50210D02*
X80800Y-50010D01*
X80800Y-50010D02*
X81100Y-50010D01*
X81100Y-50010D02*
X81100Y-50210D01*
X75750Y-55300D02*
X75750Y-55500D01*
X75750Y-55500D02*
X76050Y-55500D01*
X76050Y-55500D02*
X76050Y-55300D01*
X75750Y-55100D02*
X75750Y-54900D01*
X75750Y-54900D02*
X76050Y-54900D01*
X76050Y-54900D02*
X76050Y-55100D01*
X74550Y-55300D02*
X74550Y-55500D01*
X74550Y-55500D02*
X74850Y-55500D01*
X74850Y-55500D02*
X74850Y-55300D01*
X74550Y-55100D02*
X74550Y-54900D01*
X74550Y-54900D02*
X74850Y-54900D01*
X74850Y-54900D02*
X74850Y-55100D01*
X74014Y-52901D02*
X73814Y-52901D01*
X73814Y-52901D02*
X73814Y-53201D01*
X73814Y-53201D02*
X74014Y-53201D01*
X74214Y-52901D02*
X74414Y-52901D01*
X74414Y-52901D02*
X74414Y-53201D01*
X74414Y-53201D02*
X74214Y-53201D01*
X82350Y-54650D02*
X82350Y-54450D01*
X82350Y-54450D02*
X82050Y-54450D01*
X82050Y-54450D02*
X82050Y-54650D01*
X82350Y-54850D02*
X82350Y-55050D01*
X82350Y-55050D02*
X82050Y-55050D01*
X82050Y-55050D02*
X82050Y-54850D01*
G54D17*
X81127Y-51487D02*
X80773Y-51487D01*
X80773Y-51487D02*
X80773Y-51644D01*
X81127Y-51644D02*
X80773Y-51644D01*
X81127Y-51487D02*
X81127Y-51644D01*
X81127Y-50976D02*
X80773Y-50976D01*
X80773Y-50976D02*
X80773Y-51133D01*
X81127Y-51133D02*
X80773Y-51133D01*
X81127Y-50976D02*
X81127Y-51133D01*
X81127Y-51310D02*
X81068Y-51310D01*
X81068Y-51310D02*
X81068Y-51428D01*
X81127Y-51428D02*
X81068Y-51428D01*
X81127Y-51310D02*
X81127Y-51428D01*
X80832Y-51310D02*
X80773Y-51310D01*
X80773Y-51310D02*
X80773Y-51428D01*
X80832Y-51428D02*
X80773Y-51428D01*
X80832Y-51310D02*
X80832Y-51428D01*
X81009Y-51310D02*
X80891Y-51310D01*
X80891Y-51310D02*
X80891Y-51428D01*
X81009Y-51428D02*
X80891Y-51428D01*
X81009Y-51310D02*
X81009Y-51428D01*
G54D18*
X81107Y-51487D02*
X81107Y-51133D01*
X80793Y-51487D02*
X80793Y-51133D01*
G54D17*
X80783Y-52303D02*
X81137Y-52303D01*
X81137Y-52303D02*
X81137Y-52146D01*
X80783Y-52146D02*
X81137Y-52146D01*
X80783Y-52303D02*
X80783Y-52146D01*
X80783Y-52814D02*
X81137Y-52814D01*
X81137Y-52814D02*
X81137Y-52657D01*
X80783Y-52657D02*
X81137Y-52657D01*
X80783Y-52814D02*
X80783Y-52657D01*
X80783Y-52480D02*
X80842Y-52480D01*
X80842Y-52480D02*
X80842Y-52362D01*
X80783Y-52362D02*
X80842Y-52362D01*
X80783Y-52480D02*
X80783Y-52362D01*
X81078Y-52480D02*
X81137Y-52480D01*
X81137Y-52480D02*
X81137Y-52362D01*
X81078Y-52362D02*
X81137Y-52362D01*
X81078Y-52480D02*
X81078Y-52362D01*
X80901Y-52480D02*
X81019Y-52480D01*
X81019Y-52480D02*
X81019Y-52362D01*
X80901Y-52362D02*
X81019Y-52362D01*
X80901Y-52480D02*
X80901Y-52362D01*
G54D18*
X80803Y-52303D02*
X80803Y-52657D01*
X81117Y-52303D02*
X81117Y-52657D01*
G54D10*
X75662Y-46043D02*
X75662Y-53130D01*
X75662Y-53130D02*
X80308Y-53130D01*
X80308Y-46043D02*
X80308Y-53130D01*
X75662Y-46043D02*
X80308Y-46043D01*
X76748Y-46575D02*
G75*
G03X76748Y-46575I-278J0D01*
G74*
G01*
G54D19*
X79115Y-57412D02*
G75*
G03X78996Y-57293I-119J0D01*
G74*
G01*
X78996Y-57294D02*
G75*
G03X78878Y-57412I0J-118D01*
G74*
G01*
X77147Y-57412D02*
G75*
G03X77028Y-57293I-119J0D01*
G74*
G01*
X77028Y-57294D02*
G75*
G03X76910Y-57412I0J-118D01*
G74*
G01*
X79114Y-57825D02*
X79114Y-57412D01*
X78878Y-57825D02*
X78878Y-57412D01*
X77146Y-57825D02*
X77146Y-57412D01*
X76910Y-57825D02*
X76910Y-57412D01*
X78878Y-57628D02*
X79114Y-57628D01*
X76910Y-57628D02*
X77146Y-57628D01*
X78878Y-57667D02*
X79114Y-57667D01*
X76910Y-57667D02*
X77146Y-57667D01*
X78878Y-57825D02*
X79114Y-57825D01*
X76910Y-57825D02*
X77146Y-57825D01*
X79626Y-58317D02*
X79685Y-58258D01*
X79626Y-58317D02*
X79449Y-58140D01*
X79449Y-58140D02*
X79449Y-58081D01*
X76339Y-58258D02*
X76398Y-58317D01*
X76398Y-58317D02*
X76575Y-58140D01*
X76575Y-58140D02*
X76575Y-58081D01*
X79508Y-58081D02*
X79685Y-58258D01*
X76516Y-58081D02*
X76339Y-58258D01*
X78799Y-58081D02*
X79508Y-58081D01*
X77618Y-58081D02*
X78406Y-58081D01*
X76516Y-58081D02*
X77225Y-58081D01*
X76654Y-58199D02*
G75*
G03X76752Y-58297I98J0D01*
G74*
G01*
X79272Y-58297D02*
G75*
G03X79370Y-58199I0J98D01*
G74*
G01*
X78799Y-58297D02*
X79272Y-58297D01*
X77618Y-58297D02*
X78406Y-58297D01*
X76752Y-58297D02*
X77225Y-58297D01*
X79370Y-57766D02*
X79370Y-58199D01*
X76654Y-57766D02*
X76654Y-58199D01*
X76516Y-56230D02*
X76516Y-58081D01*
X79508Y-56230D02*
X79508Y-58081D01*
X76654Y-56092D02*
G75*
G03X76516Y-56230I0J-138D01*
G74*
G01*
X79507Y-56230D02*
G75*
G03X79370Y-56093I-137J0D01*
G74*
G01*
G54D15*
X76654Y-56093D02*
X77264Y-56093D01*
X79370Y-56093D02*
X78760Y-56093D01*
X76654Y-57766D02*
X76654Y-56093D01*
X79370Y-57766D02*
X79370Y-56093D01*
X76654Y-57766D02*
X79370Y-57766D01*
G54D19*
X77638Y-56821D02*
X78386Y-56821D01*
X78386Y-56821D02*
X78386Y-57569D01*
X78386Y-57569D02*
X77638Y-57569D01*
X77638Y-57569D02*
X77638Y-56821D01*
G54D16*
X74214Y-54185D02*
X74414Y-54185D01*
X74414Y-54185D02*
X74414Y-53885D01*
X74414Y-53885D02*
X74214Y-53885D01*
X74014Y-54185D02*
X73814Y-54185D01*
X73814Y-54185D02*
X73814Y-53885D01*
X73814Y-53885D02*
X74014Y-53885D01*
X79480Y-55018D02*
X79480Y-54818D01*
X79480Y-54818D02*
X79180Y-54818D01*
X79180Y-54818D02*
X79180Y-55018D01*
X79480Y-55218D02*
X79480Y-55418D01*
X79480Y-55418D02*
X79180Y-55418D01*
X79180Y-55418D02*
X79180Y-55218D01*
G54D14*
X80925Y-54575D02*
X81185Y-54575D01*
X80925Y-55325D02*
X81185Y-55325D01*
X80375Y-54950D02*
X80115Y-54950D01*
X80375Y-55540D02*
X80375Y-54360D01*
X80375Y-54360D02*
X80925Y-54360D01*
X80925Y-54360D02*
X80925Y-55540D01*
X80925Y-55540D02*
X80375Y-55540D01*
G54D16*
X73525Y-48968D02*
X73725Y-48968D01*
X73725Y-48968D02*
X73725Y-48668D01*
X73725Y-48668D02*
X73525Y-48668D01*
X73325Y-48968D02*
X73125Y-48968D01*
X73125Y-48968D02*
X73125Y-48668D01*
X73125Y-48668D02*
X73325Y-48668D01*
X74362Y-48620D02*
X74362Y-48420D01*
X74362Y-48420D02*
X74062Y-48420D01*
X74062Y-48420D02*
X74062Y-48620D01*
X74362Y-48820D02*
X74362Y-49020D01*
X74362Y-49020D02*
X74062Y-49020D01*
X74062Y-49020D02*
X74062Y-48820D01*
X73275Y-53348D02*
X73275Y-53548D01*
X73275Y-53548D02*
X73575Y-53548D01*
X73575Y-53548D02*
X73575Y-53348D01*
X73275Y-53148D02*
X73275Y-52948D01*
X73275Y-52948D02*
X73575Y-52948D01*
X73575Y-52948D02*
X73575Y-53148D01*
X74900Y-51031D02*
X74700Y-51031D01*
X74700Y-51031D02*
X74700Y-51331D01*
X74700Y-51331D02*
X74900Y-51331D01*
X75100Y-51031D02*
X75300Y-51031D01*
X75300Y-51031D02*
X75300Y-51331D01*
X75300Y-51331D02*
X75100Y-51331D01*
G54D20*
X74413Y-50318D02*
G75*
G03X74413Y-50318I-126J0D01*
G74*
G01*
X74311Y-50078D02*
X74507Y-50078D01*
X74507Y-50078D02*
X74507Y-51751D01*
X74507Y-51751D02*
X72086Y-51751D01*
X72086Y-51751D02*
X72086Y-50078D01*
X72086Y-50078D02*
X74330Y-50078D01*
M02*
