G04 (created by PCBNEW (2013-07-07 BZR 4022)-stable) date 4/12/2015 11:00:48 PM*
%MOIN*%
G04 Gerber Fmt 3.4, Leading zero omitted, Abs format*
%FSLAX34Y34*%
G01*
G70*
G90*
G04 APERTURE LIST*
%ADD10C,0.00590551*%
%ADD11C,0.00393701*%
G04 APERTURE END LIST*
G54D10*
G54D11*
X84500Y-52000D02*
G75*
G03X84500Y-52000I-6500J0D01*
G74*
G01*
G54D10*
G36*
X76986Y-57160D02*
X76984Y-57240D01*
X76968Y-57310D01*
X76940Y-57374D01*
X76898Y-57433D01*
X76848Y-57481D01*
X76787Y-57520D01*
X76722Y-57545D01*
X76651Y-57557D01*
X76581Y-57556D01*
X76511Y-57540D01*
X76447Y-57512D01*
X76388Y-57471D01*
X76339Y-57421D01*
X76300Y-57360D01*
X76275Y-57296D01*
X76261Y-57224D01*
X76262Y-57155D01*
X76277Y-57084D01*
X76305Y-57020D01*
X76346Y-56961D01*
X76395Y-56912D01*
X76456Y-56872D01*
X76520Y-56846D01*
X76592Y-56833D01*
X76661Y-56833D01*
X76732Y-56848D01*
X76796Y-56875D01*
X76856Y-56915D01*
X76905Y-56964D01*
X76945Y-57024D01*
X76945Y-57025D01*
X76971Y-57089D01*
X76985Y-57159D01*
X76986Y-57160D01*
X76986Y-57160D01*
G37*
G36*
X77360Y-56336D02*
X77359Y-56365D01*
X77353Y-56392D01*
X77343Y-56415D01*
X77327Y-56438D01*
X77308Y-56455D01*
X77285Y-56470D01*
X77261Y-56479D01*
X77234Y-56484D01*
X77209Y-56484D01*
X77181Y-56477D01*
X77158Y-56467D01*
X77135Y-56451D01*
X77118Y-56433D01*
X77103Y-56410D01*
X77094Y-56387D01*
X77088Y-56359D01*
X77089Y-56334D01*
X77095Y-56306D01*
X77104Y-56284D01*
X77120Y-56260D01*
X77138Y-56243D01*
X77162Y-56227D01*
X77185Y-56218D01*
X77213Y-56213D01*
X77237Y-56213D01*
X77265Y-56219D01*
X77288Y-56228D01*
X77312Y-56244D01*
X77329Y-56262D01*
X77344Y-56285D01*
X77345Y-56285D01*
X77354Y-56308D01*
X77359Y-56335D01*
X77360Y-56336D01*
X77360Y-56336D01*
G37*
G36*
X78934Y-56336D02*
X78934Y-56365D01*
X78927Y-56392D01*
X78917Y-56415D01*
X78901Y-56438D01*
X78883Y-56455D01*
X78859Y-56470D01*
X78836Y-56479D01*
X78808Y-56484D01*
X78783Y-56484D01*
X78756Y-56477D01*
X78733Y-56467D01*
X78710Y-56451D01*
X78692Y-56433D01*
X78677Y-56410D01*
X78668Y-56387D01*
X78663Y-56359D01*
X78663Y-56334D01*
X78669Y-56306D01*
X78679Y-56284D01*
X78695Y-56260D01*
X78713Y-56243D01*
X78736Y-56227D01*
X78759Y-56218D01*
X78787Y-56213D01*
X78812Y-56213D01*
X78840Y-56219D01*
X78862Y-56228D01*
X78886Y-56244D01*
X78903Y-56262D01*
X78919Y-56285D01*
X78919Y-56285D01*
X78928Y-56308D01*
X78934Y-56335D01*
X78934Y-56336D01*
X78934Y-56336D01*
G37*
G36*
X79761Y-57160D02*
X79760Y-57240D01*
X79744Y-57310D01*
X79716Y-57374D01*
X79674Y-57433D01*
X79624Y-57481D01*
X79563Y-57520D01*
X79498Y-57545D01*
X79426Y-57557D01*
X79357Y-57556D01*
X79286Y-57540D01*
X79223Y-57512D01*
X79163Y-57471D01*
X79115Y-57421D01*
X79076Y-57360D01*
X79050Y-57296D01*
X79037Y-57224D01*
X79038Y-57155D01*
X79053Y-57084D01*
X79080Y-57020D01*
X79121Y-56961D01*
X79171Y-56912D01*
X79232Y-56872D01*
X79296Y-56846D01*
X79367Y-56833D01*
X79436Y-56833D01*
X79508Y-56848D01*
X79571Y-56875D01*
X79632Y-56915D01*
X79680Y-56964D01*
X79720Y-57024D01*
X79721Y-57025D01*
X79747Y-57089D01*
X79761Y-57159D01*
X79761Y-57160D01*
X79761Y-57160D01*
G37*
G36*
X80661Y-57556D02*
X80188Y-57556D01*
X80188Y-57043D01*
X80661Y-57043D01*
X80661Y-57556D01*
X80661Y-57556D01*
G37*
G36*
X81461Y-57131D02*
X80988Y-57131D01*
X80988Y-56618D01*
X81461Y-56618D01*
X81461Y-57131D01*
X81461Y-57131D01*
G37*
M02*
