G04 (created by PCBNEW (2013-07-07 BZR 4022)-stable) date 4/12/2015 11:00:48 PM*
%MOIN*%
G04 Gerber Fmt 3.4, Leading zero omitted, Abs format*
%FSLAX34Y34*%
G01*
G70*
G90*
G04 APERTURE LIST*
%ADD10C,0.00590551*%
%ADD11C,0.006*%
%ADD12C,0.00393701*%
G04 APERTURE END LIST*
G54D10*
G54D11*
X82432Y-48042D02*
X82395Y-48042D01*
X82358Y-48061D01*
X82339Y-48079D01*
X82321Y-48116D01*
X82302Y-48191D01*
X82302Y-48284D01*
X82321Y-48358D01*
X82339Y-48395D01*
X82358Y-48414D01*
X82395Y-48433D01*
X82432Y-48433D01*
X82469Y-48414D01*
X82488Y-48395D01*
X82507Y-48358D01*
X82525Y-48284D01*
X82525Y-48191D01*
X82507Y-48116D01*
X82488Y-48079D01*
X82469Y-48061D01*
X82432Y-48042D01*
X81967Y-48172D02*
X81967Y-48433D01*
X82060Y-48023D02*
X82153Y-48302D01*
X81911Y-48302D01*
X81484Y-48023D02*
X81818Y-48526D01*
X81149Y-48433D02*
X81372Y-48433D01*
X81260Y-48433D02*
X81260Y-48042D01*
X81298Y-48098D01*
X81335Y-48135D01*
X81372Y-48154D01*
X81000Y-48079D02*
X80982Y-48061D01*
X80944Y-48042D01*
X80851Y-48042D01*
X80814Y-48061D01*
X80796Y-48079D01*
X80777Y-48116D01*
X80777Y-48154D01*
X80796Y-48209D01*
X81019Y-48433D01*
X80777Y-48433D01*
X80331Y-48023D02*
X80665Y-48526D01*
X79996Y-48433D02*
X80219Y-48433D01*
X80107Y-48433D02*
X80107Y-48042D01*
X80145Y-48098D01*
X80182Y-48135D01*
X80219Y-48154D01*
X79642Y-48042D02*
X79828Y-48042D01*
X79847Y-48228D01*
X79828Y-48209D01*
X79791Y-48191D01*
X79698Y-48191D01*
X79661Y-48209D01*
X79642Y-48228D01*
X79624Y-48265D01*
X79624Y-48358D01*
X79642Y-48395D01*
X79661Y-48414D01*
X79698Y-48433D01*
X79791Y-48433D01*
X79828Y-48414D01*
X79847Y-48395D01*
G54D12*
X84500Y-52000D02*
G75*
G03X84500Y-52000I-6500J0D01*
G74*
G01*
M02*
