M48
;DRILL file {Pcbnew (2013-07-07 BZR 4022)-stable} date 3/22/2015 8:37:27 PM
;FORMAT={-:-/ absolute / inch / decimal}
FMAT,2
INCH,TZ
T1C0.015
T2C0.022
T3C0.039
%
G90
G05
M72
T1
X7.22Y-5.31
X7.28Y-5.44
X7.35Y-4.96
X7.3619Y-5.3613
X7.4Y-4.92
X7.4Y-4.96
X7.44Y-4.91
X7.469Y-5.43
X7.47Y-5.67
X7.51Y-5.59
X7.512Y-5.111
X7.618Y-5.089
X7.65Y-4.91
X7.671Y-5.038
X7.689Y-4.854
X7.6905Y-4.7925
X7.7445Y-4.857
X7.7975Y-5.1
X7.8Y-5.55
X7.85Y-5.25
X7.87Y-5.36
X7.89Y-5.22
X7.98Y-5.6
X8.1225Y-5.615
X8.1775Y-5.2775
X8.2425Y-5.1585
X8.3025Y-5.1585
X8.3025Y-5.229
X8.304Y-5.4945
T2
X7.7225Y-5.6349
X7.8799Y-5.6349
T3
X7.6624Y-5.7195
X7.94Y-5.7195
T0
M30
