G04 (created by PCBNEW (2013-07-07 BZR 4022)-stable) date 3/22/2015 8:37:17 PM*
%MOIN*%
G04 Gerber Fmt 3.4, Leading zero omitted, Abs format*
%FSLAX34Y34*%
G01*
G70*
G90*
G04 APERTURE LIST*
%ADD10C,0.00590551*%
%ADD11C,0.00393701*%
%ADD12R,0.0433071X0.0472441*%
%ADD13C,0.0669291*%
%ADD14C,0.0216535*%
%ADD15C,0.03*%
%ADD16C,0.01*%
%ADD17C,0.032*%
G04 APERTURE END LIST*
G54D10*
G54D11*
X84500Y-52000D02*
G75*
G03X84500Y-52000I-6500J0D01*
G74*
G01*
G54D12*
X80425Y-57300D03*
X81225Y-56875D03*
G54D13*
X76624Y-57195D03*
X79399Y-57195D03*
G54D14*
X77224Y-56348D03*
X78799Y-56348D03*
G54D15*
X74400Y-49100D03*
X76500Y-49100D03*
X78700Y-53600D03*
X78000Y-55500D03*
X76710Y-50380D03*
X74690Y-54300D03*
X74700Y-56700D03*
X78500Y-52500D03*
X81225Y-56150D03*
X83025Y-51585D03*
X83025Y-52290D03*
X83040Y-54945D03*
X82425Y-51585D03*
X74000Y-49600D03*
X73500Y-49600D03*
X74000Y-49200D03*
X76890Y-48540D03*
X76905Y-47925D03*
X77445Y-48570D03*
X76180Y-50890D03*
X73619Y-53613D03*
X72200Y-53100D03*
X75120Y-51110D03*
X79800Y-56000D03*
X72800Y-54400D03*
X75100Y-55900D03*
X78900Y-52200D03*
X77975Y-51000D03*
X81775Y-52775D03*
G54D16*
X76500Y-49100D02*
X74400Y-49100D01*
X78600Y-53700D02*
X78700Y-53600D01*
X78600Y-55300D02*
X78600Y-53700D01*
X78400Y-55500D02*
X78600Y-55300D01*
X78000Y-55500D02*
X78400Y-55500D01*
X76710Y-51240D02*
X76710Y-50380D01*
X74680Y-53270D02*
X76710Y-51240D01*
X74680Y-54290D02*
X74680Y-53270D01*
X74690Y-54300D02*
X74680Y-54290D01*
X74700Y-56700D02*
X75100Y-56400D01*
X75100Y-56400D02*
X75400Y-56400D01*
X75400Y-56400D02*
X78500Y-53300D01*
X78500Y-53300D02*
X78500Y-52500D01*
G54D17*
X81225Y-56875D02*
X81225Y-56150D01*
G54D16*
X83025Y-54930D02*
X83025Y-52290D01*
X83040Y-54945D02*
X83025Y-54930D01*
X76180Y-51052D02*
X76180Y-50890D01*
X73619Y-53613D02*
X76180Y-51052D01*
X72190Y-52990D02*
X72190Y-53090D01*
X72190Y-53090D02*
X72200Y-53100D01*
X74070Y-51110D02*
X75120Y-51110D01*
X72190Y-52990D02*
X74070Y-51110D01*
G54D17*
X80425Y-56000D02*
X79800Y-56000D01*
X79230Y-51720D02*
X79230Y-51730D01*
X79230Y-51720D02*
X77980Y-51720D01*
X73900Y-54900D02*
X73400Y-54400D01*
X74800Y-54900D02*
X73900Y-54900D01*
X77980Y-51720D02*
X74800Y-54900D01*
G54D16*
X73400Y-54400D02*
X72800Y-54400D01*
G54D17*
X80425Y-52925D02*
X80425Y-56000D01*
X80425Y-56000D02*
X80425Y-57300D01*
X79230Y-51730D02*
X80425Y-52925D01*
X80440Y-57285D02*
X80425Y-57300D01*
G54D16*
X78900Y-52100D02*
X78900Y-52200D01*
X78400Y-52100D02*
X78900Y-52100D01*
X75100Y-55400D02*
X78400Y-52100D01*
X75100Y-55400D02*
X75100Y-55900D01*
X80000Y-51000D02*
X77975Y-51000D01*
X81775Y-52775D02*
X80000Y-51000D01*
G54D10*
G36*
X84330Y-51992D02*
X84208Y-53229D01*
X83851Y-54411D01*
X83271Y-55502D01*
X82491Y-56459D01*
X82075Y-56804D01*
X82075Y-52745D01*
X82063Y-52687D01*
X82041Y-52633D01*
X82008Y-52584D01*
X81967Y-52542D01*
X81918Y-52509D01*
X81864Y-52487D01*
X81806Y-52475D01*
X81757Y-52474D01*
X80141Y-50858D01*
X80127Y-50846D01*
X80112Y-50834D01*
X80112Y-50834D01*
X80111Y-50833D01*
X80094Y-50825D01*
X80078Y-50816D01*
X80077Y-50815D01*
X80076Y-50815D01*
X80059Y-50809D01*
X80041Y-50804D01*
X80040Y-50804D01*
X80039Y-50803D01*
X80021Y-50802D01*
X80002Y-50800D01*
X80000Y-50800D01*
X80000Y-50800D01*
X80000Y-50800D01*
X80000Y-50800D01*
X78199Y-50800D01*
X78167Y-50767D01*
X78118Y-50734D01*
X78064Y-50712D01*
X78006Y-50700D01*
X77947Y-50699D01*
X77889Y-50710D01*
X77835Y-50732D01*
X77786Y-50765D01*
X77744Y-50806D01*
X77710Y-50854D01*
X77687Y-50908D01*
X77675Y-50966D01*
X77674Y-51025D01*
X77685Y-51083D01*
X77706Y-51137D01*
X77738Y-51187D01*
X77779Y-51229D01*
X77827Y-51263D01*
X77881Y-51286D01*
X77939Y-51299D01*
X77998Y-51300D01*
X78056Y-51290D01*
X78110Y-51269D01*
X78160Y-51237D01*
X78200Y-51200D01*
X79917Y-51200D01*
X81475Y-52758D01*
X81474Y-52800D01*
X81485Y-52858D01*
X81506Y-52912D01*
X81538Y-52962D01*
X81579Y-53004D01*
X81627Y-53038D01*
X81681Y-53061D01*
X81739Y-53074D01*
X81798Y-53075D01*
X81856Y-53065D01*
X81910Y-53044D01*
X81960Y-53012D01*
X82003Y-52971D01*
X82037Y-52923D01*
X82061Y-52870D01*
X82074Y-52812D01*
X82075Y-52745D01*
X82075Y-56804D01*
X81539Y-57247D01*
X80791Y-57651D01*
X80791Y-57522D01*
X80791Y-57049D01*
X80785Y-57020D01*
X80774Y-56993D01*
X80758Y-56968D01*
X80737Y-56947D01*
X80735Y-56945D01*
X80735Y-56000D01*
X80735Y-52925D01*
X80732Y-52896D01*
X80729Y-52867D01*
X80729Y-52866D01*
X80729Y-52864D01*
X80720Y-52837D01*
X80712Y-52809D01*
X80712Y-52808D01*
X80711Y-52806D01*
X80698Y-52781D01*
X80684Y-52756D01*
X80683Y-52754D01*
X80683Y-52753D01*
X80665Y-52731D01*
X80647Y-52708D01*
X80645Y-52706D01*
X80644Y-52706D01*
X80644Y-52706D01*
X80644Y-52705D01*
X79490Y-51551D01*
X79489Y-51550D01*
X79488Y-51549D01*
X79488Y-51548D01*
X79469Y-51525D01*
X79451Y-51503D01*
X79450Y-51502D01*
X79449Y-51501D01*
X79427Y-51482D01*
X79405Y-51464D01*
X79404Y-51463D01*
X79403Y-51462D01*
X79377Y-51449D01*
X79352Y-51435D01*
X79351Y-51434D01*
X79350Y-51434D01*
X79322Y-51425D01*
X79294Y-51416D01*
X79293Y-51416D01*
X79292Y-51416D01*
X79263Y-51413D01*
X79234Y-51410D01*
X79232Y-51410D01*
X79232Y-51410D01*
X79232Y-51410D01*
X79230Y-51410D01*
X77980Y-51410D01*
X77951Y-51412D01*
X77922Y-51415D01*
X77921Y-51415D01*
X77919Y-51415D01*
X77892Y-51424D01*
X77864Y-51432D01*
X77863Y-51432D01*
X77861Y-51433D01*
X77836Y-51446D01*
X77811Y-51460D01*
X77809Y-51461D01*
X77808Y-51461D01*
X77786Y-51479D01*
X77763Y-51497D01*
X77761Y-51499D01*
X77761Y-51500D01*
X77761Y-51500D01*
X77760Y-51500D01*
X74989Y-54271D01*
X74990Y-54270D01*
X74978Y-54212D01*
X74956Y-54158D01*
X74923Y-54109D01*
X74882Y-54067D01*
X74880Y-54066D01*
X74880Y-53352D01*
X76851Y-51381D01*
X76863Y-51367D01*
X76875Y-51352D01*
X76875Y-51352D01*
X76876Y-51351D01*
X76884Y-51335D01*
X76893Y-51318D01*
X76894Y-51317D01*
X76894Y-51316D01*
X76900Y-51299D01*
X76905Y-51281D01*
X76905Y-51280D01*
X76906Y-51279D01*
X76907Y-51261D01*
X76909Y-51242D01*
X76909Y-51240D01*
X76909Y-51240D01*
X76909Y-51240D01*
X76910Y-51240D01*
X76910Y-50603D01*
X76938Y-50576D01*
X76972Y-50528D01*
X76996Y-50475D01*
X77009Y-50417D01*
X77010Y-50350D01*
X76998Y-50292D01*
X76976Y-50238D01*
X76943Y-50189D01*
X76902Y-50147D01*
X76853Y-50114D01*
X76800Y-50092D01*
X76800Y-49070D01*
X76788Y-49012D01*
X76766Y-48958D01*
X76733Y-48909D01*
X76692Y-48867D01*
X76643Y-48834D01*
X76589Y-48812D01*
X76531Y-48800D01*
X76472Y-48799D01*
X76414Y-48810D01*
X76360Y-48832D01*
X76311Y-48865D01*
X76275Y-48900D01*
X74624Y-48900D01*
X74592Y-48867D01*
X74543Y-48834D01*
X74489Y-48812D01*
X74431Y-48800D01*
X74372Y-48799D01*
X74314Y-48810D01*
X74260Y-48832D01*
X74211Y-48865D01*
X74169Y-48906D01*
X74135Y-48954D01*
X74112Y-49008D01*
X74100Y-49066D01*
X74099Y-49125D01*
X74110Y-49183D01*
X74131Y-49237D01*
X74163Y-49287D01*
X74204Y-49329D01*
X74252Y-49363D01*
X74306Y-49386D01*
X74364Y-49399D01*
X74423Y-49400D01*
X74481Y-49390D01*
X74535Y-49369D01*
X74585Y-49337D01*
X74625Y-49300D01*
X76276Y-49300D01*
X76304Y-49329D01*
X76352Y-49363D01*
X76406Y-49386D01*
X76464Y-49399D01*
X76523Y-49400D01*
X76581Y-49390D01*
X76635Y-49369D01*
X76685Y-49337D01*
X76728Y-49296D01*
X76762Y-49248D01*
X76786Y-49195D01*
X76799Y-49137D01*
X76800Y-49070D01*
X76800Y-50092D01*
X76799Y-50092D01*
X76741Y-50080D01*
X76682Y-50079D01*
X76624Y-50090D01*
X76570Y-50112D01*
X76521Y-50145D01*
X76479Y-50186D01*
X76445Y-50234D01*
X76422Y-50288D01*
X76410Y-50346D01*
X76409Y-50405D01*
X76420Y-50463D01*
X76441Y-50517D01*
X76473Y-50567D01*
X76510Y-50604D01*
X76510Y-51157D01*
X76480Y-51187D01*
X76480Y-50860D01*
X76468Y-50802D01*
X76446Y-50748D01*
X76413Y-50699D01*
X76372Y-50657D01*
X76323Y-50624D01*
X76269Y-50602D01*
X76211Y-50590D01*
X76152Y-50589D01*
X76094Y-50600D01*
X76040Y-50622D01*
X75991Y-50655D01*
X75949Y-50696D01*
X75915Y-50744D01*
X75892Y-50798D01*
X75880Y-50856D01*
X75879Y-50915D01*
X75890Y-50973D01*
X75911Y-51027D01*
X75915Y-51033D01*
X75420Y-51529D01*
X75420Y-51080D01*
X75408Y-51022D01*
X75386Y-50968D01*
X75353Y-50919D01*
X75312Y-50877D01*
X75263Y-50844D01*
X75209Y-50822D01*
X75151Y-50810D01*
X75092Y-50809D01*
X75034Y-50820D01*
X74980Y-50842D01*
X74931Y-50875D01*
X74895Y-50910D01*
X74070Y-50910D01*
X74051Y-50911D01*
X74033Y-50913D01*
X74032Y-50913D01*
X74031Y-50913D01*
X74013Y-50919D01*
X73995Y-50924D01*
X73994Y-50924D01*
X73993Y-50925D01*
X73977Y-50933D01*
X73961Y-50942D01*
X73960Y-50942D01*
X73959Y-50943D01*
X73944Y-50955D01*
X73930Y-50966D01*
X73929Y-50968D01*
X73929Y-50968D01*
X73929Y-50968D01*
X73928Y-50968D01*
X72066Y-52830D01*
X72060Y-52832D01*
X72011Y-52865D01*
X71969Y-52906D01*
X71935Y-52954D01*
X71912Y-53008D01*
X71900Y-53066D01*
X71899Y-53125D01*
X71910Y-53183D01*
X71931Y-53237D01*
X71963Y-53287D01*
X72004Y-53329D01*
X72052Y-53363D01*
X72106Y-53386D01*
X72164Y-53399D01*
X72223Y-53400D01*
X72281Y-53390D01*
X72335Y-53369D01*
X72385Y-53337D01*
X72428Y-53296D01*
X72462Y-53248D01*
X72486Y-53195D01*
X72499Y-53137D01*
X72500Y-53070D01*
X72488Y-53012D01*
X72477Y-52985D01*
X74152Y-51310D01*
X74896Y-51310D01*
X74924Y-51339D01*
X74972Y-51373D01*
X75026Y-51396D01*
X75084Y-51409D01*
X75143Y-51410D01*
X75201Y-51400D01*
X75255Y-51379D01*
X75305Y-51347D01*
X75348Y-51306D01*
X75382Y-51258D01*
X75406Y-51205D01*
X75419Y-51147D01*
X75420Y-51080D01*
X75420Y-51529D01*
X73636Y-53313D01*
X73591Y-53312D01*
X73533Y-53323D01*
X73479Y-53345D01*
X73430Y-53378D01*
X73388Y-53419D01*
X73354Y-53467D01*
X73331Y-53521D01*
X73319Y-53579D01*
X73318Y-53638D01*
X73329Y-53696D01*
X73350Y-53750D01*
X73382Y-53800D01*
X73423Y-53842D01*
X73471Y-53876D01*
X73525Y-53899D01*
X73583Y-53912D01*
X73642Y-53913D01*
X73700Y-53903D01*
X73754Y-53882D01*
X73804Y-53850D01*
X73847Y-53809D01*
X73881Y-53761D01*
X73905Y-53708D01*
X73918Y-53650D01*
X73918Y-53596D01*
X76321Y-51193D01*
X76333Y-51179D01*
X76345Y-51164D01*
X76345Y-51164D01*
X76346Y-51163D01*
X76354Y-51146D01*
X76363Y-51130D01*
X76364Y-51129D01*
X76364Y-51128D01*
X76364Y-51127D01*
X76365Y-51127D01*
X76408Y-51086D01*
X76442Y-51038D01*
X76466Y-50985D01*
X76479Y-50927D01*
X76480Y-50860D01*
X76480Y-51187D01*
X74538Y-53128D01*
X74526Y-53142D01*
X74514Y-53157D01*
X74514Y-53157D01*
X74513Y-53158D01*
X74505Y-53175D01*
X74496Y-53191D01*
X74495Y-53192D01*
X74495Y-53193D01*
X74489Y-53210D01*
X74484Y-53228D01*
X74484Y-53229D01*
X74483Y-53230D01*
X74482Y-53248D01*
X74480Y-53267D01*
X74480Y-53269D01*
X74480Y-53269D01*
X74480Y-53269D01*
X74480Y-53270D01*
X74480Y-54085D01*
X74459Y-54106D01*
X74425Y-54154D01*
X74402Y-54208D01*
X74390Y-54266D01*
X74389Y-54325D01*
X74400Y-54383D01*
X74421Y-54437D01*
X74453Y-54487D01*
X74494Y-54529D01*
X74542Y-54563D01*
X74596Y-54586D01*
X74611Y-54590D01*
X74028Y-54590D01*
X73619Y-54180D01*
X73572Y-54142D01*
X73519Y-54113D01*
X73461Y-54096D01*
X73401Y-54090D01*
X73340Y-54095D01*
X73282Y-54112D01*
X73229Y-54141D01*
X73182Y-54179D01*
X73165Y-54200D01*
X73024Y-54200D01*
X72992Y-54167D01*
X72943Y-54134D01*
X72889Y-54112D01*
X72831Y-54100D01*
X72772Y-54099D01*
X72714Y-54110D01*
X72660Y-54132D01*
X72611Y-54165D01*
X72569Y-54206D01*
X72535Y-54254D01*
X72512Y-54308D01*
X72500Y-54366D01*
X72499Y-54425D01*
X72510Y-54483D01*
X72531Y-54537D01*
X72563Y-54587D01*
X72604Y-54629D01*
X72652Y-54663D01*
X72706Y-54686D01*
X72764Y-54699D01*
X72823Y-54700D01*
X72881Y-54690D01*
X72935Y-54669D01*
X72985Y-54637D01*
X73025Y-54600D01*
X73164Y-54600D01*
X73177Y-54616D01*
X73180Y-54619D01*
X73680Y-55119D01*
X73702Y-55137D01*
X73724Y-55155D01*
X73726Y-55156D01*
X73727Y-55157D01*
X73752Y-55171D01*
X73777Y-55184D01*
X73779Y-55185D01*
X73780Y-55186D01*
X73808Y-55194D01*
X73835Y-55203D01*
X73837Y-55203D01*
X73838Y-55203D01*
X73867Y-55206D01*
X73895Y-55209D01*
X73898Y-55209D01*
X73898Y-55209D01*
X73898Y-55209D01*
X73900Y-55210D01*
X74800Y-55210D01*
X74828Y-55207D01*
X74857Y-55204D01*
X74858Y-55204D01*
X74860Y-55204D01*
X74887Y-55195D01*
X74915Y-55187D01*
X74916Y-55187D01*
X74918Y-55186D01*
X74943Y-55173D01*
X74968Y-55159D01*
X74970Y-55158D01*
X74971Y-55158D01*
X74993Y-55140D01*
X75016Y-55122D01*
X75018Y-55120D01*
X75018Y-55119D01*
X75018Y-55119D01*
X75019Y-55119D01*
X78108Y-52030D01*
X78187Y-52030D01*
X74958Y-55258D01*
X74946Y-55272D01*
X74934Y-55287D01*
X74934Y-55287D01*
X74933Y-55288D01*
X74925Y-55305D01*
X74916Y-55321D01*
X74915Y-55322D01*
X74915Y-55323D01*
X74909Y-55340D01*
X74904Y-55358D01*
X74904Y-55359D01*
X74903Y-55360D01*
X74902Y-55378D01*
X74900Y-55397D01*
X74900Y-55399D01*
X74900Y-55399D01*
X74900Y-55399D01*
X74900Y-55400D01*
X74900Y-55675D01*
X74869Y-55706D01*
X74835Y-55754D01*
X74812Y-55808D01*
X74800Y-55866D01*
X74799Y-55925D01*
X74810Y-55983D01*
X74831Y-56037D01*
X74863Y-56087D01*
X74904Y-56129D01*
X74952Y-56163D01*
X75006Y-56186D01*
X75064Y-56199D01*
X75099Y-56200D01*
X75096Y-56200D01*
X75091Y-56199D01*
X75070Y-56202D01*
X75061Y-56203D01*
X75058Y-56204D01*
X75052Y-56205D01*
X75032Y-56212D01*
X75023Y-56215D01*
X75021Y-56216D01*
X75015Y-56218D01*
X74997Y-56229D01*
X74989Y-56233D01*
X74987Y-56235D01*
X74982Y-56238D01*
X74979Y-56239D01*
X74758Y-56405D01*
X74731Y-56400D01*
X74672Y-56399D01*
X74614Y-56410D01*
X74560Y-56432D01*
X74511Y-56465D01*
X74469Y-56506D01*
X74435Y-56554D01*
X74412Y-56608D01*
X74400Y-56666D01*
X74399Y-56725D01*
X74410Y-56783D01*
X74431Y-56837D01*
X74463Y-56887D01*
X74504Y-56929D01*
X74552Y-56963D01*
X74606Y-56986D01*
X74664Y-56999D01*
X74723Y-57000D01*
X74781Y-56990D01*
X74835Y-56969D01*
X74885Y-56937D01*
X74928Y-56896D01*
X74962Y-56848D01*
X74986Y-56795D01*
X74999Y-56737D01*
X74999Y-56725D01*
X75166Y-56600D01*
X75400Y-56600D01*
X75418Y-56598D01*
X75436Y-56596D01*
X75437Y-56596D01*
X75438Y-56596D01*
X75456Y-56590D01*
X75474Y-56585D01*
X75475Y-56585D01*
X75476Y-56584D01*
X75492Y-56576D01*
X75508Y-56567D01*
X75509Y-56567D01*
X75510Y-56566D01*
X75525Y-56554D01*
X75539Y-56543D01*
X75540Y-56541D01*
X75540Y-56541D01*
X75540Y-56541D01*
X75541Y-56541D01*
X78401Y-53681D01*
X78400Y-53697D01*
X78400Y-53699D01*
X78400Y-53699D01*
X78400Y-53699D01*
X78400Y-53700D01*
X78400Y-55217D01*
X78317Y-55300D01*
X78224Y-55300D01*
X78192Y-55267D01*
X78143Y-55234D01*
X78089Y-55212D01*
X78031Y-55200D01*
X77972Y-55199D01*
X77914Y-55210D01*
X77860Y-55232D01*
X77811Y-55265D01*
X77769Y-55306D01*
X77735Y-55354D01*
X77712Y-55408D01*
X77700Y-55466D01*
X77699Y-55525D01*
X77710Y-55583D01*
X77731Y-55637D01*
X77763Y-55687D01*
X77804Y-55729D01*
X77852Y-55763D01*
X77906Y-55786D01*
X77964Y-55799D01*
X78023Y-55800D01*
X78081Y-55790D01*
X78135Y-55769D01*
X78185Y-55737D01*
X78225Y-55700D01*
X78400Y-55700D01*
X78418Y-55698D01*
X78436Y-55696D01*
X78437Y-55696D01*
X78438Y-55696D01*
X78456Y-55690D01*
X78474Y-55685D01*
X78475Y-55685D01*
X78476Y-55684D01*
X78492Y-55676D01*
X78508Y-55667D01*
X78509Y-55667D01*
X78510Y-55666D01*
X78525Y-55654D01*
X78539Y-55643D01*
X78540Y-55641D01*
X78540Y-55641D01*
X78540Y-55641D01*
X78541Y-55641D01*
X78741Y-55441D01*
X78753Y-55427D01*
X78765Y-55412D01*
X78765Y-55412D01*
X78766Y-55411D01*
X78774Y-55394D01*
X78783Y-55378D01*
X78784Y-55377D01*
X78784Y-55376D01*
X78790Y-55359D01*
X78795Y-55341D01*
X78795Y-55340D01*
X78796Y-55339D01*
X78797Y-55321D01*
X78799Y-55302D01*
X78799Y-55300D01*
X78799Y-55300D01*
X78799Y-55300D01*
X78800Y-55300D01*
X78800Y-53883D01*
X78835Y-53869D01*
X78885Y-53837D01*
X78928Y-53796D01*
X78962Y-53748D01*
X78986Y-53695D01*
X78999Y-53637D01*
X79000Y-53570D01*
X78988Y-53512D01*
X78966Y-53458D01*
X78933Y-53409D01*
X78892Y-53367D01*
X78843Y-53334D01*
X78789Y-53312D01*
X78731Y-53300D01*
X78700Y-53299D01*
X78700Y-52723D01*
X78728Y-52696D01*
X78762Y-52648D01*
X78786Y-52595D01*
X78799Y-52537D01*
X78799Y-52483D01*
X78806Y-52486D01*
X78864Y-52499D01*
X78923Y-52500D01*
X78981Y-52490D01*
X79035Y-52469D01*
X79085Y-52437D01*
X79128Y-52396D01*
X79162Y-52348D01*
X79186Y-52295D01*
X79199Y-52237D01*
X79200Y-52170D01*
X79192Y-52130D01*
X80115Y-53053D01*
X80115Y-55690D01*
X79800Y-55690D01*
X79739Y-55695D01*
X79681Y-55713D01*
X79628Y-55741D01*
X79581Y-55780D01*
X79542Y-55826D01*
X79514Y-55879D01*
X79496Y-55937D01*
X79490Y-55997D01*
X79495Y-56058D01*
X79512Y-56116D01*
X79540Y-56169D01*
X79578Y-56216D01*
X79624Y-56255D01*
X79677Y-56284D01*
X79735Y-56303D01*
X79795Y-56309D01*
X79800Y-56310D01*
X80115Y-56310D01*
X80115Y-56945D01*
X80113Y-56946D01*
X80092Y-56967D01*
X80075Y-56992D01*
X80064Y-57019D01*
X80058Y-57048D01*
X80058Y-57077D01*
X80058Y-57550D01*
X80064Y-57579D01*
X80075Y-57606D01*
X80091Y-57631D01*
X80112Y-57652D01*
X80136Y-57668D01*
X80163Y-57680D01*
X80192Y-57686D01*
X80222Y-57686D01*
X80656Y-57686D01*
X80685Y-57680D01*
X80712Y-57669D01*
X80736Y-57653D01*
X80757Y-57632D01*
X80774Y-57607D01*
X80785Y-57580D01*
X80791Y-57551D01*
X80791Y-57522D01*
X80791Y-57651D01*
X80452Y-57834D01*
X79884Y-58010D01*
X79884Y-57147D01*
X79866Y-57054D01*
X79829Y-56966D01*
X79777Y-56887D01*
X79710Y-56820D01*
X79631Y-56766D01*
X79543Y-56730D01*
X79450Y-56711D01*
X79355Y-56710D01*
X79262Y-56728D01*
X79174Y-56763D01*
X79094Y-56815D01*
X79057Y-56852D01*
X79057Y-56323D01*
X79047Y-56273D01*
X79028Y-56227D01*
X79000Y-56184D01*
X78964Y-56148D01*
X78922Y-56120D01*
X78875Y-56100D01*
X78826Y-56090D01*
X78775Y-56090D01*
X78725Y-56099D01*
X78678Y-56118D01*
X78636Y-56146D01*
X78600Y-56182D01*
X78571Y-56223D01*
X78551Y-56270D01*
X78541Y-56319D01*
X78540Y-56370D01*
X78549Y-56420D01*
X78568Y-56467D01*
X78595Y-56510D01*
X78630Y-56546D01*
X78672Y-56575D01*
X78718Y-56595D01*
X78768Y-56606D01*
X78818Y-56607D01*
X78868Y-56598D01*
X78916Y-56580D01*
X78958Y-56553D01*
X78995Y-56518D01*
X79024Y-56477D01*
X79045Y-56430D01*
X79056Y-56381D01*
X79057Y-56323D01*
X79057Y-56852D01*
X79026Y-56882D01*
X78973Y-56960D01*
X78935Y-57048D01*
X78915Y-57141D01*
X78914Y-57236D01*
X78931Y-57329D01*
X78966Y-57417D01*
X79018Y-57497D01*
X79084Y-57566D01*
X79162Y-57620D01*
X79249Y-57658D01*
X79342Y-57678D01*
X79437Y-57680D01*
X79530Y-57664D01*
X79619Y-57630D01*
X79699Y-57579D01*
X79768Y-57513D01*
X79823Y-57435D01*
X79861Y-57349D01*
X79882Y-57256D01*
X79884Y-57147D01*
X79884Y-58010D01*
X79272Y-58200D01*
X78044Y-58329D01*
X77482Y-58278D01*
X77482Y-56323D01*
X77473Y-56273D01*
X77453Y-56227D01*
X77425Y-56184D01*
X77390Y-56148D01*
X77348Y-56120D01*
X77301Y-56100D01*
X77251Y-56090D01*
X77201Y-56090D01*
X77151Y-56099D01*
X77104Y-56118D01*
X77061Y-56146D01*
X77025Y-56182D01*
X76997Y-56223D01*
X76977Y-56270D01*
X76966Y-56319D01*
X76965Y-56370D01*
X76975Y-56420D01*
X76993Y-56467D01*
X77021Y-56510D01*
X77056Y-56546D01*
X77097Y-56575D01*
X77144Y-56595D01*
X77193Y-56606D01*
X77244Y-56607D01*
X77294Y-56598D01*
X77341Y-56580D01*
X77384Y-56553D01*
X77421Y-56518D01*
X77450Y-56477D01*
X77470Y-56430D01*
X77482Y-56381D01*
X77482Y-56323D01*
X77482Y-58278D01*
X77108Y-58244D01*
X77108Y-57147D01*
X77090Y-57054D01*
X77054Y-56966D01*
X77001Y-56887D01*
X76934Y-56820D01*
X76855Y-56766D01*
X76768Y-56730D01*
X76675Y-56711D01*
X76580Y-56710D01*
X76486Y-56728D01*
X76398Y-56763D01*
X76319Y-56815D01*
X76251Y-56882D01*
X76197Y-56960D01*
X76160Y-57048D01*
X76140Y-57141D01*
X76138Y-57236D01*
X76156Y-57329D01*
X76191Y-57417D01*
X76242Y-57497D01*
X76308Y-57566D01*
X76386Y-57620D01*
X76473Y-57658D01*
X76566Y-57678D01*
X76661Y-57680D01*
X76755Y-57664D01*
X76843Y-57630D01*
X76924Y-57579D01*
X76992Y-57513D01*
X77047Y-57435D01*
X77086Y-57349D01*
X77107Y-57256D01*
X77108Y-57147D01*
X77108Y-58244D01*
X76813Y-58217D01*
X75628Y-57868D01*
X74534Y-57296D01*
X73571Y-56522D01*
X72777Y-55575D01*
X72182Y-54493D01*
X71808Y-53315D01*
X71671Y-52088D01*
X71774Y-50857D01*
X72114Y-49669D01*
X72679Y-48571D01*
X73446Y-47603D01*
X74387Y-46802D01*
X75465Y-46199D01*
X76640Y-45818D01*
X77120Y-45761D01*
X77120Y-47359D01*
X82302Y-47367D01*
X82364Y-47416D01*
X83172Y-48351D01*
X83782Y-49425D01*
X84172Y-50597D01*
X84327Y-51830D01*
X84330Y-51992D01*
X84330Y-51992D01*
G37*
G54D16*
X84330Y-51992D02*
X84208Y-53229D01*
X83851Y-54411D01*
X83271Y-55502D01*
X82491Y-56459D01*
X82075Y-56804D01*
X82075Y-52745D01*
X82063Y-52687D01*
X82041Y-52633D01*
X82008Y-52584D01*
X81967Y-52542D01*
X81918Y-52509D01*
X81864Y-52487D01*
X81806Y-52475D01*
X81757Y-52474D01*
X80141Y-50858D01*
X80127Y-50846D01*
X80112Y-50834D01*
X80112Y-50834D01*
X80111Y-50833D01*
X80094Y-50825D01*
X80078Y-50816D01*
X80077Y-50815D01*
X80076Y-50815D01*
X80059Y-50809D01*
X80041Y-50804D01*
X80040Y-50804D01*
X80039Y-50803D01*
X80021Y-50802D01*
X80002Y-50800D01*
X80000Y-50800D01*
X80000Y-50800D01*
X80000Y-50800D01*
X80000Y-50800D01*
X78199Y-50800D01*
X78167Y-50767D01*
X78118Y-50734D01*
X78064Y-50712D01*
X78006Y-50700D01*
X77947Y-50699D01*
X77889Y-50710D01*
X77835Y-50732D01*
X77786Y-50765D01*
X77744Y-50806D01*
X77710Y-50854D01*
X77687Y-50908D01*
X77675Y-50966D01*
X77674Y-51025D01*
X77685Y-51083D01*
X77706Y-51137D01*
X77738Y-51187D01*
X77779Y-51229D01*
X77827Y-51263D01*
X77881Y-51286D01*
X77939Y-51299D01*
X77998Y-51300D01*
X78056Y-51290D01*
X78110Y-51269D01*
X78160Y-51237D01*
X78200Y-51200D01*
X79917Y-51200D01*
X81475Y-52758D01*
X81474Y-52800D01*
X81485Y-52858D01*
X81506Y-52912D01*
X81538Y-52962D01*
X81579Y-53004D01*
X81627Y-53038D01*
X81681Y-53061D01*
X81739Y-53074D01*
X81798Y-53075D01*
X81856Y-53065D01*
X81910Y-53044D01*
X81960Y-53012D01*
X82003Y-52971D01*
X82037Y-52923D01*
X82061Y-52870D01*
X82074Y-52812D01*
X82075Y-52745D01*
X82075Y-56804D01*
X81539Y-57247D01*
X80791Y-57651D01*
X80791Y-57522D01*
X80791Y-57049D01*
X80785Y-57020D01*
X80774Y-56993D01*
X80758Y-56968D01*
X80737Y-56947D01*
X80735Y-56945D01*
X80735Y-56000D01*
X80735Y-52925D01*
X80732Y-52896D01*
X80729Y-52867D01*
X80729Y-52866D01*
X80729Y-52864D01*
X80720Y-52837D01*
X80712Y-52809D01*
X80712Y-52808D01*
X80711Y-52806D01*
X80698Y-52781D01*
X80684Y-52756D01*
X80683Y-52754D01*
X80683Y-52753D01*
X80665Y-52731D01*
X80647Y-52708D01*
X80645Y-52706D01*
X80644Y-52706D01*
X80644Y-52706D01*
X80644Y-52705D01*
X79490Y-51551D01*
X79489Y-51550D01*
X79488Y-51549D01*
X79488Y-51548D01*
X79469Y-51525D01*
X79451Y-51503D01*
X79450Y-51502D01*
X79449Y-51501D01*
X79427Y-51482D01*
X79405Y-51464D01*
X79404Y-51463D01*
X79403Y-51462D01*
X79377Y-51449D01*
X79352Y-51435D01*
X79351Y-51434D01*
X79350Y-51434D01*
X79322Y-51425D01*
X79294Y-51416D01*
X79293Y-51416D01*
X79292Y-51416D01*
X79263Y-51413D01*
X79234Y-51410D01*
X79232Y-51410D01*
X79232Y-51410D01*
X79232Y-51410D01*
X79230Y-51410D01*
X77980Y-51410D01*
X77951Y-51412D01*
X77922Y-51415D01*
X77921Y-51415D01*
X77919Y-51415D01*
X77892Y-51424D01*
X77864Y-51432D01*
X77863Y-51432D01*
X77861Y-51433D01*
X77836Y-51446D01*
X77811Y-51460D01*
X77809Y-51461D01*
X77808Y-51461D01*
X77786Y-51479D01*
X77763Y-51497D01*
X77761Y-51499D01*
X77761Y-51500D01*
X77761Y-51500D01*
X77760Y-51500D01*
X74989Y-54271D01*
X74990Y-54270D01*
X74978Y-54212D01*
X74956Y-54158D01*
X74923Y-54109D01*
X74882Y-54067D01*
X74880Y-54066D01*
X74880Y-53352D01*
X76851Y-51381D01*
X76863Y-51367D01*
X76875Y-51352D01*
X76875Y-51352D01*
X76876Y-51351D01*
X76884Y-51335D01*
X76893Y-51318D01*
X76894Y-51317D01*
X76894Y-51316D01*
X76900Y-51299D01*
X76905Y-51281D01*
X76905Y-51280D01*
X76906Y-51279D01*
X76907Y-51261D01*
X76909Y-51242D01*
X76909Y-51240D01*
X76909Y-51240D01*
X76909Y-51240D01*
X76910Y-51240D01*
X76910Y-50603D01*
X76938Y-50576D01*
X76972Y-50528D01*
X76996Y-50475D01*
X77009Y-50417D01*
X77010Y-50350D01*
X76998Y-50292D01*
X76976Y-50238D01*
X76943Y-50189D01*
X76902Y-50147D01*
X76853Y-50114D01*
X76800Y-50092D01*
X76800Y-49070D01*
X76788Y-49012D01*
X76766Y-48958D01*
X76733Y-48909D01*
X76692Y-48867D01*
X76643Y-48834D01*
X76589Y-48812D01*
X76531Y-48800D01*
X76472Y-48799D01*
X76414Y-48810D01*
X76360Y-48832D01*
X76311Y-48865D01*
X76275Y-48900D01*
X74624Y-48900D01*
X74592Y-48867D01*
X74543Y-48834D01*
X74489Y-48812D01*
X74431Y-48800D01*
X74372Y-48799D01*
X74314Y-48810D01*
X74260Y-48832D01*
X74211Y-48865D01*
X74169Y-48906D01*
X74135Y-48954D01*
X74112Y-49008D01*
X74100Y-49066D01*
X74099Y-49125D01*
X74110Y-49183D01*
X74131Y-49237D01*
X74163Y-49287D01*
X74204Y-49329D01*
X74252Y-49363D01*
X74306Y-49386D01*
X74364Y-49399D01*
X74423Y-49400D01*
X74481Y-49390D01*
X74535Y-49369D01*
X74585Y-49337D01*
X74625Y-49300D01*
X76276Y-49300D01*
X76304Y-49329D01*
X76352Y-49363D01*
X76406Y-49386D01*
X76464Y-49399D01*
X76523Y-49400D01*
X76581Y-49390D01*
X76635Y-49369D01*
X76685Y-49337D01*
X76728Y-49296D01*
X76762Y-49248D01*
X76786Y-49195D01*
X76799Y-49137D01*
X76800Y-49070D01*
X76800Y-50092D01*
X76799Y-50092D01*
X76741Y-50080D01*
X76682Y-50079D01*
X76624Y-50090D01*
X76570Y-50112D01*
X76521Y-50145D01*
X76479Y-50186D01*
X76445Y-50234D01*
X76422Y-50288D01*
X76410Y-50346D01*
X76409Y-50405D01*
X76420Y-50463D01*
X76441Y-50517D01*
X76473Y-50567D01*
X76510Y-50604D01*
X76510Y-51157D01*
X76480Y-51187D01*
X76480Y-50860D01*
X76468Y-50802D01*
X76446Y-50748D01*
X76413Y-50699D01*
X76372Y-50657D01*
X76323Y-50624D01*
X76269Y-50602D01*
X76211Y-50590D01*
X76152Y-50589D01*
X76094Y-50600D01*
X76040Y-50622D01*
X75991Y-50655D01*
X75949Y-50696D01*
X75915Y-50744D01*
X75892Y-50798D01*
X75880Y-50856D01*
X75879Y-50915D01*
X75890Y-50973D01*
X75911Y-51027D01*
X75915Y-51033D01*
X75420Y-51529D01*
X75420Y-51080D01*
X75408Y-51022D01*
X75386Y-50968D01*
X75353Y-50919D01*
X75312Y-50877D01*
X75263Y-50844D01*
X75209Y-50822D01*
X75151Y-50810D01*
X75092Y-50809D01*
X75034Y-50820D01*
X74980Y-50842D01*
X74931Y-50875D01*
X74895Y-50910D01*
X74070Y-50910D01*
X74051Y-50911D01*
X74033Y-50913D01*
X74032Y-50913D01*
X74031Y-50913D01*
X74013Y-50919D01*
X73995Y-50924D01*
X73994Y-50924D01*
X73993Y-50925D01*
X73977Y-50933D01*
X73961Y-50942D01*
X73960Y-50942D01*
X73959Y-50943D01*
X73944Y-50955D01*
X73930Y-50966D01*
X73929Y-50968D01*
X73929Y-50968D01*
X73929Y-50968D01*
X73928Y-50968D01*
X72066Y-52830D01*
X72060Y-52832D01*
X72011Y-52865D01*
X71969Y-52906D01*
X71935Y-52954D01*
X71912Y-53008D01*
X71900Y-53066D01*
X71899Y-53125D01*
X71910Y-53183D01*
X71931Y-53237D01*
X71963Y-53287D01*
X72004Y-53329D01*
X72052Y-53363D01*
X72106Y-53386D01*
X72164Y-53399D01*
X72223Y-53400D01*
X72281Y-53390D01*
X72335Y-53369D01*
X72385Y-53337D01*
X72428Y-53296D01*
X72462Y-53248D01*
X72486Y-53195D01*
X72499Y-53137D01*
X72500Y-53070D01*
X72488Y-53012D01*
X72477Y-52985D01*
X74152Y-51310D01*
X74896Y-51310D01*
X74924Y-51339D01*
X74972Y-51373D01*
X75026Y-51396D01*
X75084Y-51409D01*
X75143Y-51410D01*
X75201Y-51400D01*
X75255Y-51379D01*
X75305Y-51347D01*
X75348Y-51306D01*
X75382Y-51258D01*
X75406Y-51205D01*
X75419Y-51147D01*
X75420Y-51080D01*
X75420Y-51529D01*
X73636Y-53313D01*
X73591Y-53312D01*
X73533Y-53323D01*
X73479Y-53345D01*
X73430Y-53378D01*
X73388Y-53419D01*
X73354Y-53467D01*
X73331Y-53521D01*
X73319Y-53579D01*
X73318Y-53638D01*
X73329Y-53696D01*
X73350Y-53750D01*
X73382Y-53800D01*
X73423Y-53842D01*
X73471Y-53876D01*
X73525Y-53899D01*
X73583Y-53912D01*
X73642Y-53913D01*
X73700Y-53903D01*
X73754Y-53882D01*
X73804Y-53850D01*
X73847Y-53809D01*
X73881Y-53761D01*
X73905Y-53708D01*
X73918Y-53650D01*
X73918Y-53596D01*
X76321Y-51193D01*
X76333Y-51179D01*
X76345Y-51164D01*
X76345Y-51164D01*
X76346Y-51163D01*
X76354Y-51146D01*
X76363Y-51130D01*
X76364Y-51129D01*
X76364Y-51128D01*
X76364Y-51127D01*
X76365Y-51127D01*
X76408Y-51086D01*
X76442Y-51038D01*
X76466Y-50985D01*
X76479Y-50927D01*
X76480Y-50860D01*
X76480Y-51187D01*
X74538Y-53128D01*
X74526Y-53142D01*
X74514Y-53157D01*
X74514Y-53157D01*
X74513Y-53158D01*
X74505Y-53175D01*
X74496Y-53191D01*
X74495Y-53192D01*
X74495Y-53193D01*
X74489Y-53210D01*
X74484Y-53228D01*
X74484Y-53229D01*
X74483Y-53230D01*
X74482Y-53248D01*
X74480Y-53267D01*
X74480Y-53269D01*
X74480Y-53269D01*
X74480Y-53269D01*
X74480Y-53270D01*
X74480Y-54085D01*
X74459Y-54106D01*
X74425Y-54154D01*
X74402Y-54208D01*
X74390Y-54266D01*
X74389Y-54325D01*
X74400Y-54383D01*
X74421Y-54437D01*
X74453Y-54487D01*
X74494Y-54529D01*
X74542Y-54563D01*
X74596Y-54586D01*
X74611Y-54590D01*
X74028Y-54590D01*
X73619Y-54180D01*
X73572Y-54142D01*
X73519Y-54113D01*
X73461Y-54096D01*
X73401Y-54090D01*
X73340Y-54095D01*
X73282Y-54112D01*
X73229Y-54141D01*
X73182Y-54179D01*
X73165Y-54200D01*
X73024Y-54200D01*
X72992Y-54167D01*
X72943Y-54134D01*
X72889Y-54112D01*
X72831Y-54100D01*
X72772Y-54099D01*
X72714Y-54110D01*
X72660Y-54132D01*
X72611Y-54165D01*
X72569Y-54206D01*
X72535Y-54254D01*
X72512Y-54308D01*
X72500Y-54366D01*
X72499Y-54425D01*
X72510Y-54483D01*
X72531Y-54537D01*
X72563Y-54587D01*
X72604Y-54629D01*
X72652Y-54663D01*
X72706Y-54686D01*
X72764Y-54699D01*
X72823Y-54700D01*
X72881Y-54690D01*
X72935Y-54669D01*
X72985Y-54637D01*
X73025Y-54600D01*
X73164Y-54600D01*
X73177Y-54616D01*
X73180Y-54619D01*
X73680Y-55119D01*
X73702Y-55137D01*
X73724Y-55155D01*
X73726Y-55156D01*
X73727Y-55157D01*
X73752Y-55171D01*
X73777Y-55184D01*
X73779Y-55185D01*
X73780Y-55186D01*
X73808Y-55194D01*
X73835Y-55203D01*
X73837Y-55203D01*
X73838Y-55203D01*
X73867Y-55206D01*
X73895Y-55209D01*
X73898Y-55209D01*
X73898Y-55209D01*
X73898Y-55209D01*
X73900Y-55210D01*
X74800Y-55210D01*
X74828Y-55207D01*
X74857Y-55204D01*
X74858Y-55204D01*
X74860Y-55204D01*
X74887Y-55195D01*
X74915Y-55187D01*
X74916Y-55187D01*
X74918Y-55186D01*
X74943Y-55173D01*
X74968Y-55159D01*
X74970Y-55158D01*
X74971Y-55158D01*
X74993Y-55140D01*
X75016Y-55122D01*
X75018Y-55120D01*
X75018Y-55119D01*
X75018Y-55119D01*
X75019Y-55119D01*
X78108Y-52030D01*
X78187Y-52030D01*
X74958Y-55258D01*
X74946Y-55272D01*
X74934Y-55287D01*
X74934Y-55287D01*
X74933Y-55288D01*
X74925Y-55305D01*
X74916Y-55321D01*
X74915Y-55322D01*
X74915Y-55323D01*
X74909Y-55340D01*
X74904Y-55358D01*
X74904Y-55359D01*
X74903Y-55360D01*
X74902Y-55378D01*
X74900Y-55397D01*
X74900Y-55399D01*
X74900Y-55399D01*
X74900Y-55399D01*
X74900Y-55400D01*
X74900Y-55675D01*
X74869Y-55706D01*
X74835Y-55754D01*
X74812Y-55808D01*
X74800Y-55866D01*
X74799Y-55925D01*
X74810Y-55983D01*
X74831Y-56037D01*
X74863Y-56087D01*
X74904Y-56129D01*
X74952Y-56163D01*
X75006Y-56186D01*
X75064Y-56199D01*
X75099Y-56200D01*
X75096Y-56200D01*
X75091Y-56199D01*
X75070Y-56202D01*
X75061Y-56203D01*
X75058Y-56204D01*
X75052Y-56205D01*
X75032Y-56212D01*
X75023Y-56215D01*
X75021Y-56216D01*
X75015Y-56218D01*
X74997Y-56229D01*
X74989Y-56233D01*
X74987Y-56235D01*
X74982Y-56238D01*
X74979Y-56239D01*
X74758Y-56405D01*
X74731Y-56400D01*
X74672Y-56399D01*
X74614Y-56410D01*
X74560Y-56432D01*
X74511Y-56465D01*
X74469Y-56506D01*
X74435Y-56554D01*
X74412Y-56608D01*
X74400Y-56666D01*
X74399Y-56725D01*
X74410Y-56783D01*
X74431Y-56837D01*
X74463Y-56887D01*
X74504Y-56929D01*
X74552Y-56963D01*
X74606Y-56986D01*
X74664Y-56999D01*
X74723Y-57000D01*
X74781Y-56990D01*
X74835Y-56969D01*
X74885Y-56937D01*
X74928Y-56896D01*
X74962Y-56848D01*
X74986Y-56795D01*
X74999Y-56737D01*
X74999Y-56725D01*
X75166Y-56600D01*
X75400Y-56600D01*
X75418Y-56598D01*
X75436Y-56596D01*
X75437Y-56596D01*
X75438Y-56596D01*
X75456Y-56590D01*
X75474Y-56585D01*
X75475Y-56585D01*
X75476Y-56584D01*
X75492Y-56576D01*
X75508Y-56567D01*
X75509Y-56567D01*
X75510Y-56566D01*
X75525Y-56554D01*
X75539Y-56543D01*
X75540Y-56541D01*
X75540Y-56541D01*
X75540Y-56541D01*
X75541Y-56541D01*
X78401Y-53681D01*
X78400Y-53697D01*
X78400Y-53699D01*
X78400Y-53699D01*
X78400Y-53699D01*
X78400Y-53700D01*
X78400Y-55217D01*
X78317Y-55300D01*
X78224Y-55300D01*
X78192Y-55267D01*
X78143Y-55234D01*
X78089Y-55212D01*
X78031Y-55200D01*
X77972Y-55199D01*
X77914Y-55210D01*
X77860Y-55232D01*
X77811Y-55265D01*
X77769Y-55306D01*
X77735Y-55354D01*
X77712Y-55408D01*
X77700Y-55466D01*
X77699Y-55525D01*
X77710Y-55583D01*
X77731Y-55637D01*
X77763Y-55687D01*
X77804Y-55729D01*
X77852Y-55763D01*
X77906Y-55786D01*
X77964Y-55799D01*
X78023Y-55800D01*
X78081Y-55790D01*
X78135Y-55769D01*
X78185Y-55737D01*
X78225Y-55700D01*
X78400Y-55700D01*
X78418Y-55698D01*
X78436Y-55696D01*
X78437Y-55696D01*
X78438Y-55696D01*
X78456Y-55690D01*
X78474Y-55685D01*
X78475Y-55685D01*
X78476Y-55684D01*
X78492Y-55676D01*
X78508Y-55667D01*
X78509Y-55667D01*
X78510Y-55666D01*
X78525Y-55654D01*
X78539Y-55643D01*
X78540Y-55641D01*
X78540Y-55641D01*
X78540Y-55641D01*
X78541Y-55641D01*
X78741Y-55441D01*
X78753Y-55427D01*
X78765Y-55412D01*
X78765Y-55412D01*
X78766Y-55411D01*
X78774Y-55394D01*
X78783Y-55378D01*
X78784Y-55377D01*
X78784Y-55376D01*
X78790Y-55359D01*
X78795Y-55341D01*
X78795Y-55340D01*
X78796Y-55339D01*
X78797Y-55321D01*
X78799Y-55302D01*
X78799Y-55300D01*
X78799Y-55300D01*
X78799Y-55300D01*
X78800Y-55300D01*
X78800Y-53883D01*
X78835Y-53869D01*
X78885Y-53837D01*
X78928Y-53796D01*
X78962Y-53748D01*
X78986Y-53695D01*
X78999Y-53637D01*
X79000Y-53570D01*
X78988Y-53512D01*
X78966Y-53458D01*
X78933Y-53409D01*
X78892Y-53367D01*
X78843Y-53334D01*
X78789Y-53312D01*
X78731Y-53300D01*
X78700Y-53299D01*
X78700Y-52723D01*
X78728Y-52696D01*
X78762Y-52648D01*
X78786Y-52595D01*
X78799Y-52537D01*
X78799Y-52483D01*
X78806Y-52486D01*
X78864Y-52499D01*
X78923Y-52500D01*
X78981Y-52490D01*
X79035Y-52469D01*
X79085Y-52437D01*
X79128Y-52396D01*
X79162Y-52348D01*
X79186Y-52295D01*
X79199Y-52237D01*
X79200Y-52170D01*
X79192Y-52130D01*
X80115Y-53053D01*
X80115Y-55690D01*
X79800Y-55690D01*
X79739Y-55695D01*
X79681Y-55713D01*
X79628Y-55741D01*
X79581Y-55780D01*
X79542Y-55826D01*
X79514Y-55879D01*
X79496Y-55937D01*
X79490Y-55997D01*
X79495Y-56058D01*
X79512Y-56116D01*
X79540Y-56169D01*
X79578Y-56216D01*
X79624Y-56255D01*
X79677Y-56284D01*
X79735Y-56303D01*
X79795Y-56309D01*
X79800Y-56310D01*
X80115Y-56310D01*
X80115Y-56945D01*
X80113Y-56946D01*
X80092Y-56967D01*
X80075Y-56992D01*
X80064Y-57019D01*
X80058Y-57048D01*
X80058Y-57077D01*
X80058Y-57550D01*
X80064Y-57579D01*
X80075Y-57606D01*
X80091Y-57631D01*
X80112Y-57652D01*
X80136Y-57668D01*
X80163Y-57680D01*
X80192Y-57686D01*
X80222Y-57686D01*
X80656Y-57686D01*
X80685Y-57680D01*
X80712Y-57669D01*
X80736Y-57653D01*
X80757Y-57632D01*
X80774Y-57607D01*
X80785Y-57580D01*
X80791Y-57551D01*
X80791Y-57522D01*
X80791Y-57651D01*
X80452Y-57834D01*
X79884Y-58010D01*
X79884Y-57147D01*
X79866Y-57054D01*
X79829Y-56966D01*
X79777Y-56887D01*
X79710Y-56820D01*
X79631Y-56766D01*
X79543Y-56730D01*
X79450Y-56711D01*
X79355Y-56710D01*
X79262Y-56728D01*
X79174Y-56763D01*
X79094Y-56815D01*
X79057Y-56852D01*
X79057Y-56323D01*
X79047Y-56273D01*
X79028Y-56227D01*
X79000Y-56184D01*
X78964Y-56148D01*
X78922Y-56120D01*
X78875Y-56100D01*
X78826Y-56090D01*
X78775Y-56090D01*
X78725Y-56099D01*
X78678Y-56118D01*
X78636Y-56146D01*
X78600Y-56182D01*
X78571Y-56223D01*
X78551Y-56270D01*
X78541Y-56319D01*
X78540Y-56370D01*
X78549Y-56420D01*
X78568Y-56467D01*
X78595Y-56510D01*
X78630Y-56546D01*
X78672Y-56575D01*
X78718Y-56595D01*
X78768Y-56606D01*
X78818Y-56607D01*
X78868Y-56598D01*
X78916Y-56580D01*
X78958Y-56553D01*
X78995Y-56518D01*
X79024Y-56477D01*
X79045Y-56430D01*
X79056Y-56381D01*
X79057Y-56323D01*
X79057Y-56852D01*
X79026Y-56882D01*
X78973Y-56960D01*
X78935Y-57048D01*
X78915Y-57141D01*
X78914Y-57236D01*
X78931Y-57329D01*
X78966Y-57417D01*
X79018Y-57497D01*
X79084Y-57566D01*
X79162Y-57620D01*
X79249Y-57658D01*
X79342Y-57678D01*
X79437Y-57680D01*
X79530Y-57664D01*
X79619Y-57630D01*
X79699Y-57579D01*
X79768Y-57513D01*
X79823Y-57435D01*
X79861Y-57349D01*
X79882Y-57256D01*
X79884Y-57147D01*
X79884Y-58010D01*
X79272Y-58200D01*
X78044Y-58329D01*
X77482Y-58278D01*
X77482Y-56323D01*
X77473Y-56273D01*
X77453Y-56227D01*
X77425Y-56184D01*
X77390Y-56148D01*
X77348Y-56120D01*
X77301Y-56100D01*
X77251Y-56090D01*
X77201Y-56090D01*
X77151Y-56099D01*
X77104Y-56118D01*
X77061Y-56146D01*
X77025Y-56182D01*
X76997Y-56223D01*
X76977Y-56270D01*
X76966Y-56319D01*
X76965Y-56370D01*
X76975Y-56420D01*
X76993Y-56467D01*
X77021Y-56510D01*
X77056Y-56546D01*
X77097Y-56575D01*
X77144Y-56595D01*
X77193Y-56606D01*
X77244Y-56607D01*
X77294Y-56598D01*
X77341Y-56580D01*
X77384Y-56553D01*
X77421Y-56518D01*
X77450Y-56477D01*
X77470Y-56430D01*
X77482Y-56381D01*
X77482Y-56323D01*
X77482Y-58278D01*
X77108Y-58244D01*
X77108Y-57147D01*
X77090Y-57054D01*
X77054Y-56966D01*
X77001Y-56887D01*
X76934Y-56820D01*
X76855Y-56766D01*
X76768Y-56730D01*
X76675Y-56711D01*
X76580Y-56710D01*
X76486Y-56728D01*
X76398Y-56763D01*
X76319Y-56815D01*
X76251Y-56882D01*
X76197Y-56960D01*
X76160Y-57048D01*
X76140Y-57141D01*
X76138Y-57236D01*
X76156Y-57329D01*
X76191Y-57417D01*
X76242Y-57497D01*
X76308Y-57566D01*
X76386Y-57620D01*
X76473Y-57658D01*
X76566Y-57678D01*
X76661Y-57680D01*
X76755Y-57664D01*
X76843Y-57630D01*
X76924Y-57579D01*
X76992Y-57513D01*
X77047Y-57435D01*
X77086Y-57349D01*
X77107Y-57256D01*
X77108Y-57147D01*
X77108Y-58244D01*
X76813Y-58217D01*
X75628Y-57868D01*
X74534Y-57296D01*
X73571Y-56522D01*
X72777Y-55575D01*
X72182Y-54493D01*
X71808Y-53315D01*
X71671Y-52088D01*
X71774Y-50857D01*
X72114Y-49669D01*
X72679Y-48571D01*
X73446Y-47603D01*
X74387Y-46802D01*
X75465Y-46199D01*
X76640Y-45818D01*
X77120Y-45761D01*
X77120Y-47359D01*
X82302Y-47367D01*
X82364Y-47416D01*
X83172Y-48351D01*
X83782Y-49425D01*
X84172Y-50597D01*
X84327Y-51830D01*
X84330Y-51992D01*
M02*
